%TF.GenerationSoftware,KiCad,Pcbnew,8.0.7-8.0.7-0~ubuntu24.04.1*%
%TF.CreationDate,2025-01-04T16:35:35+01:00*%
%TF.ProjectId,drn2,64726e32-2e6b-4696-9361-645f70636258,rev?*%
%TF.SameCoordinates,Original*%
%TF.FileFunction,Paste,Top*%
%TF.FilePolarity,Positive*%
%FSLAX46Y46*%
G04 Gerber Fmt 4.6, Leading zero omitted, Abs format (unit mm)*
G04 Created by KiCad (PCBNEW 8.0.7-8.0.7-0~ubuntu24.04.1) date 2025-01-04 16:35:35*
%MOMM*%
%LPD*%
G01*
G04 APERTURE LIST*
G04 Aperture macros list*
%AMRoundRect*
0 Rectangle with rounded corners*
0 $1 Rounding radius*
0 $2 $3 $4 $5 $6 $7 $8 $9 X,Y pos of 4 corners*
0 Add a 4 corners polygon primitive as box body*
4,1,4,$2,$3,$4,$5,$6,$7,$8,$9,$2,$3,0*
0 Add four circle primitives for the rounded corners*
1,1,$1+$1,$2,$3*
1,1,$1+$1,$4,$5*
1,1,$1+$1,$6,$7*
1,1,$1+$1,$8,$9*
0 Add four rect primitives between the rounded corners*
20,1,$1+$1,$2,$3,$4,$5,0*
20,1,$1+$1,$4,$5,$6,$7,0*
20,1,$1+$1,$6,$7,$8,$9,0*
20,1,$1+$1,$8,$9,$2,$3,0*%
G04 Aperture macros list end*
%ADD10RoundRect,0.237500X-0.237500X0.300000X-0.237500X-0.300000X0.237500X-0.300000X0.237500X0.300000X0*%
%ADD11RoundRect,0.200000X0.200000X0.275000X-0.200000X0.275000X-0.200000X-0.275000X0.200000X-0.275000X0*%
%ADD12RoundRect,0.218750X0.256250X-0.218750X0.256250X0.218750X-0.256250X0.218750X-0.256250X-0.218750X0*%
%ADD13RoundRect,0.250000X1.050000X0.550000X-1.050000X0.550000X-1.050000X-0.550000X1.050000X-0.550000X0*%
%ADD14RoundRect,0.237500X0.237500X-0.300000X0.237500X0.300000X-0.237500X0.300000X-0.237500X-0.300000X0*%
%ADD15RoundRect,0.200000X-0.200000X-0.275000X0.200000X-0.275000X0.200000X0.275000X-0.200000X0.275000X0*%
%ADD16RoundRect,0.218750X-0.218750X-0.256250X0.218750X-0.256250X0.218750X0.256250X-0.218750X0.256250X0*%
%ADD17RoundRect,0.218750X0.218750X0.256250X-0.218750X0.256250X-0.218750X-0.256250X0.218750X-0.256250X0*%
%ADD18R,0.230000X0.350000*%
%ADD19R,0.350000X0.230000*%
%ADD20RoundRect,0.200000X-0.275000X0.200000X-0.275000X-0.200000X0.275000X-0.200000X0.275000X0.200000X0*%
G04 APERTURE END LIST*
D10*
%TO.C,C5*%
X113000000Y-82637500D03*
X113000000Y-84362500D03*
%TD*%
D11*
%TO.C,R9*%
X122325000Y-80000000D03*
X120675000Y-80000000D03*
%TD*%
D12*
%TO.C,D3*%
X149000000Y-84287500D03*
X149000000Y-82712500D03*
%TD*%
D13*
%TO.C,C4*%
X111300000Y-80500000D03*
X107700000Y-80500000D03*
%TD*%
D14*
%TO.C,C2*%
X118700000Y-82562500D03*
X118700000Y-80837500D03*
%TD*%
%TO.C,C3*%
X115000000Y-84362500D03*
X115000000Y-82637500D03*
%TD*%
D15*
%TO.C,R8*%
X105675000Y-85000000D03*
X107325000Y-85000000D03*
%TD*%
D12*
%TO.C,D1*%
X154000000Y-84287500D03*
X154000000Y-82712500D03*
%TD*%
D16*
%TO.C,D5*%
X163212500Y-98000000D03*
X164787500Y-98000000D03*
%TD*%
D11*
%TO.C,R3*%
X86825000Y-95000000D03*
X85175000Y-95000000D03*
%TD*%
%TO.C,R11*%
X122325000Y-83000000D03*
X120675000Y-83000000D03*
%TD*%
D15*
%TO.C,R1*%
X163175000Y-47000000D03*
X164825000Y-47000000D03*
%TD*%
D16*
%TO.C,D4*%
X163425000Y-44000000D03*
X165000000Y-44000000D03*
%TD*%
D15*
%TO.C,R2*%
X163175000Y-95000000D03*
X164825000Y-95000000D03*
%TD*%
%TO.C,R10*%
X109175000Y-85000000D03*
X110825000Y-85000000D03*
%TD*%
D17*
%TO.C,D6*%
X86787500Y-98000000D03*
X85212500Y-98000000D03*
%TD*%
D18*
%TO.C,U1*%
X117105000Y-80125000D03*
D19*
X117075000Y-79545000D03*
X117075000Y-79115000D03*
X117075000Y-78685000D03*
X117075000Y-78255000D03*
D18*
X117105000Y-77675000D03*
X116675000Y-77675000D03*
X116245000Y-77675000D03*
X115815000Y-77675000D03*
X115385000Y-77675000D03*
X114955000Y-77675000D03*
X114525000Y-77675000D03*
X114095000Y-77675000D03*
D19*
X114125000Y-78255000D03*
X114125000Y-78685000D03*
X114125000Y-79115000D03*
X114125000Y-79545000D03*
D18*
X114095000Y-80125000D03*
X114525000Y-80125000D03*
X114955000Y-80125000D03*
X115385000Y-80125000D03*
X115815000Y-80125000D03*
X116245000Y-80125000D03*
X116675000Y-80125000D03*
%TD*%
D10*
%TO.C,C1*%
X117000000Y-82637500D03*
X117000000Y-84362500D03*
%TD*%
D12*
%TO.C,D2*%
X151500000Y-84287500D03*
X151500000Y-82712500D03*
%TD*%
D20*
%TO.C,R4*%
X154020000Y-78675000D03*
X154020000Y-80325000D03*
%TD*%
%TO.C,R5*%
X151510000Y-78675000D03*
X151510000Y-80325000D03*
%TD*%
%TO.C,R6*%
X149000000Y-78675000D03*
X149000000Y-80325000D03*
%TD*%
M02*
