%TF.GenerationSoftware,KiCad,Pcbnew,8.0.7-8.0.7-0~ubuntu24.04.1*%
%TF.CreationDate,2025-02-04T17:05:25+01:00*%
%TF.ProjectId,drn2,64726e32-2e6b-4696-9361-645f70636258,rev?*%
%TF.SameCoordinates,Original*%
%TF.FileFunction,Soldermask,Top*%
%TF.FilePolarity,Negative*%
%FSLAX46Y46*%
G04 Gerber Fmt 4.6, Leading zero omitted, Abs format (unit mm)*
G04 Created by KiCad (PCBNEW 8.0.7-8.0.7-0~ubuntu24.04.1) date 2025-02-04 17:05:25*
%MOMM*%
%LPD*%
G01*
G04 APERTURE LIST*
G04 Aperture macros list*
%AMRoundRect*
0 Rectangle with rounded corners*
0 $1 Rounding radius*
0 $2 $3 $4 $5 $6 $7 $8 $9 X,Y pos of 4 corners*
0 Add a 4 corners polygon primitive as box body*
4,1,4,$2,$3,$4,$5,$6,$7,$8,$9,$2,$3,0*
0 Add four circle primitives for the rounded corners*
1,1,$1+$1,$2,$3*
1,1,$1+$1,$4,$5*
1,1,$1+$1,$6,$7*
1,1,$1+$1,$8,$9*
0 Add four rect primitives between the rounded corners*
20,1,$1+$1,$2,$3,$4,$5,0*
20,1,$1+$1,$4,$5,$6,$7,0*
20,1,$1+$1,$6,$7,$8,$9,0*
20,1,$1+$1,$8,$9,$2,$3,0*%
G04 Aperture macros list end*
%ADD10R,1.700000X1.700000*%
%ADD11O,1.700000X1.700000*%
%ADD12RoundRect,0.237500X-0.237500X0.300000X-0.237500X-0.300000X0.237500X-0.300000X0.237500X0.300000X0*%
%ADD13RoundRect,0.200000X0.200000X0.275000X-0.200000X0.275000X-0.200000X-0.275000X0.200000X-0.275000X0*%
%ADD14C,1.000000*%
%ADD15RoundRect,0.218750X-0.218750X-0.256250X0.218750X-0.256250X0.218750X0.256250X-0.218750X0.256250X0*%
%ADD16RoundRect,0.250000X1.050000X0.550000X-1.050000X0.550000X-1.050000X-0.550000X1.050000X-0.550000X0*%
%ADD17RoundRect,1.500000X-1.500000X-1.500000X1.500000X-1.500000X1.500000X1.500000X-1.500000X1.500000X0*%
%ADD18C,6.000000*%
%ADD19RoundRect,0.237500X0.237500X-0.300000X0.237500X0.300000X-0.237500X0.300000X-0.237500X-0.300000X0*%
%ADD20RoundRect,0.200000X-0.200000X-0.275000X0.200000X-0.275000X0.200000X0.275000X-0.200000X0.275000X0*%
%ADD21RoundRect,0.218750X-0.256250X0.218750X-0.256250X-0.218750X0.256250X-0.218750X0.256250X0.218750X0*%
%ADD22RoundRect,0.250000X0.600000X0.725000X-0.600000X0.725000X-0.600000X-0.725000X0.600000X-0.725000X0*%
%ADD23O,1.700000X1.950000*%
%ADD24C,0.800000*%
%ADD25C,6.400000*%
%ADD26RoundRect,0.200000X-0.275000X0.200000X-0.275000X-0.200000X0.275000X-0.200000X0.275000X0.200000X0*%
%ADD27RoundRect,0.218750X0.218750X0.256250X-0.218750X0.256250X-0.218750X-0.256250X0.218750X-0.256250X0*%
%ADD28R,0.230000X0.350000*%
%ADD29R,0.350000X0.230000*%
%ADD30RoundRect,0.200000X0.275000X-0.200000X0.275000X0.200000X-0.275000X0.200000X-0.275000X-0.200000X0*%
%ADD31R,1.600000X1.600000*%
%ADD32O,1.600000X1.600000*%
G04 APERTURE END LIST*
D10*
%TO.C,J3*%
X127000000Y-160125000D03*
D11*
X127000000Y-157585000D03*
X127000000Y-155045000D03*
%TD*%
D12*
%TO.C,C5*%
X98170000Y-157112500D03*
X98170000Y-158837500D03*
%TD*%
D13*
%TO.C,R9*%
X107495000Y-154475000D03*
X105845000Y-154475000D03*
%TD*%
D14*
%TO.C,MO1*%
X127000000Y-152000000D03*
%TD*%
D15*
%TO.C,D3*%
X157012500Y-141000000D03*
X158587500Y-141000000D03*
%TD*%
D16*
%TO.C,C4*%
X96470000Y-154975000D03*
X92870000Y-154975000D03*
%TD*%
D17*
%TO.C,J3_F2_BAT1*%
X69400000Y-170000000D03*
D18*
X76600000Y-170000000D03*
%TD*%
D19*
%TO.C,C2*%
X103870000Y-157037500D03*
X103870000Y-155312500D03*
%TD*%
D17*
%TO.C,J4_M0_MOT0*%
X88000000Y-170000000D03*
D18*
X95200000Y-170000000D03*
%TD*%
D10*
%TO.C,TXRX1*%
X92000000Y-146950000D03*
D11*
X94540000Y-146950000D03*
X97080000Y-146950000D03*
%TD*%
D10*
%TO.C,J1*%
X131000000Y-160100000D03*
D11*
X131000000Y-157560000D03*
X131000000Y-155020000D03*
%TD*%
D10*
%TO.C,J13*%
X113250000Y-148600000D03*
D11*
X115790000Y-148600000D03*
X118330000Y-148600000D03*
X120870000Y-148600000D03*
%TD*%
D20*
%TO.C,R7*%
X133887500Y-160118750D03*
X135537500Y-160118750D03*
%TD*%
D19*
%TO.C,C3*%
X100170000Y-158837500D03*
X100170000Y-157112500D03*
%TD*%
D17*
%TO.C,J4_M3_MOT3*%
X143400000Y-170000000D03*
D18*
X150600000Y-170000000D03*
%TD*%
D15*
%TO.C,D7*%
X133925000Y-158518750D03*
X135500000Y-158518750D03*
%TD*%
D10*
%TO.C,J15VBECOUT1*%
X157400000Y-154725000D03*
D11*
X157400000Y-157265000D03*
X157400000Y-159805000D03*
%TD*%
D20*
%TO.C,R8*%
X91425000Y-158250000D03*
X93075000Y-158250000D03*
%TD*%
D18*
%TO.C,RPI02*%
X82075000Y-141325000D03*
X140075000Y-141325000D03*
X82075000Y-118325000D03*
X140075000Y-118325000D03*
D10*
X86945000Y-140055000D03*
D11*
X86945000Y-142595000D03*
X89485000Y-140055000D03*
X89485000Y-142595000D03*
X92025000Y-140055000D03*
X92025000Y-142595000D03*
X94565000Y-140055000D03*
X94565000Y-142595000D03*
X97105000Y-140055000D03*
X97105000Y-142595000D03*
X99645000Y-140055000D03*
X99645000Y-142595000D03*
X102185000Y-140055000D03*
X102185000Y-142595000D03*
X104725000Y-140055000D03*
X104725000Y-142595000D03*
X107265000Y-140055000D03*
X107265000Y-142595000D03*
X109805000Y-140055000D03*
X109805000Y-142595000D03*
X112345000Y-140055000D03*
X112345000Y-142595000D03*
X114885000Y-140055000D03*
X114885000Y-142595000D03*
X117425000Y-140055000D03*
X117425000Y-142595000D03*
X119965000Y-140055000D03*
X119965000Y-142595000D03*
X122505000Y-140055000D03*
X122505000Y-142595000D03*
X125045000Y-140055000D03*
X125045000Y-142595000D03*
X127585000Y-140055000D03*
X127585000Y-142595000D03*
X130125000Y-140055000D03*
X130125000Y-142595000D03*
X132665000Y-140055000D03*
X132665000Y-142595000D03*
X135205000Y-140055000D03*
X135205000Y-142595000D03*
%TD*%
D14*
%TO.C,MO0*%
X131000000Y-152000000D03*
%TD*%
%TO.C,SDA3*%
X95000000Y-151400000D03*
%TD*%
D21*
%TO.C,D1*%
X146300000Y-137812500D03*
X146300000Y-139387500D03*
%TD*%
D15*
%TO.C,D5*%
X157012500Y-182600000D03*
X158587500Y-182600000D03*
%TD*%
D10*
%TO.C,J14GND1*%
X157450000Y-145660000D03*
D11*
X157450000Y-148200000D03*
X157450000Y-150740000D03*
%TD*%
D14*
%TO.C,VDDIO1*%
X88500000Y-154000000D03*
%TD*%
D10*
%TO.C,J4*%
X123000000Y-160125000D03*
D11*
X123000000Y-157585000D03*
X123000000Y-155045000D03*
%TD*%
D14*
%TO.C,MO2*%
X123000000Y-152000000D03*
%TD*%
%TO.C,MO3*%
X119000000Y-152000000D03*
%TD*%
D22*
%TO.C,J9*%
X83650000Y-159800000D03*
D23*
X81150000Y-159800000D03*
X78650000Y-159800000D03*
X76150000Y-159800000D03*
%TD*%
D13*
%TO.C,R3*%
X65425000Y-181000000D03*
X63775000Y-181000000D03*
%TD*%
D20*
%TO.C,R11*%
X105845000Y-157475000D03*
X107495000Y-157475000D03*
%TD*%
D14*
%TO.C,GND7*%
X151850000Y-160250000D03*
%TD*%
D20*
%TO.C,R1*%
X156975000Y-139400000D03*
X158625000Y-139400000D03*
%TD*%
D24*
%TO.C,GND2*%
X68850000Y-141500000D03*
X69552944Y-139802944D03*
X69552944Y-143197056D03*
X71250000Y-139100000D03*
D25*
X71250000Y-141500000D03*
D24*
X71250000Y-143900000D03*
X72947056Y-139802944D03*
X72947056Y-143197056D03*
X73650000Y-141500000D03*
%TD*%
D10*
%TO.C,J10*%
X64700000Y-160940000D03*
D11*
X64700000Y-158400000D03*
X64700000Y-155860000D03*
X64700000Y-153320000D03*
X64700000Y-150780000D03*
X64700000Y-148240000D03*
X64700000Y-145700000D03*
X64700000Y-143160000D03*
X64700000Y-140620000D03*
%TD*%
D14*
%TO.C,VDD1*%
X88300000Y-157350000D03*
%TD*%
D15*
%TO.C,D4*%
X157012500Y-137800000D03*
X158587500Y-137800000D03*
%TD*%
D24*
%TO.C,GND1*%
X149900000Y-141500000D03*
X150602944Y-139802944D03*
X150602944Y-143197056D03*
X152300000Y-139100000D03*
D25*
X152300000Y-141500000D03*
D24*
X152300000Y-143900000D03*
X153997056Y-139802944D03*
X153997056Y-143197056D03*
X154700000Y-141500000D03*
%TD*%
D26*
%TO.C,R15*%
X68050000Y-147825000D03*
X68050000Y-149475000D03*
%TD*%
%TO.C,R14*%
X68050000Y-150875000D03*
X68050000Y-152525000D03*
%TD*%
D14*
%TO.C,5V1*%
X148200000Y-160500000D03*
%TD*%
D20*
%TO.C,R2*%
X156975000Y-181000000D03*
X158625000Y-181000000D03*
%TD*%
D10*
%TO.C,J16*%
X151900000Y-155580000D03*
D11*
X151900000Y-153040000D03*
X151900000Y-150500000D03*
%TD*%
D17*
%TO.C,J4_M2_MOT2*%
X124800000Y-170000000D03*
D18*
X132000000Y-170000000D03*
%TD*%
D20*
%TO.C,R10*%
X94925000Y-158250000D03*
X96575000Y-158250000D03*
%TD*%
D24*
%TO.C,GND3*%
X68850000Y-179800000D03*
X69552944Y-178102944D03*
X69552944Y-181497056D03*
X71250000Y-177400000D03*
D25*
X71250000Y-179800000D03*
D24*
X71250000Y-182200000D03*
X72947056Y-178102944D03*
X72947056Y-181497056D03*
X73650000Y-179800000D03*
%TD*%
D27*
%TO.C,D6*%
X65387500Y-182600000D03*
X63812500Y-182600000D03*
%TD*%
D28*
%TO.C,U1*%
X102275000Y-154600000D03*
D29*
X102245000Y-154020000D03*
X102245000Y-153590000D03*
X102245000Y-153160000D03*
X102245000Y-152730000D03*
D28*
X102275000Y-152150000D03*
X101845000Y-152150000D03*
X101415000Y-152150000D03*
X100985000Y-152150000D03*
X100555000Y-152150000D03*
X100125000Y-152150000D03*
X99695000Y-152150000D03*
X99265000Y-152150000D03*
D29*
X99295000Y-152730000D03*
X99295000Y-153160000D03*
X99295000Y-153590000D03*
X99295000Y-154020000D03*
D28*
X99265000Y-154600000D03*
X99695000Y-154600000D03*
X100125000Y-154600000D03*
X100555000Y-154600000D03*
X100985000Y-154600000D03*
X101415000Y-154600000D03*
X101845000Y-154600000D03*
%TD*%
D12*
%TO.C,C1*%
X102170000Y-157112500D03*
X102170000Y-158837500D03*
%TD*%
D10*
%TO.C,J7*%
X119000000Y-160140000D03*
D11*
X119000000Y-157600000D03*
X119000000Y-155060000D03*
%TD*%
D14*
%TO.C,SCL1*%
X97600000Y-151400000D03*
%TD*%
%TO.C,BAT1*%
X64800000Y-178400000D03*
%TD*%
D21*
%TO.C,D2*%
X147900000Y-137812500D03*
X147900000Y-139387500D03*
%TD*%
D30*
%TO.C,R4*%
X145300000Y-142525000D03*
X145300000Y-140875000D03*
%TD*%
%TO.C,R5*%
X146900000Y-142525000D03*
X146900000Y-140875000D03*
%TD*%
D17*
%TO.C,J4_M1_MOT1*%
X106400000Y-170000000D03*
D18*
X113600000Y-170000000D03*
%TD*%
D24*
%TO.C,GND4*%
X149900000Y-179800000D03*
X150602944Y-178102944D03*
X150602944Y-181497056D03*
X152300000Y-177400000D03*
D25*
X152300000Y-179800000D03*
D24*
X152300000Y-182200000D03*
X153997056Y-178102944D03*
X153997056Y-181497056D03*
X154700000Y-179800000D03*
%TD*%
D20*
%TO.C,R6*%
X156975000Y-142600000D03*
X158625000Y-142600000D03*
%TD*%
D31*
%TO.C,U3*%
X70570000Y-154070000D03*
D32*
X73110000Y-154070000D03*
X75650000Y-154070000D03*
X78190000Y-154070000D03*
X80730000Y-154070000D03*
X83270000Y-154070000D03*
X85810000Y-154070000D03*
X85810000Y-146450000D03*
X83270000Y-146450000D03*
X80730000Y-146450000D03*
X78190000Y-146450000D03*
X75650000Y-146450000D03*
X73110000Y-146450000D03*
X70570000Y-146450000D03*
%TD*%
M02*
