M48
; DRILL file {KiCad 8.0.6-8.0.6-0~ubuntu24.04.1} date 2024-11-13T13:21:24+0100
; FORMAT={-:-/ absolute / inch / decimal}
; #@! TF.CreationDate,2024-11-13T13:21:24+01:00
; #@! TF.GenerationSoftware,Kicad,Pcbnew,8.0.6-8.0.6-0~ubuntu24.04.1
; #@! TF.FileFunction,Plated,1,2,PTH
FMAT,2
INCH
; #@! TA.AperFunction,Plated,PTH,ViaDrill
T1C0.0118
; #@! TA.AperFunction,Plated,PTH,ComponentDrill
T2C0.0197
; #@! TA.AperFunction,Plated,PTH,ComponentDrill
T3C0.0374
; #@! TA.AperFunction,Plated,PTH,ComponentDrill
T4C0.0394
; #@! TA.AperFunction,Plated,PTH,ComponentDrill
T5C0.1260
; #@! TA.AperFunction,Plated,PTH,ComponentDrill
T6C0.1772
%
G90
G05
T1
X2.5591Y-3.2677
X3.2283Y-1.6142
X3.2283Y-1.6142
X3.2283Y-1.6142
X3.2283Y-1.6142
X3.2283Y-1.6142
X3.2283Y-1.6142
X3.2283Y-3.9764
X3.4646Y-3.8583
X3.5433Y-3.1299
X3.6417Y-1.6929
X3.7008Y-2.9724
X3.9764Y-2.9331
X4.0354Y-3.1496
X4.0551Y-2.9724
X4.0577Y-3.1719
X4.0748Y-3.1102
X4.0971Y-3.1325
X4.1339Y-3.3268
X4.1732Y-3.2052
X4.1732Y-3.2525
X4.2697Y-2.4331
X4.3504Y-3.3465
X4.439Y-2.4606
X4.5646Y-2.4976
X4.7047Y-2.5689
X4.7441Y-2.5
X4.8311Y-2.5075
X4.9016Y-2.5591
X4.9409Y-2.5
X5.0Y-2.5492
X5.1575Y-2.5689
X5.2461Y-2.5453
X5.3346Y-3.8583
X5.3445Y-2.5197
X5.3494Y-2.4754
X5.4035Y-2.4961
X5.502Y-2.4961
X5.9646Y-3.3661
X6.378Y-1.7323
X6.378Y-3.8583
X6.6142Y-1.6142
X6.6142Y-3.9764
T2
X2.5433Y-1.3386
X2.5433Y-4.2126
X2.571Y-1.2718
X2.571Y-1.4054
X2.571Y-4.1458
X2.571Y-4.2794
X2.6378Y-1.2441
X2.6378Y-1.4331
X2.6378Y-4.1181
X2.6378Y-4.3071
X2.7046Y-1.2718
X2.7046Y-1.4054
X2.7046Y-4.1458
X2.7046Y-4.2794
X2.7323Y-1.3386
X2.7323Y-4.2126
X6.7559Y-1.3386
X6.7559Y-4.2126
X6.7836Y-1.2718
X6.7836Y-1.4054
X6.7836Y-4.1458
X6.7836Y-4.2794
X6.8504Y-1.2441
X6.8504Y-1.4331
X6.8504Y-4.1181
X6.8504Y-4.3071
X6.9172Y-1.2718
X6.9172Y-1.4054
X6.9172Y-4.1458
X6.9172Y-4.2794
X6.9449Y-1.3386
X6.9449Y-4.2126
T3
X4.7441Y-3.5827
X4.8425Y-3.5827
X4.9409Y-3.5827
X5.0394Y-3.5827
X5.1378Y-3.5827
X5.2362Y-3.5827
X5.3346Y-3.5827
X5.4331Y-3.5827
X5.5315Y-3.5827
X5.6299Y-3.5827
X5.7283Y-3.5827
X5.8268Y-3.5827
T4
X2.9071Y-1.4567
X3.0071Y-1.4567
X3.1071Y-1.4567
X3.2071Y-1.4567
X3.3071Y-1.4567
X3.3563Y-2.5378
X3.3563Y-2.6378
X3.3563Y-2.7378
X3.3563Y-3.0004
X3.3563Y-3.1004
X3.3563Y-3.2004
X3.3827Y-3.3858
X3.3827Y-3.5689
X3.4071Y-1.4567
X3.4827Y-3.3858
X3.4827Y-3.5689
X3.5071Y-1.4567
X3.5827Y-3.3858
X3.5827Y-3.5689
X3.6071Y-1.4567
X4.0018Y-2.7463
X4.0018Y-2.8463
X4.1018Y-2.7463
X4.1018Y-2.8463
X4.2018Y-2.7463
X4.2018Y-2.8463
X4.3018Y-2.7463
X4.3018Y-2.8463
X4.311Y-3.0906
X4.4018Y-2.7463
X4.4018Y-2.8463
X4.411Y-3.0906
X4.5018Y-2.7463
X4.5018Y-2.8463
X4.511Y-3.0906
X4.6018Y-2.7463
X4.6018Y-2.8463
X4.7018Y-2.7463
X4.7018Y-2.8463
X4.8018Y-2.7463
X4.8018Y-2.8463
X4.8425Y-3.1496
X4.8425Y-3.2496
X4.8425Y-3.3496
X4.9018Y-2.7463
X4.9018Y-2.8463
X5.0018Y-2.7463
X5.0018Y-2.8463
X5.1018Y-2.7463
X5.1018Y-2.8463
X5.1378Y-3.1496
X5.1378Y-3.2496
X5.1378Y-3.3496
X5.2018Y-2.7463
X5.2018Y-2.8463
X5.3018Y-2.7463
X5.3018Y-2.8463
X5.4018Y-2.7463
X5.4018Y-2.8463
X5.4331Y-3.1486
X5.4331Y-3.2486
X5.4331Y-3.3486
X5.5018Y-2.7463
X5.5018Y-2.8463
X5.6018Y-2.7463
X5.6018Y-2.8463
X5.7018Y-2.7463
X5.7018Y-2.8463
X5.7283Y-3.1496
X5.7283Y-3.2496
X5.7283Y-3.3496
X5.8018Y-2.7463
X5.8018Y-2.8463
X5.9018Y-2.7463
X5.9018Y-2.8463
X6.3287Y-2.7943
X6.3287Y-2.8943
X6.3287Y-2.9943
X6.4961Y-2.0156
X6.4961Y-2.1156
X6.4961Y-2.2156
X6.4961Y-2.3902
X6.4961Y-2.4902
X6.4961Y-2.5902
X6.4961Y-2.7642
X6.4961Y-2.8642
X6.4961Y-2.9642
T5
X2.6378Y-1.3386
X2.6378Y-4.2126
X6.8504Y-1.3386
X6.8504Y-4.2126
T6
X2.6535Y-1.8504
X2.6535Y-2.3622
X2.6535Y-2.874
X2.937Y-1.8504
X2.937Y-2.3622
X2.937Y-2.874
X3.4646Y-1.9055
X3.4646Y-2.189
X4.6417Y-1.378
X4.6417Y-4.252
X4.9252Y-1.378
X4.9252Y-4.252
X6.8661Y-2.7953
X6.8661Y-3.0787
M30
