%TF.GenerationSoftware,KiCad,Pcbnew,8.0.7-8.0.7-0~ubuntu24.04.1*%
%TF.CreationDate,2025-02-07T15:23:20+01:00*%
%TF.ProjectId,drn2,64726e32-2e6b-4696-9361-645f70636258,rev?*%
%TF.SameCoordinates,Original*%
%TF.FileFunction,Legend,Bot*%
%TF.FilePolarity,Positive*%
%FSLAX46Y46*%
G04 Gerber Fmt 4.6, Leading zero omitted, Abs format (unit mm)*
G04 Created by KiCad (PCBNEW 8.0.7-8.0.7-0~ubuntu24.04.1) date 2025-02-07 15:23:20*
%MOMM*%
%LPD*%
G01*
G04 APERTURE LIST*
%ADD10C,0.100000*%
G04 APERTURE END LIST*
D10*
X86317544Y-168205752D02*
X86317544Y-169015276D01*
X86317544Y-169015276D02*
X86365163Y-169110514D01*
X86365163Y-169110514D02*
X86412782Y-169158133D01*
X86412782Y-169158133D02*
X86508020Y-169205752D01*
X86508020Y-169205752D02*
X86650877Y-169205752D01*
X86650877Y-169205752D02*
X86746115Y-169158133D01*
X86317544Y-168824800D02*
X86412782Y-168872419D01*
X86412782Y-168872419D02*
X86603258Y-168872419D01*
X86603258Y-168872419D02*
X86698496Y-168824800D01*
X86698496Y-168824800D02*
X86746115Y-168777180D01*
X86746115Y-168777180D02*
X86793734Y-168681942D01*
X86793734Y-168681942D02*
X86793734Y-168396228D01*
X86793734Y-168396228D02*
X86746115Y-168300990D01*
X86746115Y-168300990D02*
X86698496Y-168253371D01*
X86698496Y-168253371D02*
X86603258Y-168205752D01*
X86603258Y-168205752D02*
X86412782Y-168205752D01*
X86412782Y-168205752D02*
X86317544Y-168253371D01*
X85841353Y-168872419D02*
X85841353Y-168205752D01*
X85841353Y-167872419D02*
X85888972Y-167920038D01*
X85888972Y-167920038D02*
X85841353Y-167967657D01*
X85841353Y-167967657D02*
X85793734Y-167920038D01*
X85793734Y-167920038D02*
X85841353Y-167872419D01*
X85841353Y-167872419D02*
X85841353Y-167967657D01*
X85508020Y-168205752D02*
X85127068Y-168205752D01*
X85365163Y-167872419D02*
X85365163Y-168729561D01*
X85365163Y-168729561D02*
X85317544Y-168824800D01*
X85317544Y-168824800D02*
X85222306Y-168872419D01*
X85222306Y-168872419D02*
X85127068Y-168872419D01*
X84793734Y-168872419D02*
X84793734Y-167872419D01*
X84365163Y-168872419D02*
X84365163Y-168348609D01*
X84365163Y-168348609D02*
X84412782Y-168253371D01*
X84412782Y-168253371D02*
X84508020Y-168205752D01*
X84508020Y-168205752D02*
X84650877Y-168205752D01*
X84650877Y-168205752D02*
X84746115Y-168253371D01*
X84746115Y-168253371D02*
X84793734Y-168300990D01*
X83460401Y-168205752D02*
X83460401Y-168872419D01*
X83888972Y-168205752D02*
X83888972Y-168729561D01*
X83888972Y-168729561D02*
X83841353Y-168824800D01*
X83841353Y-168824800D02*
X83746115Y-168872419D01*
X83746115Y-168872419D02*
X83603258Y-168872419D01*
X83603258Y-168872419D02*
X83508020Y-168824800D01*
X83508020Y-168824800D02*
X83460401Y-168777180D01*
X82984210Y-168872419D02*
X82984210Y-167872419D01*
X82984210Y-168253371D02*
X82888972Y-168205752D01*
X82888972Y-168205752D02*
X82698496Y-168205752D01*
X82698496Y-168205752D02*
X82603258Y-168253371D01*
X82603258Y-168253371D02*
X82555639Y-168300990D01*
X82555639Y-168300990D02*
X82508020Y-168396228D01*
X82508020Y-168396228D02*
X82508020Y-168681942D01*
X82508020Y-168681942D02*
X82555639Y-168777180D01*
X82555639Y-168777180D02*
X82603258Y-168824800D01*
X82603258Y-168824800D02*
X82698496Y-168872419D01*
X82698496Y-168872419D02*
X82888972Y-168872419D01*
X82888972Y-168872419D02*
X82984210Y-168824800D01*
X82079448Y-168777180D02*
X82031829Y-168824800D01*
X82031829Y-168824800D02*
X82079448Y-168872419D01*
X82079448Y-168872419D02*
X82127067Y-168824800D01*
X82127067Y-168824800D02*
X82079448Y-168777180D01*
X82079448Y-168777180D02*
X82079448Y-168872419D01*
X82079448Y-168253371D02*
X82031829Y-168300990D01*
X82031829Y-168300990D02*
X82079448Y-168348609D01*
X82079448Y-168348609D02*
X82127067Y-168300990D01*
X82127067Y-168300990D02*
X82079448Y-168253371D01*
X82079448Y-168253371D02*
X82079448Y-168348609D01*
X81222306Y-168824800D02*
X81317544Y-168872419D01*
X81317544Y-168872419D02*
X81508020Y-168872419D01*
X81508020Y-168872419D02*
X81603258Y-168824800D01*
X81603258Y-168824800D02*
X81650877Y-168729561D01*
X81650877Y-168729561D02*
X81650877Y-168348609D01*
X81650877Y-168348609D02*
X81603258Y-168253371D01*
X81603258Y-168253371D02*
X81508020Y-168205752D01*
X81508020Y-168205752D02*
X81317544Y-168205752D01*
X81317544Y-168205752D02*
X81222306Y-168253371D01*
X81222306Y-168253371D02*
X81174687Y-168348609D01*
X81174687Y-168348609D02*
X81174687Y-168443847D01*
X81174687Y-168443847D02*
X81650877Y-168539085D01*
X80746115Y-168872419D02*
X80746115Y-167872419D01*
X80650877Y-168491466D02*
X80365163Y-168872419D01*
X80365163Y-168205752D02*
X80746115Y-168586704D01*
X80079448Y-168205752D02*
X79698496Y-168205752D01*
X79936591Y-167872419D02*
X79936591Y-168729561D01*
X79936591Y-168729561D02*
X79888972Y-168824800D01*
X79888972Y-168824800D02*
X79793734Y-168872419D01*
X79793734Y-168872419D02*
X79698496Y-168872419D01*
X78984210Y-168824800D02*
X79079448Y-168872419D01*
X79079448Y-168872419D02*
X79269924Y-168872419D01*
X79269924Y-168872419D02*
X79365162Y-168824800D01*
X79365162Y-168824800D02*
X79412781Y-168729561D01*
X79412781Y-168729561D02*
X79412781Y-168348609D01*
X79412781Y-168348609D02*
X79365162Y-168253371D01*
X79365162Y-168253371D02*
X79269924Y-168205752D01*
X79269924Y-168205752D02*
X79079448Y-168205752D01*
X79079448Y-168205752D02*
X78984210Y-168253371D01*
X78984210Y-168253371D02*
X78936591Y-168348609D01*
X78936591Y-168348609D02*
X78936591Y-168443847D01*
X78936591Y-168443847D02*
X79412781Y-168539085D01*
X78508019Y-168872419D02*
X78508019Y-168205752D01*
X78508019Y-168396228D02*
X78460400Y-168300990D01*
X78460400Y-168300990D02*
X78412781Y-168253371D01*
X78412781Y-168253371D02*
X78317543Y-168205752D01*
X78317543Y-168205752D02*
X78222305Y-168205752D01*
X77174686Y-167824800D02*
X78031828Y-169110514D01*
X76412781Y-168872419D02*
X76412781Y-167872419D01*
X76412781Y-168824800D02*
X76508019Y-168872419D01*
X76508019Y-168872419D02*
X76698495Y-168872419D01*
X76698495Y-168872419D02*
X76793733Y-168824800D01*
X76793733Y-168824800D02*
X76841352Y-168777180D01*
X76841352Y-168777180D02*
X76888971Y-168681942D01*
X76888971Y-168681942D02*
X76888971Y-168396228D01*
X76888971Y-168396228D02*
X76841352Y-168300990D01*
X76841352Y-168300990D02*
X76793733Y-168253371D01*
X76793733Y-168253371D02*
X76698495Y-168205752D01*
X76698495Y-168205752D02*
X76508019Y-168205752D01*
X76508019Y-168205752D02*
X76412781Y-168253371D01*
X75936590Y-168872419D02*
X75936590Y-168205752D01*
X75936590Y-168396228D02*
X75888971Y-168300990D01*
X75888971Y-168300990D02*
X75841352Y-168253371D01*
X75841352Y-168253371D02*
X75746114Y-168205752D01*
X75746114Y-168205752D02*
X75650876Y-168205752D01*
X75317542Y-168205752D02*
X75317542Y-168872419D01*
X75317542Y-168300990D02*
X75269923Y-168253371D01*
X75269923Y-168253371D02*
X75174685Y-168205752D01*
X75174685Y-168205752D02*
X75031828Y-168205752D01*
X75031828Y-168205752D02*
X74936590Y-168253371D01*
X74936590Y-168253371D02*
X74888971Y-168348609D01*
X74888971Y-168348609D02*
X74888971Y-168872419D01*
X149291353Y-166102531D02*
X149053258Y-167102531D01*
X149053258Y-167102531D02*
X148862782Y-166388245D01*
X148862782Y-166388245D02*
X148672306Y-167102531D01*
X148672306Y-167102531D02*
X148434211Y-166102531D01*
X147624687Y-167102531D02*
X147624687Y-166578721D01*
X147624687Y-166578721D02*
X147672306Y-166483483D01*
X147672306Y-166483483D02*
X147767544Y-166435864D01*
X147767544Y-166435864D02*
X147958020Y-166435864D01*
X147958020Y-166435864D02*
X148053258Y-166483483D01*
X147624687Y-167054912D02*
X147719925Y-167102531D01*
X147719925Y-167102531D02*
X147958020Y-167102531D01*
X147958020Y-167102531D02*
X148053258Y-167054912D01*
X148053258Y-167054912D02*
X148100877Y-166959673D01*
X148100877Y-166959673D02*
X148100877Y-166864435D01*
X148100877Y-166864435D02*
X148053258Y-166769197D01*
X148053258Y-166769197D02*
X147958020Y-166721578D01*
X147958020Y-166721578D02*
X147719925Y-166721578D01*
X147719925Y-166721578D02*
X147624687Y-166673959D01*
X147148496Y-167102531D02*
X147148496Y-166435864D01*
X147148496Y-166626340D02*
X147100877Y-166531102D01*
X147100877Y-166531102D02*
X147053258Y-166483483D01*
X147053258Y-166483483D02*
X146958020Y-166435864D01*
X146958020Y-166435864D02*
X146862782Y-166435864D01*
X146529448Y-166435864D02*
X146529448Y-167102531D01*
X146529448Y-166531102D02*
X146481829Y-166483483D01*
X146481829Y-166483483D02*
X146386591Y-166435864D01*
X146386591Y-166435864D02*
X146243734Y-166435864D01*
X146243734Y-166435864D02*
X146148496Y-166483483D01*
X146148496Y-166483483D02*
X146100877Y-166578721D01*
X146100877Y-166578721D02*
X146100877Y-167102531D01*
X145624686Y-167102531D02*
X145624686Y-166435864D01*
X145624686Y-166102531D02*
X145672305Y-166150150D01*
X145672305Y-166150150D02*
X145624686Y-166197769D01*
X145624686Y-166197769D02*
X145577067Y-166150150D01*
X145577067Y-166150150D02*
X145624686Y-166102531D01*
X145624686Y-166102531D02*
X145624686Y-166197769D01*
X145148496Y-166435864D02*
X145148496Y-167102531D01*
X145148496Y-166531102D02*
X145100877Y-166483483D01*
X145100877Y-166483483D02*
X145005639Y-166435864D01*
X145005639Y-166435864D02*
X144862782Y-166435864D01*
X144862782Y-166435864D02*
X144767544Y-166483483D01*
X144767544Y-166483483D02*
X144719925Y-166578721D01*
X144719925Y-166578721D02*
X144719925Y-167102531D01*
X143815163Y-166435864D02*
X143815163Y-167245388D01*
X143815163Y-167245388D02*
X143862782Y-167340626D01*
X143862782Y-167340626D02*
X143910401Y-167388245D01*
X143910401Y-167388245D02*
X144005639Y-167435864D01*
X144005639Y-167435864D02*
X144148496Y-167435864D01*
X144148496Y-167435864D02*
X144243734Y-167388245D01*
X143815163Y-167054912D02*
X143910401Y-167102531D01*
X143910401Y-167102531D02*
X144100877Y-167102531D01*
X144100877Y-167102531D02*
X144196115Y-167054912D01*
X144196115Y-167054912D02*
X144243734Y-167007292D01*
X144243734Y-167007292D02*
X144291353Y-166912054D01*
X144291353Y-166912054D02*
X144291353Y-166626340D01*
X144291353Y-166626340D02*
X144243734Y-166531102D01*
X144243734Y-166531102D02*
X144196115Y-166483483D01*
X144196115Y-166483483D02*
X144100877Y-166435864D01*
X144100877Y-166435864D02*
X143910401Y-166435864D01*
X143910401Y-166435864D02*
X143815163Y-166483483D01*
X143338972Y-167007292D02*
X143291353Y-167054912D01*
X143291353Y-167054912D02*
X143338972Y-167102531D01*
X143338972Y-167102531D02*
X143386591Y-167054912D01*
X143386591Y-167054912D02*
X143338972Y-167007292D01*
X143338972Y-167007292D02*
X143338972Y-167102531D01*
X143338972Y-166721578D02*
X143386591Y-166150150D01*
X143386591Y-166150150D02*
X143338972Y-166102531D01*
X143338972Y-166102531D02*
X143291353Y-166150150D01*
X143291353Y-166150150D02*
X143338972Y-166721578D01*
X143338972Y-166721578D02*
X143338972Y-166102531D01*
X149196115Y-168712475D02*
X149196115Y-167712475D01*
X149196115Y-168188665D02*
X148624687Y-168188665D01*
X148624687Y-168712475D02*
X148624687Y-167712475D01*
X148148496Y-168712475D02*
X148148496Y-168045808D01*
X148148496Y-167712475D02*
X148196115Y-167760094D01*
X148196115Y-167760094D02*
X148148496Y-167807713D01*
X148148496Y-167807713D02*
X148100877Y-167760094D01*
X148100877Y-167760094D02*
X148148496Y-167712475D01*
X148148496Y-167712475D02*
X148148496Y-167807713D01*
X147243735Y-168045808D02*
X147243735Y-168855332D01*
X147243735Y-168855332D02*
X147291354Y-168950570D01*
X147291354Y-168950570D02*
X147338973Y-168998189D01*
X147338973Y-168998189D02*
X147434211Y-169045808D01*
X147434211Y-169045808D02*
X147577068Y-169045808D01*
X147577068Y-169045808D02*
X147672306Y-168998189D01*
X147243735Y-168664856D02*
X147338973Y-168712475D01*
X147338973Y-168712475D02*
X147529449Y-168712475D01*
X147529449Y-168712475D02*
X147624687Y-168664856D01*
X147624687Y-168664856D02*
X147672306Y-168617236D01*
X147672306Y-168617236D02*
X147719925Y-168521998D01*
X147719925Y-168521998D02*
X147719925Y-168236284D01*
X147719925Y-168236284D02*
X147672306Y-168141046D01*
X147672306Y-168141046D02*
X147624687Y-168093427D01*
X147624687Y-168093427D02*
X147529449Y-168045808D01*
X147529449Y-168045808D02*
X147338973Y-168045808D01*
X147338973Y-168045808D02*
X147243735Y-168093427D01*
X146767544Y-168712475D02*
X146767544Y-167712475D01*
X146338973Y-168712475D02*
X146338973Y-168188665D01*
X146338973Y-168188665D02*
X146386592Y-168093427D01*
X146386592Y-168093427D02*
X146481830Y-168045808D01*
X146481830Y-168045808D02*
X146624687Y-168045808D01*
X146624687Y-168045808D02*
X146719925Y-168093427D01*
X146719925Y-168093427D02*
X146767544Y-168141046D01*
X144672306Y-168664856D02*
X144767544Y-168712475D01*
X144767544Y-168712475D02*
X144958020Y-168712475D01*
X144958020Y-168712475D02*
X145053258Y-168664856D01*
X145053258Y-168664856D02*
X145100877Y-168617236D01*
X145100877Y-168617236D02*
X145148496Y-168521998D01*
X145148496Y-168521998D02*
X145148496Y-168236284D01*
X145148496Y-168236284D02*
X145100877Y-168141046D01*
X145100877Y-168141046D02*
X145053258Y-168093427D01*
X145053258Y-168093427D02*
X144958020Y-168045808D01*
X144958020Y-168045808D02*
X144767544Y-168045808D01*
X144767544Y-168045808D02*
X144672306Y-168093427D01*
X143815163Y-168045808D02*
X143815163Y-168712475D01*
X144243734Y-168045808D02*
X144243734Y-168569617D01*
X144243734Y-168569617D02*
X144196115Y-168664856D01*
X144196115Y-168664856D02*
X144100877Y-168712475D01*
X144100877Y-168712475D02*
X143958020Y-168712475D01*
X143958020Y-168712475D02*
X143862782Y-168664856D01*
X143862782Y-168664856D02*
X143815163Y-168617236D01*
X143338972Y-168712475D02*
X143338972Y-168045808D01*
X143338972Y-168236284D02*
X143291353Y-168141046D01*
X143291353Y-168141046D02*
X143243734Y-168093427D01*
X143243734Y-168093427D02*
X143148496Y-168045808D01*
X143148496Y-168045808D02*
X143053258Y-168045808D01*
X142719924Y-168712475D02*
X142719924Y-168045808D01*
X142719924Y-168236284D02*
X142672305Y-168141046D01*
X142672305Y-168141046D02*
X142624686Y-168093427D01*
X142624686Y-168093427D02*
X142529448Y-168045808D01*
X142529448Y-168045808D02*
X142434210Y-168045808D01*
X141719924Y-168664856D02*
X141815162Y-168712475D01*
X141815162Y-168712475D02*
X142005638Y-168712475D01*
X142005638Y-168712475D02*
X142100876Y-168664856D01*
X142100876Y-168664856D02*
X142148495Y-168569617D01*
X142148495Y-168569617D02*
X142148495Y-168188665D01*
X142148495Y-168188665D02*
X142100876Y-168093427D01*
X142100876Y-168093427D02*
X142005638Y-168045808D01*
X142005638Y-168045808D02*
X141815162Y-168045808D01*
X141815162Y-168045808D02*
X141719924Y-168093427D01*
X141719924Y-168093427D02*
X141672305Y-168188665D01*
X141672305Y-168188665D02*
X141672305Y-168283903D01*
X141672305Y-168283903D02*
X142148495Y-168379141D01*
X141243733Y-168045808D02*
X141243733Y-168712475D01*
X141243733Y-168141046D02*
X141196114Y-168093427D01*
X141196114Y-168093427D02*
X141100876Y-168045808D01*
X141100876Y-168045808D02*
X140958019Y-168045808D01*
X140958019Y-168045808D02*
X140862781Y-168093427D01*
X140862781Y-168093427D02*
X140815162Y-168188665D01*
X140815162Y-168188665D02*
X140815162Y-168712475D01*
X140481828Y-168045808D02*
X140100876Y-168045808D01*
X140338971Y-167712475D02*
X140338971Y-168569617D01*
X140338971Y-168569617D02*
X140291352Y-168664856D01*
X140291352Y-168664856D02*
X140196114Y-168712475D01*
X140196114Y-168712475D02*
X140100876Y-168712475D01*
X139719923Y-168664856D02*
X139719923Y-168712475D01*
X139719923Y-168712475D02*
X139767542Y-168807713D01*
X139767542Y-168807713D02*
X139815161Y-168855332D01*
X149196115Y-170322419D02*
X149196115Y-169322419D01*
X149196115Y-169322419D02*
X148815163Y-169322419D01*
X148815163Y-169322419D02*
X148719925Y-169370038D01*
X148719925Y-169370038D02*
X148672306Y-169417657D01*
X148672306Y-169417657D02*
X148624687Y-169512895D01*
X148624687Y-169512895D02*
X148624687Y-169655752D01*
X148624687Y-169655752D02*
X148672306Y-169750990D01*
X148672306Y-169750990D02*
X148719925Y-169798609D01*
X148719925Y-169798609D02*
X148815163Y-169846228D01*
X148815163Y-169846228D02*
X149196115Y-169846228D01*
X147624687Y-170227180D02*
X147672306Y-170274800D01*
X147672306Y-170274800D02*
X147815163Y-170322419D01*
X147815163Y-170322419D02*
X147910401Y-170322419D01*
X147910401Y-170322419D02*
X148053258Y-170274800D01*
X148053258Y-170274800D02*
X148148496Y-170179561D01*
X148148496Y-170179561D02*
X148196115Y-170084323D01*
X148196115Y-170084323D02*
X148243734Y-169893847D01*
X148243734Y-169893847D02*
X148243734Y-169750990D01*
X148243734Y-169750990D02*
X148196115Y-169560514D01*
X148196115Y-169560514D02*
X148148496Y-169465276D01*
X148148496Y-169465276D02*
X148053258Y-169370038D01*
X148053258Y-169370038D02*
X147910401Y-169322419D01*
X147910401Y-169322419D02*
X147815163Y-169322419D01*
X147815163Y-169322419D02*
X147672306Y-169370038D01*
X147672306Y-169370038D02*
X147624687Y-169417657D01*
X146862782Y-169798609D02*
X146719925Y-169846228D01*
X146719925Y-169846228D02*
X146672306Y-169893847D01*
X146672306Y-169893847D02*
X146624687Y-169989085D01*
X146624687Y-169989085D02*
X146624687Y-170131942D01*
X146624687Y-170131942D02*
X146672306Y-170227180D01*
X146672306Y-170227180D02*
X146719925Y-170274800D01*
X146719925Y-170274800D02*
X146815163Y-170322419D01*
X146815163Y-170322419D02*
X147196115Y-170322419D01*
X147196115Y-170322419D02*
X147196115Y-169322419D01*
X147196115Y-169322419D02*
X146862782Y-169322419D01*
X146862782Y-169322419D02*
X146767544Y-169370038D01*
X146767544Y-169370038D02*
X146719925Y-169417657D01*
X146719925Y-169417657D02*
X146672306Y-169512895D01*
X146672306Y-169512895D02*
X146672306Y-169608133D01*
X146672306Y-169608133D02*
X146719925Y-169703371D01*
X146719925Y-169703371D02*
X146767544Y-169750990D01*
X146767544Y-169750990D02*
X146862782Y-169798609D01*
X146862782Y-169798609D02*
X147196115Y-169798609D01*
X145005639Y-170274800D02*
X145100877Y-170322419D01*
X145100877Y-170322419D02*
X145291353Y-170322419D01*
X145291353Y-170322419D02*
X145386591Y-170274800D01*
X145386591Y-170274800D02*
X145434210Y-170227180D01*
X145434210Y-170227180D02*
X145481829Y-170131942D01*
X145481829Y-170131942D02*
X145481829Y-169846228D01*
X145481829Y-169846228D02*
X145434210Y-169750990D01*
X145434210Y-169750990D02*
X145386591Y-169703371D01*
X145386591Y-169703371D02*
X145291353Y-169655752D01*
X145291353Y-169655752D02*
X145100877Y-169655752D01*
X145100877Y-169655752D02*
X145005639Y-169703371D01*
X144148496Y-170322419D02*
X144148496Y-169798609D01*
X144148496Y-169798609D02*
X144196115Y-169703371D01*
X144196115Y-169703371D02*
X144291353Y-169655752D01*
X144291353Y-169655752D02*
X144481829Y-169655752D01*
X144481829Y-169655752D02*
X144577067Y-169703371D01*
X144148496Y-170274800D02*
X144243734Y-170322419D01*
X144243734Y-170322419D02*
X144481829Y-170322419D01*
X144481829Y-170322419D02*
X144577067Y-170274800D01*
X144577067Y-170274800D02*
X144624686Y-170179561D01*
X144624686Y-170179561D02*
X144624686Y-170084323D01*
X144624686Y-170084323D02*
X144577067Y-169989085D01*
X144577067Y-169989085D02*
X144481829Y-169941466D01*
X144481829Y-169941466D02*
X144243734Y-169941466D01*
X144243734Y-169941466D02*
X144148496Y-169893847D01*
X143672305Y-169655752D02*
X143672305Y-170322419D01*
X143672305Y-169750990D02*
X143624686Y-169703371D01*
X143624686Y-169703371D02*
X143529448Y-169655752D01*
X143529448Y-169655752D02*
X143386591Y-169655752D01*
X143386591Y-169655752D02*
X143291353Y-169703371D01*
X143291353Y-169703371D02*
X143243734Y-169798609D01*
X143243734Y-169798609D02*
X143243734Y-170322419D01*
X141577067Y-169655752D02*
X141577067Y-170465276D01*
X141577067Y-170465276D02*
X141624686Y-170560514D01*
X141624686Y-170560514D02*
X141672305Y-170608133D01*
X141672305Y-170608133D02*
X141767543Y-170655752D01*
X141767543Y-170655752D02*
X141910400Y-170655752D01*
X141910400Y-170655752D02*
X142005638Y-170608133D01*
X141577067Y-170274800D02*
X141672305Y-170322419D01*
X141672305Y-170322419D02*
X141862781Y-170322419D01*
X141862781Y-170322419D02*
X141958019Y-170274800D01*
X141958019Y-170274800D02*
X142005638Y-170227180D01*
X142005638Y-170227180D02*
X142053257Y-170131942D01*
X142053257Y-170131942D02*
X142053257Y-169846228D01*
X142053257Y-169846228D02*
X142005638Y-169750990D01*
X142005638Y-169750990D02*
X141958019Y-169703371D01*
X141958019Y-169703371D02*
X141862781Y-169655752D01*
X141862781Y-169655752D02*
X141672305Y-169655752D01*
X141672305Y-169655752D02*
X141577067Y-169703371D01*
X140719924Y-170274800D02*
X140815162Y-170322419D01*
X140815162Y-170322419D02*
X141005638Y-170322419D01*
X141005638Y-170322419D02*
X141100876Y-170274800D01*
X141100876Y-170274800D02*
X141148495Y-170179561D01*
X141148495Y-170179561D02*
X141148495Y-169798609D01*
X141148495Y-169798609D02*
X141100876Y-169703371D01*
X141100876Y-169703371D02*
X141005638Y-169655752D01*
X141005638Y-169655752D02*
X140815162Y-169655752D01*
X140815162Y-169655752D02*
X140719924Y-169703371D01*
X140719924Y-169703371D02*
X140672305Y-169798609D01*
X140672305Y-169798609D02*
X140672305Y-169893847D01*
X140672305Y-169893847D02*
X141148495Y-169989085D01*
X140386590Y-169655752D02*
X140005638Y-169655752D01*
X140243733Y-169322419D02*
X140243733Y-170179561D01*
X140243733Y-170179561D02*
X140196114Y-170274800D01*
X140196114Y-170274800D02*
X140100876Y-170322419D01*
X140100876Y-170322419D02*
X140005638Y-170322419D01*
X138910399Y-170322419D02*
X138910399Y-169322419D01*
X138481828Y-170322419D02*
X138481828Y-169798609D01*
X138481828Y-169798609D02*
X138529447Y-169703371D01*
X138529447Y-169703371D02*
X138624685Y-169655752D01*
X138624685Y-169655752D02*
X138767542Y-169655752D01*
X138767542Y-169655752D02*
X138862780Y-169703371D01*
X138862780Y-169703371D02*
X138910399Y-169750990D01*
X137862780Y-170322419D02*
X137958018Y-170274800D01*
X137958018Y-170274800D02*
X138005637Y-170227180D01*
X138005637Y-170227180D02*
X138053256Y-170131942D01*
X138053256Y-170131942D02*
X138053256Y-169846228D01*
X138053256Y-169846228D02*
X138005637Y-169750990D01*
X138005637Y-169750990D02*
X137958018Y-169703371D01*
X137958018Y-169703371D02*
X137862780Y-169655752D01*
X137862780Y-169655752D02*
X137719923Y-169655752D01*
X137719923Y-169655752D02*
X137624685Y-169703371D01*
X137624685Y-169703371D02*
X137577066Y-169750990D01*
X137577066Y-169750990D02*
X137529447Y-169846228D01*
X137529447Y-169846228D02*
X137529447Y-170131942D01*
X137529447Y-170131942D02*
X137577066Y-170227180D01*
X137577066Y-170227180D02*
X137624685Y-170274800D01*
X137624685Y-170274800D02*
X137719923Y-170322419D01*
X137719923Y-170322419D02*
X137862780Y-170322419D01*
X137243732Y-169655752D02*
X136862780Y-169655752D01*
X137100875Y-169322419D02*
X137100875Y-170179561D01*
X137100875Y-170179561D02*
X137053256Y-170274800D01*
X137053256Y-170274800D02*
X136958018Y-170322419D01*
X136958018Y-170322419D02*
X136862780Y-170322419D01*
X136529446Y-170227180D02*
X136481827Y-170274800D01*
X136481827Y-170274800D02*
X136529446Y-170322419D01*
X136529446Y-170322419D02*
X136577065Y-170274800D01*
X136577065Y-170274800D02*
X136529446Y-170227180D01*
X136529446Y-170227180D02*
X136529446Y-170322419D01*
X136529446Y-169941466D02*
X136577065Y-169370038D01*
X136577065Y-169370038D02*
X136529446Y-169322419D01*
X136529446Y-169322419D02*
X136481827Y-169370038D01*
X136481827Y-169370038D02*
X136529446Y-169941466D01*
X136529446Y-169941466D02*
X136529446Y-169322419D01*
X110000000Y-145250000D02*
X111200000Y-146450000D01*
X90550000Y-145250000D02*
X110000000Y-145250000D01*
X89750000Y-146050000D02*
X90550000Y-145250000D01*
X89700000Y-149450000D02*
X89750000Y-146050000D01*
X85500000Y-153650000D02*
X89700000Y-149450000D01*
X87200000Y-149450000D02*
X83000000Y-153700000D01*
X87200000Y-145400000D02*
X87200000Y-149450000D01*
X87750000Y-144850000D02*
X87200000Y-145400000D01*
X112100000Y-144850000D02*
X87750000Y-144850000D01*
X113800000Y-146450000D02*
X112100000Y-144850000D01*
X90050000Y-155000000D02*
X95950000Y-149100000D01*
X85450000Y-155000000D02*
X90050000Y-155000000D01*
X82950000Y-157450000D02*
X85450000Y-155000000D01*
X86800000Y-156150000D02*
X85450000Y-157450000D01*
X90600000Y-156150000D02*
X86800000Y-156150000D01*
X94600000Y-152150000D02*
X90600000Y-156150000D01*
X95450000Y-152150000D02*
X94600000Y-152150000D01*
X98550000Y-149050000D02*
X95450000Y-152150000D01*
X95650000Y-153500000D02*
X94850000Y-152700000D01*
X95650000Y-154550000D02*
X95650000Y-153500000D01*
X110650000Y-161400000D02*
X106300000Y-161400000D01*
X110850000Y-161250000D02*
X110650000Y-161400000D01*
X113600000Y-159900000D02*
X114350000Y-159150000D01*
X109150000Y-159900000D02*
X113600000Y-159900000D01*
X105050000Y-155800000D02*
X109150000Y-159900000D01*
X98750000Y-155800000D02*
X105050000Y-155800000D01*
X97800000Y-154850000D02*
X98750000Y-155800000D01*
X107000000Y-157200000D02*
X110550000Y-157200000D01*
X104100000Y-154300000D02*
X107000000Y-157200000D01*
X102000000Y-154300000D02*
X104100000Y-154300000D01*
X102000000Y-152700000D02*
X102000000Y-154300000D01*
X101750000Y-152400000D02*
X102000000Y-152700000D01*
X101150000Y-151600000D02*
X101150000Y-154200000D01*
X101950000Y-151600000D02*
X101150000Y-151600000D01*
X106350000Y-155950000D02*
X101950000Y-151600000D01*
X110150000Y-155950000D02*
X106350000Y-155950000D01*
X111600000Y-157500000D02*
X110150000Y-155950000D01*
X111600000Y-158200000D02*
X111600000Y-157500000D01*
X116200000Y-158200000D02*
X111600000Y-158200000D01*
X117100000Y-157400000D02*
X116200000Y-158200000D01*
X112600000Y-153000000D02*
X108600000Y-153000000D01*
X113500000Y-152100000D02*
X112600000Y-153000000D01*
X112850000Y-153650000D02*
X109100000Y-153600000D01*
X115100000Y-151400000D02*
X112850000Y-153650000D01*
X102850000Y-150800000D02*
X101150000Y-149100000D01*
X121350000Y-150750000D02*
X102850000Y-150800000D01*
X123600000Y-152900000D02*
X121350000Y-150750000D01*
X122600000Y-147800000D02*
X123900000Y-146500000D01*
X122600000Y-150600000D02*
X122600000Y-147800000D01*
X124500000Y-152500000D02*
X122600000Y-150600000D01*
X124500000Y-153300000D02*
X124500000Y-152500000D01*
X123350000Y-154500000D02*
X124500000Y-153300000D01*
X121800000Y-154500000D02*
X123350000Y-154500000D01*
X120300000Y-156050000D02*
X121800000Y-154500000D01*
X123350000Y-154900000D02*
X120050000Y-158250000D01*
X123950000Y-154900000D02*
X123350000Y-154900000D01*
X125250000Y-153600000D02*
X123950000Y-154900000D01*
X125250000Y-147750000D02*
X125250000Y-153600000D01*
X126500000Y-146600000D02*
X125250000Y-147750000D01*
X77988847Y-145211027D02*
X75488847Y-145211027D01*
X75488847Y-145211027D02*
X75488847Y-145806265D01*
X75488847Y-145806265D02*
X75607895Y-146163408D01*
X75607895Y-146163408D02*
X75845990Y-146401503D01*
X75845990Y-146401503D02*
X76084085Y-146520550D01*
X76084085Y-146520550D02*
X76560276Y-146639598D01*
X76560276Y-146639598D02*
X76917419Y-146639598D01*
X76917419Y-146639598D02*
X77393609Y-146520550D01*
X77393609Y-146520550D02*
X77631704Y-146401503D01*
X77631704Y-146401503D02*
X77869800Y-146163408D01*
X77869800Y-146163408D02*
X77988847Y-145806265D01*
X77988847Y-145806265D02*
X77988847Y-145211027D01*
X77988847Y-149139598D02*
X76798371Y-148306265D01*
X77988847Y-147711027D02*
X75488847Y-147711027D01*
X75488847Y-147711027D02*
X75488847Y-148663408D01*
X75488847Y-148663408D02*
X75607895Y-148901503D01*
X75607895Y-148901503D02*
X75726942Y-149020550D01*
X75726942Y-149020550D02*
X75965038Y-149139598D01*
X75965038Y-149139598D02*
X76322180Y-149139598D01*
X76322180Y-149139598D02*
X76560276Y-149020550D01*
X76560276Y-149020550D02*
X76679323Y-148901503D01*
X76679323Y-148901503D02*
X76798371Y-148663408D01*
X76798371Y-148663408D02*
X76798371Y-147711027D01*
X77988847Y-150211027D02*
X75488847Y-150211027D01*
X75488847Y-150211027D02*
X77988847Y-151639598D01*
X77988847Y-151639598D02*
X75488847Y-151639598D01*
M02*
