%TF.GenerationSoftware,KiCad,Pcbnew,8.0.6-8.0.6-0~ubuntu24.04.1*%
%TF.CreationDate,2024-11-13T13:21:27+01:00*%
%TF.ProjectId,drn2,64726e32-2e6b-4696-9361-645f70636258,rev?*%
%TF.SameCoordinates,Original*%
%TF.FileFunction,Paste,Top*%
%TF.FilePolarity,Positive*%
%FSLAX46Y46*%
G04 Gerber Fmt 4.6, Leading zero omitted, Abs format (unit mm)*
G04 Created by KiCad (PCBNEW 8.0.6-8.0.6-0~ubuntu24.04.1) date 2024-11-13 13:21:27*
%MOMM*%
%LPD*%
G01*
G04 APERTURE LIST*
G04 Aperture macros list*
%AMRoundRect*
0 Rectangle with rounded corners*
0 $1 Rounding radius*
0 $2 $3 $4 $5 $6 $7 $8 $9 X,Y pos of 4 corners*
0 Add a 4 corners polygon primitive as box body*
4,1,4,$2,$3,$4,$5,$6,$7,$8,$9,$2,$3,0*
0 Add four circle primitives for the rounded corners*
1,1,$1+$1,$2,$3*
1,1,$1+$1,$4,$5*
1,1,$1+$1,$6,$7*
1,1,$1+$1,$8,$9*
0 Add four rect primitives between the rounded corners*
20,1,$1+$1,$2,$3,$4,$5,0*
20,1,$1+$1,$4,$5,$6,$7,0*
20,1,$1+$1,$6,$7,$8,$9,0*
20,1,$1+$1,$8,$9,$2,$3,0*%
G04 Aperture macros list end*
%ADD10RoundRect,0.218750X0.256250X-0.218750X0.256250X0.218750X-0.256250X0.218750X-0.256250X-0.218750X0*%
%ADD11R,0.375000X0.350000*%
%ADD12R,0.350000X0.375000*%
%ADD13RoundRect,0.218750X-0.218750X-0.256250X0.218750X-0.256250X0.218750X0.256250X-0.218750X0.256250X0*%
%ADD14RoundRect,0.200000X0.200000X0.275000X-0.200000X0.275000X-0.200000X-0.275000X0.200000X-0.275000X0*%
%ADD15RoundRect,0.200000X-0.200000X-0.275000X0.200000X-0.275000X0.200000X0.275000X-0.200000X0.275000X0*%
%ADD16RoundRect,0.218750X0.218750X0.256250X-0.218750X0.256250X-0.218750X-0.256250X0.218750X-0.256250X0*%
%ADD17RoundRect,0.200000X-0.275000X0.200000X-0.275000X-0.200000X0.275000X-0.200000X0.275000X0.200000X0*%
G04 APERTURE END LIST*
D10*
%TO.C,D3*%
X149000000Y-84287500D03*
X149000000Y-82712500D03*
%TD*%
D11*
%TO.C,ACCMAG1*%
X107987500Y-82512500D03*
X107987500Y-83012500D03*
X107987500Y-83512500D03*
X107987500Y-84012500D03*
D12*
X108500000Y-84025000D03*
X109000000Y-84025000D03*
D11*
X109512500Y-84012500D03*
X109512500Y-83512500D03*
X109512500Y-83012500D03*
X109512500Y-82512500D03*
D12*
X109000000Y-82500000D03*
X108500000Y-82500000D03*
%TD*%
D10*
%TO.C,D1*%
X154000000Y-84287500D03*
X154000000Y-82712500D03*
%TD*%
D13*
%TO.C,D5*%
X163212500Y-98000000D03*
X164787500Y-98000000D03*
%TD*%
D14*
%TO.C,R3*%
X86825000Y-95000000D03*
X85175000Y-95000000D03*
%TD*%
D15*
%TO.C,R1*%
X163175000Y-47000000D03*
X164825000Y-47000000D03*
%TD*%
D13*
%TO.C,D4*%
X163425000Y-44000000D03*
X165000000Y-44000000D03*
%TD*%
D15*
%TO.C,R2*%
X163175000Y-95000000D03*
X164825000Y-95000000D03*
%TD*%
D16*
%TO.C,D6*%
X86787500Y-98000000D03*
X85212500Y-98000000D03*
%TD*%
D11*
%TO.C,ACCGYRO1*%
X102737500Y-82250000D03*
X102737500Y-82750000D03*
X102737500Y-83250000D03*
X102737500Y-83750000D03*
D12*
X103250000Y-83762500D03*
X103750000Y-83762500D03*
D11*
X104262500Y-83750000D03*
X104262500Y-83250000D03*
X104262500Y-82750000D03*
X104262500Y-82250000D03*
D12*
X103750000Y-82237500D03*
X103250000Y-82237500D03*
%TD*%
D10*
%TO.C,D2*%
X151500000Y-84287500D03*
X151500000Y-82712500D03*
%TD*%
D17*
%TO.C,R4*%
X154020000Y-78675000D03*
X154020000Y-80325000D03*
%TD*%
%TO.C,R5*%
X151510000Y-78675000D03*
X151510000Y-80325000D03*
%TD*%
%TO.C,R6*%
X149000000Y-78675000D03*
X149000000Y-80325000D03*
%TD*%
M02*
