%TF.GenerationSoftware,KiCad,Pcbnew,8.0.6-8.0.6-0~ubuntu24.04.1*%
%TF.CreationDate,2024-11-13T13:17:23+01:00*%
%TF.ProjectId,drn2,64726e32-2e6b-4696-9361-645f70636258,rev?*%
%TF.SameCoordinates,Original*%
%TF.FileFunction,Drillmap*%
%TF.FilePolarity,Positive*%
%FSLAX45Y45*%
G04 Gerber Fmt 4.5, Leading zero omitted, Abs format (unit mm)*
G04 Created by KiCad (PCBNEW 8.0.6-8.0.6-0~ubuntu24.04.1) date 2024-11-13 13:17:23*
%MOMM*%
%LPD*%
G01*
G04 APERTURE LIST*
%ADD10C,0.050000*%
%ADD11C,0.200000*%
%ADD12C,0.100000*%
%ADD13C,0.320000*%
%ADD14C,0.450000*%
G04 APERTURE END LIST*
D10*
X5900000Y-2600000D02*
X18200000Y-2600000D01*
X18200000Y-11500000D01*
X5900000Y-11500000D01*
X5900000Y-2600000D01*
D11*
D12*
X6485000Y-8285000D02*
X6515000Y-8315000D01*
X6515000Y-8285000D02*
X6485000Y-8315000D01*
X8185000Y-4085000D02*
X8215000Y-4115000D01*
X8215000Y-4085000D02*
X8185000Y-4115000D01*
X8185000Y-4085000D02*
X8215000Y-4115000D01*
X8215000Y-4085000D02*
X8185000Y-4115000D01*
X8185000Y-4085000D02*
X8215000Y-4115000D01*
X8215000Y-4085000D02*
X8185000Y-4115000D01*
X8185000Y-4085000D02*
X8215000Y-4115000D01*
X8215000Y-4085000D02*
X8185000Y-4115000D01*
X8185000Y-4085000D02*
X8215000Y-4115000D01*
X8215000Y-4085000D02*
X8185000Y-4115000D01*
X8185000Y-4085000D02*
X8215000Y-4115000D01*
X8215000Y-4085000D02*
X8185000Y-4115000D01*
X8185000Y-10085000D02*
X8215000Y-10115000D01*
X8215000Y-10085000D02*
X8185000Y-10115000D01*
X8785000Y-9785000D02*
X8815000Y-9815000D01*
X8815000Y-9785000D02*
X8785000Y-9815000D01*
X8985000Y-7935000D02*
X9015000Y-7965000D01*
X9015000Y-7935000D02*
X8985000Y-7965000D01*
X9235000Y-4285000D02*
X9265000Y-4315000D01*
X9265000Y-4285000D02*
X9235000Y-4315000D01*
X9385000Y-7535000D02*
X9415000Y-7565000D01*
X9415000Y-7535000D02*
X9385000Y-7565000D01*
X10085000Y-7435000D02*
X10115000Y-7465000D01*
X10115000Y-7435000D02*
X10085000Y-7465000D01*
X10235000Y-7985000D02*
X10265000Y-8015000D01*
X10265000Y-7985000D02*
X10235000Y-8015000D01*
X10285000Y-7535000D02*
X10315000Y-7565000D01*
X10315000Y-7535000D02*
X10285000Y-7565000D01*
X10291569Y-8041569D02*
X10321569Y-8071569D01*
X10321569Y-8041569D02*
X10291569Y-8071569D01*
X10335000Y-7885000D02*
X10365000Y-7915000D01*
X10365000Y-7885000D02*
X10335000Y-7915000D01*
X10391569Y-7941569D02*
X10421569Y-7971569D01*
X10421569Y-7941569D02*
X10391569Y-7971569D01*
X10485000Y-8435000D02*
X10515000Y-8465000D01*
X10515000Y-8435000D02*
X10485000Y-8465000D01*
X10585000Y-8126250D02*
X10615000Y-8156250D01*
X10615000Y-8126250D02*
X10585000Y-8156250D01*
X10585000Y-8246250D02*
X10615000Y-8276250D01*
X10615000Y-8246250D02*
X10585000Y-8276250D01*
X10830000Y-6165000D02*
X10860000Y-6195000D01*
X10860000Y-6165000D02*
X10830000Y-6195000D01*
X11035000Y-8485000D02*
X11065000Y-8515000D01*
X11065000Y-8485000D02*
X11035000Y-8515000D01*
X11260000Y-6235000D02*
X11290000Y-6265000D01*
X11290000Y-6235000D02*
X11260000Y-6265000D01*
X11535000Y-6310000D02*
X11565000Y-6340000D01*
X11565000Y-6310000D02*
X11535000Y-6340000D01*
X11935000Y-6510000D02*
X11965000Y-6540000D01*
X11965000Y-6510000D02*
X11935000Y-6540000D01*
X12035000Y-6335000D02*
X12065000Y-6365000D01*
X12065000Y-6335000D02*
X12035000Y-6365000D01*
X12210000Y-6335000D02*
X12240000Y-6365000D01*
X12240000Y-6335000D02*
X12210000Y-6365000D01*
X12435000Y-6485000D02*
X12465000Y-6515000D01*
X12465000Y-6485000D02*
X12435000Y-6515000D01*
X12535000Y-6335000D02*
X12565000Y-6365000D01*
X12565000Y-6335000D02*
X12535000Y-6365000D01*
X12685000Y-6460000D02*
X12715000Y-6490000D01*
X12715000Y-6460000D02*
X12685000Y-6490000D01*
X13085000Y-6510000D02*
X13115000Y-6540000D01*
X13115000Y-6510000D02*
X13085000Y-6540000D01*
X13310000Y-6450000D02*
X13340000Y-6480000D01*
X13340000Y-6450000D02*
X13310000Y-6480000D01*
X13460000Y-6385000D02*
X13490000Y-6415000D01*
X13490000Y-6385000D02*
X13460000Y-6415000D01*
X13535000Y-9785000D02*
X13565000Y-9815000D01*
X13565000Y-9785000D02*
X13535000Y-9815000D01*
X13560000Y-6385000D02*
X13590000Y-6415000D01*
X13590000Y-6385000D02*
X13560000Y-6415000D01*
X13710000Y-6325000D02*
X13740000Y-6355000D01*
X13740000Y-6325000D02*
X13710000Y-6355000D01*
X13960000Y-6325000D02*
X13990000Y-6355000D01*
X13990000Y-6325000D02*
X13960000Y-6355000D01*
X15135000Y-8535000D02*
X15165000Y-8565000D01*
X15165000Y-8535000D02*
X15135000Y-8565000D01*
X16185000Y-4385000D02*
X16215000Y-4415000D01*
X16215000Y-4385000D02*
X16185000Y-4415000D01*
X16185000Y-9785000D02*
X16215000Y-9815000D01*
X16215000Y-9785000D02*
X16185000Y-9815000D01*
X16785000Y-4085000D02*
X16815000Y-4115000D01*
X16815000Y-4085000D02*
X16785000Y-4115000D01*
X16785000Y-10085000D02*
X16815000Y-10115000D01*
X16815000Y-10085000D02*
X16785000Y-10115000D01*
X6485000Y-3400000D02*
G75*
G02*
X6435000Y-3400000I-25000J0D01*
G01*
X6435000Y-3400000D02*
G75*
G02*
X6485000Y-3400000I25000J0D01*
G01*
X6485000Y-10700000D02*
G75*
G02*
X6435000Y-10700000I-25000J0D01*
G01*
X6435000Y-10700000D02*
G75*
G02*
X6485000Y-10700000I25000J0D01*
G01*
X6555294Y-3230294D02*
G75*
G02*
X6505294Y-3230294I-25000J0D01*
G01*
X6505294Y-3230294D02*
G75*
G02*
X6555294Y-3230294I25000J0D01*
G01*
X6555294Y-3569706D02*
G75*
G02*
X6505294Y-3569706I-25000J0D01*
G01*
X6505294Y-3569706D02*
G75*
G02*
X6555294Y-3569706I25000J0D01*
G01*
X6555294Y-10530294D02*
G75*
G02*
X6505294Y-10530294I-25000J0D01*
G01*
X6505294Y-10530294D02*
G75*
G02*
X6555294Y-10530294I25000J0D01*
G01*
X6555294Y-10869706D02*
G75*
G02*
X6505294Y-10869706I-25000J0D01*
G01*
X6505294Y-10869706D02*
G75*
G02*
X6555294Y-10869706I25000J0D01*
G01*
X6725000Y-3160000D02*
G75*
G02*
X6675000Y-3160000I-25000J0D01*
G01*
X6675000Y-3160000D02*
G75*
G02*
X6725000Y-3160000I25000J0D01*
G01*
X6725000Y-3640000D02*
G75*
G02*
X6675000Y-3640000I-25000J0D01*
G01*
X6675000Y-3640000D02*
G75*
G02*
X6725000Y-3640000I25000J0D01*
G01*
X6725000Y-10460000D02*
G75*
G02*
X6675000Y-10460000I-25000J0D01*
G01*
X6675000Y-10460000D02*
G75*
G02*
X6725000Y-10460000I25000J0D01*
G01*
X6725000Y-10940000D02*
G75*
G02*
X6675000Y-10940000I-25000J0D01*
G01*
X6675000Y-10940000D02*
G75*
G02*
X6725000Y-10940000I25000J0D01*
G01*
X6894706Y-3230294D02*
G75*
G02*
X6844706Y-3230294I-25000J0D01*
G01*
X6844706Y-3230294D02*
G75*
G02*
X6894706Y-3230294I25000J0D01*
G01*
X6894706Y-3569706D02*
G75*
G02*
X6844706Y-3569706I-25000J0D01*
G01*
X6844706Y-3569706D02*
G75*
G02*
X6894706Y-3569706I25000J0D01*
G01*
X6894706Y-10530294D02*
G75*
G02*
X6844706Y-10530294I-25000J0D01*
G01*
X6844706Y-10530294D02*
G75*
G02*
X6894706Y-10530294I25000J0D01*
G01*
X6894706Y-10869706D02*
G75*
G02*
X6844706Y-10869706I-25000J0D01*
G01*
X6844706Y-10869706D02*
G75*
G02*
X6894706Y-10869706I25000J0D01*
G01*
X6965000Y-3400000D02*
G75*
G02*
X6915000Y-3400000I-25000J0D01*
G01*
X6915000Y-3400000D02*
G75*
G02*
X6965000Y-3400000I25000J0D01*
G01*
X6965000Y-10700000D02*
G75*
G02*
X6915000Y-10700000I-25000J0D01*
G01*
X6915000Y-10700000D02*
G75*
G02*
X6965000Y-10700000I25000J0D01*
G01*
X17185000Y-3400000D02*
G75*
G02*
X17135000Y-3400000I-25000J0D01*
G01*
X17135000Y-3400000D02*
G75*
G02*
X17185000Y-3400000I25000J0D01*
G01*
X17185000Y-10700000D02*
G75*
G02*
X17135000Y-10700000I-25000J0D01*
G01*
X17135000Y-10700000D02*
G75*
G02*
X17185000Y-10700000I25000J0D01*
G01*
X17255294Y-3230294D02*
G75*
G02*
X17205294Y-3230294I-25000J0D01*
G01*
X17205294Y-3230294D02*
G75*
G02*
X17255294Y-3230294I25000J0D01*
G01*
X17255294Y-3569706D02*
G75*
G02*
X17205294Y-3569706I-25000J0D01*
G01*
X17205294Y-3569706D02*
G75*
G02*
X17255294Y-3569706I25000J0D01*
G01*
X17255294Y-10530294D02*
G75*
G02*
X17205294Y-10530294I-25000J0D01*
G01*
X17205294Y-10530294D02*
G75*
G02*
X17255294Y-10530294I25000J0D01*
G01*
X17255294Y-10869706D02*
G75*
G02*
X17205294Y-10869706I-25000J0D01*
G01*
X17205294Y-10869706D02*
G75*
G02*
X17255294Y-10869706I25000J0D01*
G01*
X17425000Y-3160000D02*
G75*
G02*
X17375000Y-3160000I-25000J0D01*
G01*
X17375000Y-3160000D02*
G75*
G02*
X17425000Y-3160000I25000J0D01*
G01*
X17425000Y-3640000D02*
G75*
G02*
X17375000Y-3640000I-25000J0D01*
G01*
X17375000Y-3640000D02*
G75*
G02*
X17425000Y-3640000I25000J0D01*
G01*
X17425000Y-10460000D02*
G75*
G02*
X17375000Y-10460000I-25000J0D01*
G01*
X17375000Y-10460000D02*
G75*
G02*
X17425000Y-10460000I25000J0D01*
G01*
X17425000Y-10940000D02*
G75*
G02*
X17375000Y-10940000I-25000J0D01*
G01*
X17375000Y-10940000D02*
G75*
G02*
X17425000Y-10940000I25000J0D01*
G01*
X17594706Y-3230294D02*
G75*
G02*
X17544706Y-3230294I-25000J0D01*
G01*
X17544706Y-3230294D02*
G75*
G02*
X17594706Y-3230294I25000J0D01*
G01*
X17594706Y-3569706D02*
G75*
G02*
X17544706Y-3569706I-25000J0D01*
G01*
X17544706Y-3569706D02*
G75*
G02*
X17594706Y-3569706I25000J0D01*
G01*
X17594706Y-10530294D02*
G75*
G02*
X17544706Y-10530294I-25000J0D01*
G01*
X17544706Y-10530294D02*
G75*
G02*
X17594706Y-10530294I25000J0D01*
G01*
X17594706Y-10869706D02*
G75*
G02*
X17544706Y-10869706I-25000J0D01*
G01*
X17544706Y-10869706D02*
G75*
G02*
X17594706Y-10869706I25000J0D01*
G01*
X17665000Y-3400000D02*
G75*
G02*
X17615000Y-3400000I-25000J0D01*
G01*
X17615000Y-3400000D02*
G75*
G02*
X17665000Y-3400000I25000J0D01*
G01*
X17665000Y-10700000D02*
G75*
G02*
X17615000Y-10700000I-25000J0D01*
G01*
X17615000Y-10700000D02*
G75*
G02*
X17665000Y-10700000I25000J0D01*
G01*
X12050000Y-9052500D02*
X12050000Y-9147500D01*
X12002500Y-9100000D02*
X12097500Y-9100000D01*
X12300000Y-9052500D02*
X12300000Y-9147500D01*
X12252500Y-9100000D02*
X12347500Y-9100000D01*
X12550000Y-9052500D02*
X12550000Y-9147500D01*
X12502500Y-9100000D02*
X12597500Y-9100000D01*
X12800000Y-9052500D02*
X12800000Y-9147500D01*
X12752500Y-9100000D02*
X12847500Y-9100000D01*
X13050000Y-9052500D02*
X13050000Y-9147500D01*
X13002500Y-9100000D02*
X13097500Y-9100000D01*
X13300000Y-9052500D02*
X13300000Y-9147500D01*
X13252500Y-9100000D02*
X13347500Y-9100000D01*
X13550000Y-9052500D02*
X13550000Y-9147500D01*
X13502500Y-9100000D02*
X13597500Y-9100000D01*
X13800000Y-9052500D02*
X13800000Y-9147500D01*
X13752500Y-9100000D02*
X13847500Y-9100000D01*
X14050000Y-9052500D02*
X14050000Y-9147500D01*
X14002500Y-9100000D02*
X14097500Y-9100000D01*
X14300000Y-9052500D02*
X14300000Y-9147500D01*
X14252500Y-9100000D02*
X14347500Y-9100000D01*
X14550000Y-9052500D02*
X14550000Y-9147500D01*
X14502500Y-9100000D02*
X14597500Y-9100000D01*
X14800000Y-9052500D02*
X14800000Y-9147500D01*
X14752500Y-9100000D02*
X14847500Y-9100000D01*
X7419356Y-3735356D02*
X7419356Y-3664644D01*
X7348644Y-3664644D01*
X7348644Y-3735356D01*
X7419356Y-3735356D01*
X7673356Y-3735356D02*
X7673356Y-3664644D01*
X7602644Y-3664644D01*
X7602644Y-3735356D01*
X7673356Y-3735356D01*
X7927356Y-3735356D02*
X7927356Y-3664644D01*
X7856644Y-3664644D01*
X7856644Y-3735356D01*
X7927356Y-3735356D01*
X8181356Y-3735356D02*
X8181356Y-3664644D01*
X8110644Y-3664644D01*
X8110644Y-3735356D01*
X8181356Y-3735356D01*
X8435356Y-3735356D02*
X8435356Y-3664644D01*
X8364644Y-3664644D01*
X8364644Y-3735356D01*
X8435356Y-3735356D01*
X8560356Y-6481356D02*
X8560356Y-6410644D01*
X8489644Y-6410644D01*
X8489644Y-6481356D01*
X8560356Y-6481356D01*
X8560356Y-6735356D02*
X8560356Y-6664644D01*
X8489644Y-6664644D01*
X8489644Y-6735356D01*
X8560356Y-6735356D01*
X8560356Y-6989356D02*
X8560356Y-6918644D01*
X8489644Y-6918644D01*
X8489644Y-6989356D01*
X8560356Y-6989356D01*
X8560356Y-7656356D02*
X8560356Y-7585644D01*
X8489644Y-7585644D01*
X8489644Y-7656356D01*
X8560356Y-7656356D01*
X8560356Y-7910356D02*
X8560356Y-7839644D01*
X8489644Y-7839644D01*
X8489644Y-7910356D01*
X8560356Y-7910356D01*
X8560356Y-8164356D02*
X8560356Y-8093644D01*
X8489644Y-8093644D01*
X8489644Y-8164356D01*
X8560356Y-8164356D01*
X8627356Y-8635356D02*
X8627356Y-8564644D01*
X8556644Y-8564644D01*
X8556644Y-8635356D01*
X8627356Y-8635356D01*
X8627356Y-9100356D02*
X8627356Y-9029644D01*
X8556644Y-9029644D01*
X8556644Y-9100356D01*
X8627356Y-9100356D01*
X8689356Y-3735356D02*
X8689356Y-3664644D01*
X8618644Y-3664644D01*
X8618644Y-3735356D01*
X8689356Y-3735356D01*
X8881356Y-8635356D02*
X8881356Y-8564644D01*
X8810644Y-8564644D01*
X8810644Y-8635356D01*
X8881356Y-8635356D01*
X8881356Y-9100356D02*
X8881356Y-9029644D01*
X8810644Y-9029644D01*
X8810644Y-9100356D01*
X8881356Y-9100356D01*
X8943356Y-3735356D02*
X8943356Y-3664644D01*
X8872644Y-3664644D01*
X8872644Y-3735356D01*
X8943356Y-3735356D01*
X9135356Y-8635356D02*
X9135356Y-8564644D01*
X9064644Y-8564644D01*
X9064644Y-8635356D01*
X9135356Y-8635356D01*
X9135356Y-9100356D02*
X9135356Y-9029644D01*
X9064644Y-9029644D01*
X9064644Y-9100356D01*
X9135356Y-9100356D01*
X9197356Y-3735356D02*
X9197356Y-3664644D01*
X9126644Y-3664644D01*
X9126644Y-3735356D01*
X9197356Y-3735356D01*
X10199856Y-7010856D02*
X10199856Y-6940144D01*
X10129144Y-6940144D01*
X10129144Y-7010856D01*
X10199856Y-7010856D01*
X10199856Y-7264856D02*
X10199856Y-7194144D01*
X10129144Y-7194144D01*
X10129144Y-7264856D01*
X10199856Y-7264856D01*
X10453856Y-7010856D02*
X10453856Y-6940144D01*
X10383144Y-6940144D01*
X10383144Y-7010856D01*
X10453856Y-7010856D01*
X10453856Y-7264856D02*
X10453856Y-7194144D01*
X10383144Y-7194144D01*
X10383144Y-7264856D01*
X10453856Y-7264856D01*
X10707856Y-7010856D02*
X10707856Y-6940144D01*
X10637144Y-6940144D01*
X10637144Y-7010856D01*
X10707856Y-7010856D01*
X10707856Y-7264856D02*
X10707856Y-7194144D01*
X10637144Y-7194144D01*
X10637144Y-7264856D01*
X10707856Y-7264856D01*
X10961856Y-7010856D02*
X10961856Y-6940144D01*
X10891144Y-6940144D01*
X10891144Y-7010856D01*
X10961856Y-7010856D01*
X10961856Y-7264856D02*
X10961856Y-7194144D01*
X10891144Y-7194144D01*
X10891144Y-7264856D01*
X10961856Y-7264856D01*
X10985356Y-7885356D02*
X10985356Y-7814644D01*
X10914644Y-7814644D01*
X10914644Y-7885356D01*
X10985356Y-7885356D01*
X11215856Y-7010856D02*
X11215856Y-6940144D01*
X11145144Y-6940144D01*
X11145144Y-7010856D01*
X11215856Y-7010856D01*
X11215856Y-7264856D02*
X11215856Y-7194144D01*
X11145144Y-7194144D01*
X11145144Y-7264856D01*
X11215856Y-7264856D01*
X11239356Y-7885356D02*
X11239356Y-7814644D01*
X11168644Y-7814644D01*
X11168644Y-7885356D01*
X11239356Y-7885356D01*
X11469856Y-7010856D02*
X11469856Y-6940144D01*
X11399144Y-6940144D01*
X11399144Y-7010856D01*
X11469856Y-7010856D01*
X11469856Y-7264856D02*
X11469856Y-7194144D01*
X11399144Y-7194144D01*
X11399144Y-7264856D01*
X11469856Y-7264856D01*
X11493356Y-7885356D02*
X11493356Y-7814644D01*
X11422644Y-7814644D01*
X11422644Y-7885356D01*
X11493356Y-7885356D01*
X11723856Y-7010856D02*
X11723856Y-6940144D01*
X11653144Y-6940144D01*
X11653144Y-7010856D01*
X11723856Y-7010856D01*
X11723856Y-7264856D02*
X11723856Y-7194144D01*
X11653144Y-7194144D01*
X11653144Y-7264856D01*
X11723856Y-7264856D01*
X11977856Y-7010856D02*
X11977856Y-6940144D01*
X11907144Y-6940144D01*
X11907144Y-7010856D01*
X11977856Y-7010856D01*
X11977856Y-7264856D02*
X11977856Y-7194144D01*
X11907144Y-7194144D01*
X11907144Y-7264856D01*
X11977856Y-7264856D01*
X12231856Y-7010856D02*
X12231856Y-6940144D01*
X12161144Y-6940144D01*
X12161144Y-7010856D01*
X12231856Y-7010856D01*
X12231856Y-7264856D02*
X12231856Y-7194144D01*
X12161144Y-7194144D01*
X12161144Y-7264856D01*
X12231856Y-7264856D01*
X12335356Y-8035356D02*
X12335356Y-7964644D01*
X12264644Y-7964644D01*
X12264644Y-8035356D01*
X12335356Y-8035356D01*
X12335356Y-8289356D02*
X12335356Y-8218644D01*
X12264644Y-8218644D01*
X12264644Y-8289356D01*
X12335356Y-8289356D01*
X12335356Y-8543356D02*
X12335356Y-8472644D01*
X12264644Y-8472644D01*
X12264644Y-8543356D01*
X12335356Y-8543356D01*
X12485856Y-7010856D02*
X12485856Y-6940144D01*
X12415144Y-6940144D01*
X12415144Y-7010856D01*
X12485856Y-7010856D01*
X12485856Y-7264856D02*
X12485856Y-7194144D01*
X12415144Y-7194144D01*
X12415144Y-7264856D01*
X12485856Y-7264856D01*
X12739856Y-7010856D02*
X12739856Y-6940144D01*
X12669144Y-6940144D01*
X12669144Y-7010856D01*
X12739856Y-7010856D01*
X12739856Y-7264856D02*
X12739856Y-7194144D01*
X12669144Y-7194144D01*
X12669144Y-7264856D01*
X12739856Y-7264856D01*
X12993856Y-7010856D02*
X12993856Y-6940144D01*
X12923144Y-6940144D01*
X12923144Y-7010856D01*
X12993856Y-7010856D01*
X12993856Y-7264856D02*
X12993856Y-7194144D01*
X12923144Y-7194144D01*
X12923144Y-7264856D01*
X12993856Y-7264856D01*
X13085356Y-8035356D02*
X13085356Y-7964644D01*
X13014644Y-7964644D01*
X13014644Y-8035356D01*
X13085356Y-8035356D01*
X13085356Y-8289356D02*
X13085356Y-8218644D01*
X13014644Y-8218644D01*
X13014644Y-8289356D01*
X13085356Y-8289356D01*
X13085356Y-8543356D02*
X13085356Y-8472644D01*
X13014644Y-8472644D01*
X13014644Y-8543356D01*
X13085356Y-8543356D01*
X13247856Y-7010856D02*
X13247856Y-6940144D01*
X13177144Y-6940144D01*
X13177144Y-7010856D01*
X13247856Y-7010856D01*
X13247856Y-7264856D02*
X13247856Y-7194144D01*
X13177144Y-7194144D01*
X13177144Y-7264856D01*
X13247856Y-7264856D01*
X13501856Y-7010856D02*
X13501856Y-6940144D01*
X13431144Y-6940144D01*
X13431144Y-7010856D01*
X13501856Y-7010856D01*
X13501856Y-7264856D02*
X13501856Y-7194144D01*
X13431144Y-7194144D01*
X13431144Y-7264856D01*
X13501856Y-7264856D01*
X13755856Y-7010856D02*
X13755856Y-6940144D01*
X13685144Y-6940144D01*
X13685144Y-7010856D01*
X13755856Y-7010856D01*
X13755856Y-7264856D02*
X13755856Y-7194144D01*
X13685144Y-7194144D01*
X13685144Y-7264856D01*
X13755856Y-7264856D01*
X13835356Y-8032856D02*
X13835356Y-7962144D01*
X13764644Y-7962144D01*
X13764644Y-8032856D01*
X13835356Y-8032856D01*
X13835356Y-8286856D02*
X13835356Y-8216144D01*
X13764644Y-8216144D01*
X13764644Y-8286856D01*
X13835356Y-8286856D01*
X13835356Y-8540856D02*
X13835356Y-8470144D01*
X13764644Y-8470144D01*
X13764644Y-8540856D01*
X13835356Y-8540856D01*
X14009856Y-7010856D02*
X14009856Y-6940144D01*
X13939144Y-6940144D01*
X13939144Y-7010856D01*
X14009856Y-7010856D01*
X14009856Y-7264856D02*
X14009856Y-7194144D01*
X13939144Y-7194144D01*
X13939144Y-7264856D01*
X14009856Y-7264856D01*
X14263856Y-7010856D02*
X14263856Y-6940144D01*
X14193144Y-6940144D01*
X14193144Y-7010856D01*
X14263856Y-7010856D01*
X14263856Y-7264856D02*
X14263856Y-7194144D01*
X14193144Y-7194144D01*
X14193144Y-7264856D01*
X14263856Y-7264856D01*
X14517856Y-7010856D02*
X14517856Y-6940144D01*
X14447144Y-6940144D01*
X14447144Y-7010856D01*
X14517856Y-7010856D01*
X14517856Y-7264856D02*
X14517856Y-7194144D01*
X14447144Y-7194144D01*
X14447144Y-7264856D01*
X14517856Y-7264856D01*
X14585356Y-8035356D02*
X14585356Y-7964644D01*
X14514644Y-7964644D01*
X14514644Y-8035356D01*
X14585356Y-8035356D01*
X14585356Y-8289356D02*
X14585356Y-8218644D01*
X14514644Y-8218644D01*
X14514644Y-8289356D01*
X14585356Y-8289356D01*
X14585356Y-8543356D02*
X14585356Y-8472644D01*
X14514644Y-8472644D01*
X14514644Y-8543356D01*
X14585356Y-8543356D01*
X14771856Y-7010856D02*
X14771856Y-6940144D01*
X14701144Y-6940144D01*
X14701144Y-7010856D01*
X14771856Y-7010856D01*
X14771856Y-7264856D02*
X14771856Y-7194144D01*
X14701144Y-7194144D01*
X14701144Y-7264856D01*
X14771856Y-7264856D01*
X15025856Y-7010856D02*
X15025856Y-6940144D01*
X14955144Y-6940144D01*
X14955144Y-7010856D01*
X15025856Y-7010856D01*
X15025856Y-7264856D02*
X15025856Y-7194144D01*
X14955144Y-7194144D01*
X14955144Y-7264856D01*
X15025856Y-7264856D01*
X16110356Y-7132856D02*
X16110356Y-7062144D01*
X16039644Y-7062144D01*
X16039644Y-7132856D01*
X16110356Y-7132856D01*
X16110356Y-7386856D02*
X16110356Y-7316144D01*
X16039644Y-7316144D01*
X16039644Y-7386856D01*
X16110356Y-7386856D01*
X16110356Y-7640856D02*
X16110356Y-7570144D01*
X16039644Y-7570144D01*
X16039644Y-7640856D01*
X16110356Y-7640856D01*
X16535356Y-5154856D02*
X16535356Y-5084144D01*
X16464644Y-5084144D01*
X16464644Y-5154856D01*
X16535356Y-5154856D01*
X16535356Y-5408856D02*
X16535356Y-5338144D01*
X16464644Y-5338144D01*
X16464644Y-5408856D01*
X16535356Y-5408856D01*
X16535356Y-5662856D02*
X16535356Y-5592144D01*
X16464644Y-5592144D01*
X16464644Y-5662856D01*
X16535356Y-5662856D01*
X16535356Y-6106356D02*
X16535356Y-6035644D01*
X16464644Y-6035644D01*
X16464644Y-6106356D01*
X16535356Y-6106356D01*
X16535356Y-6360356D02*
X16535356Y-6289644D01*
X16464644Y-6289644D01*
X16464644Y-6360356D01*
X16535356Y-6360356D01*
X16535356Y-6614356D02*
X16535356Y-6543644D01*
X16464644Y-6543644D01*
X16464644Y-6614356D01*
X16535356Y-6614356D01*
X16535356Y-7056356D02*
X16535356Y-6985644D01*
X16464644Y-6985644D01*
X16464644Y-7056356D01*
X16535356Y-7056356D01*
X16535356Y-7310356D02*
X16535356Y-7239644D01*
X16464644Y-7239644D01*
X16464644Y-7310356D01*
X16535356Y-7310356D01*
X16535356Y-7564356D02*
X16535356Y-7493644D01*
X16464644Y-7493644D01*
X16464644Y-7564356D01*
X16535356Y-7564356D01*
D13*
X6700000Y-3560000D02*
X6860000Y-3400000D01*
X6700000Y-3240000D01*
X6540000Y-3400000D01*
X6700000Y-3560000D01*
X6700000Y-10860000D02*
X6860000Y-10700000D01*
X6700000Y-10540000D01*
X6540000Y-10700000D01*
X6700000Y-10860000D01*
X17400000Y-3560000D02*
X17560000Y-3400000D01*
X17400000Y-3240000D01*
X17240000Y-3400000D01*
X17400000Y-3560000D01*
X17400000Y-10860000D02*
X17560000Y-10700000D01*
X17400000Y-10540000D01*
X17240000Y-10700000D01*
X17400000Y-10860000D01*
D14*
X6515000Y-4475000D02*
X6965000Y-4925000D01*
X6965000Y-4475000D02*
X6515000Y-4925000D01*
X6965000Y-4700000D02*
G75*
G02*
X6515000Y-4700000I-225000J0D01*
G01*
X6515000Y-4700000D02*
G75*
G02*
X6965000Y-4700000I225000J0D01*
G01*
X6515000Y-5775000D02*
X6965000Y-6225000D01*
X6965000Y-5775000D02*
X6515000Y-6225000D01*
X6965000Y-6000000D02*
G75*
G02*
X6515000Y-6000000I-225000J0D01*
G01*
X6515000Y-6000000D02*
G75*
G02*
X6965000Y-6000000I225000J0D01*
G01*
X6515000Y-7075000D02*
X6965000Y-7525000D01*
X6965000Y-7075000D02*
X6515000Y-7525000D01*
X6965000Y-7300000D02*
G75*
G02*
X6515000Y-7300000I-225000J0D01*
G01*
X6515000Y-7300000D02*
G75*
G02*
X6965000Y-7300000I225000J0D01*
G01*
X7235000Y-4475000D02*
X7685000Y-4925000D01*
X7685000Y-4475000D02*
X7235000Y-4925000D01*
X7685000Y-4700000D02*
G75*
G02*
X7235000Y-4700000I-225000J0D01*
G01*
X7235000Y-4700000D02*
G75*
G02*
X7685000Y-4700000I225000J0D01*
G01*
X7235000Y-5775000D02*
X7685000Y-6225000D01*
X7685000Y-5775000D02*
X7235000Y-6225000D01*
X7685000Y-6000000D02*
G75*
G02*
X7235000Y-6000000I-225000J0D01*
G01*
X7235000Y-6000000D02*
G75*
G02*
X7685000Y-6000000I225000J0D01*
G01*
X7235000Y-7075000D02*
X7685000Y-7525000D01*
X7685000Y-7075000D02*
X7235000Y-7525000D01*
X7685000Y-7300000D02*
G75*
G02*
X7235000Y-7300000I-225000J0D01*
G01*
X7235000Y-7300000D02*
G75*
G02*
X7685000Y-7300000I225000J0D01*
G01*
X8575000Y-4615000D02*
X9025000Y-5065000D01*
X9025000Y-4615000D02*
X8575000Y-5065000D01*
X9025000Y-4840000D02*
G75*
G02*
X8575000Y-4840000I-225000J0D01*
G01*
X8575000Y-4840000D02*
G75*
G02*
X9025000Y-4840000I225000J0D01*
G01*
X8575000Y-5335000D02*
X9025000Y-5785000D01*
X9025000Y-5335000D02*
X8575000Y-5785000D01*
X9025000Y-5560000D02*
G75*
G02*
X8575000Y-5560000I-225000J0D01*
G01*
X8575000Y-5560000D02*
G75*
G02*
X9025000Y-5560000I225000J0D01*
G01*
X11565000Y-3275000D02*
X12015000Y-3725000D01*
X12015000Y-3275000D02*
X11565000Y-3725000D01*
X12015000Y-3500000D02*
G75*
G02*
X11565000Y-3500000I-225000J0D01*
G01*
X11565000Y-3500000D02*
G75*
G02*
X12015000Y-3500000I225000J0D01*
G01*
X11565000Y-10575000D02*
X12015000Y-11025000D01*
X12015000Y-10575000D02*
X11565000Y-11025000D01*
X12015000Y-10800000D02*
G75*
G02*
X11565000Y-10800000I-225000J0D01*
G01*
X11565000Y-10800000D02*
G75*
G02*
X12015000Y-10800000I225000J0D01*
G01*
X12285000Y-3275000D02*
X12735000Y-3725000D01*
X12735000Y-3275000D02*
X12285000Y-3725000D01*
X12735000Y-3500000D02*
G75*
G02*
X12285000Y-3500000I-225000J0D01*
G01*
X12285000Y-3500000D02*
G75*
G02*
X12735000Y-3500000I225000J0D01*
G01*
X12285000Y-10575000D02*
X12735000Y-11025000D01*
X12735000Y-10575000D02*
X12285000Y-11025000D01*
X12735000Y-10800000D02*
G75*
G02*
X12285000Y-10800000I-225000J0D01*
G01*
X12285000Y-10800000D02*
G75*
G02*
X12735000Y-10800000I225000J0D01*
G01*
X17215000Y-6875000D02*
X17665000Y-7325000D01*
X17665000Y-6875000D02*
X17215000Y-7325000D01*
X17665000Y-7100000D02*
G75*
G02*
X17215000Y-7100000I-225000J0D01*
G01*
X17215000Y-7100000D02*
G75*
G02*
X17665000Y-7100000I225000J0D01*
G01*
X17215000Y-7595000D02*
X17665000Y-8045000D01*
X17665000Y-7595000D02*
X17215000Y-8045000D01*
X17665000Y-7820000D02*
G75*
G02*
X17215000Y-7820000I-225000J0D01*
G01*
X17215000Y-7820000D02*
G75*
G02*
X17665000Y-7820000I225000J0D01*
G01*
D11*
X6158277Y-11813984D02*
X6158277Y-11613984D01*
X6158277Y-11613984D02*
X6205896Y-11613984D01*
X6205896Y-11613984D02*
X6234467Y-11623508D01*
X6234467Y-11623508D02*
X6253515Y-11642555D01*
X6253515Y-11642555D02*
X6263039Y-11661603D01*
X6263039Y-11661603D02*
X6272562Y-11699698D01*
X6272562Y-11699698D02*
X6272562Y-11728269D01*
X6272562Y-11728269D02*
X6263039Y-11766365D01*
X6263039Y-11766365D02*
X6253515Y-11785412D01*
X6253515Y-11785412D02*
X6234467Y-11804460D01*
X6234467Y-11804460D02*
X6205896Y-11813984D01*
X6205896Y-11813984D02*
X6158277Y-11813984D01*
X6358277Y-11813984D02*
X6358277Y-11680650D01*
X6358277Y-11718746D02*
X6367801Y-11699698D01*
X6367801Y-11699698D02*
X6377324Y-11690174D01*
X6377324Y-11690174D02*
X6396372Y-11680650D01*
X6396372Y-11680650D02*
X6415420Y-11680650D01*
X6482086Y-11813984D02*
X6482086Y-11680650D01*
X6482086Y-11613984D02*
X6472562Y-11623508D01*
X6472562Y-11623508D02*
X6482086Y-11633031D01*
X6482086Y-11633031D02*
X6491610Y-11623508D01*
X6491610Y-11623508D02*
X6482086Y-11613984D01*
X6482086Y-11613984D02*
X6482086Y-11633031D01*
X6605896Y-11813984D02*
X6586848Y-11804460D01*
X6586848Y-11804460D02*
X6577324Y-11785412D01*
X6577324Y-11785412D02*
X6577324Y-11613984D01*
X6710658Y-11813984D02*
X6691610Y-11804460D01*
X6691610Y-11804460D02*
X6682086Y-11785412D01*
X6682086Y-11785412D02*
X6682086Y-11613984D01*
X6939229Y-11813984D02*
X6939229Y-11613984D01*
X6939229Y-11613984D02*
X7005896Y-11756841D01*
X7005896Y-11756841D02*
X7072562Y-11613984D01*
X7072562Y-11613984D02*
X7072562Y-11813984D01*
X7253515Y-11813984D02*
X7253515Y-11709222D01*
X7253515Y-11709222D02*
X7243991Y-11690174D01*
X7243991Y-11690174D02*
X7224943Y-11680650D01*
X7224943Y-11680650D02*
X7186848Y-11680650D01*
X7186848Y-11680650D02*
X7167801Y-11690174D01*
X7253515Y-11804460D02*
X7234467Y-11813984D01*
X7234467Y-11813984D02*
X7186848Y-11813984D01*
X7186848Y-11813984D02*
X7167801Y-11804460D01*
X7167801Y-11804460D02*
X7158277Y-11785412D01*
X7158277Y-11785412D02*
X7158277Y-11766365D01*
X7158277Y-11766365D02*
X7167801Y-11747317D01*
X7167801Y-11747317D02*
X7186848Y-11737793D01*
X7186848Y-11737793D02*
X7234467Y-11737793D01*
X7234467Y-11737793D02*
X7253515Y-11728269D01*
X7348753Y-11680650D02*
X7348753Y-11880650D01*
X7348753Y-11690174D02*
X7367801Y-11680650D01*
X7367801Y-11680650D02*
X7405896Y-11680650D01*
X7405896Y-11680650D02*
X7424943Y-11690174D01*
X7424943Y-11690174D02*
X7434467Y-11699698D01*
X7434467Y-11699698D02*
X7443991Y-11718746D01*
X7443991Y-11718746D02*
X7443991Y-11775888D01*
X7443991Y-11775888D02*
X7434467Y-11794936D01*
X7434467Y-11794936D02*
X7424943Y-11804460D01*
X7424943Y-11804460D02*
X7405896Y-11813984D01*
X7405896Y-11813984D02*
X7367801Y-11813984D01*
X7367801Y-11813984D02*
X7348753Y-11804460D01*
X7529705Y-11794936D02*
X7539229Y-11804460D01*
X7539229Y-11804460D02*
X7529705Y-11813984D01*
X7529705Y-11813984D02*
X7520182Y-11804460D01*
X7520182Y-11804460D02*
X7529705Y-11794936D01*
X7529705Y-11794936D02*
X7529705Y-11813984D01*
X7529705Y-11690174D02*
X7539229Y-11699698D01*
X7539229Y-11699698D02*
X7529705Y-11709222D01*
X7529705Y-11709222D02*
X7520182Y-11699698D01*
X7520182Y-11699698D02*
X7529705Y-11690174D01*
X7529705Y-11690174D02*
X7529705Y-11709222D01*
D12*
X5867500Y-12127500D02*
X5897500Y-12157500D01*
X5897500Y-12127500D02*
X5867500Y-12157500D01*
D11*
X6196372Y-12033984D02*
X6215420Y-12033984D01*
X6215420Y-12033984D02*
X6234467Y-12043508D01*
X6234467Y-12043508D02*
X6243991Y-12053031D01*
X6243991Y-12053031D02*
X6253515Y-12072079D01*
X6253515Y-12072079D02*
X6263039Y-12110174D01*
X6263039Y-12110174D02*
X6263039Y-12157793D01*
X6263039Y-12157793D02*
X6253515Y-12195888D01*
X6253515Y-12195888D02*
X6243991Y-12214936D01*
X6243991Y-12214936D02*
X6234467Y-12224460D01*
X6234467Y-12224460D02*
X6215420Y-12233984D01*
X6215420Y-12233984D02*
X6196372Y-12233984D01*
X6196372Y-12233984D02*
X6177324Y-12224460D01*
X6177324Y-12224460D02*
X6167801Y-12214936D01*
X6167801Y-12214936D02*
X6158277Y-12195888D01*
X6158277Y-12195888D02*
X6148753Y-12157793D01*
X6148753Y-12157793D02*
X6148753Y-12110174D01*
X6148753Y-12110174D02*
X6158277Y-12072079D01*
X6158277Y-12072079D02*
X6167801Y-12053031D01*
X6167801Y-12053031D02*
X6177324Y-12043508D01*
X6177324Y-12043508D02*
X6196372Y-12033984D01*
X6348753Y-12214936D02*
X6358277Y-12224460D01*
X6358277Y-12224460D02*
X6348753Y-12233984D01*
X6348753Y-12233984D02*
X6339229Y-12224460D01*
X6339229Y-12224460D02*
X6348753Y-12214936D01*
X6348753Y-12214936D02*
X6348753Y-12233984D01*
X6424943Y-12033984D02*
X6548753Y-12033984D01*
X6548753Y-12033984D02*
X6482086Y-12110174D01*
X6482086Y-12110174D02*
X6510658Y-12110174D01*
X6510658Y-12110174D02*
X6529705Y-12119698D01*
X6529705Y-12119698D02*
X6539229Y-12129222D01*
X6539229Y-12129222D02*
X6548753Y-12148269D01*
X6548753Y-12148269D02*
X6548753Y-12195888D01*
X6548753Y-12195888D02*
X6539229Y-12214936D01*
X6539229Y-12214936D02*
X6529705Y-12224460D01*
X6529705Y-12224460D02*
X6510658Y-12233984D01*
X6510658Y-12233984D02*
X6453515Y-12233984D01*
X6453515Y-12233984D02*
X6434467Y-12224460D01*
X6434467Y-12224460D02*
X6424943Y-12214936D01*
X6672562Y-12033984D02*
X6691610Y-12033984D01*
X6691610Y-12033984D02*
X6710658Y-12043508D01*
X6710658Y-12043508D02*
X6720182Y-12053031D01*
X6720182Y-12053031D02*
X6729705Y-12072079D01*
X6729705Y-12072079D02*
X6739229Y-12110174D01*
X6739229Y-12110174D02*
X6739229Y-12157793D01*
X6739229Y-12157793D02*
X6729705Y-12195888D01*
X6729705Y-12195888D02*
X6720182Y-12214936D01*
X6720182Y-12214936D02*
X6710658Y-12224460D01*
X6710658Y-12224460D02*
X6691610Y-12233984D01*
X6691610Y-12233984D02*
X6672562Y-12233984D01*
X6672562Y-12233984D02*
X6653515Y-12224460D01*
X6653515Y-12224460D02*
X6643991Y-12214936D01*
X6643991Y-12214936D02*
X6634467Y-12195888D01*
X6634467Y-12195888D02*
X6624943Y-12157793D01*
X6624943Y-12157793D02*
X6624943Y-12110174D01*
X6624943Y-12110174D02*
X6634467Y-12072079D01*
X6634467Y-12072079D02*
X6643991Y-12053031D01*
X6643991Y-12053031D02*
X6653515Y-12043508D01*
X6653515Y-12043508D02*
X6672562Y-12033984D01*
X6863039Y-12033984D02*
X6882086Y-12033984D01*
X6882086Y-12033984D02*
X6901134Y-12043508D01*
X6901134Y-12043508D02*
X6910658Y-12053031D01*
X6910658Y-12053031D02*
X6920182Y-12072079D01*
X6920182Y-12072079D02*
X6929705Y-12110174D01*
X6929705Y-12110174D02*
X6929705Y-12157793D01*
X6929705Y-12157793D02*
X6920182Y-12195888D01*
X6920182Y-12195888D02*
X6910658Y-12214936D01*
X6910658Y-12214936D02*
X6901134Y-12224460D01*
X6901134Y-12224460D02*
X6882086Y-12233984D01*
X6882086Y-12233984D02*
X6863039Y-12233984D01*
X6863039Y-12233984D02*
X6843991Y-12224460D01*
X6843991Y-12224460D02*
X6834467Y-12214936D01*
X6834467Y-12214936D02*
X6824943Y-12195888D01*
X6824943Y-12195888D02*
X6815420Y-12157793D01*
X6815420Y-12157793D02*
X6815420Y-12110174D01*
X6815420Y-12110174D02*
X6824943Y-12072079D01*
X6824943Y-12072079D02*
X6834467Y-12053031D01*
X6834467Y-12053031D02*
X6843991Y-12043508D01*
X6843991Y-12043508D02*
X6863039Y-12033984D01*
X7015420Y-12233984D02*
X7015420Y-12100650D01*
X7015420Y-12119698D02*
X7024943Y-12110174D01*
X7024943Y-12110174D02*
X7043991Y-12100650D01*
X7043991Y-12100650D02*
X7072563Y-12100650D01*
X7072563Y-12100650D02*
X7091610Y-12110174D01*
X7091610Y-12110174D02*
X7101134Y-12129222D01*
X7101134Y-12129222D02*
X7101134Y-12233984D01*
X7101134Y-12129222D02*
X7110658Y-12110174D01*
X7110658Y-12110174D02*
X7129705Y-12100650D01*
X7129705Y-12100650D02*
X7158277Y-12100650D01*
X7158277Y-12100650D02*
X7177324Y-12110174D01*
X7177324Y-12110174D02*
X7186848Y-12129222D01*
X7186848Y-12129222D02*
X7186848Y-12233984D01*
X7282086Y-12233984D02*
X7282086Y-12100650D01*
X7282086Y-12119698D02*
X7291610Y-12110174D01*
X7291610Y-12110174D02*
X7310658Y-12100650D01*
X7310658Y-12100650D02*
X7339229Y-12100650D01*
X7339229Y-12100650D02*
X7358277Y-12110174D01*
X7358277Y-12110174D02*
X7367801Y-12129222D01*
X7367801Y-12129222D02*
X7367801Y-12233984D01*
X7367801Y-12129222D02*
X7377324Y-12110174D01*
X7377324Y-12110174D02*
X7396372Y-12100650D01*
X7396372Y-12100650D02*
X7424943Y-12100650D01*
X7424943Y-12100650D02*
X7443991Y-12110174D01*
X7443991Y-12110174D02*
X7453515Y-12129222D01*
X7453515Y-12129222D02*
X7453515Y-12233984D01*
X7843991Y-12024460D02*
X7672563Y-12281603D01*
X8101134Y-12033984D02*
X8120182Y-12033984D01*
X8120182Y-12033984D02*
X8139229Y-12043508D01*
X8139229Y-12043508D02*
X8148753Y-12053031D01*
X8148753Y-12053031D02*
X8158277Y-12072079D01*
X8158277Y-12072079D02*
X8167801Y-12110174D01*
X8167801Y-12110174D02*
X8167801Y-12157793D01*
X8167801Y-12157793D02*
X8158277Y-12195888D01*
X8158277Y-12195888D02*
X8148753Y-12214936D01*
X8148753Y-12214936D02*
X8139229Y-12224460D01*
X8139229Y-12224460D02*
X8120182Y-12233984D01*
X8120182Y-12233984D02*
X8101134Y-12233984D01*
X8101134Y-12233984D02*
X8082086Y-12224460D01*
X8082086Y-12224460D02*
X8072563Y-12214936D01*
X8072563Y-12214936D02*
X8063039Y-12195888D01*
X8063039Y-12195888D02*
X8053515Y-12157793D01*
X8053515Y-12157793D02*
X8053515Y-12110174D01*
X8053515Y-12110174D02*
X8063039Y-12072079D01*
X8063039Y-12072079D02*
X8072563Y-12053031D01*
X8072563Y-12053031D02*
X8082086Y-12043508D01*
X8082086Y-12043508D02*
X8101134Y-12033984D01*
X8253515Y-12214936D02*
X8263039Y-12224460D01*
X8263039Y-12224460D02*
X8253515Y-12233984D01*
X8253515Y-12233984D02*
X8243991Y-12224460D01*
X8243991Y-12224460D02*
X8253515Y-12214936D01*
X8253515Y-12214936D02*
X8253515Y-12233984D01*
X8386848Y-12033984D02*
X8405896Y-12033984D01*
X8405896Y-12033984D02*
X8424944Y-12043508D01*
X8424944Y-12043508D02*
X8434468Y-12053031D01*
X8434468Y-12053031D02*
X8443991Y-12072079D01*
X8443991Y-12072079D02*
X8453515Y-12110174D01*
X8453515Y-12110174D02*
X8453515Y-12157793D01*
X8453515Y-12157793D02*
X8443991Y-12195888D01*
X8443991Y-12195888D02*
X8434468Y-12214936D01*
X8434468Y-12214936D02*
X8424944Y-12224460D01*
X8424944Y-12224460D02*
X8405896Y-12233984D01*
X8405896Y-12233984D02*
X8386848Y-12233984D01*
X8386848Y-12233984D02*
X8367801Y-12224460D01*
X8367801Y-12224460D02*
X8358277Y-12214936D01*
X8358277Y-12214936D02*
X8348753Y-12195888D01*
X8348753Y-12195888D02*
X8339229Y-12157793D01*
X8339229Y-12157793D02*
X8339229Y-12110174D01*
X8339229Y-12110174D02*
X8348753Y-12072079D01*
X8348753Y-12072079D02*
X8358277Y-12053031D01*
X8358277Y-12053031D02*
X8367801Y-12043508D01*
X8367801Y-12043508D02*
X8386848Y-12033984D01*
X8643991Y-12233984D02*
X8529706Y-12233984D01*
X8586848Y-12233984D02*
X8586848Y-12033984D01*
X8586848Y-12033984D02*
X8567801Y-12062555D01*
X8567801Y-12062555D02*
X8548753Y-12081603D01*
X8548753Y-12081603D02*
X8529706Y-12091127D01*
X8834468Y-12233984D02*
X8720182Y-12233984D01*
X8777325Y-12233984D02*
X8777325Y-12033984D01*
X8777325Y-12033984D02*
X8758277Y-12062555D01*
X8758277Y-12062555D02*
X8739229Y-12081603D01*
X8739229Y-12081603D02*
X8720182Y-12091127D01*
X8948753Y-12119698D02*
X8929706Y-12110174D01*
X8929706Y-12110174D02*
X8920182Y-12100650D01*
X8920182Y-12100650D02*
X8910658Y-12081603D01*
X8910658Y-12081603D02*
X8910658Y-12072079D01*
X8910658Y-12072079D02*
X8920182Y-12053031D01*
X8920182Y-12053031D02*
X8929706Y-12043508D01*
X8929706Y-12043508D02*
X8948753Y-12033984D01*
X8948753Y-12033984D02*
X8986849Y-12033984D01*
X8986849Y-12033984D02*
X9005896Y-12043508D01*
X9005896Y-12043508D02*
X9015420Y-12053031D01*
X9015420Y-12053031D02*
X9024944Y-12072079D01*
X9024944Y-12072079D02*
X9024944Y-12081603D01*
X9024944Y-12081603D02*
X9015420Y-12100650D01*
X9015420Y-12100650D02*
X9005896Y-12110174D01*
X9005896Y-12110174D02*
X8986849Y-12119698D01*
X8986849Y-12119698D02*
X8948753Y-12119698D01*
X8948753Y-12119698D02*
X8929706Y-12129222D01*
X8929706Y-12129222D02*
X8920182Y-12138746D01*
X8920182Y-12138746D02*
X8910658Y-12157793D01*
X8910658Y-12157793D02*
X8910658Y-12195888D01*
X8910658Y-12195888D02*
X8920182Y-12214936D01*
X8920182Y-12214936D02*
X8929706Y-12224460D01*
X8929706Y-12224460D02*
X8948753Y-12233984D01*
X8948753Y-12233984D02*
X8986849Y-12233984D01*
X8986849Y-12233984D02*
X9005896Y-12224460D01*
X9005896Y-12224460D02*
X9015420Y-12214936D01*
X9015420Y-12214936D02*
X9024944Y-12195888D01*
X9024944Y-12195888D02*
X9024944Y-12157793D01*
X9024944Y-12157793D02*
X9015420Y-12138746D01*
X9015420Y-12138746D02*
X9005896Y-12129222D01*
X9005896Y-12129222D02*
X8986849Y-12119698D01*
X9101134Y-12033984D02*
X9101134Y-12072079D01*
X9177325Y-12033984D02*
X9177325Y-12072079D01*
X9472563Y-12310174D02*
X9463039Y-12300650D01*
X9463039Y-12300650D02*
X9443991Y-12272079D01*
X9443991Y-12272079D02*
X9434468Y-12253031D01*
X9434468Y-12253031D02*
X9424944Y-12224460D01*
X9424944Y-12224460D02*
X9415420Y-12176841D01*
X9415420Y-12176841D02*
X9415420Y-12138746D01*
X9415420Y-12138746D02*
X9424944Y-12091127D01*
X9424944Y-12091127D02*
X9434468Y-12062555D01*
X9434468Y-12062555D02*
X9443991Y-12043508D01*
X9443991Y-12043508D02*
X9463039Y-12014936D01*
X9463039Y-12014936D02*
X9472563Y-12005412D01*
X9634468Y-12100650D02*
X9634468Y-12233984D01*
X9586849Y-12024460D02*
X9539230Y-12167317D01*
X9539230Y-12167317D02*
X9663039Y-12167317D01*
X9720182Y-12033984D02*
X9843991Y-12033984D01*
X9843991Y-12033984D02*
X9777325Y-12110174D01*
X9777325Y-12110174D02*
X9805896Y-12110174D01*
X9805896Y-12110174D02*
X9824944Y-12119698D01*
X9824944Y-12119698D02*
X9834468Y-12129222D01*
X9834468Y-12129222D02*
X9843991Y-12148269D01*
X9843991Y-12148269D02*
X9843991Y-12195888D01*
X9843991Y-12195888D02*
X9834468Y-12214936D01*
X9834468Y-12214936D02*
X9824944Y-12224460D01*
X9824944Y-12224460D02*
X9805896Y-12233984D01*
X9805896Y-12233984D02*
X9748753Y-12233984D01*
X9748753Y-12233984D02*
X9729706Y-12224460D01*
X9729706Y-12224460D02*
X9720182Y-12214936D01*
X10082087Y-12233984D02*
X10082087Y-12033984D01*
X10167801Y-12233984D02*
X10167801Y-12129222D01*
X10167801Y-12129222D02*
X10158277Y-12110174D01*
X10158277Y-12110174D02*
X10139230Y-12100650D01*
X10139230Y-12100650D02*
X10110658Y-12100650D01*
X10110658Y-12100650D02*
X10091611Y-12110174D01*
X10091611Y-12110174D02*
X10082087Y-12119698D01*
X10291611Y-12233984D02*
X10272563Y-12224460D01*
X10272563Y-12224460D02*
X10263039Y-12214936D01*
X10263039Y-12214936D02*
X10253515Y-12195888D01*
X10253515Y-12195888D02*
X10253515Y-12138746D01*
X10253515Y-12138746D02*
X10263039Y-12119698D01*
X10263039Y-12119698D02*
X10272563Y-12110174D01*
X10272563Y-12110174D02*
X10291611Y-12100650D01*
X10291611Y-12100650D02*
X10320182Y-12100650D01*
X10320182Y-12100650D02*
X10339230Y-12110174D01*
X10339230Y-12110174D02*
X10348753Y-12119698D01*
X10348753Y-12119698D02*
X10358277Y-12138746D01*
X10358277Y-12138746D02*
X10358277Y-12195888D01*
X10358277Y-12195888D02*
X10348753Y-12214936D01*
X10348753Y-12214936D02*
X10339230Y-12224460D01*
X10339230Y-12224460D02*
X10320182Y-12233984D01*
X10320182Y-12233984D02*
X10291611Y-12233984D01*
X10472563Y-12233984D02*
X10453515Y-12224460D01*
X10453515Y-12224460D02*
X10443992Y-12205412D01*
X10443992Y-12205412D02*
X10443992Y-12033984D01*
X10624944Y-12224460D02*
X10605896Y-12233984D01*
X10605896Y-12233984D02*
X10567801Y-12233984D01*
X10567801Y-12233984D02*
X10548753Y-12224460D01*
X10548753Y-12224460D02*
X10539230Y-12205412D01*
X10539230Y-12205412D02*
X10539230Y-12129222D01*
X10539230Y-12129222D02*
X10548753Y-12110174D01*
X10548753Y-12110174D02*
X10567801Y-12100650D01*
X10567801Y-12100650D02*
X10605896Y-12100650D01*
X10605896Y-12100650D02*
X10624944Y-12110174D01*
X10624944Y-12110174D02*
X10634468Y-12129222D01*
X10634468Y-12129222D02*
X10634468Y-12148269D01*
X10634468Y-12148269D02*
X10539230Y-12167317D01*
X10710658Y-12224460D02*
X10729706Y-12233984D01*
X10729706Y-12233984D02*
X10767801Y-12233984D01*
X10767801Y-12233984D02*
X10786849Y-12224460D01*
X10786849Y-12224460D02*
X10796373Y-12205412D01*
X10796373Y-12205412D02*
X10796373Y-12195888D01*
X10796373Y-12195888D02*
X10786849Y-12176841D01*
X10786849Y-12176841D02*
X10767801Y-12167317D01*
X10767801Y-12167317D02*
X10739230Y-12167317D01*
X10739230Y-12167317D02*
X10720182Y-12157793D01*
X10720182Y-12157793D02*
X10710658Y-12138746D01*
X10710658Y-12138746D02*
X10710658Y-12129222D01*
X10710658Y-12129222D02*
X10720182Y-12110174D01*
X10720182Y-12110174D02*
X10739230Y-12100650D01*
X10739230Y-12100650D02*
X10767801Y-12100650D01*
X10767801Y-12100650D02*
X10786849Y-12110174D01*
X10863039Y-12310174D02*
X10872563Y-12300650D01*
X10872563Y-12300650D02*
X10891611Y-12272079D01*
X10891611Y-12272079D02*
X10901134Y-12253031D01*
X10901134Y-12253031D02*
X10910658Y-12224460D01*
X10910658Y-12224460D02*
X10920182Y-12176841D01*
X10920182Y-12176841D02*
X10920182Y-12138746D01*
X10920182Y-12138746D02*
X10910658Y-12091127D01*
X10910658Y-12091127D02*
X10901134Y-12062555D01*
X10901134Y-12062555D02*
X10891611Y-12043508D01*
X10891611Y-12043508D02*
X10872563Y-12014936D01*
X10872563Y-12014936D02*
X10863039Y-12005412D01*
D12*
X5897500Y-12406500D02*
G75*
G02*
X5847500Y-12406500I-25000J0D01*
G01*
X5847500Y-12406500D02*
G75*
G02*
X5897500Y-12406500I25000J0D01*
G01*
D11*
X6196372Y-12297984D02*
X6215420Y-12297984D01*
X6215420Y-12297984D02*
X6234467Y-12307508D01*
X6234467Y-12307508D02*
X6243991Y-12317031D01*
X6243991Y-12317031D02*
X6253515Y-12336079D01*
X6253515Y-12336079D02*
X6263039Y-12374174D01*
X6263039Y-12374174D02*
X6263039Y-12421793D01*
X6263039Y-12421793D02*
X6253515Y-12459888D01*
X6253515Y-12459888D02*
X6243991Y-12478936D01*
X6243991Y-12478936D02*
X6234467Y-12488460D01*
X6234467Y-12488460D02*
X6215420Y-12497984D01*
X6215420Y-12497984D02*
X6196372Y-12497984D01*
X6196372Y-12497984D02*
X6177324Y-12488460D01*
X6177324Y-12488460D02*
X6167801Y-12478936D01*
X6167801Y-12478936D02*
X6158277Y-12459888D01*
X6158277Y-12459888D02*
X6148753Y-12421793D01*
X6148753Y-12421793D02*
X6148753Y-12374174D01*
X6148753Y-12374174D02*
X6158277Y-12336079D01*
X6158277Y-12336079D02*
X6167801Y-12317031D01*
X6167801Y-12317031D02*
X6177324Y-12307508D01*
X6177324Y-12307508D02*
X6196372Y-12297984D01*
X6348753Y-12478936D02*
X6358277Y-12488460D01*
X6358277Y-12488460D02*
X6348753Y-12497984D01*
X6348753Y-12497984D02*
X6339229Y-12488460D01*
X6339229Y-12488460D02*
X6348753Y-12478936D01*
X6348753Y-12478936D02*
X6348753Y-12497984D01*
X6539229Y-12297984D02*
X6443991Y-12297984D01*
X6443991Y-12297984D02*
X6434467Y-12393222D01*
X6434467Y-12393222D02*
X6443991Y-12383698D01*
X6443991Y-12383698D02*
X6463039Y-12374174D01*
X6463039Y-12374174D02*
X6510658Y-12374174D01*
X6510658Y-12374174D02*
X6529705Y-12383698D01*
X6529705Y-12383698D02*
X6539229Y-12393222D01*
X6539229Y-12393222D02*
X6548753Y-12412269D01*
X6548753Y-12412269D02*
X6548753Y-12459888D01*
X6548753Y-12459888D02*
X6539229Y-12478936D01*
X6539229Y-12478936D02*
X6529705Y-12488460D01*
X6529705Y-12488460D02*
X6510658Y-12497984D01*
X6510658Y-12497984D02*
X6463039Y-12497984D01*
X6463039Y-12497984D02*
X6443991Y-12488460D01*
X6443991Y-12488460D02*
X6434467Y-12478936D01*
X6672562Y-12297984D02*
X6691610Y-12297984D01*
X6691610Y-12297984D02*
X6710658Y-12307508D01*
X6710658Y-12307508D02*
X6720182Y-12317031D01*
X6720182Y-12317031D02*
X6729705Y-12336079D01*
X6729705Y-12336079D02*
X6739229Y-12374174D01*
X6739229Y-12374174D02*
X6739229Y-12421793D01*
X6739229Y-12421793D02*
X6729705Y-12459888D01*
X6729705Y-12459888D02*
X6720182Y-12478936D01*
X6720182Y-12478936D02*
X6710658Y-12488460D01*
X6710658Y-12488460D02*
X6691610Y-12497984D01*
X6691610Y-12497984D02*
X6672562Y-12497984D01*
X6672562Y-12497984D02*
X6653515Y-12488460D01*
X6653515Y-12488460D02*
X6643991Y-12478936D01*
X6643991Y-12478936D02*
X6634467Y-12459888D01*
X6634467Y-12459888D02*
X6624943Y-12421793D01*
X6624943Y-12421793D02*
X6624943Y-12374174D01*
X6624943Y-12374174D02*
X6634467Y-12336079D01*
X6634467Y-12336079D02*
X6643991Y-12317031D01*
X6643991Y-12317031D02*
X6653515Y-12307508D01*
X6653515Y-12307508D02*
X6672562Y-12297984D01*
X6863039Y-12297984D02*
X6882086Y-12297984D01*
X6882086Y-12297984D02*
X6901134Y-12307508D01*
X6901134Y-12307508D02*
X6910658Y-12317031D01*
X6910658Y-12317031D02*
X6920182Y-12336079D01*
X6920182Y-12336079D02*
X6929705Y-12374174D01*
X6929705Y-12374174D02*
X6929705Y-12421793D01*
X6929705Y-12421793D02*
X6920182Y-12459888D01*
X6920182Y-12459888D02*
X6910658Y-12478936D01*
X6910658Y-12478936D02*
X6901134Y-12488460D01*
X6901134Y-12488460D02*
X6882086Y-12497984D01*
X6882086Y-12497984D02*
X6863039Y-12497984D01*
X6863039Y-12497984D02*
X6843991Y-12488460D01*
X6843991Y-12488460D02*
X6834467Y-12478936D01*
X6834467Y-12478936D02*
X6824943Y-12459888D01*
X6824943Y-12459888D02*
X6815420Y-12421793D01*
X6815420Y-12421793D02*
X6815420Y-12374174D01*
X6815420Y-12374174D02*
X6824943Y-12336079D01*
X6824943Y-12336079D02*
X6834467Y-12317031D01*
X6834467Y-12317031D02*
X6843991Y-12307508D01*
X6843991Y-12307508D02*
X6863039Y-12297984D01*
X7015420Y-12497984D02*
X7015420Y-12364650D01*
X7015420Y-12383698D02*
X7024943Y-12374174D01*
X7024943Y-12374174D02*
X7043991Y-12364650D01*
X7043991Y-12364650D02*
X7072563Y-12364650D01*
X7072563Y-12364650D02*
X7091610Y-12374174D01*
X7091610Y-12374174D02*
X7101134Y-12393222D01*
X7101134Y-12393222D02*
X7101134Y-12497984D01*
X7101134Y-12393222D02*
X7110658Y-12374174D01*
X7110658Y-12374174D02*
X7129705Y-12364650D01*
X7129705Y-12364650D02*
X7158277Y-12364650D01*
X7158277Y-12364650D02*
X7177324Y-12374174D01*
X7177324Y-12374174D02*
X7186848Y-12393222D01*
X7186848Y-12393222D02*
X7186848Y-12497984D01*
X7282086Y-12497984D02*
X7282086Y-12364650D01*
X7282086Y-12383698D02*
X7291610Y-12374174D01*
X7291610Y-12374174D02*
X7310658Y-12364650D01*
X7310658Y-12364650D02*
X7339229Y-12364650D01*
X7339229Y-12364650D02*
X7358277Y-12374174D01*
X7358277Y-12374174D02*
X7367801Y-12393222D01*
X7367801Y-12393222D02*
X7367801Y-12497984D01*
X7367801Y-12393222D02*
X7377324Y-12374174D01*
X7377324Y-12374174D02*
X7396372Y-12364650D01*
X7396372Y-12364650D02*
X7424943Y-12364650D01*
X7424943Y-12364650D02*
X7443991Y-12374174D01*
X7443991Y-12374174D02*
X7453515Y-12393222D01*
X7453515Y-12393222D02*
X7453515Y-12497984D01*
X7843991Y-12288460D02*
X7672563Y-12545603D01*
X8101134Y-12297984D02*
X8120182Y-12297984D01*
X8120182Y-12297984D02*
X8139229Y-12307508D01*
X8139229Y-12307508D02*
X8148753Y-12317031D01*
X8148753Y-12317031D02*
X8158277Y-12336079D01*
X8158277Y-12336079D02*
X8167801Y-12374174D01*
X8167801Y-12374174D02*
X8167801Y-12421793D01*
X8167801Y-12421793D02*
X8158277Y-12459888D01*
X8158277Y-12459888D02*
X8148753Y-12478936D01*
X8148753Y-12478936D02*
X8139229Y-12488460D01*
X8139229Y-12488460D02*
X8120182Y-12497984D01*
X8120182Y-12497984D02*
X8101134Y-12497984D01*
X8101134Y-12497984D02*
X8082086Y-12488460D01*
X8082086Y-12488460D02*
X8072563Y-12478936D01*
X8072563Y-12478936D02*
X8063039Y-12459888D01*
X8063039Y-12459888D02*
X8053515Y-12421793D01*
X8053515Y-12421793D02*
X8053515Y-12374174D01*
X8053515Y-12374174D02*
X8063039Y-12336079D01*
X8063039Y-12336079D02*
X8072563Y-12317031D01*
X8072563Y-12317031D02*
X8082086Y-12307508D01*
X8082086Y-12307508D02*
X8101134Y-12297984D01*
X8253515Y-12478936D02*
X8263039Y-12488460D01*
X8263039Y-12488460D02*
X8253515Y-12497984D01*
X8253515Y-12497984D02*
X8243991Y-12488460D01*
X8243991Y-12488460D02*
X8253515Y-12478936D01*
X8253515Y-12478936D02*
X8253515Y-12497984D01*
X8386848Y-12297984D02*
X8405896Y-12297984D01*
X8405896Y-12297984D02*
X8424944Y-12307508D01*
X8424944Y-12307508D02*
X8434468Y-12317031D01*
X8434468Y-12317031D02*
X8443991Y-12336079D01*
X8443991Y-12336079D02*
X8453515Y-12374174D01*
X8453515Y-12374174D02*
X8453515Y-12421793D01*
X8453515Y-12421793D02*
X8443991Y-12459888D01*
X8443991Y-12459888D02*
X8434468Y-12478936D01*
X8434468Y-12478936D02*
X8424944Y-12488460D01*
X8424944Y-12488460D02*
X8405896Y-12497984D01*
X8405896Y-12497984D02*
X8386848Y-12497984D01*
X8386848Y-12497984D02*
X8367801Y-12488460D01*
X8367801Y-12488460D02*
X8358277Y-12478936D01*
X8358277Y-12478936D02*
X8348753Y-12459888D01*
X8348753Y-12459888D02*
X8339229Y-12421793D01*
X8339229Y-12421793D02*
X8339229Y-12374174D01*
X8339229Y-12374174D02*
X8348753Y-12336079D01*
X8348753Y-12336079D02*
X8358277Y-12317031D01*
X8358277Y-12317031D02*
X8367801Y-12307508D01*
X8367801Y-12307508D02*
X8386848Y-12297984D01*
X8643991Y-12497984D02*
X8529706Y-12497984D01*
X8586848Y-12497984D02*
X8586848Y-12297984D01*
X8586848Y-12297984D02*
X8567801Y-12326555D01*
X8567801Y-12326555D02*
X8548753Y-12345603D01*
X8548753Y-12345603D02*
X8529706Y-12355127D01*
X8739229Y-12497984D02*
X8777325Y-12497984D01*
X8777325Y-12497984D02*
X8796372Y-12488460D01*
X8796372Y-12488460D02*
X8805896Y-12478936D01*
X8805896Y-12478936D02*
X8824944Y-12450365D01*
X8824944Y-12450365D02*
X8834468Y-12412269D01*
X8834468Y-12412269D02*
X8834468Y-12336079D01*
X8834468Y-12336079D02*
X8824944Y-12317031D01*
X8824944Y-12317031D02*
X8815420Y-12307508D01*
X8815420Y-12307508D02*
X8796372Y-12297984D01*
X8796372Y-12297984D02*
X8758277Y-12297984D01*
X8758277Y-12297984D02*
X8739229Y-12307508D01*
X8739229Y-12307508D02*
X8729706Y-12317031D01*
X8729706Y-12317031D02*
X8720182Y-12336079D01*
X8720182Y-12336079D02*
X8720182Y-12383698D01*
X8720182Y-12383698D02*
X8729706Y-12402746D01*
X8729706Y-12402746D02*
X8739229Y-12412269D01*
X8739229Y-12412269D02*
X8758277Y-12421793D01*
X8758277Y-12421793D02*
X8796372Y-12421793D01*
X8796372Y-12421793D02*
X8815420Y-12412269D01*
X8815420Y-12412269D02*
X8824944Y-12402746D01*
X8824944Y-12402746D02*
X8834468Y-12383698D01*
X8901134Y-12297984D02*
X9034468Y-12297984D01*
X9034468Y-12297984D02*
X8948753Y-12497984D01*
X9101134Y-12297984D02*
X9101134Y-12336079D01*
X9177325Y-12297984D02*
X9177325Y-12336079D01*
X9472563Y-12574174D02*
X9463039Y-12564650D01*
X9463039Y-12564650D02*
X9443991Y-12536079D01*
X9443991Y-12536079D02*
X9434468Y-12517031D01*
X9434468Y-12517031D02*
X9424944Y-12488460D01*
X9424944Y-12488460D02*
X9415420Y-12440841D01*
X9415420Y-12440841D02*
X9415420Y-12402746D01*
X9415420Y-12402746D02*
X9424944Y-12355127D01*
X9424944Y-12355127D02*
X9434468Y-12326555D01*
X9434468Y-12326555D02*
X9443991Y-12307508D01*
X9443991Y-12307508D02*
X9463039Y-12278936D01*
X9463039Y-12278936D02*
X9472563Y-12269412D01*
X9529706Y-12297984D02*
X9653515Y-12297984D01*
X9653515Y-12297984D02*
X9586849Y-12374174D01*
X9586849Y-12374174D02*
X9615420Y-12374174D01*
X9615420Y-12374174D02*
X9634468Y-12383698D01*
X9634468Y-12383698D02*
X9643991Y-12393222D01*
X9643991Y-12393222D02*
X9653515Y-12412269D01*
X9653515Y-12412269D02*
X9653515Y-12459888D01*
X9653515Y-12459888D02*
X9643991Y-12478936D01*
X9643991Y-12478936D02*
X9634468Y-12488460D01*
X9634468Y-12488460D02*
X9615420Y-12497984D01*
X9615420Y-12497984D02*
X9558277Y-12497984D01*
X9558277Y-12497984D02*
X9539230Y-12488460D01*
X9539230Y-12488460D02*
X9529706Y-12478936D01*
X9729706Y-12317031D02*
X9739230Y-12307508D01*
X9739230Y-12307508D02*
X9758277Y-12297984D01*
X9758277Y-12297984D02*
X9805896Y-12297984D01*
X9805896Y-12297984D02*
X9824944Y-12307508D01*
X9824944Y-12307508D02*
X9834468Y-12317031D01*
X9834468Y-12317031D02*
X9843991Y-12336079D01*
X9843991Y-12336079D02*
X9843991Y-12355127D01*
X9843991Y-12355127D02*
X9834468Y-12383698D01*
X9834468Y-12383698D02*
X9720182Y-12497984D01*
X9720182Y-12497984D02*
X9843991Y-12497984D01*
X10082087Y-12497984D02*
X10082087Y-12297984D01*
X10167801Y-12497984D02*
X10167801Y-12393222D01*
X10167801Y-12393222D02*
X10158277Y-12374174D01*
X10158277Y-12374174D02*
X10139230Y-12364650D01*
X10139230Y-12364650D02*
X10110658Y-12364650D01*
X10110658Y-12364650D02*
X10091611Y-12374174D01*
X10091611Y-12374174D02*
X10082087Y-12383698D01*
X10291611Y-12497984D02*
X10272563Y-12488460D01*
X10272563Y-12488460D02*
X10263039Y-12478936D01*
X10263039Y-12478936D02*
X10253515Y-12459888D01*
X10253515Y-12459888D02*
X10253515Y-12402746D01*
X10253515Y-12402746D02*
X10263039Y-12383698D01*
X10263039Y-12383698D02*
X10272563Y-12374174D01*
X10272563Y-12374174D02*
X10291611Y-12364650D01*
X10291611Y-12364650D02*
X10320182Y-12364650D01*
X10320182Y-12364650D02*
X10339230Y-12374174D01*
X10339230Y-12374174D02*
X10348753Y-12383698D01*
X10348753Y-12383698D02*
X10358277Y-12402746D01*
X10358277Y-12402746D02*
X10358277Y-12459888D01*
X10358277Y-12459888D02*
X10348753Y-12478936D01*
X10348753Y-12478936D02*
X10339230Y-12488460D01*
X10339230Y-12488460D02*
X10320182Y-12497984D01*
X10320182Y-12497984D02*
X10291611Y-12497984D01*
X10472563Y-12497984D02*
X10453515Y-12488460D01*
X10453515Y-12488460D02*
X10443992Y-12469412D01*
X10443992Y-12469412D02*
X10443992Y-12297984D01*
X10624944Y-12488460D02*
X10605896Y-12497984D01*
X10605896Y-12497984D02*
X10567801Y-12497984D01*
X10567801Y-12497984D02*
X10548753Y-12488460D01*
X10548753Y-12488460D02*
X10539230Y-12469412D01*
X10539230Y-12469412D02*
X10539230Y-12393222D01*
X10539230Y-12393222D02*
X10548753Y-12374174D01*
X10548753Y-12374174D02*
X10567801Y-12364650D01*
X10567801Y-12364650D02*
X10605896Y-12364650D01*
X10605896Y-12364650D02*
X10624944Y-12374174D01*
X10624944Y-12374174D02*
X10634468Y-12393222D01*
X10634468Y-12393222D02*
X10634468Y-12412269D01*
X10634468Y-12412269D02*
X10539230Y-12431317D01*
X10710658Y-12488460D02*
X10729706Y-12497984D01*
X10729706Y-12497984D02*
X10767801Y-12497984D01*
X10767801Y-12497984D02*
X10786849Y-12488460D01*
X10786849Y-12488460D02*
X10796373Y-12469412D01*
X10796373Y-12469412D02*
X10796373Y-12459888D01*
X10796373Y-12459888D02*
X10786849Y-12440841D01*
X10786849Y-12440841D02*
X10767801Y-12431317D01*
X10767801Y-12431317D02*
X10739230Y-12431317D01*
X10739230Y-12431317D02*
X10720182Y-12421793D01*
X10720182Y-12421793D02*
X10710658Y-12402746D01*
X10710658Y-12402746D02*
X10710658Y-12393222D01*
X10710658Y-12393222D02*
X10720182Y-12374174D01*
X10720182Y-12374174D02*
X10739230Y-12364650D01*
X10739230Y-12364650D02*
X10767801Y-12364650D01*
X10767801Y-12364650D02*
X10786849Y-12374174D01*
X10863039Y-12574174D02*
X10872563Y-12564650D01*
X10872563Y-12564650D02*
X10891611Y-12536079D01*
X10891611Y-12536079D02*
X10901134Y-12517031D01*
X10901134Y-12517031D02*
X10910658Y-12488460D01*
X10910658Y-12488460D02*
X10920182Y-12440841D01*
X10920182Y-12440841D02*
X10920182Y-12402746D01*
X10920182Y-12402746D02*
X10910658Y-12355127D01*
X10910658Y-12355127D02*
X10901134Y-12326555D01*
X10901134Y-12326555D02*
X10891611Y-12307508D01*
X10891611Y-12307508D02*
X10872563Y-12278936D01*
X10872563Y-12278936D02*
X10863039Y-12269412D01*
D12*
X5850000Y-12623000D02*
X5850000Y-12718000D01*
X5802500Y-12670500D02*
X5897500Y-12670500D01*
D11*
X6196372Y-12561984D02*
X6215420Y-12561984D01*
X6215420Y-12561984D02*
X6234467Y-12571508D01*
X6234467Y-12571508D02*
X6243991Y-12581031D01*
X6243991Y-12581031D02*
X6253515Y-12600079D01*
X6253515Y-12600079D02*
X6263039Y-12638174D01*
X6263039Y-12638174D02*
X6263039Y-12685793D01*
X6263039Y-12685793D02*
X6253515Y-12723888D01*
X6253515Y-12723888D02*
X6243991Y-12742936D01*
X6243991Y-12742936D02*
X6234467Y-12752460D01*
X6234467Y-12752460D02*
X6215420Y-12761984D01*
X6215420Y-12761984D02*
X6196372Y-12761984D01*
X6196372Y-12761984D02*
X6177324Y-12752460D01*
X6177324Y-12752460D02*
X6167801Y-12742936D01*
X6167801Y-12742936D02*
X6158277Y-12723888D01*
X6158277Y-12723888D02*
X6148753Y-12685793D01*
X6148753Y-12685793D02*
X6148753Y-12638174D01*
X6148753Y-12638174D02*
X6158277Y-12600079D01*
X6158277Y-12600079D02*
X6167801Y-12581031D01*
X6167801Y-12581031D02*
X6177324Y-12571508D01*
X6177324Y-12571508D02*
X6196372Y-12561984D01*
X6348753Y-12742936D02*
X6358277Y-12752460D01*
X6358277Y-12752460D02*
X6348753Y-12761984D01*
X6348753Y-12761984D02*
X6339229Y-12752460D01*
X6339229Y-12752460D02*
X6348753Y-12742936D01*
X6348753Y-12742936D02*
X6348753Y-12761984D01*
X6453515Y-12761984D02*
X6491610Y-12761984D01*
X6491610Y-12761984D02*
X6510658Y-12752460D01*
X6510658Y-12752460D02*
X6520182Y-12742936D01*
X6520182Y-12742936D02*
X6539229Y-12714365D01*
X6539229Y-12714365D02*
X6548753Y-12676269D01*
X6548753Y-12676269D02*
X6548753Y-12600079D01*
X6548753Y-12600079D02*
X6539229Y-12581031D01*
X6539229Y-12581031D02*
X6529705Y-12571508D01*
X6529705Y-12571508D02*
X6510658Y-12561984D01*
X6510658Y-12561984D02*
X6472562Y-12561984D01*
X6472562Y-12561984D02*
X6453515Y-12571508D01*
X6453515Y-12571508D02*
X6443991Y-12581031D01*
X6443991Y-12581031D02*
X6434467Y-12600079D01*
X6434467Y-12600079D02*
X6434467Y-12647698D01*
X6434467Y-12647698D02*
X6443991Y-12666746D01*
X6443991Y-12666746D02*
X6453515Y-12676269D01*
X6453515Y-12676269D02*
X6472562Y-12685793D01*
X6472562Y-12685793D02*
X6510658Y-12685793D01*
X6510658Y-12685793D02*
X6529705Y-12676269D01*
X6529705Y-12676269D02*
X6539229Y-12666746D01*
X6539229Y-12666746D02*
X6548753Y-12647698D01*
X6729705Y-12561984D02*
X6634467Y-12561984D01*
X6634467Y-12561984D02*
X6624943Y-12657222D01*
X6624943Y-12657222D02*
X6634467Y-12647698D01*
X6634467Y-12647698D02*
X6653515Y-12638174D01*
X6653515Y-12638174D02*
X6701134Y-12638174D01*
X6701134Y-12638174D02*
X6720182Y-12647698D01*
X6720182Y-12647698D02*
X6729705Y-12657222D01*
X6729705Y-12657222D02*
X6739229Y-12676269D01*
X6739229Y-12676269D02*
X6739229Y-12723888D01*
X6739229Y-12723888D02*
X6729705Y-12742936D01*
X6729705Y-12742936D02*
X6720182Y-12752460D01*
X6720182Y-12752460D02*
X6701134Y-12761984D01*
X6701134Y-12761984D02*
X6653515Y-12761984D01*
X6653515Y-12761984D02*
X6634467Y-12752460D01*
X6634467Y-12752460D02*
X6624943Y-12742936D01*
X6863039Y-12561984D02*
X6882086Y-12561984D01*
X6882086Y-12561984D02*
X6901134Y-12571508D01*
X6901134Y-12571508D02*
X6910658Y-12581031D01*
X6910658Y-12581031D02*
X6920182Y-12600079D01*
X6920182Y-12600079D02*
X6929705Y-12638174D01*
X6929705Y-12638174D02*
X6929705Y-12685793D01*
X6929705Y-12685793D02*
X6920182Y-12723888D01*
X6920182Y-12723888D02*
X6910658Y-12742936D01*
X6910658Y-12742936D02*
X6901134Y-12752460D01*
X6901134Y-12752460D02*
X6882086Y-12761984D01*
X6882086Y-12761984D02*
X6863039Y-12761984D01*
X6863039Y-12761984D02*
X6843991Y-12752460D01*
X6843991Y-12752460D02*
X6834467Y-12742936D01*
X6834467Y-12742936D02*
X6824943Y-12723888D01*
X6824943Y-12723888D02*
X6815420Y-12685793D01*
X6815420Y-12685793D02*
X6815420Y-12638174D01*
X6815420Y-12638174D02*
X6824943Y-12600079D01*
X6824943Y-12600079D02*
X6834467Y-12581031D01*
X6834467Y-12581031D02*
X6843991Y-12571508D01*
X6843991Y-12571508D02*
X6863039Y-12561984D01*
X7015420Y-12761984D02*
X7015420Y-12628650D01*
X7015420Y-12647698D02*
X7024943Y-12638174D01*
X7024943Y-12638174D02*
X7043991Y-12628650D01*
X7043991Y-12628650D02*
X7072563Y-12628650D01*
X7072563Y-12628650D02*
X7091610Y-12638174D01*
X7091610Y-12638174D02*
X7101134Y-12657222D01*
X7101134Y-12657222D02*
X7101134Y-12761984D01*
X7101134Y-12657222D02*
X7110658Y-12638174D01*
X7110658Y-12638174D02*
X7129705Y-12628650D01*
X7129705Y-12628650D02*
X7158277Y-12628650D01*
X7158277Y-12628650D02*
X7177324Y-12638174D01*
X7177324Y-12638174D02*
X7186848Y-12657222D01*
X7186848Y-12657222D02*
X7186848Y-12761984D01*
X7282086Y-12761984D02*
X7282086Y-12628650D01*
X7282086Y-12647698D02*
X7291610Y-12638174D01*
X7291610Y-12638174D02*
X7310658Y-12628650D01*
X7310658Y-12628650D02*
X7339229Y-12628650D01*
X7339229Y-12628650D02*
X7358277Y-12638174D01*
X7358277Y-12638174D02*
X7367801Y-12657222D01*
X7367801Y-12657222D02*
X7367801Y-12761984D01*
X7367801Y-12657222D02*
X7377324Y-12638174D01*
X7377324Y-12638174D02*
X7396372Y-12628650D01*
X7396372Y-12628650D02*
X7424943Y-12628650D01*
X7424943Y-12628650D02*
X7443991Y-12638174D01*
X7443991Y-12638174D02*
X7453515Y-12657222D01*
X7453515Y-12657222D02*
X7453515Y-12761984D01*
X7843991Y-12552460D02*
X7672563Y-12809603D01*
X8101134Y-12561984D02*
X8120182Y-12561984D01*
X8120182Y-12561984D02*
X8139229Y-12571508D01*
X8139229Y-12571508D02*
X8148753Y-12581031D01*
X8148753Y-12581031D02*
X8158277Y-12600079D01*
X8158277Y-12600079D02*
X8167801Y-12638174D01*
X8167801Y-12638174D02*
X8167801Y-12685793D01*
X8167801Y-12685793D02*
X8158277Y-12723888D01*
X8158277Y-12723888D02*
X8148753Y-12742936D01*
X8148753Y-12742936D02*
X8139229Y-12752460D01*
X8139229Y-12752460D02*
X8120182Y-12761984D01*
X8120182Y-12761984D02*
X8101134Y-12761984D01*
X8101134Y-12761984D02*
X8082086Y-12752460D01*
X8082086Y-12752460D02*
X8072563Y-12742936D01*
X8072563Y-12742936D02*
X8063039Y-12723888D01*
X8063039Y-12723888D02*
X8053515Y-12685793D01*
X8053515Y-12685793D02*
X8053515Y-12638174D01*
X8053515Y-12638174D02*
X8063039Y-12600079D01*
X8063039Y-12600079D02*
X8072563Y-12581031D01*
X8072563Y-12581031D02*
X8082086Y-12571508D01*
X8082086Y-12571508D02*
X8101134Y-12561984D01*
X8253515Y-12742936D02*
X8263039Y-12752460D01*
X8263039Y-12752460D02*
X8253515Y-12761984D01*
X8253515Y-12761984D02*
X8243991Y-12752460D01*
X8243991Y-12752460D02*
X8253515Y-12742936D01*
X8253515Y-12742936D02*
X8253515Y-12761984D01*
X8386848Y-12561984D02*
X8405896Y-12561984D01*
X8405896Y-12561984D02*
X8424944Y-12571508D01*
X8424944Y-12571508D02*
X8434468Y-12581031D01*
X8434468Y-12581031D02*
X8443991Y-12600079D01*
X8443991Y-12600079D02*
X8453515Y-12638174D01*
X8453515Y-12638174D02*
X8453515Y-12685793D01*
X8453515Y-12685793D02*
X8443991Y-12723888D01*
X8443991Y-12723888D02*
X8434468Y-12742936D01*
X8434468Y-12742936D02*
X8424944Y-12752460D01*
X8424944Y-12752460D02*
X8405896Y-12761984D01*
X8405896Y-12761984D02*
X8386848Y-12761984D01*
X8386848Y-12761984D02*
X8367801Y-12752460D01*
X8367801Y-12752460D02*
X8358277Y-12742936D01*
X8358277Y-12742936D02*
X8348753Y-12723888D01*
X8348753Y-12723888D02*
X8339229Y-12685793D01*
X8339229Y-12685793D02*
X8339229Y-12638174D01*
X8339229Y-12638174D02*
X8348753Y-12600079D01*
X8348753Y-12600079D02*
X8358277Y-12581031D01*
X8358277Y-12581031D02*
X8367801Y-12571508D01*
X8367801Y-12571508D02*
X8386848Y-12561984D01*
X8520182Y-12561984D02*
X8643991Y-12561984D01*
X8643991Y-12561984D02*
X8577325Y-12638174D01*
X8577325Y-12638174D02*
X8605896Y-12638174D01*
X8605896Y-12638174D02*
X8624944Y-12647698D01*
X8624944Y-12647698D02*
X8634468Y-12657222D01*
X8634468Y-12657222D02*
X8643991Y-12676269D01*
X8643991Y-12676269D02*
X8643991Y-12723888D01*
X8643991Y-12723888D02*
X8634468Y-12742936D01*
X8634468Y-12742936D02*
X8624944Y-12752460D01*
X8624944Y-12752460D02*
X8605896Y-12761984D01*
X8605896Y-12761984D02*
X8548753Y-12761984D01*
X8548753Y-12761984D02*
X8529706Y-12752460D01*
X8529706Y-12752460D02*
X8520182Y-12742936D01*
X8710658Y-12561984D02*
X8843991Y-12561984D01*
X8843991Y-12561984D02*
X8758277Y-12761984D01*
X9005896Y-12628650D02*
X9005896Y-12761984D01*
X8958277Y-12552460D02*
X8910658Y-12695317D01*
X8910658Y-12695317D02*
X9034468Y-12695317D01*
X9101134Y-12561984D02*
X9101134Y-12600079D01*
X9177325Y-12561984D02*
X9177325Y-12600079D01*
X9472563Y-12838174D02*
X9463039Y-12828650D01*
X9463039Y-12828650D02*
X9443991Y-12800079D01*
X9443991Y-12800079D02*
X9434468Y-12781031D01*
X9434468Y-12781031D02*
X9424944Y-12752460D01*
X9424944Y-12752460D02*
X9415420Y-12704841D01*
X9415420Y-12704841D02*
X9415420Y-12666746D01*
X9415420Y-12666746D02*
X9424944Y-12619127D01*
X9424944Y-12619127D02*
X9434468Y-12590555D01*
X9434468Y-12590555D02*
X9443991Y-12571508D01*
X9443991Y-12571508D02*
X9463039Y-12542936D01*
X9463039Y-12542936D02*
X9472563Y-12533412D01*
X9653515Y-12761984D02*
X9539230Y-12761984D01*
X9596372Y-12761984D02*
X9596372Y-12561984D01*
X9596372Y-12561984D02*
X9577325Y-12590555D01*
X9577325Y-12590555D02*
X9558277Y-12609603D01*
X9558277Y-12609603D02*
X9539230Y-12619127D01*
X9729706Y-12581031D02*
X9739230Y-12571508D01*
X9739230Y-12571508D02*
X9758277Y-12561984D01*
X9758277Y-12561984D02*
X9805896Y-12561984D01*
X9805896Y-12561984D02*
X9824944Y-12571508D01*
X9824944Y-12571508D02*
X9834468Y-12581031D01*
X9834468Y-12581031D02*
X9843991Y-12600079D01*
X9843991Y-12600079D02*
X9843991Y-12619127D01*
X9843991Y-12619127D02*
X9834468Y-12647698D01*
X9834468Y-12647698D02*
X9720182Y-12761984D01*
X9720182Y-12761984D02*
X9843991Y-12761984D01*
X10082087Y-12761984D02*
X10082087Y-12561984D01*
X10167801Y-12761984D02*
X10167801Y-12657222D01*
X10167801Y-12657222D02*
X10158277Y-12638174D01*
X10158277Y-12638174D02*
X10139230Y-12628650D01*
X10139230Y-12628650D02*
X10110658Y-12628650D01*
X10110658Y-12628650D02*
X10091611Y-12638174D01*
X10091611Y-12638174D02*
X10082087Y-12647698D01*
X10291611Y-12761984D02*
X10272563Y-12752460D01*
X10272563Y-12752460D02*
X10263039Y-12742936D01*
X10263039Y-12742936D02*
X10253515Y-12723888D01*
X10253515Y-12723888D02*
X10253515Y-12666746D01*
X10253515Y-12666746D02*
X10263039Y-12647698D01*
X10263039Y-12647698D02*
X10272563Y-12638174D01*
X10272563Y-12638174D02*
X10291611Y-12628650D01*
X10291611Y-12628650D02*
X10320182Y-12628650D01*
X10320182Y-12628650D02*
X10339230Y-12638174D01*
X10339230Y-12638174D02*
X10348753Y-12647698D01*
X10348753Y-12647698D02*
X10358277Y-12666746D01*
X10358277Y-12666746D02*
X10358277Y-12723888D01*
X10358277Y-12723888D02*
X10348753Y-12742936D01*
X10348753Y-12742936D02*
X10339230Y-12752460D01*
X10339230Y-12752460D02*
X10320182Y-12761984D01*
X10320182Y-12761984D02*
X10291611Y-12761984D01*
X10472563Y-12761984D02*
X10453515Y-12752460D01*
X10453515Y-12752460D02*
X10443992Y-12733412D01*
X10443992Y-12733412D02*
X10443992Y-12561984D01*
X10624944Y-12752460D02*
X10605896Y-12761984D01*
X10605896Y-12761984D02*
X10567801Y-12761984D01*
X10567801Y-12761984D02*
X10548753Y-12752460D01*
X10548753Y-12752460D02*
X10539230Y-12733412D01*
X10539230Y-12733412D02*
X10539230Y-12657222D01*
X10539230Y-12657222D02*
X10548753Y-12638174D01*
X10548753Y-12638174D02*
X10567801Y-12628650D01*
X10567801Y-12628650D02*
X10605896Y-12628650D01*
X10605896Y-12628650D02*
X10624944Y-12638174D01*
X10624944Y-12638174D02*
X10634468Y-12657222D01*
X10634468Y-12657222D02*
X10634468Y-12676269D01*
X10634468Y-12676269D02*
X10539230Y-12695317D01*
X10710658Y-12752460D02*
X10729706Y-12761984D01*
X10729706Y-12761984D02*
X10767801Y-12761984D01*
X10767801Y-12761984D02*
X10786849Y-12752460D01*
X10786849Y-12752460D02*
X10796373Y-12733412D01*
X10796373Y-12733412D02*
X10796373Y-12723888D01*
X10796373Y-12723888D02*
X10786849Y-12704841D01*
X10786849Y-12704841D02*
X10767801Y-12695317D01*
X10767801Y-12695317D02*
X10739230Y-12695317D01*
X10739230Y-12695317D02*
X10720182Y-12685793D01*
X10720182Y-12685793D02*
X10710658Y-12666746D01*
X10710658Y-12666746D02*
X10710658Y-12657222D01*
X10710658Y-12657222D02*
X10720182Y-12638174D01*
X10720182Y-12638174D02*
X10739230Y-12628650D01*
X10739230Y-12628650D02*
X10767801Y-12628650D01*
X10767801Y-12628650D02*
X10786849Y-12638174D01*
X10863039Y-12838174D02*
X10872563Y-12828650D01*
X10872563Y-12828650D02*
X10891611Y-12800079D01*
X10891611Y-12800079D02*
X10901134Y-12781031D01*
X10901134Y-12781031D02*
X10910658Y-12752460D01*
X10910658Y-12752460D02*
X10920182Y-12704841D01*
X10920182Y-12704841D02*
X10920182Y-12666746D01*
X10920182Y-12666746D02*
X10910658Y-12619127D01*
X10910658Y-12619127D02*
X10901134Y-12590555D01*
X10901134Y-12590555D02*
X10891611Y-12571508D01*
X10891611Y-12571508D02*
X10872563Y-12542936D01*
X10872563Y-12542936D02*
X10863039Y-12533412D01*
D12*
X5882856Y-12969856D02*
X5882856Y-12899144D01*
X5812144Y-12899144D01*
X5812144Y-12969856D01*
X5882856Y-12969856D01*
D11*
X6263039Y-13025984D02*
X6148753Y-13025984D01*
X6205896Y-13025984D02*
X6205896Y-12825984D01*
X6205896Y-12825984D02*
X6186848Y-12854555D01*
X6186848Y-12854555D02*
X6167801Y-12873603D01*
X6167801Y-12873603D02*
X6148753Y-12883127D01*
X6348753Y-13006936D02*
X6358277Y-13016460D01*
X6358277Y-13016460D02*
X6348753Y-13025984D01*
X6348753Y-13025984D02*
X6339229Y-13016460D01*
X6339229Y-13016460D02*
X6348753Y-13006936D01*
X6348753Y-13006936D02*
X6348753Y-13025984D01*
X6482086Y-12825984D02*
X6501134Y-12825984D01*
X6501134Y-12825984D02*
X6520182Y-12835508D01*
X6520182Y-12835508D02*
X6529705Y-12845031D01*
X6529705Y-12845031D02*
X6539229Y-12864079D01*
X6539229Y-12864079D02*
X6548753Y-12902174D01*
X6548753Y-12902174D02*
X6548753Y-12949793D01*
X6548753Y-12949793D02*
X6539229Y-12987888D01*
X6539229Y-12987888D02*
X6529705Y-13006936D01*
X6529705Y-13006936D02*
X6520182Y-13016460D01*
X6520182Y-13016460D02*
X6501134Y-13025984D01*
X6501134Y-13025984D02*
X6482086Y-13025984D01*
X6482086Y-13025984D02*
X6463039Y-13016460D01*
X6463039Y-13016460D02*
X6453515Y-13006936D01*
X6453515Y-13006936D02*
X6443991Y-12987888D01*
X6443991Y-12987888D02*
X6434467Y-12949793D01*
X6434467Y-12949793D02*
X6434467Y-12902174D01*
X6434467Y-12902174D02*
X6443991Y-12864079D01*
X6443991Y-12864079D02*
X6453515Y-12845031D01*
X6453515Y-12845031D02*
X6463039Y-12835508D01*
X6463039Y-12835508D02*
X6482086Y-12825984D01*
X6672562Y-12825984D02*
X6691610Y-12825984D01*
X6691610Y-12825984D02*
X6710658Y-12835508D01*
X6710658Y-12835508D02*
X6720182Y-12845031D01*
X6720182Y-12845031D02*
X6729705Y-12864079D01*
X6729705Y-12864079D02*
X6739229Y-12902174D01*
X6739229Y-12902174D02*
X6739229Y-12949793D01*
X6739229Y-12949793D02*
X6729705Y-12987888D01*
X6729705Y-12987888D02*
X6720182Y-13006936D01*
X6720182Y-13006936D02*
X6710658Y-13016460D01*
X6710658Y-13016460D02*
X6691610Y-13025984D01*
X6691610Y-13025984D02*
X6672562Y-13025984D01*
X6672562Y-13025984D02*
X6653515Y-13016460D01*
X6653515Y-13016460D02*
X6643991Y-13006936D01*
X6643991Y-13006936D02*
X6634467Y-12987888D01*
X6634467Y-12987888D02*
X6624943Y-12949793D01*
X6624943Y-12949793D02*
X6624943Y-12902174D01*
X6624943Y-12902174D02*
X6634467Y-12864079D01*
X6634467Y-12864079D02*
X6643991Y-12845031D01*
X6643991Y-12845031D02*
X6653515Y-12835508D01*
X6653515Y-12835508D02*
X6672562Y-12825984D01*
X6863039Y-12825984D02*
X6882086Y-12825984D01*
X6882086Y-12825984D02*
X6901134Y-12835508D01*
X6901134Y-12835508D02*
X6910658Y-12845031D01*
X6910658Y-12845031D02*
X6920182Y-12864079D01*
X6920182Y-12864079D02*
X6929705Y-12902174D01*
X6929705Y-12902174D02*
X6929705Y-12949793D01*
X6929705Y-12949793D02*
X6920182Y-12987888D01*
X6920182Y-12987888D02*
X6910658Y-13006936D01*
X6910658Y-13006936D02*
X6901134Y-13016460D01*
X6901134Y-13016460D02*
X6882086Y-13025984D01*
X6882086Y-13025984D02*
X6863039Y-13025984D01*
X6863039Y-13025984D02*
X6843991Y-13016460D01*
X6843991Y-13016460D02*
X6834467Y-13006936D01*
X6834467Y-13006936D02*
X6824943Y-12987888D01*
X6824943Y-12987888D02*
X6815420Y-12949793D01*
X6815420Y-12949793D02*
X6815420Y-12902174D01*
X6815420Y-12902174D02*
X6824943Y-12864079D01*
X6824943Y-12864079D02*
X6834467Y-12845031D01*
X6834467Y-12845031D02*
X6843991Y-12835508D01*
X6843991Y-12835508D02*
X6863039Y-12825984D01*
X7015420Y-13025984D02*
X7015420Y-12892650D01*
X7015420Y-12911698D02*
X7024943Y-12902174D01*
X7024943Y-12902174D02*
X7043991Y-12892650D01*
X7043991Y-12892650D02*
X7072563Y-12892650D01*
X7072563Y-12892650D02*
X7091610Y-12902174D01*
X7091610Y-12902174D02*
X7101134Y-12921222D01*
X7101134Y-12921222D02*
X7101134Y-13025984D01*
X7101134Y-12921222D02*
X7110658Y-12902174D01*
X7110658Y-12902174D02*
X7129705Y-12892650D01*
X7129705Y-12892650D02*
X7158277Y-12892650D01*
X7158277Y-12892650D02*
X7177324Y-12902174D01*
X7177324Y-12902174D02*
X7186848Y-12921222D01*
X7186848Y-12921222D02*
X7186848Y-13025984D01*
X7282086Y-13025984D02*
X7282086Y-12892650D01*
X7282086Y-12911698D02*
X7291610Y-12902174D01*
X7291610Y-12902174D02*
X7310658Y-12892650D01*
X7310658Y-12892650D02*
X7339229Y-12892650D01*
X7339229Y-12892650D02*
X7358277Y-12902174D01*
X7358277Y-12902174D02*
X7367801Y-12921222D01*
X7367801Y-12921222D02*
X7367801Y-13025984D01*
X7367801Y-12921222D02*
X7377324Y-12902174D01*
X7377324Y-12902174D02*
X7396372Y-12892650D01*
X7396372Y-12892650D02*
X7424943Y-12892650D01*
X7424943Y-12892650D02*
X7443991Y-12902174D01*
X7443991Y-12902174D02*
X7453515Y-12921222D01*
X7453515Y-12921222D02*
X7453515Y-13025984D01*
X7843991Y-12816460D02*
X7672563Y-13073603D01*
X8101134Y-12825984D02*
X8120182Y-12825984D01*
X8120182Y-12825984D02*
X8139229Y-12835508D01*
X8139229Y-12835508D02*
X8148753Y-12845031D01*
X8148753Y-12845031D02*
X8158277Y-12864079D01*
X8158277Y-12864079D02*
X8167801Y-12902174D01*
X8167801Y-12902174D02*
X8167801Y-12949793D01*
X8167801Y-12949793D02*
X8158277Y-12987888D01*
X8158277Y-12987888D02*
X8148753Y-13006936D01*
X8148753Y-13006936D02*
X8139229Y-13016460D01*
X8139229Y-13016460D02*
X8120182Y-13025984D01*
X8120182Y-13025984D02*
X8101134Y-13025984D01*
X8101134Y-13025984D02*
X8082086Y-13016460D01*
X8082086Y-13016460D02*
X8072563Y-13006936D01*
X8072563Y-13006936D02*
X8063039Y-12987888D01*
X8063039Y-12987888D02*
X8053515Y-12949793D01*
X8053515Y-12949793D02*
X8053515Y-12902174D01*
X8053515Y-12902174D02*
X8063039Y-12864079D01*
X8063039Y-12864079D02*
X8072563Y-12845031D01*
X8072563Y-12845031D02*
X8082086Y-12835508D01*
X8082086Y-12835508D02*
X8101134Y-12825984D01*
X8253515Y-13006936D02*
X8263039Y-13016460D01*
X8263039Y-13016460D02*
X8253515Y-13025984D01*
X8253515Y-13025984D02*
X8243991Y-13016460D01*
X8243991Y-13016460D02*
X8253515Y-13006936D01*
X8253515Y-13006936D02*
X8253515Y-13025984D01*
X8386848Y-12825984D02*
X8405896Y-12825984D01*
X8405896Y-12825984D02*
X8424944Y-12835508D01*
X8424944Y-12835508D02*
X8434468Y-12845031D01*
X8434468Y-12845031D02*
X8443991Y-12864079D01*
X8443991Y-12864079D02*
X8453515Y-12902174D01*
X8453515Y-12902174D02*
X8453515Y-12949793D01*
X8453515Y-12949793D02*
X8443991Y-12987888D01*
X8443991Y-12987888D02*
X8434468Y-13006936D01*
X8434468Y-13006936D02*
X8424944Y-13016460D01*
X8424944Y-13016460D02*
X8405896Y-13025984D01*
X8405896Y-13025984D02*
X8386848Y-13025984D01*
X8386848Y-13025984D02*
X8367801Y-13016460D01*
X8367801Y-13016460D02*
X8358277Y-13006936D01*
X8358277Y-13006936D02*
X8348753Y-12987888D01*
X8348753Y-12987888D02*
X8339229Y-12949793D01*
X8339229Y-12949793D02*
X8339229Y-12902174D01*
X8339229Y-12902174D02*
X8348753Y-12864079D01*
X8348753Y-12864079D02*
X8358277Y-12845031D01*
X8358277Y-12845031D02*
X8367801Y-12835508D01*
X8367801Y-12835508D02*
X8386848Y-12825984D01*
X8520182Y-12825984D02*
X8643991Y-12825984D01*
X8643991Y-12825984D02*
X8577325Y-12902174D01*
X8577325Y-12902174D02*
X8605896Y-12902174D01*
X8605896Y-12902174D02*
X8624944Y-12911698D01*
X8624944Y-12911698D02*
X8634468Y-12921222D01*
X8634468Y-12921222D02*
X8643991Y-12940269D01*
X8643991Y-12940269D02*
X8643991Y-12987888D01*
X8643991Y-12987888D02*
X8634468Y-13006936D01*
X8634468Y-13006936D02*
X8624944Y-13016460D01*
X8624944Y-13016460D02*
X8605896Y-13025984D01*
X8605896Y-13025984D02*
X8548753Y-13025984D01*
X8548753Y-13025984D02*
X8529706Y-13016460D01*
X8529706Y-13016460D02*
X8520182Y-13006936D01*
X8739229Y-13025984D02*
X8777325Y-13025984D01*
X8777325Y-13025984D02*
X8796372Y-13016460D01*
X8796372Y-13016460D02*
X8805896Y-13006936D01*
X8805896Y-13006936D02*
X8824944Y-12978365D01*
X8824944Y-12978365D02*
X8834468Y-12940269D01*
X8834468Y-12940269D02*
X8834468Y-12864079D01*
X8834468Y-12864079D02*
X8824944Y-12845031D01*
X8824944Y-12845031D02*
X8815420Y-12835508D01*
X8815420Y-12835508D02*
X8796372Y-12825984D01*
X8796372Y-12825984D02*
X8758277Y-12825984D01*
X8758277Y-12825984D02*
X8739229Y-12835508D01*
X8739229Y-12835508D02*
X8729706Y-12845031D01*
X8729706Y-12845031D02*
X8720182Y-12864079D01*
X8720182Y-12864079D02*
X8720182Y-12911698D01*
X8720182Y-12911698D02*
X8729706Y-12930746D01*
X8729706Y-12930746D02*
X8739229Y-12940269D01*
X8739229Y-12940269D02*
X8758277Y-12949793D01*
X8758277Y-12949793D02*
X8796372Y-12949793D01*
X8796372Y-12949793D02*
X8815420Y-12940269D01*
X8815420Y-12940269D02*
X8824944Y-12930746D01*
X8824944Y-12930746D02*
X8834468Y-12911698D01*
X9005896Y-12892650D02*
X9005896Y-13025984D01*
X8958277Y-12816460D02*
X8910658Y-12959317D01*
X8910658Y-12959317D02*
X9034468Y-12959317D01*
X9101134Y-12825984D02*
X9101134Y-12864079D01*
X9177325Y-12825984D02*
X9177325Y-12864079D01*
X9472563Y-13102174D02*
X9463039Y-13092650D01*
X9463039Y-13092650D02*
X9443991Y-13064079D01*
X9443991Y-13064079D02*
X9434468Y-13045031D01*
X9434468Y-13045031D02*
X9424944Y-13016460D01*
X9424944Y-13016460D02*
X9415420Y-12968841D01*
X9415420Y-12968841D02*
X9415420Y-12930746D01*
X9415420Y-12930746D02*
X9424944Y-12883127D01*
X9424944Y-12883127D02*
X9434468Y-12854555D01*
X9434468Y-12854555D02*
X9443991Y-12835508D01*
X9443991Y-12835508D02*
X9463039Y-12806936D01*
X9463039Y-12806936D02*
X9472563Y-12797412D01*
X9577325Y-12911698D02*
X9558277Y-12902174D01*
X9558277Y-12902174D02*
X9548753Y-12892650D01*
X9548753Y-12892650D02*
X9539230Y-12873603D01*
X9539230Y-12873603D02*
X9539230Y-12864079D01*
X9539230Y-12864079D02*
X9548753Y-12845031D01*
X9548753Y-12845031D02*
X9558277Y-12835508D01*
X9558277Y-12835508D02*
X9577325Y-12825984D01*
X9577325Y-12825984D02*
X9615420Y-12825984D01*
X9615420Y-12825984D02*
X9634468Y-12835508D01*
X9634468Y-12835508D02*
X9643991Y-12845031D01*
X9643991Y-12845031D02*
X9653515Y-12864079D01*
X9653515Y-12864079D02*
X9653515Y-12873603D01*
X9653515Y-12873603D02*
X9643991Y-12892650D01*
X9643991Y-12892650D02*
X9634468Y-12902174D01*
X9634468Y-12902174D02*
X9615420Y-12911698D01*
X9615420Y-12911698D02*
X9577325Y-12911698D01*
X9577325Y-12911698D02*
X9558277Y-12921222D01*
X9558277Y-12921222D02*
X9548753Y-12930746D01*
X9548753Y-12930746D02*
X9539230Y-12949793D01*
X9539230Y-12949793D02*
X9539230Y-12987888D01*
X9539230Y-12987888D02*
X9548753Y-13006936D01*
X9548753Y-13006936D02*
X9558277Y-13016460D01*
X9558277Y-13016460D02*
X9577325Y-13025984D01*
X9577325Y-13025984D02*
X9615420Y-13025984D01*
X9615420Y-13025984D02*
X9634468Y-13016460D01*
X9634468Y-13016460D02*
X9643991Y-13006936D01*
X9643991Y-13006936D02*
X9653515Y-12987888D01*
X9653515Y-12987888D02*
X9653515Y-12949793D01*
X9653515Y-12949793D02*
X9643991Y-12930746D01*
X9643991Y-12930746D02*
X9634468Y-12921222D01*
X9634468Y-12921222D02*
X9615420Y-12911698D01*
X9720182Y-12825984D02*
X9853515Y-12825984D01*
X9853515Y-12825984D02*
X9767801Y-13025984D01*
X10082087Y-13025984D02*
X10082087Y-12825984D01*
X10167801Y-13025984D02*
X10167801Y-12921222D01*
X10167801Y-12921222D02*
X10158277Y-12902174D01*
X10158277Y-12902174D02*
X10139230Y-12892650D01*
X10139230Y-12892650D02*
X10110658Y-12892650D01*
X10110658Y-12892650D02*
X10091611Y-12902174D01*
X10091611Y-12902174D02*
X10082087Y-12911698D01*
X10291611Y-13025984D02*
X10272563Y-13016460D01*
X10272563Y-13016460D02*
X10263039Y-13006936D01*
X10263039Y-13006936D02*
X10253515Y-12987888D01*
X10253515Y-12987888D02*
X10253515Y-12930746D01*
X10253515Y-12930746D02*
X10263039Y-12911698D01*
X10263039Y-12911698D02*
X10272563Y-12902174D01*
X10272563Y-12902174D02*
X10291611Y-12892650D01*
X10291611Y-12892650D02*
X10320182Y-12892650D01*
X10320182Y-12892650D02*
X10339230Y-12902174D01*
X10339230Y-12902174D02*
X10348753Y-12911698D01*
X10348753Y-12911698D02*
X10358277Y-12930746D01*
X10358277Y-12930746D02*
X10358277Y-12987888D01*
X10358277Y-12987888D02*
X10348753Y-13006936D01*
X10348753Y-13006936D02*
X10339230Y-13016460D01*
X10339230Y-13016460D02*
X10320182Y-13025984D01*
X10320182Y-13025984D02*
X10291611Y-13025984D01*
X10472563Y-13025984D02*
X10453515Y-13016460D01*
X10453515Y-13016460D02*
X10443992Y-12997412D01*
X10443992Y-12997412D02*
X10443992Y-12825984D01*
X10624944Y-13016460D02*
X10605896Y-13025984D01*
X10605896Y-13025984D02*
X10567801Y-13025984D01*
X10567801Y-13025984D02*
X10548753Y-13016460D01*
X10548753Y-13016460D02*
X10539230Y-12997412D01*
X10539230Y-12997412D02*
X10539230Y-12921222D01*
X10539230Y-12921222D02*
X10548753Y-12902174D01*
X10548753Y-12902174D02*
X10567801Y-12892650D01*
X10567801Y-12892650D02*
X10605896Y-12892650D01*
X10605896Y-12892650D02*
X10624944Y-12902174D01*
X10624944Y-12902174D02*
X10634468Y-12921222D01*
X10634468Y-12921222D02*
X10634468Y-12940269D01*
X10634468Y-12940269D02*
X10539230Y-12959317D01*
X10710658Y-13016460D02*
X10729706Y-13025984D01*
X10729706Y-13025984D02*
X10767801Y-13025984D01*
X10767801Y-13025984D02*
X10786849Y-13016460D01*
X10786849Y-13016460D02*
X10796373Y-12997412D01*
X10796373Y-12997412D02*
X10796373Y-12987888D01*
X10796373Y-12987888D02*
X10786849Y-12968841D01*
X10786849Y-12968841D02*
X10767801Y-12959317D01*
X10767801Y-12959317D02*
X10739230Y-12959317D01*
X10739230Y-12959317D02*
X10720182Y-12949793D01*
X10720182Y-12949793D02*
X10710658Y-12930746D01*
X10710658Y-12930746D02*
X10710658Y-12921222D01*
X10710658Y-12921222D02*
X10720182Y-12902174D01*
X10720182Y-12902174D02*
X10739230Y-12892650D01*
X10739230Y-12892650D02*
X10767801Y-12892650D01*
X10767801Y-12892650D02*
X10786849Y-12902174D01*
X10863039Y-13102174D02*
X10872563Y-13092650D01*
X10872563Y-13092650D02*
X10891611Y-13064079D01*
X10891611Y-13064079D02*
X10901134Y-13045031D01*
X10901134Y-13045031D02*
X10910658Y-13016460D01*
X10910658Y-13016460D02*
X10920182Y-12968841D01*
X10920182Y-12968841D02*
X10920182Y-12930746D01*
X10920182Y-12930746D02*
X10910658Y-12883127D01*
X10910658Y-12883127D02*
X10901134Y-12854555D01*
X10901134Y-12854555D02*
X10891611Y-12835508D01*
X10891611Y-12835508D02*
X10872563Y-12806936D01*
X10872563Y-12806936D02*
X10863039Y-12797412D01*
X5797500Y-13298500D02*
X5897500Y-13198500D01*
X5797500Y-13098500D01*
X5697500Y-13198500D01*
X5797500Y-13298500D01*
X6139229Y-13089984D02*
X6263039Y-13089984D01*
X6263039Y-13089984D02*
X6196372Y-13166174D01*
X6196372Y-13166174D02*
X6224943Y-13166174D01*
X6224943Y-13166174D02*
X6243991Y-13175698D01*
X6243991Y-13175698D02*
X6253515Y-13185222D01*
X6253515Y-13185222D02*
X6263039Y-13204269D01*
X6263039Y-13204269D02*
X6263039Y-13251888D01*
X6263039Y-13251888D02*
X6253515Y-13270936D01*
X6253515Y-13270936D02*
X6243991Y-13280460D01*
X6243991Y-13280460D02*
X6224943Y-13289984D01*
X6224943Y-13289984D02*
X6167801Y-13289984D01*
X6167801Y-13289984D02*
X6148753Y-13280460D01*
X6148753Y-13280460D02*
X6139229Y-13270936D01*
X6348753Y-13270936D02*
X6358277Y-13280460D01*
X6358277Y-13280460D02*
X6348753Y-13289984D01*
X6348753Y-13289984D02*
X6339229Y-13280460D01*
X6339229Y-13280460D02*
X6348753Y-13270936D01*
X6348753Y-13270936D02*
X6348753Y-13289984D01*
X6434467Y-13109031D02*
X6443991Y-13099508D01*
X6443991Y-13099508D02*
X6463039Y-13089984D01*
X6463039Y-13089984D02*
X6510658Y-13089984D01*
X6510658Y-13089984D02*
X6529705Y-13099508D01*
X6529705Y-13099508D02*
X6539229Y-13109031D01*
X6539229Y-13109031D02*
X6548753Y-13128079D01*
X6548753Y-13128079D02*
X6548753Y-13147127D01*
X6548753Y-13147127D02*
X6539229Y-13175698D01*
X6539229Y-13175698D02*
X6424943Y-13289984D01*
X6424943Y-13289984D02*
X6548753Y-13289984D01*
X6672562Y-13089984D02*
X6691610Y-13089984D01*
X6691610Y-13089984D02*
X6710658Y-13099508D01*
X6710658Y-13099508D02*
X6720182Y-13109031D01*
X6720182Y-13109031D02*
X6729705Y-13128079D01*
X6729705Y-13128079D02*
X6739229Y-13166174D01*
X6739229Y-13166174D02*
X6739229Y-13213793D01*
X6739229Y-13213793D02*
X6729705Y-13251888D01*
X6729705Y-13251888D02*
X6720182Y-13270936D01*
X6720182Y-13270936D02*
X6710658Y-13280460D01*
X6710658Y-13280460D02*
X6691610Y-13289984D01*
X6691610Y-13289984D02*
X6672562Y-13289984D01*
X6672562Y-13289984D02*
X6653515Y-13280460D01*
X6653515Y-13280460D02*
X6643991Y-13270936D01*
X6643991Y-13270936D02*
X6634467Y-13251888D01*
X6634467Y-13251888D02*
X6624943Y-13213793D01*
X6624943Y-13213793D02*
X6624943Y-13166174D01*
X6624943Y-13166174D02*
X6634467Y-13128079D01*
X6634467Y-13128079D02*
X6643991Y-13109031D01*
X6643991Y-13109031D02*
X6653515Y-13099508D01*
X6653515Y-13099508D02*
X6672562Y-13089984D01*
X6863039Y-13089984D02*
X6882086Y-13089984D01*
X6882086Y-13089984D02*
X6901134Y-13099508D01*
X6901134Y-13099508D02*
X6910658Y-13109031D01*
X6910658Y-13109031D02*
X6920182Y-13128079D01*
X6920182Y-13128079D02*
X6929705Y-13166174D01*
X6929705Y-13166174D02*
X6929705Y-13213793D01*
X6929705Y-13213793D02*
X6920182Y-13251888D01*
X6920182Y-13251888D02*
X6910658Y-13270936D01*
X6910658Y-13270936D02*
X6901134Y-13280460D01*
X6901134Y-13280460D02*
X6882086Y-13289984D01*
X6882086Y-13289984D02*
X6863039Y-13289984D01*
X6863039Y-13289984D02*
X6843991Y-13280460D01*
X6843991Y-13280460D02*
X6834467Y-13270936D01*
X6834467Y-13270936D02*
X6824943Y-13251888D01*
X6824943Y-13251888D02*
X6815420Y-13213793D01*
X6815420Y-13213793D02*
X6815420Y-13166174D01*
X6815420Y-13166174D02*
X6824943Y-13128079D01*
X6824943Y-13128079D02*
X6834467Y-13109031D01*
X6834467Y-13109031D02*
X6843991Y-13099508D01*
X6843991Y-13099508D02*
X6863039Y-13089984D01*
X7015420Y-13289984D02*
X7015420Y-13156650D01*
X7015420Y-13175698D02*
X7024943Y-13166174D01*
X7024943Y-13166174D02*
X7043991Y-13156650D01*
X7043991Y-13156650D02*
X7072563Y-13156650D01*
X7072563Y-13156650D02*
X7091610Y-13166174D01*
X7091610Y-13166174D02*
X7101134Y-13185222D01*
X7101134Y-13185222D02*
X7101134Y-13289984D01*
X7101134Y-13185222D02*
X7110658Y-13166174D01*
X7110658Y-13166174D02*
X7129705Y-13156650D01*
X7129705Y-13156650D02*
X7158277Y-13156650D01*
X7158277Y-13156650D02*
X7177324Y-13166174D01*
X7177324Y-13166174D02*
X7186848Y-13185222D01*
X7186848Y-13185222D02*
X7186848Y-13289984D01*
X7282086Y-13289984D02*
X7282086Y-13156650D01*
X7282086Y-13175698D02*
X7291610Y-13166174D01*
X7291610Y-13166174D02*
X7310658Y-13156650D01*
X7310658Y-13156650D02*
X7339229Y-13156650D01*
X7339229Y-13156650D02*
X7358277Y-13166174D01*
X7358277Y-13166174D02*
X7367801Y-13185222D01*
X7367801Y-13185222D02*
X7367801Y-13289984D01*
X7367801Y-13185222D02*
X7377324Y-13166174D01*
X7377324Y-13166174D02*
X7396372Y-13156650D01*
X7396372Y-13156650D02*
X7424943Y-13156650D01*
X7424943Y-13156650D02*
X7443991Y-13166174D01*
X7443991Y-13166174D02*
X7453515Y-13185222D01*
X7453515Y-13185222D02*
X7453515Y-13289984D01*
X7843991Y-13080460D02*
X7672563Y-13337603D01*
X8101134Y-13089984D02*
X8120182Y-13089984D01*
X8120182Y-13089984D02*
X8139229Y-13099508D01*
X8139229Y-13099508D02*
X8148753Y-13109031D01*
X8148753Y-13109031D02*
X8158277Y-13128079D01*
X8158277Y-13128079D02*
X8167801Y-13166174D01*
X8167801Y-13166174D02*
X8167801Y-13213793D01*
X8167801Y-13213793D02*
X8158277Y-13251888D01*
X8158277Y-13251888D02*
X8148753Y-13270936D01*
X8148753Y-13270936D02*
X8139229Y-13280460D01*
X8139229Y-13280460D02*
X8120182Y-13289984D01*
X8120182Y-13289984D02*
X8101134Y-13289984D01*
X8101134Y-13289984D02*
X8082086Y-13280460D01*
X8082086Y-13280460D02*
X8072563Y-13270936D01*
X8072563Y-13270936D02*
X8063039Y-13251888D01*
X8063039Y-13251888D02*
X8053515Y-13213793D01*
X8053515Y-13213793D02*
X8053515Y-13166174D01*
X8053515Y-13166174D02*
X8063039Y-13128079D01*
X8063039Y-13128079D02*
X8072563Y-13109031D01*
X8072563Y-13109031D02*
X8082086Y-13099508D01*
X8082086Y-13099508D02*
X8101134Y-13089984D01*
X8253515Y-13270936D02*
X8263039Y-13280460D01*
X8263039Y-13280460D02*
X8253515Y-13289984D01*
X8253515Y-13289984D02*
X8243991Y-13280460D01*
X8243991Y-13280460D02*
X8253515Y-13270936D01*
X8253515Y-13270936D02*
X8253515Y-13289984D01*
X8453515Y-13289984D02*
X8339229Y-13289984D01*
X8396372Y-13289984D02*
X8396372Y-13089984D01*
X8396372Y-13089984D02*
X8377325Y-13118555D01*
X8377325Y-13118555D02*
X8358277Y-13137603D01*
X8358277Y-13137603D02*
X8339229Y-13147127D01*
X8529706Y-13109031D02*
X8539229Y-13099508D01*
X8539229Y-13099508D02*
X8558277Y-13089984D01*
X8558277Y-13089984D02*
X8605896Y-13089984D01*
X8605896Y-13089984D02*
X8624944Y-13099508D01*
X8624944Y-13099508D02*
X8634468Y-13109031D01*
X8634468Y-13109031D02*
X8643991Y-13128079D01*
X8643991Y-13128079D02*
X8643991Y-13147127D01*
X8643991Y-13147127D02*
X8634468Y-13175698D01*
X8634468Y-13175698D02*
X8520182Y-13289984D01*
X8520182Y-13289984D02*
X8643991Y-13289984D01*
X8815420Y-13089984D02*
X8777325Y-13089984D01*
X8777325Y-13089984D02*
X8758277Y-13099508D01*
X8758277Y-13099508D02*
X8748753Y-13109031D01*
X8748753Y-13109031D02*
X8729706Y-13137603D01*
X8729706Y-13137603D02*
X8720182Y-13175698D01*
X8720182Y-13175698D02*
X8720182Y-13251888D01*
X8720182Y-13251888D02*
X8729706Y-13270936D01*
X8729706Y-13270936D02*
X8739229Y-13280460D01*
X8739229Y-13280460D02*
X8758277Y-13289984D01*
X8758277Y-13289984D02*
X8796372Y-13289984D01*
X8796372Y-13289984D02*
X8815420Y-13280460D01*
X8815420Y-13280460D02*
X8824944Y-13270936D01*
X8824944Y-13270936D02*
X8834468Y-13251888D01*
X8834468Y-13251888D02*
X8834468Y-13204269D01*
X8834468Y-13204269D02*
X8824944Y-13185222D01*
X8824944Y-13185222D02*
X8815420Y-13175698D01*
X8815420Y-13175698D02*
X8796372Y-13166174D01*
X8796372Y-13166174D02*
X8758277Y-13166174D01*
X8758277Y-13166174D02*
X8739229Y-13175698D01*
X8739229Y-13175698D02*
X8729706Y-13185222D01*
X8729706Y-13185222D02*
X8720182Y-13204269D01*
X8958277Y-13089984D02*
X8977325Y-13089984D01*
X8977325Y-13089984D02*
X8996372Y-13099508D01*
X8996372Y-13099508D02*
X9005896Y-13109031D01*
X9005896Y-13109031D02*
X9015420Y-13128079D01*
X9015420Y-13128079D02*
X9024944Y-13166174D01*
X9024944Y-13166174D02*
X9024944Y-13213793D01*
X9024944Y-13213793D02*
X9015420Y-13251888D01*
X9015420Y-13251888D02*
X9005896Y-13270936D01*
X9005896Y-13270936D02*
X8996372Y-13280460D01*
X8996372Y-13280460D02*
X8977325Y-13289984D01*
X8977325Y-13289984D02*
X8958277Y-13289984D01*
X8958277Y-13289984D02*
X8939229Y-13280460D01*
X8939229Y-13280460D02*
X8929706Y-13270936D01*
X8929706Y-13270936D02*
X8920182Y-13251888D01*
X8920182Y-13251888D02*
X8910658Y-13213793D01*
X8910658Y-13213793D02*
X8910658Y-13166174D01*
X8910658Y-13166174D02*
X8920182Y-13128079D01*
X8920182Y-13128079D02*
X8929706Y-13109031D01*
X8929706Y-13109031D02*
X8939229Y-13099508D01*
X8939229Y-13099508D02*
X8958277Y-13089984D01*
X9101134Y-13089984D02*
X9101134Y-13128079D01*
X9177325Y-13089984D02*
X9177325Y-13128079D01*
X9472563Y-13366174D02*
X9463039Y-13356650D01*
X9463039Y-13356650D02*
X9443991Y-13328079D01*
X9443991Y-13328079D02*
X9434468Y-13309031D01*
X9434468Y-13309031D02*
X9424944Y-13280460D01*
X9424944Y-13280460D02*
X9415420Y-13232841D01*
X9415420Y-13232841D02*
X9415420Y-13194746D01*
X9415420Y-13194746D02*
X9424944Y-13147127D01*
X9424944Y-13147127D02*
X9434468Y-13118555D01*
X9434468Y-13118555D02*
X9443991Y-13099508D01*
X9443991Y-13099508D02*
X9463039Y-13070936D01*
X9463039Y-13070936D02*
X9472563Y-13061412D01*
X9634468Y-13156650D02*
X9634468Y-13289984D01*
X9586849Y-13080460D02*
X9539230Y-13223317D01*
X9539230Y-13223317D02*
X9663039Y-13223317D01*
X9891611Y-13289984D02*
X9891611Y-13089984D01*
X9977325Y-13289984D02*
X9977325Y-13185222D01*
X9977325Y-13185222D02*
X9967801Y-13166174D01*
X9967801Y-13166174D02*
X9948753Y-13156650D01*
X9948753Y-13156650D02*
X9920182Y-13156650D01*
X9920182Y-13156650D02*
X9901134Y-13166174D01*
X9901134Y-13166174D02*
X9891611Y-13175698D01*
X10101134Y-13289984D02*
X10082087Y-13280460D01*
X10082087Y-13280460D02*
X10072563Y-13270936D01*
X10072563Y-13270936D02*
X10063039Y-13251888D01*
X10063039Y-13251888D02*
X10063039Y-13194746D01*
X10063039Y-13194746D02*
X10072563Y-13175698D01*
X10072563Y-13175698D02*
X10082087Y-13166174D01*
X10082087Y-13166174D02*
X10101134Y-13156650D01*
X10101134Y-13156650D02*
X10129706Y-13156650D01*
X10129706Y-13156650D02*
X10148753Y-13166174D01*
X10148753Y-13166174D02*
X10158277Y-13175698D01*
X10158277Y-13175698D02*
X10167801Y-13194746D01*
X10167801Y-13194746D02*
X10167801Y-13251888D01*
X10167801Y-13251888D02*
X10158277Y-13270936D01*
X10158277Y-13270936D02*
X10148753Y-13280460D01*
X10148753Y-13280460D02*
X10129706Y-13289984D01*
X10129706Y-13289984D02*
X10101134Y-13289984D01*
X10282087Y-13289984D02*
X10263039Y-13280460D01*
X10263039Y-13280460D02*
X10253515Y-13261412D01*
X10253515Y-13261412D02*
X10253515Y-13089984D01*
X10434468Y-13280460D02*
X10415420Y-13289984D01*
X10415420Y-13289984D02*
X10377325Y-13289984D01*
X10377325Y-13289984D02*
X10358277Y-13280460D01*
X10358277Y-13280460D02*
X10348753Y-13261412D01*
X10348753Y-13261412D02*
X10348753Y-13185222D01*
X10348753Y-13185222D02*
X10358277Y-13166174D01*
X10358277Y-13166174D02*
X10377325Y-13156650D01*
X10377325Y-13156650D02*
X10415420Y-13156650D01*
X10415420Y-13156650D02*
X10434468Y-13166174D01*
X10434468Y-13166174D02*
X10443992Y-13185222D01*
X10443992Y-13185222D02*
X10443992Y-13204269D01*
X10443992Y-13204269D02*
X10348753Y-13223317D01*
X10520182Y-13280460D02*
X10539230Y-13289984D01*
X10539230Y-13289984D02*
X10577325Y-13289984D01*
X10577325Y-13289984D02*
X10596373Y-13280460D01*
X10596373Y-13280460D02*
X10605896Y-13261412D01*
X10605896Y-13261412D02*
X10605896Y-13251888D01*
X10605896Y-13251888D02*
X10596373Y-13232841D01*
X10596373Y-13232841D02*
X10577325Y-13223317D01*
X10577325Y-13223317D02*
X10548753Y-13223317D01*
X10548753Y-13223317D02*
X10529706Y-13213793D01*
X10529706Y-13213793D02*
X10520182Y-13194746D01*
X10520182Y-13194746D02*
X10520182Y-13185222D01*
X10520182Y-13185222D02*
X10529706Y-13166174D01*
X10529706Y-13166174D02*
X10548753Y-13156650D01*
X10548753Y-13156650D02*
X10577325Y-13156650D01*
X10577325Y-13156650D02*
X10596373Y-13166174D01*
X10672563Y-13366174D02*
X10682087Y-13356650D01*
X10682087Y-13356650D02*
X10701134Y-13328079D01*
X10701134Y-13328079D02*
X10710658Y-13309031D01*
X10710658Y-13309031D02*
X10720182Y-13280460D01*
X10720182Y-13280460D02*
X10729706Y-13232841D01*
X10729706Y-13232841D02*
X10729706Y-13194746D01*
X10729706Y-13194746D02*
X10720182Y-13147127D01*
X10720182Y-13147127D02*
X10710658Y-13118555D01*
X10710658Y-13118555D02*
X10701134Y-13099508D01*
X10701134Y-13099508D02*
X10682087Y-13070936D01*
X10682087Y-13070936D02*
X10672563Y-13061412D01*
X5697500Y-13418500D02*
X5897500Y-13618500D01*
X5897500Y-13418500D02*
X5697500Y-13618500D01*
X5897500Y-13518500D02*
G75*
G02*
X5697500Y-13518500I-100000J0D01*
G01*
X5697500Y-13518500D02*
G75*
G02*
X5897500Y-13518500I100000J0D01*
G01*
X6243991Y-13476650D02*
X6243991Y-13609984D01*
X6196372Y-13400460D02*
X6148753Y-13543317D01*
X6148753Y-13543317D02*
X6272562Y-13543317D01*
X6348753Y-13590936D02*
X6358277Y-13600460D01*
X6358277Y-13600460D02*
X6348753Y-13609984D01*
X6348753Y-13609984D02*
X6339229Y-13600460D01*
X6339229Y-13600460D02*
X6348753Y-13590936D01*
X6348753Y-13590936D02*
X6348753Y-13609984D01*
X6539229Y-13409984D02*
X6443991Y-13409984D01*
X6443991Y-13409984D02*
X6434467Y-13505222D01*
X6434467Y-13505222D02*
X6443991Y-13495698D01*
X6443991Y-13495698D02*
X6463039Y-13486174D01*
X6463039Y-13486174D02*
X6510658Y-13486174D01*
X6510658Y-13486174D02*
X6529705Y-13495698D01*
X6529705Y-13495698D02*
X6539229Y-13505222D01*
X6539229Y-13505222D02*
X6548753Y-13524269D01*
X6548753Y-13524269D02*
X6548753Y-13571888D01*
X6548753Y-13571888D02*
X6539229Y-13590936D01*
X6539229Y-13590936D02*
X6529705Y-13600460D01*
X6529705Y-13600460D02*
X6510658Y-13609984D01*
X6510658Y-13609984D02*
X6463039Y-13609984D01*
X6463039Y-13609984D02*
X6443991Y-13600460D01*
X6443991Y-13600460D02*
X6434467Y-13590936D01*
X6672562Y-13409984D02*
X6691610Y-13409984D01*
X6691610Y-13409984D02*
X6710658Y-13419508D01*
X6710658Y-13419508D02*
X6720182Y-13429031D01*
X6720182Y-13429031D02*
X6729705Y-13448079D01*
X6729705Y-13448079D02*
X6739229Y-13486174D01*
X6739229Y-13486174D02*
X6739229Y-13533793D01*
X6739229Y-13533793D02*
X6729705Y-13571888D01*
X6729705Y-13571888D02*
X6720182Y-13590936D01*
X6720182Y-13590936D02*
X6710658Y-13600460D01*
X6710658Y-13600460D02*
X6691610Y-13609984D01*
X6691610Y-13609984D02*
X6672562Y-13609984D01*
X6672562Y-13609984D02*
X6653515Y-13600460D01*
X6653515Y-13600460D02*
X6643991Y-13590936D01*
X6643991Y-13590936D02*
X6634467Y-13571888D01*
X6634467Y-13571888D02*
X6624943Y-13533793D01*
X6624943Y-13533793D02*
X6624943Y-13486174D01*
X6624943Y-13486174D02*
X6634467Y-13448079D01*
X6634467Y-13448079D02*
X6643991Y-13429031D01*
X6643991Y-13429031D02*
X6653515Y-13419508D01*
X6653515Y-13419508D02*
X6672562Y-13409984D01*
X6863039Y-13409984D02*
X6882086Y-13409984D01*
X6882086Y-13409984D02*
X6901134Y-13419508D01*
X6901134Y-13419508D02*
X6910658Y-13429031D01*
X6910658Y-13429031D02*
X6920182Y-13448079D01*
X6920182Y-13448079D02*
X6929705Y-13486174D01*
X6929705Y-13486174D02*
X6929705Y-13533793D01*
X6929705Y-13533793D02*
X6920182Y-13571888D01*
X6920182Y-13571888D02*
X6910658Y-13590936D01*
X6910658Y-13590936D02*
X6901134Y-13600460D01*
X6901134Y-13600460D02*
X6882086Y-13609984D01*
X6882086Y-13609984D02*
X6863039Y-13609984D01*
X6863039Y-13609984D02*
X6843991Y-13600460D01*
X6843991Y-13600460D02*
X6834467Y-13590936D01*
X6834467Y-13590936D02*
X6824943Y-13571888D01*
X6824943Y-13571888D02*
X6815420Y-13533793D01*
X6815420Y-13533793D02*
X6815420Y-13486174D01*
X6815420Y-13486174D02*
X6824943Y-13448079D01*
X6824943Y-13448079D02*
X6834467Y-13429031D01*
X6834467Y-13429031D02*
X6843991Y-13419508D01*
X6843991Y-13419508D02*
X6863039Y-13409984D01*
X7015420Y-13609984D02*
X7015420Y-13476650D01*
X7015420Y-13495698D02*
X7024943Y-13486174D01*
X7024943Y-13486174D02*
X7043991Y-13476650D01*
X7043991Y-13476650D02*
X7072563Y-13476650D01*
X7072563Y-13476650D02*
X7091610Y-13486174D01*
X7091610Y-13486174D02*
X7101134Y-13505222D01*
X7101134Y-13505222D02*
X7101134Y-13609984D01*
X7101134Y-13505222D02*
X7110658Y-13486174D01*
X7110658Y-13486174D02*
X7129705Y-13476650D01*
X7129705Y-13476650D02*
X7158277Y-13476650D01*
X7158277Y-13476650D02*
X7177324Y-13486174D01*
X7177324Y-13486174D02*
X7186848Y-13505222D01*
X7186848Y-13505222D02*
X7186848Y-13609984D01*
X7282086Y-13609984D02*
X7282086Y-13476650D01*
X7282086Y-13495698D02*
X7291610Y-13486174D01*
X7291610Y-13486174D02*
X7310658Y-13476650D01*
X7310658Y-13476650D02*
X7339229Y-13476650D01*
X7339229Y-13476650D02*
X7358277Y-13486174D01*
X7358277Y-13486174D02*
X7367801Y-13505222D01*
X7367801Y-13505222D02*
X7367801Y-13609984D01*
X7367801Y-13505222D02*
X7377324Y-13486174D01*
X7377324Y-13486174D02*
X7396372Y-13476650D01*
X7396372Y-13476650D02*
X7424943Y-13476650D01*
X7424943Y-13476650D02*
X7443991Y-13486174D01*
X7443991Y-13486174D02*
X7453515Y-13505222D01*
X7453515Y-13505222D02*
X7453515Y-13609984D01*
X7843991Y-13400460D02*
X7672563Y-13657603D01*
X8101134Y-13409984D02*
X8120182Y-13409984D01*
X8120182Y-13409984D02*
X8139229Y-13419508D01*
X8139229Y-13419508D02*
X8148753Y-13429031D01*
X8148753Y-13429031D02*
X8158277Y-13448079D01*
X8158277Y-13448079D02*
X8167801Y-13486174D01*
X8167801Y-13486174D02*
X8167801Y-13533793D01*
X8167801Y-13533793D02*
X8158277Y-13571888D01*
X8158277Y-13571888D02*
X8148753Y-13590936D01*
X8148753Y-13590936D02*
X8139229Y-13600460D01*
X8139229Y-13600460D02*
X8120182Y-13609984D01*
X8120182Y-13609984D02*
X8101134Y-13609984D01*
X8101134Y-13609984D02*
X8082086Y-13600460D01*
X8082086Y-13600460D02*
X8072563Y-13590936D01*
X8072563Y-13590936D02*
X8063039Y-13571888D01*
X8063039Y-13571888D02*
X8053515Y-13533793D01*
X8053515Y-13533793D02*
X8053515Y-13486174D01*
X8053515Y-13486174D02*
X8063039Y-13448079D01*
X8063039Y-13448079D02*
X8072563Y-13429031D01*
X8072563Y-13429031D02*
X8082086Y-13419508D01*
X8082086Y-13419508D02*
X8101134Y-13409984D01*
X8253515Y-13590936D02*
X8263039Y-13600460D01*
X8263039Y-13600460D02*
X8253515Y-13609984D01*
X8253515Y-13609984D02*
X8243991Y-13600460D01*
X8243991Y-13600460D02*
X8253515Y-13590936D01*
X8253515Y-13590936D02*
X8253515Y-13609984D01*
X8453515Y-13609984D02*
X8339229Y-13609984D01*
X8396372Y-13609984D02*
X8396372Y-13409984D01*
X8396372Y-13409984D02*
X8377325Y-13438555D01*
X8377325Y-13438555D02*
X8358277Y-13457603D01*
X8358277Y-13457603D02*
X8339229Y-13467127D01*
X8520182Y-13409984D02*
X8653515Y-13409984D01*
X8653515Y-13409984D02*
X8567801Y-13609984D01*
X8710658Y-13409984D02*
X8843991Y-13409984D01*
X8843991Y-13409984D02*
X8758277Y-13609984D01*
X8910658Y-13429031D02*
X8920182Y-13419508D01*
X8920182Y-13419508D02*
X8939229Y-13409984D01*
X8939229Y-13409984D02*
X8986849Y-13409984D01*
X8986849Y-13409984D02*
X9005896Y-13419508D01*
X9005896Y-13419508D02*
X9015420Y-13429031D01*
X9015420Y-13429031D02*
X9024944Y-13448079D01*
X9024944Y-13448079D02*
X9024944Y-13467127D01*
X9024944Y-13467127D02*
X9015420Y-13495698D01*
X9015420Y-13495698D02*
X8901134Y-13609984D01*
X8901134Y-13609984D02*
X9024944Y-13609984D01*
X9101134Y-13409984D02*
X9101134Y-13448079D01*
X9177325Y-13409984D02*
X9177325Y-13448079D01*
X9472563Y-13686174D02*
X9463039Y-13676650D01*
X9463039Y-13676650D02*
X9443991Y-13648079D01*
X9443991Y-13648079D02*
X9434468Y-13629031D01*
X9434468Y-13629031D02*
X9424944Y-13600460D01*
X9424944Y-13600460D02*
X9415420Y-13552841D01*
X9415420Y-13552841D02*
X9415420Y-13514746D01*
X9415420Y-13514746D02*
X9424944Y-13467127D01*
X9424944Y-13467127D02*
X9434468Y-13438555D01*
X9434468Y-13438555D02*
X9443991Y-13419508D01*
X9443991Y-13419508D02*
X9463039Y-13390936D01*
X9463039Y-13390936D02*
X9472563Y-13381412D01*
X9653515Y-13609984D02*
X9539230Y-13609984D01*
X9596372Y-13609984D02*
X9596372Y-13409984D01*
X9596372Y-13409984D02*
X9577325Y-13438555D01*
X9577325Y-13438555D02*
X9558277Y-13457603D01*
X9558277Y-13457603D02*
X9539230Y-13467127D01*
X9824944Y-13476650D02*
X9824944Y-13609984D01*
X9777325Y-13400460D02*
X9729706Y-13543317D01*
X9729706Y-13543317D02*
X9853515Y-13543317D01*
X10082087Y-13609984D02*
X10082087Y-13409984D01*
X10167801Y-13609984D02*
X10167801Y-13505222D01*
X10167801Y-13505222D02*
X10158277Y-13486174D01*
X10158277Y-13486174D02*
X10139230Y-13476650D01*
X10139230Y-13476650D02*
X10110658Y-13476650D01*
X10110658Y-13476650D02*
X10091611Y-13486174D01*
X10091611Y-13486174D02*
X10082087Y-13495698D01*
X10291611Y-13609984D02*
X10272563Y-13600460D01*
X10272563Y-13600460D02*
X10263039Y-13590936D01*
X10263039Y-13590936D02*
X10253515Y-13571888D01*
X10253515Y-13571888D02*
X10253515Y-13514746D01*
X10253515Y-13514746D02*
X10263039Y-13495698D01*
X10263039Y-13495698D02*
X10272563Y-13486174D01*
X10272563Y-13486174D02*
X10291611Y-13476650D01*
X10291611Y-13476650D02*
X10320182Y-13476650D01*
X10320182Y-13476650D02*
X10339230Y-13486174D01*
X10339230Y-13486174D02*
X10348753Y-13495698D01*
X10348753Y-13495698D02*
X10358277Y-13514746D01*
X10358277Y-13514746D02*
X10358277Y-13571888D01*
X10358277Y-13571888D02*
X10348753Y-13590936D01*
X10348753Y-13590936D02*
X10339230Y-13600460D01*
X10339230Y-13600460D02*
X10320182Y-13609984D01*
X10320182Y-13609984D02*
X10291611Y-13609984D01*
X10472563Y-13609984D02*
X10453515Y-13600460D01*
X10453515Y-13600460D02*
X10443992Y-13581412D01*
X10443992Y-13581412D02*
X10443992Y-13409984D01*
X10624944Y-13600460D02*
X10605896Y-13609984D01*
X10605896Y-13609984D02*
X10567801Y-13609984D01*
X10567801Y-13609984D02*
X10548753Y-13600460D01*
X10548753Y-13600460D02*
X10539230Y-13581412D01*
X10539230Y-13581412D02*
X10539230Y-13505222D01*
X10539230Y-13505222D02*
X10548753Y-13486174D01*
X10548753Y-13486174D02*
X10567801Y-13476650D01*
X10567801Y-13476650D02*
X10605896Y-13476650D01*
X10605896Y-13476650D02*
X10624944Y-13486174D01*
X10624944Y-13486174D02*
X10634468Y-13505222D01*
X10634468Y-13505222D02*
X10634468Y-13524269D01*
X10634468Y-13524269D02*
X10539230Y-13543317D01*
X10710658Y-13600460D02*
X10729706Y-13609984D01*
X10729706Y-13609984D02*
X10767801Y-13609984D01*
X10767801Y-13609984D02*
X10786849Y-13600460D01*
X10786849Y-13600460D02*
X10796373Y-13581412D01*
X10796373Y-13581412D02*
X10796373Y-13571888D01*
X10796373Y-13571888D02*
X10786849Y-13552841D01*
X10786849Y-13552841D02*
X10767801Y-13543317D01*
X10767801Y-13543317D02*
X10739230Y-13543317D01*
X10739230Y-13543317D02*
X10720182Y-13533793D01*
X10720182Y-13533793D02*
X10710658Y-13514746D01*
X10710658Y-13514746D02*
X10710658Y-13505222D01*
X10710658Y-13505222D02*
X10720182Y-13486174D01*
X10720182Y-13486174D02*
X10739230Y-13476650D01*
X10739230Y-13476650D02*
X10767801Y-13476650D01*
X10767801Y-13476650D02*
X10786849Y-13486174D01*
X10863039Y-13686174D02*
X10872563Y-13676650D01*
X10872563Y-13676650D02*
X10891611Y-13648079D01*
X10891611Y-13648079D02*
X10901134Y-13629031D01*
X10901134Y-13629031D02*
X10910658Y-13600460D01*
X10910658Y-13600460D02*
X10920182Y-13552841D01*
X10920182Y-13552841D02*
X10920182Y-13514746D01*
X10920182Y-13514746D02*
X10910658Y-13467127D01*
X10910658Y-13467127D02*
X10901134Y-13438555D01*
X10901134Y-13438555D02*
X10891611Y-13419508D01*
X10891611Y-13419508D02*
X10872563Y-13390936D01*
X10872563Y-13390936D02*
X10863039Y-13381412D01*
M02*
