%TF.GenerationSoftware,KiCad,Pcbnew,8.0.7-8.0.7-0~ubuntu24.04.1*%
%TF.CreationDate,2024-12-07T01:42:30+01:00*%
%TF.ProjectId,drn2,64726e32-2e6b-4696-9361-645f70636258,rev?*%
%TF.SameCoordinates,Original*%
%TF.FileFunction,Soldermask,Bot*%
%TF.FilePolarity,Negative*%
%FSLAX46Y46*%
G04 Gerber Fmt 4.6, Leading zero omitted, Abs format (unit mm)*
G04 Created by KiCad (PCBNEW 8.0.7-8.0.7-0~ubuntu24.04.1) date 2024-12-07 01:42:30*
%MOMM*%
%LPD*%
G01*
G04 APERTURE LIST*
G04 Aperture macros list*
%AMRoundRect*
0 Rectangle with rounded corners*
0 $1 Rounding radius*
0 $2 $3 $4 $5 $6 $7 $8 $9 X,Y pos of 4 corners*
0 Add a 4 corners polygon primitive as box body*
4,1,4,$2,$3,$4,$5,$6,$7,$8,$9,$2,$3,0*
0 Add four circle primitives for the rounded corners*
1,1,$1+$1,$2,$3*
1,1,$1+$1,$4,$5*
1,1,$1+$1,$6,$7*
1,1,$1+$1,$8,$9*
0 Add four rect primitives between the rounded corners*
20,1,$1+$1,$2,$3,$4,$5,0*
20,1,$1+$1,$4,$5,$6,$7,0*
20,1,$1+$1,$6,$7,$8,$9,0*
20,1,$1+$1,$8,$9,$2,$3,0*%
G04 Aperture macros list end*
%ADD10R,1.700000X1.700000*%
%ADD11O,1.700000X1.700000*%
%ADD12RoundRect,1.500000X-1.500000X-1.500000X1.500000X-1.500000X1.500000X1.500000X-1.500000X1.500000X0*%
%ADD13C,6.000000*%
%ADD14C,0.800000*%
%ADD15C,6.400000*%
%ADD16C,1.200000*%
%ADD17RoundRect,0.250000X-0.600000X-0.725000X0.600000X-0.725000X0.600000X0.725000X-0.600000X0.725000X0*%
%ADD18O,1.700000X1.950000*%
%ADD19RoundRect,1.500000X-1.500000X1.500000X-1.500000X-1.500000X1.500000X-1.500000X1.500000X1.500000X0*%
%ADD20RoundRect,1.500000X1.500000X-1.500000X1.500000X1.500000X-1.500000X1.500000X-1.500000X-1.500000X0*%
G04 APERTURE END LIST*
D10*
%TO.C,J12*%
X165000000Y-70975000D03*
D11*
X165000000Y-73515000D03*
X165000000Y-76055000D03*
%TD*%
D10*
%TO.C,J3*%
X141000000Y-80000000D03*
D11*
X141000000Y-82540000D03*
X141000000Y-85080000D03*
%TD*%
D12*
%TO.C,J3_F2_BAT1*%
X67400000Y-47000000D03*
D13*
X74600000Y-47000000D03*
%TD*%
D12*
%TO.C,J4_M0_MOT0*%
X67400000Y-73000000D03*
D13*
X74600000Y-73000000D03*
%TD*%
D10*
%TO.C,J1*%
X145500000Y-80000000D03*
D11*
X145500000Y-82540000D03*
X145500000Y-85080000D03*
%TD*%
D10*
%TO.C,J13*%
X165000000Y-60475000D03*
D11*
X165000000Y-63015000D03*
X165000000Y-65555000D03*
%TD*%
D12*
%TO.C,J4_M3_MOT3*%
X117900000Y-108000000D03*
D13*
X125100000Y-108000000D03*
%TD*%
D10*
%TO.C,J15VBECOUT1*%
X115000000Y-92475000D03*
D11*
X115000000Y-95015000D03*
X115000000Y-97555000D03*
%TD*%
D10*
%TO.C,J14GND1*%
X111000000Y-92500000D03*
D11*
X111000000Y-95040000D03*
X111000000Y-97580000D03*
%TD*%
D10*
%TO.C,J4*%
X136500000Y-80000000D03*
D11*
X136500000Y-82540000D03*
X136500000Y-85080000D03*
%TD*%
D12*
%TO.C,J4_M4_BEC_IN1*%
X67400000Y-60000000D03*
D13*
X74600000Y-60000000D03*
%TD*%
D14*
%TO.C,GND2*%
X171600000Y-107000000D03*
X172302944Y-105302944D03*
X172302944Y-108697056D03*
X174000000Y-104600000D03*
D15*
X174000000Y-107000000D03*
D14*
X174000000Y-109400000D03*
X175697056Y-105302944D03*
X175697056Y-108697056D03*
X176400000Y-107000000D03*
%TD*%
D10*
%TO.C,J8*%
X89500000Y-63000000D03*
D11*
X89500000Y-65540000D03*
X89500000Y-68080000D03*
%TD*%
D14*
%TO.C,GND1*%
X64600000Y-107000000D03*
X65302944Y-105302944D03*
X65302944Y-108697056D03*
X67000000Y-104600000D03*
D15*
X67000000Y-107000000D03*
D14*
X67000000Y-109400000D03*
X68697056Y-105302944D03*
X68697056Y-108697056D03*
X69400000Y-107000000D03*
%TD*%
D16*
%TO.C,J5*%
X118900000Y-93000000D03*
D17*
X120500000Y-91000000D03*
D18*
X123000000Y-91000000D03*
X125500000Y-91000000D03*
X128000000Y-91000000D03*
X130500000Y-91000000D03*
X133000000Y-91000000D03*
X135500000Y-91000000D03*
X138000000Y-91000000D03*
X140500000Y-91000000D03*
X143000000Y-91000000D03*
X145500000Y-91000000D03*
X148000000Y-91000000D03*
%TD*%
D10*
%TO.C,J6*%
X73840000Y-37000000D03*
D11*
X76380000Y-37000000D03*
X78920000Y-37000000D03*
X81460000Y-37000000D03*
X84000000Y-37000000D03*
X86540000Y-37000000D03*
X89080000Y-37000000D03*
X91620000Y-37000000D03*
%TD*%
D10*
%TO.C,J16*%
X160750000Y-76040000D03*
D11*
X160750000Y-73500000D03*
X160750000Y-70960000D03*
%TD*%
D19*
%TO.C,J4_M2_MOT2*%
X174400000Y-71000000D03*
D13*
X174400000Y-78200000D03*
%TD*%
D14*
%TO.C,GND3*%
X64600000Y-34000000D03*
X65302944Y-32302944D03*
X65302944Y-35697056D03*
X67000000Y-31600000D03*
D15*
X67000000Y-34000000D03*
D14*
X67000000Y-36400000D03*
X68697056Y-32302944D03*
X68697056Y-35697056D03*
X69400000Y-34000000D03*
%TD*%
D20*
%TO.C,J3_F1_BEC_OUT1*%
X88000000Y-55600000D03*
D13*
X88000000Y-48400000D03*
%TD*%
D10*
%TO.C,J7*%
X131900000Y-80075000D03*
D11*
X131900000Y-82615000D03*
X131900000Y-85155000D03*
%TD*%
D13*
%TO.C,J2*%
X96775000Y-71025000D03*
X154775000Y-71025000D03*
X96775000Y-48025000D03*
X154775000Y-48025000D03*
D10*
X101645000Y-69755000D03*
D11*
X101645000Y-72295000D03*
X104185000Y-69755000D03*
X104185000Y-72295000D03*
X106725000Y-69755000D03*
X106725000Y-72295000D03*
X109265000Y-69755000D03*
X109265000Y-72295000D03*
X111805000Y-69755000D03*
X111805000Y-72295000D03*
X114345000Y-69755000D03*
X114345000Y-72295000D03*
X116885000Y-69755000D03*
X116885000Y-72295000D03*
X119425000Y-69755000D03*
X119425000Y-72295000D03*
X121965000Y-69755000D03*
X121965000Y-72295000D03*
X124505000Y-69755000D03*
X124505000Y-72295000D03*
X127045000Y-69755000D03*
X127045000Y-72295000D03*
X129585000Y-69755000D03*
X129585000Y-72295000D03*
X132125000Y-69755000D03*
X132125000Y-72295000D03*
X134665000Y-69755000D03*
X134665000Y-72295000D03*
X137205000Y-69755000D03*
X137205000Y-72295000D03*
X139745000Y-69755000D03*
X139745000Y-72295000D03*
X142285000Y-69755000D03*
X142285000Y-72295000D03*
X144825000Y-69755000D03*
X144825000Y-72295000D03*
X147365000Y-69755000D03*
X147365000Y-72295000D03*
X149905000Y-69755000D03*
X149905000Y-72295000D03*
%TD*%
D12*
%TO.C,J4_M1_MOT1*%
X117900000Y-35000000D03*
D13*
X125100000Y-35000000D03*
%TD*%
D14*
%TO.C,GND4*%
X171600000Y-34000000D03*
X172302944Y-32302944D03*
X172302944Y-35697056D03*
X174000000Y-31600000D03*
D15*
X174000000Y-34000000D03*
D14*
X174000000Y-36400000D03*
X175697056Y-32302944D03*
X175697056Y-35697056D03*
X176400000Y-34000000D03*
%TD*%
M02*
