%TF.GenerationSoftware,KiCad,Pcbnew,8.0.7-8.0.7-0~ubuntu24.04.1*%
%TF.CreationDate,2025-02-07T15:23:20+01:00*%
%TF.ProjectId,drn2,64726e32-2e6b-4696-9361-645f70636258,rev?*%
%TF.SameCoordinates,Original*%
%TF.FileFunction,Copper,L1,Top*%
%TF.FilePolarity,Positive*%
%FSLAX46Y46*%
G04 Gerber Fmt 4.6, Leading zero omitted, Abs format (unit mm)*
G04 Created by KiCad (PCBNEW 8.0.7-8.0.7-0~ubuntu24.04.1) date 2025-02-07 15:23:20*
%MOMM*%
%LPD*%
G01*
G04 APERTURE LIST*
G04 Aperture macros list*
%AMRoundRect*
0 Rectangle with rounded corners*
0 $1 Rounding radius*
0 $2 $3 $4 $5 $6 $7 $8 $9 X,Y pos of 4 corners*
0 Add a 4 corners polygon primitive as box body*
4,1,4,$2,$3,$4,$5,$6,$7,$8,$9,$2,$3,0*
0 Add four circle primitives for the rounded corners*
1,1,$1+$1,$2,$3*
1,1,$1+$1,$4,$5*
1,1,$1+$1,$6,$7*
1,1,$1+$1,$8,$9*
0 Add four rect primitives between the rounded corners*
20,1,$1+$1,$2,$3,$4,$5,0*
20,1,$1+$1,$4,$5,$6,$7,0*
20,1,$1+$1,$6,$7,$8,$9,0*
20,1,$1+$1,$8,$9,$2,$3,0*%
G04 Aperture macros list end*
%TA.AperFunction,ComponentPad*%
%ADD10R,1.700000X1.700000*%
%TD*%
%TA.AperFunction,ComponentPad*%
%ADD11O,1.700000X1.700000*%
%TD*%
%TA.AperFunction,SMDPad,CuDef*%
%ADD12RoundRect,0.237500X0.237500X-0.300000X0.237500X0.300000X-0.237500X0.300000X-0.237500X-0.300000X0*%
%TD*%
%TA.AperFunction,SMDPad,CuDef*%
%ADD13RoundRect,0.200000X-0.200000X-0.275000X0.200000X-0.275000X0.200000X0.275000X-0.200000X0.275000X0*%
%TD*%
%TA.AperFunction,SMDPad,CuDef*%
%ADD14C,1.000000*%
%TD*%
%TA.AperFunction,SMDPad,CuDef*%
%ADD15RoundRect,0.218750X0.218750X0.256250X-0.218750X0.256250X-0.218750X-0.256250X0.218750X-0.256250X0*%
%TD*%
%TA.AperFunction,SMDPad,CuDef*%
%ADD16RoundRect,0.250000X-1.050000X-0.550000X1.050000X-0.550000X1.050000X0.550000X-1.050000X0.550000X0*%
%TD*%
%TA.AperFunction,ComponentPad*%
%ADD17RoundRect,1.500000X-1.500000X1.500000X-1.500000X-1.500000X1.500000X-1.500000X1.500000X1.500000X0*%
%TD*%
%TA.AperFunction,ComponentPad*%
%ADD18C,6.000000*%
%TD*%
%TA.AperFunction,ComponentPad*%
%ADD19RoundRect,1.500000X0.000000X2.121320X-2.121320X0.000000X0.000000X-2.121320X2.121320X0.000000X0*%
%TD*%
%TA.AperFunction,ComponentPad*%
%ADD20RoundRect,1.500000X1.500000X1.500000X-1.500000X1.500000X-1.500000X-1.500000X1.500000X-1.500000X0*%
%TD*%
%TA.AperFunction,SMDPad,CuDef*%
%ADD21RoundRect,0.218750X-0.218750X-0.256250X0.218750X-0.256250X0.218750X0.256250X-0.218750X0.256250X0*%
%TD*%
%TA.AperFunction,SMDPad,CuDef*%
%ADD22R,1.100000X0.250000*%
%TD*%
%TA.AperFunction,ComponentPad*%
%ADD23RoundRect,0.250000X0.600000X0.725000X-0.600000X0.725000X-0.600000X-0.725000X0.600000X-0.725000X0*%
%TD*%
%TA.AperFunction,ComponentPad*%
%ADD24O,1.700000X1.950000*%
%TD*%
%TA.AperFunction,SMDPad,CuDef*%
%ADD25RoundRect,0.200000X0.200000X0.275000X-0.200000X0.275000X-0.200000X-0.275000X0.200000X-0.275000X0*%
%TD*%
%TA.AperFunction,ComponentPad*%
%ADD26C,0.800000*%
%TD*%
%TA.AperFunction,ComponentPad*%
%ADD27C,6.400000*%
%TD*%
%TA.AperFunction,SMDPad,CuDef*%
%ADD28RoundRect,0.200000X-0.275000X0.200000X-0.275000X-0.200000X0.275000X-0.200000X0.275000X0.200000X0*%
%TD*%
%TA.AperFunction,SMDPad,CuDef*%
%ADD29R,0.230000X0.350000*%
%TD*%
%TA.AperFunction,SMDPad,CuDef*%
%ADD30R,0.350000X0.230000*%
%TD*%
%TA.AperFunction,ComponentPad*%
%ADD31RoundRect,1.500000X-2.121320X0.000000X0.000000X-2.121320X2.121320X0.000000X0.000000X2.121320X0*%
%TD*%
%TA.AperFunction,ComponentPad*%
%ADD32RoundRect,1.500000X-1.500000X-1.500000X1.500000X-1.500000X1.500000X1.500000X-1.500000X1.500000X0*%
%TD*%
%TA.AperFunction,ViaPad*%
%ADD33C,0.600000*%
%TD*%
%TA.AperFunction,Conductor*%
%ADD34C,0.200000*%
%TD*%
%TA.AperFunction,Conductor*%
%ADD35C,7.500000*%
%TD*%
G04 APERTURE END LIST*
D10*
%TO.P,J3,1,Pin_1*%
%TO.N,GND*%
X131350000Y-161140000D03*
D11*
%TO.P,J3,2,Pin_2*%
%TO.N,/5V*%
X131350000Y-158600000D03*
%TO.P,J3,3,Pin_3*%
%TO.N,Net-(J3-Pin_3)*%
X131350000Y-156060000D03*
%TD*%
D12*
%TO.P,C5,1*%
%TO.N,GND*%
X110100000Y-162062500D03*
%TO.P,C5,2*%
%TO.N,Net-(IMU1-CAP)*%
X110100000Y-160337500D03*
%TD*%
D13*
%TO.P,R9,1*%
%TO.N,GND*%
X107025000Y-162160000D03*
%TO.P,R9,2*%
%TO.N,Net-(MAN1-AIN3)*%
X108675000Y-162160000D03*
%TD*%
D14*
%TO.P,MO1,1,1*%
%TO.N,Net-(J3-Pin_3)*%
X128850000Y-152550000D03*
%TD*%
D15*
%TO.P,D3,1,K*%
%TO.N,GND*%
X149537500Y-160100000D03*
%TO.P,D3,2,A*%
%TO.N,Net-(D3-A)*%
X147962500Y-160100000D03*
%TD*%
D16*
%TO.P,C4,1*%
%TO.N,Net-(MAN1-AIN2)*%
X104050000Y-155175000D03*
%TO.P,C4,2*%
%TO.N,GND*%
X107650000Y-155175000D03*
%TD*%
D17*
%TO.P,J3_F2_BAT1,1,Pin_1*%
%TO.N,GND*%
X112200000Y-170200000D03*
D18*
%TO.P,J3_F2_BAT1,2,Pin_2*%
%TO.N,/11.1*%
X112200000Y-177400000D03*
%TD*%
D12*
%TO.P,C2,1*%
%TO.N,GND*%
X114600000Y-162062500D03*
%TO.P,C2,2*%
%TO.N,Net-(MAN1-AIN3)*%
X114600000Y-160337500D03*
%TD*%
D19*
%TO.P,J4_M0_MOT0,1,Pin_1*%
%TO.N,GND*%
X101067857Y-168832144D03*
D18*
%TO.P,J4_M0_MOT0,2,Pin_2*%
%TO.N,/11.1*%
X95976688Y-173923313D03*
%TD*%
D10*
%TO.P,J1,1,Pin_1*%
%TO.N,GND*%
X135100000Y-161140000D03*
D11*
%TO.P,J1,2,Pin_2*%
%TO.N,/5V*%
X135100000Y-158600000D03*
%TO.P,J1,3,Pin_3*%
%TO.N,Net-(J1-Pin_3)*%
X135100000Y-156060000D03*
%TD*%
D13*
%TO.P,R7,1*%
%TO.N,/5V*%
X116012500Y-160800000D03*
%TO.P,R7,2*%
%TO.N,Net-(D7-A)*%
X117662500Y-160800000D03*
%TD*%
D12*
%TO.P,C3,1*%
%TO.N,GND*%
X111600000Y-162062500D03*
%TO.P,C3,2*%
%TO.N,Net-(MAN1-AIN2)*%
X111600000Y-160337500D03*
%TD*%
D20*
%TO.P,J4_M3_MOT3,1,Pin_1*%
%TO.N,GND*%
X127800000Y-186750000D03*
D18*
%TO.P,J4_M3_MOT3,2,Pin_2*%
%TO.N,/11.1*%
X120600000Y-186750000D03*
%TD*%
D21*
%TO.P,D7,1,K*%
%TO.N,GND*%
X116050000Y-159200000D03*
%TO.P,D7,2,A*%
%TO.N,Net-(D7-A)*%
X117625000Y-159200000D03*
%TD*%
D13*
%TO.P,R8,1*%
%TO.N,GND*%
X104025000Y-162200000D03*
%TO.P,R8,2*%
%TO.N,Net-(MAN1-AIN2)*%
X105675000Y-162200000D03*
%TD*%
D10*
%TO.P,SPI1,1,Pin_1*%
%TO.N,GND*%
X80430000Y-153700000D03*
D11*
%TO.P,SPI1,2,Pin_2*%
%TO.N,Net-(RPI2-MISO0{slash}GPIO9)*%
X82970000Y-153700000D03*
%TO.P,SPI1,3,Pin_3*%
%TO.N,Net-(RPI2-MOSI0{slash}GPIO10)*%
X85510000Y-153700000D03*
%TO.P,SPI1,4,Pin_4*%
%TO.N,/5V*%
X88050000Y-153700000D03*
%TD*%
D14*
%TO.P,MO0,1,1*%
%TO.N,Net-(J1-Pin_3)*%
X132500000Y-152550000D03*
%TD*%
%TO.P,SDA3,1,1*%
%TO.N,Net-(I2C1-Pin_3)*%
X114800000Y-157400000D03*
%TD*%
D15*
%TO.P,D1,1,K*%
%TO.N,GND*%
X149537500Y-157100000D03*
%TO.P,D1,2,A*%
%TO.N,Net-(D1-A)*%
X147962500Y-157100000D03*
%TD*%
D21*
%TO.P,D5,1,K*%
%TO.N,GND*%
X147512500Y-190550000D03*
%TO.P,D5,2,A*%
%TO.N,Net-(D5-A)*%
X149087500Y-190550000D03*
%TD*%
D11*
%TO.P,J2,4,Pin_4*%
%TO.N,Net-(J2-Pin_4)*%
X76825000Y-153580000D03*
%TO.P,J2,3,Pin_3*%
%TO.N,Net-(J2-Pin_3)*%
X76825000Y-156120000D03*
%TO.P,J2,2,Pin_2*%
%TO.N,Net-(J2-Pin_2)*%
X76825000Y-158660000D03*
D10*
%TO.P,J2,1,Pin_1*%
%TO.N,GND*%
X76825000Y-161200000D03*
%TD*%
%TO.P,I2C1,1,Pin_1*%
%TO.N,GND*%
X80480000Y-161200000D03*
D11*
%TO.P,I2C1,2,Pin_2*%
%TO.N,Net-(I2C1-Pin_2)*%
X83020000Y-161200000D03*
%TO.P,I2C1,3,Pin_3*%
%TO.N,Net-(I2C1-Pin_3)*%
X85560000Y-161200000D03*
%TO.P,I2C1,4,Pin_4*%
%TO.N,/5V*%
X88100000Y-161200000D03*
%TD*%
D14*
%TO.P,VDDIO1,1,1*%
%TO.N,Net-(MAN1-AIN3)*%
X107800000Y-158900000D03*
%TD*%
D10*
%TO.P,J4,1,Pin_1*%
%TO.N,GND*%
X127600000Y-161140000D03*
D11*
%TO.P,J4,2,Pin_2*%
%TO.N,/5V*%
X127600000Y-158600000D03*
%TO.P,J4,3,Pin_3*%
%TO.N,Net-(J4-Pin_3)*%
X127600000Y-156060000D03*
%TD*%
D14*
%TO.P,5V2,1,1*%
%TO.N,/5V*%
X149100000Y-149350000D03*
%TD*%
%TO.P,MO2,1,1*%
%TO.N,Net-(J4-Pin_3)*%
X126850000Y-152550000D03*
%TD*%
%TO.P,MO3,1,1*%
%TO.N,Net-(J7-Pin_3)*%
X123600000Y-152900000D03*
%TD*%
D22*
%TO.P,MAN1,1,ADDR*%
%TO.N,Net-(MAN1-ADDR)*%
X94450000Y-153450000D03*
%TO.P,MAN1,2,ALERT/RDY*%
%TO.N,Net-(MAN1-ALERT{slash}RDY)*%
X94450000Y-153950000D03*
%TO.P,MAN1,3,GND*%
%TO.N,GND*%
X94450000Y-154450000D03*
%TO.P,MAN1,4,AIN0*%
%TO.N,Net-(MAN1-AIN0)*%
X94450000Y-154950000D03*
%TO.P,MAN1,5,AIN1*%
%TO.N,Net-(MAN1-AIN1)*%
X94450000Y-155450000D03*
%TO.P,MAN1,6,AIN2*%
%TO.N,Net-(MAN1-AIN2)*%
X98750000Y-155450000D03*
%TO.P,MAN1,7,AIN3*%
%TO.N,Net-(MAN1-AIN3)*%
X98750000Y-154950000D03*
%TO.P,MAN1,8,VDD*%
%TO.N,/5V*%
X98750000Y-154450000D03*
%TO.P,MAN1,9,SDA*%
%TO.N,Net-(I2C1-Pin_3)*%
X98750000Y-153950000D03*
%TO.P,MAN1,10,SCL*%
%TO.N,Net-(I2C1-Pin_2)*%
X98750000Y-153450000D03*
%TD*%
D23*
%TO.P,J9,1,Pin_1*%
%TO.N,Net-(J2-Pin_4)*%
X100350000Y-160200000D03*
D24*
%TO.P,J9,2,Pin_2*%
%TO.N,Net-(J2-Pin_3)*%
X97850000Y-160200000D03*
%TO.P,J9,3,Pin_3*%
%TO.N,Net-(J2-Pin_2)*%
X95350000Y-160200000D03*
%TO.P,J9,4,Pin_4*%
%TO.N,GND*%
X92850000Y-160200000D03*
%TD*%
D25*
%TO.P,R3,1*%
%TO.N,/5V*%
X76925000Y-188950000D03*
%TO.P,R3,2*%
%TO.N,Net-(D6-A)*%
X75275000Y-188950000D03*
%TD*%
%TO.P,R11,1*%
%TO.N,Net-(MAN1-AIN3)*%
X108675000Y-160660000D03*
%TO.P,R11,2*%
%TO.N,/5V*%
X107025000Y-160660000D03*
%TD*%
D14*
%TO.P,GND7,1,1*%
%TO.N,GND*%
X146300000Y-149200000D03*
%TD*%
D13*
%TO.P,R1,1*%
%TO.N,/5V*%
X147525000Y-146650000D03*
%TO.P,R1,2*%
%TO.N,Net-(D4-A)*%
X149175000Y-146650000D03*
%TD*%
D26*
%TO.P,GND2,1,1*%
%TO.N,GND*%
X81100000Y-147800000D03*
X81802944Y-146102944D03*
X81802944Y-149497056D03*
X83500000Y-145400000D03*
D27*
X83500000Y-147800000D03*
D26*
X83500000Y-150200000D03*
X85197056Y-146102944D03*
X85197056Y-149497056D03*
X85900000Y-147800000D03*
%TD*%
D14*
%TO.P,VDD1,1,1*%
%TO.N,Net-(MAN1-AIN2)*%
X104350000Y-158700000D03*
%TD*%
D21*
%TO.P,D4,1,K*%
%TO.N,GND*%
X147562500Y-145050000D03*
%TO.P,D4,2,A*%
%TO.N,Net-(D4-A)*%
X149137500Y-145050000D03*
%TD*%
D10*
%TO.P,GND1,1,Pin_1*%
%TO.N,GND*%
X143750000Y-157400000D03*
D11*
%TO.P,GND1,2,Pin_2*%
X141210000Y-157400000D03*
%TO.P,GND1,3,Pin_3*%
X138670000Y-157400000D03*
%TD*%
D28*
%TO.P,R15,1*%
%TO.N,GND*%
X92350000Y-153875000D03*
%TO.P,R15,2*%
%TO.N,Net-(MAN1-AIN1)*%
X92350000Y-155525000D03*
%TD*%
D29*
%TO.P,IMU1,1,VDDIO*%
%TO.N,Net-(MAN1-AIN3)*%
X112855000Y-158925000D03*
D30*
%TO.P,IMU1,2,SCL/SPC*%
%TO.N,Net-(I2C1-Pin_2)*%
X112825000Y-158345000D03*
%TO.P,IMU1,3,VDDIO*%
%TO.N,Net-(MAN1-AIN3)*%
X112825000Y-157915000D03*
%TO.P,IMU1,4,SDA/SDI/SDO*%
%TO.N,Net-(I2C1-Pin_3)*%
X112825000Y-157485000D03*
%TO.P,IMU1,5,SDO_A/G*%
%TO.N,Net-(IMU1-SDO_A{slash}G)*%
X112825000Y-157055000D03*
D29*
%TO.P,IMU1,6,SDO_M*%
%TO.N,Net-(IMU1-SDO_M)*%
X112855000Y-156475000D03*
%TO.P,IMU1,7,CS_A/G*%
%TO.N,Net-(IMU1-CS_A{slash}G)*%
X112425000Y-156475000D03*
%TO.P,IMU1,8,CS_M*%
%TO.N,Net-(IMU1-CS_M)*%
X111995000Y-156475000D03*
%TO.P,IMU1,9,DRDY_M*%
%TO.N,Net-(IMU1-DRDY_M)*%
X111565000Y-156475000D03*
%TO.P,IMU1,10,INT_M*%
%TO.N,Net-(IMU1-INT_M)*%
X111135000Y-156475000D03*
%TO.P,IMU1,11,INT1_A/G*%
%TO.N,Net-(IMU1-INT1_A{slash}G)*%
X110705000Y-156475000D03*
%TO.P,IMU1,12,INT2_A/G*%
%TO.N,Net-(IMU1-INT2_A{slash}G)*%
X110275000Y-156475000D03*
%TO.P,IMU1,13,DEN_A/G*%
%TO.N,Net-(IMU1-DEN_A{slash}G)*%
X109845000Y-156475000D03*
D30*
%TO.P,IMU1,14,RES*%
%TO.N,GND*%
X109875000Y-157055000D03*
%TO.P,IMU1,15,RES*%
X109875000Y-157485000D03*
%TO.P,IMU1,16,RES*%
X109875000Y-157915000D03*
%TO.P,IMU1,17,RES*%
X109875000Y-158345000D03*
D29*
%TO.P,IMU1,18,RES*%
X109845000Y-158925000D03*
%TO.P,IMU1,19,GND*%
X110275000Y-158925000D03*
%TO.P,IMU1,20,GND*%
X110705000Y-158925000D03*
%TO.P,IMU1,21,CAP*%
%TO.N,Net-(IMU1-CAP)*%
X111135000Y-158925000D03*
%TO.P,IMU1,22,VDD*%
%TO.N,Net-(MAN1-AIN2)*%
X111565000Y-158925000D03*
%TO.P,IMU1,23,VDD*%
X111995000Y-158925000D03*
%TO.P,IMU1,24,C1*%
%TO.N,Net-(IMU1-C1)*%
X112425000Y-158925000D03*
%TD*%
D28*
%TO.P,R14,1*%
%TO.N,Net-(MAN1-AIN1)*%
X90850000Y-153875000D03*
%TO.P,R14,2*%
%TO.N,Net-(J2-Pin_4)*%
X90850000Y-155525000D03*
%TD*%
D10*
%TO.P,5V1,1,Pin_1*%
%TO.N,/5V*%
X143750000Y-161150000D03*
D11*
%TO.P,5V1,2,Pin_2*%
X141210000Y-161150000D03*
%TO.P,5V1,3,Pin_3*%
X138670000Y-161150000D03*
%TD*%
D13*
%TO.P,R2,1*%
%TO.N,/5V*%
X147475000Y-188950000D03*
%TO.P,R2,2*%
%TO.N,Net-(D5-A)*%
X149125000Y-188950000D03*
%TD*%
D10*
%TO.P,RPI2,1,3V3*%
%TO.N,Net-(MAN1-AIN0)*%
X88395000Y-146505000D03*
D11*
%TO.P,RPI2,2,5V*%
%TO.N,/5V*%
X88395000Y-149045000D03*
%TO.P,RPI2,3,SDA/GPIO2*%
%TO.N,Net-(I2C1-Pin_3)*%
X90935000Y-146505000D03*
%TO.P,RPI2,4,5V*%
%TO.N,/5V*%
X90935000Y-149045000D03*
%TO.P,RPI2,5,SCL/GPIO3*%
%TO.N,Net-(I2C1-Pin_2)*%
X93475000Y-146505000D03*
%TO.P,RPI2,6,GND*%
%TO.N,GND*%
X93475000Y-149045000D03*
%TO.P,RPI2,7,GCLK0/GPIO4*%
%TO.N,Net-(IMU1-DEN_A{slash}G)*%
X96015000Y-146505000D03*
%TO.P,RPI2,8,GPIO14/TXD*%
%TO.N,Net-(RPI2-GPIO14{slash}TXD)*%
X96015000Y-149045000D03*
%TO.P,RPI2,9,GND*%
%TO.N,GND*%
X98555000Y-146505000D03*
%TO.P,RPI2,10,GPIO15/RXD*%
%TO.N,Net-(RPI2-GPIO15{slash}RXD)*%
X98555000Y-149045000D03*
%TO.P,RPI2,11,GPIO17*%
%TO.N,Net-(IMU1-INT2_A{slash}G)*%
X101095000Y-146505000D03*
%TO.P,RPI2,12,GPIO18/PWM0*%
%TO.N,Net-(J7-Pin_3)*%
X101095000Y-149045000D03*
%TO.P,RPI2,13,GPIO27*%
%TO.N,Net-(IMU1-INT1_A{slash}G)*%
X103635000Y-146505000D03*
%TO.P,RPI2,14,GND*%
%TO.N,GND*%
X103635000Y-149045000D03*
%TO.P,RPI2,15,GPIO22*%
%TO.N,Net-(IMU1-DRDY_M)*%
X106175000Y-146505000D03*
%TO.P,RPI2,16,GPIO23*%
%TO.N,Net-(IMU1-INT_M)*%
X106175000Y-149045000D03*
%TO.P,RPI2,17,3V3*%
%TO.N,Net-(MAN1-AIN0)*%
X108715000Y-146505000D03*
%TO.P,RPI2,18,GPIO24*%
%TO.N,Net-(IMU1-CS_M)*%
X108715000Y-149045000D03*
%TO.P,RPI2,19,MOSI0/GPIO10*%
%TO.N,Net-(RPI2-MOSI0{slash}GPIO10)*%
X111255000Y-146505000D03*
%TO.P,RPI2,20,GND*%
%TO.N,GND*%
X111255000Y-149045000D03*
%TO.P,RPI2,21,MISO0/GPIO9*%
%TO.N,Net-(RPI2-MISO0{slash}GPIO9)*%
X113795000Y-146505000D03*
%TO.P,RPI2,22,GPIO25*%
%TO.N,unconnected-(RPI2-GPIO25-Pad22)*%
X113795000Y-149045000D03*
%TO.P,RPI2,23,SCLK0/GPIO11*%
%TO.N,Net-(MAN1-ALERT{slash}RDY)*%
X116335000Y-146505000D03*
%TO.P,RPI2,24,~{CE0}/GPIO8*%
%TO.N,Net-(MAN1-ADDR)*%
X116335000Y-149045000D03*
%TO.P,RPI2,25,GND*%
%TO.N,GND*%
X118875000Y-146505000D03*
%TO.P,RPI2,26,~{CE1}/GPIO7*%
%TO.N,Net-(IMU1-CS_A{slash}G)*%
X118875000Y-149045000D03*
%TO.P,RPI2,27,ID_SD/GPIO0*%
%TO.N,Net-(IMU1-SDO_M)*%
X121415000Y-146505000D03*
%TO.P,RPI2,28,ID_SC/GPIO1*%
%TO.N,Net-(IMU1-SDO_A{slash}G)*%
X121415000Y-149045000D03*
%TO.P,RPI2,29,GCLK1/GPIO5*%
%TO.N,Net-(RPI2-GCLK1{slash}GPIO5)*%
X123955000Y-146505000D03*
%TO.P,RPI2,30,GND*%
%TO.N,GND*%
X123955000Y-149045000D03*
%TO.P,RPI2,31,GCLK2/GPIO6*%
%TO.N,Net-(RPI2-GCLK2{slash}GPIO6)*%
X126495000Y-146505000D03*
%TO.P,RPI2,32,PWM0/GPIO12*%
%TO.N,Net-(J4-Pin_3)*%
X126495000Y-149045000D03*
%TO.P,RPI2,33,PWM1/GPIO13*%
%TO.N,Net-(J3-Pin_3)*%
X129035000Y-146505000D03*
%TO.P,RPI2,34,GND*%
%TO.N,GND*%
X129035000Y-149045000D03*
%TO.P,RPI2,35,GPIO19/MISO1*%
%TO.N,Net-(J1-Pin_3)*%
X131575000Y-146505000D03*
%TO.P,RPI2,36,GPIO16*%
%TO.N,Net-(RPI2-GPIO16)*%
X131575000Y-149045000D03*
%TO.P,RPI2,37,GPIO26*%
%TO.N,Net-(J37-Pin_3)*%
X134115000Y-146505000D03*
%TO.P,RPI2,38,GPIO20/MOSI1*%
%TO.N,Net-(RPI2-GPIO20{slash}MOSI1)*%
X134115000Y-149045000D03*
%TO.P,RPI2,39,GND*%
%TO.N,GND*%
X136655000Y-146505000D03*
%TO.P,RPI2,40,GPIO21/SCLK1*%
%TO.N,Net-(RPI2-GPIO21{slash}SCLK1)*%
X136655000Y-149045000D03*
%TD*%
D31*
%TO.P,J4_M2_MOT2,1,Pin_1*%
%TO.N,GND*%
X123182144Y-168782144D03*
D18*
%TO.P,J4_M2_MOT2,2,Pin_2*%
%TO.N,/11.1*%
X128273313Y-173873313D03*
%TD*%
D25*
%TO.P,R10,1*%
%TO.N,Net-(MAN1-AIN2)*%
X105675000Y-160700000D03*
%TO.P,R10,2*%
%TO.N,/5V*%
X104025000Y-160700000D03*
%TD*%
D10*
%TO.P,TOF1,1,Pin_1*%
%TO.N,GND*%
X120215000Y-161200000D03*
D11*
%TO.P,TOF1,2,Pin_2*%
%TO.N,Net-(RPI2-GCLK2{slash}GPIO6)*%
X120215000Y-158660000D03*
%TO.P,TOF1,3,Pin_3*%
%TO.N,Net-(RPI2-GCLK1{slash}GPIO5)*%
X120215000Y-156120000D03*
%TO.P,TOF1,4,Pin_4*%
%TO.N,/5V*%
X120215000Y-153580000D03*
%TD*%
D26*
%TO.P,GND3,1,1*%
%TO.N,GND*%
X81100000Y-187800000D03*
X81802944Y-186102944D03*
X81802944Y-189497056D03*
X83500000Y-185400000D03*
D27*
X83500000Y-187800000D03*
D26*
X83500000Y-190200000D03*
X85197056Y-186102944D03*
X85197056Y-189497056D03*
X85900000Y-187800000D03*
%TD*%
D15*
%TO.P,D6,1,K*%
%TO.N,GND*%
X76887500Y-190550000D03*
%TO.P,D6,2,A*%
%TO.N,Net-(D6-A)*%
X75312500Y-190550000D03*
%TD*%
D12*
%TO.P,C1,1*%
%TO.N,GND*%
X113100000Y-162062500D03*
%TO.P,C1,2*%
%TO.N,Net-(IMU1-C1)*%
X113100000Y-160337500D03*
%TD*%
D10*
%TO.P,J7,1,Pin_1*%
%TO.N,GND*%
X123850000Y-161140000D03*
D11*
%TO.P,J7,2,Pin_2*%
%TO.N,/5V*%
X123850000Y-158600000D03*
%TO.P,J7,3,Pin_3*%
%TO.N,Net-(J7-Pin_3)*%
X123850000Y-156060000D03*
%TD*%
D14*
%TO.P,SCL1,1,1*%
%TO.N,Net-(I2C1-Pin_2)*%
X117100000Y-157400000D03*
%TD*%
D10*
%TO.P,J37,1,Pin_1*%
%TO.N,GND*%
X143760000Y-153650000D03*
D11*
%TO.P,J37,2,Pin_2*%
%TO.N,/5V*%
X141220000Y-153650000D03*
%TO.P,J37,3,Pin_3*%
%TO.N,Net-(J37-Pin_3)*%
X138680000Y-153650000D03*
%TD*%
D14*
%TO.P,BAT1,1,1*%
%TO.N,/11.1*%
X77050000Y-186350000D03*
%TD*%
D15*
%TO.P,D2,1,K*%
%TO.N,GND*%
X149537500Y-158600000D03*
%TO.P,D2,2,A*%
%TO.N,Net-(D2-A)*%
X147962500Y-158600000D03*
%TD*%
D28*
%TO.P,R4,1*%
%TO.N,Net-(RPI2-GPIO21{slash}SCLK1)*%
X149400000Y-152225000D03*
%TO.P,R4,2*%
%TO.N,Net-(D1-A)*%
X149400000Y-153875000D03*
%TD*%
%TO.P,R5,1*%
%TO.N,Net-(RPI2-GPIO20{slash}MOSI1)*%
X147900000Y-152225000D03*
%TO.P,R5,2*%
%TO.N,Net-(D2-A)*%
X147900000Y-153875000D03*
%TD*%
D32*
%TO.P,J4_M1_MOT1,1,Pin_1*%
%TO.N,GND*%
X96450000Y-186850000D03*
D18*
%TO.P,J4_M1_MOT1,2,Pin_2*%
%TO.N,/11.1*%
X103650000Y-186850000D03*
%TD*%
D26*
%TO.P,GND4,1,1*%
%TO.N,GND*%
X139150000Y-187800000D03*
X139852944Y-186102944D03*
X139852944Y-189497056D03*
X141550000Y-185400000D03*
D27*
X141550000Y-187800000D03*
D26*
X141550000Y-190200000D03*
X143247056Y-186102944D03*
X143247056Y-189497056D03*
X143950000Y-187800000D03*
%TD*%
%TO.P,GND5,1,1*%
%TO.N,GND*%
X139150000Y-147800000D03*
X139852944Y-146102944D03*
X139852944Y-149497056D03*
X141550000Y-145400000D03*
D27*
X141550000Y-147800000D03*
D26*
X141550000Y-150200000D03*
X143247056Y-146102944D03*
X143247056Y-149497056D03*
X143950000Y-147800000D03*
%TD*%
D10*
%TO.P,UART1,1,Pin_1*%
%TO.N,GND*%
X80480000Y-157450000D03*
D11*
%TO.P,UART1,2,Pin_2*%
%TO.N,Net-(RPI2-GPIO14{slash}TXD)*%
X83020000Y-157450000D03*
%TO.P,UART1,3,Pin_3*%
%TO.N,Net-(RPI2-GPIO15{slash}RXD)*%
X85560000Y-157450000D03*
%TO.P,UART1,4,Pin_4*%
%TO.N,/5V*%
X88100000Y-157450000D03*
%TD*%
D28*
%TO.P,R6,1*%
%TO.N,Net-(RPI2-GPIO16)*%
X146400000Y-152225000D03*
%TO.P,R6,2*%
%TO.N,Net-(D3-A)*%
X146400000Y-153875000D03*
%TD*%
D33*
%TO.N,GND*%
X149100000Y-163600000D03*
X75350000Y-163600000D03*
X75700000Y-162700000D03*
X149863636Y-156043344D03*
X77700000Y-190550000D03*
X146700000Y-190550000D03*
X109100000Y-158950000D03*
X93100000Y-154450000D03*
X115137500Y-159200000D03*
X113861816Y-161184839D03*
X146750000Y-145050000D03*
%TO.N,Net-(MAN1-AIN3)*%
X97817362Y-154896853D03*
X109137794Y-159900540D03*
X114350000Y-159200000D03*
%TO.N,Net-(MAN1-AIN2)*%
X110850000Y-161200000D03*
X106305625Y-161409704D03*
%TO.N,/5V*%
X78600000Y-148900000D03*
X78650000Y-146550000D03*
X100200000Y-155050000D03*
X98650000Y-156850000D03*
X104800000Y-157050000D03*
X146300000Y-146450000D03*
X117000000Y-162500000D03*
X101150000Y-156800000D03*
X88850000Y-151900000D03*
X96500000Y-156750000D03*
X118550000Y-156150000D03*
X103250000Y-157000000D03*
X78650000Y-151000000D03*
X118350000Y-154500000D03*
X90600000Y-152550000D03*
%TO.N,Net-(MAN1-ADDR)*%
X108633068Y-152989439D03*
X113525735Y-152125735D03*
%TO.N,Net-(MAN1-AIN0)*%
X95650000Y-154550000D03*
X94873791Y-152699257D03*
%TO.N,Net-(MAN1-ALERT{slash}RDY)*%
X109150000Y-153600000D03*
X115100000Y-151400000D03*
%TO.N,Net-(J7-Pin_3)*%
X123600000Y-152900000D03*
%TO.N,Net-(J2-Pin_4)*%
X90850000Y-156700000D03*
%TO.N,Net-(I2C1-Pin_2)*%
X111650000Y-158200000D03*
X117100000Y-157400000D03*
X101162562Y-151587438D03*
X101200000Y-154200000D03*
%TO.N,Net-(I2C1-Pin_3)*%
X101762562Y-152389439D03*
X110550000Y-157200000D03*
X101994116Y-154296853D03*
%TD*%
D34*
%TO.N,GND*%
X75350000Y-163600000D02*
X149100000Y-163600000D01*
D35*
%TO.N,/11.1*%
X112250000Y-177450000D02*
X112250000Y-177500000D01*
X112200000Y-177400000D02*
X112250000Y-177450000D01*
X95976687Y-173923313D02*
X95950000Y-173950000D01*
X95976688Y-173923313D02*
X95976687Y-173923313D01*
X103650000Y-186850000D02*
X103700000Y-186850000D01*
X120600000Y-186750000D02*
X120650000Y-186800000D01*
X128273313Y-173873313D02*
X128350000Y-173950000D01*
D34*
%TO.N,/5V*%
X74700000Y-186700000D02*
X74700000Y-153650000D01*
X76925000Y-188950000D02*
X76925000Y-188925000D01*
X76925000Y-188925000D02*
X74700000Y-186700000D01*
X147475000Y-188950000D02*
X147475000Y-188925000D01*
X147475000Y-188925000D02*
X149700000Y-186700000D01*
X149700000Y-186700000D02*
X149700000Y-162500000D01*
X149700000Y-162500000D02*
X148350000Y-161150000D01*
X148350000Y-161150000D02*
X143750000Y-161150000D01*
%TO.N,GND*%
X107865000Y-163000000D02*
X107025000Y-162160000D01*
X149537500Y-158600000D02*
X149537500Y-160100000D01*
X110705000Y-158925000D02*
X110275000Y-158925000D01*
X142950000Y-149200000D02*
X142744759Y-148994759D01*
X147512500Y-190550000D02*
X146700000Y-190550000D01*
X149537500Y-156369480D02*
X149863636Y-156043344D01*
X114600000Y-161923023D02*
X113861816Y-161184839D01*
X104875000Y-163050000D02*
X106135000Y-163050000D01*
X104025000Y-162200000D02*
X104875000Y-163050000D01*
X76887500Y-190550000D02*
X77700000Y-190550000D01*
X109875000Y-157915000D02*
X109875000Y-158345000D01*
X109845000Y-158925000D02*
X109125000Y-158925000D01*
X110100000Y-162062500D02*
X109162500Y-163000000D01*
X116050000Y-159200000D02*
X115137500Y-159200000D01*
X109875000Y-157485000D02*
X109875000Y-157915000D01*
X149537500Y-157100000D02*
X149537500Y-158600000D01*
X94450000Y-154450000D02*
X93100000Y-154450000D01*
X111600000Y-162062500D02*
X110100000Y-162062500D01*
X106135000Y-163050000D02*
X107025000Y-162160000D01*
X107650000Y-155175000D02*
X109530000Y-157055000D01*
X146300000Y-149200000D02*
X142950000Y-149200000D01*
X92525000Y-153875000D02*
X93100000Y-154450000D01*
X109530000Y-157055000D02*
X109875000Y-157055000D01*
X114600000Y-162062500D02*
X114600000Y-161923023D01*
X113100000Y-162062500D02*
X111600000Y-162062500D01*
X109845000Y-158925000D02*
X110275000Y-158925000D01*
X114600000Y-162062500D02*
X113100000Y-162062500D01*
X109162500Y-163000000D02*
X107865000Y-163000000D01*
X109875000Y-158345000D02*
X109875000Y-158895000D01*
X149537500Y-157100000D02*
X149537500Y-156369480D01*
X147562500Y-145050000D02*
X146750000Y-145050000D01*
X92350000Y-153875000D02*
X92525000Y-153875000D01*
X109875000Y-158895000D02*
X109845000Y-158925000D01*
X109875000Y-157055000D02*
X109875000Y-157485000D01*
X109125000Y-158925000D02*
X109100000Y-158950000D01*
%TO.N,Net-(IMU1-C1)*%
X112425000Y-158925000D02*
X112425000Y-159275000D01*
X113100000Y-159950000D02*
X113100000Y-160337500D01*
X112425000Y-159275000D02*
X113100000Y-159950000D01*
%TO.N,Net-(MAN1-AIN3)*%
X113130000Y-159200000D02*
X112855000Y-158925000D01*
X114350000Y-159200000D02*
X113130000Y-159200000D01*
X114350000Y-158980000D02*
X114350000Y-159200000D01*
X113285000Y-157915000D02*
X114350000Y-158980000D01*
X108800540Y-159900540D02*
X107800000Y-158900000D01*
X108675000Y-160363334D02*
X109137794Y-159900540D01*
X112825000Y-157915000D02*
X113285000Y-157915000D01*
X98750000Y-154950000D02*
X97870509Y-154950000D01*
X114350000Y-159200000D02*
X114350000Y-160087500D01*
X109137794Y-159900540D02*
X108800540Y-159900540D01*
X114350000Y-160087500D02*
X114600000Y-160337500D01*
X108675000Y-162160000D02*
X108675000Y-160660000D01*
X108675000Y-160660000D02*
X108675000Y-160363334D01*
X97870509Y-154950000D02*
X97817362Y-154896853D01*
%TO.N,Net-(D1-A)*%
X149400000Y-155662500D02*
X147962500Y-157100000D01*
X149400000Y-153875000D02*
X149400000Y-155662500D01*
%TO.N,Net-(D2-A)*%
X147000000Y-154775000D02*
X147000000Y-157637500D01*
X147000000Y-157637500D02*
X147962500Y-158600000D01*
X147900000Y-153875000D02*
X147000000Y-154775000D01*
%TO.N,Net-(D3-A)*%
X146400000Y-158537500D02*
X147962500Y-160100000D01*
X146400000Y-153875000D02*
X146400000Y-158537500D01*
%TO.N,Net-(D4-A)*%
X149175000Y-145087500D02*
X149137500Y-145050000D01*
X149175000Y-146650000D02*
X149175000Y-145087500D01*
%TO.N,Net-(D5-A)*%
X149125000Y-188950000D02*
X149125000Y-190512500D01*
X149125000Y-190512500D02*
X149087500Y-190550000D01*
%TO.N,Net-(D6-A)*%
X75312500Y-188987500D02*
X75275000Y-188950000D01*
X75312500Y-190550000D02*
X75312500Y-188987500D01*
%TO.N,Net-(MAN1-AIN2)*%
X100898529Y-155200000D02*
X104025000Y-155200000D01*
X98750000Y-155450000D02*
X99751471Y-155450000D01*
X105675000Y-160025000D02*
X105675000Y-160700000D01*
X105675000Y-162200000D02*
X105675000Y-160700000D01*
X104350000Y-158700000D02*
X105675000Y-160025000D01*
X105675000Y-160779079D02*
X106305625Y-161409704D01*
X110850000Y-161200000D02*
X110850000Y-161087500D01*
X104050000Y-155175000D02*
X104050000Y-158400000D01*
X110850000Y-161087500D02*
X111600000Y-160337500D01*
X111600000Y-160337500D02*
X111600000Y-158960000D01*
X111600000Y-158960000D02*
X111565000Y-158925000D01*
X100448529Y-155650000D02*
X100898529Y-155200000D01*
X99751471Y-155450000D02*
X99951471Y-155650000D01*
X104025000Y-155200000D02*
X104050000Y-155175000D01*
X105675000Y-160700000D02*
X105675000Y-160779079D01*
X104050000Y-158400000D02*
X104350000Y-158700000D01*
X99951471Y-155650000D02*
X100448529Y-155650000D01*
X111995000Y-158925000D02*
X111565000Y-158925000D01*
%TO.N,/5V*%
X74700000Y-153650000D02*
X77350000Y-151000000D01*
X98750000Y-154450000D02*
X99552942Y-154450000D01*
X77350000Y-151000000D02*
X78650000Y-151000000D01*
X100152942Y-155050000D02*
X100200000Y-155050000D01*
X99552942Y-154450000D02*
X100152942Y-155050000D01*
%TO.N,Net-(IMU1-CAP)*%
X111135000Y-159302500D02*
X110100000Y-160337500D01*
X111135000Y-158925000D02*
X111135000Y-159302500D01*
%TO.N,Net-(IMU1-CS_M)*%
X108715000Y-149045000D02*
X111995000Y-152325000D01*
X111995000Y-152325000D02*
X111995000Y-156475000D01*
%TO.N,Net-(IMU1-DRDY_M)*%
X106175000Y-146505000D02*
X107450000Y-147780000D01*
X107450000Y-149600000D02*
X108350000Y-150500000D01*
X108350000Y-150500000D02*
X109350000Y-150500000D01*
X111565000Y-152715000D02*
X111565000Y-156475000D01*
X109350000Y-150500000D02*
X111565000Y-152715000D01*
X107450000Y-147780000D02*
X107450000Y-149600000D01*
%TO.N,Net-(IMU1-INT2_A{slash}G)*%
X102350000Y-149550000D02*
X104557843Y-151757843D01*
X110305000Y-153500000D02*
X110275000Y-153530000D01*
X101095000Y-146505000D02*
X102350000Y-147760000D01*
X108850000Y-151757843D02*
X110305000Y-153212843D01*
X110305000Y-153212843D02*
X110305000Y-153500000D01*
X102350000Y-147760000D02*
X102350000Y-149550000D01*
X110275000Y-153530000D02*
X110275000Y-156475000D01*
X104557843Y-151757843D02*
X108850000Y-151757843D01*
%TO.N,Net-(IMU1-DEN_A{slash}G)*%
X99800000Y-149600000D02*
X101187438Y-150987438D01*
X96015000Y-146505000D02*
X97310000Y-147800000D01*
X108650000Y-152157843D02*
X109845000Y-153352843D01*
X109845000Y-153352843D02*
X109845000Y-156475000D01*
X101411091Y-150987438D02*
X102581496Y-152157843D01*
X97310000Y-147800000D02*
X99100000Y-147800000D01*
X99800000Y-148500000D02*
X99800000Y-149600000D01*
X102581496Y-152157843D02*
X108650000Y-152157843D01*
X101187438Y-150987438D02*
X101411091Y-150987438D01*
X99100000Y-147800000D02*
X99800000Y-148500000D01*
%TO.N,Net-(IMU1-INT_M)*%
X109242157Y-150957843D02*
X111135000Y-152850686D01*
X108087843Y-150957843D02*
X109242157Y-150957843D01*
X106175000Y-149045000D02*
X108087843Y-150957843D01*
X111135000Y-152850686D02*
X111135000Y-156475000D01*
%TO.N,Net-(IMU1-SDO_A{slash}G)*%
X113405000Y-157055000D02*
X112825000Y-157055000D01*
X121415000Y-149045000D02*
X113405000Y-157055000D01*
%TO.N,Net-(IMU1-CS_A{slash}G)*%
X118875000Y-149045000D02*
X112425000Y-155495000D01*
X112425000Y-155495000D02*
X112425000Y-156475000D01*
%TO.N,Net-(IMU1-SDO_M)*%
X120150000Y-147770000D02*
X120150000Y-149550000D01*
X113225000Y-156475000D02*
X112855000Y-156475000D01*
X120150000Y-149550000D02*
X113225000Y-156475000D01*
X121415000Y-146505000D02*
X120150000Y-147770000D01*
%TO.N,Net-(IMU1-INT1_A{slash}G)*%
X104900000Y-147770000D02*
X104900000Y-149600000D01*
X106657843Y-151357843D02*
X109050000Y-151357843D01*
X110705000Y-153012843D02*
X110705000Y-156475000D01*
X103635000Y-146505000D02*
X104900000Y-147770000D01*
X109050000Y-151357843D02*
X110705000Y-153012843D01*
X104900000Y-149600000D02*
X106657843Y-151357843D01*
%TO.N,Net-(MAN1-ADDR)*%
X97618628Y-152550000D02*
X99915686Y-152550000D01*
X113525735Y-152125735D02*
X113550000Y-152150000D01*
X116335000Y-151015000D02*
X116335000Y-149045000D01*
X99915686Y-152550000D02*
X100355125Y-152989439D01*
X94450000Y-153450000D02*
X96718628Y-153450000D01*
X96718628Y-153450000D02*
X97618628Y-152550000D01*
X113550000Y-152150000D02*
X115200000Y-152150000D01*
X100355125Y-152989439D02*
X108633068Y-152989439D01*
X115200000Y-152150000D02*
X116335000Y-151015000D01*
%TO.N,Net-(MAN1-AIN0)*%
X92361905Y-152699257D02*
X89650000Y-149987352D01*
X95650000Y-154550000D02*
X95250000Y-154950000D01*
X108715000Y-146505000D02*
X107410000Y-145200000D01*
X94873791Y-152699257D02*
X92361905Y-152699257D01*
X89650000Y-147760000D02*
X88395000Y-146505000D01*
X89700000Y-145200000D02*
X88395000Y-146505000D01*
X95250000Y-154950000D02*
X94450000Y-154950000D01*
X89650000Y-149987352D02*
X89650000Y-147760000D01*
X107410000Y-145200000D02*
X89700000Y-145200000D01*
%TO.N,Net-(MAN1-ALERT{slash}RDY)*%
X94450000Y-153950000D02*
X96784314Y-153950000D01*
X96784314Y-153950000D02*
X97784314Y-152950000D01*
X100400000Y-153600000D02*
X109150000Y-153600000D01*
X115100000Y-147740000D02*
X116335000Y-146505000D01*
X99750000Y-152950000D02*
X100400000Y-153600000D01*
X97784314Y-152950000D02*
X99750000Y-152950000D01*
X115100000Y-151400000D02*
X115100000Y-147740000D01*
%TO.N,Net-(MAN1-AIN1)*%
X92425000Y-155450000D02*
X92350000Y-155525000D01*
X92350000Y-155375000D02*
X90850000Y-153875000D01*
X94450000Y-155450000D02*
X92425000Y-155450000D01*
X92350000Y-155525000D02*
X92350000Y-155375000D01*
%TO.N,Net-(D7-A)*%
X117625000Y-160762500D02*
X117662500Y-160800000D01*
X117625000Y-159200000D02*
X117625000Y-160762500D01*
%TO.N,Net-(J1-Pin_3)*%
X135100000Y-155100000D02*
X135100000Y-156060000D01*
X130300000Y-147780000D02*
X130300000Y-150300000D01*
X130300000Y-150300000D02*
X135100000Y-155100000D01*
X131575000Y-146505000D02*
X130300000Y-147780000D01*
%TO.N,Net-(J3-Pin_3)*%
X131350000Y-155100000D02*
X131350000Y-156060000D01*
X127750000Y-147790000D02*
X127750000Y-151500000D01*
X127750000Y-151500000D02*
X131350000Y-155100000D01*
X129035000Y-146505000D02*
X127750000Y-147790000D01*
%TO.N,Net-(J4-Pin_3)*%
X126495000Y-149045000D02*
X126495000Y-152195000D01*
X127600000Y-153300000D02*
X127600000Y-156060000D01*
X126495000Y-152195000D02*
X127600000Y-153300000D01*
%TO.N,Net-(J7-Pin_3)*%
X123850000Y-156060000D02*
X123850000Y-153150000D01*
X123850000Y-153150000D02*
X123600000Y-152900000D01*
%TO.N,Net-(J2-Pin_4)*%
X90850000Y-156700000D02*
X90850000Y-155525000D01*
%TO.N,Net-(RPI2-GPIO21{slash}SCLK1)*%
X139035000Y-151425000D02*
X143575000Y-151425000D01*
X136655000Y-149045000D02*
X139035000Y-151425000D01*
X143950000Y-151050000D02*
X148225000Y-151050000D01*
X148225000Y-151050000D02*
X149400000Y-152225000D01*
X143575000Y-151425000D02*
X143950000Y-151050000D01*
%TO.N,Net-(RPI2-GPIO20{slash}MOSI1)*%
X147125000Y-151450000D02*
X147900000Y-152225000D01*
X143740686Y-151825000D02*
X144115686Y-151450000D01*
X134115000Y-149045000D02*
X136895000Y-151825000D01*
X144115686Y-151450000D02*
X147125000Y-151450000D01*
X136895000Y-151825000D02*
X143740686Y-151825000D01*
%TO.N,Net-(RPI2-GPIO16)*%
X134755000Y-152225000D02*
X146400000Y-152225000D01*
X131575000Y-149045000D02*
X134755000Y-152225000D01*
%TO.N,Net-(I2C1-Pin_2)*%
X97850000Y-153450000D02*
X98750000Y-153450000D01*
X85020000Y-159200000D02*
X91100000Y-159200000D01*
X94750000Y-147780000D02*
X94750000Y-149600000D01*
X111650000Y-158200000D02*
X111795000Y-158345000D01*
X94750000Y-149600000D02*
X96737438Y-151587438D01*
X100234314Y-154000000D02*
X99684314Y-153450000D01*
X91100000Y-159200000D02*
X94000000Y-156300000D01*
X101200000Y-154200000D02*
X101000000Y-154000000D01*
X83020000Y-161200000D02*
X85020000Y-159200000D01*
X94000000Y-156300000D02*
X95000000Y-156300000D01*
X99684314Y-153450000D02*
X98750000Y-153450000D01*
X96737438Y-151587438D02*
X101162562Y-151587438D01*
X95000000Y-156300000D02*
X97850000Y-153450000D01*
X111795000Y-158345000D02*
X112825000Y-158345000D01*
X101000000Y-154000000D02*
X100234314Y-154000000D01*
X93475000Y-146505000D02*
X94750000Y-147780000D01*
%TO.N,Net-(I2C1-Pin_3)*%
X114715000Y-157485000D02*
X114800000Y-157400000D01*
X94350000Y-156700000D02*
X95165685Y-156700000D01*
X111900000Y-157200000D02*
X112185000Y-157485000D01*
X95123063Y-152100000D02*
X100850000Y-152100000D01*
X94749257Y-152099257D02*
X95122320Y-152099257D01*
X95165685Y-156700000D02*
X97915685Y-153950000D01*
X101490969Y-154800000D02*
X100951471Y-154800000D01*
X91350000Y-159700000D02*
X94350000Y-156700000D01*
X112185000Y-157485000D02*
X112825000Y-157485000D01*
X95122320Y-152099257D02*
X95123063Y-152100000D01*
X100068628Y-154400000D02*
X99618628Y-153950000D01*
X101994116Y-154296853D02*
X101490969Y-154800000D01*
X92200000Y-147770000D02*
X92200000Y-149550000D01*
X87060000Y-159700000D02*
X91350000Y-159700000D01*
X100551471Y-154400000D02*
X100068628Y-154400000D01*
X97915685Y-153950000D02*
X98750000Y-153950000D01*
X85560000Y-161200000D02*
X87060000Y-159700000D01*
X101139439Y-152389439D02*
X101762562Y-152389439D01*
X90935000Y-146505000D02*
X92200000Y-147770000D01*
X92200000Y-149550000D02*
X94749257Y-152099257D01*
X99618628Y-153950000D02*
X98750000Y-153950000D01*
X100850000Y-152100000D02*
X101139439Y-152389439D01*
X112825000Y-157485000D02*
X114715000Y-157485000D01*
X110550000Y-157200000D02*
X111900000Y-157200000D01*
X100951471Y-154800000D02*
X100551471Y-154400000D01*
%TD*%
%TA.AperFunction,Conductor*%
%TO.N,/5V*%
G36*
X81434798Y-144520185D02*
G01*
X81480553Y-144572989D01*
X81490497Y-144642147D01*
X81461472Y-144705703D01*
X81435294Y-144728495D01*
X81321917Y-144802122D01*
X81020488Y-145046215D01*
X81020480Y-145046222D01*
X80746222Y-145320480D01*
X80746215Y-145320488D01*
X80502122Y-145621917D01*
X80290877Y-145947206D01*
X80114787Y-146292802D01*
X79975788Y-146654905D01*
X79875397Y-147029570D01*
X79875397Y-147029572D01*
X79814722Y-147412660D01*
X79794422Y-147799999D01*
X79794422Y-147800000D01*
X79814722Y-148187339D01*
X79848845Y-148402783D01*
X79875398Y-148570433D01*
X79935570Y-148795000D01*
X79975788Y-148945094D01*
X80114787Y-149307197D01*
X80290877Y-149652793D01*
X80502122Y-149978082D01*
X80620805Y-150124643D01*
X80746219Y-150279516D01*
X81020484Y-150553781D01*
X81100682Y-150618724D01*
X81321917Y-150797877D01*
X81647206Y-151009122D01*
X81647211Y-151009125D01*
X81992806Y-151185214D01*
X82354913Y-151324214D01*
X82729567Y-151424602D01*
X83112662Y-151485278D01*
X83478576Y-151504455D01*
X83499999Y-151505578D01*
X83500000Y-151505578D01*
X83500001Y-151505578D01*
X83520301Y-151504514D01*
X83887338Y-151485278D01*
X84270433Y-151424602D01*
X84645087Y-151324214D01*
X85007194Y-151185214D01*
X85352789Y-151009125D01*
X85678084Y-150797876D01*
X85979516Y-150553781D01*
X86253781Y-150279516D01*
X86497876Y-149978084D01*
X86691439Y-149680023D01*
X86709124Y-149652791D01*
X86709125Y-149652789D01*
X86858110Y-149360387D01*
X86906083Y-149309592D01*
X86973904Y-149292797D01*
X87040039Y-149315334D01*
X87083491Y-149370049D01*
X87088369Y-149384589D01*
X87121567Y-149508485D01*
X87121570Y-149508492D01*
X87221399Y-149722578D01*
X87356894Y-149916082D01*
X87523917Y-150083105D01*
X87717421Y-150218600D01*
X87931507Y-150318429D01*
X87931516Y-150318433D01*
X88145000Y-150375634D01*
X88145000Y-149478012D01*
X88202007Y-149510925D01*
X88329174Y-149545000D01*
X88460826Y-149545000D01*
X88587993Y-149510925D01*
X88645000Y-149478012D01*
X88645000Y-150375633D01*
X88858483Y-150318433D01*
X88858492Y-150318429D01*
X88983414Y-150260178D01*
X89052492Y-150249686D01*
X89116276Y-150278206D01*
X89143205Y-150310559D01*
X89163947Y-150346485D01*
X89169479Y-150356066D01*
X89169481Y-150356069D01*
X89288349Y-150474937D01*
X89288355Y-150474942D01*
X91710585Y-152897172D01*
X91744070Y-152958495D01*
X91739086Y-153028187D01*
X91697214Y-153084120D01*
X91687057Y-153090968D01*
X91664153Y-153104815D01*
X91596599Y-153122653D01*
X91535850Y-153104817D01*
X91521478Y-153096129D01*
X91414606Y-153031522D01*
X91252196Y-152980914D01*
X91252194Y-152980913D01*
X91252192Y-152980913D01*
X91202778Y-152976423D01*
X91181616Y-152974500D01*
X90518384Y-152974500D01*
X90499145Y-152976248D01*
X90447807Y-152980913D01*
X90285393Y-153031522D01*
X90139811Y-153119530D01*
X90019530Y-153239811D01*
X89931522Y-153385393D01*
X89880913Y-153547807D01*
X89874500Y-153618386D01*
X89874500Y-154131613D01*
X89880913Y-154202192D01*
X89880913Y-154202194D01*
X89880914Y-154202196D01*
X89931522Y-154364606D01*
X89944095Y-154385405D01*
X90019530Y-154510188D01*
X90121661Y-154612319D01*
X90155146Y-154673642D01*
X90150162Y-154743334D01*
X90121661Y-154787681D01*
X90019531Y-154889810D01*
X90019530Y-154889811D01*
X89931522Y-155035393D01*
X89880913Y-155197807D01*
X89874500Y-155268386D01*
X89874500Y-155781613D01*
X89880913Y-155852192D01*
X89880913Y-155852194D01*
X89880914Y-155852196D01*
X89931522Y-156014606D01*
X90017121Y-156156204D01*
X90019530Y-156160188D01*
X90091307Y-156231965D01*
X90124792Y-156293288D01*
X90120668Y-156360600D01*
X90064632Y-156520742D01*
X90064630Y-156520750D01*
X90044435Y-156699996D01*
X90044435Y-156700003D01*
X90064630Y-156879249D01*
X90064631Y-156879254D01*
X90124211Y-157049523D01*
X90218762Y-157199999D01*
X90220184Y-157202262D01*
X90347738Y-157329816D01*
X90423644Y-157377511D01*
X90497178Y-157423716D01*
X90500478Y-157425789D01*
X90640701Y-157474855D01*
X90670745Y-157485368D01*
X90670750Y-157485369D01*
X90849996Y-157505565D01*
X90850000Y-157505565D01*
X90850004Y-157505565D01*
X91029249Y-157485369D01*
X91029252Y-157485368D01*
X91029255Y-157485368D01*
X91199522Y-157425789D01*
X91352262Y-157329816D01*
X91479816Y-157202262D01*
X91575789Y-157049522D01*
X91635368Y-156879255D01*
X91639626Y-156841467D01*
X91655565Y-156700003D01*
X91655565Y-156699996D01*
X91635369Y-156520747D01*
X91634416Y-156516572D01*
X91638691Y-156446833D01*
X91679992Y-156390477D01*
X91745204Y-156365395D01*
X91792192Y-156370596D01*
X91947804Y-156419086D01*
X92018384Y-156425500D01*
X92018387Y-156425500D01*
X92681610Y-156425500D01*
X92681616Y-156425500D01*
X92718547Y-156422143D01*
X92787090Y-156435678D01*
X92837436Y-156484124D01*
X92853599Y-156552098D01*
X92830447Y-156618020D01*
X92817449Y-156633315D01*
X90887584Y-158563181D01*
X90826261Y-158596666D01*
X90799903Y-158599500D01*
X89159050Y-158599500D01*
X89092011Y-158579815D01*
X89046256Y-158527011D01*
X89036312Y-158457853D01*
X89065337Y-158394297D01*
X89071369Y-158387819D01*
X89138105Y-158321082D01*
X89273600Y-158127578D01*
X89373429Y-157913492D01*
X89373432Y-157913486D01*
X89430636Y-157700000D01*
X88533012Y-157700000D01*
X88565925Y-157642993D01*
X88600000Y-157515826D01*
X88600000Y-157384174D01*
X88565925Y-157257007D01*
X88533012Y-157200000D01*
X89430636Y-157200000D01*
X89430635Y-157199999D01*
X89373432Y-156986513D01*
X89373429Y-156986507D01*
X89273600Y-156772422D01*
X89273599Y-156772420D01*
X89138113Y-156578926D01*
X89138108Y-156578920D01*
X88971082Y-156411894D01*
X88777578Y-156276399D01*
X88563492Y-156176570D01*
X88563486Y-156176567D01*
X88350000Y-156119364D01*
X88350000Y-157016988D01*
X88292993Y-156984075D01*
X88165826Y-156950000D01*
X88034174Y-156950000D01*
X87907007Y-156984075D01*
X87850000Y-157016988D01*
X87850000Y-156119364D01*
X87849999Y-156119364D01*
X87636513Y-156176567D01*
X87636507Y-156176570D01*
X87422422Y-156276399D01*
X87422420Y-156276400D01*
X87228926Y-156411886D01*
X87228920Y-156411891D01*
X87061891Y-156578920D01*
X87061890Y-156578922D01*
X86931880Y-156764595D01*
X86877303Y-156808219D01*
X86807804Y-156815412D01*
X86745450Y-156783890D01*
X86728730Y-156764594D01*
X86598494Y-156578597D01*
X86431402Y-156411506D01*
X86431395Y-156411501D01*
X86237834Y-156275967D01*
X86237830Y-156275965D01*
X86183220Y-156250500D01*
X86023663Y-156176097D01*
X86023659Y-156176096D01*
X86023655Y-156176094D01*
X85795413Y-156114938D01*
X85795403Y-156114936D01*
X85560001Y-156094341D01*
X85559999Y-156094341D01*
X85324596Y-156114936D01*
X85324586Y-156114938D01*
X85096344Y-156176094D01*
X85096335Y-156176098D01*
X84882171Y-156275964D01*
X84882169Y-156275965D01*
X84688597Y-156411505D01*
X84521505Y-156578597D01*
X84391575Y-156764158D01*
X84336998Y-156807783D01*
X84267500Y-156814977D01*
X84205145Y-156783454D01*
X84188425Y-156764158D01*
X84058494Y-156578597D01*
X83891402Y-156411506D01*
X83891395Y-156411501D01*
X83697834Y-156275967D01*
X83697830Y-156275965D01*
X83643220Y-156250500D01*
X83483663Y-156176097D01*
X83483659Y-156176096D01*
X83483655Y-156176094D01*
X83255413Y-156114938D01*
X83255403Y-156114936D01*
X83020001Y-156094341D01*
X83019999Y-156094341D01*
X82784596Y-156114936D01*
X82784586Y-156114938D01*
X82556344Y-156176094D01*
X82556335Y-156176098D01*
X82342171Y-156275964D01*
X82342169Y-156275965D01*
X82148600Y-156411503D01*
X82026673Y-156533430D01*
X81965350Y-156566914D01*
X81895658Y-156561930D01*
X81839725Y-156520058D01*
X81822810Y-156489081D01*
X81773797Y-156357671D01*
X81773793Y-156357664D01*
X81687547Y-156242455D01*
X81687544Y-156242452D01*
X81572335Y-156156206D01*
X81572328Y-156156202D01*
X81437482Y-156105908D01*
X81437483Y-156105908D01*
X81377883Y-156099501D01*
X81377881Y-156099500D01*
X81377873Y-156099500D01*
X81377864Y-156099500D01*
X79582129Y-156099500D01*
X79582123Y-156099501D01*
X79522516Y-156105908D01*
X79387671Y-156156202D01*
X79387664Y-156156206D01*
X79272455Y-156242452D01*
X79272452Y-156242455D01*
X79186206Y-156357664D01*
X79186202Y-156357671D01*
X79135908Y-156492517D01*
X79129501Y-156552116D01*
X79129500Y-156552135D01*
X79129500Y-158347870D01*
X79129501Y-158347876D01*
X79135908Y-158407483D01*
X79186202Y-158542328D01*
X79186206Y-158542335D01*
X79272452Y-158657544D01*
X79272455Y-158657547D01*
X79387664Y-158743793D01*
X79387671Y-158743797D01*
X79522517Y-158794091D01*
X79522516Y-158794091D01*
X79529444Y-158794835D01*
X79582127Y-158800500D01*
X81377872Y-158800499D01*
X81437483Y-158794091D01*
X81572331Y-158743796D01*
X81687546Y-158657546D01*
X81773796Y-158542331D01*
X81822810Y-158410916D01*
X81864681Y-158354984D01*
X81930145Y-158330566D01*
X81998418Y-158345417D01*
X82026673Y-158366569D01*
X82148599Y-158488495D01*
X82231037Y-158546219D01*
X82342165Y-158624032D01*
X82342167Y-158624033D01*
X82342170Y-158624035D01*
X82556337Y-158723903D01*
X82556343Y-158723904D01*
X82556344Y-158723905D01*
X82597752Y-158735000D01*
X82784592Y-158785063D01*
X82961034Y-158800500D01*
X83019999Y-158805659D01*
X83020000Y-158805659D01*
X83020001Y-158805659D01*
X83059234Y-158802226D01*
X83255408Y-158785063D01*
X83483663Y-158723903D01*
X83697830Y-158624035D01*
X83891401Y-158488495D01*
X84058495Y-158321401D01*
X84188425Y-158135842D01*
X84243002Y-158092217D01*
X84312500Y-158085023D01*
X84374855Y-158116546D01*
X84391575Y-158135842D01*
X84521501Y-158321396D01*
X84521506Y-158321402D01*
X84688595Y-158488492D01*
X84688598Y-158488494D01*
X84688599Y-158488495D01*
X84693095Y-158491643D01*
X84736720Y-158546219D01*
X84743915Y-158615717D01*
X84712394Y-158678072D01*
X84683974Y-158700605D01*
X84651290Y-158719475D01*
X84651282Y-158719481D01*
X84539478Y-158831286D01*
X83503530Y-159867233D01*
X83442207Y-159900718D01*
X83383756Y-159899327D01*
X83255413Y-159864938D01*
X83255403Y-159864936D01*
X83020001Y-159844341D01*
X83019999Y-159844341D01*
X82784596Y-159864936D01*
X82784586Y-159864938D01*
X82556344Y-159926094D01*
X82556335Y-159926098D01*
X82342171Y-160025964D01*
X82342169Y-160025965D01*
X82148600Y-160161503D01*
X82026673Y-160283430D01*
X81965350Y-160316914D01*
X81895658Y-160311930D01*
X81839725Y-160270058D01*
X81822810Y-160239081D01*
X81773797Y-160107671D01*
X81773793Y-160107664D01*
X81687547Y-159992455D01*
X81687544Y-159992452D01*
X81572335Y-159906206D01*
X81572328Y-159906202D01*
X81437482Y-159855908D01*
X81437483Y-159855908D01*
X81377883Y-159849501D01*
X81377881Y-159849500D01*
X81377873Y-159849500D01*
X81377864Y-159849500D01*
X79582129Y-159849500D01*
X79582123Y-159849501D01*
X79522516Y-159855908D01*
X79387671Y-159906202D01*
X79387664Y-159906206D01*
X79272455Y-159992452D01*
X79272452Y-159992455D01*
X79186206Y-160107664D01*
X79186202Y-160107671D01*
X79135908Y-160242517D01*
X79131994Y-160278926D01*
X79129501Y-160302123D01*
X79129500Y-160302135D01*
X79129500Y-162097870D01*
X79129501Y-162097876D01*
X79135908Y-162157483D01*
X79186202Y-162292328D01*
X79186206Y-162292335D01*
X79272452Y-162407544D01*
X79272455Y-162407547D01*
X79387664Y-162493793D01*
X79387671Y-162493797D01*
X79522517Y-162544091D01*
X79522516Y-162544091D01*
X79529444Y-162544835D01*
X79582127Y-162550500D01*
X81377872Y-162550499D01*
X81437483Y-162544091D01*
X81572331Y-162493796D01*
X81687546Y-162407546D01*
X81773796Y-162292331D01*
X81822810Y-162160916D01*
X81864681Y-162104984D01*
X81930145Y-162080566D01*
X81998418Y-162095417D01*
X82026673Y-162116569D01*
X82148599Y-162238495D01*
X82245384Y-162306265D01*
X82342165Y-162374032D01*
X82342167Y-162374033D01*
X82342170Y-162374035D01*
X82556337Y-162473903D01*
X82556343Y-162473904D01*
X82556344Y-162473905D01*
X82611285Y-162488626D01*
X82784592Y-162535063D01*
X82961034Y-162550500D01*
X83019999Y-162555659D01*
X83020000Y-162555659D01*
X83020001Y-162555659D01*
X83078966Y-162550500D01*
X83255408Y-162535063D01*
X83483663Y-162473903D01*
X83697830Y-162374035D01*
X83891401Y-162238495D01*
X84058495Y-162071401D01*
X84188425Y-161885842D01*
X84243002Y-161842217D01*
X84312500Y-161835023D01*
X84374855Y-161866546D01*
X84391575Y-161885842D01*
X84521281Y-162071082D01*
X84521505Y-162071401D01*
X84688599Y-162238495D01*
X84785384Y-162306265D01*
X84882165Y-162374032D01*
X84882167Y-162374033D01*
X84882170Y-162374035D01*
X85096337Y-162473903D01*
X85096343Y-162473904D01*
X85096344Y-162473905D01*
X85151285Y-162488626D01*
X85324592Y-162535063D01*
X85501034Y-162550500D01*
X85559999Y-162555659D01*
X85560000Y-162555659D01*
X85560001Y-162555659D01*
X85618966Y-162550500D01*
X85795408Y-162535063D01*
X86023663Y-162473903D01*
X86237830Y-162374035D01*
X86431401Y-162238495D01*
X86598495Y-162071401D01*
X86728730Y-161885405D01*
X86783307Y-161841781D01*
X86852805Y-161834587D01*
X86915160Y-161866110D01*
X86931879Y-161885405D01*
X87061890Y-162071078D01*
X87228917Y-162238105D01*
X87422421Y-162373600D01*
X87636507Y-162473429D01*
X87636516Y-162473433D01*
X87850000Y-162530634D01*
X87850000Y-161633012D01*
X87907007Y-161665925D01*
X88034174Y-161700000D01*
X88165826Y-161700000D01*
X88292993Y-161665925D01*
X88350000Y-161633012D01*
X88350000Y-162530633D01*
X88563483Y-162473433D01*
X88563492Y-162473429D01*
X88777578Y-162373600D01*
X88971082Y-162238105D01*
X89138105Y-162071082D01*
X89273600Y-161877578D01*
X89373429Y-161663492D01*
X89373432Y-161663486D01*
X89430636Y-161450000D01*
X88533012Y-161450000D01*
X88565925Y-161392993D01*
X88600000Y-161265826D01*
X88600000Y-161134174D01*
X88565925Y-161007007D01*
X88533012Y-160950000D01*
X89430636Y-160950000D01*
X89430635Y-160949999D01*
X89373432Y-160736513D01*
X89373429Y-160736507D01*
X89273600Y-160522422D01*
X89273598Y-160522418D01*
X89254836Y-160495624D01*
X89232508Y-160429418D01*
X89249518Y-160361651D01*
X89300465Y-160313838D01*
X89356410Y-160300500D01*
X91263331Y-160300500D01*
X91263347Y-160300501D01*
X91375500Y-160300501D01*
X91442539Y-160320186D01*
X91488294Y-160372990D01*
X91499500Y-160424501D01*
X91499500Y-160431286D01*
X91524243Y-160587511D01*
X91532754Y-160641243D01*
X91592785Y-160826000D01*
X91598444Y-160843414D01*
X91694951Y-161032820D01*
X91819890Y-161204786D01*
X91970213Y-161355109D01*
X92142179Y-161480048D01*
X92142181Y-161480049D01*
X92142184Y-161480051D01*
X92331588Y-161576557D01*
X92533757Y-161642246D01*
X92743713Y-161675500D01*
X92743714Y-161675500D01*
X92956286Y-161675500D01*
X92956287Y-161675500D01*
X93166243Y-161642246D01*
X93368412Y-161576557D01*
X93557816Y-161480051D01*
X93667998Y-161400000D01*
X93729786Y-161355109D01*
X93729788Y-161355106D01*
X93729792Y-161355104D01*
X93880104Y-161204792D01*
X93999683Y-161040204D01*
X94055011Y-160997540D01*
X94124624Y-160991561D01*
X94186420Y-161024166D01*
X94200313Y-161040199D01*
X94293667Y-161168690D01*
X94319896Y-161204792D01*
X94470213Y-161355109D01*
X94642179Y-161480048D01*
X94642181Y-161480049D01*
X94642184Y-161480051D01*
X94831588Y-161576557D01*
X95033757Y-161642246D01*
X95243713Y-161675500D01*
X95243714Y-161675500D01*
X95456286Y-161675500D01*
X95456287Y-161675500D01*
X95666243Y-161642246D01*
X95868412Y-161576557D01*
X96057816Y-161480051D01*
X96167998Y-161400000D01*
X96229786Y-161355109D01*
X96229788Y-161355106D01*
X96229792Y-161355104D01*
X96380104Y-161204792D01*
X96499683Y-161040204D01*
X96555011Y-160997540D01*
X96624624Y-160991561D01*
X96686420Y-161024166D01*
X96700313Y-161040199D01*
X96793667Y-161168690D01*
X96819896Y-161204792D01*
X96970213Y-161355109D01*
X97142179Y-161480048D01*
X97142181Y-161480049D01*
X97142184Y-161480051D01*
X97331588Y-161576557D01*
X97533757Y-161642246D01*
X97743713Y-161675500D01*
X97743714Y-161675500D01*
X97956286Y-161675500D01*
X97956287Y-161675500D01*
X98166243Y-161642246D01*
X98368412Y-161576557D01*
X98557816Y-161480051D01*
X98729792Y-161355104D01*
X98868604Y-161216291D01*
X98929923Y-161182809D01*
X98999615Y-161187793D01*
X99055549Y-161229664D01*
X99061821Y-161238878D01*
X99065185Y-161244333D01*
X99065186Y-161244334D01*
X99157288Y-161393656D01*
X99281344Y-161517712D01*
X99430666Y-161609814D01*
X99597203Y-161664999D01*
X99699991Y-161675500D01*
X101000008Y-161675499D01*
X101102797Y-161664999D01*
X101269334Y-161609814D01*
X101418656Y-161517712D01*
X101542712Y-161393656D01*
X101634814Y-161244334D01*
X101689999Y-161077797D01*
X101700500Y-160975009D01*
X101700499Y-159424992D01*
X101692838Y-159350000D01*
X101689999Y-159322203D01*
X101689998Y-159322200D01*
X101684042Y-159304225D01*
X101634814Y-159155666D01*
X101542712Y-159006344D01*
X101418656Y-158882288D01*
X101294420Y-158805659D01*
X101269336Y-158790187D01*
X101269331Y-158790185D01*
X101249890Y-158783743D01*
X101102797Y-158735001D01*
X101102795Y-158735000D01*
X101000010Y-158724500D01*
X99699998Y-158724500D01*
X99699981Y-158724501D01*
X99597203Y-158735000D01*
X99597200Y-158735001D01*
X99430668Y-158790185D01*
X99430663Y-158790187D01*
X99281342Y-158882289D01*
X99157289Y-159006342D01*
X99061821Y-159161121D01*
X99009873Y-159207845D01*
X98940910Y-159219068D01*
X98876828Y-159191224D01*
X98868601Y-159183705D01*
X98729786Y-159044890D01*
X98557820Y-158919951D01*
X98368414Y-158823444D01*
X98368413Y-158823443D01*
X98368412Y-158823443D01*
X98166243Y-158757754D01*
X98166241Y-158757753D01*
X98166240Y-158757753D01*
X98004957Y-158732208D01*
X97956287Y-158724500D01*
X97743713Y-158724500D01*
X97695042Y-158732208D01*
X97533760Y-158757753D01*
X97331585Y-158823444D01*
X97142179Y-158919951D01*
X96970213Y-159044890D01*
X96819894Y-159195209D01*
X96819890Y-159195214D01*
X96700318Y-159359793D01*
X96644989Y-159402459D01*
X96575375Y-159408438D01*
X96513580Y-159375833D01*
X96499682Y-159359793D01*
X96380109Y-159195214D01*
X96380105Y-159195209D01*
X96229786Y-159044890D01*
X96057820Y-158919951D01*
X95868414Y-158823444D01*
X95868413Y-158823443D01*
X95868412Y-158823443D01*
X95666243Y-158757754D01*
X95666241Y-158757753D01*
X95666240Y-158757753D01*
X95504957Y-158732208D01*
X95456287Y-158724500D01*
X95243713Y-158724500D01*
X95195042Y-158732208D01*
X95033760Y-158757753D01*
X94831585Y-158823444D01*
X94642179Y-158919951D01*
X94470213Y-159044890D01*
X94319894Y-159195209D01*
X94319890Y-159195214D01*
X94200318Y-159359793D01*
X94144989Y-159402459D01*
X94075375Y-159408438D01*
X94013580Y-159375833D01*
X93999682Y-159359793D01*
X93880109Y-159195214D01*
X93880105Y-159195209D01*
X93729786Y-159044890D01*
X93557820Y-158919951D01*
X93368414Y-158823444D01*
X93368413Y-158823443D01*
X93368412Y-158823443D01*
X93339997Y-158814210D01*
X93282322Y-158774773D01*
X93255124Y-158710415D01*
X93267039Y-158641568D01*
X93290632Y-158608602D01*
X94562417Y-157336819D01*
X94623740Y-157303334D01*
X94650098Y-157300500D01*
X95079016Y-157300500D01*
X95079032Y-157300501D01*
X95086628Y-157300501D01*
X95244739Y-157300501D01*
X95244742Y-157300501D01*
X95397470Y-157259577D01*
X95447589Y-157230639D01*
X95534401Y-157180520D01*
X95646205Y-157068716D01*
X95646205Y-157068714D01*
X95656413Y-157058507D01*
X95656415Y-157058504D01*
X97167277Y-155547641D01*
X97228598Y-155514158D01*
X97298290Y-155519142D01*
X97320924Y-155530328D01*
X97348480Y-155547643D01*
X97467837Y-155622641D01*
X97638107Y-155682221D01*
X97644894Y-155683770D01*
X97644301Y-155686366D01*
X97697501Y-155708715D01*
X97735396Y-155761543D01*
X97756203Y-155817330D01*
X97756206Y-155817335D01*
X97842452Y-155932544D01*
X97842455Y-155932547D01*
X97957664Y-156018793D01*
X97957671Y-156018797D01*
X98092517Y-156069091D01*
X98092516Y-156069091D01*
X98099444Y-156069835D01*
X98152127Y-156075500D01*
X99347872Y-156075499D01*
X99407483Y-156069091D01*
X99415733Y-156066013D01*
X99485424Y-156061028D01*
X99546745Y-156094510D01*
X99582755Y-156130520D01*
X99582757Y-156130521D01*
X99582761Y-156130524D01*
X99692109Y-156193655D01*
X99719687Y-156209577D01*
X99872414Y-156250501D01*
X99872416Y-156250501D01*
X100038125Y-156250501D01*
X100038141Y-156250500D01*
X100361860Y-156250500D01*
X100361876Y-156250501D01*
X100369472Y-156250501D01*
X100527583Y-156250501D01*
X100527586Y-156250501D01*
X100680314Y-156209577D01*
X100730433Y-156180639D01*
X100817245Y-156130520D01*
X100929049Y-156018716D01*
X100929050Y-156018713D01*
X101110946Y-155836816D01*
X101172269Y-155803334D01*
X101198626Y-155800500D01*
X102144846Y-155800500D01*
X102211885Y-155820185D01*
X102257640Y-155872989D01*
X102262552Y-155885496D01*
X102315185Y-156044331D01*
X102315187Y-156044336D01*
X102328558Y-156066014D01*
X102407288Y-156193656D01*
X102531344Y-156317712D01*
X102680666Y-156409814D01*
X102847203Y-156464999D01*
X102949991Y-156475500D01*
X103325500Y-156475499D01*
X103392539Y-156495183D01*
X103438294Y-156547987D01*
X103449500Y-156599499D01*
X103449500Y-158231240D01*
X103434859Y-158289692D01*
X103421186Y-158315273D01*
X103402851Y-158375716D01*
X103363975Y-158503870D01*
X103344659Y-158700000D01*
X103363975Y-158896129D01*
X103363976Y-158896132D01*
X103415482Y-159065925D01*
X103421188Y-159084733D01*
X103514086Y-159258532D01*
X103514090Y-159258539D01*
X103639116Y-159410883D01*
X103762698Y-159512304D01*
X103802032Y-159570050D01*
X103803903Y-159639894D01*
X103767715Y-159699662D01*
X103704960Y-159730378D01*
X103699451Y-159731098D01*
X103697892Y-159731409D01*
X103535603Y-159781981D01*
X103390122Y-159869927D01*
X103269927Y-159990122D01*
X103181980Y-160135604D01*
X103131409Y-160297893D01*
X103125000Y-160368427D01*
X103125000Y-160450000D01*
X103901000Y-160450000D01*
X103968039Y-160469685D01*
X104013794Y-160522489D01*
X104025000Y-160574000D01*
X104025000Y-160826000D01*
X104005315Y-160893039D01*
X103952511Y-160938794D01*
X103901000Y-160950000D01*
X103125001Y-160950000D01*
X103125001Y-161031582D01*
X103131408Y-161102102D01*
X103131409Y-161102107D01*
X103181981Y-161264397D01*
X103255109Y-161385366D01*
X103272945Y-161452921D01*
X103255109Y-161513666D01*
X103181522Y-161635393D01*
X103130913Y-161797807D01*
X103124500Y-161868386D01*
X103124500Y-162531613D01*
X103130913Y-162602192D01*
X103130913Y-162602194D01*
X103130914Y-162602196D01*
X103161390Y-162700000D01*
X103181523Y-162764608D01*
X103198581Y-162792826D01*
X103216417Y-162860381D01*
X103194899Y-162926854D01*
X103140858Y-162971142D01*
X103092545Y-162980975D01*
X76610786Y-162998352D01*
X76543734Y-162978711D01*
X76497944Y-162925937D01*
X76487485Y-162860468D01*
X76505565Y-162700002D01*
X76505565Y-162700000D01*
X76504256Y-162688385D01*
X76516309Y-162619563D01*
X76563657Y-162568183D01*
X76627476Y-162550499D01*
X77722871Y-162550499D01*
X77722872Y-162550499D01*
X77782483Y-162544091D01*
X77917331Y-162493796D01*
X78032546Y-162407546D01*
X78118796Y-162292331D01*
X78169091Y-162157483D01*
X78175500Y-162097873D01*
X78175499Y-160302128D01*
X78169091Y-160242517D01*
X78168946Y-160242129D01*
X78118797Y-160107671D01*
X78118793Y-160107664D01*
X78032547Y-159992455D01*
X78032544Y-159992452D01*
X77917335Y-159906206D01*
X77917328Y-159906202D01*
X77785917Y-159857189D01*
X77729983Y-159815318D01*
X77705566Y-159749853D01*
X77720418Y-159681580D01*
X77741563Y-159653332D01*
X77863495Y-159531401D01*
X77999035Y-159337830D01*
X78098903Y-159123663D01*
X78160063Y-158895408D01*
X78180659Y-158660000D01*
X78160063Y-158424592D01*
X78101271Y-158205173D01*
X78098905Y-158196344D01*
X78098904Y-158196343D01*
X78098903Y-158196337D01*
X77999035Y-157982171D01*
X77991344Y-157971186D01*
X77863494Y-157788597D01*
X77696402Y-157621506D01*
X77696396Y-157621501D01*
X77510842Y-157491575D01*
X77467217Y-157436998D01*
X77460023Y-157367500D01*
X77491546Y-157305145D01*
X77510842Y-157288425D01*
X77552041Y-157259577D01*
X77696401Y-157158495D01*
X77863495Y-156991401D01*
X77999035Y-156797830D01*
X78098903Y-156583663D01*
X78160063Y-156355408D01*
X78180659Y-156120000D01*
X78179330Y-156104815D01*
X78175842Y-156064938D01*
X78160063Y-155884592D01*
X78098903Y-155656337D01*
X77999035Y-155442171D01*
X77957022Y-155382169D01*
X77863494Y-155248597D01*
X77696402Y-155081506D01*
X77696396Y-155081501D01*
X77510842Y-154951575D01*
X77467217Y-154896998D01*
X77460023Y-154827500D01*
X77491546Y-154765145D01*
X77510842Y-154748425D01*
X77596426Y-154688498D01*
X77696401Y-154618495D01*
X77863495Y-154451401D01*
X77999035Y-154257830D01*
X78098903Y-154043663D01*
X78160063Y-153815408D01*
X78180659Y-153580000D01*
X78178501Y-153555340D01*
X78166786Y-153421433D01*
X78160063Y-153344592D01*
X78098903Y-153116337D01*
X77999035Y-152902171D01*
X77973016Y-152865011D01*
X77928990Y-152802135D01*
X79079500Y-152802135D01*
X79079500Y-154597870D01*
X79079501Y-154597876D01*
X79085908Y-154657483D01*
X79136202Y-154792328D01*
X79136206Y-154792335D01*
X79222452Y-154907544D01*
X79222455Y-154907547D01*
X79337664Y-154993793D01*
X79337671Y-154993797D01*
X79472517Y-155044091D01*
X79472516Y-155044091D01*
X79479444Y-155044835D01*
X79532127Y-155050500D01*
X81327872Y-155050499D01*
X81387483Y-155044091D01*
X81522331Y-154993796D01*
X81637546Y-154907546D01*
X81723796Y-154792331D01*
X81772810Y-154660916D01*
X81814681Y-154604984D01*
X81880145Y-154580566D01*
X81948418Y-154595417D01*
X81976673Y-154616569D01*
X82098599Y-154738495D01*
X82190287Y-154802696D01*
X82292165Y-154874032D01*
X82292167Y-154874033D01*
X82292170Y-154874035D01*
X82506337Y-154973903D01*
X82506343Y-154973904D01*
X82506344Y-154973905D01*
X82547980Y-154985061D01*
X82734592Y-155035063D01*
X82911034Y-155050500D01*
X82969999Y-155055659D01*
X82970000Y-155055659D01*
X82970001Y-155055659D01*
X83028966Y-155050500D01*
X83205408Y-155035063D01*
X83433663Y-154973903D01*
X83647830Y-154874035D01*
X83841401Y-154738495D01*
X84008495Y-154571401D01*
X84138425Y-154385842D01*
X84193002Y-154342217D01*
X84262500Y-154335023D01*
X84324855Y-154366546D01*
X84341575Y-154385842D01*
X84471281Y-154571082D01*
X84471505Y-154571401D01*
X84638599Y-154738495D01*
X84730287Y-154802696D01*
X84832165Y-154874032D01*
X84832167Y-154874033D01*
X84832170Y-154874035D01*
X85046337Y-154973903D01*
X85046343Y-154973904D01*
X85046344Y-154973905D01*
X85087980Y-154985061D01*
X85274592Y-155035063D01*
X85451034Y-155050500D01*
X85509999Y-155055659D01*
X85510000Y-155055659D01*
X85510001Y-155055659D01*
X85568966Y-155050500D01*
X85745408Y-155035063D01*
X85973663Y-154973903D01*
X86187830Y-154874035D01*
X86381401Y-154738495D01*
X86548495Y-154571401D01*
X86678730Y-154385405D01*
X86733307Y-154341781D01*
X86802805Y-154334587D01*
X86865160Y-154366110D01*
X86881879Y-154385405D01*
X87011890Y-154571078D01*
X87178917Y-154738105D01*
X87372421Y-154873600D01*
X87586507Y-154973429D01*
X87586516Y-154973433D01*
X87800000Y-155030634D01*
X87800000Y-154133012D01*
X87857007Y-154165925D01*
X87984174Y-154200000D01*
X88115826Y-154200000D01*
X88242993Y-154165925D01*
X88300000Y-154133012D01*
X88300000Y-155030633D01*
X88513483Y-154973433D01*
X88513492Y-154973429D01*
X88727578Y-154873600D01*
X88921082Y-154738105D01*
X89088105Y-154571082D01*
X89223600Y-154377578D01*
X89323429Y-154163492D01*
X89323432Y-154163486D01*
X89380636Y-153950000D01*
X88483012Y-153950000D01*
X88515925Y-153892993D01*
X88550000Y-153765826D01*
X88550000Y-153634174D01*
X88515925Y-153507007D01*
X88483012Y-153450000D01*
X89380636Y-153450000D01*
X89380635Y-153449999D01*
X89323432Y-153236513D01*
X89323429Y-153236507D01*
X89223600Y-153022422D01*
X89223599Y-153022420D01*
X89088113Y-152828926D01*
X89088108Y-152828920D01*
X88921082Y-152661894D01*
X88727578Y-152526399D01*
X88513492Y-152426570D01*
X88513486Y-152426567D01*
X88300000Y-152369364D01*
X88300000Y-153266988D01*
X88242993Y-153234075D01*
X88115826Y-153200000D01*
X87984174Y-153200000D01*
X87857007Y-153234075D01*
X87800000Y-153266988D01*
X87800000Y-152369364D01*
X87799999Y-152369364D01*
X87586513Y-152426567D01*
X87586507Y-152426570D01*
X87372422Y-152526399D01*
X87372420Y-152526400D01*
X87178926Y-152661886D01*
X87178920Y-152661891D01*
X87011891Y-152828920D01*
X87011890Y-152828922D01*
X86881880Y-153014595D01*
X86827303Y-153058219D01*
X86757804Y-153065412D01*
X86695450Y-153033890D01*
X86678730Y-153014594D01*
X86548494Y-152828597D01*
X86381402Y-152661506D01*
X86381395Y-152661501D01*
X86187834Y-152525967D01*
X86187830Y-152525965D01*
X86123079Y-152495771D01*
X85973663Y-152426097D01*
X85973659Y-152426096D01*
X85973655Y-152426094D01*
X85745413Y-152364938D01*
X85745403Y-152364936D01*
X85510001Y-152344341D01*
X85509999Y-152344341D01*
X85274596Y-152364936D01*
X85274586Y-152364938D01*
X85046344Y-152426094D01*
X85046335Y-152426098D01*
X84832171Y-152525964D01*
X84832169Y-152525965D01*
X84638597Y-152661505D01*
X84471505Y-152828597D01*
X84341575Y-153014158D01*
X84286998Y-153057783D01*
X84217500Y-153064977D01*
X84155145Y-153033454D01*
X84138425Y-153014158D01*
X84008494Y-152828597D01*
X83841402Y-152661506D01*
X83841395Y-152661501D01*
X83647834Y-152525967D01*
X83647830Y-152525965D01*
X83583079Y-152495771D01*
X83433663Y-152426097D01*
X83433659Y-152426096D01*
X83433655Y-152426094D01*
X83205413Y-152364938D01*
X83205403Y-152364936D01*
X82970001Y-152344341D01*
X82969999Y-152344341D01*
X82734596Y-152364936D01*
X82734586Y-152364938D01*
X82506344Y-152426094D01*
X82506335Y-152426098D01*
X82292171Y-152525964D01*
X82292169Y-152525965D01*
X82098600Y-152661503D01*
X81976673Y-152783430D01*
X81915350Y-152816914D01*
X81845658Y-152811930D01*
X81789725Y-152770058D01*
X81772810Y-152739081D01*
X81723797Y-152607671D01*
X81723793Y-152607664D01*
X81637547Y-152492455D01*
X81637544Y-152492452D01*
X81522335Y-152406206D01*
X81522328Y-152406202D01*
X81387482Y-152355908D01*
X81387483Y-152355908D01*
X81327883Y-152349501D01*
X81327881Y-152349500D01*
X81327873Y-152349500D01*
X81327864Y-152349500D01*
X79532129Y-152349500D01*
X79532123Y-152349501D01*
X79472516Y-152355908D01*
X79337671Y-152406202D01*
X79337664Y-152406206D01*
X79222455Y-152492452D01*
X79222452Y-152492455D01*
X79136206Y-152607664D01*
X79136202Y-152607671D01*
X79085908Y-152742517D01*
X79079501Y-152802116D01*
X79079500Y-152802135D01*
X77928990Y-152802135D01*
X77863494Y-152708597D01*
X77696402Y-152541506D01*
X77696395Y-152541501D01*
X77674207Y-152525965D01*
X77631086Y-152495771D01*
X77502834Y-152405967D01*
X77502830Y-152405965D01*
X77502828Y-152405964D01*
X77288663Y-152306097D01*
X77288659Y-152306096D01*
X77288655Y-152306094D01*
X77060413Y-152244938D01*
X77060403Y-152244936D01*
X76825001Y-152224341D01*
X76824999Y-152224341D01*
X76589596Y-152244936D01*
X76589586Y-152244938D01*
X76361344Y-152306094D01*
X76361335Y-152306098D01*
X76147171Y-152405964D01*
X76147169Y-152405965D01*
X75953597Y-152541505D01*
X75786505Y-152708597D01*
X75650965Y-152902169D01*
X75650964Y-152902171D01*
X75551098Y-153116335D01*
X75551094Y-153116344D01*
X75489938Y-153344586D01*
X75489936Y-153344596D01*
X75469341Y-153579999D01*
X75469341Y-153580000D01*
X75489936Y-153815403D01*
X75489938Y-153815413D01*
X75551094Y-154043655D01*
X75551096Y-154043659D01*
X75551097Y-154043663D01*
X75647413Y-154250213D01*
X75650965Y-154257830D01*
X75650967Y-154257834D01*
X75786501Y-154451395D01*
X75786506Y-154451402D01*
X75953597Y-154618493D01*
X75953603Y-154618498D01*
X76139158Y-154748425D01*
X76182783Y-154803002D01*
X76189977Y-154872500D01*
X76158454Y-154934855D01*
X76139158Y-154951575D01*
X75953597Y-155081505D01*
X75786505Y-155248597D01*
X75650965Y-155442169D01*
X75650964Y-155442171D01*
X75551098Y-155656335D01*
X75551094Y-155656344D01*
X75489938Y-155884586D01*
X75489936Y-155884596D01*
X75469341Y-156119999D01*
X75469341Y-156120000D01*
X75489936Y-156355403D01*
X75489938Y-156355413D01*
X75551094Y-156583655D01*
X75551096Y-156583659D01*
X75551097Y-156583663D01*
X75635467Y-156764594D01*
X75650965Y-156797830D01*
X75650967Y-156797834D01*
X75744493Y-156931402D01*
X75783082Y-156986513D01*
X75786501Y-156991395D01*
X75786506Y-156991402D01*
X75953597Y-157158493D01*
X75953603Y-157158498D01*
X76139158Y-157288425D01*
X76182783Y-157343002D01*
X76189977Y-157412500D01*
X76158454Y-157474855D01*
X76139158Y-157491575D01*
X75953597Y-157621505D01*
X75786505Y-157788597D01*
X75650965Y-157982169D01*
X75650964Y-157982171D01*
X75551098Y-158196335D01*
X75551094Y-158196344D01*
X75489938Y-158424586D01*
X75489936Y-158424596D01*
X75469341Y-158659999D01*
X75469341Y-158660000D01*
X75489936Y-158895403D01*
X75489938Y-158895413D01*
X75551094Y-159123655D01*
X75551096Y-159123659D01*
X75551097Y-159123663D01*
X75635295Y-159304225D01*
X75650965Y-159337830D01*
X75650967Y-159337834D01*
X75735486Y-159458538D01*
X75786501Y-159531396D01*
X75786506Y-159531402D01*
X75908430Y-159653326D01*
X75941915Y-159714649D01*
X75936931Y-159784341D01*
X75895059Y-159840274D01*
X75864083Y-159857189D01*
X75732669Y-159906203D01*
X75732664Y-159906206D01*
X75617455Y-159992452D01*
X75617452Y-159992455D01*
X75531206Y-160107664D01*
X75531202Y-160107671D01*
X75480908Y-160242517D01*
X75476994Y-160278926D01*
X75474501Y-160302123D01*
X75474500Y-160302135D01*
X75474500Y-161842831D01*
X75454815Y-161909870D01*
X75402011Y-161955625D01*
X75391456Y-161959872D01*
X75350476Y-161974211D01*
X75350475Y-161974212D01*
X75197737Y-162070184D01*
X75070184Y-162197737D01*
X74974211Y-162350476D01*
X74914631Y-162520745D01*
X74914630Y-162520750D01*
X74894435Y-162699996D01*
X74894435Y-162700004D01*
X74911052Y-162847494D01*
X74898997Y-162916316D01*
X74853811Y-162966366D01*
X74847744Y-162970178D01*
X74844822Y-162972509D01*
X74842578Y-162973424D01*
X74841848Y-162973884D01*
X74841767Y-162973755D01*
X74780135Y-162998917D01*
X74767591Y-162999561D01*
X74724581Y-162999589D01*
X74657528Y-162979948D01*
X74611739Y-162927174D01*
X74600500Y-162875589D01*
X74600500Y-144624500D01*
X74620185Y-144557461D01*
X74672989Y-144511706D01*
X74724500Y-144500500D01*
X81367759Y-144500500D01*
X81434798Y-144520185D01*
G37*
%TD.AperFunction*%
%TA.AperFunction,Conductor*%
G36*
X140744075Y-160957007D02*
G01*
X140710000Y-161084174D01*
X140710000Y-161215826D01*
X140744075Y-161342993D01*
X140776988Y-161400000D01*
X139103012Y-161400000D01*
X139135925Y-161342993D01*
X139170000Y-161215826D01*
X139170000Y-161084174D01*
X139135925Y-160957007D01*
X139103012Y-160900000D01*
X140776988Y-160900000D01*
X140744075Y-160957007D01*
G37*
%TD.AperFunction*%
%TA.AperFunction,Conductor*%
G36*
X143284075Y-160957007D02*
G01*
X143250000Y-161084174D01*
X143250000Y-161215826D01*
X143284075Y-161342993D01*
X143316988Y-161400000D01*
X141643012Y-161400000D01*
X141675925Y-161342993D01*
X141710000Y-161215826D01*
X141710000Y-161084174D01*
X141675925Y-160957007D01*
X141643012Y-160900000D01*
X143316988Y-160900000D01*
X143284075Y-160957007D01*
G37*
%TD.AperFunction*%
%TA.AperFunction,Conductor*%
G36*
X125309855Y-149711546D02*
G01*
X125326575Y-149730842D01*
X125456281Y-149916082D01*
X125456505Y-149916401D01*
X125623599Y-150083495D01*
X125684851Y-150126384D01*
X125817165Y-150219032D01*
X125817167Y-150219033D01*
X125817170Y-150219035D01*
X125822898Y-150221706D01*
X125875339Y-150267872D01*
X125894500Y-150334090D01*
X125894500Y-152108330D01*
X125894499Y-152108348D01*
X125894499Y-152234852D01*
X125889160Y-152270847D01*
X125863975Y-152353869D01*
X125844659Y-152550000D01*
X125863975Y-152746129D01*
X125865795Y-152752128D01*
X125920146Y-152931300D01*
X125921188Y-152934733D01*
X126014086Y-153108532D01*
X126014090Y-153108539D01*
X126139116Y-153260883D01*
X126291460Y-153385909D01*
X126291467Y-153385913D01*
X126465266Y-153478811D01*
X126465269Y-153478811D01*
X126465273Y-153478814D01*
X126653868Y-153536024D01*
X126850000Y-153555341D01*
X126863345Y-153554026D01*
X126931989Y-153567043D01*
X126982701Y-153615107D01*
X126999500Y-153677429D01*
X126999500Y-154770908D01*
X126979815Y-154837947D01*
X126927914Y-154883286D01*
X126922173Y-154885963D01*
X126922169Y-154885965D01*
X126728597Y-155021505D01*
X126561505Y-155188597D01*
X126425965Y-155382169D01*
X126425964Y-155382171D01*
X126326098Y-155596335D01*
X126326094Y-155596344D01*
X126264938Y-155824586D01*
X126264936Y-155824596D01*
X126244341Y-156059999D01*
X126244341Y-156060000D01*
X126264936Y-156295403D01*
X126264938Y-156295413D01*
X126326094Y-156523655D01*
X126326096Y-156523659D01*
X126326097Y-156523663D01*
X126351864Y-156578920D01*
X126425965Y-156737830D01*
X126425967Y-156737834D01*
X126498529Y-156841462D01*
X126561505Y-156931401D01*
X126728599Y-157098495D01*
X126876793Y-157202262D01*
X126914594Y-157228730D01*
X126958219Y-157283307D01*
X126965413Y-157352805D01*
X126933890Y-157415160D01*
X126914595Y-157431880D01*
X126728922Y-157561890D01*
X126728920Y-157561891D01*
X126561891Y-157728920D01*
X126561886Y-157728926D01*
X126426400Y-157922420D01*
X126426399Y-157922422D01*
X126326570Y-158136507D01*
X126326567Y-158136513D01*
X126269364Y-158349999D01*
X126269364Y-158350000D01*
X127166988Y-158350000D01*
X127134075Y-158407007D01*
X127100000Y-158534174D01*
X127100000Y-158665826D01*
X127134075Y-158792993D01*
X127166988Y-158850000D01*
X126269364Y-158850000D01*
X126326567Y-159063486D01*
X126326570Y-159063492D01*
X126426399Y-159277578D01*
X126561894Y-159471082D01*
X126683946Y-159593134D01*
X126717431Y-159654457D01*
X126712447Y-159724149D01*
X126670575Y-159780082D01*
X126639598Y-159796997D01*
X126507671Y-159846202D01*
X126507664Y-159846206D01*
X126392455Y-159932452D01*
X126392452Y-159932455D01*
X126306206Y-160047664D01*
X126306202Y-160047671D01*
X126255908Y-160182517D01*
X126250338Y-160234334D01*
X126249501Y-160242123D01*
X126249500Y-160242135D01*
X126249500Y-162037870D01*
X126249501Y-162037876D01*
X126255908Y-162097483D01*
X126306202Y-162232328D01*
X126306206Y-162232335D01*
X126392452Y-162347544D01*
X126392455Y-162347547D01*
X126507664Y-162433793D01*
X126507671Y-162433797D01*
X126642517Y-162484091D01*
X126642516Y-162484091D01*
X126649444Y-162484835D01*
X126702127Y-162490500D01*
X128497872Y-162490499D01*
X128557483Y-162484091D01*
X128692331Y-162433796D01*
X128807546Y-162347546D01*
X128893796Y-162232331D01*
X128944091Y-162097483D01*
X128950500Y-162037873D01*
X128950499Y-160242128D01*
X128944091Y-160182517D01*
X128937720Y-160165436D01*
X128893797Y-160047671D01*
X128893793Y-160047664D01*
X128807547Y-159932455D01*
X128807544Y-159932452D01*
X128692335Y-159846206D01*
X128692328Y-159846202D01*
X128560401Y-159796997D01*
X128504467Y-159755126D01*
X128480050Y-159689662D01*
X128494902Y-159621389D01*
X128516053Y-159593133D01*
X128638108Y-159471078D01*
X128773600Y-159277578D01*
X128873429Y-159063492D01*
X128873432Y-159063486D01*
X128930636Y-158850000D01*
X128033012Y-158850000D01*
X128065925Y-158792993D01*
X128100000Y-158665826D01*
X128100000Y-158534174D01*
X128065925Y-158407007D01*
X128033012Y-158350000D01*
X128930636Y-158350000D01*
X128930635Y-158349999D01*
X128873432Y-158136513D01*
X128873429Y-158136507D01*
X128773600Y-157922422D01*
X128773599Y-157922420D01*
X128638113Y-157728926D01*
X128638108Y-157728920D01*
X128471078Y-157561890D01*
X128285405Y-157431879D01*
X128241780Y-157377302D01*
X128234588Y-157307804D01*
X128266110Y-157245449D01*
X128285406Y-157228730D01*
X128320913Y-157203868D01*
X128471401Y-157098495D01*
X128638495Y-156931401D01*
X128774035Y-156737830D01*
X128873903Y-156523663D01*
X128935063Y-156295408D01*
X128955659Y-156060000D01*
X128954740Y-156049501D01*
X128944508Y-155932544D01*
X128935063Y-155824592D01*
X128873903Y-155596337D01*
X128774035Y-155382171D01*
X128760194Y-155362403D01*
X128638494Y-155188597D01*
X128471402Y-155021506D01*
X128471395Y-155021501D01*
X128448770Y-155005659D01*
X128422717Y-154987416D01*
X128277831Y-154885965D01*
X128277826Y-154885962D01*
X128272091Y-154883288D01*
X128219653Y-154837113D01*
X128200500Y-154770908D01*
X128200500Y-153544171D01*
X128220185Y-153477132D01*
X128272989Y-153431377D01*
X128342147Y-153421433D01*
X128382951Y-153434812D01*
X128465273Y-153478814D01*
X128653868Y-153536024D01*
X128850000Y-153555341D01*
X128888227Y-153551575D01*
X128956871Y-153564593D01*
X128988062Y-153587297D01*
X130362752Y-154961987D01*
X130396237Y-155023310D01*
X130391253Y-155093002D01*
X130362754Y-155137348D01*
X130311503Y-155188599D01*
X130175965Y-155382169D01*
X130175964Y-155382171D01*
X130076098Y-155596335D01*
X130076094Y-155596344D01*
X130014938Y-155824586D01*
X130014936Y-155824596D01*
X129994341Y-156059999D01*
X129994341Y-156060000D01*
X130014936Y-156295403D01*
X130014938Y-156295413D01*
X130076094Y-156523655D01*
X130076096Y-156523659D01*
X130076097Y-156523663D01*
X130101864Y-156578920D01*
X130175965Y-156737830D01*
X130175967Y-156737834D01*
X130248529Y-156841462D01*
X130311505Y-156931401D01*
X130478599Y-157098495D01*
X130626793Y-157202262D01*
X130664594Y-157228730D01*
X130708219Y-157283307D01*
X130715413Y-157352805D01*
X130683890Y-157415160D01*
X130664595Y-157431880D01*
X130478922Y-157561890D01*
X130478920Y-157561891D01*
X130311891Y-157728920D01*
X130311886Y-157728926D01*
X130176400Y-157922420D01*
X130176399Y-157922422D01*
X130076570Y-158136507D01*
X130076567Y-158136513D01*
X130019364Y-158349999D01*
X130019364Y-158350000D01*
X130916988Y-158350000D01*
X130884075Y-158407007D01*
X130850000Y-158534174D01*
X130850000Y-158665826D01*
X130884075Y-158792993D01*
X130916988Y-158850000D01*
X130019364Y-158850000D01*
X130076567Y-159063486D01*
X130076570Y-159063492D01*
X130176399Y-159277578D01*
X130311894Y-159471082D01*
X130433946Y-159593134D01*
X130467431Y-159654457D01*
X130462447Y-159724149D01*
X130420575Y-159780082D01*
X130389598Y-159796997D01*
X130257671Y-159846202D01*
X130257664Y-159846206D01*
X130142455Y-159932452D01*
X130142452Y-159932455D01*
X130056206Y-160047664D01*
X130056202Y-160047671D01*
X130005908Y-160182517D01*
X130000338Y-160234334D01*
X129999501Y-160242123D01*
X129999500Y-160242135D01*
X129999500Y-162037870D01*
X129999501Y-162037876D01*
X130005908Y-162097483D01*
X130056202Y-162232328D01*
X130056206Y-162232335D01*
X130142452Y-162347544D01*
X130142455Y-162347547D01*
X130257664Y-162433793D01*
X130257671Y-162433797D01*
X130392517Y-162484091D01*
X130392516Y-162484091D01*
X130399444Y-162484835D01*
X130452127Y-162490500D01*
X132247872Y-162490499D01*
X132307483Y-162484091D01*
X132442331Y-162433796D01*
X132557546Y-162347546D01*
X132643796Y-162232331D01*
X132694091Y-162097483D01*
X132700500Y-162037873D01*
X132700499Y-160242128D01*
X132694091Y-160182517D01*
X132687720Y-160165436D01*
X132643797Y-160047671D01*
X132643793Y-160047664D01*
X132557547Y-159932455D01*
X132557544Y-159932452D01*
X132442335Y-159846206D01*
X132442328Y-159846202D01*
X132310401Y-159796997D01*
X132254467Y-159755126D01*
X132230050Y-159689662D01*
X132244902Y-159621389D01*
X132266053Y-159593133D01*
X132388108Y-159471078D01*
X132523600Y-159277578D01*
X132623429Y-159063492D01*
X132623432Y-159063486D01*
X132680636Y-158850000D01*
X131783012Y-158850000D01*
X131815925Y-158792993D01*
X131850000Y-158665826D01*
X131850000Y-158534174D01*
X131815925Y-158407007D01*
X131783012Y-158350000D01*
X132680636Y-158350000D01*
X132680635Y-158349999D01*
X132623432Y-158136513D01*
X132623429Y-158136507D01*
X132523600Y-157922422D01*
X132523599Y-157922420D01*
X132388113Y-157728926D01*
X132388108Y-157728920D01*
X132221078Y-157561890D01*
X132035405Y-157431879D01*
X131991780Y-157377302D01*
X131984588Y-157307804D01*
X132016110Y-157245449D01*
X132035406Y-157228730D01*
X132070913Y-157203868D01*
X132221401Y-157098495D01*
X132388495Y-156931401D01*
X132524035Y-156737830D01*
X132623903Y-156523663D01*
X132685063Y-156295408D01*
X132705659Y-156060000D01*
X132704740Y-156049501D01*
X132694508Y-155932544D01*
X132685063Y-155824592D01*
X132623903Y-155596337D01*
X132524035Y-155382171D01*
X132510194Y-155362403D01*
X132388494Y-155188597D01*
X132221402Y-155021506D01*
X132221395Y-155021501D01*
X132198770Y-155005659D01*
X132082011Y-154923903D01*
X132027832Y-154885966D01*
X132027823Y-154885962D01*
X132001313Y-154873600D01*
X131915466Y-154833568D01*
X131863027Y-154787395D01*
X131860489Y-154783194D01*
X131859676Y-154781785D01*
X131857684Y-154778334D01*
X131830522Y-154731287D01*
X131830521Y-154731286D01*
X131830520Y-154731284D01*
X131718716Y-154619480D01*
X131718715Y-154619479D01*
X131714385Y-154615149D01*
X131714374Y-154615139D01*
X129878331Y-152779096D01*
X129844846Y-152717773D01*
X129842609Y-152679264D01*
X129855341Y-152550000D01*
X129836024Y-152353868D01*
X129778814Y-152165273D01*
X129778811Y-152165267D01*
X129778811Y-152165266D01*
X129685913Y-151991467D01*
X129685909Y-151991460D01*
X129560883Y-151839116D01*
X129408539Y-151714090D01*
X129408532Y-151714086D01*
X129234733Y-151621188D01*
X129234727Y-151621186D01*
X129095498Y-151578951D01*
X129046129Y-151563975D01*
X128850000Y-151544659D01*
X128720736Y-151557389D01*
X128652090Y-151544370D01*
X128620902Y-151521667D01*
X128386819Y-151287584D01*
X128353334Y-151226261D01*
X128350500Y-151199903D01*
X128350500Y-150410565D01*
X128370185Y-150343526D01*
X128422989Y-150297771D01*
X128492147Y-150287827D01*
X128526903Y-150298183D01*
X128547640Y-150307853D01*
X128571330Y-150318900D01*
X128571332Y-150318900D01*
X128571337Y-150318903D01*
X128799592Y-150380063D01*
X128987918Y-150396539D01*
X129034999Y-150400659D01*
X129035000Y-150400659D01*
X129035001Y-150400659D01*
X129074234Y-150397226D01*
X129270408Y-150380063D01*
X129498663Y-150318903D01*
X129528934Y-150304787D01*
X129598006Y-150294295D01*
X129661791Y-150322813D01*
X129700032Y-150381288D01*
X129701104Y-150385048D01*
X129729340Y-150490423D01*
X129740424Y-150531789D01*
X129740425Y-150531790D01*
X129762186Y-150569480D01*
X129762187Y-150569482D01*
X129819475Y-150668709D01*
X129819481Y-150668717D01*
X129938349Y-150787585D01*
X129938355Y-150787590D01*
X131471667Y-152320902D01*
X131505152Y-152382225D01*
X131507389Y-152420736D01*
X131494659Y-152549999D01*
X131513975Y-152746129D01*
X131515795Y-152752128D01*
X131570146Y-152931300D01*
X131571188Y-152934733D01*
X131664086Y-153108532D01*
X131664090Y-153108539D01*
X131789116Y-153260883D01*
X131941460Y-153385909D01*
X131941467Y-153385913D01*
X132115266Y-153478811D01*
X132115269Y-153478811D01*
X132115273Y-153478814D01*
X132303868Y-153536024D01*
X132500000Y-153555341D01*
X132629262Y-153542609D01*
X132697906Y-153555628D01*
X132729096Y-153578331D01*
X134112752Y-154961987D01*
X134146237Y-155023310D01*
X134141253Y-155093002D01*
X134112754Y-155137348D01*
X134061503Y-155188599D01*
X133925965Y-155382169D01*
X133925964Y-155382171D01*
X133826098Y-155596335D01*
X133826094Y-155596344D01*
X133764938Y-155824586D01*
X133764936Y-155824596D01*
X133744341Y-156059999D01*
X133744341Y-156060000D01*
X133764936Y-156295403D01*
X133764938Y-156295413D01*
X133826094Y-156523655D01*
X133826096Y-156523659D01*
X133826097Y-156523663D01*
X133851864Y-156578920D01*
X133925965Y-156737830D01*
X133925967Y-156737834D01*
X133998529Y-156841462D01*
X134061505Y-156931401D01*
X134228599Y-157098495D01*
X134376793Y-157202262D01*
X134414594Y-157228730D01*
X134458219Y-157283307D01*
X134465413Y-157352805D01*
X134433890Y-157415160D01*
X134414595Y-157431880D01*
X134228922Y-157561890D01*
X134228920Y-157561891D01*
X134061891Y-157728920D01*
X134061886Y-157728926D01*
X133926400Y-157922420D01*
X133926399Y-157922422D01*
X133826570Y-158136507D01*
X133826567Y-158136513D01*
X133769364Y-158349999D01*
X133769364Y-158350000D01*
X134666988Y-158350000D01*
X134634075Y-158407007D01*
X134600000Y-158534174D01*
X134600000Y-158665826D01*
X134634075Y-158792993D01*
X134666988Y-158850000D01*
X133769364Y-158850000D01*
X133826567Y-159063486D01*
X133826570Y-159063492D01*
X133926399Y-159277578D01*
X134061894Y-159471082D01*
X134183946Y-159593134D01*
X134217431Y-159654457D01*
X134212447Y-159724149D01*
X134170575Y-159780082D01*
X134139598Y-159796997D01*
X134007671Y-159846202D01*
X134007664Y-159846206D01*
X133892455Y-159932452D01*
X133892452Y-159932455D01*
X133806206Y-160047664D01*
X133806202Y-160047671D01*
X133755908Y-160182517D01*
X133750338Y-160234334D01*
X133749501Y-160242123D01*
X133749500Y-160242135D01*
X133749500Y-162037870D01*
X133749501Y-162037876D01*
X133755908Y-162097483D01*
X133806202Y-162232328D01*
X133806206Y-162232335D01*
X133892452Y-162347544D01*
X133892455Y-162347547D01*
X134007664Y-162433793D01*
X134007671Y-162433797D01*
X134142517Y-162484091D01*
X134142516Y-162484091D01*
X134149444Y-162484835D01*
X134202127Y-162490500D01*
X135997872Y-162490499D01*
X136057483Y-162484091D01*
X136192331Y-162433796D01*
X136307546Y-162347546D01*
X136393796Y-162232331D01*
X136444091Y-162097483D01*
X136450500Y-162037873D01*
X136450499Y-160899999D01*
X137339364Y-160899999D01*
X137339364Y-160900000D01*
X138236988Y-160900000D01*
X138204075Y-160957007D01*
X138170000Y-161084174D01*
X138170000Y-161215826D01*
X138204075Y-161342993D01*
X138236988Y-161400000D01*
X137339364Y-161400000D01*
X137396567Y-161613486D01*
X137396570Y-161613492D01*
X137496399Y-161827578D01*
X137631894Y-162021082D01*
X137798917Y-162188105D01*
X137992421Y-162323600D01*
X138206507Y-162423429D01*
X138206516Y-162423433D01*
X138420000Y-162480634D01*
X138420000Y-161583012D01*
X138477007Y-161615925D01*
X138604174Y-161650000D01*
X138735826Y-161650000D01*
X138862993Y-161615925D01*
X138920000Y-161583012D01*
X138920000Y-162480633D01*
X139133483Y-162423433D01*
X139133492Y-162423429D01*
X139347578Y-162323600D01*
X139541082Y-162188105D01*
X139708105Y-162021082D01*
X139838425Y-161834968D01*
X139893002Y-161791344D01*
X139962501Y-161784151D01*
X140024855Y-161815673D01*
X140041575Y-161834968D01*
X140171894Y-162021082D01*
X140338917Y-162188105D01*
X140532421Y-162323600D01*
X140746507Y-162423429D01*
X140746516Y-162423433D01*
X140960000Y-162480634D01*
X140960000Y-161583012D01*
X141017007Y-161615925D01*
X141144174Y-161650000D01*
X141275826Y-161650000D01*
X141402993Y-161615925D01*
X141460000Y-161583012D01*
X141460000Y-162480633D01*
X141673483Y-162423433D01*
X141673492Y-162423429D01*
X141887578Y-162323600D01*
X142081078Y-162188108D01*
X142203521Y-162065665D01*
X142264844Y-162032180D01*
X142334536Y-162037164D01*
X142390470Y-162079035D01*
X142407385Y-162110013D01*
X142456645Y-162242086D01*
X142456649Y-162242093D01*
X142542809Y-162357187D01*
X142542812Y-162357190D01*
X142657906Y-162443350D01*
X142657913Y-162443354D01*
X142792620Y-162493596D01*
X142792627Y-162493598D01*
X142852155Y-162499999D01*
X142852172Y-162500000D01*
X143500000Y-162500000D01*
X143500000Y-161583012D01*
X143557007Y-161615925D01*
X143684174Y-161650000D01*
X143815826Y-161650000D01*
X143942993Y-161615925D01*
X144000000Y-161583012D01*
X144000000Y-162500000D01*
X144647828Y-162500000D01*
X144647844Y-162499999D01*
X144707372Y-162493598D01*
X144707379Y-162493596D01*
X144842086Y-162443354D01*
X144842093Y-162443350D01*
X144957187Y-162357190D01*
X144957190Y-162357187D01*
X145043350Y-162242093D01*
X145043354Y-162242086D01*
X145093596Y-162107379D01*
X145093598Y-162107372D01*
X145099999Y-162047844D01*
X145100000Y-162047824D01*
X145100000Y-161400000D01*
X144183012Y-161400000D01*
X144215925Y-161342993D01*
X144250000Y-161215826D01*
X144250000Y-161084174D01*
X144215925Y-160957007D01*
X144183012Y-160900000D01*
X145100000Y-160900000D01*
X145100000Y-160252172D01*
X145099999Y-160252155D01*
X145093598Y-160192627D01*
X145093596Y-160192620D01*
X145043354Y-160057913D01*
X145043350Y-160057906D01*
X144957190Y-159942812D01*
X144957187Y-159942809D01*
X144842093Y-159856649D01*
X144842086Y-159856645D01*
X144707379Y-159806403D01*
X144707372Y-159806401D01*
X144647844Y-159800000D01*
X144000000Y-159800000D01*
X144000000Y-160716988D01*
X143942993Y-160684075D01*
X143815826Y-160650000D01*
X143684174Y-160650000D01*
X143557007Y-160684075D01*
X143500000Y-160716988D01*
X143500000Y-159800000D01*
X142852155Y-159800000D01*
X142792627Y-159806401D01*
X142792620Y-159806403D01*
X142657913Y-159856645D01*
X142657906Y-159856649D01*
X142542812Y-159942809D01*
X142542809Y-159942812D01*
X142456649Y-160057906D01*
X142456646Y-160057911D01*
X142407385Y-160189987D01*
X142365513Y-160245920D01*
X142300049Y-160270337D01*
X142231776Y-160255485D01*
X142203522Y-160234334D01*
X142081082Y-160111894D01*
X141887578Y-159976399D01*
X141673492Y-159876570D01*
X141673486Y-159876567D01*
X141460000Y-159819364D01*
X141460000Y-160716988D01*
X141402993Y-160684075D01*
X141275826Y-160650000D01*
X141144174Y-160650000D01*
X141017007Y-160684075D01*
X140960000Y-160716988D01*
X140960000Y-159819364D01*
X140959999Y-159819364D01*
X140746513Y-159876567D01*
X140746507Y-159876570D01*
X140532422Y-159976399D01*
X140532420Y-159976400D01*
X140338926Y-160111886D01*
X140338920Y-160111891D01*
X140171891Y-160278920D01*
X140171890Y-160278922D01*
X140041575Y-160465031D01*
X139986998Y-160508655D01*
X139917499Y-160515848D01*
X139855145Y-160484326D01*
X139838425Y-160465031D01*
X139708109Y-160278922D01*
X139708108Y-160278920D01*
X139541082Y-160111894D01*
X139347578Y-159976399D01*
X139133492Y-159876570D01*
X139133486Y-159876567D01*
X138920000Y-159819364D01*
X138920000Y-160716988D01*
X138862993Y-160684075D01*
X138735826Y-160650000D01*
X138604174Y-160650000D01*
X138477007Y-160684075D01*
X138420000Y-160716988D01*
X138420000Y-159819364D01*
X138419999Y-159819364D01*
X138206513Y-159876567D01*
X138206507Y-159876570D01*
X137992422Y-159976399D01*
X137992420Y-159976400D01*
X137798926Y-160111886D01*
X137798920Y-160111891D01*
X137631891Y-160278920D01*
X137631886Y-160278926D01*
X137496400Y-160472420D01*
X137496399Y-160472422D01*
X137396570Y-160686507D01*
X137396567Y-160686513D01*
X137339364Y-160899999D01*
X136450499Y-160899999D01*
X136450499Y-160242128D01*
X136444091Y-160182517D01*
X136437720Y-160165436D01*
X136393797Y-160047671D01*
X136393793Y-160047664D01*
X136307547Y-159932455D01*
X136307544Y-159932452D01*
X136192335Y-159846206D01*
X136192328Y-159846202D01*
X136060401Y-159796997D01*
X136004467Y-159755126D01*
X135980050Y-159689662D01*
X135994902Y-159621389D01*
X136016053Y-159593133D01*
X136138108Y-159471078D01*
X136273600Y-159277578D01*
X136373429Y-159063492D01*
X136373432Y-159063486D01*
X136430636Y-158850000D01*
X135533012Y-158850000D01*
X135565925Y-158792993D01*
X135600000Y-158665826D01*
X135600000Y-158534174D01*
X135565925Y-158407007D01*
X135533012Y-158350000D01*
X136430636Y-158350000D01*
X136430635Y-158349999D01*
X136373432Y-158136513D01*
X136373429Y-158136507D01*
X136273600Y-157922422D01*
X136273599Y-157922420D01*
X136138113Y-157728926D01*
X136138108Y-157728920D01*
X135971078Y-157561890D01*
X135785405Y-157431879D01*
X135759922Y-157399999D01*
X137314341Y-157399999D01*
X137314341Y-157400000D01*
X137334936Y-157635403D01*
X137334938Y-157635413D01*
X137396094Y-157863655D01*
X137396096Y-157863659D01*
X137396097Y-157863663D01*
X137462241Y-158005508D01*
X137495965Y-158077830D01*
X137495967Y-158077834D01*
X137600512Y-158227139D01*
X137631505Y-158271401D01*
X137798599Y-158438495D01*
X137878737Y-158494608D01*
X137992165Y-158574032D01*
X137992167Y-158574033D01*
X137992170Y-158574035D01*
X138206337Y-158673903D01*
X138434592Y-158735063D01*
X138611034Y-158750500D01*
X138669999Y-158755659D01*
X138670000Y-158755659D01*
X138670001Y-158755659D01*
X138728966Y-158750500D01*
X138905408Y-158735063D01*
X139133663Y-158673903D01*
X139347830Y-158574035D01*
X139541401Y-158438495D01*
X139708495Y-158271401D01*
X139838425Y-158085842D01*
X139893002Y-158042217D01*
X139962500Y-158035023D01*
X140024855Y-158066546D01*
X140041575Y-158085842D01*
X140171500Y-158271395D01*
X140171505Y-158271401D01*
X140338599Y-158438495D01*
X140418737Y-158494608D01*
X140532165Y-158574032D01*
X140532167Y-158574033D01*
X140532170Y-158574035D01*
X140746337Y-158673903D01*
X140974592Y-158735063D01*
X141151034Y-158750500D01*
X141209999Y-158755659D01*
X141210000Y-158755659D01*
X141210001Y-158755659D01*
X141268966Y-158750500D01*
X141445408Y-158735063D01*
X141673663Y-158673903D01*
X141887830Y-158574035D01*
X142081401Y-158438495D01*
X142203329Y-158316566D01*
X142264648Y-158283084D01*
X142334340Y-158288068D01*
X142390274Y-158329939D01*
X142407189Y-158360917D01*
X142456202Y-158492328D01*
X142456206Y-158492335D01*
X142542452Y-158607544D01*
X142542455Y-158607547D01*
X142657664Y-158693793D01*
X142657671Y-158693797D01*
X142792517Y-158744091D01*
X142792516Y-158744091D01*
X142799444Y-158744835D01*
X142852127Y-158750500D01*
X144647872Y-158750499D01*
X144707483Y-158744091D01*
X144842331Y-158693796D01*
X144957546Y-158607546D01*
X145043796Y-158492331D01*
X145094091Y-158357483D01*
X145100500Y-158297873D01*
X145100499Y-156502128D01*
X145094091Y-156442517D01*
X145092810Y-156439083D01*
X145043797Y-156307671D01*
X145043793Y-156307664D01*
X144957547Y-156192455D01*
X144957544Y-156192452D01*
X144842335Y-156106206D01*
X144842328Y-156106202D01*
X144707482Y-156055908D01*
X144707483Y-156055908D01*
X144647883Y-156049501D01*
X144647881Y-156049500D01*
X144647873Y-156049500D01*
X144647864Y-156049500D01*
X142852129Y-156049500D01*
X142852123Y-156049501D01*
X142792516Y-156055908D01*
X142657671Y-156106202D01*
X142657664Y-156106206D01*
X142542455Y-156192452D01*
X142542452Y-156192455D01*
X142456206Y-156307664D01*
X142456203Y-156307669D01*
X142407189Y-156439083D01*
X142365317Y-156495016D01*
X142299853Y-156519433D01*
X142231580Y-156504581D01*
X142203326Y-156483430D01*
X142081402Y-156361506D01*
X142081395Y-156361501D01*
X142080108Y-156360600D01*
X142004518Y-156307671D01*
X141887834Y-156225967D01*
X141887830Y-156225965D01*
X141818541Y-156193655D01*
X141673663Y-156126097D01*
X141673659Y-156126096D01*
X141673655Y-156126094D01*
X141445413Y-156064938D01*
X141445403Y-156064936D01*
X141210001Y-156044341D01*
X141209999Y-156044341D01*
X140974596Y-156064936D01*
X140974586Y-156064938D01*
X140746344Y-156126094D01*
X140746335Y-156126098D01*
X140532171Y-156225964D01*
X140532169Y-156225965D01*
X140338597Y-156361505D01*
X140171505Y-156528597D01*
X140041575Y-156714158D01*
X139986998Y-156757783D01*
X139917500Y-156764977D01*
X139855145Y-156733454D01*
X139838425Y-156714158D01*
X139708494Y-156528597D01*
X139541402Y-156361506D01*
X139541395Y-156361501D01*
X139540108Y-156360600D01*
X139464518Y-156307671D01*
X139347834Y-156225967D01*
X139347830Y-156225965D01*
X139278541Y-156193655D01*
X139133663Y-156126097D01*
X139133659Y-156126096D01*
X139133655Y-156126094D01*
X138905413Y-156064938D01*
X138905403Y-156064936D01*
X138670001Y-156044341D01*
X138669999Y-156044341D01*
X138434596Y-156064936D01*
X138434586Y-156064938D01*
X138206344Y-156126094D01*
X138206335Y-156126098D01*
X137992171Y-156225964D01*
X137992169Y-156225965D01*
X137798597Y-156361505D01*
X137631505Y-156528597D01*
X137495965Y-156722169D01*
X137495964Y-156722171D01*
X137396098Y-156936335D01*
X137396094Y-156936344D01*
X137334938Y-157164586D01*
X137334936Y-157164596D01*
X137314341Y-157399999D01*
X135759922Y-157399999D01*
X135741780Y-157377302D01*
X135734588Y-157307804D01*
X135766110Y-157245449D01*
X135785406Y-157228730D01*
X135820913Y-157203868D01*
X135971401Y-157098495D01*
X136138495Y-156931401D01*
X136274035Y-156737830D01*
X136373903Y-156523663D01*
X136435063Y-156295408D01*
X136455659Y-156060000D01*
X136454740Y-156049501D01*
X136444508Y-155932544D01*
X136435063Y-155824592D01*
X136373903Y-155596337D01*
X136274035Y-155382171D01*
X136260194Y-155362403D01*
X136138494Y-155188597D01*
X135971402Y-155021506D01*
X135971395Y-155021501D01*
X135948770Y-155005659D01*
X135832011Y-154923903D01*
X135777832Y-154885966D01*
X135777823Y-154885962D01*
X135751313Y-154873600D01*
X135665466Y-154833568D01*
X135613027Y-154787395D01*
X135610489Y-154783194D01*
X135609676Y-154781785D01*
X135607684Y-154778334D01*
X135580522Y-154731287D01*
X135580521Y-154731286D01*
X135580520Y-154731284D01*
X135468716Y-154619480D01*
X135468715Y-154619479D01*
X135464385Y-154615149D01*
X135464374Y-154615139D01*
X133537297Y-152688062D01*
X133503812Y-152626739D01*
X133501575Y-152588230D01*
X133505341Y-152550000D01*
X133486024Y-152353868D01*
X133428814Y-152165273D01*
X133428810Y-152165266D01*
X133343784Y-152006192D01*
X133329542Y-151937789D01*
X133354542Y-151872546D01*
X133410847Y-151831175D01*
X133480580Y-151826813D01*
X133540823Y-151860058D01*
X134270139Y-152589374D01*
X134270149Y-152589385D01*
X134274479Y-152593715D01*
X134274480Y-152593716D01*
X134386284Y-152705520D01*
X134467012Y-152752128D01*
X134523215Y-152784577D01*
X134675943Y-152825500D01*
X134834057Y-152825500D01*
X137379718Y-152825500D01*
X137446757Y-152845185D01*
X137492512Y-152897989D01*
X137502456Y-152967147D01*
X137492100Y-153001903D01*
X137479844Y-153028187D01*
X137406097Y-153186335D01*
X137406094Y-153186344D01*
X137344938Y-153414586D01*
X137344936Y-153414596D01*
X137324341Y-153649999D01*
X137324341Y-153650000D01*
X137344936Y-153885403D01*
X137344938Y-153885413D01*
X137406094Y-154113655D01*
X137406096Y-154113659D01*
X137406097Y-154113663D01*
X137489155Y-154291781D01*
X137505965Y-154327830D01*
X137505967Y-154327834D01*
X137540975Y-154377830D01*
X137641505Y-154521401D01*
X137808599Y-154688495D01*
X137886917Y-154743334D01*
X138002165Y-154824032D01*
X138002167Y-154824033D01*
X138002170Y-154824035D01*
X138216337Y-154923903D01*
X138444592Y-154985063D01*
X138621034Y-155000500D01*
X138679999Y-155005659D01*
X138680000Y-155005659D01*
X138680001Y-155005659D01*
X138738966Y-155000500D01*
X138915408Y-154985063D01*
X139143663Y-154923903D01*
X139357830Y-154824035D01*
X139551401Y-154688495D01*
X139718495Y-154521401D01*
X139848730Y-154335405D01*
X139903307Y-154291781D01*
X139972805Y-154284587D01*
X140035160Y-154316110D01*
X140051879Y-154335405D01*
X140181890Y-154521078D01*
X140348917Y-154688105D01*
X140542421Y-154823600D01*
X140756507Y-154923429D01*
X140756516Y-154923433D01*
X140970000Y-154980634D01*
X140970000Y-154083012D01*
X141027007Y-154115925D01*
X141154174Y-154150000D01*
X141285826Y-154150000D01*
X141412993Y-154115925D01*
X141470000Y-154083012D01*
X141470000Y-154980633D01*
X141683483Y-154923433D01*
X141683492Y-154923429D01*
X141897578Y-154823600D01*
X142091078Y-154688108D01*
X142213133Y-154566053D01*
X142274456Y-154532568D01*
X142344148Y-154537552D01*
X142400082Y-154579423D01*
X142416997Y-154610401D01*
X142466202Y-154742328D01*
X142466206Y-154742335D01*
X142552452Y-154857544D01*
X142552455Y-154857547D01*
X142667664Y-154943793D01*
X142667671Y-154943797D01*
X142802517Y-154994091D01*
X142802516Y-154994091D01*
X142809444Y-154994835D01*
X142862127Y-155000500D01*
X144657872Y-155000499D01*
X144717483Y-154994091D01*
X144852331Y-154943796D01*
X144967546Y-154857546D01*
X145053796Y-154742331D01*
X145104091Y-154607483D01*
X145110500Y-154547873D01*
X145110499Y-152949499D01*
X145130184Y-152882461D01*
X145182987Y-152836706D01*
X145234499Y-152825500D01*
X145483480Y-152825500D01*
X145550519Y-152845185D01*
X145571161Y-152861819D01*
X145671661Y-152962319D01*
X145705146Y-153023642D01*
X145700162Y-153093334D01*
X145671661Y-153137681D01*
X145569531Y-153239810D01*
X145569530Y-153239811D01*
X145481522Y-153385393D01*
X145430913Y-153547807D01*
X145424500Y-153618386D01*
X145424500Y-154131613D01*
X145430913Y-154202192D01*
X145430913Y-154202194D01*
X145430914Y-154202196D01*
X145481522Y-154364606D01*
X145494095Y-154385405D01*
X145569530Y-154510188D01*
X145689811Y-154630469D01*
X145689813Y-154630470D01*
X145689815Y-154630472D01*
X145739650Y-154660598D01*
X145786838Y-154712126D01*
X145799500Y-154766715D01*
X145799500Y-158450830D01*
X145799499Y-158450848D01*
X145799499Y-158616554D01*
X145799498Y-158616554D01*
X145801502Y-158624032D01*
X145840423Y-158769285D01*
X145840424Y-158769287D01*
X145840423Y-158769287D01*
X145858442Y-158800495D01*
X145858444Y-158800497D01*
X145858445Y-158800499D01*
X145887024Y-158850000D01*
X145919479Y-158906215D01*
X146038349Y-159025085D01*
X146038355Y-159025090D01*
X146988181Y-159974916D01*
X147021666Y-160036239D01*
X147024500Y-160062597D01*
X147024500Y-160404181D01*
X147034563Y-160502683D01*
X147087450Y-160662284D01*
X147087455Y-160662295D01*
X147175716Y-160805387D01*
X147175719Y-160805391D01*
X147294608Y-160924280D01*
X147294612Y-160924283D01*
X147437704Y-161012544D01*
X147437707Y-161012545D01*
X147437713Y-161012549D01*
X147597315Y-161065436D01*
X147695826Y-161075500D01*
X147695831Y-161075500D01*
X148229169Y-161075500D01*
X148229174Y-161075500D01*
X148327685Y-161065436D01*
X148487287Y-161012549D01*
X148630391Y-160924281D01*
X148662319Y-160892353D01*
X148723642Y-160858868D01*
X148793334Y-160863852D01*
X148837681Y-160892353D01*
X148869608Y-160924280D01*
X148869612Y-160924283D01*
X149012704Y-161012544D01*
X149012707Y-161012545D01*
X149012713Y-161012549D01*
X149172315Y-161065436D01*
X149270826Y-161075500D01*
X149675500Y-161075500D01*
X149742539Y-161095185D01*
X149788294Y-161147989D01*
X149799500Y-161199500D01*
X149799500Y-162826409D01*
X149779815Y-162893448D01*
X149727011Y-162939203D01*
X149675581Y-162950409D01*
X149606667Y-162950454D01*
X149540614Y-162931448D01*
X149449523Y-162874211D01*
X149279254Y-162814631D01*
X149279249Y-162814630D01*
X149100004Y-162794435D01*
X149099996Y-162794435D01*
X148920750Y-162814630D01*
X148920737Y-162814633D01*
X148750482Y-162874208D01*
X148658323Y-162932115D01*
X148592433Y-162951120D01*
X115550413Y-162972801D01*
X115483361Y-162953160D01*
X115437571Y-162900386D01*
X115427583Y-162831235D01*
X115444794Y-162783704D01*
X115510903Y-162676524D01*
X115510902Y-162676524D01*
X115510908Y-162676516D01*
X115565174Y-162512753D01*
X115575500Y-162411677D01*
X115575499Y-161894382D01*
X115595183Y-161827344D01*
X115647987Y-161781589D01*
X115710722Y-161770892D01*
X115755910Y-161774998D01*
X115755926Y-161774999D01*
X115762499Y-161774998D01*
X115762500Y-161774998D01*
X115762500Y-160924000D01*
X115782185Y-160856961D01*
X115834989Y-160811206D01*
X115886500Y-160800000D01*
X116138500Y-160800000D01*
X116205539Y-160819685D01*
X116251294Y-160872489D01*
X116262500Y-160924000D01*
X116262500Y-161774999D01*
X116269081Y-161774999D01*
X116339602Y-161768591D01*
X116339607Y-161768590D01*
X116501896Y-161718018D01*
X116647377Y-161630072D01*
X116647378Y-161630071D01*
X116749463Y-161527985D01*
X116810786Y-161494499D01*
X116880477Y-161499483D01*
X116924826Y-161527984D01*
X117027311Y-161630469D01*
X117027313Y-161630470D01*
X117027315Y-161630472D01*
X117172894Y-161718478D01*
X117335304Y-161769086D01*
X117405884Y-161775500D01*
X117405887Y-161775500D01*
X117919113Y-161775500D01*
X117919116Y-161775500D01*
X117989696Y-161769086D01*
X118152106Y-161718478D01*
X118297685Y-161630472D01*
X118417972Y-161510185D01*
X118505978Y-161364606D01*
X118556586Y-161202196D01*
X118563000Y-161131616D01*
X118563000Y-160468384D01*
X118556586Y-160397804D01*
X118505978Y-160235394D01*
X118417972Y-160089815D01*
X118417970Y-160089813D01*
X118417969Y-160089811D01*
X118410346Y-160082188D01*
X118376861Y-160020865D01*
X118381845Y-159951173D01*
X118407516Y-159911230D01*
X118407300Y-159911059D01*
X118409046Y-159908849D01*
X118410350Y-159906821D01*
X118411781Y-159905391D01*
X118500049Y-159762287D01*
X118552936Y-159602685D01*
X118563000Y-159504174D01*
X118563000Y-158895826D01*
X118552936Y-158797315D01*
X118500049Y-158637713D01*
X118500045Y-158637707D01*
X118500044Y-158637704D01*
X118411783Y-158494612D01*
X118411780Y-158494608D01*
X118292891Y-158375719D01*
X118292887Y-158375716D01*
X118149795Y-158287455D01*
X118149789Y-158287452D01*
X118149787Y-158287451D01*
X117990185Y-158234564D01*
X117990183Y-158234563D01*
X117960883Y-158231570D01*
X117896191Y-158205173D01*
X117856041Y-158147991D01*
X117853179Y-158078180D01*
X117877634Y-158029547D01*
X117884858Y-158020745D01*
X117935910Y-157958538D01*
X118018392Y-157804225D01*
X118028811Y-157784733D01*
X118028811Y-157784732D01*
X118028814Y-157784727D01*
X118086024Y-157596132D01*
X118105341Y-157400000D01*
X118086024Y-157203868D01*
X118028814Y-157015273D01*
X118028811Y-157015269D01*
X118028811Y-157015266D01*
X117935913Y-156841467D01*
X117935909Y-156841460D01*
X117810883Y-156689116D01*
X117658539Y-156564090D01*
X117658532Y-156564086D01*
X117484733Y-156471188D01*
X117484727Y-156471186D01*
X117323055Y-156422143D01*
X117296129Y-156413975D01*
X117100000Y-156394659D01*
X116903870Y-156413975D01*
X116715266Y-156471188D01*
X116541467Y-156564086D01*
X116541460Y-156564090D01*
X116389116Y-156689116D01*
X116264090Y-156841460D01*
X116264086Y-156841467D01*
X116171188Y-157015266D01*
X116113975Y-157203870D01*
X116094659Y-157400000D01*
X116113975Y-157596129D01*
X116113976Y-157596132D01*
X116167078Y-157771186D01*
X116171188Y-157784733D01*
X116264086Y-157958532D01*
X116264091Y-157958539D01*
X116316036Y-158021835D01*
X116343349Y-158086145D01*
X116331558Y-158155013D01*
X116284406Y-158206573D01*
X116220183Y-158224500D01*
X115783316Y-158224500D01*
X115683524Y-158234695D01*
X115614831Y-158221925D01*
X115563946Y-158174045D01*
X115547026Y-158106255D01*
X115569442Y-158040078D01*
X115575053Y-158032692D01*
X115635910Y-157958538D01*
X115718392Y-157804225D01*
X115728811Y-157784733D01*
X115728811Y-157784732D01*
X115728814Y-157784727D01*
X115786024Y-157596132D01*
X115805341Y-157400000D01*
X115786024Y-157203868D01*
X115728814Y-157015273D01*
X115728811Y-157015269D01*
X115728811Y-157015266D01*
X115635913Y-156841467D01*
X115635909Y-156841460D01*
X115510883Y-156689116D01*
X115358539Y-156564090D01*
X115358532Y-156564086D01*
X115184733Y-156471188D01*
X115184727Y-156471186D01*
X115116704Y-156450551D01*
X115058269Y-156412255D01*
X115029813Y-156348443D01*
X115040373Y-156279376D01*
X115065019Y-156244214D01*
X115189234Y-156119999D01*
X118859341Y-156119999D01*
X118859341Y-156120000D01*
X118879936Y-156355403D01*
X118879938Y-156355413D01*
X118941094Y-156583655D01*
X118941096Y-156583659D01*
X118941097Y-156583663D01*
X119025467Y-156764594D01*
X119040965Y-156797830D01*
X119040967Y-156797834D01*
X119134493Y-156931402D01*
X119173082Y-156986513D01*
X119176501Y-156991395D01*
X119176506Y-156991402D01*
X119343597Y-157158493D01*
X119343603Y-157158498D01*
X119529158Y-157288425D01*
X119572783Y-157343002D01*
X119579977Y-157412500D01*
X119548454Y-157474855D01*
X119529158Y-157491575D01*
X119343597Y-157621505D01*
X119176505Y-157788597D01*
X119040965Y-157982169D01*
X119040964Y-157982171D01*
X118941098Y-158196335D01*
X118941094Y-158196344D01*
X118879938Y-158424586D01*
X118879936Y-158424596D01*
X118859341Y-158659999D01*
X118859341Y-158660000D01*
X118879936Y-158895403D01*
X118879938Y-158895413D01*
X118941094Y-159123655D01*
X118941096Y-159123659D01*
X118941097Y-159123663D01*
X119025295Y-159304225D01*
X119040965Y-159337830D01*
X119040967Y-159337834D01*
X119125486Y-159458538D01*
X119176501Y-159531396D01*
X119176506Y-159531402D01*
X119298430Y-159653326D01*
X119331915Y-159714649D01*
X119326931Y-159784341D01*
X119285059Y-159840274D01*
X119254083Y-159857189D01*
X119122669Y-159906203D01*
X119122664Y-159906206D01*
X119007455Y-159992452D01*
X119007452Y-159992455D01*
X118921206Y-160107664D01*
X118921202Y-160107671D01*
X118870908Y-160242517D01*
X118866994Y-160278926D01*
X118864501Y-160302123D01*
X118864500Y-160302135D01*
X118864500Y-162097870D01*
X118864501Y-162097876D01*
X118870908Y-162157483D01*
X118921202Y-162292328D01*
X118921206Y-162292335D01*
X119007452Y-162407544D01*
X119007455Y-162407547D01*
X119122664Y-162493793D01*
X119122671Y-162493797D01*
X119257517Y-162544091D01*
X119257516Y-162544091D01*
X119264444Y-162544835D01*
X119317127Y-162550500D01*
X121112872Y-162550499D01*
X121172483Y-162544091D01*
X121307331Y-162493796D01*
X121422546Y-162407546D01*
X121508796Y-162292331D01*
X121559091Y-162157483D01*
X121565500Y-162097873D01*
X121565499Y-160302128D01*
X121559091Y-160242517D01*
X121558946Y-160242129D01*
X121508797Y-160107671D01*
X121508793Y-160107664D01*
X121422547Y-159992455D01*
X121422544Y-159992452D01*
X121307335Y-159906206D01*
X121307328Y-159906202D01*
X121175917Y-159857189D01*
X121119983Y-159815318D01*
X121095566Y-159749853D01*
X121110418Y-159681580D01*
X121131563Y-159653332D01*
X121253495Y-159531401D01*
X121389035Y-159337830D01*
X121488903Y-159123663D01*
X121550063Y-158895408D01*
X121570659Y-158660000D01*
X121550063Y-158424592D01*
X121491271Y-158205173D01*
X121488905Y-158196344D01*
X121488904Y-158196343D01*
X121488903Y-158196337D01*
X121389035Y-157982171D01*
X121381344Y-157971186D01*
X121253494Y-157788597D01*
X121086402Y-157621506D01*
X121086396Y-157621501D01*
X120900842Y-157491575D01*
X120857217Y-157436998D01*
X120850023Y-157367500D01*
X120881546Y-157305145D01*
X120900842Y-157288425D01*
X120942041Y-157259577D01*
X121086401Y-157158495D01*
X121253495Y-156991401D01*
X121389035Y-156797830D01*
X121488903Y-156583663D01*
X121550063Y-156355408D01*
X121570659Y-156120000D01*
X121569330Y-156104815D01*
X121565842Y-156064938D01*
X121565410Y-156059999D01*
X122494341Y-156059999D01*
X122494341Y-156060000D01*
X122514936Y-156295403D01*
X122514938Y-156295413D01*
X122576094Y-156523655D01*
X122576096Y-156523659D01*
X122576097Y-156523663D01*
X122601864Y-156578920D01*
X122675965Y-156737830D01*
X122675967Y-156737834D01*
X122748529Y-156841462D01*
X122811505Y-156931401D01*
X122978599Y-157098495D01*
X123126793Y-157202262D01*
X123164594Y-157228730D01*
X123208219Y-157283307D01*
X123215413Y-157352805D01*
X123183890Y-157415160D01*
X123164595Y-157431880D01*
X122978922Y-157561890D01*
X122978920Y-157561891D01*
X122811891Y-157728920D01*
X122811886Y-157728926D01*
X122676400Y-157922420D01*
X122676399Y-157922422D01*
X122576570Y-158136507D01*
X122576567Y-158136513D01*
X122519364Y-158349999D01*
X122519364Y-158350000D01*
X123416988Y-158350000D01*
X123384075Y-158407007D01*
X123350000Y-158534174D01*
X123350000Y-158665826D01*
X123384075Y-158792993D01*
X123416988Y-158850000D01*
X122519364Y-158850000D01*
X122576567Y-159063486D01*
X122576570Y-159063492D01*
X122676399Y-159277578D01*
X122811894Y-159471082D01*
X122933946Y-159593134D01*
X122967431Y-159654457D01*
X122962447Y-159724149D01*
X122920575Y-159780082D01*
X122889598Y-159796997D01*
X122757671Y-159846202D01*
X122757664Y-159846206D01*
X122642455Y-159932452D01*
X122642452Y-159932455D01*
X122556206Y-160047664D01*
X122556202Y-160047671D01*
X122505908Y-160182517D01*
X122500338Y-160234334D01*
X122499501Y-160242123D01*
X122499500Y-160242135D01*
X122499500Y-162037870D01*
X122499501Y-162037876D01*
X122505908Y-162097483D01*
X122556202Y-162232328D01*
X122556206Y-162232335D01*
X122642452Y-162347544D01*
X122642455Y-162347547D01*
X122757664Y-162433793D01*
X122757671Y-162433797D01*
X122892517Y-162484091D01*
X122892516Y-162484091D01*
X122899444Y-162484835D01*
X122952127Y-162490500D01*
X124747872Y-162490499D01*
X124807483Y-162484091D01*
X124942331Y-162433796D01*
X125057546Y-162347546D01*
X125143796Y-162232331D01*
X125194091Y-162097483D01*
X125200500Y-162037873D01*
X125200499Y-160242128D01*
X125194091Y-160182517D01*
X125187720Y-160165436D01*
X125143797Y-160047671D01*
X125143793Y-160047664D01*
X125057547Y-159932455D01*
X125057544Y-159932452D01*
X124942335Y-159846206D01*
X124942328Y-159846202D01*
X124810401Y-159796997D01*
X124754467Y-159755126D01*
X124730050Y-159689662D01*
X124744902Y-159621389D01*
X124766053Y-159593133D01*
X124888108Y-159471078D01*
X125023600Y-159277578D01*
X125123429Y-159063492D01*
X125123432Y-159063486D01*
X125180636Y-158850000D01*
X124283012Y-158850000D01*
X124315925Y-158792993D01*
X124350000Y-158665826D01*
X124350000Y-158534174D01*
X124315925Y-158407007D01*
X124283012Y-158350000D01*
X125180636Y-158350000D01*
X125180635Y-158349999D01*
X125123432Y-158136513D01*
X125123429Y-158136507D01*
X125023600Y-157922422D01*
X125023599Y-157922420D01*
X124888113Y-157728926D01*
X124888108Y-157728920D01*
X124721078Y-157561890D01*
X124535405Y-157431879D01*
X124491780Y-157377302D01*
X124484588Y-157307804D01*
X124516110Y-157245449D01*
X124535406Y-157228730D01*
X124570913Y-157203868D01*
X124721401Y-157098495D01*
X124888495Y-156931401D01*
X125024035Y-156737830D01*
X125123903Y-156523663D01*
X125185063Y-156295408D01*
X125205659Y-156060000D01*
X125204740Y-156049501D01*
X125194508Y-155932544D01*
X125185063Y-155824592D01*
X125123903Y-155596337D01*
X125024035Y-155382171D01*
X125010194Y-155362403D01*
X124888494Y-155188597D01*
X124721402Y-155021506D01*
X124721395Y-155021501D01*
X124698770Y-155005659D01*
X124672717Y-154987416D01*
X124527831Y-154885965D01*
X124527826Y-154885962D01*
X124522091Y-154883288D01*
X124469653Y-154837113D01*
X124450500Y-154770908D01*
X124450500Y-153462301D01*
X124465141Y-153403850D01*
X124528814Y-153284727D01*
X124586024Y-153096132D01*
X124605341Y-152900000D01*
X124586024Y-152703868D01*
X124528814Y-152515273D01*
X124528811Y-152515269D01*
X124528811Y-152515266D01*
X124435913Y-152341467D01*
X124435909Y-152341460D01*
X124310883Y-152189116D01*
X124158539Y-152064090D01*
X124158532Y-152064086D01*
X123984733Y-151971188D01*
X123984727Y-151971186D01*
X123796132Y-151913976D01*
X123796129Y-151913975D01*
X123600000Y-151894659D01*
X123403870Y-151913975D01*
X123215266Y-151971188D01*
X123041467Y-152064086D01*
X123041460Y-152064090D01*
X122889116Y-152189116D01*
X122764090Y-152341460D01*
X122764086Y-152341467D01*
X122671188Y-152515266D01*
X122613975Y-152703870D01*
X122594659Y-152900000D01*
X122613975Y-153096129D01*
X122621073Y-153119528D01*
X122657560Y-153239810D01*
X122671188Y-153284733D01*
X122764086Y-153458532D01*
X122764090Y-153458539D01*
X122889116Y-153610883D01*
X122950435Y-153661206D01*
X123041462Y-153735910D01*
X123183955Y-153812074D01*
X123233797Y-153861035D01*
X123249500Y-153921431D01*
X123249500Y-154770908D01*
X123229815Y-154837947D01*
X123177914Y-154883286D01*
X123172173Y-154885963D01*
X123172169Y-154885965D01*
X122978597Y-155021505D01*
X122811505Y-155188597D01*
X122675965Y-155382169D01*
X122675964Y-155382171D01*
X122576098Y-155596335D01*
X122576094Y-155596344D01*
X122514938Y-155824586D01*
X122514936Y-155824596D01*
X122494341Y-156059999D01*
X121565410Y-156059999D01*
X121550063Y-155884592D01*
X121488903Y-155656337D01*
X121389035Y-155442171D01*
X121347022Y-155382169D01*
X121253494Y-155248597D01*
X121086402Y-155081506D01*
X121086401Y-155081505D01*
X120900405Y-154951269D01*
X120856781Y-154896692D01*
X120849588Y-154827193D01*
X120881110Y-154764839D01*
X120900405Y-154748119D01*
X121086082Y-154618105D01*
X121253105Y-154451082D01*
X121388600Y-154257578D01*
X121488429Y-154043492D01*
X121488432Y-154043486D01*
X121545636Y-153830000D01*
X120648012Y-153830000D01*
X120680925Y-153772993D01*
X120715000Y-153645826D01*
X120715000Y-153514174D01*
X120680925Y-153387007D01*
X120648012Y-153330000D01*
X121545636Y-153330000D01*
X121545635Y-153329999D01*
X121488432Y-153116513D01*
X121488429Y-153116507D01*
X121388600Y-152902422D01*
X121388599Y-152902420D01*
X121253113Y-152708926D01*
X121253108Y-152708920D01*
X121086082Y-152541894D01*
X120892578Y-152406399D01*
X120678492Y-152306570D01*
X120678486Y-152306567D01*
X120465000Y-152249364D01*
X120465000Y-153146988D01*
X120407993Y-153114075D01*
X120280826Y-153080000D01*
X120149174Y-153080000D01*
X120022007Y-153114075D01*
X119965000Y-153146988D01*
X119965000Y-152249364D01*
X119964999Y-152249364D01*
X119751513Y-152306567D01*
X119751507Y-152306570D01*
X119537422Y-152406399D01*
X119537420Y-152406400D01*
X119343926Y-152541886D01*
X119343920Y-152541891D01*
X119176891Y-152708920D01*
X119176886Y-152708926D01*
X119041400Y-152902420D01*
X119041399Y-152902422D01*
X118941570Y-153116507D01*
X118941567Y-153116513D01*
X118884364Y-153329999D01*
X118884364Y-153330000D01*
X119781988Y-153330000D01*
X119749075Y-153387007D01*
X119715000Y-153514174D01*
X119715000Y-153645826D01*
X119749075Y-153772993D01*
X119781988Y-153830000D01*
X118884364Y-153830000D01*
X118941567Y-154043486D01*
X118941570Y-154043492D01*
X119041399Y-154257578D01*
X119176894Y-154451082D01*
X119343917Y-154618105D01*
X119529595Y-154748119D01*
X119573219Y-154802696D01*
X119580412Y-154872195D01*
X119548890Y-154934549D01*
X119529595Y-154951269D01*
X119343594Y-155081508D01*
X119176505Y-155248597D01*
X119040965Y-155442169D01*
X119040964Y-155442171D01*
X118941098Y-155656335D01*
X118941094Y-155656344D01*
X118879938Y-155884586D01*
X118879936Y-155884596D01*
X118859341Y-156119999D01*
X115189234Y-156119999D01*
X120931470Y-150377764D01*
X120992791Y-150344281D01*
X121051242Y-150345672D01*
X121077938Y-150352825D01*
X121179592Y-150380063D01*
X121367918Y-150396539D01*
X121414999Y-150400659D01*
X121415000Y-150400659D01*
X121415001Y-150400659D01*
X121454234Y-150397226D01*
X121650408Y-150380063D01*
X121878663Y-150318903D01*
X122092830Y-150219035D01*
X122286401Y-150083495D01*
X122453495Y-149916401D01*
X122583425Y-149730842D01*
X122638002Y-149687217D01*
X122707500Y-149680023D01*
X122769855Y-149711546D01*
X122786575Y-149730842D01*
X122916281Y-149916082D01*
X122916505Y-149916401D01*
X123083599Y-150083495D01*
X123144851Y-150126384D01*
X123277165Y-150219032D01*
X123277167Y-150219033D01*
X123277170Y-150219035D01*
X123491337Y-150318903D01*
X123719592Y-150380063D01*
X123907918Y-150396539D01*
X123954999Y-150400659D01*
X123955000Y-150400659D01*
X123955001Y-150400659D01*
X123994234Y-150397226D01*
X124190408Y-150380063D01*
X124418663Y-150318903D01*
X124632830Y-150219035D01*
X124826401Y-150083495D01*
X124993495Y-149916401D01*
X125123425Y-149730842D01*
X125178002Y-149687217D01*
X125247500Y-149680023D01*
X125309855Y-149711546D01*
G37*
%TD.AperFunction*%
%TA.AperFunction,Conductor*%
G36*
X105929454Y-156079653D02*
G01*
X105955539Y-156109757D01*
X106006546Y-156192454D01*
X106007288Y-156193656D01*
X106131344Y-156317712D01*
X106280666Y-156409814D01*
X106447203Y-156464999D01*
X106549991Y-156475500D01*
X108049902Y-156475499D01*
X108116941Y-156495184D01*
X108137583Y-156511818D01*
X109045139Y-157419374D01*
X109045149Y-157419385D01*
X109049479Y-157423715D01*
X109049480Y-157423716D01*
X109161284Y-157535520D01*
X109161286Y-157535521D01*
X109163181Y-157537416D01*
X109196666Y-157598739D01*
X109199500Y-157625093D01*
X109199500Y-157647866D01*
X109199501Y-157647878D01*
X109203679Y-157686745D01*
X109203679Y-157713250D01*
X109199500Y-157752122D01*
X109199500Y-158022410D01*
X109179815Y-158089449D01*
X109127011Y-158135204D01*
X109089384Y-158145630D01*
X108920749Y-158164630D01*
X108920737Y-158164633D01*
X108750480Y-158224209D01*
X108703911Y-158253470D01*
X108636674Y-158272469D01*
X108569840Y-158252100D01*
X108542087Y-158227139D01*
X108510882Y-158189116D01*
X108358539Y-158064090D01*
X108358532Y-158064086D01*
X108184733Y-157971188D01*
X108184727Y-157971186D01*
X107996132Y-157913976D01*
X107996129Y-157913975D01*
X107800000Y-157894659D01*
X107603870Y-157913975D01*
X107415266Y-157971188D01*
X107241467Y-158064086D01*
X107241460Y-158064090D01*
X107089116Y-158189116D01*
X106964090Y-158341460D01*
X106964086Y-158341467D01*
X106871188Y-158515266D01*
X106813975Y-158703870D01*
X106794659Y-158900000D01*
X106813975Y-159096129D01*
X106813976Y-159096132D01*
X106869017Y-159277578D01*
X106871188Y-159284733D01*
X106964086Y-159458532D01*
X106964090Y-159458539D01*
X107089116Y-159610883D01*
X107144438Y-159656284D01*
X107227560Y-159724501D01*
X107229665Y-159726228D01*
X107268999Y-159783973D01*
X107275000Y-159822081D01*
X107275000Y-160536000D01*
X107255315Y-160603039D01*
X107202511Y-160648794D01*
X107151000Y-160660000D01*
X106899000Y-160660000D01*
X106831961Y-160640315D01*
X106786206Y-160587511D01*
X106775000Y-160536000D01*
X106775000Y-159685000D01*
X106774999Y-159684999D01*
X106768436Y-159685000D01*
X106768417Y-159685001D01*
X106697897Y-159691408D01*
X106697892Y-159691409D01*
X106535603Y-159741981D01*
X106398808Y-159824677D01*
X106331253Y-159842513D01*
X106264780Y-159820995D01*
X106227271Y-159780561D01*
X106194904Y-159724500D01*
X106172098Y-159684999D01*
X106155521Y-159656285D01*
X106039385Y-159540149D01*
X106039374Y-159540139D01*
X105382814Y-158883579D01*
X105349329Y-158822256D01*
X105347092Y-158783747D01*
X105355341Y-158700000D01*
X105336024Y-158503868D01*
X105278814Y-158315273D01*
X105278811Y-158315269D01*
X105278811Y-158315266D01*
X105185913Y-158141467D01*
X105185909Y-158141460D01*
X105060883Y-157989116D01*
X104908539Y-157864090D01*
X104908532Y-157864086D01*
X104734730Y-157771187D01*
X104729100Y-157768855D01*
X104729974Y-157766744D01*
X104680058Y-157734024D01*
X104651608Y-157670209D01*
X104650500Y-157653671D01*
X104650500Y-156599499D01*
X104670185Y-156532460D01*
X104722989Y-156486705D01*
X104774500Y-156475499D01*
X105150002Y-156475499D01*
X105150008Y-156475499D01*
X105252797Y-156464999D01*
X105419334Y-156409814D01*
X105568656Y-156317712D01*
X105692712Y-156193656D01*
X105744461Y-156109756D01*
X105796409Y-156063032D01*
X105865371Y-156051809D01*
X105929454Y-156079653D01*
G37*
%TD.AperFunction*%
%TA.AperFunction,Conductor*%
G36*
X145992543Y-144520185D02*
G01*
X146038298Y-144572989D01*
X146048242Y-144642147D01*
X146030497Y-144690473D01*
X146024211Y-144700475D01*
X145964631Y-144870745D01*
X145964630Y-144870750D01*
X145944435Y-145049996D01*
X145944435Y-145050003D01*
X145964630Y-145229249D01*
X145964631Y-145229254D01*
X146024211Y-145399523D01*
X146120184Y-145552262D01*
X146247738Y-145679816D01*
X146400478Y-145775789D01*
X146570745Y-145835368D01*
X146624116Y-145841381D01*
X146688527Y-145868446D01*
X146728083Y-145926041D01*
X146730222Y-145995878D01*
X146716349Y-146028749D01*
X146681981Y-146085601D01*
X146681980Y-146085603D01*
X146631409Y-146247893D01*
X146625000Y-146318427D01*
X146625000Y-146400000D01*
X147401000Y-146400000D01*
X147468039Y-146419685D01*
X147513794Y-146472489D01*
X147525000Y-146524000D01*
X147525000Y-146650000D01*
X147651000Y-146650000D01*
X147718039Y-146669685D01*
X147763794Y-146722489D01*
X147775000Y-146774000D01*
X147775000Y-147624999D01*
X147781581Y-147624999D01*
X147852102Y-147618591D01*
X147852107Y-147618590D01*
X148014396Y-147568018D01*
X148159877Y-147480072D01*
X148159878Y-147480071D01*
X148261963Y-147377985D01*
X148323286Y-147344499D01*
X148392977Y-147349483D01*
X148437326Y-147377984D01*
X148539811Y-147480469D01*
X148539813Y-147480470D01*
X148539815Y-147480472D01*
X148685394Y-147568478D01*
X148847804Y-147619086D01*
X148918384Y-147625500D01*
X148918387Y-147625500D01*
X149431613Y-147625500D01*
X149431616Y-147625500D01*
X149502196Y-147619086D01*
X149638611Y-147576577D01*
X149708470Y-147575426D01*
X149767862Y-147612227D01*
X149797930Y-147675296D01*
X149799500Y-147694963D01*
X149799500Y-148383119D01*
X149779815Y-148450158D01*
X149727011Y-148495913D01*
X149657853Y-148505857D01*
X149617048Y-148492478D01*
X149484537Y-148421651D01*
X149296030Y-148364468D01*
X149296034Y-148364468D01*
X149100000Y-148345161D01*
X148903967Y-148364468D01*
X148715466Y-148421649D01*
X148591476Y-148487923D01*
X149189095Y-149085542D01*
X149222580Y-149146865D01*
X149217596Y-149216557D01*
X149189096Y-149260904D01*
X149100000Y-149350000D01*
X149189095Y-149439095D01*
X149222580Y-149500418D01*
X149217596Y-149570110D01*
X149189095Y-149614457D01*
X148591476Y-150212075D01*
X148715462Y-150278348D01*
X148903969Y-150335531D01*
X148903965Y-150335531D01*
X149100000Y-150354838D01*
X149296032Y-150335531D01*
X149484539Y-150278348D01*
X149617047Y-150207522D01*
X149685450Y-150193280D01*
X149750694Y-150218280D01*
X149792064Y-150274585D01*
X149799500Y-150316880D01*
X149799500Y-151200500D01*
X149779815Y-151267539D01*
X149727011Y-151313294D01*
X149675500Y-151324500D01*
X149400097Y-151324500D01*
X149333058Y-151304815D01*
X149312416Y-151288181D01*
X148712590Y-150688355D01*
X148712588Y-150688352D01*
X148593716Y-150569480D01*
X148593714Y-150569479D01*
X148506904Y-150519360D01*
X148506904Y-150519359D01*
X148506900Y-150519358D01*
X148456785Y-150490423D01*
X148304057Y-150449499D01*
X148145943Y-150449499D01*
X148138347Y-150449499D01*
X148138331Y-150449500D01*
X146345091Y-150449500D01*
X146299772Y-150436192D01*
X146278014Y-150447328D01*
X146254909Y-150449500D01*
X144426102Y-150449500D01*
X144359063Y-150429815D01*
X144313308Y-150377011D01*
X144303364Y-150307853D01*
X144329736Y-150247464D01*
X144336396Y-150239240D01*
X144547876Y-149978084D01*
X144626532Y-149856962D01*
X144679551Y-149811462D01*
X144730526Y-149800500D01*
X145439880Y-149800500D01*
X145506919Y-149820185D01*
X145535733Y-149845835D01*
X145589116Y-149910883D01*
X145741460Y-150035909D01*
X145741467Y-150035913D01*
X145915266Y-150128811D01*
X145915269Y-150128811D01*
X145915273Y-150128814D01*
X146103868Y-150186024D01*
X146267063Y-150202097D01*
X146297757Y-150214491D01*
X146310156Y-150206523D01*
X146332937Y-150202097D01*
X146496132Y-150186024D01*
X146684727Y-150128814D01*
X146689274Y-150126384D01*
X146858532Y-150035913D01*
X146858538Y-150035910D01*
X147010883Y-149910883D01*
X147135910Y-149758538D01*
X147228814Y-149584727D01*
X147286024Y-149396132D01*
X147290568Y-149350000D01*
X148095161Y-149350000D01*
X148114468Y-149546032D01*
X148171651Y-149734539D01*
X148237922Y-149858523D01*
X148237923Y-149858523D01*
X148746446Y-149350000D01*
X148746446Y-149349999D01*
X148237923Y-148841476D01*
X148171649Y-148965466D01*
X148114468Y-149153967D01*
X148095161Y-149350000D01*
X147290568Y-149350000D01*
X147305341Y-149200000D01*
X147286024Y-149003868D01*
X147228814Y-148815273D01*
X147228811Y-148815269D01*
X147228811Y-148815266D01*
X147135913Y-148641467D01*
X147135909Y-148641460D01*
X147010883Y-148489116D01*
X146858539Y-148364090D01*
X146858532Y-148364086D01*
X146684733Y-148271188D01*
X146684727Y-148271186D01*
X146496132Y-148213976D01*
X146496129Y-148213975D01*
X146300000Y-148194659D01*
X146103870Y-148213975D01*
X145915266Y-148271188D01*
X145741467Y-148364086D01*
X145741460Y-148364090D01*
X145589116Y-148489116D01*
X145535733Y-148554165D01*
X145477988Y-148593499D01*
X145439880Y-148599500D01*
X145315183Y-148599500D01*
X145248144Y-148579815D01*
X145202389Y-148527011D01*
X145192445Y-148457853D01*
X145192710Y-148456102D01*
X145235278Y-148187338D01*
X145255578Y-147800000D01*
X145235278Y-147412662D01*
X145174602Y-147029567D01*
X145161744Y-146981582D01*
X146625001Y-146981582D01*
X146631408Y-147052102D01*
X146631409Y-147052107D01*
X146681981Y-147214396D01*
X146769927Y-147359877D01*
X146890122Y-147480072D01*
X147035604Y-147568019D01*
X147035603Y-147568019D01*
X147197894Y-147618590D01*
X147197893Y-147618590D01*
X147268408Y-147624998D01*
X147268426Y-147624999D01*
X147274999Y-147624998D01*
X147275000Y-147624998D01*
X147275000Y-146900000D01*
X146625001Y-146900000D01*
X146625001Y-146981582D01*
X145161744Y-146981582D01*
X145074214Y-146654913D01*
X144935214Y-146292806D01*
X144759125Y-145947211D01*
X144708969Y-145869977D01*
X144547877Y-145621917D01*
X144378427Y-145412664D01*
X144303781Y-145320484D01*
X144029516Y-145046219D01*
X143728084Y-144802124D01*
X143728082Y-144802122D01*
X143614706Y-144728495D01*
X143569203Y-144675474D01*
X143559589Y-144606269D01*
X143588916Y-144542852D01*
X143647873Y-144505358D01*
X143682241Y-144500500D01*
X145925504Y-144500500D01*
X145992543Y-144520185D01*
G37*
%TD.AperFunction*%
%TA.AperFunction,Conductor*%
G36*
X88992539Y-148814685D02*
G01*
X89038294Y-148867489D01*
X89049500Y-148919000D01*
X89049500Y-149171000D01*
X89029815Y-149238039D01*
X88977011Y-149283794D01*
X88925500Y-149295000D01*
X88828012Y-149295000D01*
X88860925Y-149237993D01*
X88895000Y-149110826D01*
X88895000Y-148979174D01*
X88860925Y-148852007D01*
X88828012Y-148795000D01*
X88925500Y-148795000D01*
X88992539Y-148814685D01*
G37*
%TD.AperFunction*%
%TA.AperFunction,Conductor*%
G36*
X90469075Y-148852007D02*
G01*
X90435000Y-148979174D01*
X90435000Y-149110826D01*
X90469075Y-149237993D01*
X90501988Y-149295000D01*
X90374500Y-149295000D01*
X90307461Y-149275315D01*
X90261706Y-149222511D01*
X90250500Y-149171000D01*
X90250500Y-148919000D01*
X90270185Y-148851961D01*
X90322989Y-148806206D01*
X90374500Y-148795000D01*
X90501988Y-148795000D01*
X90469075Y-148852007D01*
G37*
%TD.AperFunction*%
%TD*%
%TA.AperFunction,Conductor*%
%TO.N,/11.1*%
G36*
X148584627Y-164220185D02*
G01*
X148594903Y-164227555D01*
X148597736Y-164229814D01*
X148597738Y-164229816D01*
X148750478Y-164325789D01*
X148920745Y-164385368D01*
X148989384Y-164393101D01*
X149053796Y-164420166D01*
X149093352Y-164477760D01*
X149099500Y-164516321D01*
X149099500Y-186399903D01*
X149079815Y-186466942D01*
X149063181Y-186487584D01*
X147612584Y-187938181D01*
X147551261Y-187971666D01*
X147524903Y-187974500D01*
X147218384Y-187974500D01*
X147199145Y-187976248D01*
X147147807Y-187980913D01*
X146985393Y-188031522D01*
X146839811Y-188119530D01*
X146719530Y-188239811D01*
X146631522Y-188385393D01*
X146580913Y-188547807D01*
X146574500Y-188618386D01*
X146574500Y-189281613D01*
X146580913Y-189352192D01*
X146580913Y-189352194D01*
X146580914Y-189352196D01*
X146631522Y-189514606D01*
X146665801Y-189571310D01*
X146683637Y-189638863D01*
X146662120Y-189705337D01*
X146608079Y-189749625D01*
X146573569Y-189758679D01*
X146520749Y-189764630D01*
X146520745Y-189764631D01*
X146350476Y-189824211D01*
X146197737Y-189920184D01*
X146070184Y-190047737D01*
X145974211Y-190200476D01*
X145914631Y-190370745D01*
X145914630Y-190370750D01*
X145894435Y-190549996D01*
X145894435Y-190550003D01*
X145914630Y-190729249D01*
X145914631Y-190729254D01*
X145974211Y-190899523D01*
X146070184Y-191052262D01*
X146105741Y-191087819D01*
X146139226Y-191149142D01*
X146134242Y-191218834D01*
X146092370Y-191274767D01*
X146026906Y-191299184D01*
X146018060Y-191299500D01*
X143349393Y-191299500D01*
X143282354Y-191279815D01*
X143236599Y-191227011D01*
X143226655Y-191157853D01*
X143255680Y-191094297D01*
X143293098Y-191065015D01*
X143402789Y-191009125D01*
X143728084Y-190797876D01*
X144029516Y-190553781D01*
X144303781Y-190279516D01*
X144547876Y-189978084D01*
X144759125Y-189652789D01*
X144935214Y-189307194D01*
X145074214Y-188945087D01*
X145174602Y-188570433D01*
X145235278Y-188187338D01*
X145255578Y-187800000D01*
X145235278Y-187412662D01*
X145174602Y-187029567D01*
X145074214Y-186654913D01*
X144935214Y-186292806D01*
X144929355Y-186281308D01*
X144914567Y-186252283D01*
X144759125Y-185947211D01*
X144547876Y-185621916D01*
X144303781Y-185320484D01*
X144029516Y-185046219D01*
X143941789Y-184975179D01*
X143728082Y-184802122D01*
X143402793Y-184590877D01*
X143057197Y-184414787D01*
X142695094Y-184275788D01*
X142657378Y-184265682D01*
X142320433Y-184175398D01*
X142320429Y-184175397D01*
X142320428Y-184175397D01*
X141937339Y-184114722D01*
X141550001Y-184094422D01*
X141549999Y-184094422D01*
X141162660Y-184114722D01*
X140779572Y-184175397D01*
X140779570Y-184175397D01*
X140404905Y-184275788D01*
X140042802Y-184414787D01*
X139697206Y-184590877D01*
X139371917Y-184802122D01*
X139070488Y-185046215D01*
X139070480Y-185046222D01*
X138796222Y-185320480D01*
X138796215Y-185320488D01*
X138552122Y-185621917D01*
X138340877Y-185947206D01*
X138164787Y-186292802D01*
X138025788Y-186654905D01*
X137925397Y-187029570D01*
X137925397Y-187029572D01*
X137864722Y-187412660D01*
X137844422Y-187799999D01*
X137844422Y-187800000D01*
X137864722Y-188187339D01*
X137925397Y-188570427D01*
X137925397Y-188570429D01*
X138025788Y-188945094D01*
X138164787Y-189307197D01*
X138340877Y-189652793D01*
X138552122Y-189978082D01*
X138711074Y-190174371D01*
X138796219Y-190279516D01*
X139070484Y-190553781D01*
X139070488Y-190553784D01*
X139371917Y-190797877D01*
X139697206Y-191009122D01*
X139697211Y-191009125D01*
X139806902Y-191065015D01*
X139857698Y-191112989D01*
X139874493Y-191180810D01*
X139851956Y-191246945D01*
X139797241Y-191290397D01*
X139750607Y-191299500D01*
X85299393Y-191299500D01*
X85232354Y-191279815D01*
X85186599Y-191227011D01*
X85176655Y-191157853D01*
X85205680Y-191094297D01*
X85243098Y-191065015D01*
X85352789Y-191009125D01*
X85678084Y-190797876D01*
X85979516Y-190553781D01*
X86253781Y-190279516D01*
X86497876Y-189978084D01*
X86709125Y-189652789D01*
X86885214Y-189307194D01*
X87024214Y-188945087D01*
X87124602Y-188570433D01*
X87185278Y-188187338D01*
X87205578Y-187800000D01*
X87185278Y-187412662D01*
X87124602Y-187029567D01*
X87024214Y-186654913D01*
X86885214Y-186292806D01*
X86879355Y-186281308D01*
X86864567Y-186252283D01*
X86709125Y-185947211D01*
X86497876Y-185621916D01*
X86253781Y-185320484D01*
X86211846Y-185278549D01*
X92949500Y-185278549D01*
X92949500Y-188421450D01*
X92964804Y-188635433D01*
X93025628Y-188915037D01*
X93025630Y-188915043D01*
X93025631Y-188915046D01*
X93110709Y-189143148D01*
X93125635Y-189183166D01*
X93262770Y-189434309D01*
X93262775Y-189434317D01*
X93434254Y-189663387D01*
X93434270Y-189663405D01*
X93636594Y-189865729D01*
X93636612Y-189865745D01*
X93865682Y-190037224D01*
X93865690Y-190037229D01*
X94116833Y-190174364D01*
X94116832Y-190174364D01*
X94116836Y-190174365D01*
X94116839Y-190174367D01*
X94384954Y-190274369D01*
X94384960Y-190274370D01*
X94384962Y-190274371D01*
X94664566Y-190335195D01*
X94664568Y-190335195D01*
X94664572Y-190335196D01*
X94878552Y-190350500D01*
X98021448Y-190350500D01*
X98235428Y-190335196D01*
X98515046Y-190274369D01*
X98783161Y-190174367D01*
X99034315Y-190037226D01*
X99263395Y-189865739D01*
X99465739Y-189663395D01*
X99637226Y-189434315D01*
X99774367Y-189183161D01*
X99874369Y-188915046D01*
X99874371Y-188915037D01*
X99935195Y-188635433D01*
X99935195Y-188635432D01*
X99935196Y-188635428D01*
X99950500Y-188421448D01*
X99950500Y-187441429D01*
X99970185Y-187374390D01*
X100022989Y-187328635D01*
X100092147Y-187318691D01*
X100155703Y-187347716D01*
X100193477Y-187406494D01*
X100196973Y-187422031D01*
X100221784Y-187578684D01*
X100221784Y-187578686D01*
X100316736Y-187933051D01*
X100448204Y-188275535D01*
X100614754Y-188602406D01*
X100814553Y-188910070D01*
X101003297Y-189143148D01*
X101891777Y-188254668D01*
X101954731Y-188336711D01*
X102163289Y-188545269D01*
X102245330Y-188608221D01*
X101356850Y-189496701D01*
X101589929Y-189685446D01*
X101897593Y-189885245D01*
X102224464Y-190051795D01*
X102566948Y-190183263D01*
X102921314Y-190278215D01*
X103283646Y-190335602D01*
X103649999Y-190354803D01*
X103650001Y-190354803D01*
X104016353Y-190335602D01*
X104378684Y-190278215D01*
X104378686Y-190278215D01*
X104733051Y-190183263D01*
X105075535Y-190051795D01*
X105402406Y-189885245D01*
X105710064Y-189685450D01*
X105943148Y-189496701D01*
X105054669Y-188608222D01*
X105136711Y-188545269D01*
X105345269Y-188336711D01*
X105408222Y-188254669D01*
X106296701Y-189143148D01*
X106485450Y-188910064D01*
X106685245Y-188602406D01*
X106851795Y-188275535D01*
X106983263Y-187933051D01*
X107078215Y-187578686D01*
X107078215Y-187578684D01*
X107135602Y-187216353D01*
X107154803Y-186850000D01*
X107154803Y-186849999D01*
X107149562Y-186749999D01*
X117095197Y-186749999D01*
X117095197Y-186750000D01*
X117114397Y-187116353D01*
X117171784Y-187478684D01*
X117171784Y-187478686D01*
X117266736Y-187833051D01*
X117398204Y-188175535D01*
X117564754Y-188502406D01*
X117764553Y-188810070D01*
X117953297Y-189043148D01*
X118841777Y-188154668D01*
X118904731Y-188236711D01*
X119113289Y-188445269D01*
X119195330Y-188508221D01*
X118306850Y-189396701D01*
X118539929Y-189585446D01*
X118847593Y-189785245D01*
X119174464Y-189951795D01*
X119516948Y-190083263D01*
X119871314Y-190178215D01*
X120233646Y-190235602D01*
X120599999Y-190254803D01*
X120600001Y-190254803D01*
X120966353Y-190235602D01*
X121328684Y-190178215D01*
X121328686Y-190178215D01*
X121683051Y-190083263D01*
X122025535Y-189951795D01*
X122352406Y-189785245D01*
X122660064Y-189585450D01*
X122893148Y-189396701D01*
X122004669Y-188508222D01*
X122086711Y-188445269D01*
X122295269Y-188236711D01*
X122358222Y-188154669D01*
X123246701Y-189043148D01*
X123435450Y-188810064D01*
X123635245Y-188502406D01*
X123801795Y-188175535D01*
X123933263Y-187833051D01*
X124028215Y-187478686D01*
X124028215Y-187478684D01*
X124053027Y-187322031D01*
X124082956Y-187258897D01*
X124142267Y-187221965D01*
X124212130Y-187222963D01*
X124270363Y-187261573D01*
X124298477Y-187325536D01*
X124299500Y-187341429D01*
X124299500Y-188321450D01*
X124314804Y-188535433D01*
X124375628Y-188815037D01*
X124375630Y-188815043D01*
X124375631Y-188815046D01*
X124460709Y-189043148D01*
X124475635Y-189083166D01*
X124612770Y-189334309D01*
X124612775Y-189334317D01*
X124784254Y-189563387D01*
X124784270Y-189563405D01*
X124986594Y-189765729D01*
X124986612Y-189765745D01*
X125215682Y-189937224D01*
X125215690Y-189937229D01*
X125466833Y-190074364D01*
X125466832Y-190074364D01*
X125466836Y-190074365D01*
X125466839Y-190074367D01*
X125734954Y-190174369D01*
X125734960Y-190174370D01*
X125734962Y-190174371D01*
X126014566Y-190235195D01*
X126014568Y-190235195D01*
X126014572Y-190235196D01*
X126228552Y-190250500D01*
X129371448Y-190250500D01*
X129585428Y-190235196D01*
X129865046Y-190174369D01*
X130133161Y-190074367D01*
X130384315Y-189937226D01*
X130613395Y-189765739D01*
X130815739Y-189563395D01*
X130987226Y-189334315D01*
X131124367Y-189083161D01*
X131224369Y-188815046D01*
X131224371Y-188815037D01*
X131285195Y-188535433D01*
X131285195Y-188535432D01*
X131285196Y-188535428D01*
X131300500Y-188321448D01*
X131300500Y-185178552D01*
X131285196Y-184964572D01*
X131249857Y-184802122D01*
X131224371Y-184684962D01*
X131224370Y-184684960D01*
X131224369Y-184684954D01*
X131124367Y-184416839D01*
X131041830Y-184265685D01*
X130987229Y-184165690D01*
X130987224Y-184165682D01*
X130815745Y-183936612D01*
X130815729Y-183936594D01*
X130613405Y-183734270D01*
X130613387Y-183734254D01*
X130384317Y-183562775D01*
X130384309Y-183562770D01*
X130133166Y-183425635D01*
X130133167Y-183425635D01*
X130025915Y-183385632D01*
X129865046Y-183325631D01*
X129865043Y-183325630D01*
X129865037Y-183325628D01*
X129585433Y-183264804D01*
X129371450Y-183249500D01*
X129371448Y-183249500D01*
X126228552Y-183249500D01*
X126228549Y-183249500D01*
X126014566Y-183264804D01*
X125734962Y-183325628D01*
X125466833Y-183425635D01*
X125215690Y-183562770D01*
X125215682Y-183562775D01*
X124986612Y-183734254D01*
X124986594Y-183734270D01*
X124784270Y-183936594D01*
X124784254Y-183936612D01*
X124612775Y-184165682D01*
X124612770Y-184165690D01*
X124475635Y-184416833D01*
X124375628Y-184684962D01*
X124314804Y-184964566D01*
X124299500Y-185178549D01*
X124299500Y-186158570D01*
X124279815Y-186225609D01*
X124227011Y-186271364D01*
X124157853Y-186281308D01*
X124094297Y-186252283D01*
X124056523Y-186193505D01*
X124053027Y-186177968D01*
X124028215Y-186021315D01*
X124028215Y-186021313D01*
X123933263Y-185666948D01*
X123801795Y-185324464D01*
X123635245Y-184997594D01*
X123435446Y-184689929D01*
X123246701Y-184456850D01*
X122358221Y-185345329D01*
X122295269Y-185263289D01*
X122086711Y-185054731D01*
X122004668Y-184991776D01*
X122893148Y-184103297D01*
X122660070Y-183914553D01*
X122352406Y-183714754D01*
X122025535Y-183548204D01*
X121683051Y-183416736D01*
X121328685Y-183321784D01*
X120966353Y-183264397D01*
X120600001Y-183245197D01*
X120599999Y-183245197D01*
X120233646Y-183264397D01*
X119871315Y-183321784D01*
X119871313Y-183321784D01*
X119516948Y-183416736D01*
X119174464Y-183548204D01*
X118847594Y-183714754D01*
X118539924Y-183914557D01*
X118306850Y-184103295D01*
X118306849Y-184103296D01*
X119195330Y-184991777D01*
X119113289Y-185054731D01*
X118904731Y-185263289D01*
X118841777Y-185345330D01*
X117953296Y-184456849D01*
X117953295Y-184456850D01*
X117764557Y-184689924D01*
X117564754Y-184997594D01*
X117398204Y-185324464D01*
X117266736Y-185666948D01*
X117171784Y-186021313D01*
X117171784Y-186021315D01*
X117114397Y-186383646D01*
X117095197Y-186749999D01*
X107149562Y-186749999D01*
X107135602Y-186483646D01*
X107078215Y-186121315D01*
X107078215Y-186121313D01*
X106983263Y-185766948D01*
X106851795Y-185424464D01*
X106685245Y-185097594D01*
X106485446Y-184789929D01*
X106296701Y-184556850D01*
X105408221Y-185445329D01*
X105345269Y-185363289D01*
X105136711Y-185154731D01*
X105054668Y-185091776D01*
X105943148Y-184203297D01*
X105710070Y-184014553D01*
X105402406Y-183814754D01*
X105075535Y-183648204D01*
X104733051Y-183516736D01*
X104378685Y-183421784D01*
X104016353Y-183364397D01*
X103650001Y-183345197D01*
X103649999Y-183345197D01*
X103283646Y-183364397D01*
X102921315Y-183421784D01*
X102921313Y-183421784D01*
X102566948Y-183516736D01*
X102224464Y-183648204D01*
X101897594Y-183814754D01*
X101589924Y-184014557D01*
X101356850Y-184203295D01*
X101356849Y-184203296D01*
X102245330Y-185091777D01*
X102163289Y-185154731D01*
X101954731Y-185363289D01*
X101891777Y-185445330D01*
X101003296Y-184556849D01*
X101003295Y-184556850D01*
X100814557Y-184789924D01*
X100614754Y-185097594D01*
X100448204Y-185424464D01*
X100316736Y-185766948D01*
X100221784Y-186121313D01*
X100221784Y-186121315D01*
X100196973Y-186277968D01*
X100167044Y-186341103D01*
X100107732Y-186378034D01*
X100037870Y-186377036D01*
X99979637Y-186338426D01*
X99951523Y-186274463D01*
X99950500Y-186258570D01*
X99950500Y-185278552D01*
X99935196Y-185064572D01*
X99933055Y-185054731D01*
X99874371Y-184784962D01*
X99874370Y-184784960D01*
X99874369Y-184784954D01*
X99774367Y-184516839D01*
X99741610Y-184456850D01*
X99637229Y-184265690D01*
X99637224Y-184265682D01*
X99465745Y-184036612D01*
X99465729Y-184036594D01*
X99263405Y-183834270D01*
X99263387Y-183834254D01*
X99034317Y-183662775D01*
X99034309Y-183662770D01*
X98783166Y-183525635D01*
X98783167Y-183525635D01*
X98675915Y-183485632D01*
X98515046Y-183425631D01*
X98515043Y-183425630D01*
X98515037Y-183425628D01*
X98235433Y-183364804D01*
X98021450Y-183349500D01*
X98021448Y-183349500D01*
X94878552Y-183349500D01*
X94878549Y-183349500D01*
X94664566Y-183364804D01*
X94384962Y-183425628D01*
X94116833Y-183525635D01*
X93865690Y-183662770D01*
X93865682Y-183662775D01*
X93636612Y-183834254D01*
X93636594Y-183834270D01*
X93434270Y-184036594D01*
X93434254Y-184036612D01*
X93262775Y-184265682D01*
X93262770Y-184265690D01*
X93125635Y-184516833D01*
X93025628Y-184784962D01*
X92964804Y-185064566D01*
X92949500Y-185278549D01*
X86211846Y-185278549D01*
X85979516Y-185046219D01*
X85891789Y-184975179D01*
X85678082Y-184802122D01*
X85352793Y-184590877D01*
X85007197Y-184414787D01*
X84645094Y-184275788D01*
X84607378Y-184265682D01*
X84270433Y-184175398D01*
X84270429Y-184175397D01*
X84270428Y-184175397D01*
X83887339Y-184114722D01*
X83500001Y-184094422D01*
X83499999Y-184094422D01*
X83112660Y-184114722D01*
X82729572Y-184175397D01*
X82729570Y-184175397D01*
X82354905Y-184275788D01*
X81992802Y-184414787D01*
X81647206Y-184590877D01*
X81321917Y-184802122D01*
X81020488Y-185046215D01*
X81020480Y-185046222D01*
X80746222Y-185320480D01*
X80746215Y-185320488D01*
X80502122Y-185621917D01*
X80290877Y-185947206D01*
X80114787Y-186292802D01*
X79975788Y-186654905D01*
X79875397Y-187029570D01*
X79875397Y-187029572D01*
X79814722Y-187412660D01*
X79794422Y-187799999D01*
X79794422Y-187800000D01*
X79814722Y-188187339D01*
X79875397Y-188570427D01*
X79875397Y-188570429D01*
X79975788Y-188945094D01*
X80114787Y-189307197D01*
X80290877Y-189652793D01*
X80502122Y-189978082D01*
X80661074Y-190174371D01*
X80746219Y-190279516D01*
X81020484Y-190553781D01*
X81020488Y-190553784D01*
X81321917Y-190797877D01*
X81647206Y-191009122D01*
X81647211Y-191009125D01*
X81756902Y-191065015D01*
X81807698Y-191112989D01*
X81824493Y-191180810D01*
X81801956Y-191246945D01*
X81747241Y-191290397D01*
X81700607Y-191299500D01*
X78381940Y-191299500D01*
X78314901Y-191279815D01*
X78269146Y-191227011D01*
X78259202Y-191157853D01*
X78288227Y-191094297D01*
X78294259Y-191087819D01*
X78329816Y-191052262D01*
X78425789Y-190899522D01*
X78485368Y-190729255D01*
X78505139Y-190553781D01*
X78505565Y-190550003D01*
X78505565Y-190549996D01*
X78485369Y-190370750D01*
X78485368Y-190370745D01*
X78472929Y-190335196D01*
X78425789Y-190200478D01*
X78409382Y-190174367D01*
X78329815Y-190047737D01*
X78202262Y-189920184D01*
X78049523Y-189824211D01*
X77879252Y-189764631D01*
X77826430Y-189758679D01*
X77762017Y-189731612D01*
X77722462Y-189674016D01*
X77720325Y-189604179D01*
X77734194Y-189571317D01*
X77768478Y-189514606D01*
X77819086Y-189352196D01*
X77825500Y-189281616D01*
X77825500Y-188618384D01*
X77819086Y-188547804D01*
X77768478Y-188385394D01*
X77680472Y-188239815D01*
X77680470Y-188239813D01*
X77680469Y-188239811D01*
X77560188Y-188119530D01*
X77414606Y-188031522D01*
X77322159Y-188002715D01*
X77252196Y-187980914D01*
X77252194Y-187980913D01*
X77252192Y-187980913D01*
X77202778Y-187976423D01*
X77181616Y-187974500D01*
X77181613Y-187974500D01*
X76875097Y-187974500D01*
X76808058Y-187954815D01*
X76787416Y-187938181D01*
X76061310Y-187212075D01*
X76541476Y-187212075D01*
X76665462Y-187278348D01*
X76853969Y-187335531D01*
X76853965Y-187335531D01*
X77050000Y-187354838D01*
X77246032Y-187335531D01*
X77434537Y-187278348D01*
X77558523Y-187212076D01*
X77558523Y-187212075D01*
X77050001Y-186703553D01*
X77050000Y-186703553D01*
X76541476Y-187212075D01*
X76061310Y-187212075D01*
X75336819Y-186487584D01*
X75303334Y-186426261D01*
X75300500Y-186399903D01*
X75300500Y-186350000D01*
X76045161Y-186350000D01*
X76064468Y-186546032D01*
X76121651Y-186734539D01*
X76187922Y-186858523D01*
X76187923Y-186858523D01*
X76696446Y-186350000D01*
X76696446Y-186349999D01*
X77403553Y-186349999D01*
X77403553Y-186350000D01*
X77912076Y-186858523D01*
X77978348Y-186734537D01*
X78035531Y-186546032D01*
X78054838Y-186350000D01*
X78035531Y-186153967D01*
X77978348Y-185965462D01*
X77912075Y-185841476D01*
X77403553Y-186349999D01*
X76696446Y-186349999D01*
X76187923Y-185841476D01*
X76121649Y-185965466D01*
X76064468Y-186153967D01*
X76045161Y-186350000D01*
X75300500Y-186350000D01*
X75300500Y-185487923D01*
X76541476Y-185487923D01*
X77050000Y-185996446D01*
X77050001Y-185996446D01*
X77558523Y-185487923D01*
X77558523Y-185487922D01*
X77434539Y-185421651D01*
X77246030Y-185364468D01*
X77246034Y-185364468D01*
X77050000Y-185345161D01*
X76853967Y-185364468D01*
X76665466Y-185421649D01*
X76541476Y-185487923D01*
X75300500Y-185487923D01*
X75300500Y-173673312D01*
X92484987Y-173673312D01*
X92484987Y-173673313D01*
X93740186Y-173673313D01*
X93726688Y-173775840D01*
X93726688Y-174070786D01*
X93740186Y-174173313D01*
X92484987Y-174173313D01*
X92491085Y-174289666D01*
X92548472Y-174651997D01*
X92548472Y-174651999D01*
X92643424Y-175006364D01*
X92774892Y-175348848D01*
X92941442Y-175675719D01*
X93141241Y-175983383D01*
X93372108Y-176268479D01*
X93372115Y-176268487D01*
X93631513Y-176527885D01*
X93631521Y-176527892D01*
X93916617Y-176758759D01*
X94224281Y-176958558D01*
X94551152Y-177125108D01*
X94893636Y-177256576D01*
X95248002Y-177351528D01*
X95610336Y-177408915D01*
X95726687Y-177415013D01*
X95726688Y-177415012D01*
X95726688Y-176159815D01*
X95829215Y-176173313D01*
X96124161Y-176173313D01*
X96226688Y-176159815D01*
X96226688Y-177415013D01*
X96343039Y-177408915D01*
X96399333Y-177399999D01*
X108695197Y-177399999D01*
X108695197Y-177400000D01*
X108714397Y-177766353D01*
X108771784Y-178128684D01*
X108771784Y-178128686D01*
X108866736Y-178483051D01*
X108998204Y-178825535D01*
X109164754Y-179152406D01*
X109364553Y-179460070D01*
X109553297Y-179693148D01*
X110441777Y-178804668D01*
X110504731Y-178886711D01*
X110713289Y-179095269D01*
X110795330Y-179158221D01*
X109906850Y-180046701D01*
X110139929Y-180235446D01*
X110447593Y-180435245D01*
X110774464Y-180601795D01*
X111116948Y-180733263D01*
X111471314Y-180828215D01*
X111833646Y-180885602D01*
X112199999Y-180904803D01*
X112200001Y-180904803D01*
X112566353Y-180885602D01*
X112928684Y-180828215D01*
X112928686Y-180828215D01*
X113283051Y-180733263D01*
X113625535Y-180601795D01*
X113952406Y-180435245D01*
X114260064Y-180235450D01*
X114493148Y-180046701D01*
X113604669Y-179158222D01*
X113686711Y-179095269D01*
X113895269Y-178886711D01*
X113958222Y-178804669D01*
X114846701Y-179693148D01*
X115035450Y-179460064D01*
X115235245Y-179152406D01*
X115401795Y-178825535D01*
X115533263Y-178483051D01*
X115628215Y-178128686D01*
X115628215Y-178128684D01*
X115685602Y-177766353D01*
X115704803Y-177400000D01*
X115704803Y-177399999D01*
X115685602Y-177033646D01*
X115628215Y-176671315D01*
X115628215Y-176671313D01*
X115533263Y-176316948D01*
X115401795Y-175974464D01*
X115235245Y-175647594D01*
X115035446Y-175339929D01*
X114846701Y-175106850D01*
X113958221Y-175995329D01*
X113895269Y-175913289D01*
X113686711Y-175704731D01*
X113604668Y-175641776D01*
X114493148Y-174753297D01*
X114260070Y-174564553D01*
X113952406Y-174364754D01*
X113625535Y-174198204D01*
X113283051Y-174066736D01*
X112928685Y-173971784D01*
X112772031Y-173946973D01*
X112708897Y-173917044D01*
X112671965Y-173857733D01*
X112672963Y-173787870D01*
X112711573Y-173729637D01*
X112775536Y-173701523D01*
X112791429Y-173700500D01*
X113771448Y-173700500D01*
X113985428Y-173685196D01*
X114040054Y-173673313D01*
X114265037Y-173624371D01*
X114265037Y-173624370D01*
X114265046Y-173624369D01*
X114533161Y-173524367D01*
X114784315Y-173387226D01*
X115013395Y-173215739D01*
X115215739Y-173013395D01*
X115387226Y-172784315D01*
X115524367Y-172533161D01*
X115624369Y-172265046D01*
X115685196Y-171985428D01*
X115700500Y-171771448D01*
X115700500Y-168639066D01*
X119060324Y-168639066D01*
X119060324Y-168925221D01*
X119101046Y-169208461D01*
X119101049Y-169208471D01*
X119150592Y-169377199D01*
X119181668Y-169483032D01*
X119204502Y-169533032D01*
X119300541Y-169743331D01*
X119300543Y-169743335D01*
X119455249Y-169984060D01*
X119455250Y-169984061D01*
X119595735Y-170146190D01*
X119595744Y-170146199D01*
X119595756Y-170146212D01*
X121818075Y-172368531D01*
X121818088Y-172368543D01*
X121818098Y-172368553D01*
X121980227Y-172509038D01*
X122220957Y-172663747D01*
X122481256Y-172782620D01*
X122755822Y-172863240D01*
X122755823Y-172863240D01*
X122755826Y-172863241D01*
X122832544Y-172874270D01*
X123039065Y-172903964D01*
X123039068Y-172903964D01*
X123325220Y-172903964D01*
X123325223Y-172903964D01*
X123557703Y-172870538D01*
X123608461Y-172863241D01*
X123608462Y-172863240D01*
X123608466Y-172863240D01*
X123883032Y-172782620D01*
X124143331Y-172663747D01*
X124384061Y-172509038D01*
X124546190Y-172368553D01*
X125226691Y-171688052D01*
X125288014Y-171654567D01*
X125357705Y-171659551D01*
X125413639Y-171701422D01*
X125438056Y-171766887D01*
X125423204Y-171835160D01*
X125418367Y-171843268D01*
X125238067Y-172120907D01*
X125071517Y-172447777D01*
X124940049Y-172790261D01*
X124845097Y-173144626D01*
X124845097Y-173144628D01*
X124787710Y-173506959D01*
X124781612Y-173623312D01*
X124781612Y-173623313D01*
X126036811Y-173623313D01*
X126023313Y-173725840D01*
X126023313Y-174020786D01*
X126036811Y-174123313D01*
X124781612Y-174123313D01*
X124787710Y-174239666D01*
X124845097Y-174601997D01*
X124845097Y-174601999D01*
X124940049Y-174956364D01*
X125071517Y-175298848D01*
X125238067Y-175625719D01*
X125437866Y-175933383D01*
X125668733Y-176218479D01*
X125668740Y-176218487D01*
X125928138Y-176477885D01*
X125928146Y-176477892D01*
X126213242Y-176708759D01*
X126520906Y-176908558D01*
X126847777Y-177075108D01*
X127190261Y-177206576D01*
X127544627Y-177301528D01*
X127906961Y-177358915D01*
X128023312Y-177365013D01*
X128023313Y-177365012D01*
X128023313Y-176109815D01*
X128125840Y-176123313D01*
X128420786Y-176123313D01*
X128523313Y-176109815D01*
X128523313Y-177365013D01*
X128639664Y-177358915D01*
X129001997Y-177301528D01*
X129001999Y-177301528D01*
X129356364Y-177206576D01*
X129698848Y-177075108D01*
X130025719Y-176908558D01*
X130333383Y-176708759D01*
X130618479Y-176477892D01*
X130618487Y-176477885D01*
X130877885Y-176218487D01*
X130877892Y-176218479D01*
X131108759Y-175933383D01*
X131308558Y-175625719D01*
X131475108Y-175298848D01*
X131606576Y-174956364D01*
X131701528Y-174601999D01*
X131701528Y-174601997D01*
X131758915Y-174239666D01*
X131765013Y-174123313D01*
X130509815Y-174123313D01*
X130523313Y-174020786D01*
X130523313Y-173725840D01*
X130509815Y-173623313D01*
X131765014Y-173623313D01*
X131765013Y-173623312D01*
X131758915Y-173506959D01*
X131701528Y-173144628D01*
X131701528Y-173144626D01*
X131606576Y-172790261D01*
X131475108Y-172447777D01*
X131308558Y-172120907D01*
X131108759Y-171813242D01*
X130877892Y-171528146D01*
X130877885Y-171528138D01*
X130618487Y-171268740D01*
X130618479Y-171268733D01*
X130333383Y-171037866D01*
X130025719Y-170838067D01*
X129698848Y-170671517D01*
X129356364Y-170540049D01*
X129001998Y-170445097D01*
X128639666Y-170387710D01*
X128523313Y-170381612D01*
X128523313Y-171636810D01*
X128420786Y-171623313D01*
X128125840Y-171623313D01*
X128023313Y-171636810D01*
X128023313Y-170381612D01*
X128023312Y-170381612D01*
X127906959Y-170387710D01*
X127544628Y-170445097D01*
X127544626Y-170445097D01*
X127190261Y-170540049D01*
X126847777Y-170671517D01*
X126520907Y-170838067D01*
X126243268Y-171018367D01*
X126176323Y-171038371D01*
X126109190Y-171019005D01*
X126063185Y-170966419D01*
X126052913Y-170897309D01*
X126081635Y-170833616D01*
X126088052Y-170826691D01*
X126768531Y-170146212D01*
X126768553Y-170146190D01*
X126909038Y-169984061D01*
X127063747Y-169743331D01*
X127182620Y-169483032D01*
X127263240Y-169208466D01*
X127303964Y-168925223D01*
X127303964Y-168639065D01*
X127271686Y-168414566D01*
X127263241Y-168355826D01*
X127263238Y-168355816D01*
X127182620Y-168081256D01*
X127063747Y-167820957D01*
X126909038Y-167580227D01*
X126768553Y-167418098D01*
X126768543Y-167418088D01*
X126768531Y-167418075D01*
X124546212Y-165195756D01*
X124546199Y-165195744D01*
X124546190Y-165195735D01*
X124384061Y-165055250D01*
X124384060Y-165055249D01*
X124143335Y-164900543D01*
X124143331Y-164900541D01*
X123992518Y-164831668D01*
X123883032Y-164781668D01*
X123777199Y-164750592D01*
X123608471Y-164701049D01*
X123608461Y-164701046D01*
X123377142Y-164667788D01*
X123325223Y-164660324D01*
X123039065Y-164660324D01*
X123013105Y-164664056D01*
X122755826Y-164701046D01*
X122755816Y-164701049D01*
X122481256Y-164781668D01*
X122220956Y-164900541D01*
X122220952Y-164900543D01*
X121980227Y-165055249D01*
X121818101Y-165195732D01*
X121818075Y-165195756D01*
X119595756Y-167418075D01*
X119595732Y-167418101D01*
X119455249Y-167580227D01*
X119300543Y-167820952D01*
X119300541Y-167820956D01*
X119181668Y-168081256D01*
X119101049Y-168355816D01*
X119101046Y-168355826D01*
X119060324Y-168639066D01*
X115700500Y-168639066D01*
X115700500Y-168628552D01*
X115685196Y-168414572D01*
X115683293Y-168405826D01*
X115624371Y-168134962D01*
X115624370Y-168134960D01*
X115624369Y-168134954D01*
X115524367Y-167866839D01*
X115499313Y-167820957D01*
X115387229Y-167615690D01*
X115387224Y-167615682D01*
X115215745Y-167386612D01*
X115215729Y-167386594D01*
X115013405Y-167184270D01*
X115013387Y-167184254D01*
X114784317Y-167012775D01*
X114784309Y-167012770D01*
X114533166Y-166875635D01*
X114533167Y-166875635D01*
X114425915Y-166835632D01*
X114265046Y-166775631D01*
X114265043Y-166775630D01*
X114265037Y-166775628D01*
X113985433Y-166714804D01*
X113771450Y-166699500D01*
X113771448Y-166699500D01*
X110628552Y-166699500D01*
X110628549Y-166699500D01*
X110414566Y-166714804D01*
X110134962Y-166775628D01*
X109866833Y-166875635D01*
X109615690Y-167012770D01*
X109615682Y-167012775D01*
X109386612Y-167184254D01*
X109386594Y-167184270D01*
X109184270Y-167386594D01*
X109184254Y-167386612D01*
X109012775Y-167615682D01*
X109012770Y-167615690D01*
X108875635Y-167866833D01*
X108775628Y-168134962D01*
X108714804Y-168414566D01*
X108699500Y-168628549D01*
X108699500Y-171771450D01*
X108714804Y-171985433D01*
X108775628Y-172265037D01*
X108775630Y-172265043D01*
X108775631Y-172265046D01*
X108866636Y-172509038D01*
X108875635Y-172533166D01*
X109012770Y-172784309D01*
X109012775Y-172784317D01*
X109184254Y-173013387D01*
X109184270Y-173013405D01*
X109386594Y-173215729D01*
X109386612Y-173215745D01*
X109615682Y-173387224D01*
X109615690Y-173387229D01*
X109866833Y-173524364D01*
X109866832Y-173524364D01*
X109866836Y-173524365D01*
X109866839Y-173524367D01*
X110134954Y-173624369D01*
X110134960Y-173624370D01*
X110134962Y-173624371D01*
X110414566Y-173685195D01*
X110414568Y-173685195D01*
X110414572Y-173685196D01*
X110628552Y-173700500D01*
X111608571Y-173700500D01*
X111675610Y-173720185D01*
X111721365Y-173772989D01*
X111731309Y-173842147D01*
X111702284Y-173905703D01*
X111643506Y-173943477D01*
X111627969Y-173946973D01*
X111471315Y-173971784D01*
X111471313Y-173971784D01*
X111116948Y-174066736D01*
X110774464Y-174198204D01*
X110447594Y-174364754D01*
X110139924Y-174564557D01*
X109906850Y-174753295D01*
X109906849Y-174753296D01*
X110795330Y-175641777D01*
X110713289Y-175704731D01*
X110504731Y-175913289D01*
X110441777Y-175995330D01*
X109553296Y-175106849D01*
X109553295Y-175106850D01*
X109364557Y-175339924D01*
X109164754Y-175647594D01*
X108998204Y-175974464D01*
X108866736Y-176316948D01*
X108771784Y-176671313D01*
X108771784Y-176671315D01*
X108714397Y-177033646D01*
X108695197Y-177399999D01*
X96399333Y-177399999D01*
X96705372Y-177351528D01*
X96705374Y-177351528D01*
X97059739Y-177256576D01*
X97402223Y-177125108D01*
X97729094Y-176958558D01*
X98036758Y-176758759D01*
X98321854Y-176527892D01*
X98321862Y-176527885D01*
X98581260Y-176268487D01*
X98581267Y-176268479D01*
X98812134Y-175983383D01*
X99011933Y-175675719D01*
X99178483Y-175348848D01*
X99309951Y-175006364D01*
X99404903Y-174651999D01*
X99404903Y-174651997D01*
X99462290Y-174289666D01*
X99468388Y-174173313D01*
X98213190Y-174173313D01*
X98226688Y-174070786D01*
X98226688Y-173775840D01*
X98213190Y-173673313D01*
X99468389Y-173673313D01*
X99468388Y-173673312D01*
X99462290Y-173556959D01*
X99404903Y-173194628D01*
X99404903Y-173194626D01*
X99309951Y-172840261D01*
X99178483Y-172497777D01*
X99011933Y-172170907D01*
X98831633Y-171893268D01*
X98811629Y-171826323D01*
X98830995Y-171759191D01*
X98883580Y-171713185D01*
X98952691Y-171702913D01*
X99016384Y-171731635D01*
X99023309Y-171738052D01*
X99703788Y-172418531D01*
X99703801Y-172418543D01*
X99703811Y-172418553D01*
X99795241Y-172497777D01*
X99865940Y-172559038D01*
X100028867Y-172663746D01*
X100106670Y-172713747D01*
X100366969Y-172832620D01*
X100641535Y-172913240D01*
X100641536Y-172913240D01*
X100641539Y-172913241D01*
X100718257Y-172924270D01*
X100924778Y-172953964D01*
X100924781Y-172953964D01*
X101210933Y-172953964D01*
X101210936Y-172953964D01*
X101443416Y-172920538D01*
X101494174Y-172913241D01*
X101494175Y-172913240D01*
X101494179Y-172913240D01*
X101768745Y-172832620D01*
X102029044Y-172713747D01*
X102269774Y-172559038D01*
X102431903Y-172418553D01*
X104654266Y-170196190D01*
X104794751Y-170034061D01*
X104949460Y-169793331D01*
X105068333Y-169533032D01*
X105148953Y-169258466D01*
X105189677Y-168975223D01*
X105189677Y-168689065D01*
X105150211Y-168414572D01*
X105148954Y-168405826D01*
X105148951Y-168405816D01*
X105068333Y-168131256D01*
X104949460Y-167870957D01*
X104917323Y-167820952D01*
X104794751Y-167630227D01*
X104751426Y-167580227D01*
X104654266Y-167468098D01*
X104654256Y-167468088D01*
X104654244Y-167468075D01*
X102431925Y-165245756D01*
X102431912Y-165245744D01*
X102431903Y-165245735D01*
X102269774Y-165105250D01*
X102269773Y-165105249D01*
X102029048Y-164950543D01*
X102029044Y-164950541D01*
X101919562Y-164900543D01*
X101768745Y-164831668D01*
X101662912Y-164800592D01*
X101494184Y-164751049D01*
X101494174Y-164751046D01*
X101262855Y-164717788D01*
X101210936Y-164710324D01*
X100924778Y-164710324D01*
X100898818Y-164714056D01*
X100641539Y-164751046D01*
X100641529Y-164751049D01*
X100366969Y-164831668D01*
X100106669Y-164950541D01*
X100106665Y-164950543D01*
X99865940Y-165105249D01*
X99703814Y-165245732D01*
X99703788Y-165245756D01*
X97481469Y-167468075D01*
X97481445Y-167468101D01*
X97340962Y-167630227D01*
X97186256Y-167870952D01*
X97186254Y-167870956D01*
X97067381Y-168131256D01*
X96986762Y-168405816D01*
X96986759Y-168405826D01*
X96946037Y-168689066D01*
X96946037Y-168975221D01*
X96986759Y-169258461D01*
X96986762Y-169258471D01*
X97052699Y-169483031D01*
X97067381Y-169533031D01*
X97186254Y-169793331D01*
X97186256Y-169793335D01*
X97340962Y-170034060D01*
X97340963Y-170034061D01*
X97481448Y-170196190D01*
X97481457Y-170196199D01*
X97481469Y-170196212D01*
X98161948Y-170876691D01*
X98195433Y-170938014D01*
X98190449Y-171007706D01*
X98148577Y-171063639D01*
X98083113Y-171088056D01*
X98014840Y-171073204D01*
X98006732Y-171068367D01*
X97729094Y-170888067D01*
X97402223Y-170721517D01*
X97059739Y-170590049D01*
X96705373Y-170495097D01*
X96343041Y-170437710D01*
X96226688Y-170431612D01*
X96226688Y-171686810D01*
X96124161Y-171673313D01*
X95829215Y-171673313D01*
X95726688Y-171686810D01*
X95726688Y-170431612D01*
X95726687Y-170431612D01*
X95610334Y-170437710D01*
X95248003Y-170495097D01*
X95248001Y-170495097D01*
X94893636Y-170590049D01*
X94551152Y-170721517D01*
X94224282Y-170888067D01*
X93916617Y-171087866D01*
X93631521Y-171318733D01*
X93631513Y-171318740D01*
X93372115Y-171578138D01*
X93372108Y-171578146D01*
X93141241Y-171863242D01*
X92941442Y-172170907D01*
X92774892Y-172497777D01*
X92643424Y-172840261D01*
X92548472Y-173194626D01*
X92548472Y-173194628D01*
X92491085Y-173556959D01*
X92484987Y-173673312D01*
X75300500Y-173673312D01*
X75300500Y-164521955D01*
X75320185Y-164454916D01*
X75372989Y-164409161D01*
X75410615Y-164398735D01*
X75443568Y-164395022D01*
X75529250Y-164385369D01*
X75529253Y-164385368D01*
X75529255Y-164385368D01*
X75699522Y-164325789D01*
X75852262Y-164229816D01*
X75852267Y-164229810D01*
X75855097Y-164227555D01*
X75857275Y-164226665D01*
X75858158Y-164226111D01*
X75858255Y-164226265D01*
X75919783Y-164201145D01*
X75932412Y-164200500D01*
X148517588Y-164200500D01*
X148584627Y-164220185D01*
G37*
%TD.AperFunction*%
%TD*%
M02*
