%TF.GenerationSoftware,KiCad,Pcbnew,8.0.7-8.0.7-0~ubuntu24.04.1*%
%TF.CreationDate,2025-01-04T16:35:35+01:00*%
%TF.ProjectId,drn2,64726e32-2e6b-4696-9361-645f70636258,rev?*%
%TF.SameCoordinates,Original*%
%TF.FileFunction,Legend,Top*%
%TF.FilePolarity,Positive*%
%FSLAX46Y46*%
G04 Gerber Fmt 4.6, Leading zero omitted, Abs format (unit mm)*
G04 Created by KiCad (PCBNEW 8.0.7-8.0.7-0~ubuntu24.04.1) date 2025-01-04 16:35:35*
%MOMM*%
%LPD*%
G01*
G04 APERTURE LIST*
%ADD10C,0.100000*%
%ADD11C,0.150000*%
%ADD12C,0.120000*%
G04 APERTURE END LIST*
D10*
X73500000Y-94000000D02*
X72500000Y-94500000D01*
X72500000Y-97500000D01*
X71500000Y-94500000D01*
X72500000Y-94000000D01*
X72500000Y-91000000D01*
X73500000Y-94000000D01*
G36*
X73500000Y-94000000D02*
G01*
X72500000Y-94500000D01*
X72500000Y-97500000D01*
X71500000Y-94500000D01*
X72500000Y-94000000D01*
X72500000Y-91000000D01*
X73500000Y-94000000D01*
G37*
X71000000Y-94000000D02*
X70000000Y-94500000D01*
X70000000Y-97500000D01*
X69000000Y-94500000D01*
X70000000Y-94000000D01*
X70000000Y-91000000D01*
X71000000Y-94000000D01*
G36*
X71000000Y-94000000D02*
G01*
X70000000Y-94500000D01*
X70000000Y-97500000D01*
X69000000Y-94500000D01*
X70000000Y-94000000D01*
X70000000Y-91000000D01*
X71000000Y-94000000D01*
G37*
X68500000Y-94000000D02*
X67500000Y-94500000D01*
X67500000Y-97500000D01*
X66500000Y-94500000D01*
X67500000Y-94000000D01*
X67500000Y-91000000D01*
X68500000Y-94000000D01*
G36*
X68500000Y-94000000D02*
G01*
X67500000Y-94500000D01*
X67500000Y-97500000D01*
X66500000Y-94500000D01*
X67500000Y-94000000D01*
X67500000Y-91000000D01*
X68500000Y-94000000D01*
G37*
X65803884Y-86872419D02*
X65803884Y-85872419D01*
X65803884Y-86348609D02*
X66375312Y-86348609D01*
X66375312Y-86872419D02*
X66375312Y-85872419D01*
X66851503Y-86872419D02*
X66851503Y-85872419D01*
X67851502Y-85920038D02*
X67756264Y-85872419D01*
X67756264Y-85872419D02*
X67613407Y-85872419D01*
X67613407Y-85872419D02*
X67470550Y-85920038D01*
X67470550Y-85920038D02*
X67375312Y-86015276D01*
X67375312Y-86015276D02*
X67327693Y-86110514D01*
X67327693Y-86110514D02*
X67280074Y-86300990D01*
X67280074Y-86300990D02*
X67280074Y-86443847D01*
X67280074Y-86443847D02*
X67327693Y-86634323D01*
X67327693Y-86634323D02*
X67375312Y-86729561D01*
X67375312Y-86729561D02*
X67470550Y-86824800D01*
X67470550Y-86824800D02*
X67613407Y-86872419D01*
X67613407Y-86872419D02*
X67708645Y-86872419D01*
X67708645Y-86872419D02*
X67851502Y-86824800D01*
X67851502Y-86824800D02*
X67899121Y-86777180D01*
X67899121Y-86777180D02*
X67899121Y-86443847D01*
X67899121Y-86443847D02*
X67708645Y-86443847D01*
X68327693Y-86872419D02*
X68327693Y-85872419D01*
X68327693Y-86348609D02*
X68899121Y-86348609D01*
X68899121Y-86872419D02*
X68899121Y-85872419D01*
X69994360Y-85872419D02*
X70327693Y-86872419D01*
X70327693Y-86872419D02*
X70661026Y-85872419D01*
X71184836Y-85872419D02*
X71375312Y-85872419D01*
X71375312Y-85872419D02*
X71470550Y-85920038D01*
X71470550Y-85920038D02*
X71565788Y-86015276D01*
X71565788Y-86015276D02*
X71613407Y-86205752D01*
X71613407Y-86205752D02*
X71613407Y-86539085D01*
X71613407Y-86539085D02*
X71565788Y-86729561D01*
X71565788Y-86729561D02*
X71470550Y-86824800D01*
X71470550Y-86824800D02*
X71375312Y-86872419D01*
X71375312Y-86872419D02*
X71184836Y-86872419D01*
X71184836Y-86872419D02*
X71089598Y-86824800D01*
X71089598Y-86824800D02*
X70994360Y-86729561D01*
X70994360Y-86729561D02*
X70946741Y-86539085D01*
X70946741Y-86539085D02*
X70946741Y-86205752D01*
X70946741Y-86205752D02*
X70994360Y-86015276D01*
X70994360Y-86015276D02*
X71089598Y-85920038D01*
X71089598Y-85920038D02*
X71184836Y-85872419D01*
X72518169Y-86872419D02*
X72041979Y-86872419D01*
X72041979Y-86872419D02*
X72041979Y-85872419D01*
X72708646Y-85872419D02*
X73280074Y-85872419D01*
X72994360Y-86872419D02*
X72994360Y-85872419D01*
X73565789Y-86586704D02*
X74041979Y-86586704D01*
X73470551Y-86872419D02*
X73803884Y-85872419D01*
X73803884Y-85872419D02*
X74137217Y-86872419D01*
X74994360Y-85920038D02*
X74899122Y-85872419D01*
X74899122Y-85872419D02*
X74756265Y-85872419D01*
X74756265Y-85872419D02*
X74613408Y-85920038D01*
X74613408Y-85920038D02*
X74518170Y-86015276D01*
X74518170Y-86015276D02*
X74470551Y-86110514D01*
X74470551Y-86110514D02*
X74422932Y-86300990D01*
X74422932Y-86300990D02*
X74422932Y-86443847D01*
X74422932Y-86443847D02*
X74470551Y-86634323D01*
X74470551Y-86634323D02*
X74518170Y-86729561D01*
X74518170Y-86729561D02*
X74613408Y-86824800D01*
X74613408Y-86824800D02*
X74756265Y-86872419D01*
X74756265Y-86872419D02*
X74851503Y-86872419D01*
X74851503Y-86872419D02*
X74994360Y-86824800D01*
X74994360Y-86824800D02*
X75041979Y-86777180D01*
X75041979Y-86777180D02*
X75041979Y-86443847D01*
X75041979Y-86443847D02*
X74851503Y-86443847D01*
X75470551Y-86348609D02*
X75803884Y-86348609D01*
X75946741Y-86872419D02*
X75470551Y-86872419D01*
X75470551Y-86872419D02*
X75470551Y-85872419D01*
X75470551Y-85872419D02*
X75946741Y-85872419D01*
X97256265Y-98382895D02*
X97256265Y-93382895D01*
X97256265Y-93382895D02*
X98446741Y-93382895D01*
X98446741Y-93382895D02*
X99161027Y-93620990D01*
X99161027Y-93620990D02*
X99637217Y-94097180D01*
X99637217Y-94097180D02*
X99875312Y-94573371D01*
X99875312Y-94573371D02*
X100113408Y-95525752D01*
X100113408Y-95525752D02*
X100113408Y-96240038D01*
X100113408Y-96240038D02*
X99875312Y-97192419D01*
X99875312Y-97192419D02*
X99637217Y-97668609D01*
X99637217Y-97668609D02*
X99161027Y-98144800D01*
X99161027Y-98144800D02*
X98446741Y-98382895D01*
X98446741Y-98382895D02*
X97256265Y-98382895D01*
X105113408Y-98382895D02*
X103446741Y-96001942D01*
X102256265Y-98382895D02*
X102256265Y-93382895D01*
X102256265Y-93382895D02*
X104161027Y-93382895D01*
X104161027Y-93382895D02*
X104637217Y-93620990D01*
X104637217Y-93620990D02*
X104875312Y-93859085D01*
X104875312Y-93859085D02*
X105113408Y-94335276D01*
X105113408Y-94335276D02*
X105113408Y-95049561D01*
X105113408Y-95049561D02*
X104875312Y-95525752D01*
X104875312Y-95525752D02*
X104637217Y-95763847D01*
X104637217Y-95763847D02*
X104161027Y-96001942D01*
X104161027Y-96001942D02*
X102256265Y-96001942D01*
X107256265Y-98382895D02*
X107256265Y-93382895D01*
X107256265Y-93382895D02*
X110113408Y-98382895D01*
X110113408Y-98382895D02*
X110113408Y-93382895D01*
D11*
X140666666Y-77124819D02*
X140666666Y-77839104D01*
X140666666Y-77839104D02*
X140619047Y-77981961D01*
X140619047Y-77981961D02*
X140523809Y-78077200D01*
X140523809Y-78077200D02*
X140380952Y-78124819D01*
X140380952Y-78124819D02*
X140285714Y-78124819D01*
X141047619Y-77124819D02*
X141666666Y-77124819D01*
X141666666Y-77124819D02*
X141333333Y-77505771D01*
X141333333Y-77505771D02*
X141476190Y-77505771D01*
X141476190Y-77505771D02*
X141571428Y-77553390D01*
X141571428Y-77553390D02*
X141619047Y-77601009D01*
X141619047Y-77601009D02*
X141666666Y-77696247D01*
X141666666Y-77696247D02*
X141666666Y-77934342D01*
X141666666Y-77934342D02*
X141619047Y-78029580D01*
X141619047Y-78029580D02*
X141571428Y-78077200D01*
X141571428Y-78077200D02*
X141476190Y-78124819D01*
X141476190Y-78124819D02*
X141190476Y-78124819D01*
X141190476Y-78124819D02*
X141095238Y-78077200D01*
X141095238Y-78077200D02*
X141047619Y-78029580D01*
X114789580Y-83666666D02*
X114837200Y-83714285D01*
X114837200Y-83714285D02*
X114884819Y-83857142D01*
X114884819Y-83857142D02*
X114884819Y-83952380D01*
X114884819Y-83952380D02*
X114837200Y-84095237D01*
X114837200Y-84095237D02*
X114741961Y-84190475D01*
X114741961Y-84190475D02*
X114646723Y-84238094D01*
X114646723Y-84238094D02*
X114456247Y-84285713D01*
X114456247Y-84285713D02*
X114313390Y-84285713D01*
X114313390Y-84285713D02*
X114122914Y-84238094D01*
X114122914Y-84238094D02*
X114027676Y-84190475D01*
X114027676Y-84190475D02*
X113932438Y-84095237D01*
X113932438Y-84095237D02*
X113884819Y-83952380D01*
X113884819Y-83952380D02*
X113884819Y-83857142D01*
X113884819Y-83857142D02*
X113932438Y-83714285D01*
X113932438Y-83714285D02*
X113980057Y-83666666D01*
X113884819Y-82761904D02*
X113884819Y-83238094D01*
X113884819Y-83238094D02*
X114361009Y-83285713D01*
X114361009Y-83285713D02*
X114313390Y-83238094D01*
X114313390Y-83238094D02*
X114265771Y-83142856D01*
X114265771Y-83142856D02*
X114265771Y-82904761D01*
X114265771Y-82904761D02*
X114313390Y-82809523D01*
X114313390Y-82809523D02*
X114361009Y-82761904D01*
X114361009Y-82761904D02*
X114456247Y-82714285D01*
X114456247Y-82714285D02*
X114694342Y-82714285D01*
X114694342Y-82714285D02*
X114789580Y-82761904D01*
X114789580Y-82761904D02*
X114837200Y-82809523D01*
X114837200Y-82809523D02*
X114884819Y-82904761D01*
X114884819Y-82904761D02*
X114884819Y-83142856D01*
X114884819Y-83142856D02*
X114837200Y-83238094D01*
X114837200Y-83238094D02*
X114789580Y-83285713D01*
X121333333Y-81884819D02*
X121000000Y-81408628D01*
X120761905Y-81884819D02*
X120761905Y-80884819D01*
X120761905Y-80884819D02*
X121142857Y-80884819D01*
X121142857Y-80884819D02*
X121238095Y-80932438D01*
X121238095Y-80932438D02*
X121285714Y-80980057D01*
X121285714Y-80980057D02*
X121333333Y-81075295D01*
X121333333Y-81075295D02*
X121333333Y-81218152D01*
X121333333Y-81218152D02*
X121285714Y-81313390D01*
X121285714Y-81313390D02*
X121238095Y-81361009D01*
X121238095Y-81361009D02*
X121142857Y-81408628D01*
X121142857Y-81408628D02*
X120761905Y-81408628D01*
X121809524Y-81884819D02*
X122000000Y-81884819D01*
X122000000Y-81884819D02*
X122095238Y-81837200D01*
X122095238Y-81837200D02*
X122142857Y-81789580D01*
X122142857Y-81789580D02*
X122238095Y-81646723D01*
X122238095Y-81646723D02*
X122285714Y-81456247D01*
X122285714Y-81456247D02*
X122285714Y-81075295D01*
X122285714Y-81075295D02*
X122238095Y-80980057D01*
X122238095Y-80980057D02*
X122190476Y-80932438D01*
X122190476Y-80932438D02*
X122095238Y-80884819D01*
X122095238Y-80884819D02*
X121904762Y-80884819D01*
X121904762Y-80884819D02*
X121809524Y-80932438D01*
X121809524Y-80932438D02*
X121761905Y-80980057D01*
X121761905Y-80980057D02*
X121714286Y-81075295D01*
X121714286Y-81075295D02*
X121714286Y-81313390D01*
X121714286Y-81313390D02*
X121761905Y-81408628D01*
X121761905Y-81408628D02*
X121809524Y-81456247D01*
X121809524Y-81456247D02*
X121904762Y-81503866D01*
X121904762Y-81503866D02*
X122095238Y-81503866D01*
X122095238Y-81503866D02*
X122190476Y-81456247D01*
X122190476Y-81456247D02*
X122238095Y-81408628D01*
X122238095Y-81408628D02*
X122285714Y-81313390D01*
X148024819Y-84238094D02*
X147024819Y-84238094D01*
X147024819Y-84238094D02*
X147024819Y-83999999D01*
X147024819Y-83999999D02*
X147072438Y-83857142D01*
X147072438Y-83857142D02*
X147167676Y-83761904D01*
X147167676Y-83761904D02*
X147262914Y-83714285D01*
X147262914Y-83714285D02*
X147453390Y-83666666D01*
X147453390Y-83666666D02*
X147596247Y-83666666D01*
X147596247Y-83666666D02*
X147786723Y-83714285D01*
X147786723Y-83714285D02*
X147881961Y-83761904D01*
X147881961Y-83761904D02*
X147977200Y-83857142D01*
X147977200Y-83857142D02*
X148024819Y-83999999D01*
X148024819Y-83999999D02*
X148024819Y-84238094D01*
X147024819Y-83333332D02*
X147024819Y-82714285D01*
X147024819Y-82714285D02*
X147405771Y-83047618D01*
X147405771Y-83047618D02*
X147405771Y-82904761D01*
X147405771Y-82904761D02*
X147453390Y-82809523D01*
X147453390Y-82809523D02*
X147501009Y-82761904D01*
X147501009Y-82761904D02*
X147596247Y-82714285D01*
X147596247Y-82714285D02*
X147834342Y-82714285D01*
X147834342Y-82714285D02*
X147929580Y-82761904D01*
X147929580Y-82761904D02*
X147977200Y-82809523D01*
X147977200Y-82809523D02*
X148024819Y-82904761D01*
X148024819Y-82904761D02*
X148024819Y-83190475D01*
X148024819Y-83190475D02*
X147977200Y-83285713D01*
X147977200Y-83285713D02*
X147929580Y-83333332D01*
X109333333Y-84059580D02*
X109285714Y-84107200D01*
X109285714Y-84107200D02*
X109142857Y-84154819D01*
X109142857Y-84154819D02*
X109047619Y-84154819D01*
X109047619Y-84154819D02*
X108904762Y-84107200D01*
X108904762Y-84107200D02*
X108809524Y-84011961D01*
X108809524Y-84011961D02*
X108761905Y-83916723D01*
X108761905Y-83916723D02*
X108714286Y-83726247D01*
X108714286Y-83726247D02*
X108714286Y-83583390D01*
X108714286Y-83583390D02*
X108761905Y-83392914D01*
X108761905Y-83392914D02*
X108809524Y-83297676D01*
X108809524Y-83297676D02*
X108904762Y-83202438D01*
X108904762Y-83202438D02*
X109047619Y-83154819D01*
X109047619Y-83154819D02*
X109142857Y-83154819D01*
X109142857Y-83154819D02*
X109285714Y-83202438D01*
X109285714Y-83202438D02*
X109333333Y-83250057D01*
X110190476Y-83488152D02*
X110190476Y-84154819D01*
X109952381Y-83107200D02*
X109714286Y-83821485D01*
X109714286Y-83821485D02*
X110333333Y-83821485D01*
X67214285Y-41154819D02*
X67214285Y-41869104D01*
X67214285Y-41869104D02*
X67166666Y-42011961D01*
X67166666Y-42011961D02*
X67071428Y-42107200D01*
X67071428Y-42107200D02*
X66928571Y-42154819D01*
X66928571Y-42154819D02*
X66833333Y-42154819D01*
X67595238Y-41154819D02*
X68214285Y-41154819D01*
X68214285Y-41154819D02*
X67880952Y-41535771D01*
X67880952Y-41535771D02*
X68023809Y-41535771D01*
X68023809Y-41535771D02*
X68119047Y-41583390D01*
X68119047Y-41583390D02*
X68166666Y-41631009D01*
X68166666Y-41631009D02*
X68214285Y-41726247D01*
X68214285Y-41726247D02*
X68214285Y-41964342D01*
X68214285Y-41964342D02*
X68166666Y-42059580D01*
X68166666Y-42059580D02*
X68119047Y-42107200D01*
X68119047Y-42107200D02*
X68023809Y-42154819D01*
X68023809Y-42154819D02*
X67738095Y-42154819D01*
X67738095Y-42154819D02*
X67642857Y-42107200D01*
X67642857Y-42107200D02*
X67595238Y-42059580D01*
X68404762Y-42250057D02*
X69166666Y-42250057D01*
X69738095Y-41631009D02*
X69404762Y-41631009D01*
X69404762Y-42154819D02*
X69404762Y-41154819D01*
X69404762Y-41154819D02*
X69880952Y-41154819D01*
X70214286Y-41250057D02*
X70261905Y-41202438D01*
X70261905Y-41202438D02*
X70357143Y-41154819D01*
X70357143Y-41154819D02*
X70595238Y-41154819D01*
X70595238Y-41154819D02*
X70690476Y-41202438D01*
X70690476Y-41202438D02*
X70738095Y-41250057D01*
X70738095Y-41250057D02*
X70785714Y-41345295D01*
X70785714Y-41345295D02*
X70785714Y-41440533D01*
X70785714Y-41440533D02*
X70738095Y-41583390D01*
X70738095Y-41583390D02*
X70166667Y-42154819D01*
X70166667Y-42154819D02*
X70785714Y-42154819D01*
X70976191Y-42250057D02*
X71738095Y-42250057D01*
X72309524Y-41631009D02*
X72452381Y-41678628D01*
X72452381Y-41678628D02*
X72500000Y-41726247D01*
X72500000Y-41726247D02*
X72547619Y-41821485D01*
X72547619Y-41821485D02*
X72547619Y-41964342D01*
X72547619Y-41964342D02*
X72500000Y-42059580D01*
X72500000Y-42059580D02*
X72452381Y-42107200D01*
X72452381Y-42107200D02*
X72357143Y-42154819D01*
X72357143Y-42154819D02*
X71976191Y-42154819D01*
X71976191Y-42154819D02*
X71976191Y-41154819D01*
X71976191Y-41154819D02*
X72309524Y-41154819D01*
X72309524Y-41154819D02*
X72404762Y-41202438D01*
X72404762Y-41202438D02*
X72452381Y-41250057D01*
X72452381Y-41250057D02*
X72500000Y-41345295D01*
X72500000Y-41345295D02*
X72500000Y-41440533D01*
X72500000Y-41440533D02*
X72452381Y-41535771D01*
X72452381Y-41535771D02*
X72404762Y-41583390D01*
X72404762Y-41583390D02*
X72309524Y-41631009D01*
X72309524Y-41631009D02*
X71976191Y-41631009D01*
X72928572Y-41869104D02*
X73404762Y-41869104D01*
X72833334Y-42154819D02*
X73166667Y-41154819D01*
X73166667Y-41154819D02*
X73500000Y-42154819D01*
X73690477Y-41154819D02*
X74261905Y-41154819D01*
X73976191Y-42154819D02*
X73976191Y-41154819D01*
X75119048Y-42154819D02*
X74547620Y-42154819D01*
X74833334Y-42154819D02*
X74833334Y-41154819D01*
X74833334Y-41154819D02*
X74738096Y-41297676D01*
X74738096Y-41297676D02*
X74642858Y-41392914D01*
X74642858Y-41392914D02*
X74547620Y-41440533D01*
X117629580Y-81866666D02*
X117677200Y-81914285D01*
X117677200Y-81914285D02*
X117724819Y-82057142D01*
X117724819Y-82057142D02*
X117724819Y-82152380D01*
X117724819Y-82152380D02*
X117677200Y-82295237D01*
X117677200Y-82295237D02*
X117581961Y-82390475D01*
X117581961Y-82390475D02*
X117486723Y-82438094D01*
X117486723Y-82438094D02*
X117296247Y-82485713D01*
X117296247Y-82485713D02*
X117153390Y-82485713D01*
X117153390Y-82485713D02*
X116962914Y-82438094D01*
X116962914Y-82438094D02*
X116867676Y-82390475D01*
X116867676Y-82390475D02*
X116772438Y-82295237D01*
X116772438Y-82295237D02*
X116724819Y-82152380D01*
X116724819Y-82152380D02*
X116724819Y-82057142D01*
X116724819Y-82057142D02*
X116772438Y-81914285D01*
X116772438Y-81914285D02*
X116820057Y-81866666D01*
X116820057Y-81485713D02*
X116772438Y-81438094D01*
X116772438Y-81438094D02*
X116724819Y-81342856D01*
X116724819Y-81342856D02*
X116724819Y-81104761D01*
X116724819Y-81104761D02*
X116772438Y-81009523D01*
X116772438Y-81009523D02*
X116820057Y-80961904D01*
X116820057Y-80961904D02*
X116915295Y-80914285D01*
X116915295Y-80914285D02*
X117010533Y-80914285D01*
X117010533Y-80914285D02*
X117153390Y-80961904D01*
X117153390Y-80961904D02*
X117724819Y-81533332D01*
X117724819Y-81533332D02*
X117724819Y-80914285D01*
X66904761Y-67154819D02*
X66904761Y-67869104D01*
X66904761Y-67869104D02*
X66857142Y-68011961D01*
X66857142Y-68011961D02*
X66761904Y-68107200D01*
X66761904Y-68107200D02*
X66619047Y-68154819D01*
X66619047Y-68154819D02*
X66523809Y-68154819D01*
X67809523Y-67488152D02*
X67809523Y-68154819D01*
X67571428Y-67107200D02*
X67333333Y-67821485D01*
X67333333Y-67821485D02*
X67952380Y-67821485D01*
X68095238Y-68250057D02*
X68857142Y-68250057D01*
X69095238Y-68154819D02*
X69095238Y-67154819D01*
X69095238Y-67154819D02*
X69428571Y-67869104D01*
X69428571Y-67869104D02*
X69761904Y-67154819D01*
X69761904Y-67154819D02*
X69761904Y-68154819D01*
X70428571Y-67154819D02*
X70523809Y-67154819D01*
X70523809Y-67154819D02*
X70619047Y-67202438D01*
X70619047Y-67202438D02*
X70666666Y-67250057D01*
X70666666Y-67250057D02*
X70714285Y-67345295D01*
X70714285Y-67345295D02*
X70761904Y-67535771D01*
X70761904Y-67535771D02*
X70761904Y-67773866D01*
X70761904Y-67773866D02*
X70714285Y-67964342D01*
X70714285Y-67964342D02*
X70666666Y-68059580D01*
X70666666Y-68059580D02*
X70619047Y-68107200D01*
X70619047Y-68107200D02*
X70523809Y-68154819D01*
X70523809Y-68154819D02*
X70428571Y-68154819D01*
X70428571Y-68154819D02*
X70333333Y-68107200D01*
X70333333Y-68107200D02*
X70285714Y-68059580D01*
X70285714Y-68059580D02*
X70238095Y-67964342D01*
X70238095Y-67964342D02*
X70190476Y-67773866D01*
X70190476Y-67773866D02*
X70190476Y-67535771D01*
X70190476Y-67535771D02*
X70238095Y-67345295D01*
X70238095Y-67345295D02*
X70285714Y-67250057D01*
X70285714Y-67250057D02*
X70333333Y-67202438D01*
X70333333Y-67202438D02*
X70428571Y-67154819D01*
X70952381Y-68250057D02*
X71714285Y-68250057D01*
X71952381Y-68154819D02*
X71952381Y-67154819D01*
X71952381Y-67154819D02*
X72285714Y-67869104D01*
X72285714Y-67869104D02*
X72619047Y-67154819D01*
X72619047Y-67154819D02*
X72619047Y-68154819D01*
X73285714Y-67154819D02*
X73476190Y-67154819D01*
X73476190Y-67154819D02*
X73571428Y-67202438D01*
X73571428Y-67202438D02*
X73666666Y-67297676D01*
X73666666Y-67297676D02*
X73714285Y-67488152D01*
X73714285Y-67488152D02*
X73714285Y-67821485D01*
X73714285Y-67821485D02*
X73666666Y-68011961D01*
X73666666Y-68011961D02*
X73571428Y-68107200D01*
X73571428Y-68107200D02*
X73476190Y-68154819D01*
X73476190Y-68154819D02*
X73285714Y-68154819D01*
X73285714Y-68154819D02*
X73190476Y-68107200D01*
X73190476Y-68107200D02*
X73095238Y-68011961D01*
X73095238Y-68011961D02*
X73047619Y-67821485D01*
X73047619Y-67821485D02*
X73047619Y-67488152D01*
X73047619Y-67488152D02*
X73095238Y-67297676D01*
X73095238Y-67297676D02*
X73190476Y-67202438D01*
X73190476Y-67202438D02*
X73285714Y-67154819D01*
X74000000Y-67154819D02*
X74571428Y-67154819D01*
X74285714Y-68154819D02*
X74285714Y-67154819D01*
X75095238Y-67154819D02*
X75190476Y-67154819D01*
X75190476Y-67154819D02*
X75285714Y-67202438D01*
X75285714Y-67202438D02*
X75333333Y-67250057D01*
X75333333Y-67250057D02*
X75380952Y-67345295D01*
X75380952Y-67345295D02*
X75428571Y-67535771D01*
X75428571Y-67535771D02*
X75428571Y-67773866D01*
X75428571Y-67773866D02*
X75380952Y-67964342D01*
X75380952Y-67964342D02*
X75333333Y-68059580D01*
X75333333Y-68059580D02*
X75285714Y-68107200D01*
X75285714Y-68107200D02*
X75190476Y-68154819D01*
X75190476Y-68154819D02*
X75095238Y-68154819D01*
X75095238Y-68154819D02*
X75000000Y-68107200D01*
X75000000Y-68107200D02*
X74952381Y-68059580D01*
X74952381Y-68059580D02*
X74904762Y-67964342D01*
X74904762Y-67964342D02*
X74857143Y-67773866D01*
X74857143Y-67773866D02*
X74857143Y-67535771D01*
X74857143Y-67535771D02*
X74904762Y-67345295D01*
X74904762Y-67345295D02*
X74952381Y-67250057D01*
X74952381Y-67250057D02*
X75000000Y-67202438D01*
X75000000Y-67202438D02*
X75095238Y-67154819D01*
X145166666Y-77124819D02*
X145166666Y-77839104D01*
X145166666Y-77839104D02*
X145119047Y-77981961D01*
X145119047Y-77981961D02*
X145023809Y-78077200D01*
X145023809Y-78077200D02*
X144880952Y-78124819D01*
X144880952Y-78124819D02*
X144785714Y-78124819D01*
X146166666Y-78124819D02*
X145595238Y-78124819D01*
X145880952Y-78124819D02*
X145880952Y-77124819D01*
X145880952Y-77124819D02*
X145785714Y-77267676D01*
X145785714Y-77267676D02*
X145690476Y-77362914D01*
X145690476Y-77362914D02*
X145595238Y-77410533D01*
X132761904Y-96102438D02*
X132666666Y-96054819D01*
X132666666Y-96054819D02*
X132523809Y-96054819D01*
X132523809Y-96054819D02*
X132380952Y-96102438D01*
X132380952Y-96102438D02*
X132285714Y-96197676D01*
X132285714Y-96197676D02*
X132238095Y-96292914D01*
X132238095Y-96292914D02*
X132190476Y-96483390D01*
X132190476Y-96483390D02*
X132190476Y-96626247D01*
X132190476Y-96626247D02*
X132238095Y-96816723D01*
X132238095Y-96816723D02*
X132285714Y-96911961D01*
X132285714Y-96911961D02*
X132380952Y-97007200D01*
X132380952Y-97007200D02*
X132523809Y-97054819D01*
X132523809Y-97054819D02*
X132619047Y-97054819D01*
X132619047Y-97054819D02*
X132761904Y-97007200D01*
X132761904Y-97007200D02*
X132809523Y-96959580D01*
X132809523Y-96959580D02*
X132809523Y-96626247D01*
X132809523Y-96626247D02*
X132619047Y-96626247D01*
X133238095Y-97054819D02*
X133238095Y-96054819D01*
X133238095Y-96054819D02*
X133809523Y-97054819D01*
X133809523Y-97054819D02*
X133809523Y-96054819D01*
X134285714Y-97054819D02*
X134285714Y-96054819D01*
X134285714Y-96054819D02*
X134523809Y-96054819D01*
X134523809Y-96054819D02*
X134666666Y-96102438D01*
X134666666Y-96102438D02*
X134761904Y-96197676D01*
X134761904Y-96197676D02*
X134809523Y-96292914D01*
X134809523Y-96292914D02*
X134857142Y-96483390D01*
X134857142Y-96483390D02*
X134857142Y-96626247D01*
X134857142Y-96626247D02*
X134809523Y-96816723D01*
X134809523Y-96816723D02*
X134761904Y-96911961D01*
X134761904Y-96911961D02*
X134666666Y-97007200D01*
X134666666Y-97007200D02*
X134523809Y-97054819D01*
X134523809Y-97054819D02*
X134285714Y-97054819D01*
X135714285Y-96054819D02*
X135523809Y-96054819D01*
X135523809Y-96054819D02*
X135428571Y-96102438D01*
X135428571Y-96102438D02*
X135380952Y-96150057D01*
X135380952Y-96150057D02*
X135285714Y-96292914D01*
X135285714Y-96292914D02*
X135238095Y-96483390D01*
X135238095Y-96483390D02*
X135238095Y-96864342D01*
X135238095Y-96864342D02*
X135285714Y-96959580D01*
X135285714Y-96959580D02*
X135333333Y-97007200D01*
X135333333Y-97007200D02*
X135428571Y-97054819D01*
X135428571Y-97054819D02*
X135619047Y-97054819D01*
X135619047Y-97054819D02*
X135714285Y-97007200D01*
X135714285Y-97007200D02*
X135761904Y-96959580D01*
X135761904Y-96959580D02*
X135809523Y-96864342D01*
X135809523Y-96864342D02*
X135809523Y-96626247D01*
X135809523Y-96626247D02*
X135761904Y-96531009D01*
X135761904Y-96531009D02*
X135714285Y-96483390D01*
X135714285Y-96483390D02*
X135619047Y-96435771D01*
X135619047Y-96435771D02*
X135428571Y-96435771D01*
X135428571Y-96435771D02*
X135333333Y-96483390D01*
X135333333Y-96483390D02*
X135285714Y-96531009D01*
X135285714Y-96531009D02*
X135238095Y-96626247D01*
X164190476Y-57599819D02*
X164190476Y-58314104D01*
X164190476Y-58314104D02*
X164142857Y-58456961D01*
X164142857Y-58456961D02*
X164047619Y-58552200D01*
X164047619Y-58552200D02*
X163904762Y-58599819D01*
X163904762Y-58599819D02*
X163809524Y-58599819D01*
X165190476Y-58599819D02*
X164619048Y-58599819D01*
X164904762Y-58599819D02*
X164904762Y-57599819D01*
X164904762Y-57599819D02*
X164809524Y-57742676D01*
X164809524Y-57742676D02*
X164714286Y-57837914D01*
X164714286Y-57837914D02*
X164619048Y-57885533D01*
X165523810Y-57599819D02*
X166142857Y-57599819D01*
X166142857Y-57599819D02*
X165809524Y-57980771D01*
X165809524Y-57980771D02*
X165952381Y-57980771D01*
X165952381Y-57980771D02*
X166047619Y-58028390D01*
X166047619Y-58028390D02*
X166095238Y-58076009D01*
X166095238Y-58076009D02*
X166142857Y-58171247D01*
X166142857Y-58171247D02*
X166142857Y-58409342D01*
X166142857Y-58409342D02*
X166095238Y-58504580D01*
X166095238Y-58504580D02*
X166047619Y-58552200D01*
X166047619Y-58552200D02*
X165952381Y-58599819D01*
X165952381Y-58599819D02*
X165666667Y-58599819D01*
X165666667Y-58599819D02*
X165571429Y-58552200D01*
X165571429Y-58552200D02*
X165523810Y-58504580D01*
X113929580Y-83666666D02*
X113977200Y-83714285D01*
X113977200Y-83714285D02*
X114024819Y-83857142D01*
X114024819Y-83857142D02*
X114024819Y-83952380D01*
X114024819Y-83952380D02*
X113977200Y-84095237D01*
X113977200Y-84095237D02*
X113881961Y-84190475D01*
X113881961Y-84190475D02*
X113786723Y-84238094D01*
X113786723Y-84238094D02*
X113596247Y-84285713D01*
X113596247Y-84285713D02*
X113453390Y-84285713D01*
X113453390Y-84285713D02*
X113262914Y-84238094D01*
X113262914Y-84238094D02*
X113167676Y-84190475D01*
X113167676Y-84190475D02*
X113072438Y-84095237D01*
X113072438Y-84095237D02*
X113024819Y-83952380D01*
X113024819Y-83952380D02*
X113024819Y-83857142D01*
X113024819Y-83857142D02*
X113072438Y-83714285D01*
X113072438Y-83714285D02*
X113120057Y-83666666D01*
X113024819Y-83333332D02*
X113024819Y-82714285D01*
X113024819Y-82714285D02*
X113405771Y-83047618D01*
X113405771Y-83047618D02*
X113405771Y-82904761D01*
X113405771Y-82904761D02*
X113453390Y-82809523D01*
X113453390Y-82809523D02*
X113501009Y-82761904D01*
X113501009Y-82761904D02*
X113596247Y-82714285D01*
X113596247Y-82714285D02*
X113834342Y-82714285D01*
X113834342Y-82714285D02*
X113929580Y-82761904D01*
X113929580Y-82761904D02*
X113977200Y-82809523D01*
X113977200Y-82809523D02*
X114024819Y-82904761D01*
X114024819Y-82904761D02*
X114024819Y-83190475D01*
X114024819Y-83190475D02*
X113977200Y-83285713D01*
X113977200Y-83285713D02*
X113929580Y-83333332D01*
X117404761Y-102154819D02*
X117404761Y-102869104D01*
X117404761Y-102869104D02*
X117357142Y-103011961D01*
X117357142Y-103011961D02*
X117261904Y-103107200D01*
X117261904Y-103107200D02*
X117119047Y-103154819D01*
X117119047Y-103154819D02*
X117023809Y-103154819D01*
X118309523Y-102488152D02*
X118309523Y-103154819D01*
X118071428Y-102107200D02*
X117833333Y-102821485D01*
X117833333Y-102821485D02*
X118452380Y-102821485D01*
X118595238Y-103250057D02*
X119357142Y-103250057D01*
X119595238Y-103154819D02*
X119595238Y-102154819D01*
X119595238Y-102154819D02*
X119928571Y-102869104D01*
X119928571Y-102869104D02*
X120261904Y-102154819D01*
X120261904Y-102154819D02*
X120261904Y-103154819D01*
X120642857Y-102154819D02*
X121261904Y-102154819D01*
X121261904Y-102154819D02*
X120928571Y-102535771D01*
X120928571Y-102535771D02*
X121071428Y-102535771D01*
X121071428Y-102535771D02*
X121166666Y-102583390D01*
X121166666Y-102583390D02*
X121214285Y-102631009D01*
X121214285Y-102631009D02*
X121261904Y-102726247D01*
X121261904Y-102726247D02*
X121261904Y-102964342D01*
X121261904Y-102964342D02*
X121214285Y-103059580D01*
X121214285Y-103059580D02*
X121166666Y-103107200D01*
X121166666Y-103107200D02*
X121071428Y-103154819D01*
X121071428Y-103154819D02*
X120785714Y-103154819D01*
X120785714Y-103154819D02*
X120690476Y-103107200D01*
X120690476Y-103107200D02*
X120642857Y-103059580D01*
X121452381Y-103250057D02*
X122214285Y-103250057D01*
X122452381Y-103154819D02*
X122452381Y-102154819D01*
X122452381Y-102154819D02*
X122785714Y-102869104D01*
X122785714Y-102869104D02*
X123119047Y-102154819D01*
X123119047Y-102154819D02*
X123119047Y-103154819D01*
X123785714Y-102154819D02*
X123976190Y-102154819D01*
X123976190Y-102154819D02*
X124071428Y-102202438D01*
X124071428Y-102202438D02*
X124166666Y-102297676D01*
X124166666Y-102297676D02*
X124214285Y-102488152D01*
X124214285Y-102488152D02*
X124214285Y-102821485D01*
X124214285Y-102821485D02*
X124166666Y-103011961D01*
X124166666Y-103011961D02*
X124071428Y-103107200D01*
X124071428Y-103107200D02*
X123976190Y-103154819D01*
X123976190Y-103154819D02*
X123785714Y-103154819D01*
X123785714Y-103154819D02*
X123690476Y-103107200D01*
X123690476Y-103107200D02*
X123595238Y-103011961D01*
X123595238Y-103011961D02*
X123547619Y-102821485D01*
X123547619Y-102821485D02*
X123547619Y-102488152D01*
X123547619Y-102488152D02*
X123595238Y-102297676D01*
X123595238Y-102297676D02*
X123690476Y-102202438D01*
X123690476Y-102202438D02*
X123785714Y-102154819D01*
X124500000Y-102154819D02*
X125071428Y-102154819D01*
X124785714Y-103154819D02*
X124785714Y-102154819D01*
X125309524Y-102154819D02*
X125928571Y-102154819D01*
X125928571Y-102154819D02*
X125595238Y-102535771D01*
X125595238Y-102535771D02*
X125738095Y-102535771D01*
X125738095Y-102535771D02*
X125833333Y-102583390D01*
X125833333Y-102583390D02*
X125880952Y-102631009D01*
X125880952Y-102631009D02*
X125928571Y-102726247D01*
X125928571Y-102726247D02*
X125928571Y-102964342D01*
X125928571Y-102964342D02*
X125880952Y-103059580D01*
X125880952Y-103059580D02*
X125833333Y-103107200D01*
X125833333Y-103107200D02*
X125738095Y-103154819D01*
X125738095Y-103154819D02*
X125452381Y-103154819D01*
X125452381Y-103154819D02*
X125357143Y-103107200D01*
X125357143Y-103107200D02*
X125309524Y-103059580D01*
X110404761Y-89599819D02*
X110404761Y-90314104D01*
X110404761Y-90314104D02*
X110357142Y-90456961D01*
X110357142Y-90456961D02*
X110261904Y-90552200D01*
X110261904Y-90552200D02*
X110119047Y-90599819D01*
X110119047Y-90599819D02*
X110023809Y-90599819D01*
X111404761Y-90599819D02*
X110833333Y-90599819D01*
X111119047Y-90599819D02*
X111119047Y-89599819D01*
X111119047Y-89599819D02*
X111023809Y-89742676D01*
X111023809Y-89742676D02*
X110928571Y-89837914D01*
X110928571Y-89837914D02*
X110833333Y-89885533D01*
X112309523Y-89599819D02*
X111833333Y-89599819D01*
X111833333Y-89599819D02*
X111785714Y-90076009D01*
X111785714Y-90076009D02*
X111833333Y-90028390D01*
X111833333Y-90028390D02*
X111928571Y-89980771D01*
X111928571Y-89980771D02*
X112166666Y-89980771D01*
X112166666Y-89980771D02*
X112261904Y-90028390D01*
X112261904Y-90028390D02*
X112309523Y-90076009D01*
X112309523Y-90076009D02*
X112357142Y-90171247D01*
X112357142Y-90171247D02*
X112357142Y-90409342D01*
X112357142Y-90409342D02*
X112309523Y-90504580D01*
X112309523Y-90504580D02*
X112261904Y-90552200D01*
X112261904Y-90552200D02*
X112166666Y-90599819D01*
X112166666Y-90599819D02*
X111928571Y-90599819D01*
X111928571Y-90599819D02*
X111833333Y-90552200D01*
X111833333Y-90552200D02*
X111785714Y-90504580D01*
X112642857Y-89599819D02*
X112976190Y-90599819D01*
X112976190Y-90599819D02*
X113309523Y-89599819D01*
X113976190Y-90076009D02*
X114119047Y-90123628D01*
X114119047Y-90123628D02*
X114166666Y-90171247D01*
X114166666Y-90171247D02*
X114214285Y-90266485D01*
X114214285Y-90266485D02*
X114214285Y-90409342D01*
X114214285Y-90409342D02*
X114166666Y-90504580D01*
X114166666Y-90504580D02*
X114119047Y-90552200D01*
X114119047Y-90552200D02*
X114023809Y-90599819D01*
X114023809Y-90599819D02*
X113642857Y-90599819D01*
X113642857Y-90599819D02*
X113642857Y-89599819D01*
X113642857Y-89599819D02*
X113976190Y-89599819D01*
X113976190Y-89599819D02*
X114071428Y-89647438D01*
X114071428Y-89647438D02*
X114119047Y-89695057D01*
X114119047Y-89695057D02*
X114166666Y-89790295D01*
X114166666Y-89790295D02*
X114166666Y-89885533D01*
X114166666Y-89885533D02*
X114119047Y-89980771D01*
X114119047Y-89980771D02*
X114071428Y-90028390D01*
X114071428Y-90028390D02*
X113976190Y-90076009D01*
X113976190Y-90076009D02*
X113642857Y-90076009D01*
X114642857Y-90076009D02*
X114976190Y-90076009D01*
X115119047Y-90599819D02*
X114642857Y-90599819D01*
X114642857Y-90599819D02*
X114642857Y-89599819D01*
X114642857Y-89599819D02*
X115119047Y-89599819D01*
X116119047Y-90504580D02*
X116071428Y-90552200D01*
X116071428Y-90552200D02*
X115928571Y-90599819D01*
X115928571Y-90599819D02*
X115833333Y-90599819D01*
X115833333Y-90599819D02*
X115690476Y-90552200D01*
X115690476Y-90552200D02*
X115595238Y-90456961D01*
X115595238Y-90456961D02*
X115547619Y-90361723D01*
X115547619Y-90361723D02*
X115500000Y-90171247D01*
X115500000Y-90171247D02*
X115500000Y-90028390D01*
X115500000Y-90028390D02*
X115547619Y-89837914D01*
X115547619Y-89837914D02*
X115595238Y-89742676D01*
X115595238Y-89742676D02*
X115690476Y-89647438D01*
X115690476Y-89647438D02*
X115833333Y-89599819D01*
X115833333Y-89599819D02*
X115928571Y-89599819D01*
X115928571Y-89599819D02*
X116071428Y-89647438D01*
X116071428Y-89647438D02*
X116119047Y-89695057D01*
X116738095Y-89599819D02*
X116928571Y-89599819D01*
X116928571Y-89599819D02*
X117023809Y-89647438D01*
X117023809Y-89647438D02*
X117119047Y-89742676D01*
X117119047Y-89742676D02*
X117166666Y-89933152D01*
X117166666Y-89933152D02*
X117166666Y-90266485D01*
X117166666Y-90266485D02*
X117119047Y-90456961D01*
X117119047Y-90456961D02*
X117023809Y-90552200D01*
X117023809Y-90552200D02*
X116928571Y-90599819D01*
X116928571Y-90599819D02*
X116738095Y-90599819D01*
X116738095Y-90599819D02*
X116642857Y-90552200D01*
X116642857Y-90552200D02*
X116547619Y-90456961D01*
X116547619Y-90456961D02*
X116500000Y-90266485D01*
X116500000Y-90266485D02*
X116500000Y-89933152D01*
X116500000Y-89933152D02*
X116547619Y-89742676D01*
X116547619Y-89742676D02*
X116642857Y-89647438D01*
X116642857Y-89647438D02*
X116738095Y-89599819D01*
X117595238Y-89599819D02*
X117595238Y-90409342D01*
X117595238Y-90409342D02*
X117642857Y-90504580D01*
X117642857Y-90504580D02*
X117690476Y-90552200D01*
X117690476Y-90552200D02*
X117785714Y-90599819D01*
X117785714Y-90599819D02*
X117976190Y-90599819D01*
X117976190Y-90599819D02*
X118071428Y-90552200D01*
X118071428Y-90552200D02*
X118119047Y-90504580D01*
X118119047Y-90504580D02*
X118166666Y-90409342D01*
X118166666Y-90409342D02*
X118166666Y-89599819D01*
X118500000Y-89599819D02*
X119071428Y-89599819D01*
X118785714Y-90599819D02*
X118785714Y-89599819D01*
X119928571Y-90599819D02*
X119357143Y-90599819D01*
X119642857Y-90599819D02*
X119642857Y-89599819D01*
X119642857Y-89599819D02*
X119547619Y-89742676D01*
X119547619Y-89742676D02*
X119452381Y-89837914D01*
X119452381Y-89837914D02*
X119357143Y-89885533D01*
X106333333Y-84024819D02*
X106000000Y-83548628D01*
X105761905Y-84024819D02*
X105761905Y-83024819D01*
X105761905Y-83024819D02*
X106142857Y-83024819D01*
X106142857Y-83024819D02*
X106238095Y-83072438D01*
X106238095Y-83072438D02*
X106285714Y-83120057D01*
X106285714Y-83120057D02*
X106333333Y-83215295D01*
X106333333Y-83215295D02*
X106333333Y-83358152D01*
X106333333Y-83358152D02*
X106285714Y-83453390D01*
X106285714Y-83453390D02*
X106238095Y-83501009D01*
X106238095Y-83501009D02*
X106142857Y-83548628D01*
X106142857Y-83548628D02*
X105761905Y-83548628D01*
X106904762Y-83453390D02*
X106809524Y-83405771D01*
X106809524Y-83405771D02*
X106761905Y-83358152D01*
X106761905Y-83358152D02*
X106714286Y-83262914D01*
X106714286Y-83262914D02*
X106714286Y-83215295D01*
X106714286Y-83215295D02*
X106761905Y-83120057D01*
X106761905Y-83120057D02*
X106809524Y-83072438D01*
X106809524Y-83072438D02*
X106904762Y-83024819D01*
X106904762Y-83024819D02*
X107095238Y-83024819D01*
X107095238Y-83024819D02*
X107190476Y-83072438D01*
X107190476Y-83072438D02*
X107238095Y-83120057D01*
X107238095Y-83120057D02*
X107285714Y-83215295D01*
X107285714Y-83215295D02*
X107285714Y-83262914D01*
X107285714Y-83262914D02*
X107238095Y-83358152D01*
X107238095Y-83358152D02*
X107190476Y-83405771D01*
X107190476Y-83405771D02*
X107095238Y-83453390D01*
X107095238Y-83453390D02*
X106904762Y-83453390D01*
X106904762Y-83453390D02*
X106809524Y-83501009D01*
X106809524Y-83501009D02*
X106761905Y-83548628D01*
X106761905Y-83548628D02*
X106714286Y-83643866D01*
X106714286Y-83643866D02*
X106714286Y-83834342D01*
X106714286Y-83834342D02*
X106761905Y-83929580D01*
X106761905Y-83929580D02*
X106809524Y-83977200D01*
X106809524Y-83977200D02*
X106904762Y-84024819D01*
X106904762Y-84024819D02*
X107095238Y-84024819D01*
X107095238Y-84024819D02*
X107190476Y-83977200D01*
X107190476Y-83977200D02*
X107238095Y-83929580D01*
X107238095Y-83929580D02*
X107285714Y-83834342D01*
X107285714Y-83834342D02*
X107285714Y-83643866D01*
X107285714Y-83643866D02*
X107238095Y-83548628D01*
X107238095Y-83548628D02*
X107190476Y-83501009D01*
X107190476Y-83501009D02*
X107095238Y-83453390D01*
X153024819Y-84238094D02*
X152024819Y-84238094D01*
X152024819Y-84238094D02*
X152024819Y-83999999D01*
X152024819Y-83999999D02*
X152072438Y-83857142D01*
X152072438Y-83857142D02*
X152167676Y-83761904D01*
X152167676Y-83761904D02*
X152262914Y-83714285D01*
X152262914Y-83714285D02*
X152453390Y-83666666D01*
X152453390Y-83666666D02*
X152596247Y-83666666D01*
X152596247Y-83666666D02*
X152786723Y-83714285D01*
X152786723Y-83714285D02*
X152881961Y-83761904D01*
X152881961Y-83761904D02*
X152977200Y-83857142D01*
X152977200Y-83857142D02*
X153024819Y-83999999D01*
X153024819Y-83999999D02*
X153024819Y-84238094D01*
X153024819Y-82714285D02*
X153024819Y-83285713D01*
X153024819Y-82999999D02*
X152024819Y-82999999D01*
X152024819Y-82999999D02*
X152167676Y-83095237D01*
X152167676Y-83095237D02*
X152262914Y-83190475D01*
X152262914Y-83190475D02*
X152310533Y-83285713D01*
X163261905Y-97024819D02*
X163261905Y-96024819D01*
X163261905Y-96024819D02*
X163500000Y-96024819D01*
X163500000Y-96024819D02*
X163642857Y-96072438D01*
X163642857Y-96072438D02*
X163738095Y-96167676D01*
X163738095Y-96167676D02*
X163785714Y-96262914D01*
X163785714Y-96262914D02*
X163833333Y-96453390D01*
X163833333Y-96453390D02*
X163833333Y-96596247D01*
X163833333Y-96596247D02*
X163785714Y-96786723D01*
X163785714Y-96786723D02*
X163738095Y-96881961D01*
X163738095Y-96881961D02*
X163642857Y-96977200D01*
X163642857Y-96977200D02*
X163500000Y-97024819D01*
X163500000Y-97024819D02*
X163261905Y-97024819D01*
X164738095Y-96024819D02*
X164261905Y-96024819D01*
X164261905Y-96024819D02*
X164214286Y-96501009D01*
X164214286Y-96501009D02*
X164261905Y-96453390D01*
X164261905Y-96453390D02*
X164357143Y-96405771D01*
X164357143Y-96405771D02*
X164595238Y-96405771D01*
X164595238Y-96405771D02*
X164690476Y-96453390D01*
X164690476Y-96453390D02*
X164738095Y-96501009D01*
X164738095Y-96501009D02*
X164785714Y-96596247D01*
X164785714Y-96596247D02*
X164785714Y-96834342D01*
X164785714Y-96834342D02*
X164738095Y-96929580D01*
X164738095Y-96929580D02*
X164690476Y-96977200D01*
X164690476Y-96977200D02*
X164595238Y-97024819D01*
X164595238Y-97024819D02*
X164357143Y-97024819D01*
X164357143Y-97024819D02*
X164261905Y-96977200D01*
X164261905Y-96977200D02*
X164214286Y-96929580D01*
X143785714Y-97006819D02*
X143785714Y-96006819D01*
X143785714Y-96006819D02*
X144119047Y-96721104D01*
X144119047Y-96721104D02*
X144452380Y-96006819D01*
X144452380Y-96006819D02*
X144452380Y-97006819D01*
X145119047Y-96006819D02*
X145309523Y-96006819D01*
X145309523Y-96006819D02*
X145404761Y-96054438D01*
X145404761Y-96054438D02*
X145499999Y-96149676D01*
X145499999Y-96149676D02*
X145547618Y-96340152D01*
X145547618Y-96340152D02*
X145547618Y-96673485D01*
X145547618Y-96673485D02*
X145499999Y-96863961D01*
X145499999Y-96863961D02*
X145404761Y-96959200D01*
X145404761Y-96959200D02*
X145309523Y-97006819D01*
X145309523Y-97006819D02*
X145119047Y-97006819D01*
X145119047Y-97006819D02*
X145023809Y-96959200D01*
X145023809Y-96959200D02*
X144928571Y-96863961D01*
X144928571Y-96863961D02*
X144880952Y-96673485D01*
X144880952Y-96673485D02*
X144880952Y-96340152D01*
X144880952Y-96340152D02*
X144928571Y-96149676D01*
X144928571Y-96149676D02*
X145023809Y-96054438D01*
X145023809Y-96054438D02*
X145119047Y-96006819D01*
X145833333Y-96006819D02*
X146404761Y-96006819D01*
X146119047Y-97006819D02*
X146119047Y-96006819D01*
X146928571Y-96006819D02*
X147023809Y-96006819D01*
X147023809Y-96006819D02*
X147119047Y-96054438D01*
X147119047Y-96054438D02*
X147166666Y-96102057D01*
X147166666Y-96102057D02*
X147214285Y-96197295D01*
X147214285Y-96197295D02*
X147261904Y-96387771D01*
X147261904Y-96387771D02*
X147261904Y-96625866D01*
X147261904Y-96625866D02*
X147214285Y-96816342D01*
X147214285Y-96816342D02*
X147166666Y-96911580D01*
X147166666Y-96911580D02*
X147119047Y-96959200D01*
X147119047Y-96959200D02*
X147023809Y-97006819D01*
X147023809Y-97006819D02*
X146928571Y-97006819D01*
X146928571Y-97006819D02*
X146833333Y-96959200D01*
X146833333Y-96959200D02*
X146785714Y-96911580D01*
X146785714Y-96911580D02*
X146738095Y-96816342D01*
X146738095Y-96816342D02*
X146690476Y-96625866D01*
X146690476Y-96625866D02*
X146690476Y-96387771D01*
X146690476Y-96387771D02*
X146738095Y-96197295D01*
X146738095Y-96197295D02*
X146785714Y-96102057D01*
X146785714Y-96102057D02*
X146833333Y-96054438D01*
X146833333Y-96054438D02*
X146928571Y-96006819D01*
X108190476Y-89624819D02*
X108190476Y-90339104D01*
X108190476Y-90339104D02*
X108142857Y-90481961D01*
X108142857Y-90481961D02*
X108047619Y-90577200D01*
X108047619Y-90577200D02*
X107904762Y-90624819D01*
X107904762Y-90624819D02*
X107809524Y-90624819D01*
X109190476Y-90624819D02*
X108619048Y-90624819D01*
X108904762Y-90624819D02*
X108904762Y-89624819D01*
X108904762Y-89624819D02*
X108809524Y-89767676D01*
X108809524Y-89767676D02*
X108714286Y-89862914D01*
X108714286Y-89862914D02*
X108619048Y-89910533D01*
X110047619Y-89958152D02*
X110047619Y-90624819D01*
X109809524Y-89577200D02*
X109571429Y-90291485D01*
X109571429Y-90291485D02*
X110190476Y-90291485D01*
X111095238Y-89672438D02*
X111000000Y-89624819D01*
X111000000Y-89624819D02*
X110857143Y-89624819D01*
X110857143Y-89624819D02*
X110714286Y-89672438D01*
X110714286Y-89672438D02*
X110619048Y-89767676D01*
X110619048Y-89767676D02*
X110571429Y-89862914D01*
X110571429Y-89862914D02*
X110523810Y-90053390D01*
X110523810Y-90053390D02*
X110523810Y-90196247D01*
X110523810Y-90196247D02*
X110571429Y-90386723D01*
X110571429Y-90386723D02*
X110619048Y-90481961D01*
X110619048Y-90481961D02*
X110714286Y-90577200D01*
X110714286Y-90577200D02*
X110857143Y-90624819D01*
X110857143Y-90624819D02*
X110952381Y-90624819D01*
X110952381Y-90624819D02*
X111095238Y-90577200D01*
X111095238Y-90577200D02*
X111142857Y-90529580D01*
X111142857Y-90529580D02*
X111142857Y-90196247D01*
X111142857Y-90196247D02*
X110952381Y-90196247D01*
X111571429Y-90624819D02*
X111571429Y-89624819D01*
X111571429Y-89624819D02*
X112142857Y-90624819D01*
X112142857Y-90624819D02*
X112142857Y-89624819D01*
X112619048Y-90624819D02*
X112619048Y-89624819D01*
X112619048Y-89624819D02*
X112857143Y-89624819D01*
X112857143Y-89624819D02*
X113000000Y-89672438D01*
X113000000Y-89672438D02*
X113095238Y-89767676D01*
X113095238Y-89767676D02*
X113142857Y-89862914D01*
X113142857Y-89862914D02*
X113190476Y-90053390D01*
X113190476Y-90053390D02*
X113190476Y-90196247D01*
X113190476Y-90196247D02*
X113142857Y-90386723D01*
X113142857Y-90386723D02*
X113095238Y-90481961D01*
X113095238Y-90481961D02*
X113000000Y-90577200D01*
X113000000Y-90577200D02*
X112857143Y-90624819D01*
X112857143Y-90624819D02*
X112619048Y-90624819D01*
X114142857Y-90624819D02*
X113571429Y-90624819D01*
X113857143Y-90624819D02*
X113857143Y-89624819D01*
X113857143Y-89624819D02*
X113761905Y-89767676D01*
X113761905Y-89767676D02*
X113666667Y-89862914D01*
X113666667Y-89862914D02*
X113571429Y-89910533D01*
X122828572Y-81056819D02*
X123161905Y-82056819D01*
X123161905Y-82056819D02*
X123495238Y-81056819D01*
X123828572Y-82056819D02*
X123828572Y-81056819D01*
X123828572Y-81056819D02*
X124066667Y-81056819D01*
X124066667Y-81056819D02*
X124209524Y-81104438D01*
X124209524Y-81104438D02*
X124304762Y-81199676D01*
X124304762Y-81199676D02*
X124352381Y-81294914D01*
X124352381Y-81294914D02*
X124400000Y-81485390D01*
X124400000Y-81485390D02*
X124400000Y-81628247D01*
X124400000Y-81628247D02*
X124352381Y-81818723D01*
X124352381Y-81818723D02*
X124304762Y-81913961D01*
X124304762Y-81913961D02*
X124209524Y-82009200D01*
X124209524Y-82009200D02*
X124066667Y-82056819D01*
X124066667Y-82056819D02*
X123828572Y-82056819D01*
X124828572Y-82056819D02*
X124828572Y-81056819D01*
X124828572Y-81056819D02*
X125066667Y-81056819D01*
X125066667Y-81056819D02*
X125209524Y-81104438D01*
X125209524Y-81104438D02*
X125304762Y-81199676D01*
X125304762Y-81199676D02*
X125352381Y-81294914D01*
X125352381Y-81294914D02*
X125400000Y-81485390D01*
X125400000Y-81485390D02*
X125400000Y-81628247D01*
X125400000Y-81628247D02*
X125352381Y-81818723D01*
X125352381Y-81818723D02*
X125304762Y-81913961D01*
X125304762Y-81913961D02*
X125209524Y-82009200D01*
X125209524Y-82009200D02*
X125066667Y-82056819D01*
X125066667Y-82056819D02*
X124828572Y-82056819D01*
X125828572Y-82056819D02*
X125828572Y-81056819D01*
X126495238Y-81056819D02*
X126685714Y-81056819D01*
X126685714Y-81056819D02*
X126780952Y-81104438D01*
X126780952Y-81104438D02*
X126876190Y-81199676D01*
X126876190Y-81199676D02*
X126923809Y-81390152D01*
X126923809Y-81390152D02*
X126923809Y-81723485D01*
X126923809Y-81723485D02*
X126876190Y-81913961D01*
X126876190Y-81913961D02*
X126780952Y-82009200D01*
X126780952Y-82009200D02*
X126685714Y-82056819D01*
X126685714Y-82056819D02*
X126495238Y-82056819D01*
X126495238Y-82056819D02*
X126400000Y-82009200D01*
X126400000Y-82009200D02*
X126304762Y-81913961D01*
X126304762Y-81913961D02*
X126257143Y-81723485D01*
X126257143Y-81723485D02*
X126257143Y-81390152D01*
X126257143Y-81390152D02*
X126304762Y-81199676D01*
X126304762Y-81199676D02*
X126400000Y-81104438D01*
X126400000Y-81104438D02*
X126495238Y-81056819D01*
X127876190Y-82056819D02*
X127304762Y-82056819D01*
X127590476Y-82056819D02*
X127590476Y-81056819D01*
X127590476Y-81056819D02*
X127495238Y-81199676D01*
X127495238Y-81199676D02*
X127400000Y-81294914D01*
X127400000Y-81294914D02*
X127304762Y-81342533D01*
X136166666Y-77124819D02*
X136166666Y-77839104D01*
X136166666Y-77839104D02*
X136119047Y-77981961D01*
X136119047Y-77981961D02*
X136023809Y-78077200D01*
X136023809Y-78077200D02*
X135880952Y-78124819D01*
X135880952Y-78124819D02*
X135785714Y-78124819D01*
X137071428Y-77458152D02*
X137071428Y-78124819D01*
X136833333Y-77077200D02*
X136595238Y-77791485D01*
X136595238Y-77791485D02*
X137214285Y-77791485D01*
X65761904Y-81054438D02*
X65666666Y-81006819D01*
X65666666Y-81006819D02*
X65523809Y-81006819D01*
X65523809Y-81006819D02*
X65380952Y-81054438D01*
X65380952Y-81054438D02*
X65285714Y-81149676D01*
X65285714Y-81149676D02*
X65238095Y-81244914D01*
X65238095Y-81244914D02*
X65190476Y-81435390D01*
X65190476Y-81435390D02*
X65190476Y-81578247D01*
X65190476Y-81578247D02*
X65238095Y-81768723D01*
X65238095Y-81768723D02*
X65285714Y-81863961D01*
X65285714Y-81863961D02*
X65380952Y-81959200D01*
X65380952Y-81959200D02*
X65523809Y-82006819D01*
X65523809Y-82006819D02*
X65619047Y-82006819D01*
X65619047Y-82006819D02*
X65761904Y-81959200D01*
X65761904Y-81959200D02*
X65809523Y-81911580D01*
X65809523Y-81911580D02*
X65809523Y-81578247D01*
X65809523Y-81578247D02*
X65619047Y-81578247D01*
X66238095Y-82006819D02*
X66238095Y-81006819D01*
X66238095Y-81006819D02*
X66809523Y-82006819D01*
X66809523Y-82006819D02*
X66809523Y-81006819D01*
X67285714Y-82006819D02*
X67285714Y-81006819D01*
X67285714Y-81006819D02*
X67523809Y-81006819D01*
X67523809Y-81006819D02*
X67666666Y-81054438D01*
X67666666Y-81054438D02*
X67761904Y-81149676D01*
X67761904Y-81149676D02*
X67809523Y-81244914D01*
X67809523Y-81244914D02*
X67857142Y-81435390D01*
X67857142Y-81435390D02*
X67857142Y-81578247D01*
X67857142Y-81578247D02*
X67809523Y-81768723D01*
X67809523Y-81768723D02*
X67761904Y-81863961D01*
X67761904Y-81863961D02*
X67666666Y-81959200D01*
X67666666Y-81959200D02*
X67523809Y-82006819D01*
X67523809Y-82006819D02*
X67285714Y-82006819D01*
X68761904Y-81006819D02*
X68285714Y-81006819D01*
X68285714Y-81006819D02*
X68238095Y-81483009D01*
X68238095Y-81483009D02*
X68285714Y-81435390D01*
X68285714Y-81435390D02*
X68380952Y-81387771D01*
X68380952Y-81387771D02*
X68619047Y-81387771D01*
X68619047Y-81387771D02*
X68714285Y-81435390D01*
X68714285Y-81435390D02*
X68761904Y-81483009D01*
X68761904Y-81483009D02*
X68809523Y-81578247D01*
X68809523Y-81578247D02*
X68809523Y-81816342D01*
X68809523Y-81816342D02*
X68761904Y-81911580D01*
X68761904Y-81911580D02*
X68714285Y-81959200D01*
X68714285Y-81959200D02*
X68619047Y-82006819D01*
X68619047Y-82006819D02*
X68380952Y-82006819D01*
X68380952Y-82006819D02*
X68285714Y-81959200D01*
X68285714Y-81959200D02*
X68238095Y-81911580D01*
X151043809Y-75030628D02*
X151043809Y-75506819D01*
X150710476Y-74506819D02*
X151043809Y-75030628D01*
X151043809Y-75030628D02*
X151377142Y-74506819D01*
X152234285Y-75506819D02*
X151662857Y-75506819D01*
X151948571Y-75506819D02*
X151948571Y-74506819D01*
X151948571Y-74506819D02*
X151853333Y-74649676D01*
X151853333Y-74649676D02*
X151758095Y-74744914D01*
X151758095Y-74744914D02*
X151662857Y-74792533D01*
X128785714Y-97006819D02*
X128785714Y-96006819D01*
X128785714Y-96006819D02*
X129119047Y-96721104D01*
X129119047Y-96721104D02*
X129452380Y-96006819D01*
X129452380Y-96006819D02*
X129452380Y-97006819D01*
X130119047Y-96006819D02*
X130309523Y-96006819D01*
X130309523Y-96006819D02*
X130404761Y-96054438D01*
X130404761Y-96054438D02*
X130499999Y-96149676D01*
X130499999Y-96149676D02*
X130547618Y-96340152D01*
X130547618Y-96340152D02*
X130547618Y-96673485D01*
X130547618Y-96673485D02*
X130499999Y-96863961D01*
X130499999Y-96863961D02*
X130404761Y-96959200D01*
X130404761Y-96959200D02*
X130309523Y-97006819D01*
X130309523Y-97006819D02*
X130119047Y-97006819D01*
X130119047Y-97006819D02*
X130023809Y-96959200D01*
X130023809Y-96959200D02*
X129928571Y-96863961D01*
X129928571Y-96863961D02*
X129880952Y-96673485D01*
X129880952Y-96673485D02*
X129880952Y-96340152D01*
X129880952Y-96340152D02*
X129928571Y-96149676D01*
X129928571Y-96149676D02*
X130023809Y-96054438D01*
X130023809Y-96054438D02*
X130119047Y-96006819D01*
X130833333Y-96006819D02*
X131404761Y-96006819D01*
X131119047Y-97006819D02*
X131119047Y-96006819D01*
X131690476Y-96102057D02*
X131738095Y-96054438D01*
X131738095Y-96054438D02*
X131833333Y-96006819D01*
X131833333Y-96006819D02*
X132071428Y-96006819D01*
X132071428Y-96006819D02*
X132166666Y-96054438D01*
X132166666Y-96054438D02*
X132214285Y-96102057D01*
X132214285Y-96102057D02*
X132261904Y-96197295D01*
X132261904Y-96197295D02*
X132261904Y-96292533D01*
X132261904Y-96292533D02*
X132214285Y-96435390D01*
X132214285Y-96435390D02*
X131642857Y-97006819D01*
X131642857Y-97006819D02*
X132261904Y-97006819D01*
X85833333Y-96884819D02*
X85500000Y-96408628D01*
X85261905Y-96884819D02*
X85261905Y-95884819D01*
X85261905Y-95884819D02*
X85642857Y-95884819D01*
X85642857Y-95884819D02*
X85738095Y-95932438D01*
X85738095Y-95932438D02*
X85785714Y-95980057D01*
X85785714Y-95980057D02*
X85833333Y-96075295D01*
X85833333Y-96075295D02*
X85833333Y-96218152D01*
X85833333Y-96218152D02*
X85785714Y-96313390D01*
X85785714Y-96313390D02*
X85738095Y-96361009D01*
X85738095Y-96361009D02*
X85642857Y-96408628D01*
X85642857Y-96408628D02*
X85261905Y-96408628D01*
X86166667Y-95884819D02*
X86785714Y-95884819D01*
X86785714Y-95884819D02*
X86452381Y-96265771D01*
X86452381Y-96265771D02*
X86595238Y-96265771D01*
X86595238Y-96265771D02*
X86690476Y-96313390D01*
X86690476Y-96313390D02*
X86738095Y-96361009D01*
X86738095Y-96361009D02*
X86785714Y-96456247D01*
X86785714Y-96456247D02*
X86785714Y-96694342D01*
X86785714Y-96694342D02*
X86738095Y-96789580D01*
X86738095Y-96789580D02*
X86690476Y-96837200D01*
X86690476Y-96837200D02*
X86595238Y-96884819D01*
X86595238Y-96884819D02*
X86309524Y-96884819D01*
X86309524Y-96884819D02*
X86214286Y-96837200D01*
X86214286Y-96837200D02*
X86166667Y-96789580D01*
X120857142Y-84884819D02*
X120523809Y-84408628D01*
X120285714Y-84884819D02*
X120285714Y-83884819D01*
X120285714Y-83884819D02*
X120666666Y-83884819D01*
X120666666Y-83884819D02*
X120761904Y-83932438D01*
X120761904Y-83932438D02*
X120809523Y-83980057D01*
X120809523Y-83980057D02*
X120857142Y-84075295D01*
X120857142Y-84075295D02*
X120857142Y-84218152D01*
X120857142Y-84218152D02*
X120809523Y-84313390D01*
X120809523Y-84313390D02*
X120761904Y-84361009D01*
X120761904Y-84361009D02*
X120666666Y-84408628D01*
X120666666Y-84408628D02*
X120285714Y-84408628D01*
X121809523Y-84884819D02*
X121238095Y-84884819D01*
X121523809Y-84884819D02*
X121523809Y-83884819D01*
X121523809Y-83884819D02*
X121428571Y-84027676D01*
X121428571Y-84027676D02*
X121333333Y-84122914D01*
X121333333Y-84122914D02*
X121238095Y-84170533D01*
X122761904Y-84884819D02*
X122190476Y-84884819D01*
X122476190Y-84884819D02*
X122476190Y-83884819D01*
X122476190Y-83884819D02*
X122380952Y-84027676D01*
X122380952Y-84027676D02*
X122285714Y-84122914D01*
X122285714Y-84122914D02*
X122190476Y-84170533D01*
X92761904Y-41054438D02*
X92666666Y-41006819D01*
X92666666Y-41006819D02*
X92523809Y-41006819D01*
X92523809Y-41006819D02*
X92380952Y-41054438D01*
X92380952Y-41054438D02*
X92285714Y-41149676D01*
X92285714Y-41149676D02*
X92238095Y-41244914D01*
X92238095Y-41244914D02*
X92190476Y-41435390D01*
X92190476Y-41435390D02*
X92190476Y-41578247D01*
X92190476Y-41578247D02*
X92238095Y-41768723D01*
X92238095Y-41768723D02*
X92285714Y-41863961D01*
X92285714Y-41863961D02*
X92380952Y-41959200D01*
X92380952Y-41959200D02*
X92523809Y-42006819D01*
X92523809Y-42006819D02*
X92619047Y-42006819D01*
X92619047Y-42006819D02*
X92761904Y-41959200D01*
X92761904Y-41959200D02*
X92809523Y-41911580D01*
X92809523Y-41911580D02*
X92809523Y-41578247D01*
X92809523Y-41578247D02*
X92619047Y-41578247D01*
X93238095Y-42006819D02*
X93238095Y-41006819D01*
X93238095Y-41006819D02*
X93809523Y-42006819D01*
X93809523Y-42006819D02*
X93809523Y-41006819D01*
X94285714Y-42006819D02*
X94285714Y-41006819D01*
X94285714Y-41006819D02*
X94523809Y-41006819D01*
X94523809Y-41006819D02*
X94666666Y-41054438D01*
X94666666Y-41054438D02*
X94761904Y-41149676D01*
X94761904Y-41149676D02*
X94809523Y-41244914D01*
X94809523Y-41244914D02*
X94857142Y-41435390D01*
X94857142Y-41435390D02*
X94857142Y-41578247D01*
X94857142Y-41578247D02*
X94809523Y-41768723D01*
X94809523Y-41768723D02*
X94761904Y-41863961D01*
X94761904Y-41863961D02*
X94666666Y-41959200D01*
X94666666Y-41959200D02*
X94523809Y-42006819D01*
X94523809Y-42006819D02*
X94285714Y-42006819D01*
X95190476Y-41006819D02*
X95857142Y-41006819D01*
X95857142Y-41006819D02*
X95428571Y-42006819D01*
X136285714Y-97006819D02*
X136285714Y-96006819D01*
X136285714Y-96006819D02*
X136619047Y-96721104D01*
X136619047Y-96721104D02*
X136952380Y-96006819D01*
X136952380Y-96006819D02*
X136952380Y-97006819D01*
X137619047Y-96006819D02*
X137809523Y-96006819D01*
X137809523Y-96006819D02*
X137904761Y-96054438D01*
X137904761Y-96054438D02*
X137999999Y-96149676D01*
X137999999Y-96149676D02*
X138047618Y-96340152D01*
X138047618Y-96340152D02*
X138047618Y-96673485D01*
X138047618Y-96673485D02*
X137999999Y-96863961D01*
X137999999Y-96863961D02*
X137904761Y-96959200D01*
X137904761Y-96959200D02*
X137809523Y-97006819D01*
X137809523Y-97006819D02*
X137619047Y-97006819D01*
X137619047Y-97006819D02*
X137523809Y-96959200D01*
X137523809Y-96959200D02*
X137428571Y-96863961D01*
X137428571Y-96863961D02*
X137380952Y-96673485D01*
X137380952Y-96673485D02*
X137380952Y-96340152D01*
X137380952Y-96340152D02*
X137428571Y-96149676D01*
X137428571Y-96149676D02*
X137523809Y-96054438D01*
X137523809Y-96054438D02*
X137619047Y-96006819D01*
X138333333Y-96006819D02*
X138904761Y-96006819D01*
X138619047Y-97006819D02*
X138619047Y-96006819D01*
X139761904Y-97006819D02*
X139190476Y-97006819D01*
X139476190Y-97006819D02*
X139476190Y-96006819D01*
X139476190Y-96006819D02*
X139380952Y-96149676D01*
X139380952Y-96149676D02*
X139285714Y-96244914D01*
X139285714Y-96244914D02*
X139190476Y-96292533D01*
X163833333Y-46024819D02*
X163500000Y-45548628D01*
X163261905Y-46024819D02*
X163261905Y-45024819D01*
X163261905Y-45024819D02*
X163642857Y-45024819D01*
X163642857Y-45024819D02*
X163738095Y-45072438D01*
X163738095Y-45072438D02*
X163785714Y-45120057D01*
X163785714Y-45120057D02*
X163833333Y-45215295D01*
X163833333Y-45215295D02*
X163833333Y-45358152D01*
X163833333Y-45358152D02*
X163785714Y-45453390D01*
X163785714Y-45453390D02*
X163738095Y-45501009D01*
X163738095Y-45501009D02*
X163642857Y-45548628D01*
X163642857Y-45548628D02*
X163261905Y-45548628D01*
X164785714Y-46024819D02*
X164214286Y-46024819D01*
X164500000Y-46024819D02*
X164500000Y-45024819D01*
X164500000Y-45024819D02*
X164404762Y-45167676D01*
X164404762Y-45167676D02*
X164309524Y-45262914D01*
X164309524Y-45262914D02*
X164214286Y-45310533D01*
X65785714Y-54154819D02*
X65785714Y-54869104D01*
X65785714Y-54869104D02*
X65738095Y-55011961D01*
X65738095Y-55011961D02*
X65642857Y-55107200D01*
X65642857Y-55107200D02*
X65500000Y-55154819D01*
X65500000Y-55154819D02*
X65404762Y-55154819D01*
X66690476Y-54488152D02*
X66690476Y-55154819D01*
X66452381Y-54107200D02*
X66214286Y-54821485D01*
X66214286Y-54821485D02*
X66833333Y-54821485D01*
X66976191Y-55250057D02*
X67738095Y-55250057D01*
X67976191Y-55154819D02*
X67976191Y-54154819D01*
X67976191Y-54154819D02*
X68309524Y-54869104D01*
X68309524Y-54869104D02*
X68642857Y-54154819D01*
X68642857Y-54154819D02*
X68642857Y-55154819D01*
X69547619Y-54488152D02*
X69547619Y-55154819D01*
X69309524Y-54107200D02*
X69071429Y-54821485D01*
X69071429Y-54821485D02*
X69690476Y-54821485D01*
X69833334Y-55250057D02*
X70595238Y-55250057D01*
X71166667Y-54631009D02*
X71309524Y-54678628D01*
X71309524Y-54678628D02*
X71357143Y-54726247D01*
X71357143Y-54726247D02*
X71404762Y-54821485D01*
X71404762Y-54821485D02*
X71404762Y-54964342D01*
X71404762Y-54964342D02*
X71357143Y-55059580D01*
X71357143Y-55059580D02*
X71309524Y-55107200D01*
X71309524Y-55107200D02*
X71214286Y-55154819D01*
X71214286Y-55154819D02*
X70833334Y-55154819D01*
X70833334Y-55154819D02*
X70833334Y-54154819D01*
X70833334Y-54154819D02*
X71166667Y-54154819D01*
X71166667Y-54154819D02*
X71261905Y-54202438D01*
X71261905Y-54202438D02*
X71309524Y-54250057D01*
X71309524Y-54250057D02*
X71357143Y-54345295D01*
X71357143Y-54345295D02*
X71357143Y-54440533D01*
X71357143Y-54440533D02*
X71309524Y-54535771D01*
X71309524Y-54535771D02*
X71261905Y-54583390D01*
X71261905Y-54583390D02*
X71166667Y-54631009D01*
X71166667Y-54631009D02*
X70833334Y-54631009D01*
X71833334Y-54631009D02*
X72166667Y-54631009D01*
X72309524Y-55154819D02*
X71833334Y-55154819D01*
X71833334Y-55154819D02*
X71833334Y-54154819D01*
X71833334Y-54154819D02*
X72309524Y-54154819D01*
X73309524Y-55059580D02*
X73261905Y-55107200D01*
X73261905Y-55107200D02*
X73119048Y-55154819D01*
X73119048Y-55154819D02*
X73023810Y-55154819D01*
X73023810Y-55154819D02*
X72880953Y-55107200D01*
X72880953Y-55107200D02*
X72785715Y-55011961D01*
X72785715Y-55011961D02*
X72738096Y-54916723D01*
X72738096Y-54916723D02*
X72690477Y-54726247D01*
X72690477Y-54726247D02*
X72690477Y-54583390D01*
X72690477Y-54583390D02*
X72738096Y-54392914D01*
X72738096Y-54392914D02*
X72785715Y-54297676D01*
X72785715Y-54297676D02*
X72880953Y-54202438D01*
X72880953Y-54202438D02*
X73023810Y-54154819D01*
X73023810Y-54154819D02*
X73119048Y-54154819D01*
X73119048Y-54154819D02*
X73261905Y-54202438D01*
X73261905Y-54202438D02*
X73309524Y-54250057D01*
X73500001Y-55250057D02*
X74261905Y-55250057D01*
X74500001Y-55154819D02*
X74500001Y-54154819D01*
X74976191Y-55154819D02*
X74976191Y-54154819D01*
X74976191Y-54154819D02*
X75547619Y-55154819D01*
X75547619Y-55154819D02*
X75547619Y-54154819D01*
X76547619Y-55154819D02*
X75976191Y-55154819D01*
X76261905Y-55154819D02*
X76261905Y-54154819D01*
X76261905Y-54154819D02*
X76166667Y-54297676D01*
X76166667Y-54297676D02*
X76071429Y-54392914D01*
X76071429Y-54392914D02*
X75976191Y-54440533D01*
X148853333Y-75506819D02*
X148520000Y-75030628D01*
X148281905Y-75506819D02*
X148281905Y-74506819D01*
X148281905Y-74506819D02*
X148662857Y-74506819D01*
X148662857Y-74506819D02*
X148758095Y-74554438D01*
X148758095Y-74554438D02*
X148805714Y-74602057D01*
X148805714Y-74602057D02*
X148853333Y-74697295D01*
X148853333Y-74697295D02*
X148853333Y-74840152D01*
X148853333Y-74840152D02*
X148805714Y-74935390D01*
X148805714Y-74935390D02*
X148758095Y-74983009D01*
X148758095Y-74983009D02*
X148662857Y-75030628D01*
X148662857Y-75030628D02*
X148281905Y-75030628D01*
X149186667Y-74506819D02*
X149853333Y-74506819D01*
X149853333Y-74506819D02*
X149424762Y-75506819D01*
X172761904Y-102302438D02*
X172666666Y-102254819D01*
X172666666Y-102254819D02*
X172523809Y-102254819D01*
X172523809Y-102254819D02*
X172380952Y-102302438D01*
X172380952Y-102302438D02*
X172285714Y-102397676D01*
X172285714Y-102397676D02*
X172238095Y-102492914D01*
X172238095Y-102492914D02*
X172190476Y-102683390D01*
X172190476Y-102683390D02*
X172190476Y-102826247D01*
X172190476Y-102826247D02*
X172238095Y-103016723D01*
X172238095Y-103016723D02*
X172285714Y-103111961D01*
X172285714Y-103111961D02*
X172380952Y-103207200D01*
X172380952Y-103207200D02*
X172523809Y-103254819D01*
X172523809Y-103254819D02*
X172619047Y-103254819D01*
X172619047Y-103254819D02*
X172761904Y-103207200D01*
X172761904Y-103207200D02*
X172809523Y-103159580D01*
X172809523Y-103159580D02*
X172809523Y-102826247D01*
X172809523Y-102826247D02*
X172619047Y-102826247D01*
X173238095Y-103254819D02*
X173238095Y-102254819D01*
X173238095Y-102254819D02*
X173809523Y-103254819D01*
X173809523Y-103254819D02*
X173809523Y-102254819D01*
X174285714Y-103254819D02*
X174285714Y-102254819D01*
X174285714Y-102254819D02*
X174523809Y-102254819D01*
X174523809Y-102254819D02*
X174666666Y-102302438D01*
X174666666Y-102302438D02*
X174761904Y-102397676D01*
X174761904Y-102397676D02*
X174809523Y-102492914D01*
X174809523Y-102492914D02*
X174857142Y-102683390D01*
X174857142Y-102683390D02*
X174857142Y-102826247D01*
X174857142Y-102826247D02*
X174809523Y-103016723D01*
X174809523Y-103016723D02*
X174761904Y-103111961D01*
X174761904Y-103111961D02*
X174666666Y-103207200D01*
X174666666Y-103207200D02*
X174523809Y-103254819D01*
X174523809Y-103254819D02*
X174285714Y-103254819D01*
X175238095Y-102350057D02*
X175285714Y-102302438D01*
X175285714Y-102302438D02*
X175380952Y-102254819D01*
X175380952Y-102254819D02*
X175619047Y-102254819D01*
X175619047Y-102254819D02*
X175714285Y-102302438D01*
X175714285Y-102302438D02*
X175761904Y-102350057D01*
X175761904Y-102350057D02*
X175809523Y-102445295D01*
X175809523Y-102445295D02*
X175809523Y-102540533D01*
X175809523Y-102540533D02*
X175761904Y-102683390D01*
X175761904Y-102683390D02*
X175190476Y-103254819D01*
X175190476Y-103254819D02*
X175809523Y-103254819D01*
X89166666Y-60124819D02*
X89166666Y-60839104D01*
X89166666Y-60839104D02*
X89119047Y-60981961D01*
X89119047Y-60981961D02*
X89023809Y-61077200D01*
X89023809Y-61077200D02*
X88880952Y-61124819D01*
X88880952Y-61124819D02*
X88785714Y-61124819D01*
X89785714Y-60553390D02*
X89690476Y-60505771D01*
X89690476Y-60505771D02*
X89642857Y-60458152D01*
X89642857Y-60458152D02*
X89595238Y-60362914D01*
X89595238Y-60362914D02*
X89595238Y-60315295D01*
X89595238Y-60315295D02*
X89642857Y-60220057D01*
X89642857Y-60220057D02*
X89690476Y-60172438D01*
X89690476Y-60172438D02*
X89785714Y-60124819D01*
X89785714Y-60124819D02*
X89976190Y-60124819D01*
X89976190Y-60124819D02*
X90071428Y-60172438D01*
X90071428Y-60172438D02*
X90119047Y-60220057D01*
X90119047Y-60220057D02*
X90166666Y-60315295D01*
X90166666Y-60315295D02*
X90166666Y-60362914D01*
X90166666Y-60362914D02*
X90119047Y-60458152D01*
X90119047Y-60458152D02*
X90071428Y-60505771D01*
X90071428Y-60505771D02*
X89976190Y-60553390D01*
X89976190Y-60553390D02*
X89785714Y-60553390D01*
X89785714Y-60553390D02*
X89690476Y-60601009D01*
X89690476Y-60601009D02*
X89642857Y-60648628D01*
X89642857Y-60648628D02*
X89595238Y-60743866D01*
X89595238Y-60743866D02*
X89595238Y-60934342D01*
X89595238Y-60934342D02*
X89642857Y-61029580D01*
X89642857Y-61029580D02*
X89690476Y-61077200D01*
X89690476Y-61077200D02*
X89785714Y-61124819D01*
X89785714Y-61124819D02*
X89976190Y-61124819D01*
X89976190Y-61124819D02*
X90071428Y-61077200D01*
X90071428Y-61077200D02*
X90119047Y-61029580D01*
X90119047Y-61029580D02*
X90166666Y-60934342D01*
X90166666Y-60934342D02*
X90166666Y-60743866D01*
X90166666Y-60743866D02*
X90119047Y-60648628D01*
X90119047Y-60648628D02*
X90071428Y-60601009D01*
X90071428Y-60601009D02*
X89976190Y-60553390D01*
X101740476Y-80406819D02*
X102073809Y-81406819D01*
X102073809Y-81406819D02*
X102407142Y-80406819D01*
X102740476Y-81406819D02*
X102740476Y-80406819D01*
X102740476Y-80406819D02*
X102978571Y-80406819D01*
X102978571Y-80406819D02*
X103121428Y-80454438D01*
X103121428Y-80454438D02*
X103216666Y-80549676D01*
X103216666Y-80549676D02*
X103264285Y-80644914D01*
X103264285Y-80644914D02*
X103311904Y-80835390D01*
X103311904Y-80835390D02*
X103311904Y-80978247D01*
X103311904Y-80978247D02*
X103264285Y-81168723D01*
X103264285Y-81168723D02*
X103216666Y-81263961D01*
X103216666Y-81263961D02*
X103121428Y-81359200D01*
X103121428Y-81359200D02*
X102978571Y-81406819D01*
X102978571Y-81406819D02*
X102740476Y-81406819D01*
X103740476Y-81406819D02*
X103740476Y-80406819D01*
X103740476Y-80406819D02*
X103978571Y-80406819D01*
X103978571Y-80406819D02*
X104121428Y-80454438D01*
X104121428Y-80454438D02*
X104216666Y-80549676D01*
X104216666Y-80549676D02*
X104264285Y-80644914D01*
X104264285Y-80644914D02*
X104311904Y-80835390D01*
X104311904Y-80835390D02*
X104311904Y-80978247D01*
X104311904Y-80978247D02*
X104264285Y-81168723D01*
X104264285Y-81168723D02*
X104216666Y-81263961D01*
X104216666Y-81263961D02*
X104121428Y-81359200D01*
X104121428Y-81359200D02*
X103978571Y-81406819D01*
X103978571Y-81406819D02*
X103740476Y-81406819D01*
X105264285Y-81406819D02*
X104692857Y-81406819D01*
X104978571Y-81406819D02*
X104978571Y-80406819D01*
X104978571Y-80406819D02*
X104883333Y-80549676D01*
X104883333Y-80549676D02*
X104788095Y-80644914D01*
X104788095Y-80644914D02*
X104692857Y-80692533D01*
X163474405Y-43024819D02*
X163474405Y-42024819D01*
X163474405Y-42024819D02*
X163712500Y-42024819D01*
X163712500Y-42024819D02*
X163855357Y-42072438D01*
X163855357Y-42072438D02*
X163950595Y-42167676D01*
X163950595Y-42167676D02*
X163998214Y-42262914D01*
X163998214Y-42262914D02*
X164045833Y-42453390D01*
X164045833Y-42453390D02*
X164045833Y-42596247D01*
X164045833Y-42596247D02*
X163998214Y-42786723D01*
X163998214Y-42786723D02*
X163950595Y-42881961D01*
X163950595Y-42881961D02*
X163855357Y-42977200D01*
X163855357Y-42977200D02*
X163712500Y-43024819D01*
X163712500Y-43024819D02*
X163474405Y-43024819D01*
X164902976Y-42358152D02*
X164902976Y-43024819D01*
X164664881Y-41977200D02*
X164426786Y-42691485D01*
X164426786Y-42691485D02*
X165045833Y-42691485D01*
X65761904Y-102302438D02*
X65666666Y-102254819D01*
X65666666Y-102254819D02*
X65523809Y-102254819D01*
X65523809Y-102254819D02*
X65380952Y-102302438D01*
X65380952Y-102302438D02*
X65285714Y-102397676D01*
X65285714Y-102397676D02*
X65238095Y-102492914D01*
X65238095Y-102492914D02*
X65190476Y-102683390D01*
X65190476Y-102683390D02*
X65190476Y-102826247D01*
X65190476Y-102826247D02*
X65238095Y-103016723D01*
X65238095Y-103016723D02*
X65285714Y-103111961D01*
X65285714Y-103111961D02*
X65380952Y-103207200D01*
X65380952Y-103207200D02*
X65523809Y-103254819D01*
X65523809Y-103254819D02*
X65619047Y-103254819D01*
X65619047Y-103254819D02*
X65761904Y-103207200D01*
X65761904Y-103207200D02*
X65809523Y-103159580D01*
X65809523Y-103159580D02*
X65809523Y-102826247D01*
X65809523Y-102826247D02*
X65619047Y-102826247D01*
X66238095Y-103254819D02*
X66238095Y-102254819D01*
X66238095Y-102254819D02*
X66809523Y-103254819D01*
X66809523Y-103254819D02*
X66809523Y-102254819D01*
X67285714Y-103254819D02*
X67285714Y-102254819D01*
X67285714Y-102254819D02*
X67523809Y-102254819D01*
X67523809Y-102254819D02*
X67666666Y-102302438D01*
X67666666Y-102302438D02*
X67761904Y-102397676D01*
X67761904Y-102397676D02*
X67809523Y-102492914D01*
X67809523Y-102492914D02*
X67857142Y-102683390D01*
X67857142Y-102683390D02*
X67857142Y-102826247D01*
X67857142Y-102826247D02*
X67809523Y-103016723D01*
X67809523Y-103016723D02*
X67761904Y-103111961D01*
X67761904Y-103111961D02*
X67666666Y-103207200D01*
X67666666Y-103207200D02*
X67523809Y-103254819D01*
X67523809Y-103254819D02*
X67285714Y-103254819D01*
X68809523Y-103254819D02*
X68238095Y-103254819D01*
X68523809Y-103254819D02*
X68523809Y-102254819D01*
X68523809Y-102254819D02*
X68428571Y-102397676D01*
X68428571Y-102397676D02*
X68333333Y-102492914D01*
X68333333Y-102492914D02*
X68238095Y-102540533D01*
X133916666Y-86904819D02*
X133916666Y-87619104D01*
X133916666Y-87619104D02*
X133869047Y-87761961D01*
X133869047Y-87761961D02*
X133773809Y-87857200D01*
X133773809Y-87857200D02*
X133630952Y-87904819D01*
X133630952Y-87904819D02*
X133535714Y-87904819D01*
X134869047Y-86904819D02*
X134392857Y-86904819D01*
X134392857Y-86904819D02*
X134345238Y-87381009D01*
X134345238Y-87381009D02*
X134392857Y-87333390D01*
X134392857Y-87333390D02*
X134488095Y-87285771D01*
X134488095Y-87285771D02*
X134726190Y-87285771D01*
X134726190Y-87285771D02*
X134821428Y-87333390D01*
X134821428Y-87333390D02*
X134869047Y-87381009D01*
X134869047Y-87381009D02*
X134916666Y-87476247D01*
X134916666Y-87476247D02*
X134916666Y-87714342D01*
X134916666Y-87714342D02*
X134869047Y-87809580D01*
X134869047Y-87809580D02*
X134821428Y-87857200D01*
X134821428Y-87857200D02*
X134726190Y-87904819D01*
X134726190Y-87904819D02*
X134488095Y-87904819D01*
X134488095Y-87904819D02*
X134392857Y-87857200D01*
X134392857Y-87857200D02*
X134345238Y-87809580D01*
X164190476Y-68099819D02*
X164190476Y-68814104D01*
X164190476Y-68814104D02*
X164142857Y-68956961D01*
X164142857Y-68956961D02*
X164047619Y-69052200D01*
X164047619Y-69052200D02*
X163904762Y-69099819D01*
X163904762Y-69099819D02*
X163809524Y-69099819D01*
X165190476Y-69099819D02*
X164619048Y-69099819D01*
X164904762Y-69099819D02*
X164904762Y-68099819D01*
X164904762Y-68099819D02*
X164809524Y-68242676D01*
X164809524Y-68242676D02*
X164714286Y-68337914D01*
X164714286Y-68337914D02*
X164619048Y-68385533D01*
X165571429Y-68195057D02*
X165619048Y-68147438D01*
X165619048Y-68147438D02*
X165714286Y-68099819D01*
X165714286Y-68099819D02*
X165952381Y-68099819D01*
X165952381Y-68099819D02*
X166047619Y-68147438D01*
X166047619Y-68147438D02*
X166095238Y-68195057D01*
X166095238Y-68195057D02*
X166142857Y-68290295D01*
X166142857Y-68290295D02*
X166142857Y-68385533D01*
X166142857Y-68385533D02*
X166095238Y-68528390D01*
X166095238Y-68528390D02*
X165523810Y-69099819D01*
X165523810Y-69099819D02*
X166142857Y-69099819D01*
X97583333Y-41006819D02*
X97107143Y-41006819D01*
X97107143Y-41006819D02*
X97059524Y-41483009D01*
X97059524Y-41483009D02*
X97107143Y-41435390D01*
X97107143Y-41435390D02*
X97202381Y-41387771D01*
X97202381Y-41387771D02*
X97440476Y-41387771D01*
X97440476Y-41387771D02*
X97535714Y-41435390D01*
X97535714Y-41435390D02*
X97583333Y-41483009D01*
X97583333Y-41483009D02*
X97630952Y-41578247D01*
X97630952Y-41578247D02*
X97630952Y-41816342D01*
X97630952Y-41816342D02*
X97583333Y-41911580D01*
X97583333Y-41911580D02*
X97535714Y-41959200D01*
X97535714Y-41959200D02*
X97440476Y-42006819D01*
X97440476Y-42006819D02*
X97202381Y-42006819D01*
X97202381Y-42006819D02*
X97107143Y-41959200D01*
X97107143Y-41959200D02*
X97059524Y-41911580D01*
X97916667Y-41006819D02*
X98250000Y-42006819D01*
X98250000Y-42006819D02*
X98583333Y-41006819D01*
X99440476Y-42006819D02*
X98869048Y-42006819D01*
X99154762Y-42006819D02*
X99154762Y-41006819D01*
X99154762Y-41006819D02*
X99059524Y-41149676D01*
X99059524Y-41149676D02*
X98964286Y-41244914D01*
X98964286Y-41244914D02*
X98869048Y-41292533D01*
X163833333Y-94024819D02*
X163500000Y-93548628D01*
X163261905Y-94024819D02*
X163261905Y-93024819D01*
X163261905Y-93024819D02*
X163642857Y-93024819D01*
X163642857Y-93024819D02*
X163738095Y-93072438D01*
X163738095Y-93072438D02*
X163785714Y-93120057D01*
X163785714Y-93120057D02*
X163833333Y-93215295D01*
X163833333Y-93215295D02*
X163833333Y-93358152D01*
X163833333Y-93358152D02*
X163785714Y-93453390D01*
X163785714Y-93453390D02*
X163738095Y-93501009D01*
X163738095Y-93501009D02*
X163642857Y-93548628D01*
X163642857Y-93548628D02*
X163261905Y-93548628D01*
X164214286Y-93120057D02*
X164261905Y-93072438D01*
X164261905Y-93072438D02*
X164357143Y-93024819D01*
X164357143Y-93024819D02*
X164595238Y-93024819D01*
X164595238Y-93024819D02*
X164690476Y-93072438D01*
X164690476Y-93072438D02*
X164738095Y-93120057D01*
X164738095Y-93120057D02*
X164785714Y-93215295D01*
X164785714Y-93215295D02*
X164785714Y-93310533D01*
X164785714Y-93310533D02*
X164738095Y-93453390D01*
X164738095Y-93453390D02*
X164166667Y-94024819D01*
X164166667Y-94024819D02*
X164785714Y-94024819D01*
X70964819Y-37333333D02*
X71679104Y-37333333D01*
X71679104Y-37333333D02*
X71821961Y-37380952D01*
X71821961Y-37380952D02*
X71917200Y-37476190D01*
X71917200Y-37476190D02*
X71964819Y-37619047D01*
X71964819Y-37619047D02*
X71964819Y-37714285D01*
X70964819Y-36428571D02*
X70964819Y-36619047D01*
X70964819Y-36619047D02*
X71012438Y-36714285D01*
X71012438Y-36714285D02*
X71060057Y-36761904D01*
X71060057Y-36761904D02*
X71202914Y-36857142D01*
X71202914Y-36857142D02*
X71393390Y-36904761D01*
X71393390Y-36904761D02*
X71774342Y-36904761D01*
X71774342Y-36904761D02*
X71869580Y-36857142D01*
X71869580Y-36857142D02*
X71917200Y-36809523D01*
X71917200Y-36809523D02*
X71964819Y-36714285D01*
X71964819Y-36714285D02*
X71964819Y-36523809D01*
X71964819Y-36523809D02*
X71917200Y-36428571D01*
X71917200Y-36428571D02*
X71869580Y-36380952D01*
X71869580Y-36380952D02*
X71774342Y-36333333D01*
X71774342Y-36333333D02*
X71536247Y-36333333D01*
X71536247Y-36333333D02*
X71441009Y-36380952D01*
X71441009Y-36380952D02*
X71393390Y-36428571D01*
X71393390Y-36428571D02*
X71345771Y-36523809D01*
X71345771Y-36523809D02*
X71345771Y-36714285D01*
X71345771Y-36714285D02*
X71393390Y-36809523D01*
X71393390Y-36809523D02*
X71441009Y-36857142D01*
X71441009Y-36857142D02*
X71536247Y-36904761D01*
X159940476Y-77824819D02*
X159940476Y-78539104D01*
X159940476Y-78539104D02*
X159892857Y-78681961D01*
X159892857Y-78681961D02*
X159797619Y-78777200D01*
X159797619Y-78777200D02*
X159654762Y-78824819D01*
X159654762Y-78824819D02*
X159559524Y-78824819D01*
X160940476Y-78824819D02*
X160369048Y-78824819D01*
X160654762Y-78824819D02*
X160654762Y-77824819D01*
X160654762Y-77824819D02*
X160559524Y-77967676D01*
X160559524Y-77967676D02*
X160464286Y-78062914D01*
X160464286Y-78062914D02*
X160369048Y-78110533D01*
X161797619Y-77824819D02*
X161607143Y-77824819D01*
X161607143Y-77824819D02*
X161511905Y-77872438D01*
X161511905Y-77872438D02*
X161464286Y-77920057D01*
X161464286Y-77920057D02*
X161369048Y-78062914D01*
X161369048Y-78062914D02*
X161321429Y-78253390D01*
X161321429Y-78253390D02*
X161321429Y-78634342D01*
X161321429Y-78634342D02*
X161369048Y-78729580D01*
X161369048Y-78729580D02*
X161416667Y-78777200D01*
X161416667Y-78777200D02*
X161511905Y-78824819D01*
X161511905Y-78824819D02*
X161702381Y-78824819D01*
X161702381Y-78824819D02*
X161797619Y-78777200D01*
X161797619Y-78777200D02*
X161845238Y-78729580D01*
X161845238Y-78729580D02*
X161892857Y-78634342D01*
X161892857Y-78634342D02*
X161892857Y-78396247D01*
X161892857Y-78396247D02*
X161845238Y-78301009D01*
X161845238Y-78301009D02*
X161797619Y-78253390D01*
X161797619Y-78253390D02*
X161702381Y-78205771D01*
X161702381Y-78205771D02*
X161511905Y-78205771D01*
X161511905Y-78205771D02*
X161416667Y-78253390D01*
X161416667Y-78253390D02*
X161369048Y-78301009D01*
X161369048Y-78301009D02*
X161321429Y-78396247D01*
X179154819Y-78695238D02*
X179869104Y-78695238D01*
X179869104Y-78695238D02*
X180011961Y-78742857D01*
X180011961Y-78742857D02*
X180107200Y-78838095D01*
X180107200Y-78838095D02*
X180154819Y-78980952D01*
X180154819Y-78980952D02*
X180154819Y-79076190D01*
X179488152Y-77790476D02*
X180154819Y-77790476D01*
X179107200Y-78028571D02*
X179821485Y-78266666D01*
X179821485Y-78266666D02*
X179821485Y-77647619D01*
X180250057Y-77504762D02*
X180250057Y-76742857D01*
X180154819Y-76504761D02*
X179154819Y-76504761D01*
X179154819Y-76504761D02*
X179869104Y-76171428D01*
X179869104Y-76171428D02*
X179154819Y-75838095D01*
X179154819Y-75838095D02*
X180154819Y-75838095D01*
X179250057Y-75409523D02*
X179202438Y-75361904D01*
X179202438Y-75361904D02*
X179154819Y-75266666D01*
X179154819Y-75266666D02*
X179154819Y-75028571D01*
X179154819Y-75028571D02*
X179202438Y-74933333D01*
X179202438Y-74933333D02*
X179250057Y-74885714D01*
X179250057Y-74885714D02*
X179345295Y-74838095D01*
X179345295Y-74838095D02*
X179440533Y-74838095D01*
X179440533Y-74838095D02*
X179583390Y-74885714D01*
X179583390Y-74885714D02*
X180154819Y-75457142D01*
X180154819Y-75457142D02*
X180154819Y-74838095D01*
X180250057Y-74647619D02*
X180250057Y-73885714D01*
X180154819Y-73647618D02*
X179154819Y-73647618D01*
X179154819Y-73647618D02*
X179869104Y-73314285D01*
X179869104Y-73314285D02*
X179154819Y-72980952D01*
X179154819Y-72980952D02*
X180154819Y-72980952D01*
X179154819Y-72314285D02*
X179154819Y-72123809D01*
X179154819Y-72123809D02*
X179202438Y-72028571D01*
X179202438Y-72028571D02*
X179297676Y-71933333D01*
X179297676Y-71933333D02*
X179488152Y-71885714D01*
X179488152Y-71885714D02*
X179821485Y-71885714D01*
X179821485Y-71885714D02*
X180011961Y-71933333D01*
X180011961Y-71933333D02*
X180107200Y-72028571D01*
X180107200Y-72028571D02*
X180154819Y-72123809D01*
X180154819Y-72123809D02*
X180154819Y-72314285D01*
X180154819Y-72314285D02*
X180107200Y-72409523D01*
X180107200Y-72409523D02*
X180011961Y-72504761D01*
X180011961Y-72504761D02*
X179821485Y-72552380D01*
X179821485Y-72552380D02*
X179488152Y-72552380D01*
X179488152Y-72552380D02*
X179297676Y-72504761D01*
X179297676Y-72504761D02*
X179202438Y-72409523D01*
X179202438Y-72409523D02*
X179154819Y-72314285D01*
X179154819Y-71599999D02*
X179154819Y-71028571D01*
X180154819Y-71314285D02*
X179154819Y-71314285D01*
X179250057Y-70742856D02*
X179202438Y-70695237D01*
X179202438Y-70695237D02*
X179154819Y-70599999D01*
X179154819Y-70599999D02*
X179154819Y-70361904D01*
X179154819Y-70361904D02*
X179202438Y-70266666D01*
X179202438Y-70266666D02*
X179250057Y-70219047D01*
X179250057Y-70219047D02*
X179345295Y-70171428D01*
X179345295Y-70171428D02*
X179440533Y-70171428D01*
X179440533Y-70171428D02*
X179583390Y-70219047D01*
X179583390Y-70219047D02*
X180154819Y-70790475D01*
X180154819Y-70790475D02*
X180154819Y-70171428D01*
X153805714Y-74554438D02*
X153710476Y-74506819D01*
X153710476Y-74506819D02*
X153567619Y-74506819D01*
X153567619Y-74506819D02*
X153424762Y-74554438D01*
X153424762Y-74554438D02*
X153329524Y-74649676D01*
X153329524Y-74649676D02*
X153281905Y-74744914D01*
X153281905Y-74744914D02*
X153234286Y-74935390D01*
X153234286Y-74935390D02*
X153234286Y-75078247D01*
X153234286Y-75078247D02*
X153281905Y-75268723D01*
X153281905Y-75268723D02*
X153329524Y-75363961D01*
X153329524Y-75363961D02*
X153424762Y-75459200D01*
X153424762Y-75459200D02*
X153567619Y-75506819D01*
X153567619Y-75506819D02*
X153662857Y-75506819D01*
X153662857Y-75506819D02*
X153805714Y-75459200D01*
X153805714Y-75459200D02*
X153853333Y-75411580D01*
X153853333Y-75411580D02*
X153853333Y-75078247D01*
X153853333Y-75078247D02*
X153662857Y-75078247D01*
X154805714Y-75506819D02*
X154234286Y-75506819D01*
X154520000Y-75506819D02*
X154520000Y-74506819D01*
X154520000Y-74506819D02*
X154424762Y-74649676D01*
X154424762Y-74649676D02*
X154329524Y-74744914D01*
X154329524Y-74744914D02*
X154234286Y-74792533D01*
X109357142Y-84024819D02*
X109023809Y-83548628D01*
X108785714Y-84024819D02*
X108785714Y-83024819D01*
X108785714Y-83024819D02*
X109166666Y-83024819D01*
X109166666Y-83024819D02*
X109261904Y-83072438D01*
X109261904Y-83072438D02*
X109309523Y-83120057D01*
X109309523Y-83120057D02*
X109357142Y-83215295D01*
X109357142Y-83215295D02*
X109357142Y-83358152D01*
X109357142Y-83358152D02*
X109309523Y-83453390D01*
X109309523Y-83453390D02*
X109261904Y-83501009D01*
X109261904Y-83501009D02*
X109166666Y-83548628D01*
X109166666Y-83548628D02*
X108785714Y-83548628D01*
X110309523Y-84024819D02*
X109738095Y-84024819D01*
X110023809Y-84024819D02*
X110023809Y-83024819D01*
X110023809Y-83024819D02*
X109928571Y-83167676D01*
X109928571Y-83167676D02*
X109833333Y-83262914D01*
X109833333Y-83262914D02*
X109738095Y-83310533D01*
X110928571Y-83024819D02*
X111023809Y-83024819D01*
X111023809Y-83024819D02*
X111119047Y-83072438D01*
X111119047Y-83072438D02*
X111166666Y-83120057D01*
X111166666Y-83120057D02*
X111214285Y-83215295D01*
X111214285Y-83215295D02*
X111261904Y-83405771D01*
X111261904Y-83405771D02*
X111261904Y-83643866D01*
X111261904Y-83643866D02*
X111214285Y-83834342D01*
X111214285Y-83834342D02*
X111166666Y-83929580D01*
X111166666Y-83929580D02*
X111119047Y-83977200D01*
X111119047Y-83977200D02*
X111023809Y-84024819D01*
X111023809Y-84024819D02*
X110928571Y-84024819D01*
X110928571Y-84024819D02*
X110833333Y-83977200D01*
X110833333Y-83977200D02*
X110785714Y-83929580D01*
X110785714Y-83929580D02*
X110738095Y-83834342D01*
X110738095Y-83834342D02*
X110690476Y-83643866D01*
X110690476Y-83643866D02*
X110690476Y-83405771D01*
X110690476Y-83405771D02*
X110738095Y-83215295D01*
X110738095Y-83215295D02*
X110785714Y-83120057D01*
X110785714Y-83120057D02*
X110833333Y-83072438D01*
X110833333Y-83072438D02*
X110928571Y-83024819D01*
X65761904Y-29302438D02*
X65666666Y-29254819D01*
X65666666Y-29254819D02*
X65523809Y-29254819D01*
X65523809Y-29254819D02*
X65380952Y-29302438D01*
X65380952Y-29302438D02*
X65285714Y-29397676D01*
X65285714Y-29397676D02*
X65238095Y-29492914D01*
X65238095Y-29492914D02*
X65190476Y-29683390D01*
X65190476Y-29683390D02*
X65190476Y-29826247D01*
X65190476Y-29826247D02*
X65238095Y-30016723D01*
X65238095Y-30016723D02*
X65285714Y-30111961D01*
X65285714Y-30111961D02*
X65380952Y-30207200D01*
X65380952Y-30207200D02*
X65523809Y-30254819D01*
X65523809Y-30254819D02*
X65619047Y-30254819D01*
X65619047Y-30254819D02*
X65761904Y-30207200D01*
X65761904Y-30207200D02*
X65809523Y-30159580D01*
X65809523Y-30159580D02*
X65809523Y-29826247D01*
X65809523Y-29826247D02*
X65619047Y-29826247D01*
X66238095Y-30254819D02*
X66238095Y-29254819D01*
X66238095Y-29254819D02*
X66809523Y-30254819D01*
X66809523Y-30254819D02*
X66809523Y-29254819D01*
X67285714Y-30254819D02*
X67285714Y-29254819D01*
X67285714Y-29254819D02*
X67523809Y-29254819D01*
X67523809Y-29254819D02*
X67666666Y-29302438D01*
X67666666Y-29302438D02*
X67761904Y-29397676D01*
X67761904Y-29397676D02*
X67809523Y-29492914D01*
X67809523Y-29492914D02*
X67857142Y-29683390D01*
X67857142Y-29683390D02*
X67857142Y-29826247D01*
X67857142Y-29826247D02*
X67809523Y-30016723D01*
X67809523Y-30016723D02*
X67761904Y-30111961D01*
X67761904Y-30111961D02*
X67666666Y-30207200D01*
X67666666Y-30207200D02*
X67523809Y-30254819D01*
X67523809Y-30254819D02*
X67285714Y-30254819D01*
X68190476Y-29254819D02*
X68809523Y-29254819D01*
X68809523Y-29254819D02*
X68476190Y-29635771D01*
X68476190Y-29635771D02*
X68619047Y-29635771D01*
X68619047Y-29635771D02*
X68714285Y-29683390D01*
X68714285Y-29683390D02*
X68761904Y-29731009D01*
X68761904Y-29731009D02*
X68809523Y-29826247D01*
X68809523Y-29826247D02*
X68809523Y-30064342D01*
X68809523Y-30064342D02*
X68761904Y-30159580D01*
X68761904Y-30159580D02*
X68714285Y-30207200D01*
X68714285Y-30207200D02*
X68619047Y-30254819D01*
X68619047Y-30254819D02*
X68333333Y-30254819D01*
X68333333Y-30254819D02*
X68238095Y-30207200D01*
X68238095Y-30207200D02*
X68190476Y-30159580D01*
X121285714Y-97006819D02*
X121285714Y-96006819D01*
X121285714Y-96006819D02*
X121619047Y-96721104D01*
X121619047Y-96721104D02*
X121952380Y-96006819D01*
X121952380Y-96006819D02*
X121952380Y-97006819D01*
X122619047Y-96006819D02*
X122809523Y-96006819D01*
X122809523Y-96006819D02*
X122904761Y-96054438D01*
X122904761Y-96054438D02*
X122999999Y-96149676D01*
X122999999Y-96149676D02*
X123047618Y-96340152D01*
X123047618Y-96340152D02*
X123047618Y-96673485D01*
X123047618Y-96673485D02*
X122999999Y-96863961D01*
X122999999Y-96863961D02*
X122904761Y-96959200D01*
X122904761Y-96959200D02*
X122809523Y-97006819D01*
X122809523Y-97006819D02*
X122619047Y-97006819D01*
X122619047Y-97006819D02*
X122523809Y-96959200D01*
X122523809Y-96959200D02*
X122428571Y-96863961D01*
X122428571Y-96863961D02*
X122380952Y-96673485D01*
X122380952Y-96673485D02*
X122380952Y-96340152D01*
X122380952Y-96340152D02*
X122428571Y-96149676D01*
X122428571Y-96149676D02*
X122523809Y-96054438D01*
X122523809Y-96054438D02*
X122619047Y-96006819D01*
X123333333Y-96006819D02*
X123904761Y-96006819D01*
X123619047Y-97006819D02*
X123619047Y-96006819D01*
X124142857Y-96006819D02*
X124761904Y-96006819D01*
X124761904Y-96006819D02*
X124428571Y-96387771D01*
X124428571Y-96387771D02*
X124571428Y-96387771D01*
X124571428Y-96387771D02*
X124666666Y-96435390D01*
X124666666Y-96435390D02*
X124714285Y-96483009D01*
X124714285Y-96483009D02*
X124761904Y-96578247D01*
X124761904Y-96578247D02*
X124761904Y-96816342D01*
X124761904Y-96816342D02*
X124714285Y-96911580D01*
X124714285Y-96911580D02*
X124666666Y-96959200D01*
X124666666Y-96959200D02*
X124571428Y-97006819D01*
X124571428Y-97006819D02*
X124285714Y-97006819D01*
X124285714Y-97006819D02*
X124190476Y-96959200D01*
X124190476Y-96959200D02*
X124142857Y-96911580D01*
X85261905Y-99884819D02*
X85261905Y-98884819D01*
X85261905Y-98884819D02*
X85500000Y-98884819D01*
X85500000Y-98884819D02*
X85642857Y-98932438D01*
X85642857Y-98932438D02*
X85738095Y-99027676D01*
X85738095Y-99027676D02*
X85785714Y-99122914D01*
X85785714Y-99122914D02*
X85833333Y-99313390D01*
X85833333Y-99313390D02*
X85833333Y-99456247D01*
X85833333Y-99456247D02*
X85785714Y-99646723D01*
X85785714Y-99646723D02*
X85738095Y-99741961D01*
X85738095Y-99741961D02*
X85642857Y-99837200D01*
X85642857Y-99837200D02*
X85500000Y-99884819D01*
X85500000Y-99884819D02*
X85261905Y-99884819D01*
X86690476Y-98884819D02*
X86500000Y-98884819D01*
X86500000Y-98884819D02*
X86404762Y-98932438D01*
X86404762Y-98932438D02*
X86357143Y-98980057D01*
X86357143Y-98980057D02*
X86261905Y-99122914D01*
X86261905Y-99122914D02*
X86214286Y-99313390D01*
X86214286Y-99313390D02*
X86214286Y-99694342D01*
X86214286Y-99694342D02*
X86261905Y-99789580D01*
X86261905Y-99789580D02*
X86309524Y-99837200D01*
X86309524Y-99837200D02*
X86404762Y-99884819D01*
X86404762Y-99884819D02*
X86595238Y-99884819D01*
X86595238Y-99884819D02*
X86690476Y-99837200D01*
X86690476Y-99837200D02*
X86738095Y-99789580D01*
X86738095Y-99789580D02*
X86785714Y-99694342D01*
X86785714Y-99694342D02*
X86785714Y-99456247D01*
X86785714Y-99456247D02*
X86738095Y-99361009D01*
X86738095Y-99361009D02*
X86690476Y-99313390D01*
X86690476Y-99313390D02*
X86595238Y-99265771D01*
X86595238Y-99265771D02*
X86404762Y-99265771D01*
X86404762Y-99265771D02*
X86309524Y-99313390D01*
X86309524Y-99313390D02*
X86261905Y-99361009D01*
X86261905Y-99361009D02*
X86214286Y-99456247D01*
X114838095Y-81054819D02*
X114838095Y-81864342D01*
X114838095Y-81864342D02*
X114885714Y-81959580D01*
X114885714Y-81959580D02*
X114933333Y-82007200D01*
X114933333Y-82007200D02*
X115028571Y-82054819D01*
X115028571Y-82054819D02*
X115219047Y-82054819D01*
X115219047Y-82054819D02*
X115314285Y-82007200D01*
X115314285Y-82007200D02*
X115361904Y-81959580D01*
X115361904Y-81959580D02*
X115409523Y-81864342D01*
X115409523Y-81864342D02*
X115409523Y-81054819D01*
X116409523Y-82054819D02*
X115838095Y-82054819D01*
X116123809Y-82054819D02*
X116123809Y-81054819D01*
X116123809Y-81054819D02*
X116028571Y-81197676D01*
X116028571Y-81197676D02*
X115933333Y-81292914D01*
X115933333Y-81292914D02*
X115838095Y-81340533D01*
X81104819Y-58138095D02*
X81819104Y-58138095D01*
X81819104Y-58138095D02*
X81961961Y-58185714D01*
X81961961Y-58185714D02*
X82057200Y-58280952D01*
X82057200Y-58280952D02*
X82104819Y-58423809D01*
X82104819Y-58423809D02*
X82104819Y-58519047D01*
X81104819Y-57757142D02*
X81104819Y-57138095D01*
X81104819Y-57138095D02*
X81485771Y-57471428D01*
X81485771Y-57471428D02*
X81485771Y-57328571D01*
X81485771Y-57328571D02*
X81533390Y-57233333D01*
X81533390Y-57233333D02*
X81581009Y-57185714D01*
X81581009Y-57185714D02*
X81676247Y-57138095D01*
X81676247Y-57138095D02*
X81914342Y-57138095D01*
X81914342Y-57138095D02*
X82009580Y-57185714D01*
X82009580Y-57185714D02*
X82057200Y-57233333D01*
X82057200Y-57233333D02*
X82104819Y-57328571D01*
X82104819Y-57328571D02*
X82104819Y-57614285D01*
X82104819Y-57614285D02*
X82057200Y-57709523D01*
X82057200Y-57709523D02*
X82009580Y-57757142D01*
X82200057Y-56947619D02*
X82200057Y-56185714D01*
X81581009Y-55614285D02*
X81581009Y-55947618D01*
X82104819Y-55947618D02*
X81104819Y-55947618D01*
X81104819Y-55947618D02*
X81104819Y-55471428D01*
X82104819Y-54566666D02*
X82104819Y-55138094D01*
X82104819Y-54852380D02*
X81104819Y-54852380D01*
X81104819Y-54852380D02*
X81247676Y-54947618D01*
X81247676Y-54947618D02*
X81342914Y-55042856D01*
X81342914Y-55042856D02*
X81390533Y-55138094D01*
X82200057Y-54376190D02*
X82200057Y-53614285D01*
X81581009Y-53042856D02*
X81628628Y-52899999D01*
X81628628Y-52899999D02*
X81676247Y-52852380D01*
X81676247Y-52852380D02*
X81771485Y-52804761D01*
X81771485Y-52804761D02*
X81914342Y-52804761D01*
X81914342Y-52804761D02*
X82009580Y-52852380D01*
X82009580Y-52852380D02*
X82057200Y-52899999D01*
X82057200Y-52899999D02*
X82104819Y-52995237D01*
X82104819Y-52995237D02*
X82104819Y-53376189D01*
X82104819Y-53376189D02*
X81104819Y-53376189D01*
X81104819Y-53376189D02*
X81104819Y-53042856D01*
X81104819Y-53042856D02*
X81152438Y-52947618D01*
X81152438Y-52947618D02*
X81200057Y-52899999D01*
X81200057Y-52899999D02*
X81295295Y-52852380D01*
X81295295Y-52852380D02*
X81390533Y-52852380D01*
X81390533Y-52852380D02*
X81485771Y-52899999D01*
X81485771Y-52899999D02*
X81533390Y-52947618D01*
X81533390Y-52947618D02*
X81581009Y-53042856D01*
X81581009Y-53042856D02*
X81581009Y-53376189D01*
X81581009Y-52376189D02*
X81581009Y-52042856D01*
X82104819Y-51899999D02*
X82104819Y-52376189D01*
X82104819Y-52376189D02*
X81104819Y-52376189D01*
X81104819Y-52376189D02*
X81104819Y-51899999D01*
X82009580Y-50899999D02*
X82057200Y-50947618D01*
X82057200Y-50947618D02*
X82104819Y-51090475D01*
X82104819Y-51090475D02*
X82104819Y-51185713D01*
X82104819Y-51185713D02*
X82057200Y-51328570D01*
X82057200Y-51328570D02*
X81961961Y-51423808D01*
X81961961Y-51423808D02*
X81866723Y-51471427D01*
X81866723Y-51471427D02*
X81676247Y-51519046D01*
X81676247Y-51519046D02*
X81533390Y-51519046D01*
X81533390Y-51519046D02*
X81342914Y-51471427D01*
X81342914Y-51471427D02*
X81247676Y-51423808D01*
X81247676Y-51423808D02*
X81152438Y-51328570D01*
X81152438Y-51328570D02*
X81104819Y-51185713D01*
X81104819Y-51185713D02*
X81104819Y-51090475D01*
X81104819Y-51090475D02*
X81152438Y-50947618D01*
X81152438Y-50947618D02*
X81200057Y-50899999D01*
X82200057Y-50709523D02*
X82200057Y-49947618D01*
X81104819Y-49519046D02*
X81104819Y-49328570D01*
X81104819Y-49328570D02*
X81152438Y-49233332D01*
X81152438Y-49233332D02*
X81247676Y-49138094D01*
X81247676Y-49138094D02*
X81438152Y-49090475D01*
X81438152Y-49090475D02*
X81771485Y-49090475D01*
X81771485Y-49090475D02*
X81961961Y-49138094D01*
X81961961Y-49138094D02*
X82057200Y-49233332D01*
X82057200Y-49233332D02*
X82104819Y-49328570D01*
X82104819Y-49328570D02*
X82104819Y-49519046D01*
X82104819Y-49519046D02*
X82057200Y-49614284D01*
X82057200Y-49614284D02*
X81961961Y-49709522D01*
X81961961Y-49709522D02*
X81771485Y-49757141D01*
X81771485Y-49757141D02*
X81438152Y-49757141D01*
X81438152Y-49757141D02*
X81247676Y-49709522D01*
X81247676Y-49709522D02*
X81152438Y-49614284D01*
X81152438Y-49614284D02*
X81104819Y-49519046D01*
X81104819Y-48661903D02*
X81914342Y-48661903D01*
X81914342Y-48661903D02*
X82009580Y-48614284D01*
X82009580Y-48614284D02*
X82057200Y-48566665D01*
X82057200Y-48566665D02*
X82104819Y-48471427D01*
X82104819Y-48471427D02*
X82104819Y-48280951D01*
X82104819Y-48280951D02*
X82057200Y-48185713D01*
X82057200Y-48185713D02*
X82009580Y-48138094D01*
X82009580Y-48138094D02*
X81914342Y-48090475D01*
X81914342Y-48090475D02*
X81104819Y-48090475D01*
X81104819Y-47757141D02*
X81104819Y-47185713D01*
X82104819Y-47471427D02*
X81104819Y-47471427D01*
X82104819Y-46328570D02*
X82104819Y-46899998D01*
X82104819Y-46614284D02*
X81104819Y-46614284D01*
X81104819Y-46614284D02*
X81247676Y-46709522D01*
X81247676Y-46709522D02*
X81342914Y-46804760D01*
X81342914Y-46804760D02*
X81390533Y-46899998D01*
X118789580Y-83666666D02*
X118837200Y-83714285D01*
X118837200Y-83714285D02*
X118884819Y-83857142D01*
X118884819Y-83857142D02*
X118884819Y-83952380D01*
X118884819Y-83952380D02*
X118837200Y-84095237D01*
X118837200Y-84095237D02*
X118741961Y-84190475D01*
X118741961Y-84190475D02*
X118646723Y-84238094D01*
X118646723Y-84238094D02*
X118456247Y-84285713D01*
X118456247Y-84285713D02*
X118313390Y-84285713D01*
X118313390Y-84285713D02*
X118122914Y-84238094D01*
X118122914Y-84238094D02*
X118027676Y-84190475D01*
X118027676Y-84190475D02*
X117932438Y-84095237D01*
X117932438Y-84095237D02*
X117884819Y-83952380D01*
X117884819Y-83952380D02*
X117884819Y-83857142D01*
X117884819Y-83857142D02*
X117932438Y-83714285D01*
X117932438Y-83714285D02*
X117980057Y-83666666D01*
X118884819Y-82714285D02*
X118884819Y-83285713D01*
X118884819Y-82999999D02*
X117884819Y-82999999D01*
X117884819Y-82999999D02*
X118027676Y-83095237D01*
X118027676Y-83095237D02*
X118122914Y-83190475D01*
X118122914Y-83190475D02*
X118170533Y-83285713D01*
X131566666Y-77199819D02*
X131566666Y-77914104D01*
X131566666Y-77914104D02*
X131519047Y-78056961D01*
X131519047Y-78056961D02*
X131423809Y-78152200D01*
X131423809Y-78152200D02*
X131280952Y-78199819D01*
X131280952Y-78199819D02*
X131185714Y-78199819D01*
X131947619Y-77199819D02*
X132614285Y-77199819D01*
X132614285Y-77199819D02*
X132185714Y-78199819D01*
X125441666Y-75479819D02*
X125441666Y-76194104D01*
X125441666Y-76194104D02*
X125394047Y-76336961D01*
X125394047Y-76336961D02*
X125298809Y-76432200D01*
X125298809Y-76432200D02*
X125155952Y-76479819D01*
X125155952Y-76479819D02*
X125060714Y-76479819D01*
X125870238Y-75575057D02*
X125917857Y-75527438D01*
X125917857Y-75527438D02*
X126013095Y-75479819D01*
X126013095Y-75479819D02*
X126251190Y-75479819D01*
X126251190Y-75479819D02*
X126346428Y-75527438D01*
X126346428Y-75527438D02*
X126394047Y-75575057D01*
X126394047Y-75575057D02*
X126441666Y-75670295D01*
X126441666Y-75670295D02*
X126441666Y-75765533D01*
X126441666Y-75765533D02*
X126394047Y-75908390D01*
X126394047Y-75908390D02*
X125822619Y-76479819D01*
X125822619Y-76479819D02*
X126441666Y-76479819D01*
X72785714Y-81483009D02*
X72928571Y-81530628D01*
X72928571Y-81530628D02*
X72976190Y-81578247D01*
X72976190Y-81578247D02*
X73023809Y-81673485D01*
X73023809Y-81673485D02*
X73023809Y-81816342D01*
X73023809Y-81816342D02*
X72976190Y-81911580D01*
X72976190Y-81911580D02*
X72928571Y-81959200D01*
X72928571Y-81959200D02*
X72833333Y-82006819D01*
X72833333Y-82006819D02*
X72452381Y-82006819D01*
X72452381Y-82006819D02*
X72452381Y-81006819D01*
X72452381Y-81006819D02*
X72785714Y-81006819D01*
X72785714Y-81006819D02*
X72880952Y-81054438D01*
X72880952Y-81054438D02*
X72928571Y-81102057D01*
X72928571Y-81102057D02*
X72976190Y-81197295D01*
X72976190Y-81197295D02*
X72976190Y-81292533D01*
X72976190Y-81292533D02*
X72928571Y-81387771D01*
X72928571Y-81387771D02*
X72880952Y-81435390D01*
X72880952Y-81435390D02*
X72785714Y-81483009D01*
X72785714Y-81483009D02*
X72452381Y-81483009D01*
X73404762Y-81721104D02*
X73880952Y-81721104D01*
X73309524Y-82006819D02*
X73642857Y-81006819D01*
X73642857Y-81006819D02*
X73976190Y-82006819D01*
X74166667Y-81006819D02*
X74738095Y-81006819D01*
X74452381Y-82006819D02*
X74452381Y-81006819D01*
X75595238Y-82006819D02*
X75023810Y-82006819D01*
X75309524Y-82006819D02*
X75309524Y-81006819D01*
X75309524Y-81006819D02*
X75214286Y-81149676D01*
X75214286Y-81149676D02*
X75119048Y-81244914D01*
X75119048Y-81244914D02*
X75023810Y-81292533D01*
X150524819Y-84238094D02*
X149524819Y-84238094D01*
X149524819Y-84238094D02*
X149524819Y-83999999D01*
X149524819Y-83999999D02*
X149572438Y-83857142D01*
X149572438Y-83857142D02*
X149667676Y-83761904D01*
X149667676Y-83761904D02*
X149762914Y-83714285D01*
X149762914Y-83714285D02*
X149953390Y-83666666D01*
X149953390Y-83666666D02*
X150096247Y-83666666D01*
X150096247Y-83666666D02*
X150286723Y-83714285D01*
X150286723Y-83714285D02*
X150381961Y-83761904D01*
X150381961Y-83761904D02*
X150477200Y-83857142D01*
X150477200Y-83857142D02*
X150524819Y-83999999D01*
X150524819Y-83999999D02*
X150524819Y-84238094D01*
X149620057Y-83285713D02*
X149572438Y-83238094D01*
X149572438Y-83238094D02*
X149524819Y-83142856D01*
X149524819Y-83142856D02*
X149524819Y-82904761D01*
X149524819Y-82904761D02*
X149572438Y-82809523D01*
X149572438Y-82809523D02*
X149620057Y-82761904D01*
X149620057Y-82761904D02*
X149715295Y-82714285D01*
X149715295Y-82714285D02*
X149810533Y-82714285D01*
X149810533Y-82714285D02*
X149953390Y-82761904D01*
X149953390Y-82761904D02*
X150524819Y-83333332D01*
X150524819Y-83333332D02*
X150524819Y-82714285D01*
X155904819Y-79666666D02*
X155428628Y-79999999D01*
X155904819Y-80238094D02*
X154904819Y-80238094D01*
X154904819Y-80238094D02*
X154904819Y-79857142D01*
X154904819Y-79857142D02*
X154952438Y-79761904D01*
X154952438Y-79761904D02*
X155000057Y-79714285D01*
X155000057Y-79714285D02*
X155095295Y-79666666D01*
X155095295Y-79666666D02*
X155238152Y-79666666D01*
X155238152Y-79666666D02*
X155333390Y-79714285D01*
X155333390Y-79714285D02*
X155381009Y-79761904D01*
X155381009Y-79761904D02*
X155428628Y-79857142D01*
X155428628Y-79857142D02*
X155428628Y-80238094D01*
X155238152Y-78809523D02*
X155904819Y-78809523D01*
X154857200Y-79047618D02*
X155571485Y-79285713D01*
X155571485Y-79285713D02*
X155571485Y-78666666D01*
X153394819Y-79666666D02*
X152918628Y-79999999D01*
X153394819Y-80238094D02*
X152394819Y-80238094D01*
X152394819Y-80238094D02*
X152394819Y-79857142D01*
X152394819Y-79857142D02*
X152442438Y-79761904D01*
X152442438Y-79761904D02*
X152490057Y-79714285D01*
X152490057Y-79714285D02*
X152585295Y-79666666D01*
X152585295Y-79666666D02*
X152728152Y-79666666D01*
X152728152Y-79666666D02*
X152823390Y-79714285D01*
X152823390Y-79714285D02*
X152871009Y-79761904D01*
X152871009Y-79761904D02*
X152918628Y-79857142D01*
X152918628Y-79857142D02*
X152918628Y-80238094D01*
X152394819Y-78761904D02*
X152394819Y-79238094D01*
X152394819Y-79238094D02*
X152871009Y-79285713D01*
X152871009Y-79285713D02*
X152823390Y-79238094D01*
X152823390Y-79238094D02*
X152775771Y-79142856D01*
X152775771Y-79142856D02*
X152775771Y-78904761D01*
X152775771Y-78904761D02*
X152823390Y-78809523D01*
X152823390Y-78809523D02*
X152871009Y-78761904D01*
X152871009Y-78761904D02*
X152966247Y-78714285D01*
X152966247Y-78714285D02*
X153204342Y-78714285D01*
X153204342Y-78714285D02*
X153299580Y-78761904D01*
X153299580Y-78761904D02*
X153347200Y-78809523D01*
X153347200Y-78809523D02*
X153394819Y-78904761D01*
X153394819Y-78904761D02*
X153394819Y-79142856D01*
X153394819Y-79142856D02*
X153347200Y-79238094D01*
X153347200Y-79238094D02*
X153299580Y-79285713D01*
X117404761Y-29154819D02*
X117404761Y-29869104D01*
X117404761Y-29869104D02*
X117357142Y-30011961D01*
X117357142Y-30011961D02*
X117261904Y-30107200D01*
X117261904Y-30107200D02*
X117119047Y-30154819D01*
X117119047Y-30154819D02*
X117023809Y-30154819D01*
X118309523Y-29488152D02*
X118309523Y-30154819D01*
X118071428Y-29107200D02*
X117833333Y-29821485D01*
X117833333Y-29821485D02*
X118452380Y-29821485D01*
X118595238Y-30250057D02*
X119357142Y-30250057D01*
X119595238Y-30154819D02*
X119595238Y-29154819D01*
X119595238Y-29154819D02*
X119928571Y-29869104D01*
X119928571Y-29869104D02*
X120261904Y-29154819D01*
X120261904Y-29154819D02*
X120261904Y-30154819D01*
X121261904Y-30154819D02*
X120690476Y-30154819D01*
X120976190Y-30154819D02*
X120976190Y-29154819D01*
X120976190Y-29154819D02*
X120880952Y-29297676D01*
X120880952Y-29297676D02*
X120785714Y-29392914D01*
X120785714Y-29392914D02*
X120690476Y-29440533D01*
X121452381Y-30250057D02*
X122214285Y-30250057D01*
X122452381Y-30154819D02*
X122452381Y-29154819D01*
X122452381Y-29154819D02*
X122785714Y-29869104D01*
X122785714Y-29869104D02*
X123119047Y-29154819D01*
X123119047Y-29154819D02*
X123119047Y-30154819D01*
X123785714Y-29154819D02*
X123976190Y-29154819D01*
X123976190Y-29154819D02*
X124071428Y-29202438D01*
X124071428Y-29202438D02*
X124166666Y-29297676D01*
X124166666Y-29297676D02*
X124214285Y-29488152D01*
X124214285Y-29488152D02*
X124214285Y-29821485D01*
X124214285Y-29821485D02*
X124166666Y-30011961D01*
X124166666Y-30011961D02*
X124071428Y-30107200D01*
X124071428Y-30107200D02*
X123976190Y-30154819D01*
X123976190Y-30154819D02*
X123785714Y-30154819D01*
X123785714Y-30154819D02*
X123690476Y-30107200D01*
X123690476Y-30107200D02*
X123595238Y-30011961D01*
X123595238Y-30011961D02*
X123547619Y-29821485D01*
X123547619Y-29821485D02*
X123547619Y-29488152D01*
X123547619Y-29488152D02*
X123595238Y-29297676D01*
X123595238Y-29297676D02*
X123690476Y-29202438D01*
X123690476Y-29202438D02*
X123785714Y-29154819D01*
X124500000Y-29154819D02*
X125071428Y-29154819D01*
X124785714Y-30154819D02*
X124785714Y-29154819D01*
X125928571Y-30154819D02*
X125357143Y-30154819D01*
X125642857Y-30154819D02*
X125642857Y-29154819D01*
X125642857Y-29154819D02*
X125547619Y-29297676D01*
X125547619Y-29297676D02*
X125452381Y-29392914D01*
X125452381Y-29392914D02*
X125357143Y-29440533D01*
X172761904Y-29302438D02*
X172666666Y-29254819D01*
X172666666Y-29254819D02*
X172523809Y-29254819D01*
X172523809Y-29254819D02*
X172380952Y-29302438D01*
X172380952Y-29302438D02*
X172285714Y-29397676D01*
X172285714Y-29397676D02*
X172238095Y-29492914D01*
X172238095Y-29492914D02*
X172190476Y-29683390D01*
X172190476Y-29683390D02*
X172190476Y-29826247D01*
X172190476Y-29826247D02*
X172238095Y-30016723D01*
X172238095Y-30016723D02*
X172285714Y-30111961D01*
X172285714Y-30111961D02*
X172380952Y-30207200D01*
X172380952Y-30207200D02*
X172523809Y-30254819D01*
X172523809Y-30254819D02*
X172619047Y-30254819D01*
X172619047Y-30254819D02*
X172761904Y-30207200D01*
X172761904Y-30207200D02*
X172809523Y-30159580D01*
X172809523Y-30159580D02*
X172809523Y-29826247D01*
X172809523Y-29826247D02*
X172619047Y-29826247D01*
X173238095Y-30254819D02*
X173238095Y-29254819D01*
X173238095Y-29254819D02*
X173809523Y-30254819D01*
X173809523Y-30254819D02*
X173809523Y-29254819D01*
X174285714Y-30254819D02*
X174285714Y-29254819D01*
X174285714Y-29254819D02*
X174523809Y-29254819D01*
X174523809Y-29254819D02*
X174666666Y-29302438D01*
X174666666Y-29302438D02*
X174761904Y-29397676D01*
X174761904Y-29397676D02*
X174809523Y-29492914D01*
X174809523Y-29492914D02*
X174857142Y-29683390D01*
X174857142Y-29683390D02*
X174857142Y-29826247D01*
X174857142Y-29826247D02*
X174809523Y-30016723D01*
X174809523Y-30016723D02*
X174761904Y-30111961D01*
X174761904Y-30111961D02*
X174666666Y-30207200D01*
X174666666Y-30207200D02*
X174523809Y-30254819D01*
X174523809Y-30254819D02*
X174285714Y-30254819D01*
X175714285Y-29588152D02*
X175714285Y-30254819D01*
X175476190Y-29207200D02*
X175238095Y-29921485D01*
X175238095Y-29921485D02*
X175857142Y-29921485D01*
X150884819Y-79666666D02*
X150408628Y-79999999D01*
X150884819Y-80238094D02*
X149884819Y-80238094D01*
X149884819Y-80238094D02*
X149884819Y-79857142D01*
X149884819Y-79857142D02*
X149932438Y-79761904D01*
X149932438Y-79761904D02*
X149980057Y-79714285D01*
X149980057Y-79714285D02*
X150075295Y-79666666D01*
X150075295Y-79666666D02*
X150218152Y-79666666D01*
X150218152Y-79666666D02*
X150313390Y-79714285D01*
X150313390Y-79714285D02*
X150361009Y-79761904D01*
X150361009Y-79761904D02*
X150408628Y-79857142D01*
X150408628Y-79857142D02*
X150408628Y-80238094D01*
X149884819Y-78809523D02*
X149884819Y-78999999D01*
X149884819Y-78999999D02*
X149932438Y-79095237D01*
X149932438Y-79095237D02*
X149980057Y-79142856D01*
X149980057Y-79142856D02*
X150122914Y-79238094D01*
X150122914Y-79238094D02*
X150313390Y-79285713D01*
X150313390Y-79285713D02*
X150694342Y-79285713D01*
X150694342Y-79285713D02*
X150789580Y-79238094D01*
X150789580Y-79238094D02*
X150837200Y-79190475D01*
X150837200Y-79190475D02*
X150884819Y-79095237D01*
X150884819Y-79095237D02*
X150884819Y-78904761D01*
X150884819Y-78904761D02*
X150837200Y-78809523D01*
X150837200Y-78809523D02*
X150789580Y-78761904D01*
X150789580Y-78761904D02*
X150694342Y-78714285D01*
X150694342Y-78714285D02*
X150456247Y-78714285D01*
X150456247Y-78714285D02*
X150361009Y-78761904D01*
X150361009Y-78761904D02*
X150313390Y-78809523D01*
X150313390Y-78809523D02*
X150265771Y-78904761D01*
X150265771Y-78904761D02*
X150265771Y-79095237D01*
X150265771Y-79095237D02*
X150313390Y-79190475D01*
X150313390Y-79190475D02*
X150361009Y-79238094D01*
X150361009Y-79238094D02*
X150456247Y-79285713D01*
D12*
%TO.C,J3*%
X139670000Y-78670000D02*
X141000000Y-78670000D01*
X139670000Y-80000000D02*
X139670000Y-78670000D01*
X139670000Y-81270000D02*
X139670000Y-86410000D01*
X139670000Y-81270000D02*
X142330000Y-81270000D01*
X139670000Y-86410000D02*
X142330000Y-86410000D01*
X142330000Y-81270000D02*
X142330000Y-86410000D01*
%TO.C,C5*%
X112490000Y-83353733D02*
X112490000Y-83646267D01*
X113510000Y-83353733D02*
X113510000Y-83646267D01*
%TO.C,R9*%
X121737258Y-79477500D02*
X121262742Y-79477500D01*
X121737258Y-80522500D02*
X121262742Y-80522500D01*
%TO.C,D3*%
X148265000Y-82700000D02*
X148265000Y-84985000D01*
X148265000Y-84985000D02*
X149735000Y-84985000D01*
X149735000Y-84985000D02*
X149735000Y-82700000D01*
%TO.C,C4*%
X107240000Y-78240000D02*
X107240000Y-79440000D01*
X107240000Y-82760000D02*
X107240000Y-81560000D01*
X110695563Y-78240000D02*
X107240000Y-78240000D01*
X110695563Y-82760000D02*
X107240000Y-82760000D01*
X111760000Y-79304437D02*
X110695563Y-78240000D01*
X111760000Y-79304437D02*
X111760000Y-79440000D01*
X111760000Y-81695563D02*
X110695563Y-82760000D01*
X111760000Y-81695563D02*
X111760000Y-81560000D01*
X112250000Y-82310000D02*
X112250000Y-81810000D01*
X112500000Y-82060000D02*
X112000000Y-82060000D01*
%TO.C,J3_F2_BAT1*%
X63150000Y-45400000D02*
X63150000Y-48550000D01*
X63150000Y-48550000D02*
X66000000Y-51150000D01*
X66000000Y-42850000D02*
X63150000Y-45400000D01*
X66000000Y-51150000D02*
X78850000Y-51150000D01*
X78850000Y-42850000D02*
X66000000Y-42850000D01*
X78850000Y-51150000D02*
X78850000Y-42850000D01*
%TO.C,C2*%
X118190000Y-81846267D02*
X118190000Y-81553733D01*
X119210000Y-81846267D02*
X119210000Y-81553733D01*
%TO.C,J4_M0_MOT0*%
X63150000Y-71400000D02*
X63150000Y-74550000D01*
X63150000Y-74550000D02*
X66000000Y-77150000D01*
X66000000Y-68850000D02*
X63150000Y-71400000D01*
X66000000Y-77150000D02*
X78850000Y-77150000D01*
X78850000Y-68850000D02*
X66000000Y-68850000D01*
X78850000Y-77150000D02*
X78850000Y-68850000D01*
%TO.C,J1*%
X144170000Y-78670000D02*
X145500000Y-78670000D01*
X144170000Y-80000000D02*
X144170000Y-78670000D01*
X144170000Y-81270000D02*
X144170000Y-86410000D01*
X144170000Y-81270000D02*
X146830000Y-81270000D01*
X144170000Y-86410000D02*
X146830000Y-86410000D01*
X146830000Y-81270000D02*
X146830000Y-86410000D01*
%TO.C,GND6*%
X134700000Y-98000000D02*
G75*
G02*
X133300000Y-98000000I-700000J0D01*
G01*
X133300000Y-98000000D02*
G75*
G02*
X134700000Y-98000000I700000J0D01*
G01*
%TO.C,J13*%
X163670000Y-59145000D02*
X165000000Y-59145000D01*
X163670000Y-60475000D02*
X163670000Y-59145000D01*
X163670000Y-61745000D02*
X163670000Y-66885000D01*
X163670000Y-61745000D02*
X166330000Y-61745000D01*
X163670000Y-66885000D02*
X166330000Y-66885000D01*
X166330000Y-61745000D02*
X166330000Y-66885000D01*
%TO.C,C3*%
X114490000Y-83646267D02*
X114490000Y-83353733D01*
X115510000Y-83646267D02*
X115510000Y-83353733D01*
%TO.C,J4_M3_MOT3*%
X113650000Y-106400000D02*
X113650000Y-109550000D01*
X113650000Y-109550000D02*
X116500000Y-112150000D01*
X116500000Y-103850000D02*
X113650000Y-106400000D01*
X116500000Y-112150000D02*
X129350000Y-112150000D01*
X129350000Y-103850000D02*
X116500000Y-103850000D01*
X129350000Y-112150000D02*
X129350000Y-103850000D01*
%TO.C,J15VBECOUT1*%
X113670000Y-91145000D02*
X115000000Y-91145000D01*
X113670000Y-92475000D02*
X113670000Y-91145000D01*
X113670000Y-93745000D02*
X113670000Y-98885000D01*
X113670000Y-93745000D02*
X116330000Y-93745000D01*
X113670000Y-98885000D02*
X116330000Y-98885000D01*
X116330000Y-93745000D02*
X116330000Y-98885000D01*
%TO.C,R8*%
X106262742Y-84477500D02*
X106737258Y-84477500D01*
X106262742Y-85522500D02*
X106737258Y-85522500D01*
%TO.C,D1*%
X153265000Y-82700000D02*
X153265000Y-84985000D01*
X153265000Y-84985000D02*
X154735000Y-84985000D01*
X154735000Y-84985000D02*
X154735000Y-82700000D01*
%TO.C,D5*%
X162515000Y-97265000D02*
X162515000Y-98735000D01*
X162515000Y-98735000D02*
X164800000Y-98735000D01*
X164800000Y-97265000D02*
X162515000Y-97265000D01*
%TO.C,MOT0*%
X146200000Y-98000000D02*
G75*
G02*
X144800000Y-98000000I-700000J0D01*
G01*
X144800000Y-98000000D02*
G75*
G02*
X146200000Y-98000000I700000J0D01*
G01*
%TO.C,J14GND1*%
X109670000Y-91170000D02*
X111000000Y-91170000D01*
X109670000Y-92500000D02*
X109670000Y-91170000D01*
X109670000Y-93770000D02*
X109670000Y-98910000D01*
X109670000Y-93770000D02*
X112330000Y-93770000D01*
X109670000Y-98910000D02*
X112330000Y-98910000D01*
X112330000Y-93770000D02*
X112330000Y-98910000D01*
%TO.C,VDDIO1*%
X126100000Y-83050000D02*
G75*
G02*
X124700000Y-83050000I-700000J0D01*
G01*
X124700000Y-83050000D02*
G75*
G02*
X126100000Y-83050000I700000J0D01*
G01*
%TO.C,J4*%
X135170000Y-78670000D02*
X136500000Y-78670000D01*
X135170000Y-80000000D02*
X135170000Y-78670000D01*
X135170000Y-81270000D02*
X135170000Y-86410000D01*
X135170000Y-81270000D02*
X137830000Y-81270000D01*
X135170000Y-86410000D02*
X137830000Y-86410000D01*
X137830000Y-81270000D02*
X137830000Y-86410000D01*
%TO.C,GND5*%
X67700000Y-83000000D02*
G75*
G02*
X66300000Y-83000000I-700000J0D01*
G01*
X66300000Y-83000000D02*
G75*
G02*
X67700000Y-83000000I700000J0D01*
G01*
%TO.C,Y1*%
X152220000Y-76500000D02*
G75*
G02*
X150820000Y-76500000I-700000J0D01*
G01*
X150820000Y-76500000D02*
G75*
G02*
X152220000Y-76500000I700000J0D01*
G01*
%TO.C,MOT2*%
X131200000Y-98000000D02*
G75*
G02*
X129800000Y-98000000I-700000J0D01*
G01*
X129800000Y-98000000D02*
G75*
G02*
X131200000Y-98000000I700000J0D01*
G01*
%TO.C,R3*%
X86237258Y-94477500D02*
X85762742Y-94477500D01*
X86237258Y-95522500D02*
X85762742Y-95522500D01*
%TO.C,R11*%
X121737258Y-82477500D02*
X121262742Y-82477500D01*
X121737258Y-83522500D02*
X121262742Y-83522500D01*
%TO.C,GND7*%
X94700000Y-43000000D02*
G75*
G02*
X93300000Y-43000000I-700000J0D01*
G01*
X93300000Y-43000000D02*
G75*
G02*
X94700000Y-43000000I700000J0D01*
G01*
%TO.C,MOT1*%
X138700000Y-98000000D02*
G75*
G02*
X137300000Y-98000000I-700000J0D01*
G01*
X137300000Y-98000000D02*
G75*
G02*
X138700000Y-98000000I700000J0D01*
G01*
%TO.C,R1*%
X163762742Y-46477500D02*
X164237258Y-46477500D01*
X163762742Y-47522500D02*
X164237258Y-47522500D01*
%TO.C,J4_M4_BEC_IN1*%
X63150000Y-58400000D02*
X63150000Y-61550000D01*
X63150000Y-61550000D02*
X66000000Y-64150000D01*
X66000000Y-55850000D02*
X63150000Y-58400000D01*
X66000000Y-64150000D02*
X78850000Y-64150000D01*
X78850000Y-55850000D02*
X66000000Y-55850000D01*
X78850000Y-64150000D02*
X78850000Y-55850000D01*
%TO.C,R7*%
X149720000Y-76500000D02*
G75*
G02*
X148320000Y-76500000I-700000J0D01*
G01*
X148320000Y-76500000D02*
G75*
G02*
X149720000Y-76500000I700000J0D01*
G01*
%TO.C,J8*%
X88170000Y-61670000D02*
X89500000Y-61670000D01*
X88170000Y-63000000D02*
X88170000Y-61670000D01*
X88170000Y-64270000D02*
X88170000Y-69410000D01*
X88170000Y-64270000D02*
X90830000Y-64270000D01*
X88170000Y-69410000D02*
X90830000Y-69410000D01*
X90830000Y-64270000D02*
X90830000Y-69410000D01*
%TO.C,VDD1*%
X104250000Y-82400000D02*
G75*
G02*
X102850000Y-82400000I-700000J0D01*
G01*
X102850000Y-82400000D02*
G75*
G02*
X104250000Y-82400000I700000J0D01*
G01*
%TO.C,D4*%
X162727500Y-43265000D02*
X162727500Y-44735000D01*
X162727500Y-44735000D02*
X165012500Y-44735000D01*
X165012500Y-43265000D02*
X162727500Y-43265000D01*
%TO.C,J5*%
X117650000Y-88250000D02*
X117650000Y-89500000D01*
X117940000Y-88540000D02*
X117940000Y-94510000D01*
X117940000Y-94510000D02*
X150560000Y-94510000D01*
X117950000Y-88550000D02*
X117950000Y-89300000D01*
X117950000Y-89300000D02*
X119750000Y-89300000D01*
X117950000Y-90800000D02*
X118700000Y-90800000D01*
X118700000Y-90800000D02*
X118700000Y-92140000D01*
X118900000Y-88250000D02*
X117650000Y-88250000D01*
X119750000Y-88550000D02*
X117950000Y-88550000D01*
X119750000Y-89300000D02*
X119750000Y-88550000D01*
X121250000Y-88550000D02*
X121250000Y-89300000D01*
X121250000Y-89300000D02*
X147250000Y-89300000D01*
X134250000Y-93750000D02*
X119760000Y-93750000D01*
X147250000Y-88550000D02*
X121250000Y-88550000D01*
X147250000Y-89300000D02*
X147250000Y-88550000D01*
X148750000Y-88550000D02*
X148750000Y-89300000D01*
X148750000Y-89300000D02*
X150550000Y-89300000D01*
X149800000Y-90800000D02*
X149800000Y-93750000D01*
X149800000Y-93750000D02*
X134250000Y-93750000D01*
X150550000Y-88550000D02*
X148750000Y-88550000D01*
X150550000Y-89300000D02*
X150550000Y-88550000D01*
X150550000Y-90800000D02*
X149800000Y-90800000D01*
X150560000Y-88540000D02*
X117940000Y-88540000D01*
X150560000Y-94510000D02*
X150560000Y-88540000D01*
%TO.C,J12*%
X163670000Y-69645000D02*
X165000000Y-69645000D01*
X163670000Y-70975000D02*
X163670000Y-69645000D01*
X163670000Y-72245000D02*
X163670000Y-77385000D01*
X163670000Y-72245000D02*
X166330000Y-72245000D01*
X163670000Y-77385000D02*
X166330000Y-77385000D01*
X166330000Y-72245000D02*
X166330000Y-77385000D01*
%TO.C,5V1*%
X98950000Y-43000000D02*
G75*
G02*
X97550000Y-43000000I-700000J0D01*
G01*
X97550000Y-43000000D02*
G75*
G02*
X98950000Y-43000000I700000J0D01*
G01*
%TO.C,R2*%
X163762742Y-94477500D02*
X164237258Y-94477500D01*
X163762742Y-95522500D02*
X164237258Y-95522500D01*
%TO.C,J6*%
X72510000Y-38330000D02*
X72510000Y-37000000D01*
X73840000Y-38330000D02*
X72510000Y-38330000D01*
X75110000Y-35670000D02*
X92950000Y-35670000D01*
X75110000Y-38330000D02*
X75110000Y-35670000D01*
X75110000Y-38330000D02*
X92950000Y-38330000D01*
X92950000Y-38330000D02*
X92950000Y-35670000D01*
%TO.C,J16*%
X159420000Y-74770000D02*
X159420000Y-69630000D01*
X162080000Y-69630000D02*
X159420000Y-69630000D01*
X162080000Y-74770000D02*
X159420000Y-74770000D01*
X162080000Y-74770000D02*
X162080000Y-69630000D01*
X162080000Y-76040000D02*
X162080000Y-77370000D01*
X162080000Y-77370000D02*
X160750000Y-77370000D01*
%TO.C,J4_M2_MOT2*%
X170250000Y-69600000D02*
X170250000Y-82450000D01*
X170250000Y-82450000D02*
X178550000Y-82450000D01*
X172850000Y-66750000D02*
X170250000Y-69600000D01*
X176000000Y-66750000D02*
X172850000Y-66750000D01*
X178550000Y-69600000D02*
X176000000Y-66750000D01*
X178550000Y-82450000D02*
X178550000Y-69600000D01*
%TO.C,G1*%
X154720000Y-76500000D02*
G75*
G02*
X153320000Y-76500000I-700000J0D01*
G01*
X153320000Y-76500000D02*
G75*
G02*
X154720000Y-76500000I700000J0D01*
G01*
%TO.C,R10*%
X109762742Y-84477500D02*
X110237258Y-84477500D01*
X109762742Y-85522500D02*
X110237258Y-85522500D01*
%TO.C,MOT3*%
X123700000Y-98000000D02*
G75*
G02*
X122300000Y-98000000I-700000J0D01*
G01*
X122300000Y-98000000D02*
G75*
G02*
X123700000Y-98000000I700000J0D01*
G01*
%TO.C,D6*%
X85200000Y-98735000D02*
X87485000Y-98735000D01*
X87485000Y-97265000D02*
X85200000Y-97265000D01*
X87485000Y-98735000D02*
X87485000Y-97265000D01*
%TO.C,U1*%
X113650000Y-77200000D02*
X114400000Y-77200000D01*
X113650000Y-77900000D02*
X113650000Y-77200000D01*
X113650000Y-80600000D02*
X113650000Y-79900000D01*
X114400000Y-80600000D02*
X113650000Y-80600000D01*
X116800000Y-77200000D02*
X117550000Y-77200000D01*
X116800000Y-80600000D02*
X117350000Y-80600000D01*
X117550000Y-77200000D02*
X117550000Y-77900000D01*
X117550000Y-80400000D02*
X117550000Y-79900000D01*
D10*
X117550000Y-80960000D02*
X117550000Y-80600000D01*
X117910000Y-80600000D01*
X117550000Y-80960000D01*
G36*
X117550000Y-80960000D02*
G01*
X117550000Y-80600000D01*
X117910000Y-80600000D01*
X117550000Y-80960000D01*
G37*
D12*
%TO.C,J3_F1_BEC_OUT1*%
X82800000Y-44550000D02*
X82800000Y-57400000D01*
X82800000Y-57400000D02*
X85350000Y-60250000D01*
X85350000Y-60250000D02*
X88500000Y-60250000D01*
X88500000Y-60250000D02*
X91100000Y-57400000D01*
X91100000Y-44550000D02*
X82800000Y-44550000D01*
X91100000Y-57400000D02*
X91100000Y-44550000D01*
%TO.C,C1*%
X116490000Y-83353733D02*
X116490000Y-83646267D01*
X117510000Y-83353733D02*
X117510000Y-83646267D01*
%TO.C,J7*%
X130570000Y-78745000D02*
X131900000Y-78745000D01*
X130570000Y-80075000D02*
X130570000Y-78745000D01*
X130570000Y-81345000D02*
X130570000Y-86485000D01*
X130570000Y-81345000D02*
X133230000Y-81345000D01*
X130570000Y-86485000D02*
X133230000Y-86485000D01*
X133230000Y-81345000D02*
X133230000Y-86485000D01*
%TO.C,J2*%
X93215000Y-71525000D02*
X93215000Y-47525000D01*
X99965000Y-43765000D02*
X99965000Y-44465000D01*
X99965000Y-44465000D02*
X96275000Y-44465000D01*
X100315000Y-68425000D02*
X101645000Y-68425000D01*
X100315000Y-69755000D02*
X100315000Y-68425000D01*
X100315000Y-71025000D02*
X102915000Y-71025000D01*
X100315000Y-73625000D02*
X100315000Y-71025000D01*
X100315000Y-73625000D02*
X151235000Y-73625000D01*
X102915000Y-68425000D02*
X151235000Y-68425000D01*
X102915000Y-71025000D02*
X102915000Y-68425000D01*
X111385000Y-43765000D02*
X99965000Y-43765000D01*
X111385000Y-44465000D02*
X111385000Y-43765000D01*
X130615000Y-42665000D02*
X130615000Y-44465000D01*
X130615000Y-44465000D02*
X111385000Y-44465000D01*
X138735000Y-42665000D02*
X130615000Y-42665000D01*
X138735000Y-44465000D02*
X138735000Y-42665000D01*
X143215000Y-42665000D02*
X143215000Y-44465000D01*
X143215000Y-44465000D02*
X138735000Y-44465000D01*
X151235000Y-73625000D02*
X151235000Y-68425000D01*
X151335000Y-42665000D02*
X143215000Y-42665000D01*
X151335000Y-44465000D02*
X151335000Y-42665000D01*
X155275000Y-44465000D02*
X151335000Y-44465000D01*
X155275000Y-74585000D02*
X96275000Y-74585000D01*
X158335000Y-50965000D02*
X158335000Y-47525000D01*
X158335000Y-68085000D02*
X158335000Y-71525000D01*
X158335000Y-68085000D02*
X159535000Y-68085000D01*
X159535000Y-50965000D02*
X158335000Y-50965000D01*
X159535000Y-68085000D02*
X159535000Y-50965000D01*
X93215000Y-47525000D02*
G75*
G02*
X96275000Y-44465000I3060000J0D01*
G01*
X96275000Y-74585000D02*
G75*
G02*
X93215000Y-71525000I-1J3059999D01*
G01*
X155275000Y-44465000D02*
G75*
G02*
X158335000Y-47525000I0J-3060000D01*
G01*
X158335000Y-71525000D02*
G75*
G02*
X155275000Y-74585000I-3059999J-1D01*
G01*
%TO.C,BAT1*%
X74700000Y-83000000D02*
G75*
G02*
X73300000Y-83000000I-700000J0D01*
G01*
X73300000Y-83000000D02*
G75*
G02*
X74700000Y-83000000I700000J0D01*
G01*
%TO.C,D2*%
X150765000Y-82700000D02*
X150765000Y-84985000D01*
X150765000Y-84985000D02*
X152235000Y-84985000D01*
X152235000Y-84985000D02*
X152235000Y-82700000D01*
%TO.C,R4*%
X153497500Y-79262742D02*
X153497500Y-79737258D01*
X154542500Y-79262742D02*
X154542500Y-79737258D01*
%TO.C,R5*%
X150987500Y-79262742D02*
X150987500Y-79737258D01*
X152032500Y-79262742D02*
X152032500Y-79737258D01*
%TO.C,J4_M1_MOT1*%
X113650000Y-33400000D02*
X113650000Y-36550000D01*
X113650000Y-36550000D02*
X116500000Y-39150000D01*
X116500000Y-30850000D02*
X113650000Y-33400000D01*
X116500000Y-39150000D02*
X129350000Y-39150000D01*
X129350000Y-30850000D02*
X116500000Y-30850000D01*
X129350000Y-39150000D02*
X129350000Y-30850000D01*
%TO.C,R6*%
X148477500Y-79262742D02*
X148477500Y-79737258D01*
X149522500Y-79262742D02*
X149522500Y-79737258D01*
%TD*%
M02*
