%TF.GenerationSoftware,KiCad,Pcbnew,8.0.6-8.0.6-0~ubuntu24.04.1*%
%TF.CreationDate,2024-11-13T13:21:27+01:00*%
%TF.ProjectId,drn2,64726e32-2e6b-4696-9361-645f70636258,rev?*%
%TF.SameCoordinates,Original*%
%TF.FileFunction,Copper,L2,Bot*%
%TF.FilePolarity,Positive*%
%FSLAX46Y46*%
G04 Gerber Fmt 4.6, Leading zero omitted, Abs format (unit mm)*
G04 Created by KiCad (PCBNEW 8.0.6-8.0.6-0~ubuntu24.04.1) date 2024-11-13 13:21:27*
%MOMM*%
%LPD*%
G01*
G04 APERTURE LIST*
G04 Aperture macros list*
%AMRoundRect*
0 Rectangle with rounded corners*
0 $1 Rounding radius*
0 $2 $3 $4 $5 $6 $7 $8 $9 X,Y pos of 4 corners*
0 Add a 4 corners polygon primitive as box body*
4,1,4,$2,$3,$4,$5,$6,$7,$8,$9,$2,$3,0*
0 Add four circle primitives for the rounded corners*
1,1,$1+$1,$2,$3*
1,1,$1+$1,$4,$5*
1,1,$1+$1,$6,$7*
1,1,$1+$1,$8,$9*
0 Add four rect primitives between the rounded corners*
20,1,$1+$1,$2,$3,$4,$5,0*
20,1,$1+$1,$4,$5,$6,$7,0*
20,1,$1+$1,$6,$7,$8,$9,0*
20,1,$1+$1,$8,$9,$2,$3,0*%
G04 Aperture macros list end*
%TA.AperFunction,ComponentPad*%
%ADD10R,1.700000X1.700000*%
%TD*%
%TA.AperFunction,ComponentPad*%
%ADD11O,1.700000X1.700000*%
%TD*%
%TA.AperFunction,ComponentPad*%
%ADD12RoundRect,1.500000X-1.500000X-1.500000X1.500000X-1.500000X1.500000X1.500000X-1.500000X1.500000X0*%
%TD*%
%TA.AperFunction,ComponentPad*%
%ADD13C,6.000000*%
%TD*%
%TA.AperFunction,ComponentPad*%
%ADD14C,0.800000*%
%TD*%
%TA.AperFunction,ComponentPad*%
%ADD15C,6.400000*%
%TD*%
%TA.AperFunction,ComponentPad*%
%ADD16RoundRect,0.250000X-0.600000X-0.725000X0.600000X-0.725000X0.600000X0.725000X-0.600000X0.725000X0*%
%TD*%
%TA.AperFunction,ComponentPad*%
%ADD17O,1.700000X1.950000*%
%TD*%
%TA.AperFunction,ComponentPad*%
%ADD18RoundRect,1.500000X-1.500000X1.500000X-1.500000X-1.500000X1.500000X-1.500000X1.500000X1.500000X0*%
%TD*%
%TA.AperFunction,ComponentPad*%
%ADD19RoundRect,1.500000X1.500000X-1.500000X1.500000X1.500000X-1.500000X1.500000X-1.500000X-1.500000X0*%
%TD*%
%TA.AperFunction,ViaPad*%
%ADD20C,0.600000*%
%TD*%
%TA.AperFunction,Conductor*%
%ADD21C,0.200000*%
%TD*%
G04 APERTURE END LIST*
D10*
%TO.P,J11,1,Pin_1*%
%TO.N,Net-(J11-Pin_1)*%
X165000000Y-56275000D03*
D11*
%TO.P,J11,2,Pin_2*%
%TO.N,Net-(J11-Pin_2)*%
X165000000Y-53735000D03*
%TO.P,J11,3,Pin_3*%
%TO.N,Net-(J11-Pin_3)*%
X165000000Y-51195000D03*
%TD*%
D10*
%TO.P,J3,1,Pin_1*%
%TO.N,Net-(J2-GPIO18{slash}PWM0)*%
X138000000Y-79975000D03*
D11*
%TO.P,J3,2,Pin_2*%
%TO.N,/5V*%
X138000000Y-82515000D03*
%TO.P,J3,3,Pin_3*%
%TO.N,/GND*%
X138000000Y-85055000D03*
%TD*%
D10*
%TO.P,J10,1,Pin_1*%
%TO.N,Net-(J10-Pin_1)*%
X85250000Y-81290000D03*
D11*
%TO.P,J10,2,Pin_2*%
%TO.N,Net-(J10-Pin_2)*%
X85250000Y-78750000D03*
%TO.P,J10,3,Pin_3*%
%TO.N,Net-(J10-Pin_3)*%
X85250000Y-76210000D03*
%TD*%
D12*
%TO.P,J3_F2_BAT1,1,Pin_1*%
%TO.N,/GND*%
X67400000Y-47000000D03*
D13*
%TO.P,J3_F2_BAT1,2,Pin_2*%
%TO.N,/11.1*%
X74600000Y-47000000D03*
%TD*%
D12*
%TO.P,J4_M0_MOT0,1,Pin_1*%
%TO.N,/GND*%
X67400000Y-73000000D03*
D13*
%TO.P,J4_M0_MOT0,2,Pin_2*%
%TO.N,/11.1*%
X74600000Y-73000000D03*
%TD*%
D10*
%TO.P,J1,1,Pin_1*%
%TO.N,Net-(J1-Pin_1)*%
X145500000Y-80000000D03*
D11*
%TO.P,J1,2,Pin_2*%
%TO.N,/5V*%
X145500000Y-82540000D03*
%TO.P,J1,3,Pin_3*%
%TO.N,/GND*%
X145500000Y-85080000D03*
%TD*%
D10*
%TO.P,J13,1,Pin_1*%
%TO.N,Net-(J13-Pin_1)*%
X165000000Y-65790000D03*
D11*
%TO.P,J13,2,Pin_2*%
%TO.N,Net-(J13-Pin_2)*%
X165000000Y-63250000D03*
%TO.P,J13,3,Pin_3*%
%TO.N,Net-(J13-Pin_3)*%
X165000000Y-60710000D03*
%TD*%
D12*
%TO.P,J4_M3_MOT3,1,Pin_1*%
%TO.N,/GND*%
X117900000Y-108000000D03*
D13*
%TO.P,J4_M3_MOT3,2,Pin_2*%
%TO.N,/11.1*%
X125100000Y-108000000D03*
%TD*%
D10*
%TO.P,J12,1,Pin_1*%
%TO.N,Net-(J12-Pin_1)*%
X165000000Y-75290000D03*
D11*
%TO.P,J12,2,Pin_2*%
%TO.N,Net-(J12-Pin_2)*%
X165000000Y-72750000D03*
%TO.P,J12,3,Pin_3*%
%TO.N,Net-(J12-Pin_3)*%
X165000000Y-70210000D03*
%TD*%
D10*
%TO.P,J15,1,Pin_1*%
%TO.N,/5V*%
X85920000Y-86000000D03*
D11*
%TO.P,J15,2,Pin_2*%
X88460000Y-86000000D03*
%TO.P,J15,3,Pin_3*%
X91000000Y-86000000D03*
%TD*%
D10*
%TO.P,J4,1,Pin_1*%
%TO.N,Net-(J2-PWM1{slash}GPIO13)*%
X130500000Y-80000000D03*
D11*
%TO.P,J4,2,Pin_2*%
%TO.N,/5V*%
X130500000Y-82540000D03*
%TO.P,J4,3,Pin_3*%
%TO.N,/GND*%
X130500000Y-85080000D03*
%TD*%
D12*
%TO.P,J4_M4_BEC_IN1,1,Pin_1*%
%TO.N,/GND*%
X67400000Y-60000000D03*
D13*
%TO.P,J4_M4_BEC_IN1,2,Pin_2*%
%TO.N,/11.1*%
X74600000Y-60000000D03*
%TD*%
D14*
%TO.P,GND2,1,1*%
%TO.N,/GND*%
X171600000Y-107000000D03*
X172302944Y-105302944D03*
X172302944Y-108697056D03*
X174000000Y-104600000D03*
D15*
X174000000Y-107000000D03*
D14*
X174000000Y-109400000D03*
X175697056Y-105302944D03*
X175697056Y-108697056D03*
X176400000Y-107000000D03*
%TD*%
D10*
%TO.P,J8,1,Pin_1*%
%TO.N,/GND*%
X114580000Y-78500000D03*
D11*
%TO.P,J8,2,Pin_2*%
%TO.N,Net-(J2-GPIO15{slash}RXD)*%
X112040000Y-78500000D03*
%TO.P,J8,3,Pin_3*%
%TO.N,Net-(J2-GPIO14{slash}TXD)*%
X109500000Y-78500000D03*
%TD*%
D14*
%TO.P,GND1,1,1*%
%TO.N,/GND*%
X64600000Y-107000000D03*
X65302944Y-105302944D03*
X65302944Y-108697056D03*
X67000000Y-104600000D03*
D15*
X67000000Y-107000000D03*
D14*
X67000000Y-109400000D03*
X68697056Y-105302944D03*
X68697056Y-108697056D03*
X69400000Y-107000000D03*
%TD*%
D16*
%TO.P,J5,1,Pin_1*%
%TO.N,/GND*%
X120500000Y-91000000D03*
D17*
%TO.P,J5,2,Pin_2*%
%TO.N,Net-(J2-GPIO19{slash}MISO1)*%
X123000000Y-91000000D03*
%TO.P,J5,3,Pin_3*%
%TO.N,/5V*%
X125500000Y-91000000D03*
%TO.P,J5,4,Pin_4*%
%TO.N,/GND*%
X128000000Y-91000000D03*
%TO.P,J5,5,Pin_5*%
%TO.N,Net-(J2-PWM1{slash}GPIO13)*%
X130500000Y-91000000D03*
%TO.P,J5,6,Pin_6*%
%TO.N,/5V*%
X133000000Y-91000000D03*
%TO.P,J5,7,Pin_7*%
%TO.N,/GND*%
X135500000Y-91000000D03*
%TO.P,J5,8,Pin_8*%
%TO.N,Net-(J2-GPIO18{slash}PWM0)*%
X138000000Y-91000000D03*
%TO.P,J5,9,Pin_9*%
%TO.N,/5V*%
X140500000Y-91000000D03*
%TO.P,J5,10,Pin_10*%
%TO.N,/GND*%
X143000000Y-91000000D03*
%TO.P,J5,11,Pin_11*%
%TO.N,Net-(J1-Pin_1)*%
X145500000Y-91000000D03*
%TO.P,J5,12,Pin_12*%
%TO.N,/5V*%
X148000000Y-91000000D03*
%TD*%
D10*
%TO.P,J6,1,Pin_1*%
%TO.N,/GND*%
X73840000Y-37000000D03*
D11*
%TO.P,J6,2,Pin_2*%
%TO.N,/11.1*%
X76380000Y-37000000D03*
%TO.P,J6,3,Pin_3*%
%TO.N,/GND*%
X78920000Y-37000000D03*
%TO.P,J6,4,Pin_4*%
%TO.N,/11.1*%
X81460000Y-37000000D03*
%TO.P,J6,5,Pin_5*%
%TO.N,/GND*%
X84000000Y-37000000D03*
%TO.P,J6,6,Pin_6*%
%TO.N,/11.1*%
X86540000Y-37000000D03*
%TO.P,J6,7,Pin_7*%
%TO.N,/GND*%
X89080000Y-37000000D03*
%TO.P,J6,8,Pin_8*%
%TO.N,/11.1*%
X91620000Y-37000000D03*
%TD*%
D10*
%TO.P,J16,1,Pin_1*%
%TO.N,Net-(J16-Pin_1)*%
X160750000Y-70975000D03*
D11*
%TO.P,J16,2,Pin_2*%
%TO.N,/5V*%
X160750000Y-73515000D03*
%TO.P,J16,3,Pin_3*%
%TO.N,/GND*%
X160750000Y-76055000D03*
%TD*%
D10*
%TO.P,J9,1,Pin_1*%
%TO.N,Net-(J2-GPIO27)*%
X85250000Y-69540000D03*
D11*
%TO.P,J9,2,Pin_2*%
%TO.N,Net-(J2-GPIO17)*%
X85250000Y-67000000D03*
%TO.P,J9,3,Pin_3*%
%TO.N,Net-(J2-GCLK0{slash}GPIO4)*%
X85250000Y-64460000D03*
%TD*%
D18*
%TO.P,J4_M2_MOT2,1,Pin_1*%
%TO.N,/GND*%
X174400000Y-71000000D03*
D13*
%TO.P,J4_M2_MOT2,2,Pin_2*%
%TO.N,/11.1*%
X174400000Y-78200000D03*
%TD*%
D14*
%TO.P,GND3,1,1*%
%TO.N,/GND*%
X64600000Y-34000000D03*
X65302944Y-32302944D03*
X65302944Y-35697056D03*
X67000000Y-31600000D03*
D15*
X67000000Y-34000000D03*
D14*
X67000000Y-36400000D03*
X68697056Y-32302944D03*
X68697056Y-35697056D03*
X69400000Y-34000000D03*
%TD*%
D19*
%TO.P,J3_F1_BEC_OUT1,1,Pin_1*%
%TO.N,/GND*%
X88000000Y-55600000D03*
D13*
%TO.P,J3_F1_BEC_OUT1,2,Pin_2*%
%TO.N,/5V*%
X88000000Y-48400000D03*
%TD*%
D10*
%TO.P,J7,1,Pin_1*%
%TO.N,Net-(J2-GPIO19{slash}MISO1)*%
X123000000Y-80000000D03*
D11*
%TO.P,J7,2,Pin_2*%
%TO.N,/5V*%
X123000000Y-82540000D03*
%TO.P,J7,3,Pin_3*%
%TO.N,/GND*%
X123000000Y-85080000D03*
%TD*%
D10*
%TO.P,J2,1,3V3*%
%TO.N,/3.3*%
X101645000Y-69755000D03*
D11*
%TO.P,J2,2,5V*%
%TO.N,/5V*%
X101645000Y-72295000D03*
%TO.P,J2,3,SDA/GPIO2*%
%TO.N,Net-(ACCGYRO1-SDA{slash}SDI{slash}SDO)*%
X104185000Y-69755000D03*
%TO.P,J2,4,5V*%
%TO.N,/5V*%
X104185000Y-72295000D03*
%TO.P,J2,5,SCL/GPIO3*%
%TO.N,Net-(ACCGYRO1-SCL{slash}SPC)*%
X106725000Y-69755000D03*
%TO.P,J2,6,GND*%
%TO.N,/GND*%
X106725000Y-72295000D03*
%TO.P,J2,7,GCLK0/GPIO4*%
%TO.N,Net-(J2-GCLK0{slash}GPIO4)*%
X109265000Y-69755000D03*
%TO.P,J2,8,GPIO14/TXD*%
%TO.N,Net-(J2-GPIO14{slash}TXD)*%
X109265000Y-72295000D03*
%TO.P,J2,9,GND*%
%TO.N,/GND*%
X111805000Y-69755000D03*
%TO.P,J2,10,GPIO15/RXD*%
%TO.N,Net-(J2-GPIO15{slash}RXD)*%
X111805000Y-72295000D03*
%TO.P,J2,11,GPIO17*%
%TO.N,Net-(J2-GPIO17)*%
X114345000Y-69755000D03*
%TO.P,J2,12,GPIO18/PWM0*%
%TO.N,Net-(J2-GPIO18{slash}PWM0)*%
X114345000Y-72295000D03*
%TO.P,J2,13,GPIO27*%
%TO.N,Net-(J2-GPIO27)*%
X116885000Y-69755000D03*
%TO.P,J2,14,GND*%
%TO.N,/GND*%
X116885000Y-72295000D03*
%TO.P,J2,15,GPIO22*%
%TO.N,Net-(J11-Pin_3)*%
X119425000Y-69755000D03*
%TO.P,J2,16,GPIO23*%
%TO.N,Net-(J10-Pin_3)*%
X119425000Y-72295000D03*
%TO.P,J2,17,3V3*%
%TO.N,/3.3*%
X121965000Y-69755000D03*
%TO.P,J2,18,GPIO24*%
%TO.N,Net-(J10-Pin_2)*%
X121965000Y-72295000D03*
%TO.P,J2,19,MOSI0/GPIO10*%
%TO.N,Net-(J11-Pin_2)*%
X124505000Y-69755000D03*
%TO.P,J2,20,GND*%
%TO.N,/GND*%
X124505000Y-72295000D03*
%TO.P,J2,21,MISO0/GPIO9*%
%TO.N,Net-(J11-Pin_1)*%
X127045000Y-69755000D03*
%TO.P,J2,22,GPIO25*%
%TO.N,Net-(J10-Pin_1)*%
X127045000Y-72295000D03*
%TO.P,J2,23,SCLK0/GPIO11*%
%TO.N,unconnected-(J2-SCLK0{slash}GPIO11-Pad23)*%
X129585000Y-69755000D03*
%TO.P,J2,24,~{CE0}/GPIO8*%
%TO.N,Net-(J12-Pin_1)*%
X129585000Y-72295000D03*
%TO.P,J2,25,GND*%
%TO.N,/GND*%
X132125000Y-69755000D03*
%TO.P,J2,26,~{CE1}/GPIO7*%
%TO.N,Net-(J12-Pin_2)*%
X132125000Y-72295000D03*
%TO.P,J2,27,ID_SD/GPIO0*%
%TO.N,Net-(J13-Pin_3)*%
X134665000Y-69755000D03*
%TO.P,J2,28,ID_SC/GPIO1*%
%TO.N,Net-(J12-Pin_3)*%
X134665000Y-72295000D03*
%TO.P,J2,29,GCLK1/GPIO5*%
%TO.N,Net-(J13-Pin_2)*%
X137205000Y-69755000D03*
%TO.P,J2,30,GND*%
%TO.N,/GND*%
X137205000Y-72295000D03*
%TO.P,J2,31,GCLK2/GPIO6*%
%TO.N,Net-(J13-Pin_1)*%
X139745000Y-69755000D03*
%TO.P,J2,32,PWM0/GPIO12*%
%TO.N,Net-(J1-Pin_1)*%
X139745000Y-72295000D03*
%TO.P,J2,33,PWM1/GPIO13*%
%TO.N,Net-(J2-PWM1{slash}GPIO13)*%
X142285000Y-69755000D03*
%TO.P,J2,34,GND*%
%TO.N,/GND*%
X142285000Y-72295000D03*
%TO.P,J2,35,GPIO19/MISO1*%
%TO.N,Net-(J2-GPIO19{slash}MISO1)*%
X144825000Y-69755000D03*
%TO.P,J2,36,GPIO16*%
%TO.N,Net-(J2-GPIO16)*%
X144825000Y-72295000D03*
%TO.P,J2,37,GPIO26*%
%TO.N,Net-(J16-Pin_1)*%
X147365000Y-69755000D03*
%TO.P,J2,38,GPIO20/MOSI1*%
%TO.N,Net-(J2-GPIO20{slash}MOSI1)*%
X147365000Y-72295000D03*
%TO.P,J2,39,GND*%
%TO.N,/GND*%
X149905000Y-69755000D03*
%TO.P,J2,40,GPIO21/SCLK1*%
%TO.N,Net-(J2-GPIO21{slash}SCLK1)*%
X149905000Y-72295000D03*
%TD*%
D10*
%TO.P,J14,1,Pin_1*%
%TO.N,/GND*%
X85920000Y-90650000D03*
D11*
%TO.P,J14,2,Pin_2*%
X88460000Y-90650000D03*
%TO.P,J14,3,Pin_3*%
X91000000Y-90650000D03*
%TD*%
D12*
%TO.P,J4_M1_MOT1,1,Pin_1*%
%TO.N,/GND*%
X117900000Y-35000000D03*
D13*
%TO.P,J4_M1_MOT1,2,Pin_2*%
%TO.N,/11.1*%
X125100000Y-35000000D03*
%TD*%
D14*
%TO.P,GND4,1,1*%
%TO.N,/GND*%
X171600000Y-34000000D03*
X172302944Y-32302944D03*
X172302944Y-35697056D03*
X174000000Y-31600000D03*
D15*
X174000000Y-34000000D03*
D14*
X174000000Y-36400000D03*
X175697056Y-32302944D03*
X175697056Y-35697056D03*
X176400000Y-34000000D03*
%TD*%
D20*
%TO.N,Net-(ACCGYRO1-SCL{slash}SPC)*%
X106000000Y-81412500D03*
X106000000Y-82612500D03*
X104065687Y-79565687D03*
X103065687Y-80565687D03*
%TO.N,Net-(ACCGYRO1-SDA{slash}SDI{slash}SDO)*%
X102500000Y-80000000D03*
X103500000Y-79000000D03*
%TO.N,/GND*%
X168000000Y-101000000D03*
X82000000Y-41000000D03*
X168000000Y-41000000D03*
X105000000Y-84500000D03*
X88000000Y-98000000D03*
X82000000Y-41000000D03*
X82000000Y-101000000D03*
X151500000Y-85500000D03*
X65000000Y-83000000D03*
X82000000Y-41000000D03*
X82000000Y-41000000D03*
X82000000Y-41000000D03*
X92500000Y-43000000D03*
X110500000Y-85000000D03*
X82000000Y-41000000D03*
X135500000Y-98000000D03*
X162000000Y-44000000D03*
X162000000Y-98000000D03*
%TO.N,/5V*%
X90000000Y-79500000D03*
X103000000Y-75500000D03*
X94000000Y-75500000D03*
X101000000Y-74500000D03*
%TO.N,Net-(J10-Pin_3)*%
X120500000Y-63500000D03*
%TO.N,Net-(J10-Pin_1)*%
X125500000Y-63500000D03*
%TO.N,Net-(J13-Pin_2)*%
X137250000Y-63400000D03*
%TO.N,Net-(J2-GPIO17)*%
X112750000Y-62500000D03*
%TO.N,Net-(J11-Pin_2)*%
X124500000Y-65000000D03*
%TO.N,Net-(J13-Pin_1)*%
X139750000Y-63400000D03*
%TO.N,Net-(J12-Pin_2)*%
X133250000Y-64650000D03*
%TO.N,Net-(J10-Pin_2)*%
X122710735Y-63690735D03*
%TO.N,Net-(J12-Pin_3)*%
X135750000Y-64000000D03*
%TO.N,Net-(J12-Pin_1)*%
X131000000Y-65250000D03*
%TO.N,Net-(J11-Pin_1)*%
X127000000Y-64750000D03*
%TO.N,Net-(J13-Pin_3)*%
X135875000Y-62875000D03*
%TO.N,Net-(J11-Pin_3)*%
X119500000Y-65250000D03*
%TO.N,Net-(J2-GPIO27)*%
X115940000Y-63440000D03*
%TO.N,Net-(J2-GCLK0{slash}GPIO4)*%
X108450000Y-61800000D03*
%TD*%
D21*
%TO.N,Net-(J2-GPIO27)*%
X115940000Y-63440000D02*
X116885000Y-64385000D01*
X116885000Y-64385000D02*
X116885000Y-69755000D01*
%TO.N,Net-(J13-Pin_3)*%
X134665000Y-64085000D02*
X134665000Y-69755000D01*
X135875000Y-62875000D02*
X134665000Y-64085000D01*
%TO.N,Net-(J10-Pin_2)*%
X122710735Y-63690735D02*
X123115000Y-64095000D01*
X123115000Y-71145000D02*
X121965000Y-72295000D01*
X123115000Y-64095000D02*
X123115000Y-71145000D01*
%TO.N,/5V*%
X94000000Y-75500000D02*
X90000000Y-79500000D01*
%TO.N,Net-(ACCGYRO1-SCL{slash}SPC)*%
X106000000Y-81412500D02*
X106000000Y-82612500D01*
X104065687Y-79565687D02*
X103065687Y-80565687D01*
%TO.N,Net-(ACCGYRO1-SDA{slash}SDI{slash}SDO)*%
X102500000Y-80000000D02*
X103500000Y-79000000D01*
%TO.N,/5V*%
X102000000Y-74500000D02*
X103000000Y-75500000D01*
X101000000Y-74500000D02*
X102000000Y-74500000D01*
%TO.N,Net-(J10-Pin_3)*%
X119425000Y-72295000D02*
X120815000Y-70905000D01*
X120815000Y-63815000D02*
X120500000Y-63500000D01*
X120815000Y-70905000D02*
X120815000Y-63815000D01*
%TO.N,Net-(J10-Pin_1)*%
X125655000Y-70905000D02*
X125655000Y-63655000D01*
X125655000Y-63655000D02*
X125500000Y-63500000D01*
X127045000Y-72295000D02*
X125655000Y-70905000D01*
%TO.N,Net-(J13-Pin_2)*%
X137205000Y-63445000D02*
X137250000Y-63400000D01*
X137205000Y-69755000D02*
X137205000Y-63445000D01*
%TO.N,Net-(J2-GPIO17)*%
X112750000Y-62500000D02*
X114345000Y-64095000D01*
X114345000Y-64095000D02*
X114345000Y-69755000D01*
%TO.N,Net-(J11-Pin_2)*%
X124505000Y-69755000D02*
X124505000Y-65005000D01*
X124505000Y-65005000D02*
X124500000Y-65000000D01*
%TO.N,Net-(J13-Pin_1)*%
X139745000Y-69755000D02*
X139745000Y-63405000D01*
X139745000Y-63405000D02*
X139750000Y-63400000D01*
%TO.N,Net-(J12-Pin_2)*%
X133275000Y-71145000D02*
X133275000Y-64675000D01*
X133275000Y-64675000D02*
X133250000Y-64650000D01*
X132125000Y-72295000D02*
X133275000Y-71145000D01*
%TO.N,Net-(J12-Pin_3)*%
X135815000Y-64065000D02*
X135750000Y-64000000D01*
X134665000Y-72295000D02*
X135815000Y-71145000D01*
X135815000Y-71145000D02*
X135815000Y-64065000D01*
%TO.N,Net-(J12-Pin_1)*%
X130975000Y-65275000D02*
X131000000Y-65250000D01*
X130975000Y-70905000D02*
X130975000Y-65275000D01*
X129585000Y-72295000D02*
X130975000Y-70905000D01*
%TO.N,Net-(J11-Pin_1)*%
X127045000Y-64795000D02*
X127000000Y-64750000D01*
X127045000Y-69755000D02*
X127045000Y-64795000D01*
%TO.N,Net-(J11-Pin_3)*%
X119425000Y-69755000D02*
X119425000Y-65325000D01*
X119425000Y-65325000D02*
X119500000Y-65250000D01*
%TO.N,Net-(J2-GCLK0{slash}GPIO4)*%
X109265000Y-62615000D02*
X109265000Y-69755000D01*
X108450000Y-61800000D02*
X109265000Y-62615000D01*
%TD*%
%TA.AperFunction,Conductor*%
%TO.N,/GND*%
G36*
X87994075Y-90457007D02*
G01*
X87960000Y-90584174D01*
X87960000Y-90715826D01*
X87994075Y-90842993D01*
X88026988Y-90900000D01*
X86353012Y-90900000D01*
X86385925Y-90842993D01*
X86420000Y-90715826D01*
X86420000Y-90584174D01*
X86385925Y-90457007D01*
X86353012Y-90400000D01*
X88026988Y-90400000D01*
X87994075Y-90457007D01*
G37*
%TD.AperFunction*%
%TA.AperFunction,Conductor*%
G36*
X90534075Y-90457007D02*
G01*
X90500000Y-90584174D01*
X90500000Y-90715826D01*
X90534075Y-90842993D01*
X90566988Y-90900000D01*
X88893012Y-90900000D01*
X88925925Y-90842993D01*
X88960000Y-90715826D01*
X88960000Y-90584174D01*
X88925925Y-90457007D01*
X88893012Y-90400000D01*
X90566988Y-90400000D01*
X90534075Y-90457007D01*
G37*
%TD.AperFunction*%
%TA.AperFunction,Conductor*%
G36*
X180943039Y-27019685D02*
G01*
X180988794Y-27072489D01*
X181000000Y-27124000D01*
X181000000Y-113876000D01*
X180980315Y-113943039D01*
X180927511Y-113988794D01*
X180876000Y-114000000D01*
X60124000Y-114000000D01*
X60056961Y-113980315D01*
X60011206Y-113927511D01*
X60000000Y-113876000D01*
X60000000Y-106999999D01*
X63294922Y-106999999D01*
X63294922Y-107000000D01*
X63315219Y-107387287D01*
X63375886Y-107770323D01*
X63375887Y-107770330D01*
X63476262Y-108144936D01*
X63615244Y-108506994D01*
X63791310Y-108852543D01*
X64002531Y-109177793D01*
X64211095Y-109435350D01*
X64211096Y-109435350D01*
X65705748Y-107940698D01*
X65779588Y-108042330D01*
X65957670Y-108220412D01*
X66059300Y-108294251D01*
X64564648Y-109788903D01*
X64564649Y-109788904D01*
X64822206Y-109997468D01*
X65147456Y-110208689D01*
X65493005Y-110384755D01*
X65855063Y-110523737D01*
X66229669Y-110624112D01*
X66229676Y-110624113D01*
X66612712Y-110684780D01*
X66999999Y-110705078D01*
X67000001Y-110705078D01*
X67387287Y-110684780D01*
X67770323Y-110624113D01*
X67770330Y-110624112D01*
X68144936Y-110523737D01*
X68506994Y-110384755D01*
X68852543Y-110208689D01*
X69177783Y-109997476D01*
X69177785Y-109997475D01*
X69435349Y-109788902D01*
X67940698Y-108294251D01*
X68042330Y-108220412D01*
X68220412Y-108042330D01*
X68294251Y-107940698D01*
X69788902Y-109435349D01*
X69997475Y-109177785D01*
X69997476Y-109177783D01*
X70208689Y-108852543D01*
X70384755Y-108506994D01*
X70523737Y-108144936D01*
X70624112Y-107770330D01*
X70624113Y-107770323D01*
X70684780Y-107387287D01*
X70705078Y-107000000D01*
X70705078Y-106999999D01*
X70684780Y-106612712D01*
X70655614Y-106428563D01*
X114400000Y-106428563D01*
X114400000Y-107750000D01*
X115663498Y-107750000D01*
X115650000Y-107852527D01*
X115650000Y-108147473D01*
X115663498Y-108250000D01*
X114400000Y-108250000D01*
X114400000Y-109571436D01*
X114415300Y-109785362D01*
X114476109Y-110064895D01*
X114576091Y-110332958D01*
X114713191Y-110584038D01*
X114713192Y-110584039D01*
X114884639Y-110813065D01*
X114884649Y-110813077D01*
X115086922Y-111015350D01*
X115086934Y-111015360D01*
X115315960Y-111186807D01*
X115315961Y-111186808D01*
X115567042Y-111323908D01*
X115567041Y-111323908D01*
X115835104Y-111423890D01*
X116114637Y-111484699D01*
X116328563Y-111499999D01*
X116328566Y-111500000D01*
X117650000Y-111500000D01*
X117650000Y-110236502D01*
X117752527Y-110250000D01*
X118047473Y-110250000D01*
X118150000Y-110236502D01*
X118150000Y-111500000D01*
X119471434Y-111500000D01*
X119471436Y-111499999D01*
X119685362Y-111484699D01*
X119964895Y-111423890D01*
X120232958Y-111323908D01*
X120484038Y-111186808D01*
X120484039Y-111186807D01*
X120713065Y-111015360D01*
X120713077Y-111015350D01*
X120915350Y-110813077D01*
X120915360Y-110813065D01*
X121086807Y-110584039D01*
X121086808Y-110584038D01*
X121223908Y-110332958D01*
X121323890Y-110064895D01*
X121384699Y-109785362D01*
X121399999Y-109571436D01*
X121400000Y-109571434D01*
X121400000Y-108591472D01*
X121419685Y-108524433D01*
X121472489Y-108478678D01*
X121541647Y-108468734D01*
X121605203Y-108497759D01*
X121642977Y-108556537D01*
X121646473Y-108572074D01*
X121671294Y-108728788D01*
X121671294Y-108728790D01*
X121766260Y-109083206D01*
X121897746Y-109425739D01*
X122064320Y-109752656D01*
X122264147Y-110060364D01*
X122417712Y-110250000D01*
X122495051Y-110345506D01*
X122754494Y-110604949D01*
X122778160Y-110624113D01*
X123039635Y-110835852D01*
X123347343Y-111035679D01*
X123347348Y-111035682D01*
X123674264Y-111202255D01*
X124016801Y-111333742D01*
X124371206Y-111428705D01*
X124733596Y-111486102D01*
X125079734Y-111504241D01*
X125099999Y-111505304D01*
X125100000Y-111505304D01*
X125100001Y-111505304D01*
X125119203Y-111504297D01*
X125466404Y-111486102D01*
X125828794Y-111428705D01*
X126183199Y-111333742D01*
X126525736Y-111202255D01*
X126852652Y-111035682D01*
X127160366Y-110835851D01*
X127445506Y-110604949D01*
X127704949Y-110345506D01*
X127935851Y-110060366D01*
X128135682Y-109752652D01*
X128302255Y-109425736D01*
X128433742Y-109083199D01*
X128528705Y-108728794D01*
X128586102Y-108366404D01*
X128605304Y-108000000D01*
X128586102Y-107633596D01*
X128528705Y-107271206D01*
X128456035Y-106999999D01*
X170294922Y-106999999D01*
X170294922Y-107000000D01*
X170315219Y-107387287D01*
X170375886Y-107770323D01*
X170375887Y-107770330D01*
X170476262Y-108144936D01*
X170615244Y-108506994D01*
X170791310Y-108852543D01*
X171002531Y-109177793D01*
X171211095Y-109435350D01*
X171211096Y-109435350D01*
X172705748Y-107940698D01*
X172779588Y-108042330D01*
X172957670Y-108220412D01*
X173059300Y-108294251D01*
X171564648Y-109788903D01*
X171564649Y-109788904D01*
X171822206Y-109997468D01*
X172147456Y-110208689D01*
X172493005Y-110384755D01*
X172855063Y-110523737D01*
X173229669Y-110624112D01*
X173229676Y-110624113D01*
X173612712Y-110684780D01*
X173999999Y-110705078D01*
X174000001Y-110705078D01*
X174387287Y-110684780D01*
X174770323Y-110624113D01*
X174770330Y-110624112D01*
X175144936Y-110523737D01*
X175506994Y-110384755D01*
X175852543Y-110208689D01*
X176177783Y-109997476D01*
X176177785Y-109997475D01*
X176435349Y-109788902D01*
X174940698Y-108294251D01*
X175042330Y-108220412D01*
X175220412Y-108042330D01*
X175294251Y-107940698D01*
X176788902Y-109435349D01*
X176997475Y-109177785D01*
X176997476Y-109177783D01*
X177208689Y-108852543D01*
X177384755Y-108506994D01*
X177523737Y-108144936D01*
X177624112Y-107770330D01*
X177624113Y-107770323D01*
X177684780Y-107387287D01*
X177705078Y-107000000D01*
X177705078Y-106999999D01*
X177684780Y-106612712D01*
X177624113Y-106229676D01*
X177624112Y-106229669D01*
X177523737Y-105855063D01*
X177384755Y-105493005D01*
X177208689Y-105147456D01*
X176997468Y-104822206D01*
X176788904Y-104564649D01*
X176788903Y-104564648D01*
X175294251Y-106059300D01*
X175220412Y-105957670D01*
X175042330Y-105779588D01*
X174940698Y-105705748D01*
X176435350Y-104211096D01*
X176435350Y-104211095D01*
X176177793Y-104002531D01*
X175852543Y-103791310D01*
X175506994Y-103615244D01*
X175144936Y-103476262D01*
X174770330Y-103375887D01*
X174770323Y-103375886D01*
X174387287Y-103315219D01*
X174000001Y-103294922D01*
X173999999Y-103294922D01*
X173612712Y-103315219D01*
X173229676Y-103375886D01*
X173229669Y-103375887D01*
X172855063Y-103476262D01*
X172493005Y-103615244D01*
X172147456Y-103791310D01*
X171822206Y-104002531D01*
X171564648Y-104211095D01*
X171564648Y-104211096D01*
X173059301Y-105705748D01*
X172957670Y-105779588D01*
X172779588Y-105957670D01*
X172705748Y-106059300D01*
X171211096Y-104564648D01*
X171211095Y-104564648D01*
X171002531Y-104822206D01*
X170791310Y-105147456D01*
X170615244Y-105493005D01*
X170476262Y-105855063D01*
X170375887Y-106229669D01*
X170375886Y-106229676D01*
X170315219Y-106612712D01*
X170294922Y-106999999D01*
X128456035Y-106999999D01*
X128433742Y-106916801D01*
X128302255Y-106574264D01*
X128135682Y-106247348D01*
X128124201Y-106229669D01*
X127935852Y-105939635D01*
X127704952Y-105654498D01*
X127704949Y-105654494D01*
X127445506Y-105395051D01*
X127413010Y-105368736D01*
X127160364Y-105164147D01*
X126852656Y-104964320D01*
X126525739Y-104797746D01*
X126183206Y-104666260D01*
X126183199Y-104666258D01*
X125828794Y-104571295D01*
X125828790Y-104571294D01*
X125828789Y-104571294D01*
X125466405Y-104513898D01*
X125100001Y-104494696D01*
X125099999Y-104494696D01*
X124733594Y-104513898D01*
X124371211Y-104571294D01*
X124371209Y-104571294D01*
X124016793Y-104666260D01*
X123674260Y-104797746D01*
X123347343Y-104964320D01*
X123039635Y-105164147D01*
X122754498Y-105395047D01*
X122754490Y-105395054D01*
X122495054Y-105654490D01*
X122495047Y-105654498D01*
X122264147Y-105939635D01*
X122064320Y-106247343D01*
X121897746Y-106574260D01*
X121766260Y-106916793D01*
X121671294Y-107271209D01*
X121671294Y-107271211D01*
X121646473Y-107427925D01*
X121616544Y-107491060D01*
X121557232Y-107527991D01*
X121487370Y-107526993D01*
X121429137Y-107488383D01*
X121401023Y-107424419D01*
X121400000Y-107408527D01*
X121400000Y-106428566D01*
X121399999Y-106428563D01*
X121384699Y-106214637D01*
X121323890Y-105935104D01*
X121223908Y-105667041D01*
X121086808Y-105415961D01*
X121086807Y-105415960D01*
X120915360Y-105186934D01*
X120915350Y-105186922D01*
X120713077Y-104984649D01*
X120713065Y-104984639D01*
X120484039Y-104813192D01*
X120484038Y-104813191D01*
X120232957Y-104676091D01*
X120232958Y-104676091D01*
X119964895Y-104576109D01*
X119685362Y-104515300D01*
X119471436Y-104500000D01*
X118150000Y-104500000D01*
X118150000Y-105763497D01*
X118047473Y-105750000D01*
X117752527Y-105750000D01*
X117650000Y-105763497D01*
X117650000Y-104500000D01*
X116328563Y-104500000D01*
X116114637Y-104515300D01*
X115835104Y-104576109D01*
X115567041Y-104676091D01*
X115315961Y-104813191D01*
X115315960Y-104813192D01*
X115086934Y-104984639D01*
X115086922Y-104984649D01*
X114884649Y-105186922D01*
X114884639Y-105186934D01*
X114713192Y-105415960D01*
X114713191Y-105415961D01*
X114576091Y-105667041D01*
X114476109Y-105935104D01*
X114415300Y-106214637D01*
X114400000Y-106428563D01*
X70655614Y-106428563D01*
X70624113Y-106229676D01*
X70624112Y-106229669D01*
X70523737Y-105855063D01*
X70384755Y-105493005D01*
X70208689Y-105147456D01*
X69997468Y-104822206D01*
X69788904Y-104564649D01*
X69788903Y-104564648D01*
X68294251Y-106059300D01*
X68220412Y-105957670D01*
X68042330Y-105779588D01*
X67940698Y-105705748D01*
X69435350Y-104211096D01*
X69435350Y-104211095D01*
X69177793Y-104002531D01*
X68852543Y-103791310D01*
X68506994Y-103615244D01*
X68144936Y-103476262D01*
X67770330Y-103375887D01*
X67770323Y-103375886D01*
X67387287Y-103315219D01*
X67000001Y-103294922D01*
X66999999Y-103294922D01*
X66612712Y-103315219D01*
X66229676Y-103375886D01*
X66229669Y-103375887D01*
X65855063Y-103476262D01*
X65493005Y-103615244D01*
X65147456Y-103791310D01*
X64822206Y-104002531D01*
X64564648Y-104211095D01*
X64564648Y-104211096D01*
X66059301Y-105705748D01*
X65957670Y-105779588D01*
X65779588Y-105957670D01*
X65705748Y-106059300D01*
X64211096Y-104564648D01*
X64211095Y-104564648D01*
X64002531Y-104822206D01*
X63791310Y-105147456D01*
X63615244Y-105493005D01*
X63476262Y-105855063D01*
X63375887Y-106229669D01*
X63375886Y-106229676D01*
X63315219Y-106612712D01*
X63294922Y-106999999D01*
X60000000Y-106999999D01*
X60000000Y-92916228D01*
X118049500Y-92916228D01*
X118049500Y-93083771D01*
X118082182Y-93248074D01*
X118082184Y-93248082D01*
X118146295Y-93402860D01*
X118239373Y-93542162D01*
X118357837Y-93660626D01*
X118450494Y-93722537D01*
X118497137Y-93753703D01*
X118651918Y-93817816D01*
X118816228Y-93850499D01*
X118816232Y-93850500D01*
X118816233Y-93850500D01*
X118983768Y-93850500D01*
X118983769Y-93850499D01*
X119148082Y-93817816D01*
X119302863Y-93753703D01*
X119442162Y-93660626D01*
X119560626Y-93542162D01*
X119653703Y-93402863D01*
X119717816Y-93248082D01*
X119750500Y-93083767D01*
X119750500Y-92916233D01*
X119717816Y-92751918D01*
X119671698Y-92640582D01*
X119664230Y-92571115D01*
X119695505Y-92508636D01*
X119755593Y-92472983D01*
X119798864Y-92469773D01*
X119850021Y-92474999D01*
X120249999Y-92474999D01*
X120250000Y-92474998D01*
X120250000Y-91404145D01*
X120316657Y-91442630D01*
X120437465Y-91475000D01*
X120562535Y-91475000D01*
X120683343Y-91442630D01*
X120750000Y-91404145D01*
X120750000Y-92474999D01*
X121149972Y-92474999D01*
X121149986Y-92474998D01*
X121252697Y-92464505D01*
X121419119Y-92409358D01*
X121419124Y-92409356D01*
X121568345Y-92317315D01*
X121692317Y-92193343D01*
X121787815Y-92038516D01*
X121839763Y-91991791D01*
X121908725Y-91980568D01*
X121972808Y-92008412D01*
X121981035Y-92015931D01*
X122120213Y-92155109D01*
X122292179Y-92280048D01*
X122292181Y-92280049D01*
X122292184Y-92280051D01*
X122481588Y-92376557D01*
X122683757Y-92442246D01*
X122893713Y-92475500D01*
X122893714Y-92475500D01*
X123106286Y-92475500D01*
X123106287Y-92475500D01*
X123316243Y-92442246D01*
X123518412Y-92376557D01*
X123707816Y-92280051D01*
X123754275Y-92246297D01*
X123879786Y-92155109D01*
X123879788Y-92155106D01*
X123879792Y-92155104D01*
X124030104Y-92004792D01*
X124149683Y-91840204D01*
X124205011Y-91797540D01*
X124274624Y-91791561D01*
X124336420Y-91824166D01*
X124350313Y-91840199D01*
X124362658Y-91857190D01*
X124469896Y-92004792D01*
X124620213Y-92155109D01*
X124792179Y-92280048D01*
X124792181Y-92280049D01*
X124792184Y-92280051D01*
X124981588Y-92376557D01*
X125183757Y-92442246D01*
X125393713Y-92475500D01*
X125393714Y-92475500D01*
X125606286Y-92475500D01*
X125606287Y-92475500D01*
X125816243Y-92442246D01*
X126018412Y-92376557D01*
X126207816Y-92280051D01*
X126254275Y-92246297D01*
X126379786Y-92155109D01*
X126379788Y-92155106D01*
X126379792Y-92155104D01*
X126530104Y-92004792D01*
X126649991Y-91839779D01*
X126705320Y-91797115D01*
X126774933Y-91791136D01*
X126836729Y-91823741D01*
X126850627Y-91839781D01*
X126970272Y-92004459D01*
X126970276Y-92004464D01*
X127120535Y-92154723D01*
X127120540Y-92154727D01*
X127292442Y-92279620D01*
X127481782Y-92376095D01*
X127683871Y-92441757D01*
X127750000Y-92452231D01*
X127750000Y-91404145D01*
X127816657Y-91442630D01*
X127937465Y-91475000D01*
X128062535Y-91475000D01*
X128183343Y-91442630D01*
X128250000Y-91404145D01*
X128250000Y-92452230D01*
X128316126Y-92441757D01*
X128316129Y-92441757D01*
X128518217Y-92376095D01*
X128707557Y-92279620D01*
X128879459Y-92154727D01*
X128879464Y-92154723D01*
X129029721Y-92004466D01*
X129149371Y-91839781D01*
X129204701Y-91797115D01*
X129274314Y-91791136D01*
X129336110Y-91823741D01*
X129350008Y-91839781D01*
X129469890Y-92004785D01*
X129469894Y-92004790D01*
X129620213Y-92155109D01*
X129792179Y-92280048D01*
X129792181Y-92280049D01*
X129792184Y-92280051D01*
X129981588Y-92376557D01*
X130183757Y-92442246D01*
X130393713Y-92475500D01*
X130393714Y-92475500D01*
X130606286Y-92475500D01*
X130606287Y-92475500D01*
X130816243Y-92442246D01*
X131018412Y-92376557D01*
X131207816Y-92280051D01*
X131254275Y-92246297D01*
X131379786Y-92155109D01*
X131379788Y-92155106D01*
X131379792Y-92155104D01*
X131530104Y-92004792D01*
X131649683Y-91840204D01*
X131705011Y-91797540D01*
X131774624Y-91791561D01*
X131836420Y-91824166D01*
X131850313Y-91840199D01*
X131862658Y-91857190D01*
X131969896Y-92004792D01*
X132120213Y-92155109D01*
X132292179Y-92280048D01*
X132292181Y-92280049D01*
X132292184Y-92280051D01*
X132481588Y-92376557D01*
X132683757Y-92442246D01*
X132893713Y-92475500D01*
X132893714Y-92475500D01*
X133106286Y-92475500D01*
X133106287Y-92475500D01*
X133316243Y-92442246D01*
X133518412Y-92376557D01*
X133707816Y-92280051D01*
X133754275Y-92246297D01*
X133879786Y-92155109D01*
X133879788Y-92155106D01*
X133879792Y-92155104D01*
X134030104Y-92004792D01*
X134149991Y-91839779D01*
X134205320Y-91797115D01*
X134274933Y-91791136D01*
X134336729Y-91823741D01*
X134350627Y-91839781D01*
X134470272Y-92004459D01*
X134470276Y-92004464D01*
X134620535Y-92154723D01*
X134620540Y-92154727D01*
X134792442Y-92279620D01*
X134981782Y-92376095D01*
X135183871Y-92441757D01*
X135250000Y-92452231D01*
X135250000Y-91404145D01*
X135316657Y-91442630D01*
X135437465Y-91475000D01*
X135562535Y-91475000D01*
X135683343Y-91442630D01*
X135750000Y-91404145D01*
X135750000Y-92452230D01*
X135816126Y-92441757D01*
X135816129Y-92441757D01*
X136018217Y-92376095D01*
X136207557Y-92279620D01*
X136379459Y-92154727D01*
X136379464Y-92154723D01*
X136529721Y-92004466D01*
X136649371Y-91839781D01*
X136704701Y-91797115D01*
X136774314Y-91791136D01*
X136836110Y-91823741D01*
X136850008Y-91839781D01*
X136969890Y-92004785D01*
X136969894Y-92004790D01*
X137120213Y-92155109D01*
X137292179Y-92280048D01*
X137292181Y-92280049D01*
X137292184Y-92280051D01*
X137481588Y-92376557D01*
X137683757Y-92442246D01*
X137893713Y-92475500D01*
X137893714Y-92475500D01*
X138106286Y-92475500D01*
X138106287Y-92475500D01*
X138316243Y-92442246D01*
X138518412Y-92376557D01*
X138707816Y-92280051D01*
X138754275Y-92246297D01*
X138879786Y-92155109D01*
X138879788Y-92155106D01*
X138879792Y-92155104D01*
X139030104Y-92004792D01*
X139149683Y-91840204D01*
X139205011Y-91797540D01*
X139274624Y-91791561D01*
X139336420Y-91824166D01*
X139350313Y-91840199D01*
X139362658Y-91857190D01*
X139469896Y-92004792D01*
X139620213Y-92155109D01*
X139792179Y-92280048D01*
X139792181Y-92280049D01*
X139792184Y-92280051D01*
X139981588Y-92376557D01*
X140183757Y-92442246D01*
X140393713Y-92475500D01*
X140393714Y-92475500D01*
X140606286Y-92475500D01*
X140606287Y-92475500D01*
X140816243Y-92442246D01*
X141018412Y-92376557D01*
X141207816Y-92280051D01*
X141254275Y-92246297D01*
X141379786Y-92155109D01*
X141379788Y-92155106D01*
X141379792Y-92155104D01*
X141530104Y-92004792D01*
X141649991Y-91839779D01*
X141705320Y-91797115D01*
X141774933Y-91791136D01*
X141836729Y-91823741D01*
X141850627Y-91839781D01*
X141970272Y-92004459D01*
X141970276Y-92004464D01*
X142120535Y-92154723D01*
X142120540Y-92154727D01*
X142292442Y-92279620D01*
X142481782Y-92376095D01*
X142683871Y-92441757D01*
X142750000Y-92452231D01*
X142750000Y-91404145D01*
X142816657Y-91442630D01*
X142937465Y-91475000D01*
X143062535Y-91475000D01*
X143183343Y-91442630D01*
X143250000Y-91404145D01*
X143250000Y-92452230D01*
X143316126Y-92441757D01*
X143316129Y-92441757D01*
X143518217Y-92376095D01*
X143707557Y-92279620D01*
X143879459Y-92154727D01*
X143879464Y-92154723D01*
X144029721Y-92004466D01*
X144149371Y-91839781D01*
X144204701Y-91797115D01*
X144274314Y-91791136D01*
X144336110Y-91823741D01*
X144350008Y-91839781D01*
X144469890Y-92004785D01*
X144469894Y-92004790D01*
X144620213Y-92155109D01*
X144792179Y-92280048D01*
X144792181Y-92280049D01*
X144792184Y-92280051D01*
X144981588Y-92376557D01*
X145183757Y-92442246D01*
X145393713Y-92475500D01*
X145393714Y-92475500D01*
X145606286Y-92475500D01*
X145606287Y-92475500D01*
X145816243Y-92442246D01*
X146018412Y-92376557D01*
X146207816Y-92280051D01*
X146254275Y-92246297D01*
X146379786Y-92155109D01*
X146379788Y-92155106D01*
X146379792Y-92155104D01*
X146530104Y-92004792D01*
X146649683Y-91840204D01*
X146705011Y-91797540D01*
X146774624Y-91791561D01*
X146836420Y-91824166D01*
X146850313Y-91840199D01*
X146862658Y-91857190D01*
X146969896Y-92004792D01*
X147120213Y-92155109D01*
X147292179Y-92280048D01*
X147292181Y-92280049D01*
X147292184Y-92280051D01*
X147481588Y-92376557D01*
X147683757Y-92442246D01*
X147893713Y-92475500D01*
X147893714Y-92475500D01*
X148106286Y-92475500D01*
X148106287Y-92475500D01*
X148316243Y-92442246D01*
X148518412Y-92376557D01*
X148707816Y-92280051D01*
X148754275Y-92246297D01*
X148879786Y-92155109D01*
X148879788Y-92155106D01*
X148879792Y-92155104D01*
X149030104Y-92004792D01*
X149030106Y-92004788D01*
X149030109Y-92004786D01*
X149155048Y-91832820D01*
X149155047Y-91832820D01*
X149155051Y-91832816D01*
X149251557Y-91643412D01*
X149317246Y-91441243D01*
X149350500Y-91231287D01*
X149350500Y-90768713D01*
X149317246Y-90558757D01*
X149251557Y-90356588D01*
X149155051Y-90167184D01*
X149155049Y-90167181D01*
X149155048Y-90167179D01*
X149030109Y-89995213D01*
X148879786Y-89844890D01*
X148707820Y-89719951D01*
X148518414Y-89623444D01*
X148518413Y-89623443D01*
X148518412Y-89623443D01*
X148316243Y-89557754D01*
X148316241Y-89557753D01*
X148316240Y-89557753D01*
X148154957Y-89532208D01*
X148106287Y-89524500D01*
X147893713Y-89524500D01*
X147845042Y-89532208D01*
X147683760Y-89557753D01*
X147481585Y-89623444D01*
X147292179Y-89719951D01*
X147120213Y-89844890D01*
X146969894Y-89995209D01*
X146969890Y-89995214D01*
X146850318Y-90159793D01*
X146794989Y-90202459D01*
X146725375Y-90208438D01*
X146663580Y-90175833D01*
X146649682Y-90159793D01*
X146530109Y-89995214D01*
X146530105Y-89995209D01*
X146379786Y-89844890D01*
X146207820Y-89719951D01*
X146018414Y-89623444D01*
X146018413Y-89623443D01*
X146018412Y-89623443D01*
X145816243Y-89557754D01*
X145816241Y-89557753D01*
X145816240Y-89557753D01*
X145654957Y-89532208D01*
X145606287Y-89524500D01*
X145393713Y-89524500D01*
X145345042Y-89532208D01*
X145183760Y-89557753D01*
X144981585Y-89623444D01*
X144792179Y-89719951D01*
X144620213Y-89844890D01*
X144469894Y-89995209D01*
X144469890Y-89995214D01*
X144350008Y-90160218D01*
X144294678Y-90202884D01*
X144225065Y-90208863D01*
X144163270Y-90176257D01*
X144149372Y-90160218D01*
X144029727Y-89995540D01*
X144029723Y-89995535D01*
X143879464Y-89845276D01*
X143879459Y-89845272D01*
X143707557Y-89720379D01*
X143518215Y-89623903D01*
X143316124Y-89558241D01*
X143250000Y-89547768D01*
X143250000Y-90595854D01*
X143183343Y-90557370D01*
X143062535Y-90525000D01*
X142937465Y-90525000D01*
X142816657Y-90557370D01*
X142750000Y-90595854D01*
X142750000Y-89547768D01*
X142749999Y-89547768D01*
X142683875Y-89558241D01*
X142481784Y-89623903D01*
X142292442Y-89720379D01*
X142120540Y-89845272D01*
X142120535Y-89845276D01*
X141970276Y-89995535D01*
X141970272Y-89995540D01*
X141850627Y-90160218D01*
X141795297Y-90202884D01*
X141725684Y-90208863D01*
X141663889Y-90176257D01*
X141649991Y-90160218D01*
X141530109Y-89995214D01*
X141530105Y-89995209D01*
X141379786Y-89844890D01*
X141207820Y-89719951D01*
X141018414Y-89623444D01*
X141018413Y-89623443D01*
X141018412Y-89623443D01*
X140816243Y-89557754D01*
X140816241Y-89557753D01*
X140816240Y-89557753D01*
X140654957Y-89532208D01*
X140606287Y-89524500D01*
X140393713Y-89524500D01*
X140345042Y-89532208D01*
X140183760Y-89557753D01*
X139981585Y-89623444D01*
X139792179Y-89719951D01*
X139620213Y-89844890D01*
X139469894Y-89995209D01*
X139469890Y-89995214D01*
X139350318Y-90159793D01*
X139294989Y-90202459D01*
X139225375Y-90208438D01*
X139163580Y-90175833D01*
X139149682Y-90159793D01*
X139030109Y-89995214D01*
X139030105Y-89995209D01*
X138879786Y-89844890D01*
X138707820Y-89719951D01*
X138518414Y-89623444D01*
X138518413Y-89623443D01*
X138518412Y-89623443D01*
X138316243Y-89557754D01*
X138316241Y-89557753D01*
X138316240Y-89557753D01*
X138154957Y-89532208D01*
X138106287Y-89524500D01*
X137893713Y-89524500D01*
X137845042Y-89532208D01*
X137683760Y-89557753D01*
X137481585Y-89623444D01*
X137292179Y-89719951D01*
X137120213Y-89844890D01*
X136969894Y-89995209D01*
X136969890Y-89995214D01*
X136850008Y-90160218D01*
X136794678Y-90202884D01*
X136725065Y-90208863D01*
X136663270Y-90176257D01*
X136649372Y-90160218D01*
X136529727Y-89995540D01*
X136529723Y-89995535D01*
X136379464Y-89845276D01*
X136379459Y-89845272D01*
X136207557Y-89720379D01*
X136018215Y-89623903D01*
X135816124Y-89558241D01*
X135750000Y-89547768D01*
X135750000Y-90595854D01*
X135683343Y-90557370D01*
X135562535Y-90525000D01*
X135437465Y-90525000D01*
X135316657Y-90557370D01*
X135250000Y-90595854D01*
X135250000Y-89547768D01*
X135249999Y-89547768D01*
X135183875Y-89558241D01*
X134981784Y-89623903D01*
X134792442Y-89720379D01*
X134620540Y-89845272D01*
X134620535Y-89845276D01*
X134470276Y-89995535D01*
X134470272Y-89995540D01*
X134350627Y-90160218D01*
X134295297Y-90202884D01*
X134225684Y-90208863D01*
X134163889Y-90176257D01*
X134149991Y-90160218D01*
X134030109Y-89995214D01*
X134030105Y-89995209D01*
X133879786Y-89844890D01*
X133707820Y-89719951D01*
X133518414Y-89623444D01*
X133518413Y-89623443D01*
X133518412Y-89623443D01*
X133316243Y-89557754D01*
X133316241Y-89557753D01*
X133316240Y-89557753D01*
X133154957Y-89532208D01*
X133106287Y-89524500D01*
X132893713Y-89524500D01*
X132845042Y-89532208D01*
X132683760Y-89557753D01*
X132481585Y-89623444D01*
X132292179Y-89719951D01*
X132120213Y-89844890D01*
X131969894Y-89995209D01*
X131969890Y-89995214D01*
X131850318Y-90159793D01*
X131794989Y-90202459D01*
X131725375Y-90208438D01*
X131663580Y-90175833D01*
X131649682Y-90159793D01*
X131530109Y-89995214D01*
X131530105Y-89995209D01*
X131379786Y-89844890D01*
X131207820Y-89719951D01*
X131018414Y-89623444D01*
X131018413Y-89623443D01*
X131018412Y-89623443D01*
X130816243Y-89557754D01*
X130816241Y-89557753D01*
X130816240Y-89557753D01*
X130654957Y-89532208D01*
X130606287Y-89524500D01*
X130393713Y-89524500D01*
X130345042Y-89532208D01*
X130183760Y-89557753D01*
X129981585Y-89623444D01*
X129792179Y-89719951D01*
X129620213Y-89844890D01*
X129469894Y-89995209D01*
X129469890Y-89995214D01*
X129350008Y-90160218D01*
X129294678Y-90202884D01*
X129225065Y-90208863D01*
X129163270Y-90176257D01*
X129149372Y-90160218D01*
X129029727Y-89995540D01*
X129029723Y-89995535D01*
X128879464Y-89845276D01*
X128879459Y-89845272D01*
X128707557Y-89720379D01*
X128518215Y-89623903D01*
X128316124Y-89558241D01*
X128250000Y-89547768D01*
X128250000Y-90595854D01*
X128183343Y-90557370D01*
X128062535Y-90525000D01*
X127937465Y-90525000D01*
X127816657Y-90557370D01*
X127750000Y-90595854D01*
X127750000Y-89547768D01*
X127749999Y-89547768D01*
X127683875Y-89558241D01*
X127481784Y-89623903D01*
X127292442Y-89720379D01*
X127120540Y-89845272D01*
X127120535Y-89845276D01*
X126970276Y-89995535D01*
X126970272Y-89995540D01*
X126850627Y-90160218D01*
X126795297Y-90202884D01*
X126725684Y-90208863D01*
X126663889Y-90176257D01*
X126649991Y-90160218D01*
X126530109Y-89995214D01*
X126530105Y-89995209D01*
X126379786Y-89844890D01*
X126207820Y-89719951D01*
X126018414Y-89623444D01*
X126018413Y-89623443D01*
X126018412Y-89623443D01*
X125816243Y-89557754D01*
X125816241Y-89557753D01*
X125816240Y-89557753D01*
X125654957Y-89532208D01*
X125606287Y-89524500D01*
X125393713Y-89524500D01*
X125345042Y-89532208D01*
X125183760Y-89557753D01*
X124981585Y-89623444D01*
X124792179Y-89719951D01*
X124620213Y-89844890D01*
X124469894Y-89995209D01*
X124469890Y-89995214D01*
X124350318Y-90159793D01*
X124294989Y-90202459D01*
X124225375Y-90208438D01*
X124163580Y-90175833D01*
X124149682Y-90159793D01*
X124030109Y-89995214D01*
X124030105Y-89995209D01*
X123879786Y-89844890D01*
X123707820Y-89719951D01*
X123518414Y-89623444D01*
X123518413Y-89623443D01*
X123518412Y-89623443D01*
X123316243Y-89557754D01*
X123316241Y-89557753D01*
X123316240Y-89557753D01*
X123154957Y-89532208D01*
X123106287Y-89524500D01*
X122893713Y-89524500D01*
X122845042Y-89532208D01*
X122683760Y-89557753D01*
X122481585Y-89623444D01*
X122292179Y-89719951D01*
X122120215Y-89844889D01*
X121981035Y-89984069D01*
X121919712Y-90017553D01*
X121850020Y-90012569D01*
X121794087Y-89970697D01*
X121787815Y-89961484D01*
X121692315Y-89806654D01*
X121568345Y-89682684D01*
X121419124Y-89590643D01*
X121419119Y-89590641D01*
X121252697Y-89535494D01*
X121252690Y-89535493D01*
X121149986Y-89525000D01*
X120750000Y-89525000D01*
X120750000Y-90595854D01*
X120683343Y-90557370D01*
X120562535Y-90525000D01*
X120437465Y-90525000D01*
X120316657Y-90557370D01*
X120250000Y-90595854D01*
X120250000Y-89525000D01*
X119850028Y-89525000D01*
X119850012Y-89525001D01*
X119747302Y-89535494D01*
X119580880Y-89590641D01*
X119580875Y-89590643D01*
X119431654Y-89682684D01*
X119307684Y-89806654D01*
X119215643Y-89955875D01*
X119215641Y-89955880D01*
X119160494Y-90122302D01*
X119160493Y-90122309D01*
X119150000Y-90225013D01*
X119150000Y-90750000D01*
X120095854Y-90750000D01*
X120057370Y-90816657D01*
X120025000Y-90937465D01*
X120025000Y-91062535D01*
X120057370Y-91183343D01*
X120095854Y-91250000D01*
X119150001Y-91250000D01*
X119150001Y-91774986D01*
X119160494Y-91877697D01*
X119202393Y-92004140D01*
X119204795Y-92073969D01*
X119169063Y-92134010D01*
X119106543Y-92165203D01*
X119060497Y-92164762D01*
X119008726Y-92154464D01*
X118983767Y-92149500D01*
X118816233Y-92149500D01*
X118816228Y-92149500D01*
X118651925Y-92182182D01*
X118651917Y-92182184D01*
X118497139Y-92246295D01*
X118357837Y-92339373D01*
X118239373Y-92457837D01*
X118146295Y-92597139D01*
X118082184Y-92751917D01*
X118082182Y-92751925D01*
X118049500Y-92916228D01*
X60000000Y-92916228D01*
X60000000Y-89752155D01*
X84570000Y-89752155D01*
X84570000Y-90400000D01*
X85486988Y-90400000D01*
X85454075Y-90457007D01*
X85420000Y-90584174D01*
X85420000Y-90715826D01*
X85454075Y-90842993D01*
X85486988Y-90900000D01*
X84570000Y-90900000D01*
X84570000Y-91547844D01*
X84576401Y-91607372D01*
X84576403Y-91607379D01*
X84626645Y-91742086D01*
X84626649Y-91742093D01*
X84712809Y-91857187D01*
X84712812Y-91857190D01*
X84827906Y-91943350D01*
X84827913Y-91943354D01*
X84962620Y-91993596D01*
X84962627Y-91993598D01*
X85022155Y-91999999D01*
X85022172Y-92000000D01*
X85670000Y-92000000D01*
X85670000Y-91083012D01*
X85727007Y-91115925D01*
X85854174Y-91150000D01*
X85985826Y-91150000D01*
X86112993Y-91115925D01*
X86170000Y-91083012D01*
X86170000Y-92000000D01*
X86817828Y-92000000D01*
X86817844Y-91999999D01*
X86877372Y-91993598D01*
X86877379Y-91993596D01*
X87012086Y-91943354D01*
X87012093Y-91943350D01*
X87127187Y-91857190D01*
X87127190Y-91857187D01*
X87213350Y-91742093D01*
X87213354Y-91742086D01*
X87262614Y-91610013D01*
X87304485Y-91554079D01*
X87369949Y-91529662D01*
X87438222Y-91544513D01*
X87466477Y-91565665D01*
X87588917Y-91688105D01*
X87782421Y-91823600D01*
X87996507Y-91923429D01*
X87996516Y-91923433D01*
X88210000Y-91980634D01*
X88210000Y-91083012D01*
X88267007Y-91115925D01*
X88394174Y-91150000D01*
X88525826Y-91150000D01*
X88652993Y-91115925D01*
X88710000Y-91083012D01*
X88710000Y-91980633D01*
X88923483Y-91923433D01*
X88923492Y-91923429D01*
X89137578Y-91823600D01*
X89331082Y-91688105D01*
X89498105Y-91521082D01*
X89628425Y-91334968D01*
X89683002Y-91291344D01*
X89752501Y-91284151D01*
X89814855Y-91315673D01*
X89831575Y-91334968D01*
X89961894Y-91521082D01*
X90128917Y-91688105D01*
X90322421Y-91823600D01*
X90536507Y-91923429D01*
X90536516Y-91923433D01*
X90750000Y-91980634D01*
X90750000Y-91083012D01*
X90807007Y-91115925D01*
X90934174Y-91150000D01*
X91065826Y-91150000D01*
X91192993Y-91115925D01*
X91250000Y-91083012D01*
X91250000Y-91980633D01*
X91463483Y-91923433D01*
X91463492Y-91923429D01*
X91677578Y-91823600D01*
X91871082Y-91688105D01*
X92038105Y-91521082D01*
X92173600Y-91327578D01*
X92273429Y-91113492D01*
X92273432Y-91113486D01*
X92330636Y-90900000D01*
X91433012Y-90900000D01*
X91465925Y-90842993D01*
X91500000Y-90715826D01*
X91500000Y-90584174D01*
X91465925Y-90457007D01*
X91433012Y-90400000D01*
X92330636Y-90400000D01*
X92330635Y-90399999D01*
X92273432Y-90186513D01*
X92273429Y-90186507D01*
X92173600Y-89972422D01*
X92173599Y-89972420D01*
X92038113Y-89778926D01*
X92038108Y-89778920D01*
X91871082Y-89611894D01*
X91677578Y-89476399D01*
X91463492Y-89376570D01*
X91463486Y-89376567D01*
X91250000Y-89319364D01*
X91250000Y-90216988D01*
X91192993Y-90184075D01*
X91065826Y-90150000D01*
X90934174Y-90150000D01*
X90807007Y-90184075D01*
X90750000Y-90216988D01*
X90750000Y-89319364D01*
X90749999Y-89319364D01*
X90536513Y-89376567D01*
X90536507Y-89376570D01*
X90322422Y-89476399D01*
X90322420Y-89476400D01*
X90128926Y-89611886D01*
X90128920Y-89611891D01*
X89961891Y-89778920D01*
X89961890Y-89778922D01*
X89831575Y-89965031D01*
X89776998Y-90008655D01*
X89707499Y-90015848D01*
X89645145Y-89984326D01*
X89628425Y-89965031D01*
X89498109Y-89778922D01*
X89498108Y-89778920D01*
X89331082Y-89611894D01*
X89137578Y-89476399D01*
X88923492Y-89376570D01*
X88923486Y-89376567D01*
X88710000Y-89319364D01*
X88710000Y-90216988D01*
X88652993Y-90184075D01*
X88525826Y-90150000D01*
X88394174Y-90150000D01*
X88267007Y-90184075D01*
X88210000Y-90216988D01*
X88210000Y-89319364D01*
X88209999Y-89319364D01*
X87996513Y-89376567D01*
X87996507Y-89376570D01*
X87782422Y-89476399D01*
X87782420Y-89476400D01*
X87588926Y-89611886D01*
X87466477Y-89734335D01*
X87405154Y-89767819D01*
X87335462Y-89762835D01*
X87279529Y-89720963D01*
X87262614Y-89689986D01*
X87213354Y-89557913D01*
X87213350Y-89557906D01*
X87127190Y-89442812D01*
X87127187Y-89442809D01*
X87012093Y-89356649D01*
X87012086Y-89356645D01*
X86877379Y-89306403D01*
X86877372Y-89306401D01*
X86817844Y-89300000D01*
X86170000Y-89300000D01*
X86170000Y-90216988D01*
X86112993Y-90184075D01*
X85985826Y-90150000D01*
X85854174Y-90150000D01*
X85727007Y-90184075D01*
X85670000Y-90216988D01*
X85670000Y-89300000D01*
X85022155Y-89300000D01*
X84962627Y-89306401D01*
X84962620Y-89306403D01*
X84827913Y-89356645D01*
X84827906Y-89356649D01*
X84712812Y-89442809D01*
X84712809Y-89442812D01*
X84626649Y-89557906D01*
X84626645Y-89557913D01*
X84576403Y-89692620D01*
X84576401Y-89692627D01*
X84570000Y-89752155D01*
X60000000Y-89752155D01*
X60000000Y-85102135D01*
X84569500Y-85102135D01*
X84569500Y-86897870D01*
X84569501Y-86897876D01*
X84575908Y-86957483D01*
X84626202Y-87092328D01*
X84626206Y-87092335D01*
X84712452Y-87207544D01*
X84712455Y-87207547D01*
X84827664Y-87293793D01*
X84827671Y-87293797D01*
X84962517Y-87344091D01*
X84962516Y-87344091D01*
X84969444Y-87344835D01*
X85022127Y-87350500D01*
X86817872Y-87350499D01*
X86877483Y-87344091D01*
X87012331Y-87293796D01*
X87127546Y-87207546D01*
X87213796Y-87092331D01*
X87262810Y-86960916D01*
X87304681Y-86904984D01*
X87370145Y-86880566D01*
X87438418Y-86895417D01*
X87466673Y-86916569D01*
X87588599Y-87038495D01*
X87685384Y-87106265D01*
X87782165Y-87174032D01*
X87782167Y-87174033D01*
X87782170Y-87174035D01*
X87996337Y-87273903D01*
X88224592Y-87335063D01*
X88401034Y-87350500D01*
X88459999Y-87355659D01*
X88460000Y-87355659D01*
X88460001Y-87355659D01*
X88518966Y-87350500D01*
X88695408Y-87335063D01*
X88923663Y-87273903D01*
X89137830Y-87174035D01*
X89331401Y-87038495D01*
X89498495Y-86871401D01*
X89628425Y-86685842D01*
X89683002Y-86642217D01*
X89752500Y-86635023D01*
X89814855Y-86666546D01*
X89831575Y-86685842D01*
X89961500Y-86871395D01*
X89961505Y-86871401D01*
X90128599Y-87038495D01*
X90225384Y-87106265D01*
X90322165Y-87174032D01*
X90322167Y-87174033D01*
X90322170Y-87174035D01*
X90536337Y-87273903D01*
X90764592Y-87335063D01*
X90941034Y-87350500D01*
X90999999Y-87355659D01*
X91000000Y-87355659D01*
X91000001Y-87355659D01*
X91058966Y-87350500D01*
X91235408Y-87335063D01*
X91463663Y-87273903D01*
X91677830Y-87174035D01*
X91871401Y-87038495D01*
X92038495Y-86871401D01*
X92174035Y-86677830D01*
X92273903Y-86463663D01*
X92335063Y-86235408D01*
X92355659Y-86000000D01*
X92335063Y-85764592D01*
X92273903Y-85536337D01*
X92174035Y-85322171D01*
X92168425Y-85314158D01*
X92038494Y-85128597D01*
X91871402Y-84961506D01*
X91871395Y-84961501D01*
X91677834Y-84825967D01*
X91677830Y-84825965D01*
X91677828Y-84825964D01*
X91463663Y-84726097D01*
X91463659Y-84726096D01*
X91463655Y-84726094D01*
X91235413Y-84664938D01*
X91235403Y-84664936D01*
X91000001Y-84644341D01*
X90999999Y-84644341D01*
X90764596Y-84664936D01*
X90764586Y-84664938D01*
X90536344Y-84726094D01*
X90536335Y-84726098D01*
X90322171Y-84825964D01*
X90322169Y-84825965D01*
X90128597Y-84961505D01*
X89961505Y-85128597D01*
X89831575Y-85314158D01*
X89776998Y-85357783D01*
X89707500Y-85364977D01*
X89645145Y-85333454D01*
X89628425Y-85314158D01*
X89498494Y-85128597D01*
X89331402Y-84961506D01*
X89331395Y-84961501D01*
X89137834Y-84825967D01*
X89137830Y-84825965D01*
X89137828Y-84825964D01*
X88923663Y-84726097D01*
X88923659Y-84726096D01*
X88923655Y-84726094D01*
X88695413Y-84664938D01*
X88695403Y-84664936D01*
X88460001Y-84644341D01*
X88459999Y-84644341D01*
X88224596Y-84664936D01*
X88224586Y-84664938D01*
X87996344Y-84726094D01*
X87996335Y-84726098D01*
X87782171Y-84825964D01*
X87782169Y-84825965D01*
X87588600Y-84961503D01*
X87466673Y-85083430D01*
X87405350Y-85116914D01*
X87335658Y-85111930D01*
X87279725Y-85070058D01*
X87262810Y-85039081D01*
X87213797Y-84907671D01*
X87213793Y-84907664D01*
X87127547Y-84792455D01*
X87127544Y-84792452D01*
X87012335Y-84706206D01*
X87012328Y-84706202D01*
X86877482Y-84655908D01*
X86877483Y-84655908D01*
X86817883Y-84649501D01*
X86817881Y-84649500D01*
X86817873Y-84649500D01*
X86817864Y-84649500D01*
X85022129Y-84649500D01*
X85022123Y-84649501D01*
X84962516Y-84655908D01*
X84827671Y-84706202D01*
X84827664Y-84706206D01*
X84712455Y-84792452D01*
X84712452Y-84792455D01*
X84626206Y-84907664D01*
X84626202Y-84907671D01*
X84575908Y-85042517D01*
X84569501Y-85102116D01*
X84569500Y-85102135D01*
X60000000Y-85102135D01*
X60000000Y-71428563D01*
X63900000Y-71428563D01*
X63900000Y-72750000D01*
X65163498Y-72750000D01*
X65150000Y-72852527D01*
X65150000Y-73147473D01*
X65163498Y-73250000D01*
X63900000Y-73250000D01*
X63900000Y-74571436D01*
X63915300Y-74785362D01*
X63976109Y-75064895D01*
X64076091Y-75332958D01*
X64213191Y-75584038D01*
X64213192Y-75584039D01*
X64384639Y-75813065D01*
X64384649Y-75813077D01*
X64586922Y-76015350D01*
X64586934Y-76015360D01*
X64815960Y-76186807D01*
X64815961Y-76186808D01*
X65067042Y-76323908D01*
X65067041Y-76323908D01*
X65335104Y-76423890D01*
X65614637Y-76484699D01*
X65828563Y-76499999D01*
X65828566Y-76500000D01*
X67150000Y-76500000D01*
X67150000Y-75236502D01*
X67252527Y-75250000D01*
X67547473Y-75250000D01*
X67650000Y-75236502D01*
X67650000Y-76500000D01*
X68971434Y-76500000D01*
X68971436Y-76499999D01*
X69185362Y-76484699D01*
X69464895Y-76423890D01*
X69732958Y-76323908D01*
X69984038Y-76186808D01*
X69984039Y-76186807D01*
X70213065Y-76015360D01*
X70213077Y-76015350D01*
X70415350Y-75813077D01*
X70415360Y-75813065D01*
X70586807Y-75584039D01*
X70586808Y-75584038D01*
X70723908Y-75332958D01*
X70823890Y-75064895D01*
X70884699Y-74785362D01*
X70899999Y-74571436D01*
X70900000Y-74571434D01*
X70900000Y-73591472D01*
X70919685Y-73524433D01*
X70972489Y-73478678D01*
X71041647Y-73468734D01*
X71105203Y-73497759D01*
X71142977Y-73556537D01*
X71146472Y-73572073D01*
X71171295Y-73728794D01*
X71266058Y-74082454D01*
X71266260Y-74083206D01*
X71397746Y-74425739D01*
X71564320Y-74752656D01*
X71764147Y-75060364D01*
X71898105Y-75225788D01*
X71995051Y-75345506D01*
X72254494Y-75604949D01*
X72254498Y-75604952D01*
X72539635Y-75835852D01*
X72847343Y-76035679D01*
X72847348Y-76035682D01*
X73174264Y-76202255D01*
X73516801Y-76333742D01*
X73871206Y-76428705D01*
X74233596Y-76486102D01*
X74579734Y-76504241D01*
X74599999Y-76505304D01*
X74600000Y-76505304D01*
X74600001Y-76505304D01*
X74619203Y-76504297D01*
X74966404Y-76486102D01*
X75328794Y-76428705D01*
X75683199Y-76333742D01*
X76005562Y-76209999D01*
X83894341Y-76209999D01*
X83894341Y-76210000D01*
X83914936Y-76445403D01*
X83914938Y-76445413D01*
X83976094Y-76673655D01*
X83976096Y-76673659D01*
X83976097Y-76673663D01*
X84023008Y-76774264D01*
X84075965Y-76887830D01*
X84075967Y-76887834D01*
X84211501Y-77081395D01*
X84211506Y-77081402D01*
X84378597Y-77248493D01*
X84378603Y-77248498D01*
X84564158Y-77378425D01*
X84607783Y-77433002D01*
X84614977Y-77502500D01*
X84583454Y-77564855D01*
X84564158Y-77581575D01*
X84378597Y-77711505D01*
X84211505Y-77878597D01*
X84075965Y-78072169D01*
X84075964Y-78072171D01*
X83976098Y-78286335D01*
X83976094Y-78286344D01*
X83914938Y-78514586D01*
X83914936Y-78514596D01*
X83894341Y-78749999D01*
X83894341Y-78750000D01*
X83914936Y-78985403D01*
X83914938Y-78985413D01*
X83976094Y-79213655D01*
X83976096Y-79213659D01*
X83976097Y-79213663D01*
X84026033Y-79320750D01*
X84075965Y-79427830D01*
X84075967Y-79427834D01*
X84160960Y-79549215D01*
X84211501Y-79621396D01*
X84211506Y-79621402D01*
X84333430Y-79743326D01*
X84366915Y-79804649D01*
X84361931Y-79874341D01*
X84320059Y-79930274D01*
X84289083Y-79947189D01*
X84157669Y-79996203D01*
X84157664Y-79996206D01*
X84042455Y-80082452D01*
X84042452Y-80082455D01*
X83956206Y-80197664D01*
X83956202Y-80197671D01*
X83905908Y-80332517D01*
X83899501Y-80392116D01*
X83899501Y-80392123D01*
X83899500Y-80392135D01*
X83899500Y-82187870D01*
X83899501Y-82187876D01*
X83905908Y-82247483D01*
X83956202Y-82382328D01*
X83956206Y-82382335D01*
X84042452Y-82497544D01*
X84042455Y-82497547D01*
X84157664Y-82583793D01*
X84157671Y-82583797D01*
X84292517Y-82634091D01*
X84292516Y-82634091D01*
X84299444Y-82634835D01*
X84352127Y-82640500D01*
X86147872Y-82640499D01*
X86207483Y-82634091D01*
X86342331Y-82583796D01*
X86457546Y-82497546D01*
X86543796Y-82382331D01*
X86594091Y-82247483D01*
X86600500Y-82187873D01*
X86600500Y-81412496D01*
X105194435Y-81412496D01*
X105194435Y-81412503D01*
X105214630Y-81591749D01*
X105214631Y-81591754D01*
X105274211Y-81762023D01*
X105370185Y-81914763D01*
X105372445Y-81917597D01*
X105373334Y-81919775D01*
X105373889Y-81920658D01*
X105373734Y-81920755D01*
X105398855Y-81982283D01*
X105399500Y-81994912D01*
X105399500Y-82030087D01*
X105379815Y-82097126D01*
X105372450Y-82107396D01*
X105370186Y-82110234D01*
X105274211Y-82262976D01*
X105214631Y-82433245D01*
X105214630Y-82433250D01*
X105194435Y-82612496D01*
X105194435Y-82612503D01*
X105214630Y-82791749D01*
X105214631Y-82791754D01*
X105274211Y-82962023D01*
X105300376Y-83003664D01*
X105370184Y-83114762D01*
X105497738Y-83242316D01*
X105650478Y-83338289D01*
X105787957Y-83386395D01*
X105820745Y-83397868D01*
X105820750Y-83397869D01*
X105999996Y-83418065D01*
X106000000Y-83418065D01*
X106000004Y-83418065D01*
X106179249Y-83397869D01*
X106179252Y-83397868D01*
X106179255Y-83397868D01*
X106349522Y-83338289D01*
X106502262Y-83242316D01*
X106629816Y-83114762D01*
X106725789Y-82962022D01*
X106785368Y-82791755D01*
X106785369Y-82791749D01*
X106805565Y-82612503D01*
X106805565Y-82612496D01*
X106797397Y-82539999D01*
X121644341Y-82539999D01*
X121644341Y-82540000D01*
X121664936Y-82775403D01*
X121664938Y-82775413D01*
X121726094Y-83003655D01*
X121726096Y-83003659D01*
X121726097Y-83003663D01*
X121814307Y-83192830D01*
X121825965Y-83217830D01*
X121825967Y-83217834D01*
X121843110Y-83242316D01*
X121961505Y-83411401D01*
X122128599Y-83578495D01*
X122286466Y-83689035D01*
X122314594Y-83708730D01*
X122358219Y-83763307D01*
X122365413Y-83832805D01*
X122333890Y-83895160D01*
X122314595Y-83911880D01*
X122128922Y-84041890D01*
X122128920Y-84041891D01*
X121961891Y-84208920D01*
X121961886Y-84208926D01*
X121826400Y-84402420D01*
X121826399Y-84402422D01*
X121726570Y-84616507D01*
X121726567Y-84616513D01*
X121669364Y-84829999D01*
X121669364Y-84830000D01*
X122566988Y-84830000D01*
X122534075Y-84887007D01*
X122500000Y-85014174D01*
X122500000Y-85145826D01*
X122534075Y-85272993D01*
X122566988Y-85330000D01*
X121669364Y-85330000D01*
X121726567Y-85543486D01*
X121726570Y-85543492D01*
X121826399Y-85757578D01*
X121961894Y-85951082D01*
X122128917Y-86118105D01*
X122322421Y-86253600D01*
X122536507Y-86353429D01*
X122536516Y-86353433D01*
X122750000Y-86410634D01*
X122750000Y-85513012D01*
X122807007Y-85545925D01*
X122934174Y-85580000D01*
X123065826Y-85580000D01*
X123192993Y-85545925D01*
X123250000Y-85513012D01*
X123250000Y-86410634D01*
X123463483Y-86353433D01*
X123463492Y-86353429D01*
X123677578Y-86253600D01*
X123871082Y-86118105D01*
X124038105Y-85951082D01*
X124173600Y-85757578D01*
X124273429Y-85543492D01*
X124273432Y-85543486D01*
X124330636Y-85330000D01*
X123433012Y-85330000D01*
X123465925Y-85272993D01*
X123500000Y-85145826D01*
X123500000Y-85014174D01*
X123465925Y-84887007D01*
X123433012Y-84830000D01*
X124330636Y-84830000D01*
X124330635Y-84829999D01*
X124273432Y-84616513D01*
X124273429Y-84616507D01*
X124173600Y-84402422D01*
X124173599Y-84402420D01*
X124038113Y-84208926D01*
X124038108Y-84208920D01*
X123871078Y-84041890D01*
X123685405Y-83911879D01*
X123641780Y-83857302D01*
X123634588Y-83787804D01*
X123666110Y-83725449D01*
X123685406Y-83708730D01*
X123871401Y-83578495D01*
X124038495Y-83411401D01*
X124174035Y-83217830D01*
X124273903Y-83003663D01*
X124335063Y-82775408D01*
X124355659Y-82540000D01*
X124355659Y-82539999D01*
X129144341Y-82539999D01*
X129144341Y-82540000D01*
X129164936Y-82775403D01*
X129164938Y-82775413D01*
X129226094Y-83003655D01*
X129226096Y-83003659D01*
X129226097Y-83003663D01*
X129314307Y-83192830D01*
X129325965Y-83217830D01*
X129325967Y-83217834D01*
X129343110Y-83242316D01*
X129461505Y-83411401D01*
X129628599Y-83578495D01*
X129786466Y-83689035D01*
X129814594Y-83708730D01*
X129858219Y-83763307D01*
X129865413Y-83832805D01*
X129833890Y-83895160D01*
X129814595Y-83911880D01*
X129628922Y-84041890D01*
X129628920Y-84041891D01*
X129461891Y-84208920D01*
X129461886Y-84208926D01*
X129326400Y-84402420D01*
X129326399Y-84402422D01*
X129226570Y-84616507D01*
X129226567Y-84616513D01*
X129169364Y-84829999D01*
X129169364Y-84830000D01*
X130066988Y-84830000D01*
X130034075Y-84887007D01*
X130000000Y-85014174D01*
X130000000Y-85145826D01*
X130034075Y-85272993D01*
X130066988Y-85330000D01*
X129169364Y-85330000D01*
X129226567Y-85543486D01*
X129226570Y-85543492D01*
X129326399Y-85757578D01*
X129461894Y-85951082D01*
X129628917Y-86118105D01*
X129822421Y-86253600D01*
X130036507Y-86353429D01*
X130036516Y-86353433D01*
X130250000Y-86410634D01*
X130250000Y-85513012D01*
X130307007Y-85545925D01*
X130434174Y-85580000D01*
X130565826Y-85580000D01*
X130692993Y-85545925D01*
X130750000Y-85513012D01*
X130750000Y-86410633D01*
X130963483Y-86353433D01*
X130963492Y-86353429D01*
X131177578Y-86253600D01*
X131371082Y-86118105D01*
X131538105Y-85951082D01*
X131673600Y-85757578D01*
X131773429Y-85543492D01*
X131773432Y-85543486D01*
X131830636Y-85330000D01*
X130933012Y-85330000D01*
X130965925Y-85272993D01*
X131000000Y-85145826D01*
X131000000Y-85014174D01*
X130965925Y-84887007D01*
X130933012Y-84830000D01*
X131830636Y-84830000D01*
X131830635Y-84829999D01*
X131773432Y-84616513D01*
X131773429Y-84616507D01*
X131673600Y-84402422D01*
X131673599Y-84402420D01*
X131538113Y-84208926D01*
X131538108Y-84208920D01*
X131371078Y-84041890D01*
X131185405Y-83911879D01*
X131141780Y-83857302D01*
X131134588Y-83787804D01*
X131166110Y-83725449D01*
X131185406Y-83708730D01*
X131371401Y-83578495D01*
X131538495Y-83411401D01*
X131674035Y-83217830D01*
X131773903Y-83003663D01*
X131835063Y-82775408D01*
X131855659Y-82540000D01*
X131853471Y-82514999D01*
X136644341Y-82514999D01*
X136644341Y-82515000D01*
X136664936Y-82750403D01*
X136664938Y-82750413D01*
X136726094Y-82978655D01*
X136726096Y-82978659D01*
X136726097Y-82978663D01*
X136789561Y-83114762D01*
X136825965Y-83192830D01*
X136825967Y-83192834D01*
X136961501Y-83386395D01*
X136961506Y-83386402D01*
X137128597Y-83553493D01*
X137128603Y-83553498D01*
X137314594Y-83683730D01*
X137358219Y-83738307D01*
X137365413Y-83807805D01*
X137333890Y-83870160D01*
X137314595Y-83886880D01*
X137128922Y-84016890D01*
X137128920Y-84016891D01*
X136961891Y-84183920D01*
X136961886Y-84183926D01*
X136826400Y-84377420D01*
X136826399Y-84377422D01*
X136726570Y-84591507D01*
X136726567Y-84591513D01*
X136669364Y-84804999D01*
X136669364Y-84805000D01*
X137566988Y-84805000D01*
X137534075Y-84862007D01*
X137500000Y-84989174D01*
X137500000Y-85120826D01*
X137534075Y-85247993D01*
X137566988Y-85305000D01*
X136669364Y-85305000D01*
X136726567Y-85518486D01*
X136726570Y-85518492D01*
X136826399Y-85732578D01*
X136961894Y-85926082D01*
X137128917Y-86093105D01*
X137322421Y-86228600D01*
X137536507Y-86328429D01*
X137536516Y-86328433D01*
X137750000Y-86385634D01*
X137750000Y-85488012D01*
X137807007Y-85520925D01*
X137934174Y-85555000D01*
X138065826Y-85555000D01*
X138192993Y-85520925D01*
X138250000Y-85488012D01*
X138250000Y-86385633D01*
X138463483Y-86328433D01*
X138463492Y-86328429D01*
X138677578Y-86228600D01*
X138871082Y-86093105D01*
X139038105Y-85926082D01*
X139173600Y-85732578D01*
X139273429Y-85518492D01*
X139273432Y-85518486D01*
X139330636Y-85305000D01*
X138433012Y-85305000D01*
X138465925Y-85247993D01*
X138500000Y-85120826D01*
X138500000Y-84989174D01*
X138465925Y-84862007D01*
X138433012Y-84805000D01*
X139330636Y-84805000D01*
X139330635Y-84804999D01*
X139273432Y-84591513D01*
X139273429Y-84591507D01*
X139173600Y-84377422D01*
X139173599Y-84377420D01*
X139038113Y-84183926D01*
X139038108Y-84183920D01*
X138871078Y-84016890D01*
X138685405Y-83886879D01*
X138641780Y-83832302D01*
X138634588Y-83762804D01*
X138666110Y-83700449D01*
X138685406Y-83683730D01*
X138871401Y-83553495D01*
X139038495Y-83386401D01*
X139174035Y-83192830D01*
X139273903Y-82978663D01*
X139335063Y-82750408D01*
X139353472Y-82539999D01*
X144144341Y-82539999D01*
X144144341Y-82540000D01*
X144164936Y-82775403D01*
X144164938Y-82775413D01*
X144226094Y-83003655D01*
X144226096Y-83003659D01*
X144226097Y-83003663D01*
X144314307Y-83192830D01*
X144325965Y-83217830D01*
X144325967Y-83217834D01*
X144343110Y-83242316D01*
X144461505Y-83411401D01*
X144628599Y-83578495D01*
X144786466Y-83689035D01*
X144814594Y-83708730D01*
X144858219Y-83763307D01*
X144865413Y-83832805D01*
X144833890Y-83895160D01*
X144814595Y-83911880D01*
X144628922Y-84041890D01*
X144628920Y-84041891D01*
X144461891Y-84208920D01*
X144461886Y-84208926D01*
X144326400Y-84402420D01*
X144326399Y-84402422D01*
X144226570Y-84616507D01*
X144226567Y-84616513D01*
X144169364Y-84829999D01*
X144169364Y-84830000D01*
X145066988Y-84830000D01*
X145034075Y-84887007D01*
X145000000Y-85014174D01*
X145000000Y-85145826D01*
X145034075Y-85272993D01*
X145066988Y-85330000D01*
X144169364Y-85330000D01*
X144226567Y-85543486D01*
X144226570Y-85543492D01*
X144326399Y-85757578D01*
X144461894Y-85951082D01*
X144628917Y-86118105D01*
X144822421Y-86253600D01*
X145036507Y-86353429D01*
X145036516Y-86353433D01*
X145250000Y-86410634D01*
X145250000Y-85513012D01*
X145307007Y-85545925D01*
X145434174Y-85580000D01*
X145565826Y-85580000D01*
X145692993Y-85545925D01*
X145750000Y-85513012D01*
X145750000Y-86410633D01*
X145963483Y-86353433D01*
X145963492Y-86353429D01*
X146177578Y-86253600D01*
X146371082Y-86118105D01*
X146538105Y-85951082D01*
X146673600Y-85757578D01*
X146773429Y-85543492D01*
X146773432Y-85543486D01*
X146830636Y-85330000D01*
X145933012Y-85330000D01*
X145965925Y-85272993D01*
X146000000Y-85145826D01*
X146000000Y-85014174D01*
X145965925Y-84887007D01*
X145933012Y-84830000D01*
X146830636Y-84830000D01*
X146830635Y-84829999D01*
X146773432Y-84616513D01*
X146773429Y-84616507D01*
X146673600Y-84402422D01*
X146673599Y-84402420D01*
X146538113Y-84208926D01*
X146538108Y-84208920D01*
X146371078Y-84041890D01*
X146185405Y-83911879D01*
X146141780Y-83857302D01*
X146134588Y-83787804D01*
X146166110Y-83725449D01*
X146185406Y-83708730D01*
X146371401Y-83578495D01*
X146538495Y-83411401D01*
X146674035Y-83217830D01*
X146773903Y-83003663D01*
X146835063Y-82775408D01*
X146855659Y-82540000D01*
X146851944Y-82497544D01*
X146835063Y-82304596D01*
X146835063Y-82304592D01*
X146773903Y-82076337D01*
X146674035Y-81862171D01*
X146656528Y-81837169D01*
X146538496Y-81668600D01*
X146498601Y-81628705D01*
X146416567Y-81546671D01*
X146383084Y-81485351D01*
X146388068Y-81415659D01*
X146429939Y-81359725D01*
X146460915Y-81342810D01*
X146592331Y-81293796D01*
X146707546Y-81207546D01*
X146793796Y-81092331D01*
X146844091Y-80957483D01*
X146850500Y-80897873D01*
X146850499Y-79102128D01*
X146844091Y-79042517D01*
X146834766Y-79017516D01*
X146793797Y-78907671D01*
X146793793Y-78907664D01*
X146707547Y-78792455D01*
X146707544Y-78792452D01*
X146592335Y-78706206D01*
X146592328Y-78706202D01*
X146457482Y-78655908D01*
X146457483Y-78655908D01*
X146397883Y-78649501D01*
X146397881Y-78649500D01*
X146397873Y-78649500D01*
X146397864Y-78649500D01*
X144602129Y-78649500D01*
X144602123Y-78649501D01*
X144542516Y-78655908D01*
X144407671Y-78706202D01*
X144407664Y-78706206D01*
X144292455Y-78792452D01*
X144292452Y-78792455D01*
X144206206Y-78907664D01*
X144206202Y-78907671D01*
X144155908Y-79042517D01*
X144152187Y-79077135D01*
X144149501Y-79102123D01*
X144149500Y-79102135D01*
X144149500Y-80897870D01*
X144149501Y-80897876D01*
X144155908Y-80957483D01*
X144206202Y-81092328D01*
X144206206Y-81092335D01*
X144292452Y-81207544D01*
X144292455Y-81207547D01*
X144407664Y-81293793D01*
X144407671Y-81293797D01*
X144539081Y-81342810D01*
X144595015Y-81384681D01*
X144619432Y-81450145D01*
X144604580Y-81518418D01*
X144583430Y-81546673D01*
X144461503Y-81668600D01*
X144325965Y-81862169D01*
X144325964Y-81862171D01*
X144226098Y-82076335D01*
X144226094Y-82076344D01*
X144164938Y-82304586D01*
X144164936Y-82304596D01*
X144144341Y-82539999D01*
X139353472Y-82539999D01*
X139355659Y-82515000D01*
X139335063Y-82279592D01*
X139273903Y-82051337D01*
X139174035Y-81837171D01*
X139121415Y-81762022D01*
X139038496Y-81643600D01*
X138986645Y-81591749D01*
X138916567Y-81521671D01*
X138883084Y-81460351D01*
X138888068Y-81390659D01*
X138929939Y-81334725D01*
X138960915Y-81317810D01*
X139092331Y-81268796D01*
X139207546Y-81182546D01*
X139293796Y-81067331D01*
X139344091Y-80932483D01*
X139350500Y-80872873D01*
X139350499Y-79077128D01*
X139344091Y-79017517D01*
X139332113Y-78985403D01*
X139293797Y-78882671D01*
X139293793Y-78882664D01*
X139207547Y-78767455D01*
X139207544Y-78767452D01*
X139092335Y-78681206D01*
X139092328Y-78681202D01*
X138957482Y-78630908D01*
X138957483Y-78630908D01*
X138897883Y-78624501D01*
X138897881Y-78624500D01*
X138897873Y-78624500D01*
X138897864Y-78624500D01*
X137102129Y-78624500D01*
X137102123Y-78624501D01*
X137042516Y-78630908D01*
X136907671Y-78681202D01*
X136907664Y-78681206D01*
X136792455Y-78767452D01*
X136792452Y-78767455D01*
X136706206Y-78882664D01*
X136706202Y-78882671D01*
X136655908Y-79017517D01*
X136650973Y-79063424D01*
X136649501Y-79077123D01*
X136649500Y-79077135D01*
X136649500Y-80872870D01*
X136649501Y-80872876D01*
X136655908Y-80932483D01*
X136706202Y-81067328D01*
X136706206Y-81067335D01*
X136792452Y-81182544D01*
X136792455Y-81182547D01*
X136907664Y-81268793D01*
X136907671Y-81268797D01*
X137039081Y-81317810D01*
X137095015Y-81359681D01*
X137119432Y-81425145D01*
X137104580Y-81493418D01*
X137083430Y-81521673D01*
X136961503Y-81643600D01*
X136825965Y-81837169D01*
X136825964Y-81837171D01*
X136726098Y-82051335D01*
X136726094Y-82051344D01*
X136664938Y-82279586D01*
X136664936Y-82279596D01*
X136644341Y-82514999D01*
X131853471Y-82514999D01*
X131851944Y-82497544D01*
X131835063Y-82304596D01*
X131835063Y-82304592D01*
X131773903Y-82076337D01*
X131674035Y-81862171D01*
X131656528Y-81837169D01*
X131538496Y-81668600D01*
X131498601Y-81628705D01*
X131416567Y-81546671D01*
X131383084Y-81485351D01*
X131388068Y-81415659D01*
X131429939Y-81359725D01*
X131460915Y-81342810D01*
X131592331Y-81293796D01*
X131707546Y-81207546D01*
X131793796Y-81092331D01*
X131844091Y-80957483D01*
X131850500Y-80897873D01*
X131850499Y-79102128D01*
X131844091Y-79042517D01*
X131834766Y-79017516D01*
X131793797Y-78907671D01*
X131793793Y-78907664D01*
X131707547Y-78792455D01*
X131707544Y-78792452D01*
X131592335Y-78706206D01*
X131592328Y-78706202D01*
X131457482Y-78655908D01*
X131457483Y-78655908D01*
X131397883Y-78649501D01*
X131397881Y-78649500D01*
X131397873Y-78649500D01*
X131397864Y-78649500D01*
X129602129Y-78649500D01*
X129602123Y-78649501D01*
X129542516Y-78655908D01*
X129407671Y-78706202D01*
X129407664Y-78706206D01*
X129292455Y-78792452D01*
X129292452Y-78792455D01*
X129206206Y-78907664D01*
X129206202Y-78907671D01*
X129155908Y-79042517D01*
X129152187Y-79077135D01*
X129149501Y-79102123D01*
X129149500Y-79102135D01*
X129149500Y-80897870D01*
X129149501Y-80897876D01*
X129155908Y-80957483D01*
X129206202Y-81092328D01*
X129206206Y-81092335D01*
X129292452Y-81207544D01*
X129292455Y-81207547D01*
X129407664Y-81293793D01*
X129407671Y-81293797D01*
X129539081Y-81342810D01*
X129595015Y-81384681D01*
X129619432Y-81450145D01*
X129604580Y-81518418D01*
X129583430Y-81546673D01*
X129461503Y-81668600D01*
X129325965Y-81862169D01*
X129325964Y-81862171D01*
X129226098Y-82076335D01*
X129226094Y-82076344D01*
X129164938Y-82304586D01*
X129164936Y-82304596D01*
X129144341Y-82539999D01*
X124355659Y-82539999D01*
X124351944Y-82497544D01*
X124335063Y-82304596D01*
X124335063Y-82304592D01*
X124273903Y-82076337D01*
X124174035Y-81862171D01*
X124156528Y-81837169D01*
X124038496Y-81668600D01*
X123998601Y-81628705D01*
X123916567Y-81546671D01*
X123883084Y-81485351D01*
X123888068Y-81415659D01*
X123929939Y-81359725D01*
X123960915Y-81342810D01*
X124092331Y-81293796D01*
X124207546Y-81207546D01*
X124293796Y-81092331D01*
X124344091Y-80957483D01*
X124350500Y-80897873D01*
X124350499Y-79102128D01*
X124344091Y-79042517D01*
X124334766Y-79017516D01*
X124293797Y-78907671D01*
X124293793Y-78907664D01*
X124207547Y-78792455D01*
X124207544Y-78792452D01*
X124092335Y-78706206D01*
X124092328Y-78706202D01*
X123957482Y-78655908D01*
X123957483Y-78655908D01*
X123897883Y-78649501D01*
X123897881Y-78649500D01*
X123897873Y-78649500D01*
X123897864Y-78649500D01*
X122102129Y-78649500D01*
X122102123Y-78649501D01*
X122042516Y-78655908D01*
X121907671Y-78706202D01*
X121907664Y-78706206D01*
X121792455Y-78792452D01*
X121792452Y-78792455D01*
X121706206Y-78907664D01*
X121706202Y-78907671D01*
X121655908Y-79042517D01*
X121652187Y-79077135D01*
X121649501Y-79102123D01*
X121649500Y-79102135D01*
X121649500Y-80897870D01*
X121649501Y-80897876D01*
X121655908Y-80957483D01*
X121706202Y-81092328D01*
X121706206Y-81092335D01*
X121792452Y-81207544D01*
X121792455Y-81207547D01*
X121907664Y-81293793D01*
X121907671Y-81293797D01*
X122039081Y-81342810D01*
X122095015Y-81384681D01*
X122119432Y-81450145D01*
X122104580Y-81518418D01*
X122083430Y-81546673D01*
X121961503Y-81668600D01*
X121825965Y-81862169D01*
X121825964Y-81862171D01*
X121726098Y-82076335D01*
X121726094Y-82076344D01*
X121664938Y-82304586D01*
X121664936Y-82304596D01*
X121644341Y-82539999D01*
X106797397Y-82539999D01*
X106785369Y-82433250D01*
X106785368Y-82433245D01*
X106725788Y-82262976D01*
X106629813Y-82110234D01*
X106627550Y-82107396D01*
X106626659Y-82105215D01*
X106626111Y-82104342D01*
X106626264Y-82104245D01*
X106601144Y-82042709D01*
X106600500Y-82030087D01*
X106600500Y-81994912D01*
X106620185Y-81927873D01*
X106627555Y-81917597D01*
X106629810Y-81914767D01*
X106629816Y-81914762D01*
X106725789Y-81762022D01*
X106785368Y-81591755D01*
X106785369Y-81591749D01*
X106805565Y-81412503D01*
X106805565Y-81412496D01*
X106785369Y-81233250D01*
X106785368Y-81233245D01*
X106776376Y-81207547D01*
X106725789Y-81062978D01*
X106629816Y-80910238D01*
X106502262Y-80782684D01*
X106489856Y-80774889D01*
X106349523Y-80686711D01*
X106179254Y-80627131D01*
X106179249Y-80627130D01*
X106000004Y-80606935D01*
X105999996Y-80606935D01*
X105820750Y-80627130D01*
X105820745Y-80627131D01*
X105650476Y-80686711D01*
X105497737Y-80782684D01*
X105370184Y-80910237D01*
X105274211Y-81062976D01*
X105214631Y-81233245D01*
X105214630Y-81233250D01*
X105194435Y-81412496D01*
X86600500Y-81412496D01*
X86600499Y-80392128D01*
X86594091Y-80332517D01*
X86567180Y-80260366D01*
X86543797Y-80197671D01*
X86543793Y-80197664D01*
X86457547Y-80082455D01*
X86457544Y-80082452D01*
X86342335Y-79996206D01*
X86342328Y-79996202D01*
X86210917Y-79947189D01*
X86154983Y-79905318D01*
X86130566Y-79839853D01*
X86145418Y-79771580D01*
X86166563Y-79743332D01*
X86288495Y-79621401D01*
X86373504Y-79499996D01*
X89194435Y-79499996D01*
X89194435Y-79500003D01*
X89214630Y-79679249D01*
X89214631Y-79679254D01*
X89274211Y-79849523D01*
X89366379Y-79996206D01*
X89370184Y-80002262D01*
X89497738Y-80129816D01*
X89576410Y-80179249D01*
X89605728Y-80197671D01*
X89650478Y-80225789D01*
X89820745Y-80285368D01*
X89820750Y-80285369D01*
X89999996Y-80305565D01*
X90000000Y-80305565D01*
X90000004Y-80305565D01*
X90179249Y-80285369D01*
X90179252Y-80285368D01*
X90179255Y-80285368D01*
X90349522Y-80225789D01*
X90502262Y-80129816D01*
X90629816Y-80002262D01*
X90631240Y-79999996D01*
X101694435Y-79999996D01*
X101694435Y-80000003D01*
X101714630Y-80179249D01*
X101714631Y-80179254D01*
X101774211Y-80349523D01*
X101803658Y-80396387D01*
X101870184Y-80502262D01*
X101997738Y-80629816D01*
X102088286Y-80686711D01*
X102150478Y-80725789D01*
X102234432Y-80755166D01*
X102291209Y-80795888D01*
X102310519Y-80831252D01*
X102339898Y-80915210D01*
X102339899Y-80915211D01*
X102415702Y-81035851D01*
X102435871Y-81067949D01*
X102563425Y-81195503D01*
X102653767Y-81252269D01*
X102680071Y-81268797D01*
X102716165Y-81291476D01*
X102862869Y-81342810D01*
X102886432Y-81351055D01*
X102886437Y-81351056D01*
X103065683Y-81371252D01*
X103065687Y-81371252D01*
X103065691Y-81371252D01*
X103244936Y-81351056D01*
X103244939Y-81351055D01*
X103244942Y-81351055D01*
X103415209Y-81291476D01*
X103567949Y-81195503D01*
X103695503Y-81067949D01*
X103791476Y-80915209D01*
X103851055Y-80744942D01*
X103860848Y-80658016D01*
X103887913Y-80593605D01*
X103896377Y-80584230D01*
X104084222Y-80396385D01*
X104145543Y-80362902D01*
X104157998Y-80360850D01*
X104244942Y-80351055D01*
X104415209Y-80291476D01*
X104567949Y-80195503D01*
X104695503Y-80067949D01*
X104791476Y-79915209D01*
X104851055Y-79744942D01*
X104851237Y-79743326D01*
X104871252Y-79565690D01*
X104871252Y-79565683D01*
X104851056Y-79386437D01*
X104851055Y-79386432D01*
X104828070Y-79320745D01*
X104791476Y-79216165D01*
X104790511Y-79214630D01*
X104719821Y-79102127D01*
X104695503Y-79063425D01*
X104567949Y-78935871D01*
X104556680Y-78928790D01*
X104415211Y-78839899D01*
X104415210Y-78839898D01*
X104331252Y-78810519D01*
X104274476Y-78769796D01*
X104255166Y-78734432D01*
X104225789Y-78650478D01*
X104213492Y-78630908D01*
X104131237Y-78499999D01*
X108144341Y-78499999D01*
X108144341Y-78500000D01*
X108164936Y-78735403D01*
X108164938Y-78735413D01*
X108226094Y-78963655D01*
X108226096Y-78963659D01*
X108226097Y-78963663D01*
X108290665Y-79102129D01*
X108325965Y-79177830D01*
X108325967Y-79177834D01*
X108399745Y-79283199D01*
X108461505Y-79371401D01*
X108628599Y-79538495D01*
X108705135Y-79592086D01*
X108822165Y-79674032D01*
X108822167Y-79674033D01*
X108822170Y-79674035D01*
X109036337Y-79773903D01*
X109264592Y-79835063D01*
X109435319Y-79850000D01*
X109499999Y-79855659D01*
X109500000Y-79855659D01*
X109500001Y-79855659D01*
X109564681Y-79850000D01*
X109735408Y-79835063D01*
X109963663Y-79773903D01*
X110177830Y-79674035D01*
X110371401Y-79538495D01*
X110538495Y-79371401D01*
X110668425Y-79185842D01*
X110723002Y-79142217D01*
X110792500Y-79135023D01*
X110854855Y-79166546D01*
X110871575Y-79185842D01*
X111001500Y-79371395D01*
X111001505Y-79371401D01*
X111168599Y-79538495D01*
X111245135Y-79592086D01*
X111362165Y-79674032D01*
X111362167Y-79674033D01*
X111362170Y-79674035D01*
X111576337Y-79773903D01*
X111804592Y-79835063D01*
X111975319Y-79850000D01*
X112039999Y-79855659D01*
X112040000Y-79855659D01*
X112040001Y-79855659D01*
X112104681Y-79850000D01*
X112275408Y-79835063D01*
X112503663Y-79773903D01*
X112717830Y-79674035D01*
X112911401Y-79538495D01*
X113033717Y-79416178D01*
X113095036Y-79382696D01*
X113164728Y-79387680D01*
X113220662Y-79429551D01*
X113237577Y-79460528D01*
X113286646Y-79592088D01*
X113286649Y-79592093D01*
X113372809Y-79707187D01*
X113372812Y-79707190D01*
X113487906Y-79793350D01*
X113487913Y-79793354D01*
X113622620Y-79843596D01*
X113622627Y-79843598D01*
X113682155Y-79849999D01*
X113682172Y-79850000D01*
X114330000Y-79850000D01*
X114330000Y-78933012D01*
X114387007Y-78965925D01*
X114514174Y-79000000D01*
X114645826Y-79000000D01*
X114772993Y-78965925D01*
X114830000Y-78933012D01*
X114830000Y-79850000D01*
X115477828Y-79850000D01*
X115477844Y-79849999D01*
X115537372Y-79843598D01*
X115537379Y-79843596D01*
X115672086Y-79793354D01*
X115672093Y-79793350D01*
X115787187Y-79707190D01*
X115787190Y-79707187D01*
X115873350Y-79592093D01*
X115873354Y-79592086D01*
X115923596Y-79457379D01*
X115923598Y-79457372D01*
X115929999Y-79397844D01*
X115930000Y-79397827D01*
X115930000Y-78750000D01*
X115013012Y-78750000D01*
X115045925Y-78692993D01*
X115080000Y-78565826D01*
X115080000Y-78434174D01*
X115045925Y-78307007D01*
X115013012Y-78250000D01*
X115930000Y-78250000D01*
X115930000Y-78199999D01*
X170894696Y-78199999D01*
X170894696Y-78200000D01*
X170913898Y-78566405D01*
X170963990Y-78882671D01*
X170971295Y-78928794D01*
X171063849Y-79274210D01*
X171066260Y-79283206D01*
X171197746Y-79625739D01*
X171364320Y-79952656D01*
X171564147Y-80260364D01*
X171674297Y-80396387D01*
X171795051Y-80545506D01*
X172054494Y-80804949D01*
X172169249Y-80897876D01*
X172339635Y-81035852D01*
X172643595Y-81233245D01*
X172647348Y-81235682D01*
X172974264Y-81402255D01*
X173316801Y-81533742D01*
X173671206Y-81628705D01*
X174033596Y-81686102D01*
X174379734Y-81704241D01*
X174399999Y-81705304D01*
X174400000Y-81705304D01*
X174400001Y-81705304D01*
X174419203Y-81704297D01*
X174766404Y-81686102D01*
X175128794Y-81628705D01*
X175483199Y-81533742D01*
X175825736Y-81402255D01*
X176152652Y-81235682D01*
X176460366Y-81035851D01*
X176745506Y-80804949D01*
X177004949Y-80545506D01*
X177235851Y-80260366D01*
X177435682Y-79952652D01*
X177602255Y-79625736D01*
X177733742Y-79283199D01*
X177828705Y-78928794D01*
X177886102Y-78566404D01*
X177905304Y-78200000D01*
X177886102Y-77833596D01*
X177828705Y-77471206D01*
X177733742Y-77116801D01*
X177602255Y-76774264D01*
X177435682Y-76447348D01*
X177435679Y-76447343D01*
X177235852Y-76139635D01*
X177102206Y-75974596D01*
X177004949Y-75854494D01*
X176745506Y-75595051D01*
X176593652Y-75472082D01*
X176460364Y-75364147D01*
X176152656Y-75164320D01*
X175825739Y-74997746D01*
X175483206Y-74866260D01*
X175438724Y-74854341D01*
X175128794Y-74771295D01*
X175128790Y-74771294D01*
X175128789Y-74771294D01*
X174972074Y-74746473D01*
X174908939Y-74716544D01*
X174872008Y-74657232D01*
X174873006Y-74587370D01*
X174911616Y-74529137D01*
X174975579Y-74501023D01*
X174991472Y-74500000D01*
X175971434Y-74500000D01*
X175971436Y-74499999D01*
X176185362Y-74484699D01*
X176464895Y-74423890D01*
X176732958Y-74323908D01*
X176984038Y-74186808D01*
X176984039Y-74186807D01*
X177213065Y-74015360D01*
X177213077Y-74015350D01*
X177415350Y-73813077D01*
X177415360Y-73813065D01*
X177586807Y-73584039D01*
X177586808Y-73584038D01*
X177723908Y-73332958D01*
X177823890Y-73064895D01*
X177884699Y-72785362D01*
X177899999Y-72571436D01*
X177900000Y-72571434D01*
X177900000Y-71250000D01*
X176636502Y-71250000D01*
X176650000Y-71147473D01*
X176650000Y-70852527D01*
X176636502Y-70750000D01*
X177900000Y-70750000D01*
X177900000Y-69428566D01*
X177899999Y-69428563D01*
X177884699Y-69214637D01*
X177823890Y-68935104D01*
X177723908Y-68667041D01*
X177586808Y-68415961D01*
X177586807Y-68415960D01*
X177415360Y-68186934D01*
X177415350Y-68186922D01*
X177213077Y-67984649D01*
X177213065Y-67984639D01*
X176984039Y-67813192D01*
X176984038Y-67813191D01*
X176732957Y-67676091D01*
X176732958Y-67676091D01*
X176464895Y-67576109D01*
X176185362Y-67515300D01*
X175971436Y-67500000D01*
X174650000Y-67500000D01*
X174650000Y-68763497D01*
X174547473Y-68750000D01*
X174252527Y-68750000D01*
X174150000Y-68763497D01*
X174150000Y-67500000D01*
X172828563Y-67500000D01*
X172614637Y-67515300D01*
X172335104Y-67576109D01*
X172067041Y-67676091D01*
X171815961Y-67813191D01*
X171815960Y-67813192D01*
X171586934Y-67984639D01*
X171586922Y-67984649D01*
X171384649Y-68186922D01*
X171384639Y-68186934D01*
X171213192Y-68415960D01*
X171213191Y-68415961D01*
X171076091Y-68667041D01*
X170976109Y-68935104D01*
X170915300Y-69214637D01*
X170900000Y-69428563D01*
X170900000Y-70750000D01*
X172163498Y-70750000D01*
X172150000Y-70852527D01*
X172150000Y-71147473D01*
X172163498Y-71250000D01*
X170900000Y-71250000D01*
X170900000Y-72571436D01*
X170915300Y-72785362D01*
X170976109Y-73064895D01*
X171076091Y-73332958D01*
X171213191Y-73584038D01*
X171213192Y-73584039D01*
X171384639Y-73813065D01*
X171384649Y-73813077D01*
X171586922Y-74015350D01*
X171586934Y-74015360D01*
X171815960Y-74186807D01*
X171815961Y-74186808D01*
X172067042Y-74323908D01*
X172067041Y-74323908D01*
X172335104Y-74423890D01*
X172614637Y-74484699D01*
X172828563Y-74499999D01*
X172828566Y-74500000D01*
X173808528Y-74500000D01*
X173875567Y-74519685D01*
X173921322Y-74572489D01*
X173931266Y-74641647D01*
X173902241Y-74705203D01*
X173843463Y-74742977D01*
X173827926Y-74746473D01*
X173671211Y-74771294D01*
X173671209Y-74771294D01*
X173316793Y-74866260D01*
X172974260Y-74997746D01*
X172647343Y-75164320D01*
X172339635Y-75364147D01*
X172054498Y-75595047D01*
X172054490Y-75595054D01*
X171795054Y-75854490D01*
X171795047Y-75854498D01*
X171564147Y-76139635D01*
X171364320Y-76447343D01*
X171197746Y-76774260D01*
X171066260Y-77116793D01*
X170971294Y-77471209D01*
X170971294Y-77471211D01*
X170913898Y-77833594D01*
X170894696Y-78199999D01*
X115930000Y-78199999D01*
X115930000Y-77602172D01*
X115929999Y-77602155D01*
X115923598Y-77542627D01*
X115923596Y-77542620D01*
X115873354Y-77407913D01*
X115873350Y-77407906D01*
X115787190Y-77292812D01*
X115787187Y-77292809D01*
X115672093Y-77206649D01*
X115672086Y-77206645D01*
X115537379Y-77156403D01*
X115537372Y-77156401D01*
X115477844Y-77150000D01*
X114830000Y-77150000D01*
X114830000Y-78066988D01*
X114772993Y-78034075D01*
X114645826Y-78000000D01*
X114514174Y-78000000D01*
X114387007Y-78034075D01*
X114330000Y-78066988D01*
X114330000Y-77150000D01*
X113682155Y-77150000D01*
X113622627Y-77156401D01*
X113622620Y-77156403D01*
X113487913Y-77206645D01*
X113487906Y-77206649D01*
X113372812Y-77292809D01*
X113372809Y-77292812D01*
X113286649Y-77407906D01*
X113286645Y-77407913D01*
X113237578Y-77539470D01*
X113195707Y-77595404D01*
X113130242Y-77619821D01*
X113061969Y-77604969D01*
X113033715Y-77583819D01*
X112976894Y-77526998D01*
X112911401Y-77461505D01*
X112911397Y-77461502D01*
X112911396Y-77461501D01*
X112717834Y-77325967D01*
X112717830Y-77325965D01*
X112646727Y-77292809D01*
X112503663Y-77226097D01*
X112503659Y-77226096D01*
X112503655Y-77226094D01*
X112275413Y-77164938D01*
X112275403Y-77164936D01*
X112040001Y-77144341D01*
X112039999Y-77144341D01*
X111804596Y-77164936D01*
X111804586Y-77164938D01*
X111576344Y-77226094D01*
X111576335Y-77226098D01*
X111362171Y-77325964D01*
X111362169Y-77325965D01*
X111168597Y-77461505D01*
X111001505Y-77628597D01*
X110871575Y-77814158D01*
X110816998Y-77857783D01*
X110747500Y-77864977D01*
X110685145Y-77833454D01*
X110668425Y-77814158D01*
X110538494Y-77628597D01*
X110371402Y-77461506D01*
X110371395Y-77461501D01*
X110177834Y-77325967D01*
X110177830Y-77325965D01*
X110106727Y-77292809D01*
X109963663Y-77226097D01*
X109963659Y-77226096D01*
X109963655Y-77226094D01*
X109735413Y-77164938D01*
X109735403Y-77164936D01*
X109500001Y-77144341D01*
X109499999Y-77144341D01*
X109264596Y-77164936D01*
X109264586Y-77164938D01*
X109036344Y-77226094D01*
X109036335Y-77226098D01*
X108822171Y-77325964D01*
X108822169Y-77325965D01*
X108628597Y-77461505D01*
X108461505Y-77628597D01*
X108325965Y-77822169D01*
X108325964Y-77822171D01*
X108226098Y-78036335D01*
X108226094Y-78036344D01*
X108164938Y-78264586D01*
X108164936Y-78264596D01*
X108144341Y-78499999D01*
X104131237Y-78499999D01*
X104129816Y-78497738D01*
X104002262Y-78370184D01*
X103849523Y-78274211D01*
X103679254Y-78214631D01*
X103679249Y-78214630D01*
X103500004Y-78194435D01*
X103499996Y-78194435D01*
X103320750Y-78214630D01*
X103320745Y-78214631D01*
X103150476Y-78274211D01*
X102997737Y-78370184D01*
X102870184Y-78497737D01*
X102774210Y-78650478D01*
X102714630Y-78820750D01*
X102704837Y-78907668D01*
X102677770Y-78972082D01*
X102669298Y-78981465D01*
X102481465Y-79169298D01*
X102420142Y-79202783D01*
X102407668Y-79204837D01*
X102320750Y-79214630D01*
X102150478Y-79274210D01*
X101997737Y-79370184D01*
X101870184Y-79497737D01*
X101774211Y-79650476D01*
X101714631Y-79820745D01*
X101714630Y-79820750D01*
X101694435Y-79999996D01*
X90631240Y-79999996D01*
X90725789Y-79849522D01*
X90785368Y-79679255D01*
X90795161Y-79592329D01*
X90822226Y-79527918D01*
X90830690Y-79518543D01*
X94018535Y-76330698D01*
X94079856Y-76297215D01*
X94092311Y-76295163D01*
X94179255Y-76285368D01*
X94349522Y-76225789D01*
X94502262Y-76129816D01*
X94629816Y-76002262D01*
X94725789Y-75849522D01*
X94785368Y-75679255D01*
X94793740Y-75604952D01*
X94805565Y-75500003D01*
X94805565Y-75499996D01*
X94785369Y-75320750D01*
X94785368Y-75320745D01*
X94733147Y-75171506D01*
X94725789Y-75150478D01*
X94717206Y-75136819D01*
X94686582Y-75088080D01*
X94629816Y-74997738D01*
X94502262Y-74870184D01*
X94469379Y-74849522D01*
X94349523Y-74774211D01*
X94179254Y-74714631D01*
X94179249Y-74714630D01*
X94000004Y-74694435D01*
X93999996Y-74694435D01*
X93820750Y-74714630D01*
X93820745Y-74714631D01*
X93650476Y-74774211D01*
X93497737Y-74870184D01*
X93370184Y-74997737D01*
X93274210Y-75150478D01*
X93214630Y-75320750D01*
X93204837Y-75407668D01*
X93177770Y-75472082D01*
X93169298Y-75481465D01*
X89981465Y-78669298D01*
X89920142Y-78702783D01*
X89907668Y-78704837D01*
X89820750Y-78714630D01*
X89650478Y-78774210D01*
X89497737Y-78870184D01*
X89370184Y-78997737D01*
X89274211Y-79150476D01*
X89214631Y-79320745D01*
X89214630Y-79320750D01*
X89194435Y-79499996D01*
X86373504Y-79499996D01*
X86424035Y-79427830D01*
X86523903Y-79213663D01*
X86585063Y-78985408D01*
X86605659Y-78750000D01*
X86585063Y-78514592D01*
X86538626Y-78341285D01*
X86523905Y-78286344D01*
X86523904Y-78286343D01*
X86523903Y-78286337D01*
X86424035Y-78072171D01*
X86398943Y-78036335D01*
X86288494Y-77878597D01*
X86121402Y-77711506D01*
X86121396Y-77711501D01*
X85935842Y-77581575D01*
X85892217Y-77526998D01*
X85885023Y-77457500D01*
X85916546Y-77395145D01*
X85935842Y-77378425D01*
X86007238Y-77328433D01*
X86121401Y-77248495D01*
X86288495Y-77081401D01*
X86424035Y-76887830D01*
X86523903Y-76673663D01*
X86585063Y-76445408D01*
X86605659Y-76210000D01*
X86585063Y-75974592D01*
X86523903Y-75746337D01*
X86424035Y-75532171D01*
X86388531Y-75481465D01*
X86288494Y-75338597D01*
X86121402Y-75171506D01*
X86121395Y-75171501D01*
X86091368Y-75150476D01*
X86020917Y-75101145D01*
X85927834Y-75035967D01*
X85927830Y-75035965D01*
X85927828Y-75035964D01*
X85713663Y-74936097D01*
X85713659Y-74936096D01*
X85713655Y-74936094D01*
X85485413Y-74874938D01*
X85485403Y-74874936D01*
X85250001Y-74854341D01*
X85249999Y-74854341D01*
X85014596Y-74874936D01*
X85014586Y-74874938D01*
X84786344Y-74936094D01*
X84786335Y-74936098D01*
X84572171Y-75035964D01*
X84572169Y-75035965D01*
X84378597Y-75171505D01*
X84211505Y-75338597D01*
X84075965Y-75532169D01*
X84075964Y-75532171D01*
X83976098Y-75746335D01*
X83976094Y-75746344D01*
X83914938Y-75974586D01*
X83914936Y-75974596D01*
X83894341Y-76209999D01*
X76005562Y-76209999D01*
X76025736Y-76202255D01*
X76352652Y-76035682D01*
X76660366Y-75835851D01*
X76945506Y-75604949D01*
X77204949Y-75345506D01*
X77435851Y-75060366D01*
X77635682Y-74752652D01*
X77764417Y-74499996D01*
X100194435Y-74499996D01*
X100194435Y-74500000D01*
X100214630Y-74679249D01*
X100214631Y-74679254D01*
X100274211Y-74849523D01*
X100328610Y-74936098D01*
X100370184Y-75002262D01*
X100497738Y-75129816D01*
X100650478Y-75225789D01*
X100820745Y-75285368D01*
X100820750Y-75285369D01*
X100999996Y-75305565D01*
X101000000Y-75305565D01*
X101000004Y-75305565D01*
X101179249Y-75285369D01*
X101179252Y-75285368D01*
X101179255Y-75285368D01*
X101349522Y-75225789D01*
X101502262Y-75129816D01*
X101502267Y-75129810D01*
X101505097Y-75127555D01*
X101507275Y-75126665D01*
X101508158Y-75126111D01*
X101508255Y-75126265D01*
X101569783Y-75101145D01*
X101582412Y-75100500D01*
X101699903Y-75100500D01*
X101766942Y-75120185D01*
X101787584Y-75136819D01*
X102169298Y-75518533D01*
X102202783Y-75579856D01*
X102204837Y-75592330D01*
X102214630Y-75679249D01*
X102274210Y-75849521D01*
X102282056Y-75862007D01*
X102370184Y-76002262D01*
X102497738Y-76129816D01*
X102513365Y-76139635D01*
X102590133Y-76187872D01*
X102650478Y-76225789D01*
X102820742Y-76285367D01*
X102820745Y-76285368D01*
X102820750Y-76285369D01*
X102999996Y-76305565D01*
X103000000Y-76305565D01*
X103000004Y-76305565D01*
X103179249Y-76285369D01*
X103179252Y-76285368D01*
X103179255Y-76285368D01*
X103349522Y-76225789D01*
X103502262Y-76129816D01*
X103629816Y-76002262D01*
X103725789Y-75849522D01*
X103785368Y-75679255D01*
X103793740Y-75604952D01*
X103805565Y-75500003D01*
X103805565Y-75499996D01*
X103785369Y-75320750D01*
X103785368Y-75320745D01*
X103733147Y-75171506D01*
X103725789Y-75150478D01*
X103717206Y-75136819D01*
X103686582Y-75088080D01*
X103629816Y-74997738D01*
X103502262Y-74870184D01*
X103441973Y-74832302D01*
X103349521Y-74774210D01*
X103179249Y-74714630D01*
X103092330Y-74704837D01*
X103027916Y-74677770D01*
X103018533Y-74669298D01*
X102487590Y-74138355D01*
X102487588Y-74138352D01*
X102368717Y-74019481D01*
X102368709Y-74019475D01*
X102266936Y-73960717D01*
X102266934Y-73960716D01*
X102231790Y-73940425D01*
X102231789Y-73940424D01*
X102219263Y-73937067D01*
X102079057Y-73899499D01*
X101920943Y-73899499D01*
X101913347Y-73899499D01*
X101913331Y-73899500D01*
X101582412Y-73899500D01*
X101515373Y-73879815D01*
X101505094Y-73872443D01*
X101496864Y-73865879D01*
X101456726Y-73808688D01*
X101453881Y-73738876D01*
X101489230Y-73678608D01*
X101551551Y-73647019D01*
X101584985Y-73645408D01*
X101645000Y-73650659D01*
X101880408Y-73630063D01*
X102108663Y-73568903D01*
X102322830Y-73469035D01*
X102516401Y-73333495D01*
X102683495Y-73166401D01*
X102813425Y-72980842D01*
X102868002Y-72937217D01*
X102937500Y-72930023D01*
X102999855Y-72961546D01*
X103016575Y-72980842D01*
X103146500Y-73166395D01*
X103146505Y-73166401D01*
X103313599Y-73333495D01*
X103410384Y-73401265D01*
X103507165Y-73469032D01*
X103507167Y-73469033D01*
X103507170Y-73469035D01*
X103721337Y-73568903D01*
X103949592Y-73630063D01*
X104124982Y-73645408D01*
X104184999Y-73650659D01*
X104185000Y-73650659D01*
X104185001Y-73650659D01*
X104226604Y-73647019D01*
X104420408Y-73630063D01*
X104648663Y-73568903D01*
X104862830Y-73469035D01*
X105056401Y-73333495D01*
X105223495Y-73166401D01*
X105353730Y-72980405D01*
X105408307Y-72936781D01*
X105477805Y-72929587D01*
X105540160Y-72961110D01*
X105556879Y-72980405D01*
X105686890Y-73166078D01*
X105853917Y-73333105D01*
X106047421Y-73468600D01*
X106261507Y-73568429D01*
X106261516Y-73568433D01*
X106475000Y-73625634D01*
X106475000Y-72728012D01*
X106532007Y-72760925D01*
X106659174Y-72795000D01*
X106790826Y-72795000D01*
X106917993Y-72760925D01*
X106975000Y-72728012D01*
X106975000Y-73625633D01*
X107188483Y-73568433D01*
X107188492Y-73568429D01*
X107402578Y-73468600D01*
X107596082Y-73333105D01*
X107763105Y-73166082D01*
X107893119Y-72980405D01*
X107947696Y-72936781D01*
X108017195Y-72929588D01*
X108079549Y-72961110D01*
X108096269Y-72980405D01*
X108226505Y-73166401D01*
X108393599Y-73333495D01*
X108490384Y-73401265D01*
X108587165Y-73469032D01*
X108587167Y-73469033D01*
X108587170Y-73469035D01*
X108801337Y-73568903D01*
X109029592Y-73630063D01*
X109204982Y-73645408D01*
X109264999Y-73650659D01*
X109265000Y-73650659D01*
X109265001Y-73650659D01*
X109306604Y-73647019D01*
X109500408Y-73630063D01*
X109728663Y-73568903D01*
X109942830Y-73469035D01*
X110136401Y-73333495D01*
X110303495Y-73166401D01*
X110433425Y-72980842D01*
X110488002Y-72937217D01*
X110557500Y-72930023D01*
X110619855Y-72961546D01*
X110636575Y-72980842D01*
X110766500Y-73166395D01*
X110766505Y-73166401D01*
X110933599Y-73333495D01*
X111030384Y-73401265D01*
X111127165Y-73469032D01*
X111127167Y-73469033D01*
X111127170Y-73469035D01*
X111341337Y-73568903D01*
X111569592Y-73630063D01*
X111744982Y-73645408D01*
X111804999Y-73650659D01*
X111805000Y-73650659D01*
X111805001Y-73650659D01*
X111846604Y-73647019D01*
X112040408Y-73630063D01*
X112268663Y-73568903D01*
X112482830Y-73469035D01*
X112676401Y-73333495D01*
X112843495Y-73166401D01*
X112973425Y-72980842D01*
X113028002Y-72937217D01*
X113097500Y-72930023D01*
X113159855Y-72961546D01*
X113176575Y-72980842D01*
X113306500Y-73166395D01*
X113306505Y-73166401D01*
X113473599Y-73333495D01*
X113570384Y-73401265D01*
X113667165Y-73469032D01*
X113667167Y-73469033D01*
X113667170Y-73469035D01*
X113881337Y-73568903D01*
X114109592Y-73630063D01*
X114284982Y-73645408D01*
X114344999Y-73650659D01*
X114345000Y-73650659D01*
X114345001Y-73650659D01*
X114386604Y-73647019D01*
X114580408Y-73630063D01*
X114808663Y-73568903D01*
X115022830Y-73469035D01*
X115216401Y-73333495D01*
X115383495Y-73166401D01*
X115513730Y-72980405D01*
X115568307Y-72936781D01*
X115637805Y-72929587D01*
X115700160Y-72961110D01*
X115716879Y-72980405D01*
X115846890Y-73166078D01*
X116013917Y-73333105D01*
X116207421Y-73468600D01*
X116421507Y-73568429D01*
X116421516Y-73568433D01*
X116635000Y-73625634D01*
X116635000Y-72728012D01*
X116692007Y-72760925D01*
X116819174Y-72795000D01*
X116950826Y-72795000D01*
X117077993Y-72760925D01*
X117135000Y-72728012D01*
X117135000Y-73625634D01*
X117348483Y-73568433D01*
X117348492Y-73568429D01*
X117562578Y-73468600D01*
X117756082Y-73333105D01*
X117923105Y-73166082D01*
X118053119Y-72980405D01*
X118107696Y-72936781D01*
X118177195Y-72929588D01*
X118239549Y-72961110D01*
X118256269Y-72980405D01*
X118386505Y-73166401D01*
X118553599Y-73333495D01*
X118650384Y-73401265D01*
X118747165Y-73469032D01*
X118747167Y-73469033D01*
X118747170Y-73469035D01*
X118961337Y-73568903D01*
X119189592Y-73630063D01*
X119364982Y-73645408D01*
X119424999Y-73650659D01*
X119425000Y-73650659D01*
X119425001Y-73650659D01*
X119466604Y-73647019D01*
X119660408Y-73630063D01*
X119888663Y-73568903D01*
X120102830Y-73469035D01*
X120296401Y-73333495D01*
X120463495Y-73166401D01*
X120593425Y-72980842D01*
X120648002Y-72937217D01*
X120717500Y-72930023D01*
X120779855Y-72961546D01*
X120796575Y-72980842D01*
X120926500Y-73166395D01*
X120926505Y-73166401D01*
X121093599Y-73333495D01*
X121190384Y-73401265D01*
X121287165Y-73469032D01*
X121287167Y-73469033D01*
X121287170Y-73469035D01*
X121501337Y-73568903D01*
X121729592Y-73630063D01*
X121904982Y-73645408D01*
X121964999Y-73650659D01*
X121965000Y-73650659D01*
X121965001Y-73650659D01*
X122006604Y-73647019D01*
X122200408Y-73630063D01*
X122428663Y-73568903D01*
X122642830Y-73469035D01*
X122836401Y-73333495D01*
X123003495Y-73166401D01*
X123133730Y-72980405D01*
X123188307Y-72936781D01*
X123257805Y-72929587D01*
X123320160Y-72961110D01*
X123336879Y-72980405D01*
X123466890Y-73166078D01*
X123633917Y-73333105D01*
X123827421Y-73468600D01*
X124041507Y-73568429D01*
X124041516Y-73568433D01*
X124255000Y-73625634D01*
X124255000Y-72728012D01*
X124312007Y-72760925D01*
X124439174Y-72795000D01*
X124570826Y-72795000D01*
X124697993Y-72760925D01*
X124755000Y-72728012D01*
X124755000Y-73625633D01*
X124968483Y-73568433D01*
X124968492Y-73568429D01*
X125182578Y-73468600D01*
X125376082Y-73333105D01*
X125543105Y-73166082D01*
X125673119Y-72980405D01*
X125727696Y-72936781D01*
X125797195Y-72929588D01*
X125859549Y-72961110D01*
X125876269Y-72980405D01*
X126006505Y-73166401D01*
X126173599Y-73333495D01*
X126270384Y-73401265D01*
X126367165Y-73469032D01*
X126367167Y-73469033D01*
X126367170Y-73469035D01*
X126581337Y-73568903D01*
X126809592Y-73630063D01*
X126984982Y-73645408D01*
X127044999Y-73650659D01*
X127045000Y-73650659D01*
X127045001Y-73650659D01*
X127086604Y-73647019D01*
X127280408Y-73630063D01*
X127508663Y-73568903D01*
X127722830Y-73469035D01*
X127916401Y-73333495D01*
X128083495Y-73166401D01*
X128213425Y-72980842D01*
X128268002Y-72937217D01*
X128337500Y-72930023D01*
X128399855Y-72961546D01*
X128416575Y-72980842D01*
X128546500Y-73166395D01*
X128546505Y-73166401D01*
X128713599Y-73333495D01*
X128810384Y-73401265D01*
X128907165Y-73469032D01*
X128907167Y-73469033D01*
X128907170Y-73469035D01*
X129121337Y-73568903D01*
X129349592Y-73630063D01*
X129524982Y-73645408D01*
X129584999Y-73650659D01*
X129585000Y-73650659D01*
X129585001Y-73650659D01*
X129626604Y-73647019D01*
X129820408Y-73630063D01*
X130048663Y-73568903D01*
X130262830Y-73469035D01*
X130456401Y-73333495D01*
X130623495Y-73166401D01*
X130753425Y-72980842D01*
X130808002Y-72937217D01*
X130877500Y-72930023D01*
X130939855Y-72961546D01*
X130956575Y-72980842D01*
X131086500Y-73166395D01*
X131086505Y-73166401D01*
X131253599Y-73333495D01*
X131350384Y-73401265D01*
X131447165Y-73469032D01*
X131447167Y-73469033D01*
X131447170Y-73469035D01*
X131661337Y-73568903D01*
X131889592Y-73630063D01*
X132064982Y-73645408D01*
X132124999Y-73650659D01*
X132125000Y-73650659D01*
X132125001Y-73650659D01*
X132166604Y-73647019D01*
X132360408Y-73630063D01*
X132588663Y-73568903D01*
X132802830Y-73469035D01*
X132996401Y-73333495D01*
X133163495Y-73166401D01*
X133293425Y-72980842D01*
X133348002Y-72937217D01*
X133417500Y-72930023D01*
X133479855Y-72961546D01*
X133496575Y-72980842D01*
X133626500Y-73166395D01*
X133626505Y-73166401D01*
X133793599Y-73333495D01*
X133890384Y-73401265D01*
X133987165Y-73469032D01*
X133987167Y-73469033D01*
X133987170Y-73469035D01*
X134201337Y-73568903D01*
X134429592Y-73630063D01*
X134604982Y-73645408D01*
X134664999Y-73650659D01*
X134665000Y-73650659D01*
X134665001Y-73650659D01*
X134706604Y-73647019D01*
X134900408Y-73630063D01*
X135128663Y-73568903D01*
X135342830Y-73469035D01*
X135536401Y-73333495D01*
X135703495Y-73166401D01*
X135833730Y-72980405D01*
X135888307Y-72936781D01*
X135957805Y-72929587D01*
X136020160Y-72961110D01*
X136036879Y-72980405D01*
X136166890Y-73166078D01*
X136333917Y-73333105D01*
X136527421Y-73468600D01*
X136741507Y-73568429D01*
X136741516Y-73568433D01*
X136955000Y-73625634D01*
X136955000Y-72728012D01*
X137012007Y-72760925D01*
X137139174Y-72795000D01*
X137270826Y-72795000D01*
X137397993Y-72760925D01*
X137455000Y-72728012D01*
X137455000Y-73625634D01*
X137668483Y-73568433D01*
X137668492Y-73568429D01*
X137882578Y-73468600D01*
X138076082Y-73333105D01*
X138243105Y-73166082D01*
X138373119Y-72980405D01*
X138427696Y-72936781D01*
X138497195Y-72929588D01*
X138559549Y-72961110D01*
X138576269Y-72980405D01*
X138706505Y-73166401D01*
X138873599Y-73333495D01*
X138970384Y-73401265D01*
X139067165Y-73469032D01*
X139067167Y-73469033D01*
X139067170Y-73469035D01*
X139281337Y-73568903D01*
X139509592Y-73630063D01*
X139684982Y-73645408D01*
X139744999Y-73650659D01*
X139745000Y-73650659D01*
X139745001Y-73650659D01*
X139786604Y-73647019D01*
X139980408Y-73630063D01*
X140208663Y-73568903D01*
X140422830Y-73469035D01*
X140616401Y-73333495D01*
X140783495Y-73166401D01*
X140913730Y-72980405D01*
X140968307Y-72936781D01*
X141037805Y-72929587D01*
X141100160Y-72961110D01*
X141116879Y-72980405D01*
X141246890Y-73166078D01*
X141413917Y-73333105D01*
X141607421Y-73468600D01*
X141821507Y-73568429D01*
X141821516Y-73568433D01*
X142035000Y-73625634D01*
X142035000Y-72728012D01*
X142092007Y-72760925D01*
X142219174Y-72795000D01*
X142350826Y-72795000D01*
X142477993Y-72760925D01*
X142535000Y-72728012D01*
X142535000Y-73625634D01*
X142748483Y-73568433D01*
X142748492Y-73568429D01*
X142962578Y-73468600D01*
X143156082Y-73333105D01*
X143323105Y-73166082D01*
X143453119Y-72980405D01*
X143507696Y-72936781D01*
X143577195Y-72929588D01*
X143639549Y-72961110D01*
X143656269Y-72980405D01*
X143786505Y-73166401D01*
X143953599Y-73333495D01*
X144050384Y-73401265D01*
X144147165Y-73469032D01*
X144147167Y-73469033D01*
X144147170Y-73469035D01*
X144361337Y-73568903D01*
X144589592Y-73630063D01*
X144764982Y-73645408D01*
X144824999Y-73650659D01*
X144825000Y-73650659D01*
X144825001Y-73650659D01*
X144866604Y-73647019D01*
X145060408Y-73630063D01*
X145288663Y-73568903D01*
X145502830Y-73469035D01*
X145696401Y-73333495D01*
X145863495Y-73166401D01*
X145993425Y-72980842D01*
X146048002Y-72937217D01*
X146117500Y-72930023D01*
X146179855Y-72961546D01*
X146196575Y-72980842D01*
X146326500Y-73166395D01*
X146326505Y-73166401D01*
X146493599Y-73333495D01*
X146590384Y-73401265D01*
X146687165Y-73469032D01*
X146687167Y-73469033D01*
X146687170Y-73469035D01*
X146901337Y-73568903D01*
X147129592Y-73630063D01*
X147304982Y-73645408D01*
X147364999Y-73650659D01*
X147365000Y-73650659D01*
X147365001Y-73650659D01*
X147406604Y-73647019D01*
X147600408Y-73630063D01*
X147828663Y-73568903D01*
X148042830Y-73469035D01*
X148236401Y-73333495D01*
X148403495Y-73166401D01*
X148533425Y-72980842D01*
X148588002Y-72937217D01*
X148657500Y-72930023D01*
X148719855Y-72961546D01*
X148736575Y-72980842D01*
X148866500Y-73166395D01*
X148866505Y-73166401D01*
X149033599Y-73333495D01*
X149130384Y-73401265D01*
X149227165Y-73469032D01*
X149227167Y-73469033D01*
X149227170Y-73469035D01*
X149441337Y-73568903D01*
X149669592Y-73630063D01*
X149844982Y-73645408D01*
X149904999Y-73650659D01*
X149905000Y-73650659D01*
X149905001Y-73650659D01*
X149946604Y-73647019D01*
X150140408Y-73630063D01*
X150368663Y-73568903D01*
X150484260Y-73514999D01*
X159394341Y-73514999D01*
X159394341Y-73515000D01*
X159414936Y-73750403D01*
X159414938Y-73750413D01*
X159476094Y-73978655D01*
X159476096Y-73978659D01*
X159476097Y-73978663D01*
X159550563Y-74138355D01*
X159575965Y-74192830D01*
X159575967Y-74192834D01*
X159711501Y-74386395D01*
X159711506Y-74386402D01*
X159878597Y-74553493D01*
X159878603Y-74553498D01*
X159904221Y-74571436D01*
X160058201Y-74679254D01*
X160064594Y-74683730D01*
X160108219Y-74738307D01*
X160115413Y-74807805D01*
X160083890Y-74870160D01*
X160064595Y-74886880D01*
X159878922Y-75016890D01*
X159878920Y-75016891D01*
X159711891Y-75183920D01*
X159711886Y-75183926D01*
X159576400Y-75377420D01*
X159576399Y-75377422D01*
X159476570Y-75591507D01*
X159476567Y-75591513D01*
X159419364Y-75804999D01*
X159419364Y-75805000D01*
X160316988Y-75805000D01*
X160284075Y-75862007D01*
X160250000Y-75989174D01*
X160250000Y-76120826D01*
X160284075Y-76247993D01*
X160316988Y-76305000D01*
X159419364Y-76305000D01*
X159476567Y-76518486D01*
X159476570Y-76518492D01*
X159576399Y-76732578D01*
X159711894Y-76926082D01*
X159878917Y-77093105D01*
X160072421Y-77228600D01*
X160286507Y-77328429D01*
X160286516Y-77328433D01*
X160500000Y-77385634D01*
X160500000Y-76488012D01*
X160557007Y-76520925D01*
X160684174Y-76555000D01*
X160815826Y-76555000D01*
X160942993Y-76520925D01*
X161000000Y-76488012D01*
X161000000Y-77385633D01*
X161213483Y-77328433D01*
X161213492Y-77328429D01*
X161427578Y-77228600D01*
X161621082Y-77093105D01*
X161788105Y-76926082D01*
X161923600Y-76732578D01*
X162023429Y-76518492D01*
X162023432Y-76518486D01*
X162080636Y-76305000D01*
X161183012Y-76305000D01*
X161215925Y-76247993D01*
X161250000Y-76120826D01*
X161250000Y-75989174D01*
X161215925Y-75862007D01*
X161183012Y-75805000D01*
X162080636Y-75805000D01*
X162080635Y-75804999D01*
X162023432Y-75591513D01*
X162023429Y-75591507D01*
X161923600Y-75377422D01*
X161923599Y-75377420D01*
X161788113Y-75183926D01*
X161788108Y-75183920D01*
X161621078Y-75016890D01*
X161435405Y-74886879D01*
X161391780Y-74832302D01*
X161384588Y-74762804D01*
X161416110Y-74700449D01*
X161435406Y-74683730D01*
X161441797Y-74679255D01*
X161621401Y-74553495D01*
X161788495Y-74386401D01*
X161924035Y-74192830D01*
X162023903Y-73978663D01*
X162085063Y-73750408D01*
X162105659Y-73515000D01*
X162085063Y-73279592D01*
X162023903Y-73051337D01*
X161924035Y-72837171D01*
X161874923Y-72767032D01*
X161788496Y-72643600D01*
X161746903Y-72602007D01*
X161666567Y-72521671D01*
X161633084Y-72460351D01*
X161638068Y-72390659D01*
X161679939Y-72334725D01*
X161710915Y-72317810D01*
X161842331Y-72268796D01*
X161957546Y-72182546D01*
X162043796Y-72067331D01*
X162094091Y-71932483D01*
X162100500Y-71872873D01*
X162100499Y-70209999D01*
X163644341Y-70209999D01*
X163644341Y-70210000D01*
X163664936Y-70445403D01*
X163664938Y-70445413D01*
X163726094Y-70673655D01*
X163726096Y-70673659D01*
X163726097Y-70673663D01*
X163800769Y-70833797D01*
X163825965Y-70887830D01*
X163825967Y-70887834D01*
X163924745Y-71028903D01*
X163950680Y-71065942D01*
X163961501Y-71081395D01*
X163961506Y-71081402D01*
X164128597Y-71248493D01*
X164128603Y-71248498D01*
X164314158Y-71378425D01*
X164357783Y-71433002D01*
X164364977Y-71502500D01*
X164333454Y-71564855D01*
X164314158Y-71581575D01*
X164128597Y-71711505D01*
X163961505Y-71878597D01*
X163825965Y-72072169D01*
X163825964Y-72072171D01*
X163726098Y-72286335D01*
X163726094Y-72286344D01*
X163664938Y-72514586D01*
X163664936Y-72514596D01*
X163644341Y-72749999D01*
X163644341Y-72750000D01*
X163664936Y-72985403D01*
X163664938Y-72985413D01*
X163726094Y-73213655D01*
X163726096Y-73213659D01*
X163726097Y-73213663D01*
X163781794Y-73333105D01*
X163825965Y-73427830D01*
X163825967Y-73427834D01*
X163924416Y-73568433D01*
X163961501Y-73621396D01*
X163961506Y-73621402D01*
X164083430Y-73743326D01*
X164116915Y-73804649D01*
X164111931Y-73874341D01*
X164070059Y-73930274D01*
X164039083Y-73947189D01*
X163907669Y-73996203D01*
X163907664Y-73996206D01*
X163792455Y-74082452D01*
X163792452Y-74082455D01*
X163706206Y-74197664D01*
X163706202Y-74197671D01*
X163655908Y-74332517D01*
X163649501Y-74392116D01*
X163649501Y-74392123D01*
X163649500Y-74392135D01*
X163649500Y-76187870D01*
X163649501Y-76187876D01*
X163655908Y-76247483D01*
X163706202Y-76382328D01*
X163706206Y-76382335D01*
X163792452Y-76497544D01*
X163792455Y-76497547D01*
X163907664Y-76583793D01*
X163907671Y-76583797D01*
X164042517Y-76634091D01*
X164042516Y-76634091D01*
X164049444Y-76634835D01*
X164102127Y-76640500D01*
X165897872Y-76640499D01*
X165957483Y-76634091D01*
X166092331Y-76583796D01*
X166207546Y-76497546D01*
X166293796Y-76382331D01*
X166344091Y-76247483D01*
X166350500Y-76187873D01*
X166350499Y-74392128D01*
X166344091Y-74332517D01*
X166339702Y-74320750D01*
X166293797Y-74197671D01*
X166293793Y-74197664D01*
X166207547Y-74082455D01*
X166207544Y-74082452D01*
X166092335Y-73996206D01*
X166092328Y-73996202D01*
X165960917Y-73947189D01*
X165904983Y-73905318D01*
X165880566Y-73839853D01*
X165895418Y-73771580D01*
X165916563Y-73743332D01*
X166038495Y-73621401D01*
X166174035Y-73427830D01*
X166273903Y-73213663D01*
X166335063Y-72985408D01*
X166355659Y-72750000D01*
X166335063Y-72514592D01*
X166273903Y-72286337D01*
X166174035Y-72072171D01*
X166168794Y-72064685D01*
X166038494Y-71878597D01*
X165871402Y-71711506D01*
X165871396Y-71711501D01*
X165685842Y-71581575D01*
X165642217Y-71526998D01*
X165635023Y-71457500D01*
X165666546Y-71395145D01*
X165685842Y-71378425D01*
X165708026Y-71362891D01*
X165871401Y-71248495D01*
X166038495Y-71081401D01*
X166174035Y-70887830D01*
X166273903Y-70673663D01*
X166335063Y-70445408D01*
X166355659Y-70210000D01*
X166352426Y-70173053D01*
X166350856Y-70155099D01*
X166335063Y-69974592D01*
X166284298Y-69785132D01*
X166273905Y-69746344D01*
X166273904Y-69746343D01*
X166273903Y-69746337D01*
X166174035Y-69532171D01*
X166165228Y-69519592D01*
X166038494Y-69338597D01*
X165871402Y-69171506D01*
X165871395Y-69171501D01*
X165677834Y-69035967D01*
X165677830Y-69035965D01*
X165677828Y-69035964D01*
X165463663Y-68936097D01*
X165463659Y-68936096D01*
X165463655Y-68936094D01*
X165235413Y-68874938D01*
X165235403Y-68874936D01*
X165000001Y-68854341D01*
X164999999Y-68854341D01*
X164764596Y-68874936D01*
X164764586Y-68874938D01*
X164536344Y-68936094D01*
X164536335Y-68936098D01*
X164322171Y-69035964D01*
X164322169Y-69035965D01*
X164128597Y-69171505D01*
X163961505Y-69338597D01*
X163825965Y-69532169D01*
X163825964Y-69532171D01*
X163726098Y-69746335D01*
X163726094Y-69746344D01*
X163664938Y-69974586D01*
X163664936Y-69974596D01*
X163644341Y-70209999D01*
X162100499Y-70209999D01*
X162100499Y-70077128D01*
X162094091Y-70017517D01*
X162089422Y-70005000D01*
X162043797Y-69882671D01*
X162043793Y-69882664D01*
X161957547Y-69767455D01*
X161957544Y-69767452D01*
X161842335Y-69681206D01*
X161842328Y-69681202D01*
X161707482Y-69630908D01*
X161707483Y-69630908D01*
X161647883Y-69624501D01*
X161647881Y-69624500D01*
X161647873Y-69624500D01*
X161647864Y-69624500D01*
X159852129Y-69624500D01*
X159852123Y-69624501D01*
X159792516Y-69630908D01*
X159657671Y-69681202D01*
X159657664Y-69681206D01*
X159542455Y-69767452D01*
X159542452Y-69767455D01*
X159456206Y-69882664D01*
X159456202Y-69882671D01*
X159405908Y-70017517D01*
X159399501Y-70077116D01*
X159399501Y-70077123D01*
X159399500Y-70077135D01*
X159399500Y-71872870D01*
X159399501Y-71872876D01*
X159405908Y-71932483D01*
X159456202Y-72067328D01*
X159456206Y-72067335D01*
X159542452Y-72182544D01*
X159542455Y-72182547D01*
X159657664Y-72268793D01*
X159657671Y-72268797D01*
X159789081Y-72317810D01*
X159845015Y-72359681D01*
X159869432Y-72425145D01*
X159854580Y-72493418D01*
X159833430Y-72521673D01*
X159711503Y-72643600D01*
X159575965Y-72837169D01*
X159575964Y-72837171D01*
X159476098Y-73051335D01*
X159476094Y-73051344D01*
X159414938Y-73279586D01*
X159414936Y-73279596D01*
X159394341Y-73514999D01*
X150484260Y-73514999D01*
X150582830Y-73469035D01*
X150776401Y-73333495D01*
X150943495Y-73166401D01*
X151079035Y-72972830D01*
X151178903Y-72758663D01*
X151240063Y-72530408D01*
X151260659Y-72295000D01*
X151258927Y-72275209D01*
X151242193Y-72083940D01*
X151240063Y-72059592D01*
X151178903Y-71831337D01*
X151079035Y-71617171D01*
X151073731Y-71609595D01*
X150943494Y-71423597D01*
X150776402Y-71256506D01*
X150776401Y-71256505D01*
X150605423Y-71136785D01*
X150590405Y-71126269D01*
X150546781Y-71071692D01*
X150539588Y-71002193D01*
X150571110Y-70939839D01*
X150590405Y-70923119D01*
X150627606Y-70897070D01*
X153149500Y-70897070D01*
X153149500Y-71152930D01*
X153165966Y-71256890D01*
X153189526Y-71405640D01*
X153268588Y-71648972D01*
X153268589Y-71648975D01*
X153342994Y-71795000D01*
X153382677Y-71872883D01*
X153384750Y-71876950D01*
X153535132Y-72083935D01*
X153535136Y-72083940D01*
X153716059Y-72264863D01*
X153716064Y-72264867D01*
X153889203Y-72390659D01*
X153923053Y-72415252D01*
X154063299Y-72486711D01*
X154151024Y-72531410D01*
X154151027Y-72531411D01*
X154239340Y-72560105D01*
X154394361Y-72610474D01*
X154647070Y-72650500D01*
X154647071Y-72650500D01*
X154902929Y-72650500D01*
X154902930Y-72650500D01*
X155155639Y-72610474D01*
X155398975Y-72531410D01*
X155626947Y-72415252D01*
X155833942Y-72264862D01*
X156014862Y-72083942D01*
X156165252Y-71876947D01*
X156281410Y-71648975D01*
X156360474Y-71405639D01*
X156400500Y-71152930D01*
X156400500Y-70897070D01*
X156360474Y-70644361D01*
X156312751Y-70497482D01*
X156281411Y-70401027D01*
X156281410Y-70401024D01*
X156207006Y-70255000D01*
X156165252Y-70173053D01*
X156095564Y-70077135D01*
X156014867Y-69966064D01*
X156014863Y-69966059D01*
X155833940Y-69785136D01*
X155833935Y-69785132D01*
X155626950Y-69634750D01*
X155626949Y-69634749D01*
X155626947Y-69634748D01*
X155511862Y-69576109D01*
X155398975Y-69518589D01*
X155398972Y-69518588D01*
X155155640Y-69439526D01*
X155029284Y-69419513D01*
X154902930Y-69399500D01*
X154647070Y-69399500D01*
X154562833Y-69412842D01*
X154394359Y-69439526D01*
X154151027Y-69518588D01*
X154151024Y-69518589D01*
X153923049Y-69634750D01*
X153716064Y-69785132D01*
X153716059Y-69785136D01*
X153535136Y-69966059D01*
X153535132Y-69966064D01*
X153384750Y-70173049D01*
X153268589Y-70401024D01*
X153268588Y-70401027D01*
X153189526Y-70644359D01*
X153150963Y-70887834D01*
X153149500Y-70897070D01*
X150627606Y-70897070D01*
X150776082Y-70793105D01*
X150943105Y-70626082D01*
X151078600Y-70432578D01*
X151178429Y-70218492D01*
X151178432Y-70218486D01*
X151235636Y-70005000D01*
X150338012Y-70005000D01*
X150370925Y-69947993D01*
X150405000Y-69820826D01*
X150405000Y-69689174D01*
X150370925Y-69562007D01*
X150338012Y-69505000D01*
X151235636Y-69505000D01*
X151235635Y-69504999D01*
X151178432Y-69291513D01*
X151178429Y-69291507D01*
X151078600Y-69077422D01*
X151078599Y-69077420D01*
X150943113Y-68883926D01*
X150943108Y-68883920D01*
X150776082Y-68716894D01*
X150582578Y-68581399D01*
X150368492Y-68481570D01*
X150368486Y-68481567D01*
X150155000Y-68424364D01*
X150155000Y-69321988D01*
X150097993Y-69289075D01*
X149970826Y-69255000D01*
X149839174Y-69255000D01*
X149712007Y-69289075D01*
X149655000Y-69321988D01*
X149655000Y-68424364D01*
X149654999Y-68424364D01*
X149441513Y-68481567D01*
X149441507Y-68481570D01*
X149227422Y-68581399D01*
X149227420Y-68581400D01*
X149033926Y-68716886D01*
X149033920Y-68716891D01*
X148866891Y-68883920D01*
X148866890Y-68883922D01*
X148736880Y-69069595D01*
X148682303Y-69113219D01*
X148612804Y-69120412D01*
X148550450Y-69088890D01*
X148533730Y-69069594D01*
X148403494Y-68883597D01*
X148236402Y-68716506D01*
X148236395Y-68716501D01*
X148042834Y-68580967D01*
X148042830Y-68580965D01*
X147978094Y-68550778D01*
X147828663Y-68481097D01*
X147828659Y-68481096D01*
X147828655Y-68481094D01*
X147600413Y-68419938D01*
X147600403Y-68419936D01*
X147365001Y-68399341D01*
X147364999Y-68399341D01*
X147129596Y-68419936D01*
X147129586Y-68419938D01*
X146901344Y-68481094D01*
X146901335Y-68481098D01*
X146687171Y-68580964D01*
X146687169Y-68580965D01*
X146493597Y-68716505D01*
X146326505Y-68883597D01*
X146196575Y-69069158D01*
X146141998Y-69112783D01*
X146072500Y-69119977D01*
X146010145Y-69088454D01*
X145993425Y-69069158D01*
X145863494Y-68883597D01*
X145696402Y-68716506D01*
X145696395Y-68716501D01*
X145502834Y-68580967D01*
X145502830Y-68580965D01*
X145438094Y-68550778D01*
X145288663Y-68481097D01*
X145288659Y-68481096D01*
X145288655Y-68481094D01*
X145060413Y-68419938D01*
X145060403Y-68419936D01*
X144825001Y-68399341D01*
X144824999Y-68399341D01*
X144589596Y-68419936D01*
X144589586Y-68419938D01*
X144361344Y-68481094D01*
X144361335Y-68481098D01*
X144147171Y-68580964D01*
X144147169Y-68580965D01*
X143953597Y-68716505D01*
X143786505Y-68883597D01*
X143656575Y-69069158D01*
X143601998Y-69112783D01*
X143532500Y-69119977D01*
X143470145Y-69088454D01*
X143453425Y-69069158D01*
X143323494Y-68883597D01*
X143156402Y-68716506D01*
X143156395Y-68716501D01*
X142962834Y-68580967D01*
X142962830Y-68580965D01*
X142898094Y-68550778D01*
X142748663Y-68481097D01*
X142748659Y-68481096D01*
X142748655Y-68481094D01*
X142520413Y-68419938D01*
X142520403Y-68419936D01*
X142285001Y-68399341D01*
X142284999Y-68399341D01*
X142049596Y-68419936D01*
X142049586Y-68419938D01*
X141821344Y-68481094D01*
X141821335Y-68481098D01*
X141607171Y-68580964D01*
X141607169Y-68580965D01*
X141413597Y-68716505D01*
X141246505Y-68883597D01*
X141116575Y-69069158D01*
X141061998Y-69112783D01*
X140992500Y-69119977D01*
X140930145Y-69088454D01*
X140913425Y-69069158D01*
X140783494Y-68883597D01*
X140616402Y-68716506D01*
X140616395Y-68716501D01*
X140422831Y-68580965D01*
X140422826Y-68580962D01*
X140417091Y-68578288D01*
X140364653Y-68532113D01*
X140345500Y-68465908D01*
X140345500Y-63987940D01*
X140365185Y-63920901D01*
X140375684Y-63907871D01*
X140375475Y-63907705D01*
X140379811Y-63902266D01*
X140379816Y-63902262D01*
X140475789Y-63749522D01*
X140535368Y-63579255D01*
X140543004Y-63511485D01*
X140555565Y-63400003D01*
X140555565Y-63399996D01*
X140535369Y-63220750D01*
X140535368Y-63220745D01*
X140528897Y-63202253D01*
X140475789Y-63050478D01*
X140379816Y-62897738D01*
X140252262Y-62770184D01*
X140201112Y-62738044D01*
X140099523Y-62674211D01*
X139929254Y-62614631D01*
X139929249Y-62614630D01*
X139750004Y-62594435D01*
X139749996Y-62594435D01*
X139570750Y-62614630D01*
X139570745Y-62614631D01*
X139400476Y-62674211D01*
X139247737Y-62770184D01*
X139120184Y-62897737D01*
X139024211Y-63050476D01*
X138964631Y-63220745D01*
X138964630Y-63220750D01*
X138944435Y-63399996D01*
X138944435Y-63400003D01*
X138964630Y-63579249D01*
X138964631Y-63579254D01*
X139024211Y-63749523D01*
X139068963Y-63820745D01*
X139118856Y-63900149D01*
X139123889Y-63908158D01*
X139121790Y-63909476D01*
X139143854Y-63963498D01*
X139144500Y-63976142D01*
X139144500Y-68465908D01*
X139124815Y-68532947D01*
X139072914Y-68578286D01*
X139067173Y-68580963D01*
X139067169Y-68580965D01*
X138873597Y-68716505D01*
X138706505Y-68883597D01*
X138576575Y-69069158D01*
X138521998Y-69112783D01*
X138452500Y-69119977D01*
X138390145Y-69088454D01*
X138373425Y-69069158D01*
X138243494Y-68883597D01*
X138076402Y-68716506D01*
X138076395Y-68716501D01*
X137882831Y-68580965D01*
X137882826Y-68580962D01*
X137877091Y-68578288D01*
X137824653Y-68532113D01*
X137805500Y-68465908D01*
X137805500Y-64027940D01*
X137825185Y-63960901D01*
X137841819Y-63940259D01*
X137857867Y-63924211D01*
X137879816Y-63902262D01*
X137975789Y-63749522D01*
X138035368Y-63579255D01*
X138043004Y-63511485D01*
X138055565Y-63400003D01*
X138055565Y-63399996D01*
X138035369Y-63220750D01*
X138035368Y-63220745D01*
X138028897Y-63202253D01*
X137975789Y-63050478D01*
X137879816Y-62897738D01*
X137752262Y-62770184D01*
X137701112Y-62738044D01*
X137599523Y-62674211D01*
X137429254Y-62614631D01*
X137429249Y-62614630D01*
X137250004Y-62594435D01*
X137249996Y-62594435D01*
X137070750Y-62614630D01*
X137070745Y-62614631D01*
X136900476Y-62674211D01*
X136829126Y-62719044D01*
X136761889Y-62738044D01*
X136695054Y-62717676D01*
X136649840Y-62664408D01*
X136646112Y-62655004D01*
X136645981Y-62654631D01*
X136600789Y-62525478D01*
X136504816Y-62372738D01*
X136377262Y-62245184D01*
X136323664Y-62211506D01*
X136224523Y-62149211D01*
X136054254Y-62089631D01*
X136054249Y-62089630D01*
X135875004Y-62069435D01*
X135874996Y-62069435D01*
X135695750Y-62089630D01*
X135695745Y-62089631D01*
X135525476Y-62149211D01*
X135372737Y-62245184D01*
X135245184Y-62372737D01*
X135149210Y-62525478D01*
X135089630Y-62695750D01*
X135079837Y-62782668D01*
X135052770Y-62847082D01*
X135044298Y-62856465D01*
X134296286Y-63604478D01*
X134184481Y-63716282D01*
X134184481Y-63716283D01*
X134184480Y-63716284D01*
X134142197Y-63789522D01*
X134134361Y-63803094D01*
X134134359Y-63803096D01*
X134105425Y-63853209D01*
X134105424Y-63853210D01*
X134092847Y-63900149D01*
X134064499Y-64005943D01*
X134064499Y-64005945D01*
X134064499Y-64033059D01*
X134044814Y-64100098D01*
X133992010Y-64145853D01*
X133922852Y-64155797D01*
X133859296Y-64126772D01*
X133852818Y-64120740D01*
X133752262Y-64020184D01*
X133599523Y-63924211D01*
X133429254Y-63864631D01*
X133429249Y-63864630D01*
X133250004Y-63844435D01*
X133249996Y-63844435D01*
X133070750Y-63864630D01*
X133070745Y-63864631D01*
X132900476Y-63924211D01*
X132747737Y-64020184D01*
X132620184Y-64147737D01*
X132524211Y-64300476D01*
X132464631Y-64470745D01*
X132464630Y-64470750D01*
X132444435Y-64649996D01*
X132444435Y-64650003D01*
X132464630Y-64829249D01*
X132464631Y-64829254D01*
X132524211Y-64999523D01*
X132620184Y-65152262D01*
X132638181Y-65170259D01*
X132671666Y-65231582D01*
X132674500Y-65257940D01*
X132674500Y-68343014D01*
X132654815Y-68410053D01*
X132602011Y-68455808D01*
X132532853Y-68465752D01*
X132518407Y-68462789D01*
X132375000Y-68424363D01*
X132375000Y-69321988D01*
X132317993Y-69289075D01*
X132190826Y-69255000D01*
X132059174Y-69255000D01*
X131932007Y-69289075D01*
X131875000Y-69321988D01*
X131875000Y-68424364D01*
X131874999Y-68424363D01*
X131731593Y-68462789D01*
X131661743Y-68461126D01*
X131603881Y-68421963D01*
X131576377Y-68357735D01*
X131575500Y-68343014D01*
X131575500Y-65857940D01*
X131595185Y-65790901D01*
X131611819Y-65770259D01*
X131629816Y-65752262D01*
X131725789Y-65599522D01*
X131785368Y-65429255D01*
X131794352Y-65349522D01*
X131805565Y-65250003D01*
X131805565Y-65249996D01*
X131785369Y-65070750D01*
X131785368Y-65070745D01*
X131760446Y-64999522D01*
X131725789Y-64900478D01*
X131720542Y-64892128D01*
X131631237Y-64750000D01*
X131629816Y-64747738D01*
X131502262Y-64620184D01*
X131442217Y-64582455D01*
X131349523Y-64524211D01*
X131179254Y-64464631D01*
X131179249Y-64464630D01*
X131000004Y-64444435D01*
X130999996Y-64444435D01*
X130820750Y-64464630D01*
X130820745Y-64464631D01*
X130650476Y-64524211D01*
X130497737Y-64620184D01*
X130370184Y-64747737D01*
X130274211Y-64900476D01*
X130214631Y-65070745D01*
X130214630Y-65070750D01*
X130194435Y-65249996D01*
X130194435Y-65250003D01*
X130214630Y-65429249D01*
X130214631Y-65429254D01*
X130274211Y-65599524D01*
X130355493Y-65728881D01*
X130374500Y-65794854D01*
X130374500Y-68438396D01*
X130354815Y-68505435D01*
X130302011Y-68551190D01*
X130232853Y-68561134D01*
X130198096Y-68550778D01*
X130048669Y-68481099D01*
X130048655Y-68481094D01*
X129820413Y-68419938D01*
X129820403Y-68419936D01*
X129585001Y-68399341D01*
X129584999Y-68399341D01*
X129349596Y-68419936D01*
X129349586Y-68419938D01*
X129121344Y-68481094D01*
X129121335Y-68481098D01*
X128907171Y-68580964D01*
X128907169Y-68580965D01*
X128713597Y-68716505D01*
X128546505Y-68883597D01*
X128416575Y-69069158D01*
X128361998Y-69112783D01*
X128292500Y-69119977D01*
X128230145Y-69088454D01*
X128213425Y-69069158D01*
X128083494Y-68883597D01*
X127916402Y-68716506D01*
X127916395Y-68716501D01*
X127722831Y-68580965D01*
X127722826Y-68580962D01*
X127717091Y-68578288D01*
X127664653Y-68532113D01*
X127645500Y-68465908D01*
X127645500Y-65263025D01*
X127664506Y-65197053D01*
X127692650Y-65152262D01*
X127725789Y-65099522D01*
X127785368Y-64929255D01*
X127785999Y-64923655D01*
X127805565Y-64750003D01*
X127805565Y-64749996D01*
X127785369Y-64570750D01*
X127785368Y-64570745D01*
X127759285Y-64496204D01*
X127725789Y-64400478D01*
X127629816Y-64247738D01*
X127502262Y-64120184D01*
X127484267Y-64108877D01*
X127349523Y-64024211D01*
X127179254Y-63964631D01*
X127179249Y-63964630D01*
X127000004Y-63944435D01*
X126999996Y-63944435D01*
X126820750Y-63964630D01*
X126820745Y-63964631D01*
X126650476Y-64024211D01*
X126497737Y-64120184D01*
X126467181Y-64150741D01*
X126405858Y-64184226D01*
X126336166Y-64179242D01*
X126280233Y-64137370D01*
X126255816Y-64071906D01*
X126255500Y-64063060D01*
X126255500Y-63785679D01*
X126262459Y-63744724D01*
X126265534Y-63735936D01*
X126285368Y-63679255D01*
X126305565Y-63500000D01*
X126303999Y-63486102D01*
X126285369Y-63320750D01*
X126285368Y-63320745D01*
X126250376Y-63220745D01*
X126225789Y-63150478D01*
X126129816Y-62997738D01*
X126002262Y-62870184D01*
X125849523Y-62774211D01*
X125679254Y-62714631D01*
X125679249Y-62714630D01*
X125500004Y-62694435D01*
X125499996Y-62694435D01*
X125320750Y-62714630D01*
X125320745Y-62714631D01*
X125150476Y-62774211D01*
X124997737Y-62870184D01*
X124870184Y-62997737D01*
X124774211Y-63150476D01*
X124714631Y-63320745D01*
X124714630Y-63320750D01*
X124694435Y-63499996D01*
X124694435Y-63500000D01*
X124714630Y-63679249D01*
X124714631Y-63679254D01*
X124774211Y-63849523D01*
X124870184Y-64002262D01*
X124915476Y-64047554D01*
X124948961Y-64108877D01*
X124943977Y-64178569D01*
X124902105Y-64234502D01*
X124836641Y-64258919D01*
X124786841Y-64252277D01*
X124679257Y-64214632D01*
X124679249Y-64214630D01*
X124500004Y-64194435D01*
X124499996Y-64194435D01*
X124320750Y-64214630D01*
X124320745Y-64214631D01*
X124150476Y-64274211D01*
X123997737Y-64370184D01*
X123927181Y-64440741D01*
X123865858Y-64474226D01*
X123796166Y-64469242D01*
X123740233Y-64427370D01*
X123715816Y-64361906D01*
X123715500Y-64353060D01*
X123715500Y-64184059D01*
X123715501Y-64184046D01*
X123715501Y-64015945D01*
X123715501Y-64015944D01*
X123715501Y-64015943D01*
X123674577Y-63863215D01*
X123632030Y-63789522D01*
X123595520Y-63726284D01*
X123541435Y-63672199D01*
X123507950Y-63610876D01*
X123505898Y-63598419D01*
X123496103Y-63511480D01*
X123436524Y-63341213D01*
X123340551Y-63188473D01*
X123212997Y-63060919D01*
X123172828Y-63035679D01*
X123060258Y-62964946D01*
X122889989Y-62905366D01*
X122889984Y-62905365D01*
X122710739Y-62885170D01*
X122710731Y-62885170D01*
X122531485Y-62905365D01*
X122531480Y-62905366D01*
X122361211Y-62964946D01*
X122208472Y-63060919D01*
X122080919Y-63188472D01*
X121984946Y-63341211D01*
X121925366Y-63511480D01*
X121925365Y-63511485D01*
X121905170Y-63690731D01*
X121905170Y-63690738D01*
X121925365Y-63869984D01*
X121925366Y-63869989D01*
X121984946Y-64040258D01*
X122075408Y-64184226D01*
X122080919Y-64192997D01*
X122208473Y-64320551D01*
X122239192Y-64339853D01*
X122343378Y-64405318D01*
X122361213Y-64416524D01*
X122431454Y-64441102D01*
X122488230Y-64481824D01*
X122513978Y-64546776D01*
X122514500Y-64558144D01*
X122514500Y-68342496D01*
X122494815Y-68409535D01*
X122442011Y-68455290D01*
X122372853Y-68465234D01*
X122358408Y-68462271D01*
X122200416Y-68419939D01*
X122200412Y-68419938D01*
X122200408Y-68419937D01*
X122200406Y-68419936D01*
X122200403Y-68419936D01*
X121965001Y-68399341D01*
X121964999Y-68399341D01*
X121729596Y-68419936D01*
X121729583Y-68419939D01*
X121571592Y-68462271D01*
X121501742Y-68460608D01*
X121443880Y-68421445D01*
X121416377Y-68357216D01*
X121415500Y-68342496D01*
X121415500Y-63735945D01*
X121415498Y-63735936D01*
X121412912Y-63726284D01*
X121410233Y-63716284D01*
X121374577Y-63583215D01*
X121341255Y-63525500D01*
X121313414Y-63477279D01*
X121297583Y-63429169D01*
X121285368Y-63320745D01*
X121225789Y-63150478D01*
X121129816Y-62997738D01*
X121002262Y-62870184D01*
X120849523Y-62774211D01*
X120679254Y-62714631D01*
X120679249Y-62714630D01*
X120500004Y-62694435D01*
X120499996Y-62694435D01*
X120320750Y-62714630D01*
X120320745Y-62714631D01*
X120150476Y-62774211D01*
X119997737Y-62870184D01*
X119870184Y-62997737D01*
X119774211Y-63150476D01*
X119714631Y-63320745D01*
X119714630Y-63320750D01*
X119694435Y-63499996D01*
X119694435Y-63500000D01*
X119714630Y-63679249D01*
X119714631Y-63679254D01*
X119774211Y-63849523D01*
X119828912Y-63936578D01*
X119870184Y-64002262D01*
X119997738Y-64129816D01*
X120075328Y-64178569D01*
X120156374Y-64229494D01*
X120154664Y-64232215D01*
X120196057Y-64269467D01*
X120214500Y-64334535D01*
X120214500Y-64533060D01*
X120194815Y-64600099D01*
X120142011Y-64645854D01*
X120072853Y-64655798D01*
X120009297Y-64626773D01*
X120002819Y-64620741D01*
X120002262Y-64620184D01*
X119849523Y-64524211D01*
X119679254Y-64464631D01*
X119679249Y-64464630D01*
X119500004Y-64444435D01*
X119499996Y-64444435D01*
X119320750Y-64464630D01*
X119320745Y-64464631D01*
X119150476Y-64524211D01*
X118997737Y-64620184D01*
X118870184Y-64747737D01*
X118774211Y-64900476D01*
X118714631Y-65070745D01*
X118714630Y-65070750D01*
X118694435Y-65249996D01*
X118694435Y-65250003D01*
X118714630Y-65429249D01*
X118714631Y-65429254D01*
X118774211Y-65599524D01*
X118805493Y-65649307D01*
X118824500Y-65715280D01*
X118824500Y-68465908D01*
X118804815Y-68532947D01*
X118752914Y-68578286D01*
X118747173Y-68580963D01*
X118747169Y-68580965D01*
X118553597Y-68716505D01*
X118386505Y-68883597D01*
X118256575Y-69069158D01*
X118201998Y-69112783D01*
X118132500Y-69119977D01*
X118070145Y-69088454D01*
X118053425Y-69069158D01*
X117923494Y-68883597D01*
X117756402Y-68716506D01*
X117756395Y-68716501D01*
X117562831Y-68580965D01*
X117562826Y-68580962D01*
X117557091Y-68578288D01*
X117504653Y-68532113D01*
X117485500Y-68465908D01*
X117485500Y-64474059D01*
X117485501Y-64474046D01*
X117485501Y-64305945D01*
X117485501Y-64305943D01*
X117444577Y-64153215D01*
X117408324Y-64090423D01*
X117408324Y-64090422D01*
X117365524Y-64016290D01*
X117365521Y-64016286D01*
X117365520Y-64016284D01*
X117253716Y-63904480D01*
X117253715Y-63904479D01*
X117249385Y-63900149D01*
X117249374Y-63900139D01*
X116770700Y-63421465D01*
X116737215Y-63360142D01*
X116735163Y-63347686D01*
X116725368Y-63260745D01*
X116665789Y-63090478D01*
X116569816Y-62937738D01*
X116442262Y-62810184D01*
X116398471Y-62782668D01*
X116289523Y-62714211D01*
X116119254Y-62654631D01*
X116119249Y-62654630D01*
X115940004Y-62634435D01*
X115939996Y-62634435D01*
X115760750Y-62654630D01*
X115760745Y-62654631D01*
X115590476Y-62714211D01*
X115437737Y-62810184D01*
X115310184Y-62937737D01*
X115214211Y-63090476D01*
X115154631Y-63260745D01*
X115154630Y-63260750D01*
X115134435Y-63439996D01*
X115134435Y-63440003D01*
X115154630Y-63619249D01*
X115154631Y-63619254D01*
X115214211Y-63789523D01*
X115308925Y-63940259D01*
X115310184Y-63942262D01*
X115437738Y-64069816D01*
X115590478Y-64165789D01*
X115760745Y-64225368D01*
X115847669Y-64235161D01*
X115912080Y-64262226D01*
X115921465Y-64270700D01*
X116248181Y-64597416D01*
X116281666Y-64658739D01*
X116284500Y-64685097D01*
X116284500Y-68465908D01*
X116264815Y-68532947D01*
X116212914Y-68578286D01*
X116207173Y-68580963D01*
X116207169Y-68580965D01*
X116013597Y-68716505D01*
X115846505Y-68883597D01*
X115716575Y-69069158D01*
X115661998Y-69112783D01*
X115592500Y-69119977D01*
X115530145Y-69088454D01*
X115513425Y-69069158D01*
X115383494Y-68883597D01*
X115216402Y-68716506D01*
X115216395Y-68716501D01*
X115022831Y-68580965D01*
X115022826Y-68580962D01*
X115017091Y-68578288D01*
X114964653Y-68532113D01*
X114945500Y-68465908D01*
X114945500Y-64184060D01*
X114945501Y-64184047D01*
X114945501Y-64015944D01*
X114931752Y-63964632D01*
X114904577Y-63863216D01*
X114898800Y-63853209D01*
X114825524Y-63726290D01*
X114825518Y-63726282D01*
X114203577Y-63104341D01*
X113580699Y-62481464D01*
X113547215Y-62420142D01*
X113545163Y-62407686D01*
X113535368Y-62320745D01*
X113475789Y-62150478D01*
X113379816Y-61997738D01*
X113252262Y-61870184D01*
X113140570Y-61800003D01*
X113099523Y-61774211D01*
X112929254Y-61714631D01*
X112929249Y-61714630D01*
X112750004Y-61694435D01*
X112749996Y-61694435D01*
X112570750Y-61714630D01*
X112570745Y-61714631D01*
X112400476Y-61774211D01*
X112247737Y-61870184D01*
X112120184Y-61997737D01*
X112024211Y-62150476D01*
X111964631Y-62320745D01*
X111964630Y-62320750D01*
X111944435Y-62499996D01*
X111944435Y-62500003D01*
X111964630Y-62679249D01*
X111964631Y-62679254D01*
X112024211Y-62849523D01*
X112079640Y-62937737D01*
X112120184Y-63002262D01*
X112247738Y-63129816D01*
X112400478Y-63225789D01*
X112570745Y-63285368D01*
X112657669Y-63295161D01*
X112722080Y-63322226D01*
X112731465Y-63330700D01*
X113708181Y-64307416D01*
X113741666Y-64368739D01*
X113744500Y-64395097D01*
X113744500Y-68465908D01*
X113724815Y-68532947D01*
X113672914Y-68578286D01*
X113667173Y-68580963D01*
X113667169Y-68580965D01*
X113473597Y-68716505D01*
X113306508Y-68883594D01*
X113176269Y-69069595D01*
X113121692Y-69113219D01*
X113052193Y-69120412D01*
X112989839Y-69088890D01*
X112973119Y-69069594D01*
X112843113Y-68883926D01*
X112843108Y-68883920D01*
X112676082Y-68716894D01*
X112482578Y-68581399D01*
X112268492Y-68481570D01*
X112268486Y-68481567D01*
X112055000Y-68424364D01*
X112055000Y-69321988D01*
X111997993Y-69289075D01*
X111870826Y-69255000D01*
X111739174Y-69255000D01*
X111612007Y-69289075D01*
X111555000Y-69321988D01*
X111555000Y-68424364D01*
X111554999Y-68424364D01*
X111341513Y-68481567D01*
X111341507Y-68481570D01*
X111127422Y-68581399D01*
X111127420Y-68581400D01*
X110933926Y-68716886D01*
X110933920Y-68716891D01*
X110766891Y-68883920D01*
X110766890Y-68883922D01*
X110636880Y-69069595D01*
X110582303Y-69113219D01*
X110512804Y-69120412D01*
X110450450Y-69088890D01*
X110433730Y-69069594D01*
X110303494Y-68883597D01*
X110136402Y-68716506D01*
X110136395Y-68716501D01*
X109942831Y-68580965D01*
X109942826Y-68580962D01*
X109937091Y-68578288D01*
X109884653Y-68532113D01*
X109865500Y-68465908D01*
X109865500Y-62535945D01*
X109865500Y-62535943D01*
X109839918Y-62440470D01*
X109837063Y-62429816D01*
X109824577Y-62383215D01*
X109788510Y-62320745D01*
X109745520Y-62246284D01*
X109633716Y-62134480D01*
X109633715Y-62134479D01*
X109629385Y-62130149D01*
X109629374Y-62130139D01*
X109280700Y-61781465D01*
X109247215Y-61720142D01*
X109245163Y-61707686D01*
X109235368Y-61620745D01*
X109175789Y-61450478D01*
X109079816Y-61297738D01*
X108952262Y-61170184D01*
X108799523Y-61074211D01*
X108629254Y-61014631D01*
X108629249Y-61014630D01*
X108450004Y-60994435D01*
X108449996Y-60994435D01*
X108270750Y-61014630D01*
X108270745Y-61014631D01*
X108100476Y-61074211D01*
X107947737Y-61170184D01*
X107820184Y-61297737D01*
X107724211Y-61450476D01*
X107664631Y-61620745D01*
X107664630Y-61620750D01*
X107644435Y-61799996D01*
X107644435Y-61800003D01*
X107664630Y-61979249D01*
X107664631Y-61979254D01*
X107724211Y-62149523D01*
X107820184Y-62302262D01*
X107947738Y-62429816D01*
X108100478Y-62525789D01*
X108270745Y-62585368D01*
X108357669Y-62595161D01*
X108422080Y-62622226D01*
X108431465Y-62630700D01*
X108628181Y-62827416D01*
X108661666Y-62888739D01*
X108664500Y-62915097D01*
X108664500Y-68465908D01*
X108644815Y-68532947D01*
X108592914Y-68578286D01*
X108587173Y-68580963D01*
X108587169Y-68580965D01*
X108393597Y-68716505D01*
X108226505Y-68883597D01*
X108096575Y-69069158D01*
X108041998Y-69112783D01*
X107972500Y-69119977D01*
X107910145Y-69088454D01*
X107893425Y-69069158D01*
X107763494Y-68883597D01*
X107596402Y-68716506D01*
X107596395Y-68716501D01*
X107402834Y-68580967D01*
X107402830Y-68580965D01*
X107338094Y-68550778D01*
X107188663Y-68481097D01*
X107188659Y-68481096D01*
X107188655Y-68481094D01*
X106960413Y-68419938D01*
X106960403Y-68419936D01*
X106725001Y-68399341D01*
X106724999Y-68399341D01*
X106489596Y-68419936D01*
X106489586Y-68419938D01*
X106261344Y-68481094D01*
X106261335Y-68481098D01*
X106047171Y-68580964D01*
X106047169Y-68580965D01*
X105853597Y-68716505D01*
X105686505Y-68883597D01*
X105556575Y-69069158D01*
X105501998Y-69112783D01*
X105432500Y-69119977D01*
X105370145Y-69088454D01*
X105353425Y-69069158D01*
X105223494Y-68883597D01*
X105056402Y-68716506D01*
X105056395Y-68716501D01*
X104862834Y-68580967D01*
X104862830Y-68580965D01*
X104798094Y-68550778D01*
X104648663Y-68481097D01*
X104648659Y-68481096D01*
X104648655Y-68481094D01*
X104420413Y-68419938D01*
X104420403Y-68419936D01*
X104185001Y-68399341D01*
X104184999Y-68399341D01*
X103949596Y-68419936D01*
X103949586Y-68419938D01*
X103721344Y-68481094D01*
X103721335Y-68481098D01*
X103507171Y-68580964D01*
X103507169Y-68580965D01*
X103313600Y-68716503D01*
X103191673Y-68838430D01*
X103130350Y-68871914D01*
X103060658Y-68866930D01*
X103004725Y-68825058D01*
X102987810Y-68794081D01*
X102938797Y-68662671D01*
X102938793Y-68662664D01*
X102852547Y-68547455D01*
X102852544Y-68547452D01*
X102737335Y-68461206D01*
X102737328Y-68461202D01*
X102602482Y-68410908D01*
X102602483Y-68410908D01*
X102542883Y-68404501D01*
X102542881Y-68404500D01*
X102542873Y-68404500D01*
X102542864Y-68404500D01*
X100747129Y-68404500D01*
X100747123Y-68404501D01*
X100687516Y-68410908D01*
X100552671Y-68461202D01*
X100552664Y-68461206D01*
X100437455Y-68547452D01*
X100437452Y-68547455D01*
X100351206Y-68662664D01*
X100351202Y-68662671D01*
X100300908Y-68797517D01*
X100294501Y-68857116D01*
X100294500Y-68857135D01*
X100294500Y-70652870D01*
X100294501Y-70652876D01*
X100300908Y-70712483D01*
X100351202Y-70847328D01*
X100351206Y-70847335D01*
X100437452Y-70962544D01*
X100437455Y-70962547D01*
X100552664Y-71048793D01*
X100552671Y-71048797D01*
X100684081Y-71097810D01*
X100740015Y-71139681D01*
X100764432Y-71205145D01*
X100749580Y-71273418D01*
X100728430Y-71301673D01*
X100606503Y-71423600D01*
X100470965Y-71617169D01*
X100470964Y-71617171D01*
X100371098Y-71831335D01*
X100371094Y-71831344D01*
X100309938Y-72059586D01*
X100309936Y-72059596D01*
X100289341Y-72294999D01*
X100289341Y-72295000D01*
X100309936Y-72530403D01*
X100309938Y-72530413D01*
X100371094Y-72758655D01*
X100371096Y-72758659D01*
X100371097Y-72758663D01*
X100450801Y-72929588D01*
X100470965Y-72972830D01*
X100470967Y-72972834D01*
X100579281Y-73127521D01*
X100606505Y-73166401D01*
X100773599Y-73333495D01*
X100870384Y-73401265D01*
X100967165Y-73469032D01*
X100971856Y-73471740D01*
X100970714Y-73473716D01*
X101015846Y-73513422D01*
X101035025Y-73580607D01*
X101014837Y-73647497D01*
X100961690Y-73692853D01*
X100924913Y-73702894D01*
X100820749Y-73714630D01*
X100820745Y-73714631D01*
X100650476Y-73774211D01*
X100497737Y-73870184D01*
X100370184Y-73997737D01*
X100274211Y-74150476D01*
X100214631Y-74320745D01*
X100214630Y-74320750D01*
X100194435Y-74499996D01*
X77764417Y-74499996D01*
X77802255Y-74425736D01*
X77933742Y-74083199D01*
X78028705Y-73728794D01*
X78086102Y-73366404D01*
X78105304Y-73000000D01*
X78086102Y-72633596D01*
X78028705Y-72271206D01*
X77933742Y-71916801D01*
X77802255Y-71574264D01*
X77635682Y-71247348D01*
X77620557Y-71224057D01*
X77435852Y-70939635D01*
X77401383Y-70897070D01*
X95149500Y-70897070D01*
X95149500Y-71152930D01*
X95165966Y-71256890D01*
X95189526Y-71405640D01*
X95268588Y-71648972D01*
X95268589Y-71648975D01*
X95342994Y-71795000D01*
X95382677Y-71872883D01*
X95384750Y-71876950D01*
X95535132Y-72083935D01*
X95535136Y-72083940D01*
X95716059Y-72264863D01*
X95716064Y-72264867D01*
X95889203Y-72390659D01*
X95923053Y-72415252D01*
X96063299Y-72486711D01*
X96151024Y-72531410D01*
X96151027Y-72531411D01*
X96239340Y-72560105D01*
X96394361Y-72610474D01*
X96647070Y-72650500D01*
X96647071Y-72650500D01*
X96902929Y-72650500D01*
X96902930Y-72650500D01*
X97155639Y-72610474D01*
X97398975Y-72531410D01*
X97626947Y-72415252D01*
X97833942Y-72264862D01*
X98014862Y-72083942D01*
X98165252Y-71876947D01*
X98281410Y-71648975D01*
X98360474Y-71405639D01*
X98400500Y-71152930D01*
X98400500Y-70897070D01*
X98360474Y-70644361D01*
X98312751Y-70497482D01*
X98281411Y-70401027D01*
X98281410Y-70401024D01*
X98207006Y-70255000D01*
X98165252Y-70173053D01*
X98095564Y-70077135D01*
X98014867Y-69966064D01*
X98014863Y-69966059D01*
X97833940Y-69785136D01*
X97833935Y-69785132D01*
X97626950Y-69634750D01*
X97626949Y-69634749D01*
X97626947Y-69634748D01*
X97511862Y-69576109D01*
X97398975Y-69518589D01*
X97398972Y-69518588D01*
X97155640Y-69439526D01*
X97029284Y-69419513D01*
X96902930Y-69399500D01*
X96647070Y-69399500D01*
X96562833Y-69412842D01*
X96394359Y-69439526D01*
X96151027Y-69518588D01*
X96151024Y-69518589D01*
X95923049Y-69634750D01*
X95716064Y-69785132D01*
X95716059Y-69785136D01*
X95535136Y-69966059D01*
X95535132Y-69966064D01*
X95384750Y-70173049D01*
X95268589Y-70401024D01*
X95268588Y-70401027D01*
X95189526Y-70644359D01*
X95150963Y-70887834D01*
X95149500Y-70897070D01*
X77401383Y-70897070D01*
X77254688Y-70715917D01*
X77204949Y-70654494D01*
X76945506Y-70395051D01*
X76738020Y-70227032D01*
X76660364Y-70164147D01*
X76352656Y-69964320D01*
X76025739Y-69797746D01*
X75683206Y-69666260D01*
X75683199Y-69666258D01*
X75328794Y-69571295D01*
X75328790Y-69571294D01*
X75328789Y-69571294D01*
X74966405Y-69513898D01*
X74600001Y-69494696D01*
X74599999Y-69494696D01*
X74233594Y-69513898D01*
X73871211Y-69571294D01*
X73871209Y-69571294D01*
X73516793Y-69666260D01*
X73174260Y-69797746D01*
X72847343Y-69964320D01*
X72539635Y-70164147D01*
X72254498Y-70395047D01*
X72254490Y-70395054D01*
X71995054Y-70654490D01*
X71995047Y-70654498D01*
X71764147Y-70939635D01*
X71564320Y-71247343D01*
X71397746Y-71574260D01*
X71266260Y-71916793D01*
X71171294Y-72271209D01*
X71171294Y-72271211D01*
X71146473Y-72427925D01*
X71116544Y-72491060D01*
X71057232Y-72527991D01*
X70987370Y-72526993D01*
X70929137Y-72488383D01*
X70901023Y-72424419D01*
X70900000Y-72408527D01*
X70900000Y-71428566D01*
X70899999Y-71428563D01*
X70884699Y-71214637D01*
X70823890Y-70935104D01*
X70723908Y-70667041D01*
X70586808Y-70415961D01*
X70586807Y-70415960D01*
X70415360Y-70186934D01*
X70415350Y-70186922D01*
X70213077Y-69984649D01*
X70213065Y-69984639D01*
X69984039Y-69813192D01*
X69984038Y-69813191D01*
X69732957Y-69676091D01*
X69732958Y-69676091D01*
X69464895Y-69576109D01*
X69185362Y-69515300D01*
X68971436Y-69500000D01*
X67650000Y-69500000D01*
X67650000Y-70763497D01*
X67547473Y-70750000D01*
X67252527Y-70750000D01*
X67150000Y-70763497D01*
X67150000Y-69500000D01*
X65828563Y-69500000D01*
X65614637Y-69515300D01*
X65335104Y-69576109D01*
X65067041Y-69676091D01*
X64815961Y-69813191D01*
X64815960Y-69813192D01*
X64586934Y-69984639D01*
X64586922Y-69984649D01*
X64384649Y-70186922D01*
X64384639Y-70186934D01*
X64213192Y-70415960D01*
X64213191Y-70415961D01*
X64076091Y-70667041D01*
X63976109Y-70935104D01*
X63915300Y-71214637D01*
X63900000Y-71428563D01*
X60000000Y-71428563D01*
X60000000Y-64459999D01*
X83894341Y-64459999D01*
X83894341Y-64460000D01*
X83914936Y-64695403D01*
X83914938Y-64695413D01*
X83976094Y-64923655D01*
X83976096Y-64923659D01*
X83976097Y-64923663D01*
X84033167Y-65046049D01*
X84075965Y-65137830D01*
X84075967Y-65137834D01*
X84211501Y-65331395D01*
X84211506Y-65331402D01*
X84378597Y-65498493D01*
X84378603Y-65498498D01*
X84564158Y-65628425D01*
X84607783Y-65683002D01*
X84614977Y-65752500D01*
X84583454Y-65814855D01*
X84564158Y-65831575D01*
X84378597Y-65961505D01*
X84211505Y-66128597D01*
X84075965Y-66322169D01*
X84075964Y-66322171D01*
X83976098Y-66536335D01*
X83976094Y-66536344D01*
X83914938Y-66764586D01*
X83914936Y-66764596D01*
X83894341Y-66999999D01*
X83894341Y-67000000D01*
X83914936Y-67235403D01*
X83914938Y-67235413D01*
X83976094Y-67463655D01*
X83976096Y-67463659D01*
X83976097Y-67463663D01*
X84000176Y-67515300D01*
X84075965Y-67677830D01*
X84075967Y-67677834D01*
X84184281Y-67832521D01*
X84211501Y-67871396D01*
X84211506Y-67871402D01*
X84333430Y-67993326D01*
X84366915Y-68054649D01*
X84361931Y-68124341D01*
X84320059Y-68180274D01*
X84289083Y-68197189D01*
X84157669Y-68246203D01*
X84157664Y-68246206D01*
X84042455Y-68332452D01*
X84042452Y-68332455D01*
X83956206Y-68447664D01*
X83956202Y-68447671D01*
X83905908Y-68582517D01*
X83899501Y-68642116D01*
X83899501Y-68642123D01*
X83899500Y-68642135D01*
X83899500Y-70437870D01*
X83899501Y-70437876D01*
X83905908Y-70497483D01*
X83956202Y-70632328D01*
X83956206Y-70632335D01*
X84042452Y-70747544D01*
X84042455Y-70747547D01*
X84157664Y-70833793D01*
X84157671Y-70833797D01*
X84292517Y-70884091D01*
X84292516Y-70884091D01*
X84299444Y-70884835D01*
X84352127Y-70890500D01*
X86147872Y-70890499D01*
X86207483Y-70884091D01*
X86342331Y-70833796D01*
X86457546Y-70747546D01*
X86543796Y-70632331D01*
X86594091Y-70497483D01*
X86600500Y-70437873D01*
X86600499Y-68642128D01*
X86594091Y-68582517D01*
X86593674Y-68581400D01*
X86543797Y-68447671D01*
X86543793Y-68447664D01*
X86457547Y-68332455D01*
X86457544Y-68332452D01*
X86342335Y-68246206D01*
X86342328Y-68246202D01*
X86210917Y-68197189D01*
X86154983Y-68155318D01*
X86130566Y-68089853D01*
X86145418Y-68021580D01*
X86166563Y-67993332D01*
X86288495Y-67871401D01*
X86424035Y-67677830D01*
X86523903Y-67463663D01*
X86585063Y-67235408D01*
X86605659Y-67000000D01*
X86585063Y-66764592D01*
X86523903Y-66536337D01*
X86424035Y-66322171D01*
X86288495Y-66128599D01*
X86288494Y-66128597D01*
X86121402Y-65961506D01*
X86121396Y-65961501D01*
X85935842Y-65831575D01*
X85892217Y-65776998D01*
X85885023Y-65707500D01*
X85916546Y-65645145D01*
X85935842Y-65628425D01*
X85977120Y-65599522D01*
X86121401Y-65498495D01*
X86288495Y-65331401D01*
X86424035Y-65137830D01*
X86523903Y-64923663D01*
X86585063Y-64695408D01*
X86605659Y-64460000D01*
X86585063Y-64224592D01*
X86529156Y-64015943D01*
X86523905Y-63996344D01*
X86523904Y-63996343D01*
X86523903Y-63996337D01*
X86424035Y-63782171D01*
X86411741Y-63764612D01*
X86288494Y-63588597D01*
X86121402Y-63421506D01*
X86121395Y-63421501D01*
X85927834Y-63285967D01*
X85927830Y-63285965D01*
X85873756Y-63260750D01*
X85713663Y-63186097D01*
X85713659Y-63186096D01*
X85713655Y-63186094D01*
X85485413Y-63124938D01*
X85485403Y-63124936D01*
X85250001Y-63104341D01*
X85249999Y-63104341D01*
X85014596Y-63124936D01*
X85014586Y-63124938D01*
X84786344Y-63186094D01*
X84786337Y-63186096D01*
X84786337Y-63186097D01*
X84784812Y-63186808D01*
X84572171Y-63285964D01*
X84572169Y-63285965D01*
X84378597Y-63421505D01*
X84211505Y-63588597D01*
X84075965Y-63782169D01*
X84075964Y-63782171D01*
X83976098Y-63996335D01*
X83976094Y-63996344D01*
X83914938Y-64224586D01*
X83914938Y-64224588D01*
X83914937Y-64224592D01*
X83899549Y-64400476D01*
X83894341Y-64459999D01*
X60000000Y-64459999D01*
X60000000Y-58428563D01*
X63900000Y-58428563D01*
X63900000Y-59750000D01*
X65163498Y-59750000D01*
X65150000Y-59852527D01*
X65150000Y-60147473D01*
X65163498Y-60250000D01*
X63900000Y-60250000D01*
X63900000Y-61571436D01*
X63915300Y-61785362D01*
X63976109Y-62064895D01*
X64076091Y-62332958D01*
X64213191Y-62584038D01*
X64213192Y-62584039D01*
X64384639Y-62813065D01*
X64384649Y-62813077D01*
X64586922Y-63015350D01*
X64586934Y-63015360D01*
X64815960Y-63186807D01*
X64815961Y-63186808D01*
X65067042Y-63323908D01*
X65067041Y-63323908D01*
X65335104Y-63423890D01*
X65614637Y-63484699D01*
X65828563Y-63499999D01*
X65828566Y-63500000D01*
X67150000Y-63500000D01*
X67150000Y-62236502D01*
X67252527Y-62250000D01*
X67547473Y-62250000D01*
X67650000Y-62236502D01*
X67650000Y-63500000D01*
X68971434Y-63500000D01*
X68971436Y-63499999D01*
X69185362Y-63484699D01*
X69464895Y-63423890D01*
X69732958Y-63323908D01*
X69984038Y-63186808D01*
X69984039Y-63186807D01*
X70213065Y-63015360D01*
X70213077Y-63015350D01*
X70415350Y-62813077D01*
X70415360Y-62813065D01*
X70586807Y-62584039D01*
X70586808Y-62584038D01*
X70723908Y-62332958D01*
X70823890Y-62064895D01*
X70884699Y-61785362D01*
X70899999Y-61571436D01*
X70900000Y-61571434D01*
X70900000Y-60591472D01*
X70919685Y-60524433D01*
X70972489Y-60478678D01*
X71041647Y-60468734D01*
X71105203Y-60497759D01*
X71142977Y-60556537D01*
X71146472Y-60572073D01*
X71171295Y-60728794D01*
X71247885Y-61014632D01*
X71266260Y-61083206D01*
X71397746Y-61425739D01*
X71564320Y-61752656D01*
X71764147Y-62060364D01*
X71917712Y-62250000D01*
X71995051Y-62345506D01*
X72254494Y-62604949D01*
X72413311Y-62733557D01*
X72539635Y-62835852D01*
X72847343Y-63035679D01*
X72847348Y-63035682D01*
X73174264Y-63202255D01*
X73416291Y-63295160D01*
X73482955Y-63320750D01*
X73516801Y-63333742D01*
X73871206Y-63428705D01*
X74233596Y-63486102D01*
X74579734Y-63504241D01*
X74599999Y-63505304D01*
X74600000Y-63505304D01*
X74600001Y-63505304D01*
X74619203Y-63504297D01*
X74966404Y-63486102D01*
X75328794Y-63428705D01*
X75683199Y-63333742D01*
X76025736Y-63202255D01*
X76352652Y-63035682D01*
X76660366Y-62835851D01*
X76945506Y-62604949D01*
X77204949Y-62345506D01*
X77435851Y-62060366D01*
X77635682Y-61752652D01*
X77802255Y-61425736D01*
X77933742Y-61083199D01*
X78028705Y-60728794D01*
X78031682Y-60709999D01*
X163644341Y-60709999D01*
X163644341Y-60710000D01*
X163664936Y-60945403D01*
X163664938Y-60945413D01*
X163726094Y-61173655D01*
X163726096Y-61173659D01*
X163726097Y-61173663D01*
X163825965Y-61387830D01*
X163825967Y-61387834D01*
X163895202Y-61486711D01*
X163954527Y-61571436D01*
X163961501Y-61581395D01*
X163961506Y-61581402D01*
X164128597Y-61748493D01*
X164128603Y-61748498D01*
X164314158Y-61878425D01*
X164357783Y-61933002D01*
X164364977Y-62002500D01*
X164333454Y-62064855D01*
X164314158Y-62081575D01*
X164128597Y-62211505D01*
X163961505Y-62378597D01*
X163825965Y-62572169D01*
X163825964Y-62572171D01*
X163726098Y-62786335D01*
X163726094Y-62786344D01*
X163664938Y-63014586D01*
X163664936Y-63014596D01*
X163644341Y-63249999D01*
X163644341Y-63250000D01*
X163664936Y-63485403D01*
X163664938Y-63485413D01*
X163726094Y-63713655D01*
X163726096Y-63713659D01*
X163726097Y-63713663D01*
X163813057Y-63900149D01*
X163825965Y-63927830D01*
X163825967Y-63927834D01*
X163896063Y-64027940D01*
X163961501Y-64121396D01*
X163961506Y-64121402D01*
X164083430Y-64243326D01*
X164116915Y-64304649D01*
X164111931Y-64374341D01*
X164070059Y-64430274D01*
X164039083Y-64447189D01*
X163907669Y-64496203D01*
X163907664Y-64496206D01*
X163792455Y-64582452D01*
X163792452Y-64582455D01*
X163706206Y-64697664D01*
X163706202Y-64697671D01*
X163655908Y-64832517D01*
X163650534Y-64882511D01*
X163649501Y-64892123D01*
X163649500Y-64892135D01*
X163649500Y-66687870D01*
X163649501Y-66687876D01*
X163655908Y-66747483D01*
X163706202Y-66882328D01*
X163706206Y-66882335D01*
X163792452Y-66997544D01*
X163792455Y-66997547D01*
X163907664Y-67083793D01*
X163907671Y-67083797D01*
X164042517Y-67134091D01*
X164042516Y-67134091D01*
X164049444Y-67134835D01*
X164102127Y-67140500D01*
X165897872Y-67140499D01*
X165957483Y-67134091D01*
X166092331Y-67083796D01*
X166207546Y-66997546D01*
X166293796Y-66882331D01*
X166344091Y-66747483D01*
X166350500Y-66687873D01*
X166350499Y-64892128D01*
X166344091Y-64832517D01*
X166342874Y-64829255D01*
X166293797Y-64697671D01*
X166293793Y-64697664D01*
X166207547Y-64582455D01*
X166207544Y-64582452D01*
X166092335Y-64496206D01*
X166092328Y-64496202D01*
X165960917Y-64447189D01*
X165904983Y-64405318D01*
X165880566Y-64339853D01*
X165895418Y-64271580D01*
X165916563Y-64243332D01*
X166038495Y-64121401D01*
X166174035Y-63927830D01*
X166273903Y-63713663D01*
X166335063Y-63485408D01*
X166355659Y-63250000D01*
X166335063Y-63014592D01*
X166273903Y-62786337D01*
X166174035Y-62572171D01*
X166148670Y-62535945D01*
X166038494Y-62378597D01*
X165871402Y-62211506D01*
X165871396Y-62211501D01*
X165685842Y-62081575D01*
X165642217Y-62026998D01*
X165635023Y-61957500D01*
X165666546Y-61895145D01*
X165685842Y-61878425D01*
X165797850Y-61799996D01*
X165871401Y-61748495D01*
X166038495Y-61581401D01*
X166174035Y-61387830D01*
X166273903Y-61173663D01*
X166335063Y-60945408D01*
X166355659Y-60710000D01*
X166335063Y-60474592D01*
X166288626Y-60301285D01*
X166273905Y-60246344D01*
X166273904Y-60246343D01*
X166273903Y-60246337D01*
X166174035Y-60032171D01*
X166048248Y-59852527D01*
X166038494Y-59838597D01*
X165871402Y-59671506D01*
X165871395Y-59671501D01*
X165677834Y-59535967D01*
X165677830Y-59535965D01*
X165660730Y-59527991D01*
X165463663Y-59436097D01*
X165463659Y-59436096D01*
X165463655Y-59436094D01*
X165235413Y-59374938D01*
X165235403Y-59374936D01*
X165000001Y-59354341D01*
X164999999Y-59354341D01*
X164764596Y-59374936D01*
X164764586Y-59374938D01*
X164536344Y-59436094D01*
X164536335Y-59436098D01*
X164322171Y-59535964D01*
X164322169Y-59535965D01*
X164128597Y-59671505D01*
X163961505Y-59838597D01*
X163825965Y-60032169D01*
X163825964Y-60032171D01*
X163726098Y-60246335D01*
X163726094Y-60246344D01*
X163664938Y-60474586D01*
X163664936Y-60474596D01*
X163644341Y-60709999D01*
X78031682Y-60709999D01*
X78086102Y-60366404D01*
X78105304Y-60000000D01*
X78086102Y-59633596D01*
X78028705Y-59271206D01*
X77933742Y-58916801D01*
X77802255Y-58574264D01*
X77635682Y-58247348D01*
X77635679Y-58247343D01*
X77435852Y-57939635D01*
X77215109Y-57667041D01*
X77204949Y-57654494D01*
X76945506Y-57395051D01*
X76822286Y-57295269D01*
X76660364Y-57164147D01*
X76352656Y-56964320D01*
X76025739Y-56797746D01*
X75683206Y-56666260D01*
X75683199Y-56666258D01*
X75328794Y-56571295D01*
X75328790Y-56571294D01*
X75328789Y-56571294D01*
X74966405Y-56513898D01*
X74600001Y-56494696D01*
X74599999Y-56494696D01*
X74233594Y-56513898D01*
X73871211Y-56571294D01*
X73871209Y-56571294D01*
X73516793Y-56666260D01*
X73174260Y-56797746D01*
X72847343Y-56964320D01*
X72539635Y-57164147D01*
X72254498Y-57395047D01*
X72254490Y-57395054D01*
X71995054Y-57654490D01*
X71995047Y-57654498D01*
X71764147Y-57939635D01*
X71564320Y-58247343D01*
X71397746Y-58574260D01*
X71266260Y-58916793D01*
X71171294Y-59271209D01*
X71171294Y-59271211D01*
X71146473Y-59427925D01*
X71116544Y-59491060D01*
X71057232Y-59527991D01*
X70987370Y-59526993D01*
X70929137Y-59488383D01*
X70901023Y-59424419D01*
X70900000Y-59408527D01*
X70900000Y-58428566D01*
X70899999Y-58428563D01*
X70884699Y-58214637D01*
X70823890Y-57935104D01*
X70723908Y-57667041D01*
X70586808Y-57415961D01*
X70586807Y-57415960D01*
X70415360Y-57186934D01*
X70415350Y-57186922D01*
X70213077Y-56984649D01*
X70213065Y-56984639D01*
X69984039Y-56813192D01*
X69984038Y-56813191D01*
X69732957Y-56676091D01*
X69732958Y-56676091D01*
X69464895Y-56576109D01*
X69185362Y-56515300D01*
X68971436Y-56500000D01*
X67650000Y-56500000D01*
X67650000Y-57763497D01*
X67547473Y-57750000D01*
X67252527Y-57750000D01*
X67150000Y-57763497D01*
X67150000Y-56500000D01*
X65828563Y-56500000D01*
X65614637Y-56515300D01*
X65335104Y-56576109D01*
X65067041Y-56676091D01*
X64815961Y-56813191D01*
X64815960Y-56813192D01*
X64586934Y-56984639D01*
X64586922Y-56984649D01*
X64384649Y-57186922D01*
X64384639Y-57186934D01*
X64213192Y-57415960D01*
X64213191Y-57415961D01*
X64076091Y-57667041D01*
X63976109Y-57935104D01*
X63915300Y-58214637D01*
X63900000Y-58428563D01*
X60000000Y-58428563D01*
X60000000Y-45428563D01*
X63900000Y-45428563D01*
X63900000Y-46750000D01*
X65163498Y-46750000D01*
X65150000Y-46852527D01*
X65150000Y-47147473D01*
X65163498Y-47250000D01*
X63900000Y-47250000D01*
X63900000Y-48571436D01*
X63915300Y-48785362D01*
X63976109Y-49064895D01*
X64076091Y-49332958D01*
X64213191Y-49584038D01*
X64213192Y-49584039D01*
X64384639Y-49813065D01*
X64384649Y-49813077D01*
X64586922Y-50015350D01*
X64586934Y-50015360D01*
X64815960Y-50186807D01*
X64815961Y-50186808D01*
X65067042Y-50323908D01*
X65067041Y-50323908D01*
X65335104Y-50423890D01*
X65614637Y-50484699D01*
X65828563Y-50499999D01*
X65828566Y-50500000D01*
X67150000Y-50500000D01*
X67150000Y-49236502D01*
X67252527Y-49250000D01*
X67547473Y-49250000D01*
X67650000Y-49236502D01*
X67650000Y-50500000D01*
X68971434Y-50500000D01*
X68971436Y-50499999D01*
X69185362Y-50484699D01*
X69464895Y-50423890D01*
X69732958Y-50323908D01*
X69984038Y-50186808D01*
X69984039Y-50186807D01*
X70213065Y-50015360D01*
X70213077Y-50015350D01*
X70415350Y-49813077D01*
X70415360Y-49813065D01*
X70586807Y-49584039D01*
X70586808Y-49584038D01*
X70723908Y-49332958D01*
X70823890Y-49064895D01*
X70884699Y-48785362D01*
X70899999Y-48571436D01*
X70900000Y-48571434D01*
X70900000Y-47591472D01*
X70919685Y-47524433D01*
X70972489Y-47478678D01*
X71041647Y-47468734D01*
X71105203Y-47497759D01*
X71142977Y-47556537D01*
X71146473Y-47572074D01*
X71171294Y-47728788D01*
X71171294Y-47728790D01*
X71266260Y-48083206D01*
X71397746Y-48425739D01*
X71564320Y-48752656D01*
X71764147Y-49060364D01*
X71929751Y-49264867D01*
X71995051Y-49345506D01*
X72254494Y-49604949D01*
X72254498Y-49604952D01*
X72539635Y-49835852D01*
X72847343Y-50035679D01*
X72847348Y-50035682D01*
X73174264Y-50202255D01*
X73516801Y-50333742D01*
X73871206Y-50428705D01*
X74233596Y-50486102D01*
X74579734Y-50504241D01*
X74599999Y-50505304D01*
X74600000Y-50505304D01*
X74600001Y-50505304D01*
X74619203Y-50504297D01*
X74966404Y-50486102D01*
X75328794Y-50428705D01*
X75683199Y-50333742D01*
X76025736Y-50202255D01*
X76352652Y-50035682D01*
X76660366Y-49835851D01*
X76945506Y-49604949D01*
X77204949Y-49345506D01*
X77435851Y-49060366D01*
X77635682Y-48752652D01*
X77802255Y-48425736D01*
X77812134Y-48399999D01*
X84494696Y-48399999D01*
X84494696Y-48400000D01*
X84513898Y-48766405D01*
X84531406Y-48876947D01*
X84571295Y-49128794D01*
X84607754Y-49264862D01*
X84666260Y-49483206D01*
X84797746Y-49825739D01*
X84964320Y-50152656D01*
X85164147Y-50460364D01*
X85196243Y-50499999D01*
X85395051Y-50745506D01*
X85654494Y-51004949D01*
X85654498Y-51004952D01*
X85939635Y-51235852D01*
X86239234Y-51430413D01*
X86247348Y-51435682D01*
X86574264Y-51602255D01*
X86916801Y-51733742D01*
X87271206Y-51828705D01*
X87427926Y-51853527D01*
X87491061Y-51883456D01*
X87527992Y-51942768D01*
X87526994Y-52012630D01*
X87488384Y-52070863D01*
X87424421Y-52098977D01*
X87408528Y-52100000D01*
X86428563Y-52100000D01*
X86214637Y-52115300D01*
X85935104Y-52176109D01*
X85667041Y-52276091D01*
X85415961Y-52413191D01*
X85415960Y-52413192D01*
X85186934Y-52584639D01*
X85186922Y-52584649D01*
X84984649Y-52786922D01*
X84984639Y-52786934D01*
X84813192Y-53015960D01*
X84813191Y-53015961D01*
X84676091Y-53267041D01*
X84576109Y-53535104D01*
X84515300Y-53814637D01*
X84500000Y-54028563D01*
X84500000Y-55350000D01*
X85763498Y-55350000D01*
X85750000Y-55452527D01*
X85750000Y-55747473D01*
X85763498Y-55850000D01*
X84500000Y-55850000D01*
X84500000Y-57171436D01*
X84515300Y-57385362D01*
X84576109Y-57664895D01*
X84676091Y-57932958D01*
X84813191Y-58184038D01*
X84813192Y-58184039D01*
X84984639Y-58413065D01*
X84984649Y-58413077D01*
X85186922Y-58615350D01*
X85186934Y-58615360D01*
X85415960Y-58786807D01*
X85415961Y-58786808D01*
X85667042Y-58923908D01*
X85667041Y-58923908D01*
X85935104Y-59023890D01*
X86214637Y-59084699D01*
X86428563Y-59099999D01*
X86428566Y-59100000D01*
X87750000Y-59100000D01*
X87750000Y-57836502D01*
X87852527Y-57850000D01*
X88147473Y-57850000D01*
X88250000Y-57836502D01*
X88250000Y-59100000D01*
X89571434Y-59100000D01*
X89571436Y-59099999D01*
X89785362Y-59084699D01*
X90064895Y-59023890D01*
X90332958Y-58923908D01*
X90584038Y-58786808D01*
X90584039Y-58786807D01*
X90813065Y-58615360D01*
X90813077Y-58615350D01*
X91015350Y-58413077D01*
X91015360Y-58413065D01*
X91186807Y-58184039D01*
X91186808Y-58184038D01*
X91323908Y-57932958D01*
X91423890Y-57664895D01*
X91484699Y-57385362D01*
X91499999Y-57171436D01*
X91500000Y-57171434D01*
X91500000Y-55850000D01*
X90236502Y-55850000D01*
X90250000Y-55747473D01*
X90250000Y-55452527D01*
X90236502Y-55350000D01*
X91500000Y-55350000D01*
X91500000Y-54028566D01*
X91499999Y-54028563D01*
X91484699Y-53814637D01*
X91423890Y-53535104D01*
X91323908Y-53267041D01*
X91186808Y-53015961D01*
X91186807Y-53015960D01*
X91015360Y-52786934D01*
X91015350Y-52786922D01*
X90813077Y-52584649D01*
X90813065Y-52584639D01*
X90584039Y-52413192D01*
X90584038Y-52413191D01*
X90332957Y-52276091D01*
X90332958Y-52276091D01*
X90064895Y-52176109D01*
X89785362Y-52115300D01*
X89571436Y-52100000D01*
X88591472Y-52100000D01*
X88524433Y-52080315D01*
X88478678Y-52027511D01*
X88468734Y-51958353D01*
X88497759Y-51894797D01*
X88556537Y-51857023D01*
X88572074Y-51853527D01*
X88728794Y-51828705D01*
X89083199Y-51733742D01*
X89425736Y-51602255D01*
X89752652Y-51435682D01*
X90060366Y-51235851D01*
X90110814Y-51194999D01*
X163644341Y-51194999D01*
X163644341Y-51195000D01*
X163664936Y-51430403D01*
X163664938Y-51430413D01*
X163726094Y-51658655D01*
X163726096Y-51658659D01*
X163726097Y-51658663D01*
X163761106Y-51733739D01*
X163825965Y-51872830D01*
X163825967Y-51872834D01*
X163961501Y-52066395D01*
X163961506Y-52066402D01*
X164128597Y-52233493D01*
X164128603Y-52233498D01*
X164314158Y-52363425D01*
X164357783Y-52418002D01*
X164364977Y-52487500D01*
X164333454Y-52549855D01*
X164314158Y-52566575D01*
X164128597Y-52696505D01*
X163961505Y-52863597D01*
X163825965Y-53057169D01*
X163825964Y-53057171D01*
X163726098Y-53271335D01*
X163726094Y-53271344D01*
X163664938Y-53499586D01*
X163664936Y-53499596D01*
X163644341Y-53734999D01*
X163644341Y-53735000D01*
X163664936Y-53970403D01*
X163664938Y-53970413D01*
X163726094Y-54198655D01*
X163726096Y-54198659D01*
X163726097Y-54198663D01*
X163795401Y-54347285D01*
X163825965Y-54412830D01*
X163825967Y-54412834D01*
X163934281Y-54567521D01*
X163961501Y-54606396D01*
X163961506Y-54606402D01*
X164083430Y-54728326D01*
X164116915Y-54789649D01*
X164111931Y-54859341D01*
X164070059Y-54915274D01*
X164039083Y-54932189D01*
X163907669Y-54981203D01*
X163907664Y-54981206D01*
X163792455Y-55067452D01*
X163792452Y-55067455D01*
X163706206Y-55182664D01*
X163706202Y-55182671D01*
X163655908Y-55317517D01*
X163649501Y-55377116D01*
X163649501Y-55377123D01*
X163649500Y-55377135D01*
X163649500Y-57172870D01*
X163649501Y-57172876D01*
X163655908Y-57232483D01*
X163706202Y-57367328D01*
X163706206Y-57367335D01*
X163792452Y-57482544D01*
X163792455Y-57482547D01*
X163907664Y-57568793D01*
X163907671Y-57568797D01*
X164042517Y-57619091D01*
X164042516Y-57619091D01*
X164049444Y-57619835D01*
X164102127Y-57625500D01*
X165897872Y-57625499D01*
X165957483Y-57619091D01*
X166092331Y-57568796D01*
X166207546Y-57482546D01*
X166293796Y-57367331D01*
X166344091Y-57232483D01*
X166350500Y-57172873D01*
X166350499Y-55377128D01*
X166344091Y-55317517D01*
X166293796Y-55182669D01*
X166293795Y-55182668D01*
X166293793Y-55182664D01*
X166207547Y-55067455D01*
X166207544Y-55067452D01*
X166092335Y-54981206D01*
X166092328Y-54981202D01*
X165960917Y-54932189D01*
X165904983Y-54890318D01*
X165880566Y-54824853D01*
X165895418Y-54756580D01*
X165916563Y-54728332D01*
X166038495Y-54606401D01*
X166174035Y-54412830D01*
X166273903Y-54198663D01*
X166335063Y-53970408D01*
X166355659Y-53735000D01*
X166335063Y-53499592D01*
X166273903Y-53271337D01*
X166174035Y-53057171D01*
X166038495Y-52863599D01*
X166038494Y-52863597D01*
X165871402Y-52696506D01*
X165871396Y-52696501D01*
X165685842Y-52566575D01*
X165642217Y-52511998D01*
X165635023Y-52442500D01*
X165666546Y-52380145D01*
X165685842Y-52363425D01*
X165708026Y-52347891D01*
X165871401Y-52233495D01*
X166038495Y-52066401D01*
X166174035Y-51872830D01*
X166273903Y-51658663D01*
X166335063Y-51430408D01*
X166355659Y-51195000D01*
X166335063Y-50959592D01*
X166273903Y-50731337D01*
X166174035Y-50517171D01*
X166152281Y-50486102D01*
X166038494Y-50323597D01*
X165871402Y-50156506D01*
X165871395Y-50156501D01*
X165677834Y-50020967D01*
X165677830Y-50020965D01*
X165665789Y-50015350D01*
X165463663Y-49921097D01*
X165463659Y-49921096D01*
X165463655Y-49921094D01*
X165235413Y-49859938D01*
X165235403Y-49859936D01*
X165000001Y-49839341D01*
X164999999Y-49839341D01*
X164764596Y-49859936D01*
X164764586Y-49859938D01*
X164536344Y-49921094D01*
X164536335Y-49921098D01*
X164322171Y-50020964D01*
X164322169Y-50020965D01*
X164128597Y-50156505D01*
X163961505Y-50323597D01*
X163825965Y-50517169D01*
X163825964Y-50517171D01*
X163726098Y-50731335D01*
X163726094Y-50731344D01*
X163664938Y-50959586D01*
X163664936Y-50959596D01*
X163644341Y-51194999D01*
X90110814Y-51194999D01*
X90345506Y-51004949D01*
X90604949Y-50745506D01*
X90835851Y-50460366D01*
X91035682Y-50152652D01*
X91202255Y-49825736D01*
X91333742Y-49483199D01*
X91428705Y-49128794D01*
X91486102Y-48766404D01*
X91505304Y-48400000D01*
X91486102Y-48033596D01*
X91464478Y-47897070D01*
X95149500Y-47897070D01*
X95149500Y-48152929D01*
X95189526Y-48405640D01*
X95268588Y-48648972D01*
X95268589Y-48648975D01*
X95384750Y-48876950D01*
X95535132Y-49083935D01*
X95535136Y-49083940D01*
X95716059Y-49264863D01*
X95716064Y-49264867D01*
X95896607Y-49396038D01*
X95923053Y-49415252D01*
X96056406Y-49483199D01*
X96151024Y-49531410D01*
X96151027Y-49531411D01*
X96272693Y-49570942D01*
X96394361Y-49610474D01*
X96647070Y-49650500D01*
X96647071Y-49650500D01*
X96902929Y-49650500D01*
X96902930Y-49650500D01*
X97155639Y-49610474D01*
X97398975Y-49531410D01*
X97626947Y-49415252D01*
X97833942Y-49264862D01*
X98014862Y-49083942D01*
X98165252Y-48876947D01*
X98281410Y-48648975D01*
X98360474Y-48405639D01*
X98400500Y-48152930D01*
X98400500Y-47897070D01*
X153149500Y-47897070D01*
X153149500Y-48152929D01*
X153189526Y-48405640D01*
X153268588Y-48648972D01*
X153268589Y-48648975D01*
X153384750Y-48876950D01*
X153535132Y-49083935D01*
X153535136Y-49083940D01*
X153716059Y-49264863D01*
X153716064Y-49264867D01*
X153896607Y-49396038D01*
X153923053Y-49415252D01*
X154056406Y-49483199D01*
X154151024Y-49531410D01*
X154151027Y-49531411D01*
X154272693Y-49570942D01*
X154394361Y-49610474D01*
X154647070Y-49650500D01*
X154647071Y-49650500D01*
X154902929Y-49650500D01*
X154902930Y-49650500D01*
X155155639Y-49610474D01*
X155398975Y-49531410D01*
X155626947Y-49415252D01*
X155833942Y-49264862D01*
X156014862Y-49083942D01*
X156165252Y-48876947D01*
X156281410Y-48648975D01*
X156360474Y-48405639D01*
X156400500Y-48152930D01*
X156400500Y-47897070D01*
X156360474Y-47644361D01*
X156281410Y-47401025D01*
X156281410Y-47401024D01*
X156238491Y-47316793D01*
X156165252Y-47173053D01*
X156146038Y-47146607D01*
X156014867Y-46966064D01*
X156014863Y-46966059D01*
X155833940Y-46785136D01*
X155833935Y-46785132D01*
X155626950Y-46634750D01*
X155626949Y-46634749D01*
X155626947Y-46634748D01*
X155553910Y-46597533D01*
X155398975Y-46518589D01*
X155398972Y-46518588D01*
X155155640Y-46439526D01*
X154959923Y-46408527D01*
X154902930Y-46399500D01*
X154647070Y-46399500D01*
X154590077Y-46408527D01*
X154394359Y-46439526D01*
X154151027Y-46518588D01*
X154151024Y-46518589D01*
X153923049Y-46634750D01*
X153716064Y-46785132D01*
X153716059Y-46785136D01*
X153535136Y-46966059D01*
X153535132Y-46966064D01*
X153384750Y-47173049D01*
X153268589Y-47401024D01*
X153268588Y-47401027D01*
X153189526Y-47644359D01*
X153149500Y-47897070D01*
X98400500Y-47897070D01*
X98360474Y-47644361D01*
X98281410Y-47401025D01*
X98281410Y-47401024D01*
X98238491Y-47316793D01*
X98165252Y-47173053D01*
X98146038Y-47146607D01*
X98014867Y-46966064D01*
X98014863Y-46966059D01*
X97833940Y-46785136D01*
X97833935Y-46785132D01*
X97626950Y-46634750D01*
X97626949Y-46634749D01*
X97626947Y-46634748D01*
X97553910Y-46597533D01*
X97398975Y-46518589D01*
X97398972Y-46518588D01*
X97155640Y-46439526D01*
X96959923Y-46408527D01*
X96902930Y-46399500D01*
X96647070Y-46399500D01*
X96590077Y-46408527D01*
X96394359Y-46439526D01*
X96151027Y-46518588D01*
X96151024Y-46518589D01*
X95923049Y-46634750D01*
X95716064Y-46785132D01*
X95716059Y-46785136D01*
X95535136Y-46966059D01*
X95535132Y-46966064D01*
X95384750Y-47173049D01*
X95268589Y-47401024D01*
X95268588Y-47401027D01*
X95189526Y-47644359D01*
X95149500Y-47897070D01*
X91464478Y-47897070D01*
X91428705Y-47671206D01*
X91333742Y-47316801D01*
X91202255Y-46974264D01*
X91035682Y-46647348D01*
X91027501Y-46634750D01*
X90835852Y-46339635D01*
X90604952Y-46054498D01*
X90604949Y-46054494D01*
X90345506Y-45795051D01*
X90060366Y-45564149D01*
X90060364Y-45564147D01*
X89752656Y-45364320D01*
X89425739Y-45197746D01*
X89083206Y-45066260D01*
X89083199Y-45066258D01*
X88728794Y-44971295D01*
X88728790Y-44971294D01*
X88728789Y-44971294D01*
X88366405Y-44913898D01*
X88000001Y-44894696D01*
X87999999Y-44894696D01*
X87633594Y-44913898D01*
X87271211Y-44971294D01*
X87271209Y-44971294D01*
X86916793Y-45066260D01*
X86574260Y-45197746D01*
X86247343Y-45364320D01*
X85939635Y-45564147D01*
X85654498Y-45795047D01*
X85654490Y-45795054D01*
X85395054Y-46054490D01*
X85395047Y-46054498D01*
X85164147Y-46339635D01*
X84964320Y-46647343D01*
X84797746Y-46974260D01*
X84666260Y-47316793D01*
X84571294Y-47671209D01*
X84571294Y-47671211D01*
X84513898Y-48033594D01*
X84494696Y-48399999D01*
X77812134Y-48399999D01*
X77933742Y-48083199D01*
X78028705Y-47728794D01*
X78086102Y-47366404D01*
X78105304Y-47000000D01*
X78086102Y-46633596D01*
X78028705Y-46271206D01*
X77933742Y-45916801D01*
X77802255Y-45574264D01*
X77635682Y-45247348D01*
X77635679Y-45247343D01*
X77435852Y-44939635D01*
X77204952Y-44654498D01*
X77204949Y-44654494D01*
X76945506Y-44395051D01*
X76913010Y-44368736D01*
X76660364Y-44164147D01*
X76352656Y-43964320D01*
X76025739Y-43797746D01*
X75683206Y-43666260D01*
X75683199Y-43666258D01*
X75328794Y-43571295D01*
X75328790Y-43571294D01*
X75328789Y-43571294D01*
X74966405Y-43513898D01*
X74600001Y-43494696D01*
X74599999Y-43494696D01*
X74233594Y-43513898D01*
X73871211Y-43571294D01*
X73871209Y-43571294D01*
X73516793Y-43666260D01*
X73174260Y-43797746D01*
X72847343Y-43964320D01*
X72539635Y-44164147D01*
X72254498Y-44395047D01*
X72254490Y-44395054D01*
X71995054Y-44654490D01*
X71995047Y-44654498D01*
X71764147Y-44939635D01*
X71564320Y-45247343D01*
X71397746Y-45574260D01*
X71266260Y-45916793D01*
X71171294Y-46271209D01*
X71171294Y-46271211D01*
X71146473Y-46427925D01*
X71116544Y-46491060D01*
X71057232Y-46527991D01*
X70987370Y-46526993D01*
X70929137Y-46488383D01*
X70901023Y-46424419D01*
X70900000Y-46408527D01*
X70900000Y-45428566D01*
X70899999Y-45428563D01*
X70884699Y-45214637D01*
X70823890Y-44935104D01*
X70723908Y-44667041D01*
X70586808Y-44415961D01*
X70586807Y-44415960D01*
X70415360Y-44186934D01*
X70415350Y-44186922D01*
X70213077Y-43984649D01*
X70213065Y-43984639D01*
X69984039Y-43813192D01*
X69984038Y-43813191D01*
X69732957Y-43676091D01*
X69732958Y-43676091D01*
X69464895Y-43576109D01*
X69185362Y-43515300D01*
X68971436Y-43500000D01*
X67650000Y-43500000D01*
X67650000Y-44763497D01*
X67547473Y-44750000D01*
X67252527Y-44750000D01*
X67150000Y-44763497D01*
X67150000Y-43500000D01*
X65828563Y-43500000D01*
X65614637Y-43515300D01*
X65335104Y-43576109D01*
X65067041Y-43676091D01*
X64815961Y-43813191D01*
X64815960Y-43813192D01*
X64586934Y-43984639D01*
X64586922Y-43984649D01*
X64384649Y-44186922D01*
X64384639Y-44186934D01*
X64213192Y-44415960D01*
X64213191Y-44415961D01*
X64076091Y-44667041D01*
X63976109Y-44935104D01*
X63915300Y-45214637D01*
X63900000Y-45428563D01*
X60000000Y-45428563D01*
X60000000Y-33999999D01*
X63294922Y-33999999D01*
X63294922Y-34000000D01*
X63315219Y-34387287D01*
X63375886Y-34770323D01*
X63375887Y-34770330D01*
X63476262Y-35144936D01*
X63615244Y-35506994D01*
X63791310Y-35852543D01*
X64002531Y-36177793D01*
X64211095Y-36435350D01*
X64211096Y-36435350D01*
X65705748Y-34940698D01*
X65779588Y-35042330D01*
X65957670Y-35220412D01*
X66059300Y-35294251D01*
X64564648Y-36788903D01*
X64564649Y-36788904D01*
X64822206Y-36997468D01*
X65147456Y-37208689D01*
X65493005Y-37384755D01*
X65855063Y-37523737D01*
X66229669Y-37624112D01*
X66229676Y-37624113D01*
X66612712Y-37684780D01*
X66999999Y-37705078D01*
X67000001Y-37705078D01*
X67387287Y-37684780D01*
X67770323Y-37624113D01*
X67770330Y-37624112D01*
X68144936Y-37523737D01*
X68506994Y-37384755D01*
X68852543Y-37208689D01*
X69177783Y-36997476D01*
X69177785Y-36997475D01*
X69435349Y-36788902D01*
X67940698Y-35294251D01*
X68042330Y-35220412D01*
X68220412Y-35042330D01*
X68294251Y-34940698D01*
X69788902Y-36435349D01*
X69997475Y-36177785D01*
X69997476Y-36177783D01*
X70046589Y-36102155D01*
X72490000Y-36102155D01*
X72490000Y-36750000D01*
X73406988Y-36750000D01*
X73374075Y-36807007D01*
X73340000Y-36934174D01*
X73340000Y-37065826D01*
X73374075Y-37192993D01*
X73406988Y-37250000D01*
X72490000Y-37250000D01*
X72490000Y-37897844D01*
X72496401Y-37957372D01*
X72496403Y-37957379D01*
X72546645Y-38092086D01*
X72546649Y-38092093D01*
X72632809Y-38207187D01*
X72632812Y-38207190D01*
X72747906Y-38293350D01*
X72747913Y-38293354D01*
X72882620Y-38343596D01*
X72882627Y-38343598D01*
X72942155Y-38349999D01*
X72942172Y-38350000D01*
X73590000Y-38350000D01*
X73590000Y-37433012D01*
X73647007Y-37465925D01*
X73774174Y-37500000D01*
X73905826Y-37500000D01*
X74032993Y-37465925D01*
X74090000Y-37433012D01*
X74090000Y-38350000D01*
X74737828Y-38350000D01*
X74737844Y-38349999D01*
X74797372Y-38343598D01*
X74797379Y-38343596D01*
X74932086Y-38293354D01*
X74932093Y-38293350D01*
X75047187Y-38207190D01*
X75047190Y-38207187D01*
X75133350Y-38092093D01*
X75133354Y-38092086D01*
X75182422Y-37960529D01*
X75224293Y-37904595D01*
X75289757Y-37880178D01*
X75358030Y-37895030D01*
X75386285Y-37916181D01*
X75508599Y-38038495D01*
X75585135Y-38092086D01*
X75702165Y-38174032D01*
X75702167Y-38174033D01*
X75702170Y-38174035D01*
X75916337Y-38273903D01*
X76144592Y-38335063D01*
X76315319Y-38350000D01*
X76379999Y-38355659D01*
X76380000Y-38355659D01*
X76380001Y-38355659D01*
X76444681Y-38350000D01*
X76615408Y-38335063D01*
X76843663Y-38273903D01*
X77057830Y-38174035D01*
X77251401Y-38038495D01*
X77418495Y-37871401D01*
X77548730Y-37685405D01*
X77603307Y-37641781D01*
X77672805Y-37634587D01*
X77735160Y-37666110D01*
X77751879Y-37685405D01*
X77881890Y-37871078D01*
X78048917Y-38038105D01*
X78242421Y-38173600D01*
X78456507Y-38273429D01*
X78456516Y-38273433D01*
X78670000Y-38330634D01*
X78670000Y-37433012D01*
X78727007Y-37465925D01*
X78854174Y-37500000D01*
X78985826Y-37500000D01*
X79112993Y-37465925D01*
X79170000Y-37433012D01*
X79170000Y-38330633D01*
X79383483Y-38273433D01*
X79383492Y-38273429D01*
X79597578Y-38173600D01*
X79791082Y-38038105D01*
X79958105Y-37871082D01*
X80088119Y-37685405D01*
X80142696Y-37641781D01*
X80212195Y-37634588D01*
X80274549Y-37666110D01*
X80291269Y-37685405D01*
X80421505Y-37871401D01*
X80588599Y-38038495D01*
X80665135Y-38092086D01*
X80782165Y-38174032D01*
X80782167Y-38174033D01*
X80782170Y-38174035D01*
X80996337Y-38273903D01*
X81224592Y-38335063D01*
X81395319Y-38350000D01*
X81459999Y-38355659D01*
X81460000Y-38355659D01*
X81460001Y-38355659D01*
X81524681Y-38350000D01*
X81695408Y-38335063D01*
X81923663Y-38273903D01*
X82137830Y-38174035D01*
X82331401Y-38038495D01*
X82498495Y-37871401D01*
X82628730Y-37685405D01*
X82683307Y-37641781D01*
X82752805Y-37634587D01*
X82815160Y-37666110D01*
X82831879Y-37685405D01*
X82961890Y-37871078D01*
X83128917Y-38038105D01*
X83322421Y-38173600D01*
X83536507Y-38273429D01*
X83536516Y-38273433D01*
X83750000Y-38330634D01*
X83750000Y-37433012D01*
X83807007Y-37465925D01*
X83934174Y-37500000D01*
X84065826Y-37500000D01*
X84192993Y-37465925D01*
X84250000Y-37433012D01*
X84250000Y-38330634D01*
X84463483Y-38273433D01*
X84463492Y-38273429D01*
X84677578Y-38173600D01*
X84871082Y-38038105D01*
X85038105Y-37871082D01*
X85168119Y-37685405D01*
X85222696Y-37641781D01*
X85292195Y-37634588D01*
X85354549Y-37666110D01*
X85371269Y-37685405D01*
X85501505Y-37871401D01*
X85668599Y-38038495D01*
X85745135Y-38092086D01*
X85862165Y-38174032D01*
X85862167Y-38174033D01*
X85862170Y-38174035D01*
X86076337Y-38273903D01*
X86304592Y-38335063D01*
X86475319Y-38350000D01*
X86539999Y-38355659D01*
X86540000Y-38355659D01*
X86540001Y-38355659D01*
X86604681Y-38350000D01*
X86775408Y-38335063D01*
X87003663Y-38273903D01*
X87217830Y-38174035D01*
X87411401Y-38038495D01*
X87578495Y-37871401D01*
X87708730Y-37685405D01*
X87763307Y-37641781D01*
X87832805Y-37634587D01*
X87895160Y-37666110D01*
X87911879Y-37685405D01*
X88041890Y-37871078D01*
X88208917Y-38038105D01*
X88402421Y-38173600D01*
X88616507Y-38273429D01*
X88616516Y-38273433D01*
X88830000Y-38330634D01*
X88830000Y-37433012D01*
X88887007Y-37465925D01*
X89014174Y-37500000D01*
X89145826Y-37500000D01*
X89272993Y-37465925D01*
X89330000Y-37433012D01*
X89330000Y-38330634D01*
X89543483Y-38273433D01*
X89543492Y-38273429D01*
X89757578Y-38173600D01*
X89951082Y-38038105D01*
X90118105Y-37871082D01*
X90248119Y-37685405D01*
X90302696Y-37641781D01*
X90372195Y-37634588D01*
X90434549Y-37666110D01*
X90451269Y-37685405D01*
X90581505Y-37871401D01*
X90748599Y-38038495D01*
X90825135Y-38092086D01*
X90942165Y-38174032D01*
X90942167Y-38174033D01*
X90942170Y-38174035D01*
X91156337Y-38273903D01*
X91384592Y-38335063D01*
X91555319Y-38350000D01*
X91619999Y-38355659D01*
X91620000Y-38355659D01*
X91620001Y-38355659D01*
X91684681Y-38350000D01*
X91855408Y-38335063D01*
X92083663Y-38273903D01*
X92297830Y-38174035D01*
X92491401Y-38038495D01*
X92658495Y-37871401D01*
X92794035Y-37677830D01*
X92893903Y-37463663D01*
X92955063Y-37235408D01*
X92975659Y-37000000D01*
X92975437Y-36997468D01*
X92955063Y-36764596D01*
X92955063Y-36764592D01*
X92893903Y-36536337D01*
X92794035Y-36322171D01*
X92788731Y-36314595D01*
X92658494Y-36128597D01*
X92491402Y-35961506D01*
X92491395Y-35961501D01*
X92297834Y-35825967D01*
X92297830Y-35825965D01*
X92226727Y-35792809D01*
X92083663Y-35726097D01*
X92083659Y-35726096D01*
X92083655Y-35726094D01*
X91855413Y-35664938D01*
X91855403Y-35664936D01*
X91620001Y-35644341D01*
X91619999Y-35644341D01*
X91384596Y-35664936D01*
X91384586Y-35664938D01*
X91156344Y-35726094D01*
X91156335Y-35726098D01*
X90942171Y-35825964D01*
X90942169Y-35825965D01*
X90748597Y-35961505D01*
X90581508Y-36128594D01*
X90451269Y-36314595D01*
X90396692Y-36358219D01*
X90327193Y-36365412D01*
X90264839Y-36333890D01*
X90248119Y-36314594D01*
X90118113Y-36128926D01*
X90118108Y-36128920D01*
X89951082Y-35961894D01*
X89757578Y-35826399D01*
X89543492Y-35726570D01*
X89543486Y-35726567D01*
X89330000Y-35669364D01*
X89330000Y-36566988D01*
X89272993Y-36534075D01*
X89145826Y-36500000D01*
X89014174Y-36500000D01*
X88887007Y-36534075D01*
X88830000Y-36566988D01*
X88830000Y-35669364D01*
X88829999Y-35669364D01*
X88616513Y-35726567D01*
X88616507Y-35726570D01*
X88402422Y-35826399D01*
X88402420Y-35826400D01*
X88208926Y-35961886D01*
X88208920Y-35961891D01*
X88041891Y-36128920D01*
X88041890Y-36128922D01*
X87911880Y-36314595D01*
X87857303Y-36358219D01*
X87787804Y-36365412D01*
X87725450Y-36333890D01*
X87708730Y-36314594D01*
X87578494Y-36128597D01*
X87411402Y-35961506D01*
X87411395Y-35961501D01*
X87217834Y-35825967D01*
X87217830Y-35825965D01*
X87146727Y-35792809D01*
X87003663Y-35726097D01*
X87003659Y-35726096D01*
X87003655Y-35726094D01*
X86775413Y-35664938D01*
X86775403Y-35664936D01*
X86540001Y-35644341D01*
X86539999Y-35644341D01*
X86304596Y-35664936D01*
X86304586Y-35664938D01*
X86076344Y-35726094D01*
X86076335Y-35726098D01*
X85862171Y-35825964D01*
X85862169Y-35825965D01*
X85668597Y-35961505D01*
X85501508Y-36128594D01*
X85371269Y-36314595D01*
X85316692Y-36358219D01*
X85247193Y-36365412D01*
X85184839Y-36333890D01*
X85168119Y-36314594D01*
X85038113Y-36128926D01*
X85038108Y-36128920D01*
X84871082Y-35961894D01*
X84677578Y-35826399D01*
X84463492Y-35726570D01*
X84463486Y-35726567D01*
X84250000Y-35669364D01*
X84250000Y-36566988D01*
X84192993Y-36534075D01*
X84065826Y-36500000D01*
X83934174Y-36500000D01*
X83807007Y-36534075D01*
X83750000Y-36566988D01*
X83750000Y-35669364D01*
X83749999Y-35669364D01*
X83536513Y-35726567D01*
X83536507Y-35726570D01*
X83322422Y-35826399D01*
X83322420Y-35826400D01*
X83128926Y-35961886D01*
X83128920Y-35961891D01*
X82961891Y-36128920D01*
X82961890Y-36128922D01*
X82831880Y-36314595D01*
X82777303Y-36358219D01*
X82707804Y-36365412D01*
X82645450Y-36333890D01*
X82628730Y-36314594D01*
X82498494Y-36128597D01*
X82331402Y-35961506D01*
X82331395Y-35961501D01*
X82137834Y-35825967D01*
X82137830Y-35825965D01*
X82066727Y-35792809D01*
X81923663Y-35726097D01*
X81923659Y-35726096D01*
X81923655Y-35726094D01*
X81695413Y-35664938D01*
X81695403Y-35664936D01*
X81460001Y-35644341D01*
X81459999Y-35644341D01*
X81224596Y-35664936D01*
X81224586Y-35664938D01*
X80996344Y-35726094D01*
X80996335Y-35726098D01*
X80782171Y-35825964D01*
X80782169Y-35825965D01*
X80588597Y-35961505D01*
X80421508Y-36128594D01*
X80291269Y-36314595D01*
X80236692Y-36358219D01*
X80167193Y-36365412D01*
X80104839Y-36333890D01*
X80088119Y-36314594D01*
X79958113Y-36128926D01*
X79958108Y-36128920D01*
X79791082Y-35961894D01*
X79597578Y-35826399D01*
X79383492Y-35726570D01*
X79383486Y-35726567D01*
X79170000Y-35669364D01*
X79170000Y-36566988D01*
X79112993Y-36534075D01*
X78985826Y-36500000D01*
X78854174Y-36500000D01*
X78727007Y-36534075D01*
X78670000Y-36566988D01*
X78670000Y-35669364D01*
X78669999Y-35669364D01*
X78456513Y-35726567D01*
X78456507Y-35726570D01*
X78242422Y-35826399D01*
X78242420Y-35826400D01*
X78048926Y-35961886D01*
X78048920Y-35961891D01*
X77881891Y-36128920D01*
X77881890Y-36128922D01*
X77751880Y-36314595D01*
X77697303Y-36358219D01*
X77627804Y-36365412D01*
X77565450Y-36333890D01*
X77548730Y-36314594D01*
X77418494Y-36128597D01*
X77251402Y-35961506D01*
X77251395Y-35961501D01*
X77057834Y-35825967D01*
X77057830Y-35825965D01*
X76986727Y-35792809D01*
X76843663Y-35726097D01*
X76843659Y-35726096D01*
X76843655Y-35726094D01*
X76615413Y-35664938D01*
X76615403Y-35664936D01*
X76380001Y-35644341D01*
X76379999Y-35644341D01*
X76144596Y-35664936D01*
X76144586Y-35664938D01*
X75916344Y-35726094D01*
X75916335Y-35726098D01*
X75702171Y-35825964D01*
X75702169Y-35825965D01*
X75508600Y-35961503D01*
X75386284Y-36083819D01*
X75324961Y-36117303D01*
X75255269Y-36112319D01*
X75199336Y-36070447D01*
X75182421Y-36039470D01*
X75133354Y-35907913D01*
X75133350Y-35907906D01*
X75047190Y-35792812D01*
X75047187Y-35792809D01*
X74932093Y-35706649D01*
X74932086Y-35706645D01*
X74797379Y-35656403D01*
X74797372Y-35656401D01*
X74737844Y-35650000D01*
X74090000Y-35650000D01*
X74090000Y-36566988D01*
X74032993Y-36534075D01*
X73905826Y-36500000D01*
X73774174Y-36500000D01*
X73647007Y-36534075D01*
X73590000Y-36566988D01*
X73590000Y-35650000D01*
X72942155Y-35650000D01*
X72882627Y-35656401D01*
X72882620Y-35656403D01*
X72747913Y-35706645D01*
X72747906Y-35706649D01*
X72632812Y-35792809D01*
X72632809Y-35792812D01*
X72546649Y-35907906D01*
X72546645Y-35907913D01*
X72496403Y-36042620D01*
X72496401Y-36042627D01*
X72490000Y-36102155D01*
X70046589Y-36102155D01*
X70208689Y-35852543D01*
X70384755Y-35506994D01*
X70523737Y-35144936D01*
X70624112Y-34770330D01*
X70624113Y-34770323D01*
X70684780Y-34387287D01*
X70705078Y-34000000D01*
X70705078Y-33999999D01*
X70684780Y-33612712D01*
X70655614Y-33428563D01*
X114400000Y-33428563D01*
X114400000Y-34750000D01*
X115663498Y-34750000D01*
X115650000Y-34852527D01*
X115650000Y-35147473D01*
X115663498Y-35250000D01*
X114400000Y-35250000D01*
X114400000Y-36571436D01*
X114415300Y-36785362D01*
X114476109Y-37064895D01*
X114576091Y-37332958D01*
X114713191Y-37584038D01*
X114713192Y-37584039D01*
X114884639Y-37813065D01*
X114884649Y-37813077D01*
X115086922Y-38015350D01*
X115086934Y-38015360D01*
X115315960Y-38186807D01*
X115315961Y-38186808D01*
X115567042Y-38323908D01*
X115567041Y-38323908D01*
X115835104Y-38423890D01*
X116114637Y-38484699D01*
X116328563Y-38499999D01*
X116328566Y-38500000D01*
X117650000Y-38500000D01*
X117650000Y-37236502D01*
X117752527Y-37250000D01*
X118047473Y-37250000D01*
X118150000Y-37236502D01*
X118150000Y-38500000D01*
X119471434Y-38500000D01*
X119471436Y-38499999D01*
X119685362Y-38484699D01*
X119964895Y-38423890D01*
X120232958Y-38323908D01*
X120484038Y-38186808D01*
X120484039Y-38186807D01*
X120713065Y-38015360D01*
X120713077Y-38015350D01*
X120915350Y-37813077D01*
X120915360Y-37813065D01*
X121086807Y-37584039D01*
X121086808Y-37584038D01*
X121223908Y-37332958D01*
X121323890Y-37064895D01*
X121384699Y-36785362D01*
X121399999Y-36571436D01*
X121400000Y-36571434D01*
X121400000Y-35591472D01*
X121419685Y-35524433D01*
X121472489Y-35478678D01*
X121541647Y-35468734D01*
X121605203Y-35497759D01*
X121642977Y-35556537D01*
X121646472Y-35572073D01*
X121671295Y-35728794D01*
X121733753Y-35961891D01*
X121766260Y-36083206D01*
X121897746Y-36425739D01*
X122064320Y-36752656D01*
X122264147Y-37060364D01*
X122405891Y-37235403D01*
X122495051Y-37345506D01*
X122754494Y-37604949D01*
X122853077Y-37684780D01*
X123039635Y-37835852D01*
X123347343Y-38035679D01*
X123347348Y-38035682D01*
X123674264Y-38202255D01*
X124016801Y-38333742D01*
X124371206Y-38428705D01*
X124733596Y-38486102D01*
X125079734Y-38504241D01*
X125099999Y-38505304D01*
X125100000Y-38505304D01*
X125100001Y-38505304D01*
X125119203Y-38504297D01*
X125466404Y-38486102D01*
X125828794Y-38428705D01*
X126183199Y-38333742D01*
X126525736Y-38202255D01*
X126852652Y-38035682D01*
X127160366Y-37835851D01*
X127445506Y-37604949D01*
X127704949Y-37345506D01*
X127935851Y-37060366D01*
X128135682Y-36752652D01*
X128302255Y-36425736D01*
X128433742Y-36083199D01*
X128528705Y-35728794D01*
X128586102Y-35366404D01*
X128605304Y-35000000D01*
X128586102Y-34633596D01*
X128528705Y-34271206D01*
X128456035Y-33999999D01*
X170294922Y-33999999D01*
X170294922Y-34000000D01*
X170315219Y-34387287D01*
X170375886Y-34770323D01*
X170375887Y-34770330D01*
X170476262Y-35144936D01*
X170615244Y-35506994D01*
X170791310Y-35852543D01*
X171002531Y-36177793D01*
X171211095Y-36435350D01*
X171211096Y-36435350D01*
X172705748Y-34940698D01*
X172779588Y-35042330D01*
X172957670Y-35220412D01*
X173059300Y-35294251D01*
X171564648Y-36788903D01*
X171564649Y-36788904D01*
X171822206Y-36997468D01*
X172147456Y-37208689D01*
X172493005Y-37384755D01*
X172855063Y-37523737D01*
X173229669Y-37624112D01*
X173229676Y-37624113D01*
X173612712Y-37684780D01*
X173999999Y-37705078D01*
X174000001Y-37705078D01*
X174387287Y-37684780D01*
X174770323Y-37624113D01*
X174770330Y-37624112D01*
X175144936Y-37523737D01*
X175506994Y-37384755D01*
X175852543Y-37208689D01*
X176177783Y-36997476D01*
X176177785Y-36997475D01*
X176435349Y-36788902D01*
X174940698Y-35294251D01*
X175042330Y-35220412D01*
X175220412Y-35042330D01*
X175294251Y-34940698D01*
X176788902Y-36435349D01*
X176997475Y-36177785D01*
X176997476Y-36177783D01*
X177208689Y-35852543D01*
X177384755Y-35506994D01*
X177523737Y-35144936D01*
X177624112Y-34770330D01*
X177624113Y-34770323D01*
X177684780Y-34387287D01*
X177705078Y-34000000D01*
X177705078Y-33999999D01*
X177684780Y-33612712D01*
X177624113Y-33229676D01*
X177624112Y-33229669D01*
X177523737Y-32855063D01*
X177384755Y-32493005D01*
X177208689Y-32147456D01*
X176997468Y-31822206D01*
X176788904Y-31564649D01*
X176788903Y-31564648D01*
X175294251Y-33059300D01*
X175220412Y-32957670D01*
X175042330Y-32779588D01*
X174940698Y-32705748D01*
X176435350Y-31211096D01*
X176435350Y-31211095D01*
X176177793Y-31002531D01*
X175852543Y-30791310D01*
X175506994Y-30615244D01*
X175144936Y-30476262D01*
X174770330Y-30375887D01*
X174770323Y-30375886D01*
X174387287Y-30315219D01*
X174000001Y-30294922D01*
X173999999Y-30294922D01*
X173612712Y-30315219D01*
X173229676Y-30375886D01*
X173229669Y-30375887D01*
X172855063Y-30476262D01*
X172493005Y-30615244D01*
X172147456Y-30791310D01*
X171822206Y-31002531D01*
X171564648Y-31211095D01*
X171564648Y-31211096D01*
X173059301Y-32705748D01*
X172957670Y-32779588D01*
X172779588Y-32957670D01*
X172705748Y-33059300D01*
X171211096Y-31564648D01*
X171211095Y-31564648D01*
X171002531Y-31822206D01*
X170791310Y-32147456D01*
X170615244Y-32493005D01*
X170476262Y-32855063D01*
X170375887Y-33229669D01*
X170375886Y-33229676D01*
X170315219Y-33612712D01*
X170294922Y-33999999D01*
X128456035Y-33999999D01*
X128433742Y-33916801D01*
X128302255Y-33574264D01*
X128135682Y-33247348D01*
X128124201Y-33229669D01*
X127935852Y-32939635D01*
X127704952Y-32654498D01*
X127704949Y-32654494D01*
X127445506Y-32395051D01*
X127413010Y-32368736D01*
X127160364Y-32164147D01*
X126852656Y-31964320D01*
X126525739Y-31797746D01*
X126183206Y-31666260D01*
X126183199Y-31666258D01*
X125828794Y-31571295D01*
X125828790Y-31571294D01*
X125828789Y-31571294D01*
X125466405Y-31513898D01*
X125100001Y-31494696D01*
X125099999Y-31494696D01*
X124733594Y-31513898D01*
X124371211Y-31571294D01*
X124371209Y-31571294D01*
X124016793Y-31666260D01*
X123674260Y-31797746D01*
X123347343Y-31964320D01*
X123039635Y-32164147D01*
X122754498Y-32395047D01*
X122754490Y-32395054D01*
X122495054Y-32654490D01*
X122495047Y-32654498D01*
X122264147Y-32939635D01*
X122064320Y-33247343D01*
X121897746Y-33574260D01*
X121766260Y-33916793D01*
X121671294Y-34271209D01*
X121671294Y-34271211D01*
X121646473Y-34427925D01*
X121616544Y-34491060D01*
X121557232Y-34527991D01*
X121487370Y-34526993D01*
X121429137Y-34488383D01*
X121401023Y-34424419D01*
X121400000Y-34408527D01*
X121400000Y-33428566D01*
X121399999Y-33428563D01*
X121384699Y-33214637D01*
X121323890Y-32935104D01*
X121223908Y-32667041D01*
X121086808Y-32415961D01*
X121086807Y-32415960D01*
X120915360Y-32186934D01*
X120915350Y-32186922D01*
X120713077Y-31984649D01*
X120713065Y-31984639D01*
X120484039Y-31813192D01*
X120484038Y-31813191D01*
X120232957Y-31676091D01*
X120232958Y-31676091D01*
X119964895Y-31576109D01*
X119685362Y-31515300D01*
X119471436Y-31500000D01*
X118150000Y-31500000D01*
X118150000Y-32763497D01*
X118047473Y-32750000D01*
X117752527Y-32750000D01*
X117650000Y-32763497D01*
X117650000Y-31500000D01*
X116328563Y-31500000D01*
X116114637Y-31515300D01*
X115835104Y-31576109D01*
X115567041Y-31676091D01*
X115315961Y-31813191D01*
X115315960Y-31813192D01*
X115086934Y-31984639D01*
X115086922Y-31984649D01*
X114884649Y-32186922D01*
X114884639Y-32186934D01*
X114713192Y-32415960D01*
X114713191Y-32415961D01*
X114576091Y-32667041D01*
X114476109Y-32935104D01*
X114415300Y-33214637D01*
X114400000Y-33428563D01*
X70655614Y-33428563D01*
X70624113Y-33229676D01*
X70624112Y-33229669D01*
X70523737Y-32855063D01*
X70384755Y-32493005D01*
X70208689Y-32147456D01*
X69997468Y-31822206D01*
X69788904Y-31564649D01*
X69788903Y-31564648D01*
X68294251Y-33059300D01*
X68220412Y-32957670D01*
X68042330Y-32779588D01*
X67940698Y-32705748D01*
X69435350Y-31211096D01*
X69435350Y-31211095D01*
X69177793Y-31002531D01*
X68852543Y-30791310D01*
X68506994Y-30615244D01*
X68144936Y-30476262D01*
X67770330Y-30375887D01*
X67770323Y-30375886D01*
X67387287Y-30315219D01*
X67000001Y-30294922D01*
X66999999Y-30294922D01*
X66612712Y-30315219D01*
X66229676Y-30375886D01*
X66229669Y-30375887D01*
X65855063Y-30476262D01*
X65493005Y-30615244D01*
X65147456Y-30791310D01*
X64822206Y-31002531D01*
X64564648Y-31211095D01*
X64564648Y-31211096D01*
X66059301Y-32705748D01*
X65957670Y-32779588D01*
X65779588Y-32957670D01*
X65705748Y-33059300D01*
X64211096Y-31564648D01*
X64211095Y-31564648D01*
X64002531Y-31822206D01*
X63791310Y-32147456D01*
X63615244Y-32493005D01*
X63476262Y-32855063D01*
X63375887Y-33229669D01*
X63375886Y-33229676D01*
X63315219Y-33612712D01*
X63294922Y-33999999D01*
X60000000Y-33999999D01*
X60000000Y-27124000D01*
X60019685Y-27056961D01*
X60072489Y-27011206D01*
X60124000Y-27000000D01*
X180876000Y-27000000D01*
X180943039Y-27019685D01*
G37*
%TD.AperFunction*%
%TD*%
M02*
