M48
; DRILL file {KiCad 8.0.7-8.0.7-0~ubuntu24.04.1} date 2025-02-07T15:23:13+0100
; FORMAT={-:-/ absolute / inch / decimal}
; #@! TF.CreationDate,2025-02-07T15:23:13+01:00
; #@! TF.GenerationSoftware,Kicad,Pcbnew,8.0.7-8.0.7-0~ubuntu24.04.1
; #@! TF.FileFunction,Plated,1,4,PTH
FMAT,2
INCH
; #@! TA.AperFunction,Plated,PTH,ViaDrill
T1C0.0118
; #@! TA.AperFunction,Plated,PTH,ComponentDrill
T2C0.0197
; #@! TA.AperFunction,Plated,PTH,ComponentDrill
T3C0.0374
; #@! TA.AperFunction,Plated,PTH,ComponentDrill
T4C0.0394
; #@! TA.AperFunction,Plated,PTH,ComponentDrill
T5C0.1260
; #@! TA.AperFunction,Plated,PTH,ComponentDrill
T6C0.1772
%
G90
G05
T1
X2.9665Y-6.4409
X2.9803Y-6.4055
X3.0591Y-7.502
X3.0945Y-5.8622
X3.0965Y-5.7697
X3.0965Y-5.9449
X3.498Y-5.9803
X3.5669Y-6.0059
X3.5768Y-6.1693
X3.6654Y-6.0807
X3.7352Y-6.0118
X3.7657Y-6.0846
X3.7992Y-6.1713
X3.8511Y-6.0983
X3.8839Y-6.1752
X3.9449Y-6.1043
X3.9823Y-6.1732
X3.9828Y-5.968
X3.9843Y-6.0709
X4.0064Y-5.9996
X4.0155Y-6.0747
X4.065Y-6.1811
X4.126Y-6.1831
X4.1853Y-6.3547
X4.2769Y-6.0232
X4.2953Y-6.2579
X4.2968Y-6.2953
X4.2972Y-6.0472
X4.3524Y-6.189
X4.3642Y-6.3465
X4.3957Y-6.2283
X4.4695Y-5.9892
X4.4827Y-6.3459
X4.502Y-6.2677
X4.5315Y-5.9606
X4.533Y-6.2677
X4.6063Y-6.3976
X4.6102Y-6.1969
X4.6594Y-6.0827
X4.6673Y-6.1476
X4.8661Y-6.0197
X5.7598Y-5.7657
X5.7756Y-7.502
X5.7776Y-5.7106
X5.8701Y-6.4409
X5.9001Y-6.1434
T2
X3.1929Y-5.8189
X3.1929Y-7.3937
X3.2206Y-5.7521
X3.2206Y-5.8857
X3.2206Y-7.3269
X3.2206Y-7.4605
X3.2874Y-5.7244
X3.2874Y-5.9134
X3.2874Y-7.2992
X3.2874Y-7.4882
X3.3542Y-5.7521
X3.3542Y-5.8857
X3.3542Y-7.3269
X3.3542Y-7.4605
X3.3819Y-5.8189
X3.3819Y-7.3937
X5.4783Y-5.8189
X5.4783Y-7.3937
X5.506Y-5.7521
X5.506Y-5.8857
X5.506Y-7.3269
X5.506Y-7.4605
X5.5728Y-5.7244
X5.5728Y-5.9134
X5.5728Y-7.2992
X5.5728Y-7.4882
X5.6396Y-5.7521
X5.6396Y-5.8857
X5.6396Y-7.3269
X5.6396Y-7.4605
X5.6673Y-5.8189
X5.6673Y-7.3937
T3
X3.6555Y-6.3071
X3.7539Y-6.3071
X3.8524Y-6.3071
X3.9508Y-6.3071
T4
X3.0246Y-6.0465
X3.0246Y-6.1465
X3.0246Y-6.2465
X3.0246Y-6.3465
X3.1665Y-6.0512
X3.1685Y-6.1988
X3.1685Y-6.3465
X3.2665Y-6.0512
X3.2685Y-6.1988
X3.2685Y-6.3465
X3.3665Y-6.0512
X3.3685Y-6.1988
X3.3685Y-6.3465
X3.4665Y-6.0512
X3.4685Y-6.1988
X3.4685Y-6.3465
X3.4801Y-5.7679
X3.4801Y-5.8679
X3.5801Y-5.7679
X3.5801Y-5.8679
X3.6801Y-5.7679
X3.6801Y-5.8679
X3.7801Y-5.7679
X3.7801Y-5.8679
X3.8801Y-5.7679
X3.8801Y-5.8679
X3.9801Y-5.7679
X3.9801Y-5.8679
X4.0801Y-5.7679
X4.0801Y-5.8679
X4.1801Y-5.7679
X4.1801Y-5.8679
X4.2801Y-5.7679
X4.2801Y-5.8679
X4.3801Y-5.7679
X4.3801Y-5.8679
X4.4801Y-5.7679
X4.4801Y-5.8679
X4.5801Y-5.7679
X4.5801Y-5.8679
X4.6801Y-5.7679
X4.6801Y-5.8679
X4.7329Y-6.0465
X4.7329Y-6.1465
X4.7329Y-6.2465
X4.7329Y-6.3465
X4.7801Y-5.7679
X4.7801Y-5.8679
X4.876Y-6.1441
X4.876Y-6.2441
X4.876Y-6.3441
X4.8801Y-5.7679
X4.8801Y-5.8679
X4.9801Y-5.7679
X4.9801Y-5.8679
X5.0236Y-6.1441
X5.0236Y-6.2441
X5.0236Y-6.3441
X5.0801Y-5.7679
X5.0801Y-5.8679
X5.1713Y-6.1441
X5.1713Y-6.2441
X5.1713Y-6.3441
X5.1801Y-5.7679
X5.1801Y-5.8679
X5.2801Y-5.7679
X5.2801Y-5.8679
X5.3189Y-6.1441
X5.3189Y-6.2441
X5.3189Y-6.3441
X5.3801Y-5.7679
X5.3801Y-5.8679
X5.4594Y-6.1969
X5.4594Y-6.3445
X5.4598Y-6.0492
X5.5594Y-6.1969
X5.5594Y-6.3445
X5.5598Y-6.0492
X5.6594Y-6.1969
X5.6594Y-6.3445
X5.6598Y-6.0492
T5
X3.2874Y-5.8189
X3.2874Y-7.3937
X5.5728Y-5.8189
X5.5728Y-7.3937
T6
X3.7786Y-6.8474
X3.7972Y-7.3563
X3.979Y-6.6469
X4.0807Y-7.3563
X4.4173Y-6.7008
X4.4173Y-6.9843
X4.748Y-7.3524
X4.8497Y-6.645
X5.0315Y-7.3524
X5.0501Y-6.8454
M30
