%TF.GenerationSoftware,KiCad,Pcbnew,8.0.7-8.0.7-0~ubuntu24.04.1*%
%TF.CreationDate,2025-02-04T17:05:07+01:00*%
%TF.ProjectId,drn2,64726e32-2e6b-4696-9361-645f70636258,rev?*%
%TF.SameCoordinates,Original*%
%TF.FileFunction,Copper,L3,Inr*%
%TF.FilePolarity,Positive*%
%FSLAX46Y46*%
G04 Gerber Fmt 4.6, Leading zero omitted, Abs format (unit mm)*
G04 Created by KiCad (PCBNEW 8.0.7-8.0.7-0~ubuntu24.04.1) date 2025-02-04 17:05:07*
%MOMM*%
%LPD*%
G01*
G04 APERTURE LIST*
G04 Aperture macros list*
%AMRoundRect*
0 Rectangle with rounded corners*
0 $1 Rounding radius*
0 $2 $3 $4 $5 $6 $7 $8 $9 X,Y pos of 4 corners*
0 Add a 4 corners polygon primitive as box body*
4,1,4,$2,$3,$4,$5,$6,$7,$8,$9,$2,$3,0*
0 Add four circle primitives for the rounded corners*
1,1,$1+$1,$2,$3*
1,1,$1+$1,$4,$5*
1,1,$1+$1,$6,$7*
1,1,$1+$1,$8,$9*
0 Add four rect primitives between the rounded corners*
20,1,$1+$1,$2,$3,$4,$5,0*
20,1,$1+$1,$4,$5,$6,$7,0*
20,1,$1+$1,$6,$7,$8,$9,0*
20,1,$1+$1,$8,$9,$2,$3,0*%
G04 Aperture macros list end*
%TA.AperFunction,ComponentPad*%
%ADD10R,1.700000X1.700000*%
%TD*%
%TA.AperFunction,ComponentPad*%
%ADD11O,1.700000X1.700000*%
%TD*%
%TA.AperFunction,ComponentPad*%
%ADD12RoundRect,1.500000X-1.500000X-1.500000X1.500000X-1.500000X1.500000X1.500000X-1.500000X1.500000X0*%
%TD*%
%TA.AperFunction,ComponentPad*%
%ADD13C,6.000000*%
%TD*%
%TA.AperFunction,ComponentPad*%
%ADD14RoundRect,0.250000X0.600000X0.725000X-0.600000X0.725000X-0.600000X-0.725000X0.600000X-0.725000X0*%
%TD*%
%TA.AperFunction,ComponentPad*%
%ADD15O,1.700000X1.950000*%
%TD*%
%TA.AperFunction,ComponentPad*%
%ADD16C,0.800000*%
%TD*%
%TA.AperFunction,ComponentPad*%
%ADD17C,6.400000*%
%TD*%
%TA.AperFunction,ComponentPad*%
%ADD18R,1.600000X1.600000*%
%TD*%
%TA.AperFunction,ComponentPad*%
%ADD19O,1.600000X1.600000*%
%TD*%
%TA.AperFunction,ViaPad*%
%ADD20C,0.600000*%
%TD*%
%TA.AperFunction,Conductor*%
%ADD21C,3.000000*%
%TD*%
%TA.AperFunction,Conductor*%
%ADD22C,5.000000*%
%TD*%
%TA.AperFunction,Conductor*%
%ADD23C,0.200000*%
%TD*%
%TA.AperFunction,Conductor*%
%ADD24C,2.000000*%
%TD*%
G04 APERTURE END LIST*
D10*
%TO.N,GND*%
%TO.C,J3*%
X127000000Y-160125000D03*
D11*
%TO.N,/5V*%
X127000000Y-157585000D03*
%TO.N,Net-(J3-Pin_3)*%
X127000000Y-155045000D03*
%TD*%
D12*
%TO.N,GND*%
%TO.C,J3_F2_BAT1*%
X69400000Y-170000000D03*
D13*
%TO.N,/11.1*%
X76600000Y-170000000D03*
%TD*%
D12*
%TO.N,GND*%
%TO.C,J4_M0_MOT0*%
X88000000Y-170000000D03*
D13*
%TO.N,/11.1*%
X95200000Y-170000000D03*
%TD*%
D10*
%TO.N,GND*%
%TO.C,TXRX1*%
X92000000Y-146950000D03*
D11*
%TO.N,Net-(RPI02-GPIO14{slash}TXD)*%
X94540000Y-146950000D03*
%TO.N,Net-(RPI02-GPIO15{slash}RXD)*%
X97080000Y-146950000D03*
%TD*%
D10*
%TO.N,GND*%
%TO.C,J1*%
X131000000Y-160100000D03*
D11*
%TO.N,/5V*%
X131000000Y-157560000D03*
%TO.N,Net-(J1-Pin_3)*%
X131000000Y-155020000D03*
%TD*%
D10*
%TO.N,GND*%
%TO.C,J13*%
X113250000Y-148600000D03*
D11*
%TO.N,Net-(J13-Pin_2)*%
X115790000Y-148600000D03*
%TO.N,Net-(J13-Pin_3)*%
X118330000Y-148600000D03*
%TO.N,/5V*%
X120870000Y-148600000D03*
%TD*%
D12*
%TO.N,GND*%
%TO.C,J4_M3_MOT3*%
X143400000Y-170000000D03*
D13*
%TO.N,/11.1*%
X150600000Y-170000000D03*
%TD*%
D10*
%TO.N,/5V*%
%TO.C,J15VBECOUT1*%
X157400000Y-154725000D03*
D11*
X157400000Y-157265000D03*
X157400000Y-159805000D03*
%TD*%
D10*
%TO.N,Net-(RPI02-3V3-Pad1)*%
%TO.C,RPI02*%
X86945000Y-140055000D03*
D11*
%TO.N,/5V*%
X86945000Y-142595000D03*
%TO.N,Net-(RPI02-SDA{slash}GPIO2)*%
X89485000Y-140055000D03*
%TO.N,/5V*%
X89485000Y-142595000D03*
%TO.N,Net-(RPI02-SCL{slash}GPIO3)*%
X92025000Y-140055000D03*
%TO.N,GND*%
X92025000Y-142595000D03*
%TO.N,Net-(RPI02-GCLK0{slash}GPIO4)*%
X94565000Y-140055000D03*
%TO.N,Net-(RPI02-GPIO14{slash}TXD)*%
X94565000Y-142595000D03*
%TO.N,GND*%
X97105000Y-140055000D03*
%TO.N,Net-(RPI02-GPIO15{slash}RXD)*%
X97105000Y-142595000D03*
%TO.N,Net-(RPI02-GPIO17)*%
X99645000Y-140055000D03*
%TO.N,Net-(J7-Pin_3)*%
X99645000Y-142595000D03*
%TO.N,Net-(RPI02-GPIO27)*%
X102185000Y-140055000D03*
%TO.N,GND*%
X102185000Y-142595000D03*
%TO.N,Net-(RPI02-GPIO22)*%
X104725000Y-140055000D03*
%TO.N,Net-(RPI02-GPIO23)*%
X104725000Y-142595000D03*
%TO.N,Net-(RPI02-3V3-Pad1)*%
X107265000Y-140055000D03*
%TO.N,Net-(RPI02-GPIO24)*%
X107265000Y-142595000D03*
%TO.N,Net-(RPI02-MOSI0{slash}GPIO10)*%
X109805000Y-140055000D03*
%TO.N,GND*%
X109805000Y-142595000D03*
%TO.N,Net-(RPI02-MISO0{slash}GPIO9)*%
X112345000Y-140055000D03*
%TO.N,unconnected-(RPI02-GPIO25-Pad22)*%
X112345000Y-142595000D03*
%TO.N,Net-(RPI02-SCLK0{slash}GPIO11)*%
X114885000Y-140055000D03*
%TO.N,Net-(RPI02-~{CE0}{slash}GPIO8)*%
X114885000Y-142595000D03*
%TO.N,GND*%
X117425000Y-140055000D03*
%TO.N,Net-(RPI02-~{CE1}{slash}GPIO7)*%
X117425000Y-142595000D03*
%TO.N,Net-(RPI02-ID_SD{slash}GPIO0)*%
X119965000Y-140055000D03*
%TO.N,Net-(RPI02-ID_SC{slash}GPIO1)*%
X119965000Y-142595000D03*
%TO.N,Net-(J13-Pin_2)*%
X122505000Y-140055000D03*
%TO.N,GND*%
X122505000Y-142595000D03*
%TO.N,Net-(J13-Pin_3)*%
X125045000Y-140055000D03*
%TO.N,Net-(J4-Pin_3)*%
X125045000Y-142595000D03*
%TO.N,Net-(J3-Pin_3)*%
X127585000Y-140055000D03*
%TO.N,GND*%
X127585000Y-142595000D03*
%TO.N,Net-(J1-Pin_3)*%
X130125000Y-140055000D03*
%TO.N,Net-(RPI02-GPIO16)*%
X130125000Y-142595000D03*
%TO.N,Net-(J16-Pin_3)*%
X132665000Y-140055000D03*
%TO.N,Net-(RPI02-GPIO20{slash}MOSI1)*%
X132665000Y-142595000D03*
%TO.N,GND*%
X135205000Y-140055000D03*
%TO.N,Net-(RPI02-GPIO21{slash}SCLK1)*%
X135205000Y-142595000D03*
%TD*%
D10*
%TO.N,GND*%
%TO.C,J14GND1*%
X157450000Y-145660000D03*
D11*
X157450000Y-148200000D03*
X157450000Y-150740000D03*
%TD*%
D10*
%TO.N,GND*%
%TO.C,J4*%
X123000000Y-160125000D03*
D11*
%TO.N,/5V*%
X123000000Y-157585000D03*
%TO.N,Net-(J4-Pin_3)*%
X123000000Y-155045000D03*
%TD*%
D14*
%TO.N,Net-(J10-Pin_4)*%
%TO.C,J9*%
X83650000Y-159800000D03*
D15*
%TO.N,Net-(J10-Pin_3)*%
X81150000Y-159800000D03*
%TO.N,Net-(J10-Pin_2)*%
X78650000Y-159800000D03*
%TO.N,GND*%
X76150000Y-159800000D03*
%TD*%
D16*
%TO.N,GND*%
%TO.C,GND2*%
X68850000Y-141500000D03*
X69552944Y-139802944D03*
X69552944Y-143197056D03*
X71250000Y-139100000D03*
D17*
X71250000Y-141500000D03*
D16*
X71250000Y-143900000D03*
X72947056Y-139802944D03*
X72947056Y-143197056D03*
X73650000Y-141500000D03*
%TD*%
D10*
%TO.N,GND*%
%TO.C,J10*%
X64700000Y-160940000D03*
D11*
%TO.N,Net-(J10-Pin_2)*%
X64700000Y-158400000D03*
%TO.N,Net-(J10-Pin_3)*%
X64700000Y-155860000D03*
%TO.N,Net-(J10-Pin_4)*%
X64700000Y-153320000D03*
%TO.N,unconnected-(J10-Pin_5-Pad5)*%
X64700000Y-150780000D03*
%TO.N,unconnected-(J10-Pin_6-Pad6)*%
X64700000Y-148240000D03*
%TO.N,unconnected-(J10-Pin_7-Pad7)*%
X64700000Y-145700000D03*
%TO.N,unconnected-(J10-Pin_8-Pad8)*%
X64700000Y-143160000D03*
%TO.N,unconnected-(J10-Pin_9-Pad9)*%
X64700000Y-140620000D03*
%TD*%
D16*
%TO.N,GND*%
%TO.C,GND1*%
X149900000Y-141500000D03*
X150602944Y-139802944D03*
X150602944Y-143197056D03*
X152300000Y-139100000D03*
D17*
X152300000Y-141500000D03*
D16*
X152300000Y-143900000D03*
X153997056Y-139802944D03*
X153997056Y-143197056D03*
X154700000Y-141500000D03*
%TD*%
D10*
%TO.N,GND*%
%TO.C,J16*%
X151900000Y-155580000D03*
D11*
%TO.N,/5V*%
X151900000Y-153040000D03*
%TO.N,Net-(J16-Pin_3)*%
X151900000Y-150500000D03*
%TD*%
D12*
%TO.N,GND*%
%TO.C,J4_M2_MOT2*%
X124800000Y-170000000D03*
D13*
%TO.N,/11.1*%
X132000000Y-170000000D03*
%TD*%
D16*
%TO.N,GND*%
%TO.C,GND3*%
X68850000Y-179800000D03*
X69552944Y-178102944D03*
X69552944Y-181497056D03*
X71250000Y-177400000D03*
D17*
X71250000Y-179800000D03*
D16*
X71250000Y-182200000D03*
X72947056Y-178102944D03*
X72947056Y-181497056D03*
X73650000Y-179800000D03*
%TD*%
D10*
%TO.N,GND*%
%TO.C,J7*%
X119000000Y-160140000D03*
D11*
%TO.N,/5V*%
X119000000Y-157600000D03*
%TO.N,Net-(J7-Pin_3)*%
X119000000Y-155060000D03*
%TD*%
D12*
%TO.N,GND*%
%TO.C,J4_M1_MOT1*%
X106400000Y-170000000D03*
D13*
%TO.N,/11.1*%
X113600000Y-170000000D03*
%TD*%
D16*
%TO.N,GND*%
%TO.C,GND4*%
X149900000Y-179800000D03*
X150602944Y-178102944D03*
X150602944Y-181497056D03*
X152300000Y-177400000D03*
D17*
X152300000Y-179800000D03*
D16*
X152300000Y-182200000D03*
X153997056Y-178102944D03*
X153997056Y-181497056D03*
X154700000Y-179800000D03*
%TD*%
D18*
%TO.N,Net-(U3-CH0)*%
%TO.C,U3*%
X70570000Y-154070000D03*
D19*
%TO.N,GND*%
X73110000Y-154070000D03*
%TO.N,Net-(U3-CH2)*%
X75650000Y-154070000D03*
%TO.N,Net-(U3-CH3)*%
X78190000Y-154070000D03*
%TO.N,unconnected-(U3-NC-Pad5)*%
X80730000Y-154070000D03*
%TO.N,unconnected-(U3-NC-Pad6)*%
X83270000Y-154070000D03*
%TO.N,GND*%
X85810000Y-154070000D03*
%TO.N,Net-(RPI02-~{CE0}{slash}GPIO8)*%
X85810000Y-146450000D03*
%TO.N,Net-(RPI02-MOSI0{slash}GPIO10)*%
X83270000Y-146450000D03*
%TO.N,Net-(RPI02-MISO0{slash}GPIO9)*%
X80730000Y-146450000D03*
%TO.N,Net-(RPI02-SCLK0{slash}GPIO11)*%
X78190000Y-146450000D03*
%TO.N,GND*%
X75650000Y-146450000D03*
%TO.N,/5V*%
X73110000Y-146450000D03*
X70570000Y-146450000D03*
%TD*%
D20*
%TO.N,/5V*%
X155750000Y-139200000D03*
%TO.N,GND*%
X113450000Y-163600000D03*
X156200000Y-141000000D03*
X66200000Y-182600000D03*
X87900000Y-163600000D03*
X98470000Y-155375000D03*
X105000000Y-156000000D03*
X91170000Y-154975000D03*
X156200000Y-182600000D03*
X131800000Y-163600000D03*
X90988235Y-157011765D03*
X106350000Y-163600000D03*
X64500000Y-163600000D03*
X133012500Y-158518750D03*
X69250000Y-163600000D03*
X151900000Y-159100000D03*
X108670000Y-154475000D03*
X124850000Y-163600000D03*
X76500000Y-163600000D03*
X156200000Y-137800000D03*
X95000000Y-163600000D03*
X143350000Y-163600000D03*
X158800000Y-163600000D03*
X150450000Y-163600000D03*
%TO.N,Net-(RPI02-GPIO21{slash}SCLK1)*%
X143200000Y-145600000D03*
X145300000Y-143400000D03*
%TO.N,/5V*%
X64000000Y-162400000D03*
X63900000Y-164800000D03*
X157600000Y-162050000D03*
X158650000Y-164900000D03*
%TO.N,Net-(RPI02-GPIO20{slash}MOSI1)*%
X144500000Y-146200000D03*
X146900000Y-143800000D03*
%TO.N,Net-(RPI02-GPIO16)*%
X155900000Y-144500000D03*
X153800000Y-147300000D03*
%TO.N,Net-(RPI02-SCL{slash}GPIO3)*%
X97000000Y-152600000D03*
X100175735Y-153775735D03*
%TO.N,Net-(RPI02-SDA{slash}GPIO2)*%
X100465419Y-153030023D03*
X96200000Y-152000000D03*
%TO.N,Net-(J16-Pin_3)*%
X140100000Y-147200000D03*
X138200000Y-145200000D03*
%TO.N,Net-(RPI02-~{CE0}{slash}GPIO8)*%
X107887705Y-145331842D03*
X89600000Y-145550000D03*
%TO.N,Net-(RPI02-SCLK0{slash}GPIO11)*%
X92109025Y-150157555D03*
X102014999Y-150275500D03*
%TO.N,Net-(RPI02-MOSI0{slash}GPIO10)*%
X102086765Y-148621765D03*
X90900735Y-148949265D03*
%TO.N,Net-(J10-Pin_2)*%
X70600000Y-158500000D03*
%TO.N,Net-(J10-Pin_4)*%
X68050000Y-153300000D03*
%TO.N,Net-(J10-Pin_3)*%
X68950735Y-155849265D03*
%TO.N,Net-(RPI02-MISO0{slash}GPIO9)*%
X91466422Y-149549265D03*
X102046375Y-149476113D03*
%TO.N,Net-(U3-CH3)*%
X101172132Y-153420000D03*
X97600000Y-153400000D03*
%TO.N,Net-(J7-Pin_3)*%
X103269265Y-152769265D03*
X99525000Y-150779416D03*
%TD*%
D21*
%TO.N,GND*%
X150500000Y-181600000D02*
X149800000Y-181600000D01*
X152300000Y-179800000D02*
X150500000Y-181600000D01*
X154700000Y-177400000D02*
X154750000Y-177400000D01*
X152300000Y-179800000D02*
X154700000Y-177400000D01*
X149900000Y-177400000D02*
X149850000Y-177400000D01*
X152300000Y-179800000D02*
X149900000Y-177400000D01*
X73050000Y-181600000D02*
X73850000Y-181600000D01*
X71250000Y-179800000D02*
X73050000Y-181600000D01*
X73600000Y-177450000D02*
X73600000Y-177300000D01*
X71250000Y-179800000D02*
X73600000Y-177450000D01*
X68800000Y-177350000D02*
X68800000Y-177300000D01*
X71250000Y-179800000D02*
X68800000Y-177350000D01*
D22*
X69400000Y-170000000D02*
X69400000Y-173200000D01*
D23*
X64500000Y-163600000D02*
X64500000Y-164100000D01*
X95000000Y-163600000D02*
X95000000Y-162950000D01*
X87900000Y-163600000D02*
X87900000Y-162950000D01*
D24*
X106400000Y-173200000D02*
X106350000Y-173250000D01*
D23*
X64500000Y-163600000D02*
X64500000Y-163150000D01*
D24*
X103100000Y-170000000D02*
X103000000Y-169900000D01*
D23*
X131800000Y-163600000D02*
X131800000Y-163000000D01*
D22*
X69400000Y-170000000D02*
X66200000Y-170000000D01*
X69400000Y-173200000D02*
X69350000Y-173250000D01*
D24*
X143400000Y-170000000D02*
X140100000Y-170000000D01*
D23*
X64500000Y-164100000D02*
X64700000Y-164300000D01*
D24*
X88000000Y-170000000D02*
X88000000Y-173250000D01*
D23*
X106350000Y-163600000D02*
X106350000Y-164250000D01*
D24*
X143400000Y-170000000D02*
X143400000Y-173400000D01*
D23*
X69250000Y-163600000D02*
X69250000Y-162950000D01*
X143350000Y-163600000D02*
X143350000Y-163000000D01*
D24*
X106400000Y-170000000D02*
X106400000Y-167000000D01*
D23*
X113450000Y-163600000D02*
X113450000Y-162950000D01*
X158800000Y-163600000D02*
X158800000Y-162950000D01*
D24*
X106400000Y-167000000D02*
X106450000Y-166950000D01*
D23*
X131800000Y-163600000D02*
X131800000Y-164250000D01*
X150450000Y-163600000D02*
X150450000Y-162950000D01*
D22*
X66200000Y-170000000D02*
X66150000Y-169950000D01*
D23*
X76500000Y-163600000D02*
X76500000Y-162950000D01*
D24*
X88000000Y-166800000D02*
X87950000Y-166750000D01*
D23*
X95000000Y-163600000D02*
X95000000Y-164250000D01*
X106350000Y-163600000D02*
X106350000Y-163000000D01*
X113450000Y-163600000D02*
X113450000Y-164250000D01*
X64500000Y-163150000D02*
X64750000Y-162900000D01*
X87900000Y-163600000D02*
X87900000Y-164250000D01*
D24*
X121650000Y-170000000D02*
X121600000Y-170050000D01*
D22*
X69400000Y-170000000D02*
X69400000Y-167500000D01*
D24*
X124800000Y-170000000D02*
X124800000Y-166850000D01*
D23*
X124850000Y-163600000D02*
X124850000Y-164250000D01*
D24*
X88000000Y-170000000D02*
X88000000Y-166800000D01*
D23*
X76500000Y-163600000D02*
X76500000Y-164250000D01*
X143350000Y-163600000D02*
X143350000Y-164200000D01*
D24*
X124800000Y-170000000D02*
X121650000Y-170000000D01*
D23*
X158800000Y-163600000D02*
X158000000Y-164400000D01*
D24*
X88000000Y-170000000D02*
X84900000Y-170000000D01*
X143400000Y-170000000D02*
X143400000Y-166800000D01*
X143400000Y-166800000D02*
X143350000Y-166750000D01*
X124800000Y-170000000D02*
X124800000Y-173350000D01*
D23*
X158000000Y-164400000D02*
X157900000Y-164400000D01*
D24*
X106400000Y-170000000D02*
X103100000Y-170000000D01*
D23*
X124850000Y-163600000D02*
X124850000Y-163000000D01*
D24*
X106400000Y-170000000D02*
X106400000Y-173200000D01*
D23*
X69250000Y-163600000D02*
X69250000Y-164250000D01*
X150450000Y-163600000D02*
X150450000Y-164200000D01*
%TD*%
%TA.AperFunction,Conductor*%
%TO.N,GND*%
G36*
X157987425Y-164219685D02*
G01*
X158033180Y-164272489D01*
X158043124Y-164341647D01*
X158021954Y-164390626D01*
X158023889Y-164391842D01*
X157924211Y-164550476D01*
X157864631Y-164720745D01*
X157864630Y-164720750D01*
X157844435Y-164899996D01*
X157844435Y-164900003D01*
X157864630Y-165079249D01*
X157864631Y-165079254D01*
X157924211Y-165249523D01*
X158020184Y-165402262D01*
X158147738Y-165529816D01*
X158300478Y-165625789D01*
X158365457Y-165648526D01*
X158470745Y-165685368D01*
X158470750Y-165685369D01*
X158649996Y-165705565D01*
X158650000Y-165705565D01*
X158650004Y-165705565D01*
X158829249Y-165685369D01*
X158829251Y-165685368D01*
X158829255Y-165685368D01*
X158829258Y-165685366D01*
X158829262Y-165685366D01*
X158934545Y-165648526D01*
X159004324Y-165644964D01*
X159064951Y-165679692D01*
X159097179Y-165741686D01*
X159099500Y-165765567D01*
X159099500Y-182975500D01*
X159079815Y-183042539D01*
X159027011Y-183088294D01*
X158975500Y-183099500D01*
X154431324Y-183099500D01*
X154364285Y-183079815D01*
X154318530Y-183027011D01*
X154308586Y-182957853D01*
X154337611Y-182894297D01*
X154363789Y-182871505D01*
X154477771Y-182797483D01*
X154477784Y-182797474D01*
X154735348Y-182588902D01*
X153240698Y-181094252D01*
X153342330Y-181020412D01*
X153520412Y-180842330D01*
X153594252Y-180740698D01*
X155088902Y-182235348D01*
X155297474Y-181977784D01*
X155297484Y-181977771D01*
X155508689Y-181652543D01*
X155684755Y-181306994D01*
X155823737Y-180944936D01*
X155924112Y-180570330D01*
X155924113Y-180570323D01*
X155984780Y-180187287D01*
X156005078Y-179800000D01*
X156005078Y-179799999D01*
X155984780Y-179412712D01*
X155924113Y-179029676D01*
X155924112Y-179029669D01*
X155823737Y-178655063D01*
X155684755Y-178293005D01*
X155508689Y-177947456D01*
X155297476Y-177622216D01*
X155297475Y-177622214D01*
X155088902Y-177364650D01*
X153594251Y-178859301D01*
X153520412Y-178757670D01*
X153342330Y-178579588D01*
X153240698Y-178505748D01*
X154735349Y-177011096D01*
X154477785Y-176802525D01*
X154477783Y-176802523D01*
X154152543Y-176591310D01*
X153806994Y-176415244D01*
X153444936Y-176276262D01*
X153070330Y-176175887D01*
X153070323Y-176175886D01*
X152687287Y-176115219D01*
X152300001Y-176094922D01*
X152299999Y-176094922D01*
X151912712Y-176115219D01*
X151529676Y-176175886D01*
X151529669Y-176175887D01*
X151155063Y-176276262D01*
X150793005Y-176415244D01*
X150447456Y-176591310D01*
X150122206Y-176802531D01*
X149864649Y-177011095D01*
X149864649Y-177011096D01*
X151359301Y-178505748D01*
X151257670Y-178579588D01*
X151079588Y-178757670D01*
X151005748Y-178859301D01*
X149511096Y-177364649D01*
X149511095Y-177364649D01*
X149302531Y-177622206D01*
X149091310Y-177947456D01*
X148915244Y-178293005D01*
X148776262Y-178655063D01*
X148675887Y-179029669D01*
X148675886Y-179029676D01*
X148615219Y-179412712D01*
X148594922Y-179799999D01*
X148594922Y-179800000D01*
X148615219Y-180187287D01*
X148675886Y-180570323D01*
X148675887Y-180570330D01*
X148776262Y-180944936D01*
X148915244Y-181306994D01*
X149091310Y-181652543D01*
X149302523Y-181977783D01*
X149302525Y-181977785D01*
X149511096Y-182235348D01*
X151005747Y-180740697D01*
X151079588Y-180842330D01*
X151257670Y-181020412D01*
X151359301Y-181094251D01*
X149864650Y-182588902D01*
X150122214Y-182797475D01*
X150122216Y-182797476D01*
X150236211Y-182871505D01*
X150281714Y-182924526D01*
X150291328Y-182993731D01*
X150262001Y-183057148D01*
X150203044Y-183094642D01*
X150168676Y-183099500D01*
X73381324Y-183099500D01*
X73314285Y-183079815D01*
X73268530Y-183027011D01*
X73258586Y-182957853D01*
X73287611Y-182894297D01*
X73313789Y-182871505D01*
X73427771Y-182797483D01*
X73427784Y-182797474D01*
X73685348Y-182588902D01*
X72190698Y-181094252D01*
X72292330Y-181020412D01*
X72470412Y-180842330D01*
X72544252Y-180740698D01*
X74038902Y-182235348D01*
X74247474Y-181977784D01*
X74247484Y-181977771D01*
X74458689Y-181652543D01*
X74634755Y-181306994D01*
X74773737Y-180944936D01*
X74874112Y-180570330D01*
X74874113Y-180570323D01*
X74934780Y-180187287D01*
X74955078Y-179800000D01*
X74955078Y-179799999D01*
X74934780Y-179412712D01*
X74874113Y-179029676D01*
X74874112Y-179029669D01*
X74773737Y-178655063D01*
X74634755Y-178293005D01*
X74458689Y-177947456D01*
X74247476Y-177622216D01*
X74247475Y-177622214D01*
X74038902Y-177364650D01*
X72544251Y-178859301D01*
X72470412Y-178757670D01*
X72292330Y-178579588D01*
X72190698Y-178505748D01*
X73685349Y-177011096D01*
X73427785Y-176802525D01*
X73427783Y-176802523D01*
X73102543Y-176591310D01*
X72756994Y-176415244D01*
X72394936Y-176276262D01*
X72020330Y-176175887D01*
X72020323Y-176175886D01*
X71637287Y-176115219D01*
X71250001Y-176094922D01*
X71249999Y-176094922D01*
X70862712Y-176115219D01*
X70479676Y-176175886D01*
X70479669Y-176175887D01*
X70105063Y-176276262D01*
X69743005Y-176415244D01*
X69397456Y-176591310D01*
X69072206Y-176802531D01*
X68814649Y-177011095D01*
X68814649Y-177011096D01*
X70309301Y-178505748D01*
X70207670Y-178579588D01*
X70029588Y-178757670D01*
X69955748Y-178859301D01*
X68461096Y-177364649D01*
X68461095Y-177364649D01*
X68252531Y-177622206D01*
X68041310Y-177947456D01*
X67865244Y-178293005D01*
X67726262Y-178655063D01*
X67625887Y-179029669D01*
X67625886Y-179029676D01*
X67565219Y-179412712D01*
X67544922Y-179799999D01*
X67544922Y-179800000D01*
X67565219Y-180187287D01*
X67625886Y-180570323D01*
X67625887Y-180570330D01*
X67726262Y-180944936D01*
X67865244Y-181306994D01*
X68041310Y-181652543D01*
X68252523Y-181977783D01*
X68252525Y-181977785D01*
X68461096Y-182235348D01*
X69955747Y-180740697D01*
X70029588Y-180842330D01*
X70207670Y-181020412D01*
X70309301Y-181094251D01*
X68814650Y-182588902D01*
X69072214Y-182797475D01*
X69072216Y-182797476D01*
X69186211Y-182871505D01*
X69231714Y-182924526D01*
X69241328Y-182993731D01*
X69212001Y-183057148D01*
X69153044Y-183094642D01*
X69118676Y-183099500D01*
X63424500Y-183099500D01*
X63357461Y-183079815D01*
X63311706Y-183027011D01*
X63300500Y-182975500D01*
X63300500Y-168428563D01*
X65900000Y-168428563D01*
X65900000Y-169750000D01*
X67163498Y-169750000D01*
X67150000Y-169852527D01*
X67150000Y-170147473D01*
X67163498Y-170250000D01*
X65900000Y-170250000D01*
X65900000Y-171571436D01*
X65915300Y-171785362D01*
X65976109Y-172064895D01*
X66076091Y-172332958D01*
X66213191Y-172584038D01*
X66213192Y-172584039D01*
X66384639Y-172813065D01*
X66384649Y-172813077D01*
X66586922Y-173015350D01*
X66586934Y-173015360D01*
X66815960Y-173186807D01*
X66815961Y-173186808D01*
X67067042Y-173323908D01*
X67067041Y-173323908D01*
X67335104Y-173423890D01*
X67614637Y-173484699D01*
X67828563Y-173499999D01*
X67828566Y-173500000D01*
X69150000Y-173500000D01*
X69150000Y-172236502D01*
X69252527Y-172250000D01*
X69547473Y-172250000D01*
X69650000Y-172236502D01*
X69650000Y-173500000D01*
X70971434Y-173500000D01*
X70971436Y-173499999D01*
X71185362Y-173484699D01*
X71464895Y-173423890D01*
X71732958Y-173323908D01*
X71984038Y-173186808D01*
X71984039Y-173186807D01*
X72213065Y-173015360D01*
X72213077Y-173015350D01*
X72415350Y-172813077D01*
X72415360Y-172813065D01*
X72586807Y-172584039D01*
X72586808Y-172584038D01*
X72723908Y-172332958D01*
X72823890Y-172064895D01*
X72884699Y-171785362D01*
X72899999Y-171571436D01*
X72900000Y-171571434D01*
X72900000Y-170591472D01*
X72919685Y-170524433D01*
X72972489Y-170478678D01*
X73041647Y-170468734D01*
X73105203Y-170497759D01*
X73142977Y-170556537D01*
X73146473Y-170572074D01*
X73171294Y-170728788D01*
X73171294Y-170728790D01*
X73266260Y-171083206D01*
X73397746Y-171425739D01*
X73564320Y-171752656D01*
X73764147Y-172060364D01*
X73917712Y-172250000D01*
X73995051Y-172345506D01*
X74254494Y-172604949D01*
X74254498Y-172604952D01*
X74539635Y-172835852D01*
X74847343Y-173035679D01*
X74847348Y-173035682D01*
X75174264Y-173202255D01*
X75516801Y-173333742D01*
X75871206Y-173428705D01*
X76233596Y-173486102D01*
X76579734Y-173504241D01*
X76599999Y-173505304D01*
X76600000Y-173505304D01*
X76600001Y-173505304D01*
X76619203Y-173504297D01*
X76966404Y-173486102D01*
X77328794Y-173428705D01*
X77683199Y-173333742D01*
X78025736Y-173202255D01*
X78352652Y-173035682D01*
X78660366Y-172835851D01*
X78945506Y-172604949D01*
X79204949Y-172345506D01*
X79435851Y-172060366D01*
X79635682Y-171752652D01*
X79802255Y-171425736D01*
X79933742Y-171083199D01*
X80028705Y-170728794D01*
X80086102Y-170366404D01*
X80105304Y-170000000D01*
X80086102Y-169633596D01*
X80028705Y-169271206D01*
X79933742Y-168916801D01*
X79802255Y-168574264D01*
X79728016Y-168428563D01*
X84500000Y-168428563D01*
X84500000Y-169750000D01*
X85763498Y-169750000D01*
X85750000Y-169852527D01*
X85750000Y-170147473D01*
X85763498Y-170250000D01*
X84500000Y-170250000D01*
X84500000Y-171571436D01*
X84515300Y-171785362D01*
X84576109Y-172064895D01*
X84676091Y-172332958D01*
X84813191Y-172584038D01*
X84813192Y-172584039D01*
X84984639Y-172813065D01*
X84984649Y-172813077D01*
X85186922Y-173015350D01*
X85186934Y-173015360D01*
X85415960Y-173186807D01*
X85415961Y-173186808D01*
X85667042Y-173323908D01*
X85667041Y-173323908D01*
X85935104Y-173423890D01*
X86214637Y-173484699D01*
X86428563Y-173499999D01*
X86428566Y-173500000D01*
X87750000Y-173500000D01*
X87750000Y-172236502D01*
X87852527Y-172250000D01*
X88147473Y-172250000D01*
X88250000Y-172236502D01*
X88250000Y-173500000D01*
X89571434Y-173500000D01*
X89571436Y-173499999D01*
X89785362Y-173484699D01*
X90064895Y-173423890D01*
X90332958Y-173323908D01*
X90584038Y-173186808D01*
X90584039Y-173186807D01*
X90813065Y-173015360D01*
X90813077Y-173015350D01*
X91015350Y-172813077D01*
X91015360Y-172813065D01*
X91186807Y-172584039D01*
X91186808Y-172584038D01*
X91323908Y-172332958D01*
X91423890Y-172064895D01*
X91484699Y-171785362D01*
X91499999Y-171571436D01*
X91500000Y-171571434D01*
X91500000Y-170591472D01*
X91519685Y-170524433D01*
X91572489Y-170478678D01*
X91641647Y-170468734D01*
X91705203Y-170497759D01*
X91742977Y-170556537D01*
X91746473Y-170572074D01*
X91771294Y-170728788D01*
X91771294Y-170728790D01*
X91866260Y-171083206D01*
X91997746Y-171425739D01*
X92164320Y-171752656D01*
X92364147Y-172060364D01*
X92517712Y-172250000D01*
X92595051Y-172345506D01*
X92854494Y-172604949D01*
X92854498Y-172604952D01*
X93139635Y-172835852D01*
X93447343Y-173035679D01*
X93447348Y-173035682D01*
X93774264Y-173202255D01*
X94116801Y-173333742D01*
X94471206Y-173428705D01*
X94833596Y-173486102D01*
X95179734Y-173504241D01*
X95199999Y-173505304D01*
X95200000Y-173505304D01*
X95200001Y-173505304D01*
X95219203Y-173504297D01*
X95566404Y-173486102D01*
X95928794Y-173428705D01*
X96283199Y-173333742D01*
X96625736Y-173202255D01*
X96952652Y-173035682D01*
X97260366Y-172835851D01*
X97545506Y-172604949D01*
X97804949Y-172345506D01*
X98035851Y-172060366D01*
X98235682Y-171752652D01*
X98402255Y-171425736D01*
X98533742Y-171083199D01*
X98628705Y-170728794D01*
X98686102Y-170366404D01*
X98705304Y-170000000D01*
X98686102Y-169633596D01*
X98628705Y-169271206D01*
X98533742Y-168916801D01*
X98402255Y-168574264D01*
X98328016Y-168428563D01*
X102900000Y-168428563D01*
X102900000Y-169750000D01*
X104163498Y-169750000D01*
X104150000Y-169852527D01*
X104150000Y-170147473D01*
X104163498Y-170250000D01*
X102900000Y-170250000D01*
X102900000Y-171571436D01*
X102915300Y-171785362D01*
X102976109Y-172064895D01*
X103076091Y-172332958D01*
X103213191Y-172584038D01*
X103213192Y-172584039D01*
X103384639Y-172813065D01*
X103384649Y-172813077D01*
X103586922Y-173015350D01*
X103586934Y-173015360D01*
X103815960Y-173186807D01*
X103815961Y-173186808D01*
X104067042Y-173323908D01*
X104067041Y-173323908D01*
X104335104Y-173423890D01*
X104614637Y-173484699D01*
X104828563Y-173499999D01*
X104828566Y-173500000D01*
X106150000Y-173500000D01*
X106150000Y-172236502D01*
X106252527Y-172250000D01*
X106547473Y-172250000D01*
X106650000Y-172236502D01*
X106650000Y-173500000D01*
X107971434Y-173500000D01*
X107971436Y-173499999D01*
X108185362Y-173484699D01*
X108464895Y-173423890D01*
X108732958Y-173323908D01*
X108984038Y-173186808D01*
X108984039Y-173186807D01*
X109213065Y-173015360D01*
X109213077Y-173015350D01*
X109415350Y-172813077D01*
X109415360Y-172813065D01*
X109586807Y-172584039D01*
X109586808Y-172584038D01*
X109723908Y-172332958D01*
X109823890Y-172064895D01*
X109884699Y-171785362D01*
X109899999Y-171571436D01*
X109900000Y-171571434D01*
X109900000Y-170591472D01*
X109919685Y-170524433D01*
X109972489Y-170478678D01*
X110041647Y-170468734D01*
X110105203Y-170497759D01*
X110142977Y-170556537D01*
X110146473Y-170572074D01*
X110171294Y-170728788D01*
X110171294Y-170728790D01*
X110266260Y-171083206D01*
X110397746Y-171425739D01*
X110564320Y-171752656D01*
X110764147Y-172060364D01*
X110917712Y-172250000D01*
X110995051Y-172345506D01*
X111254494Y-172604949D01*
X111254498Y-172604952D01*
X111539635Y-172835852D01*
X111847343Y-173035679D01*
X111847348Y-173035682D01*
X112174264Y-173202255D01*
X112516801Y-173333742D01*
X112871206Y-173428705D01*
X113233596Y-173486102D01*
X113579734Y-173504241D01*
X113599999Y-173505304D01*
X113600000Y-173505304D01*
X113600001Y-173505304D01*
X113619203Y-173504297D01*
X113966404Y-173486102D01*
X114328794Y-173428705D01*
X114683199Y-173333742D01*
X115025736Y-173202255D01*
X115352652Y-173035682D01*
X115660366Y-172835851D01*
X115945506Y-172604949D01*
X116204949Y-172345506D01*
X116435851Y-172060366D01*
X116635682Y-171752652D01*
X116802255Y-171425736D01*
X116933742Y-171083199D01*
X117028705Y-170728794D01*
X117086102Y-170366404D01*
X117105304Y-170000000D01*
X117086102Y-169633596D01*
X117028705Y-169271206D01*
X116933742Y-168916801D01*
X116802255Y-168574264D01*
X116728016Y-168428563D01*
X121300000Y-168428563D01*
X121300000Y-169750000D01*
X122563498Y-169750000D01*
X122550000Y-169852527D01*
X122550000Y-170147473D01*
X122563498Y-170250000D01*
X121300000Y-170250000D01*
X121300000Y-171571436D01*
X121315300Y-171785362D01*
X121376109Y-172064895D01*
X121476091Y-172332958D01*
X121613191Y-172584038D01*
X121613192Y-172584039D01*
X121784639Y-172813065D01*
X121784649Y-172813077D01*
X121986922Y-173015350D01*
X121986934Y-173015360D01*
X122215960Y-173186807D01*
X122215961Y-173186808D01*
X122467042Y-173323908D01*
X122467041Y-173323908D01*
X122735104Y-173423890D01*
X123014637Y-173484699D01*
X123228563Y-173499999D01*
X123228566Y-173500000D01*
X124550000Y-173500000D01*
X124550000Y-172236502D01*
X124652527Y-172250000D01*
X124947473Y-172250000D01*
X125050000Y-172236502D01*
X125050000Y-173500000D01*
X126371434Y-173500000D01*
X126371436Y-173499999D01*
X126585362Y-173484699D01*
X126864895Y-173423890D01*
X127132958Y-173323908D01*
X127384038Y-173186808D01*
X127384039Y-173186807D01*
X127613065Y-173015360D01*
X127613077Y-173015350D01*
X127815350Y-172813077D01*
X127815360Y-172813065D01*
X127986807Y-172584039D01*
X127986808Y-172584038D01*
X128123908Y-172332958D01*
X128223890Y-172064895D01*
X128284699Y-171785362D01*
X128299999Y-171571436D01*
X128300000Y-171571434D01*
X128300000Y-170591472D01*
X128319685Y-170524433D01*
X128372489Y-170478678D01*
X128441647Y-170468734D01*
X128505203Y-170497759D01*
X128542977Y-170556537D01*
X128546473Y-170572074D01*
X128571294Y-170728788D01*
X128571294Y-170728790D01*
X128666260Y-171083206D01*
X128797746Y-171425739D01*
X128964320Y-171752656D01*
X129164147Y-172060364D01*
X129317712Y-172250000D01*
X129395051Y-172345506D01*
X129654494Y-172604949D01*
X129654498Y-172604952D01*
X129939635Y-172835852D01*
X130247343Y-173035679D01*
X130247348Y-173035682D01*
X130574264Y-173202255D01*
X130916801Y-173333742D01*
X131271206Y-173428705D01*
X131633596Y-173486102D01*
X131979734Y-173504241D01*
X131999999Y-173505304D01*
X132000000Y-173505304D01*
X132000001Y-173505304D01*
X132019203Y-173504297D01*
X132366404Y-173486102D01*
X132728794Y-173428705D01*
X133083199Y-173333742D01*
X133425736Y-173202255D01*
X133752652Y-173035682D01*
X134060366Y-172835851D01*
X134345506Y-172604949D01*
X134604949Y-172345506D01*
X134835851Y-172060366D01*
X135035682Y-171752652D01*
X135202255Y-171425736D01*
X135333742Y-171083199D01*
X135428705Y-170728794D01*
X135486102Y-170366404D01*
X135505304Y-170000000D01*
X135486102Y-169633596D01*
X135428705Y-169271206D01*
X135333742Y-168916801D01*
X135202255Y-168574264D01*
X135128016Y-168428563D01*
X139900000Y-168428563D01*
X139900000Y-169750000D01*
X141163498Y-169750000D01*
X141150000Y-169852527D01*
X141150000Y-170147473D01*
X141163498Y-170250000D01*
X139900000Y-170250000D01*
X139900000Y-171571436D01*
X139915300Y-171785362D01*
X139976109Y-172064895D01*
X140076091Y-172332958D01*
X140213191Y-172584038D01*
X140213192Y-172584039D01*
X140384639Y-172813065D01*
X140384649Y-172813077D01*
X140586922Y-173015350D01*
X140586934Y-173015360D01*
X140815960Y-173186807D01*
X140815961Y-173186808D01*
X141067042Y-173323908D01*
X141067041Y-173323908D01*
X141335104Y-173423890D01*
X141614637Y-173484699D01*
X141828563Y-173499999D01*
X141828566Y-173500000D01*
X143150000Y-173500000D01*
X143150000Y-172236502D01*
X143252527Y-172250000D01*
X143547473Y-172250000D01*
X143650000Y-172236502D01*
X143650000Y-173500000D01*
X144971434Y-173500000D01*
X144971436Y-173499999D01*
X145185362Y-173484699D01*
X145464895Y-173423890D01*
X145732958Y-173323908D01*
X145984038Y-173186808D01*
X145984039Y-173186807D01*
X146213065Y-173015360D01*
X146213077Y-173015350D01*
X146415350Y-172813077D01*
X146415360Y-172813065D01*
X146586807Y-172584039D01*
X146586808Y-172584038D01*
X146723908Y-172332958D01*
X146823890Y-172064895D01*
X146884699Y-171785362D01*
X146899999Y-171571436D01*
X146900000Y-171571434D01*
X146900000Y-170591472D01*
X146919685Y-170524433D01*
X146972489Y-170478678D01*
X147041647Y-170468734D01*
X147105203Y-170497759D01*
X147142977Y-170556537D01*
X147146473Y-170572074D01*
X147171294Y-170728788D01*
X147171294Y-170728790D01*
X147266260Y-171083206D01*
X147397746Y-171425739D01*
X147564320Y-171752656D01*
X147764147Y-172060364D01*
X147917712Y-172250000D01*
X147995051Y-172345506D01*
X148254494Y-172604949D01*
X148254498Y-172604952D01*
X148539635Y-172835852D01*
X148847343Y-173035679D01*
X148847348Y-173035682D01*
X149174264Y-173202255D01*
X149516801Y-173333742D01*
X149871206Y-173428705D01*
X150233596Y-173486102D01*
X150579734Y-173504241D01*
X150599999Y-173505304D01*
X150600000Y-173505304D01*
X150600001Y-173505304D01*
X150619203Y-173504297D01*
X150966404Y-173486102D01*
X151328794Y-173428705D01*
X151683199Y-173333742D01*
X152025736Y-173202255D01*
X152352652Y-173035682D01*
X152660366Y-172835851D01*
X152945506Y-172604949D01*
X153204949Y-172345506D01*
X153435851Y-172060366D01*
X153635682Y-171752652D01*
X153802255Y-171425736D01*
X153933742Y-171083199D01*
X154028705Y-170728794D01*
X154086102Y-170366404D01*
X154105304Y-170000000D01*
X154086102Y-169633596D01*
X154028705Y-169271206D01*
X153933742Y-168916801D01*
X153802255Y-168574264D01*
X153635682Y-168247348D01*
X153635679Y-168247343D01*
X153435852Y-167939635D01*
X153204952Y-167654498D01*
X153204949Y-167654494D01*
X152945506Y-167395051D01*
X152913010Y-167368736D01*
X152660364Y-167164147D01*
X152352656Y-166964320D01*
X152025739Y-166797746D01*
X151683206Y-166666260D01*
X151683199Y-166666258D01*
X151328794Y-166571295D01*
X151328790Y-166571294D01*
X151328789Y-166571294D01*
X150966405Y-166513898D01*
X150600001Y-166494696D01*
X150599999Y-166494696D01*
X150233594Y-166513898D01*
X149871211Y-166571294D01*
X149871209Y-166571294D01*
X149516793Y-166666260D01*
X149174260Y-166797746D01*
X148847343Y-166964320D01*
X148539635Y-167164147D01*
X148254498Y-167395047D01*
X148254490Y-167395054D01*
X147995054Y-167654490D01*
X147995047Y-167654498D01*
X147764147Y-167939635D01*
X147564320Y-168247343D01*
X147397746Y-168574260D01*
X147266260Y-168916793D01*
X147171294Y-169271209D01*
X147171294Y-169271211D01*
X147146473Y-169427925D01*
X147116544Y-169491060D01*
X147057232Y-169527991D01*
X146987370Y-169526993D01*
X146929137Y-169488383D01*
X146901023Y-169424419D01*
X146900000Y-169408527D01*
X146900000Y-168428566D01*
X146899999Y-168428563D01*
X146884699Y-168214637D01*
X146823890Y-167935104D01*
X146723908Y-167667041D01*
X146586808Y-167415961D01*
X146586807Y-167415960D01*
X146415360Y-167186934D01*
X146415350Y-167186922D01*
X146213077Y-166984649D01*
X146213065Y-166984639D01*
X145984039Y-166813192D01*
X145984038Y-166813191D01*
X145732957Y-166676091D01*
X145732958Y-166676091D01*
X145464895Y-166576109D01*
X145185362Y-166515300D01*
X144971436Y-166500000D01*
X143650000Y-166500000D01*
X143650000Y-167763497D01*
X143547473Y-167750000D01*
X143252527Y-167750000D01*
X143150000Y-167763497D01*
X143150000Y-166500000D01*
X141828563Y-166500000D01*
X141614637Y-166515300D01*
X141335104Y-166576109D01*
X141067041Y-166676091D01*
X140815961Y-166813191D01*
X140815960Y-166813192D01*
X140586934Y-166984639D01*
X140586922Y-166984649D01*
X140384649Y-167186922D01*
X140384639Y-167186934D01*
X140213192Y-167415960D01*
X140213191Y-167415961D01*
X140076091Y-167667041D01*
X139976109Y-167935104D01*
X139915300Y-168214637D01*
X139900000Y-168428563D01*
X135128016Y-168428563D01*
X135035682Y-168247348D01*
X135035679Y-168247343D01*
X134835852Y-167939635D01*
X134604952Y-167654498D01*
X134604949Y-167654494D01*
X134345506Y-167395051D01*
X134313010Y-167368736D01*
X134060364Y-167164147D01*
X133752656Y-166964320D01*
X133425739Y-166797746D01*
X133083206Y-166666260D01*
X133083199Y-166666258D01*
X132728794Y-166571295D01*
X132728790Y-166571294D01*
X132728789Y-166571294D01*
X132366405Y-166513898D01*
X132000001Y-166494696D01*
X131999999Y-166494696D01*
X131633594Y-166513898D01*
X131271211Y-166571294D01*
X131271209Y-166571294D01*
X130916793Y-166666260D01*
X130574260Y-166797746D01*
X130247343Y-166964320D01*
X129939635Y-167164147D01*
X129654498Y-167395047D01*
X129654490Y-167395054D01*
X129395054Y-167654490D01*
X129395047Y-167654498D01*
X129164147Y-167939635D01*
X128964320Y-168247343D01*
X128797746Y-168574260D01*
X128666260Y-168916793D01*
X128571294Y-169271209D01*
X128571294Y-169271211D01*
X128546473Y-169427925D01*
X128516544Y-169491060D01*
X128457232Y-169527991D01*
X128387370Y-169526993D01*
X128329137Y-169488383D01*
X128301023Y-169424419D01*
X128300000Y-169408527D01*
X128300000Y-168428566D01*
X128299999Y-168428563D01*
X128284699Y-168214637D01*
X128223890Y-167935104D01*
X128123908Y-167667041D01*
X127986808Y-167415961D01*
X127986807Y-167415960D01*
X127815360Y-167186934D01*
X127815350Y-167186922D01*
X127613077Y-166984649D01*
X127613065Y-166984639D01*
X127384039Y-166813192D01*
X127384038Y-166813191D01*
X127132957Y-166676091D01*
X127132958Y-166676091D01*
X126864895Y-166576109D01*
X126585362Y-166515300D01*
X126371436Y-166500000D01*
X125050000Y-166500000D01*
X125050000Y-167763497D01*
X124947473Y-167750000D01*
X124652527Y-167750000D01*
X124550000Y-167763497D01*
X124550000Y-166500000D01*
X123228563Y-166500000D01*
X123014637Y-166515300D01*
X122735104Y-166576109D01*
X122467041Y-166676091D01*
X122215961Y-166813191D01*
X122215960Y-166813192D01*
X121986934Y-166984639D01*
X121986922Y-166984649D01*
X121784649Y-167186922D01*
X121784639Y-167186934D01*
X121613192Y-167415960D01*
X121613191Y-167415961D01*
X121476091Y-167667041D01*
X121376109Y-167935104D01*
X121315300Y-168214637D01*
X121300000Y-168428563D01*
X116728016Y-168428563D01*
X116635682Y-168247348D01*
X116635679Y-168247343D01*
X116435852Y-167939635D01*
X116204952Y-167654498D01*
X116204949Y-167654494D01*
X115945506Y-167395051D01*
X115913010Y-167368736D01*
X115660364Y-167164147D01*
X115352656Y-166964320D01*
X115025739Y-166797746D01*
X114683206Y-166666260D01*
X114683199Y-166666258D01*
X114328794Y-166571295D01*
X114328790Y-166571294D01*
X114328789Y-166571294D01*
X113966405Y-166513898D01*
X113600001Y-166494696D01*
X113599999Y-166494696D01*
X113233594Y-166513898D01*
X112871211Y-166571294D01*
X112871209Y-166571294D01*
X112516793Y-166666260D01*
X112174260Y-166797746D01*
X111847343Y-166964320D01*
X111539635Y-167164147D01*
X111254498Y-167395047D01*
X111254490Y-167395054D01*
X110995054Y-167654490D01*
X110995047Y-167654498D01*
X110764147Y-167939635D01*
X110564320Y-168247343D01*
X110397746Y-168574260D01*
X110266260Y-168916793D01*
X110171294Y-169271209D01*
X110171294Y-169271211D01*
X110146473Y-169427925D01*
X110116544Y-169491060D01*
X110057232Y-169527991D01*
X109987370Y-169526993D01*
X109929137Y-169488383D01*
X109901023Y-169424419D01*
X109900000Y-169408527D01*
X109900000Y-168428566D01*
X109899999Y-168428563D01*
X109884699Y-168214637D01*
X109823890Y-167935104D01*
X109723908Y-167667041D01*
X109586808Y-167415961D01*
X109586807Y-167415960D01*
X109415360Y-167186934D01*
X109415350Y-167186922D01*
X109213077Y-166984649D01*
X109213065Y-166984639D01*
X108984039Y-166813192D01*
X108984038Y-166813191D01*
X108732957Y-166676091D01*
X108732958Y-166676091D01*
X108464895Y-166576109D01*
X108185362Y-166515300D01*
X107971436Y-166500000D01*
X106650000Y-166500000D01*
X106650000Y-167763497D01*
X106547473Y-167750000D01*
X106252527Y-167750000D01*
X106150000Y-167763497D01*
X106150000Y-166500000D01*
X104828563Y-166500000D01*
X104614637Y-166515300D01*
X104335104Y-166576109D01*
X104067041Y-166676091D01*
X103815961Y-166813191D01*
X103815960Y-166813192D01*
X103586934Y-166984639D01*
X103586922Y-166984649D01*
X103384649Y-167186922D01*
X103384639Y-167186934D01*
X103213192Y-167415960D01*
X103213191Y-167415961D01*
X103076091Y-167667041D01*
X102976109Y-167935104D01*
X102915300Y-168214637D01*
X102900000Y-168428563D01*
X98328016Y-168428563D01*
X98235682Y-168247348D01*
X98235679Y-168247343D01*
X98035852Y-167939635D01*
X97804952Y-167654498D01*
X97804949Y-167654494D01*
X97545506Y-167395051D01*
X97513010Y-167368736D01*
X97260364Y-167164147D01*
X96952656Y-166964320D01*
X96625739Y-166797746D01*
X96283206Y-166666260D01*
X96283199Y-166666258D01*
X95928794Y-166571295D01*
X95928790Y-166571294D01*
X95928789Y-166571294D01*
X95566405Y-166513898D01*
X95200001Y-166494696D01*
X95199999Y-166494696D01*
X94833594Y-166513898D01*
X94471211Y-166571294D01*
X94471209Y-166571294D01*
X94116793Y-166666260D01*
X93774260Y-166797746D01*
X93447343Y-166964320D01*
X93139635Y-167164147D01*
X92854498Y-167395047D01*
X92854490Y-167395054D01*
X92595054Y-167654490D01*
X92595047Y-167654498D01*
X92364147Y-167939635D01*
X92164320Y-168247343D01*
X91997746Y-168574260D01*
X91866260Y-168916793D01*
X91771294Y-169271209D01*
X91771294Y-169271211D01*
X91746473Y-169427925D01*
X91716544Y-169491060D01*
X91657232Y-169527991D01*
X91587370Y-169526993D01*
X91529137Y-169488383D01*
X91501023Y-169424419D01*
X91500000Y-169408527D01*
X91500000Y-168428566D01*
X91499999Y-168428563D01*
X91484699Y-168214637D01*
X91423890Y-167935104D01*
X91323908Y-167667041D01*
X91186808Y-167415961D01*
X91186807Y-167415960D01*
X91015360Y-167186934D01*
X91015350Y-167186922D01*
X90813077Y-166984649D01*
X90813065Y-166984639D01*
X90584039Y-166813192D01*
X90584038Y-166813191D01*
X90332957Y-166676091D01*
X90332958Y-166676091D01*
X90064895Y-166576109D01*
X89785362Y-166515300D01*
X89571436Y-166500000D01*
X88250000Y-166500000D01*
X88250000Y-167763497D01*
X88147473Y-167750000D01*
X87852527Y-167750000D01*
X87750000Y-167763497D01*
X87750000Y-166500000D01*
X86428563Y-166500000D01*
X86214637Y-166515300D01*
X85935104Y-166576109D01*
X85667041Y-166676091D01*
X85415961Y-166813191D01*
X85415960Y-166813192D01*
X85186934Y-166984639D01*
X85186922Y-166984649D01*
X84984649Y-167186922D01*
X84984639Y-167186934D01*
X84813192Y-167415960D01*
X84813191Y-167415961D01*
X84676091Y-167667041D01*
X84576109Y-167935104D01*
X84515300Y-168214637D01*
X84500000Y-168428563D01*
X79728016Y-168428563D01*
X79635682Y-168247348D01*
X79635679Y-168247343D01*
X79435852Y-167939635D01*
X79204952Y-167654498D01*
X79204949Y-167654494D01*
X78945506Y-167395051D01*
X78913010Y-167368736D01*
X78660364Y-167164147D01*
X78352656Y-166964320D01*
X78025739Y-166797746D01*
X77683206Y-166666260D01*
X77683199Y-166666258D01*
X77328794Y-166571295D01*
X77328790Y-166571294D01*
X77328789Y-166571294D01*
X76966405Y-166513898D01*
X76600001Y-166494696D01*
X76599999Y-166494696D01*
X76233594Y-166513898D01*
X75871211Y-166571294D01*
X75871209Y-166571294D01*
X75516793Y-166666260D01*
X75174260Y-166797746D01*
X74847343Y-166964320D01*
X74539635Y-167164147D01*
X74254498Y-167395047D01*
X74254490Y-167395054D01*
X73995054Y-167654490D01*
X73995047Y-167654498D01*
X73764147Y-167939635D01*
X73564320Y-168247343D01*
X73397746Y-168574260D01*
X73266260Y-168916793D01*
X73171294Y-169271209D01*
X73171294Y-169271211D01*
X73146473Y-169427925D01*
X73116544Y-169491060D01*
X73057232Y-169527991D01*
X72987370Y-169526993D01*
X72929137Y-169488383D01*
X72901023Y-169424419D01*
X72900000Y-169408527D01*
X72900000Y-168428566D01*
X72899999Y-168428563D01*
X72884699Y-168214637D01*
X72823890Y-167935104D01*
X72723908Y-167667041D01*
X72586808Y-167415961D01*
X72586807Y-167415960D01*
X72415360Y-167186934D01*
X72415350Y-167186922D01*
X72213077Y-166984649D01*
X72213065Y-166984639D01*
X71984039Y-166813192D01*
X71984038Y-166813191D01*
X71732957Y-166676091D01*
X71732958Y-166676091D01*
X71464895Y-166576109D01*
X71185362Y-166515300D01*
X70971436Y-166500000D01*
X69650000Y-166500000D01*
X69650000Y-167763497D01*
X69547473Y-167750000D01*
X69252527Y-167750000D01*
X69150000Y-167763497D01*
X69150000Y-166500000D01*
X67828563Y-166500000D01*
X67614637Y-166515300D01*
X67335104Y-166576109D01*
X67067041Y-166676091D01*
X66815961Y-166813191D01*
X66815960Y-166813192D01*
X66586934Y-166984639D01*
X66586922Y-166984649D01*
X66384649Y-167186922D01*
X66384639Y-167186934D01*
X66213192Y-167415960D01*
X66213191Y-167415961D01*
X66076091Y-167667041D01*
X65976109Y-167935104D01*
X65915300Y-168214637D01*
X65900000Y-168428563D01*
X63300500Y-168428563D01*
X63300500Y-165593078D01*
X63320185Y-165526039D01*
X63372989Y-165480284D01*
X63442147Y-165470340D01*
X63490471Y-165488084D01*
X63506458Y-165498129D01*
X63550475Y-165525788D01*
X63720745Y-165585368D01*
X63720750Y-165585369D01*
X63899996Y-165605565D01*
X63900000Y-165605565D01*
X63900004Y-165605565D01*
X64079249Y-165585369D01*
X64079252Y-165585368D01*
X64079255Y-165585368D01*
X64249522Y-165525789D01*
X64402262Y-165429816D01*
X64529816Y-165302262D01*
X64625789Y-165149522D01*
X64685368Y-164979255D01*
X64685369Y-164979249D01*
X64705565Y-164800003D01*
X64705565Y-164799996D01*
X64685369Y-164620750D01*
X64685368Y-164620745D01*
X64625789Y-164450478D01*
X64625788Y-164450476D01*
X64587771Y-164389972D01*
X64568771Y-164322735D01*
X64589139Y-164255900D01*
X64642407Y-164210686D01*
X64692765Y-164200000D01*
X157920386Y-164200000D01*
X157987425Y-164219685D01*
G37*
%TD.AperFunction*%
%TD*%
%TA.AperFunction,Conductor*%
%TO.N,GND*%
G36*
X157700000Y-150306988D02*
G01*
X157642993Y-150274075D01*
X157515826Y-150240000D01*
X157384174Y-150240000D01*
X157257007Y-150274075D01*
X157200000Y-150306988D01*
X157200000Y-148633012D01*
X157257007Y-148665925D01*
X157384174Y-148700000D01*
X157515826Y-148700000D01*
X157642993Y-148665925D01*
X157700000Y-148633012D01*
X157700000Y-150306988D01*
G37*
%TD.AperFunction*%
%TA.AperFunction,Conductor*%
G36*
X157700000Y-147766988D02*
G01*
X157642993Y-147734075D01*
X157515826Y-147700000D01*
X157384174Y-147700000D01*
X157257007Y-147734075D01*
X157200000Y-147766988D01*
X157200000Y-146093012D01*
X157257007Y-146125925D01*
X157384174Y-146160000D01*
X157515826Y-146160000D01*
X157642993Y-146125925D01*
X157700000Y-146093012D01*
X157700000Y-147766988D01*
G37*
%TD.AperFunction*%
%TA.AperFunction,Conductor*%
G36*
X159042539Y-137320185D02*
G01*
X159088294Y-137372989D01*
X159099500Y-137424500D01*
X159099500Y-162876000D01*
X159079815Y-162943039D01*
X159027011Y-162988794D01*
X158975500Y-163000000D01*
X158023106Y-163000000D01*
X157956067Y-162980315D01*
X157910312Y-162927511D01*
X157900368Y-162858353D01*
X157929393Y-162794797D01*
X157957134Y-162771006D01*
X157991324Y-162749523D01*
X158102262Y-162679816D01*
X158229816Y-162552262D01*
X158325789Y-162399522D01*
X158385368Y-162229255D01*
X158386327Y-162220745D01*
X158405565Y-162050003D01*
X158405565Y-162049996D01*
X158385369Y-161870750D01*
X158385368Y-161870745D01*
X158325788Y-161700476D01*
X158229815Y-161547737D01*
X158102262Y-161420184D01*
X157949519Y-161324209D01*
X157887551Y-161302525D01*
X157830775Y-161261803D01*
X157805028Y-161196851D01*
X157818485Y-161128289D01*
X157866872Y-161077886D01*
X157876090Y-161073107D01*
X158077830Y-160979035D01*
X158271401Y-160843495D01*
X158438495Y-160676401D01*
X158574035Y-160482830D01*
X158673903Y-160268663D01*
X158735063Y-160040408D01*
X158755659Y-159805000D01*
X158754608Y-159792993D01*
X158741805Y-159646649D01*
X158735063Y-159569592D01*
X158687937Y-159393713D01*
X158673905Y-159341344D01*
X158673904Y-159341343D01*
X158673903Y-159341337D01*
X158574035Y-159127171D01*
X158539597Y-159077987D01*
X158438494Y-158933597D01*
X158271402Y-158766506D01*
X158271396Y-158766501D01*
X158085842Y-158636575D01*
X158042217Y-158581998D01*
X158035023Y-158512500D01*
X158066546Y-158450145D01*
X158085842Y-158433425D01*
X158147592Y-158390187D01*
X158271401Y-158303495D01*
X158438495Y-158136401D01*
X158574035Y-157942830D01*
X158673903Y-157728663D01*
X158735063Y-157500408D01*
X158755659Y-157265000D01*
X158735063Y-157029592D01*
X158673903Y-156801337D01*
X158574035Y-156587171D01*
X158556064Y-156561506D01*
X158438496Y-156393600D01*
X158381894Y-156336998D01*
X158316567Y-156271671D01*
X158283084Y-156210351D01*
X158288068Y-156140659D01*
X158329939Y-156084725D01*
X158360915Y-156067810D01*
X158492331Y-156018796D01*
X158607546Y-155932546D01*
X158693796Y-155817331D01*
X158744091Y-155682483D01*
X158750500Y-155622873D01*
X158750499Y-153827128D01*
X158744091Y-153767517D01*
X158737379Y-153749522D01*
X158693797Y-153632671D01*
X158693793Y-153632664D01*
X158607547Y-153517455D01*
X158607544Y-153517452D01*
X158492335Y-153431206D01*
X158492328Y-153431202D01*
X158357482Y-153380908D01*
X158357483Y-153380908D01*
X158297883Y-153374501D01*
X158297881Y-153374500D01*
X158297873Y-153374500D01*
X158297864Y-153374500D01*
X156502129Y-153374500D01*
X156502123Y-153374501D01*
X156442516Y-153380908D01*
X156307671Y-153431202D01*
X156307664Y-153431206D01*
X156192455Y-153517452D01*
X156192452Y-153517455D01*
X156106206Y-153632664D01*
X156106202Y-153632671D01*
X156055908Y-153767517D01*
X156053911Y-153786097D01*
X156049501Y-153827123D01*
X156049500Y-153827135D01*
X156049500Y-155622870D01*
X156049501Y-155622876D01*
X156055908Y-155682483D01*
X156106202Y-155817328D01*
X156106206Y-155817335D01*
X156192452Y-155932544D01*
X156192455Y-155932547D01*
X156307664Y-156018793D01*
X156307671Y-156018797D01*
X156439081Y-156067810D01*
X156495015Y-156109681D01*
X156519432Y-156175145D01*
X156504580Y-156243418D01*
X156483430Y-156271673D01*
X156361503Y-156393600D01*
X156225965Y-156587169D01*
X156225964Y-156587171D01*
X156126098Y-156801335D01*
X156126094Y-156801344D01*
X156064938Y-157029586D01*
X156064936Y-157029596D01*
X156044341Y-157264999D01*
X156044341Y-157265000D01*
X156064936Y-157500403D01*
X156064938Y-157500413D01*
X156126094Y-157728655D01*
X156126096Y-157728659D01*
X156126097Y-157728663D01*
X156192090Y-157870184D01*
X156225965Y-157942830D01*
X156225967Y-157942834D01*
X156361501Y-158136395D01*
X156361506Y-158136402D01*
X156528597Y-158303493D01*
X156528603Y-158303498D01*
X156714158Y-158433425D01*
X156757783Y-158488002D01*
X156764977Y-158557500D01*
X156733454Y-158619855D01*
X156714158Y-158636575D01*
X156528597Y-158766505D01*
X156361505Y-158933597D01*
X156225965Y-159127169D01*
X156225964Y-159127171D01*
X156126098Y-159341335D01*
X156126094Y-159341344D01*
X156064938Y-159569586D01*
X156064936Y-159569596D01*
X156044341Y-159804999D01*
X156044341Y-159805000D01*
X156064936Y-160040403D01*
X156064938Y-160040413D01*
X156126094Y-160268655D01*
X156126096Y-160268659D01*
X156126097Y-160268663D01*
X156221882Y-160474075D01*
X156225965Y-160482830D01*
X156225967Y-160482834D01*
X156290509Y-160575009D01*
X156361505Y-160676401D01*
X156528599Y-160843495D01*
X156625384Y-160911265D01*
X156722165Y-160979032D01*
X156722167Y-160979033D01*
X156722170Y-160979035D01*
X156936337Y-161078903D01*
X156936343Y-161078904D01*
X156936344Y-161078905D01*
X156982791Y-161091350D01*
X157155731Y-161137688D01*
X157215390Y-161174053D01*
X157245920Y-161236899D01*
X157237626Y-161306275D01*
X157193141Y-161360153D01*
X157189610Y-161362456D01*
X157097739Y-161420182D01*
X156970184Y-161547737D01*
X156874211Y-161700476D01*
X156814631Y-161870745D01*
X156814630Y-161870750D01*
X156794435Y-162049996D01*
X156794435Y-162050003D01*
X156814630Y-162229249D01*
X156814631Y-162229254D01*
X156874211Y-162399523D01*
X156970184Y-162552262D01*
X157097738Y-162679816D01*
X157208676Y-162749523D01*
X157242866Y-162771006D01*
X157289157Y-162823341D01*
X157299805Y-162892394D01*
X157271430Y-162956243D01*
X157213040Y-162994615D01*
X157176894Y-163000000D01*
X64792765Y-163000000D01*
X64725726Y-162980315D01*
X64679971Y-162927511D01*
X64670027Y-162858353D01*
X64687771Y-162810028D01*
X64725788Y-162749523D01*
X64725789Y-162749522D01*
X64785368Y-162579255D01*
X64788410Y-162552262D01*
X64805552Y-162400117D01*
X64832618Y-162335703D01*
X64890213Y-162296148D01*
X64928772Y-162290000D01*
X65597828Y-162290000D01*
X65597844Y-162289999D01*
X65657372Y-162283598D01*
X65657379Y-162283596D01*
X65792086Y-162233354D01*
X65792093Y-162233350D01*
X65907187Y-162147190D01*
X65907190Y-162147187D01*
X65993350Y-162032093D01*
X65993354Y-162032086D01*
X66043596Y-161897379D01*
X66043598Y-161897372D01*
X66049999Y-161837844D01*
X66050000Y-161837827D01*
X66050000Y-161190000D01*
X65133012Y-161190000D01*
X65165925Y-161132993D01*
X65200000Y-161005826D01*
X65200000Y-160874174D01*
X65165925Y-160747007D01*
X65133012Y-160690000D01*
X66050000Y-160690000D01*
X66050000Y-160042172D01*
X66049999Y-160042155D01*
X66043598Y-159982627D01*
X66043596Y-159982620D01*
X65993354Y-159847913D01*
X65993350Y-159847906D01*
X65907190Y-159732812D01*
X65907187Y-159732809D01*
X65792093Y-159646649D01*
X65792088Y-159646646D01*
X65660528Y-159597577D01*
X65604595Y-159555705D01*
X65602467Y-159550000D01*
X74802970Y-159550000D01*
X75745854Y-159550000D01*
X75707370Y-159616657D01*
X75675000Y-159737465D01*
X75675000Y-159862535D01*
X75707370Y-159983343D01*
X75745854Y-160050000D01*
X74802970Y-160050000D01*
X74833242Y-160241127D01*
X74833242Y-160241130D01*
X74898904Y-160443217D01*
X74995379Y-160632557D01*
X75120272Y-160804459D01*
X75120276Y-160804464D01*
X75270535Y-160954723D01*
X75270540Y-160954727D01*
X75442442Y-161079620D01*
X75631782Y-161176095D01*
X75833871Y-161241757D01*
X75900000Y-161252231D01*
X75900000Y-160204145D01*
X75966657Y-160242630D01*
X76087465Y-160275000D01*
X76212535Y-160275000D01*
X76333343Y-160242630D01*
X76400000Y-160204145D01*
X76400000Y-161252230D01*
X76466126Y-161241757D01*
X76466129Y-161241757D01*
X76668217Y-161176095D01*
X76857557Y-161079620D01*
X77029459Y-160954727D01*
X77029464Y-160954723D01*
X77179721Y-160804466D01*
X77299371Y-160639781D01*
X77354701Y-160597115D01*
X77424314Y-160591136D01*
X77486110Y-160623741D01*
X77500008Y-160639781D01*
X77619890Y-160804785D01*
X77619894Y-160804790D01*
X77770213Y-160955109D01*
X77942179Y-161080048D01*
X77942181Y-161080049D01*
X77942184Y-161080051D01*
X78131588Y-161176557D01*
X78333757Y-161242246D01*
X78543713Y-161275500D01*
X78543714Y-161275500D01*
X78756286Y-161275500D01*
X78756287Y-161275500D01*
X78966243Y-161242246D01*
X79168412Y-161176557D01*
X79357816Y-161080051D01*
X79389031Y-161057372D01*
X79529786Y-160955109D01*
X79529788Y-160955106D01*
X79529792Y-160955104D01*
X79680104Y-160804792D01*
X79799683Y-160640204D01*
X79855011Y-160597540D01*
X79924624Y-160591561D01*
X79986420Y-160624166D01*
X80000313Y-160640199D01*
X80044637Y-160701206D01*
X80119896Y-160804792D01*
X80270213Y-160955109D01*
X80442179Y-161080048D01*
X80442181Y-161080049D01*
X80442184Y-161080051D01*
X80631588Y-161176557D01*
X80833757Y-161242246D01*
X81043713Y-161275500D01*
X81043714Y-161275500D01*
X81256286Y-161275500D01*
X81256287Y-161275500D01*
X81466243Y-161242246D01*
X81668412Y-161176557D01*
X81857816Y-161080051D01*
X81970965Y-160997844D01*
X82029784Y-160955110D01*
X82029784Y-160955109D01*
X82029792Y-160955104D01*
X82168604Y-160816291D01*
X82229923Y-160782809D01*
X82299615Y-160787793D01*
X82355549Y-160829664D01*
X82361821Y-160838878D01*
X82365185Y-160844333D01*
X82365186Y-160844334D01*
X82457288Y-160993656D01*
X82581344Y-161117712D01*
X82730666Y-161209814D01*
X82897203Y-161264999D01*
X82999991Y-161275500D01*
X84300008Y-161275499D01*
X84402797Y-161264999D01*
X84569334Y-161209814D01*
X84718656Y-161117712D01*
X84842712Y-160993656D01*
X84934814Y-160844334D01*
X84989999Y-160677797D01*
X85000500Y-160575009D01*
X85000499Y-159024992D01*
X84998851Y-159008863D01*
X84989999Y-158922203D01*
X84989998Y-158922200D01*
X84988543Y-158917809D01*
X84934814Y-158755666D01*
X84842712Y-158606344D01*
X84718656Y-158482288D01*
X84569334Y-158390186D01*
X84402797Y-158335001D01*
X84402795Y-158335000D01*
X84300010Y-158324500D01*
X82999998Y-158324500D01*
X82999981Y-158324501D01*
X82897203Y-158335000D01*
X82897200Y-158335001D01*
X82730668Y-158390185D01*
X82730663Y-158390187D01*
X82581342Y-158482289D01*
X82457289Y-158606342D01*
X82361821Y-158761121D01*
X82309873Y-158807845D01*
X82240910Y-158819068D01*
X82176828Y-158791224D01*
X82168601Y-158783705D01*
X82029786Y-158644890D01*
X81857820Y-158519951D01*
X81668414Y-158423444D01*
X81668413Y-158423443D01*
X81668412Y-158423443D01*
X81466243Y-158357754D01*
X81466241Y-158357753D01*
X81466240Y-158357753D01*
X81304957Y-158332208D01*
X81256287Y-158324500D01*
X81043713Y-158324500D01*
X80995042Y-158332208D01*
X80833760Y-158357753D01*
X80631585Y-158423444D01*
X80442179Y-158519951D01*
X80270213Y-158644890D01*
X80119894Y-158795209D01*
X80119890Y-158795214D01*
X80000318Y-158959793D01*
X79944989Y-159002459D01*
X79875375Y-159008438D01*
X79813580Y-158975833D01*
X79799682Y-158959793D01*
X79680109Y-158795214D01*
X79680105Y-158795209D01*
X79529786Y-158644890D01*
X79357820Y-158519951D01*
X79168414Y-158423444D01*
X79168413Y-158423443D01*
X79168412Y-158423443D01*
X78966243Y-158357754D01*
X78966241Y-158357753D01*
X78966240Y-158357753D01*
X78804957Y-158332208D01*
X78756287Y-158324500D01*
X78543713Y-158324500D01*
X78495042Y-158332208D01*
X78333760Y-158357753D01*
X78131585Y-158423444D01*
X77942179Y-158519951D01*
X77770213Y-158644890D01*
X77619894Y-158795209D01*
X77619890Y-158795214D01*
X77500008Y-158960218D01*
X77444678Y-159002884D01*
X77375065Y-159008863D01*
X77313270Y-158976257D01*
X77299372Y-158960218D01*
X77179727Y-158795540D01*
X77179723Y-158795535D01*
X77029464Y-158645276D01*
X77029459Y-158645272D01*
X76857557Y-158520379D01*
X76668215Y-158423903D01*
X76466124Y-158358241D01*
X76400000Y-158347768D01*
X76400000Y-159395854D01*
X76333343Y-159357370D01*
X76212535Y-159325000D01*
X76087465Y-159325000D01*
X75966657Y-159357370D01*
X75900000Y-159395854D01*
X75900000Y-158347768D01*
X75899999Y-158347768D01*
X75833875Y-158358241D01*
X75631784Y-158423903D01*
X75442442Y-158520379D01*
X75270540Y-158645272D01*
X75270535Y-158645276D01*
X75120276Y-158795535D01*
X75120272Y-158795540D01*
X74995379Y-158967442D01*
X74898904Y-159156782D01*
X74833242Y-159358869D01*
X74833242Y-159358872D01*
X74802970Y-159550000D01*
X65602467Y-159550000D01*
X65580178Y-159490241D01*
X65595030Y-159421968D01*
X65616175Y-159393720D01*
X65738495Y-159271401D01*
X65874035Y-159077830D01*
X65973903Y-158863663D01*
X66035063Y-158635408D01*
X66046910Y-158499996D01*
X69794435Y-158499996D01*
X69794435Y-158500003D01*
X69814630Y-158679249D01*
X69814631Y-158679254D01*
X69874211Y-158849523D01*
X69953844Y-158976257D01*
X69970184Y-159002262D01*
X70097738Y-159129816D01*
X70250478Y-159225789D01*
X70420745Y-159285368D01*
X70420750Y-159285369D01*
X70599996Y-159305565D01*
X70600000Y-159305565D01*
X70600004Y-159305565D01*
X70779249Y-159285369D01*
X70779252Y-159285368D01*
X70779255Y-159285368D01*
X70949522Y-159225789D01*
X71102262Y-159129816D01*
X71229816Y-159002262D01*
X71325789Y-158849522D01*
X71385368Y-158679255D01*
X71385369Y-158679249D01*
X71405565Y-158500003D01*
X71405565Y-158499996D01*
X71385369Y-158320750D01*
X71385368Y-158320745D01*
X71330729Y-158164596D01*
X71325789Y-158150478D01*
X71316944Y-158136402D01*
X71246106Y-158023663D01*
X71229816Y-157997738D01*
X71102262Y-157870184D01*
X70949523Y-157774211D01*
X70779254Y-157714631D01*
X70779249Y-157714630D01*
X70600004Y-157694435D01*
X70599996Y-157694435D01*
X70420750Y-157714630D01*
X70420745Y-157714631D01*
X70250476Y-157774211D01*
X70097737Y-157870184D01*
X69970184Y-157997737D01*
X69874211Y-158150476D01*
X69814631Y-158320745D01*
X69814630Y-158320750D01*
X69794435Y-158499996D01*
X66046910Y-158499996D01*
X66055659Y-158400000D01*
X66054800Y-158390187D01*
X66049972Y-158335000D01*
X66035063Y-158164592D01*
X65973903Y-157936337D01*
X65874035Y-157722171D01*
X65873925Y-157722013D01*
X65738494Y-157528597D01*
X65571402Y-157361506D01*
X65571396Y-157361501D01*
X65385842Y-157231575D01*
X65342217Y-157176998D01*
X65335023Y-157107500D01*
X65366546Y-157045145D01*
X65385842Y-157028425D01*
X65526407Y-156930000D01*
X65571401Y-156898495D01*
X65738495Y-156731401D01*
X65874035Y-156537830D01*
X65973903Y-156323663D01*
X66035063Y-156095408D01*
X66055659Y-155860000D01*
X66054719Y-155849261D01*
X68145170Y-155849261D01*
X68145170Y-155849268D01*
X68165365Y-156028514D01*
X68165366Y-156028519D01*
X68224946Y-156198788D01*
X68303406Y-156323655D01*
X68320919Y-156351527D01*
X68448473Y-156479081D01*
X68506270Y-156515397D01*
X68579651Y-156561506D01*
X68601213Y-156575054D01*
X68771480Y-156634633D01*
X68771485Y-156634634D01*
X68950731Y-156654830D01*
X68950735Y-156654830D01*
X68950739Y-156654830D01*
X69129984Y-156634634D01*
X69129987Y-156634633D01*
X69129990Y-156634633D01*
X69300257Y-156575054D01*
X69452997Y-156479081D01*
X69580551Y-156351527D01*
X69676524Y-156198787D01*
X69736103Y-156028520D01*
X69741559Y-155980099D01*
X69756300Y-155849268D01*
X69756300Y-155849261D01*
X69736104Y-155670015D01*
X69736102Y-155670007D01*
X69689020Y-155535453D01*
X69685459Y-155465675D01*
X69720188Y-155405047D01*
X69782181Y-155372820D01*
X69806052Y-155370499D01*
X71417872Y-155370499D01*
X71477483Y-155364091D01*
X71612331Y-155313796D01*
X71727546Y-155227546D01*
X71813796Y-155112331D01*
X71864091Y-154977483D01*
X71867944Y-154941644D01*
X71894679Y-154877098D01*
X71952070Y-154837248D01*
X72021895Y-154834753D01*
X72081985Y-154870404D01*
X72092806Y-154883777D01*
X72110341Y-154908819D01*
X72271179Y-155069657D01*
X72457517Y-155200134D01*
X72663673Y-155296265D01*
X72663682Y-155296269D01*
X72859999Y-155348872D01*
X72860000Y-155348871D01*
X72860000Y-154385686D01*
X72864394Y-154390080D01*
X72955606Y-154442741D01*
X73057339Y-154470000D01*
X73162661Y-154470000D01*
X73264394Y-154442741D01*
X73355606Y-154390080D01*
X73360000Y-154385686D01*
X73360000Y-155348872D01*
X73556317Y-155296269D01*
X73556326Y-155296265D01*
X73762482Y-155200134D01*
X73948820Y-155069657D01*
X74109657Y-154908820D01*
X74240132Y-154722484D01*
X74267341Y-154664134D01*
X74313513Y-154611695D01*
X74380707Y-154592542D01*
X74447588Y-154612757D01*
X74492106Y-154664133D01*
X74519431Y-154722732D01*
X74519432Y-154722734D01*
X74649954Y-154909141D01*
X74810858Y-155070045D01*
X74810861Y-155070047D01*
X74997266Y-155200568D01*
X75203504Y-155296739D01*
X75423308Y-155355635D01*
X75585230Y-155369801D01*
X75649998Y-155375468D01*
X75650000Y-155375468D01*
X75650002Y-155375468D01*
X75706807Y-155370498D01*
X75876692Y-155355635D01*
X76096496Y-155296739D01*
X76302734Y-155200568D01*
X76489139Y-155070047D01*
X76650047Y-154909139D01*
X76780568Y-154722734D01*
X76807618Y-154664724D01*
X76853790Y-154612285D01*
X76920983Y-154593133D01*
X76987865Y-154613348D01*
X77032382Y-154664725D01*
X77059429Y-154722728D01*
X77059432Y-154722734D01*
X77189954Y-154909141D01*
X77350858Y-155070045D01*
X77350861Y-155070047D01*
X77537266Y-155200568D01*
X77743504Y-155296739D01*
X77963308Y-155355635D01*
X78125230Y-155369801D01*
X78189998Y-155375468D01*
X78190000Y-155375468D01*
X78190002Y-155375468D01*
X78246807Y-155370498D01*
X78416692Y-155355635D01*
X78636496Y-155296739D01*
X78842734Y-155200568D01*
X79029139Y-155070047D01*
X79190047Y-154909139D01*
X79320568Y-154722734D01*
X79347618Y-154664724D01*
X79393790Y-154612285D01*
X79460983Y-154593133D01*
X79527865Y-154613348D01*
X79572382Y-154664725D01*
X79599429Y-154722728D01*
X79599432Y-154722734D01*
X79729954Y-154909141D01*
X79890858Y-155070045D01*
X79890861Y-155070047D01*
X80077266Y-155200568D01*
X80283504Y-155296739D01*
X80503308Y-155355635D01*
X80665230Y-155369801D01*
X80729998Y-155375468D01*
X80730000Y-155375468D01*
X80730002Y-155375468D01*
X80786807Y-155370498D01*
X80956692Y-155355635D01*
X81176496Y-155296739D01*
X81382734Y-155200568D01*
X81569139Y-155070047D01*
X81730047Y-154909139D01*
X81860568Y-154722734D01*
X81887618Y-154664724D01*
X81933790Y-154612285D01*
X82000983Y-154593133D01*
X82067865Y-154613348D01*
X82112382Y-154664725D01*
X82139429Y-154722728D01*
X82139432Y-154722734D01*
X82269954Y-154909141D01*
X82430858Y-155070045D01*
X82430861Y-155070047D01*
X82617266Y-155200568D01*
X82823504Y-155296739D01*
X83043308Y-155355635D01*
X83205230Y-155369801D01*
X83269998Y-155375468D01*
X83270000Y-155375468D01*
X83270002Y-155375468D01*
X83326807Y-155370498D01*
X83496692Y-155355635D01*
X83716496Y-155296739D01*
X83922734Y-155200568D01*
X84109139Y-155070047D01*
X84270047Y-154909139D01*
X84400568Y-154722734D01*
X84427895Y-154664129D01*
X84474064Y-154611695D01*
X84541257Y-154592542D01*
X84608139Y-154612757D01*
X84652657Y-154664133D01*
X84679865Y-154722482D01*
X84810342Y-154908820D01*
X84971179Y-155069657D01*
X85157517Y-155200134D01*
X85363673Y-155296265D01*
X85363682Y-155296269D01*
X85559999Y-155348872D01*
X85560000Y-155348871D01*
X85560000Y-154385686D01*
X85564394Y-154390080D01*
X85655606Y-154442741D01*
X85757339Y-154470000D01*
X85862661Y-154470000D01*
X85964394Y-154442741D01*
X86055606Y-154390080D01*
X86060000Y-154385686D01*
X86060000Y-155348872D01*
X86256317Y-155296269D01*
X86256326Y-155296265D01*
X86462482Y-155200134D01*
X86648820Y-155069657D01*
X86658478Y-155059999D01*
X117644341Y-155059999D01*
X117644341Y-155060000D01*
X117664936Y-155295403D01*
X117664938Y-155295413D01*
X117726094Y-155523655D01*
X117726096Y-155523659D01*
X117726097Y-155523663D01*
X117773161Y-155624592D01*
X117825965Y-155737830D01*
X117825967Y-155737834D01*
X117961501Y-155931395D01*
X117961506Y-155931402D01*
X118128597Y-156098493D01*
X118128603Y-156098498D01*
X118314158Y-156228425D01*
X118357783Y-156283002D01*
X118364977Y-156352500D01*
X118333454Y-156414855D01*
X118314158Y-156431575D01*
X118128597Y-156561505D01*
X117961505Y-156728597D01*
X117825965Y-156922169D01*
X117825964Y-156922171D01*
X117726098Y-157136335D01*
X117726094Y-157136344D01*
X117664938Y-157364586D01*
X117664936Y-157364596D01*
X117644341Y-157599999D01*
X117644341Y-157600000D01*
X117664936Y-157835403D01*
X117664938Y-157835413D01*
X117726094Y-158063655D01*
X117726096Y-158063659D01*
X117726097Y-158063663D01*
X117773161Y-158164592D01*
X117825965Y-158277830D01*
X117825967Y-158277834D01*
X117933492Y-158431395D01*
X117961501Y-158471396D01*
X117961506Y-158471402D01*
X118083818Y-158593714D01*
X118117303Y-158655037D01*
X118112319Y-158724729D01*
X118070447Y-158780662D01*
X118039471Y-158797577D01*
X117907912Y-158846646D01*
X117907906Y-158846649D01*
X117792812Y-158932809D01*
X117792809Y-158932812D01*
X117706649Y-159047906D01*
X117706645Y-159047913D01*
X117656403Y-159182620D01*
X117656401Y-159182627D01*
X117650000Y-159242155D01*
X117650000Y-159890000D01*
X118566988Y-159890000D01*
X118534075Y-159947007D01*
X118500000Y-160074174D01*
X118500000Y-160205826D01*
X118534075Y-160332993D01*
X118566988Y-160390000D01*
X117650000Y-160390000D01*
X117650000Y-161037844D01*
X117656401Y-161097372D01*
X117656403Y-161097379D01*
X117706645Y-161232086D01*
X117706649Y-161232093D01*
X117792809Y-161347187D01*
X117792812Y-161347190D01*
X117907906Y-161433350D01*
X117907913Y-161433354D01*
X118042620Y-161483596D01*
X118042627Y-161483598D01*
X118102155Y-161489999D01*
X118102172Y-161490000D01*
X118750000Y-161490000D01*
X118750000Y-160573012D01*
X118807007Y-160605925D01*
X118934174Y-160640000D01*
X119065826Y-160640000D01*
X119192993Y-160605925D01*
X119250000Y-160573012D01*
X119250000Y-161490000D01*
X119897828Y-161490000D01*
X119897844Y-161489999D01*
X119957372Y-161483598D01*
X119957379Y-161483596D01*
X120092086Y-161433354D01*
X120092093Y-161433350D01*
X120207187Y-161347190D01*
X120207190Y-161347187D01*
X120293350Y-161232093D01*
X120293354Y-161232086D01*
X120343596Y-161097379D01*
X120343598Y-161097372D01*
X120349999Y-161037844D01*
X120350000Y-161037827D01*
X120350000Y-160390000D01*
X119433012Y-160390000D01*
X119465925Y-160332993D01*
X119500000Y-160205826D01*
X119500000Y-160074174D01*
X119465925Y-159947007D01*
X119433012Y-159890000D01*
X120350000Y-159890000D01*
X120350000Y-159242172D01*
X120349999Y-159242155D01*
X120343598Y-159182627D01*
X120343596Y-159182620D01*
X120293354Y-159047913D01*
X120293350Y-159047906D01*
X120207190Y-158932812D01*
X120207187Y-158932809D01*
X120092093Y-158846649D01*
X120092088Y-158846646D01*
X119960528Y-158797577D01*
X119904595Y-158755705D01*
X119880178Y-158690241D01*
X119895030Y-158621968D01*
X119916175Y-158593720D01*
X120038495Y-158471401D01*
X120174035Y-158277830D01*
X120273903Y-158063663D01*
X120335063Y-157835408D01*
X120355659Y-157600000D01*
X120335063Y-157364592D01*
X120273903Y-157136337D01*
X120174035Y-156922171D01*
X120146026Y-156882169D01*
X120038494Y-156728597D01*
X119871402Y-156561506D01*
X119871396Y-156561501D01*
X119685842Y-156431575D01*
X119642217Y-156376998D01*
X119635023Y-156307500D01*
X119666546Y-156245145D01*
X119685842Y-156228425D01*
X119742968Y-156188425D01*
X119871401Y-156098495D01*
X120038495Y-155931401D01*
X120174035Y-155737830D01*
X120273903Y-155523663D01*
X120335063Y-155295408D01*
X120355659Y-155060000D01*
X120354583Y-155047707D01*
X120354346Y-155044999D01*
X121644341Y-155044999D01*
X121644341Y-155045000D01*
X121664936Y-155280403D01*
X121664938Y-155280413D01*
X121726094Y-155508655D01*
X121726096Y-155508659D01*
X121726097Y-155508663D01*
X121801333Y-155670007D01*
X121825965Y-155722830D01*
X121825967Y-155722834D01*
X121934281Y-155877521D01*
X121944000Y-155891402D01*
X121961501Y-155916395D01*
X121961506Y-155916402D01*
X122128597Y-156083493D01*
X122128603Y-156083498D01*
X122314158Y-156213425D01*
X122357783Y-156268002D01*
X122364977Y-156337500D01*
X122333454Y-156399855D01*
X122314158Y-156416575D01*
X122128597Y-156546505D01*
X121961505Y-156713597D01*
X121825965Y-156907169D01*
X121825964Y-156907171D01*
X121726098Y-157121335D01*
X121726094Y-157121344D01*
X121664938Y-157349586D01*
X121664936Y-157349596D01*
X121644341Y-157584999D01*
X121644341Y-157585000D01*
X121664936Y-157820403D01*
X121664938Y-157820413D01*
X121726094Y-158048655D01*
X121726096Y-158048659D01*
X121726097Y-158048663D01*
X121780153Y-158164586D01*
X121825965Y-158262830D01*
X121825967Y-158262834D01*
X121934281Y-158417521D01*
X121961501Y-158456396D01*
X121961506Y-158456402D01*
X122083818Y-158578714D01*
X122117303Y-158640037D01*
X122112319Y-158709729D01*
X122070447Y-158765662D01*
X122039471Y-158782577D01*
X121907912Y-158831646D01*
X121907906Y-158831649D01*
X121792812Y-158917809D01*
X121792809Y-158917812D01*
X121706649Y-159032906D01*
X121706645Y-159032913D01*
X121656403Y-159167620D01*
X121656401Y-159167627D01*
X121650000Y-159227155D01*
X121650000Y-159875000D01*
X122566988Y-159875000D01*
X122534075Y-159932007D01*
X122500000Y-160059174D01*
X122500000Y-160190826D01*
X122534075Y-160317993D01*
X122566988Y-160375000D01*
X121650000Y-160375000D01*
X121650000Y-161022844D01*
X121656401Y-161082372D01*
X121656403Y-161082379D01*
X121706645Y-161217086D01*
X121706649Y-161217093D01*
X121792809Y-161332187D01*
X121792812Y-161332190D01*
X121907906Y-161418350D01*
X121907913Y-161418354D01*
X122042620Y-161468596D01*
X122042627Y-161468598D01*
X122102155Y-161474999D01*
X122102172Y-161475000D01*
X122750000Y-161475000D01*
X122750000Y-160558012D01*
X122807007Y-160590925D01*
X122934174Y-160625000D01*
X123065826Y-160625000D01*
X123192993Y-160590925D01*
X123250000Y-160558012D01*
X123250000Y-161475000D01*
X123897828Y-161475000D01*
X123897844Y-161474999D01*
X123957372Y-161468598D01*
X123957379Y-161468596D01*
X124092086Y-161418354D01*
X124092093Y-161418350D01*
X124207187Y-161332190D01*
X124207190Y-161332187D01*
X124293350Y-161217093D01*
X124293354Y-161217086D01*
X124343596Y-161082379D01*
X124343598Y-161082372D01*
X124349999Y-161022844D01*
X124350000Y-161022827D01*
X124350000Y-160375000D01*
X123433012Y-160375000D01*
X123465925Y-160317993D01*
X123500000Y-160190826D01*
X123500000Y-160059174D01*
X123465925Y-159932007D01*
X123433012Y-159875000D01*
X124350000Y-159875000D01*
X124350000Y-159227172D01*
X124349999Y-159227155D01*
X124343598Y-159167627D01*
X124343596Y-159167620D01*
X124293354Y-159032913D01*
X124293350Y-159032906D01*
X124207190Y-158917812D01*
X124207187Y-158917809D01*
X124092093Y-158831649D01*
X124092088Y-158831646D01*
X123960528Y-158782577D01*
X123904595Y-158740705D01*
X123880178Y-158675241D01*
X123895030Y-158606968D01*
X123916175Y-158578720D01*
X124038495Y-158456401D01*
X124174035Y-158262830D01*
X124273903Y-158048663D01*
X124335063Y-157820408D01*
X124355659Y-157585000D01*
X124335063Y-157349592D01*
X124273903Y-157121337D01*
X124174035Y-156907171D01*
X124167963Y-156898498D01*
X124038494Y-156713597D01*
X123871402Y-156546506D01*
X123871396Y-156546501D01*
X123685842Y-156416575D01*
X123642217Y-156361998D01*
X123635023Y-156292500D01*
X123666546Y-156230145D01*
X123685842Y-156213425D01*
X123789762Y-156140659D01*
X123871401Y-156083495D01*
X124038495Y-155916401D01*
X124174035Y-155722830D01*
X124273903Y-155508663D01*
X124335063Y-155280408D01*
X124355659Y-155045000D01*
X124355659Y-155044999D01*
X125644341Y-155044999D01*
X125644341Y-155045000D01*
X125664936Y-155280403D01*
X125664938Y-155280413D01*
X125726094Y-155508655D01*
X125726096Y-155508659D01*
X125726097Y-155508663D01*
X125801333Y-155670007D01*
X125825965Y-155722830D01*
X125825967Y-155722834D01*
X125934281Y-155877521D01*
X125944000Y-155891402D01*
X125961501Y-155916395D01*
X125961506Y-155916402D01*
X126128597Y-156083493D01*
X126128603Y-156083498D01*
X126314158Y-156213425D01*
X126357783Y-156268002D01*
X126364977Y-156337500D01*
X126333454Y-156399855D01*
X126314158Y-156416575D01*
X126128597Y-156546505D01*
X125961505Y-156713597D01*
X125825965Y-156907169D01*
X125825964Y-156907171D01*
X125726098Y-157121335D01*
X125726094Y-157121344D01*
X125664938Y-157349586D01*
X125664936Y-157349596D01*
X125644341Y-157584999D01*
X125644341Y-157585000D01*
X125664936Y-157820403D01*
X125664938Y-157820413D01*
X125726094Y-158048655D01*
X125726096Y-158048659D01*
X125726097Y-158048663D01*
X125780153Y-158164586D01*
X125825965Y-158262830D01*
X125825967Y-158262834D01*
X125934281Y-158417521D01*
X125961501Y-158456396D01*
X125961506Y-158456402D01*
X126083818Y-158578714D01*
X126117303Y-158640037D01*
X126112319Y-158709729D01*
X126070447Y-158765662D01*
X126039471Y-158782577D01*
X125907912Y-158831646D01*
X125907906Y-158831649D01*
X125792812Y-158917809D01*
X125792809Y-158917812D01*
X125706649Y-159032906D01*
X125706645Y-159032913D01*
X125656403Y-159167620D01*
X125656401Y-159167627D01*
X125650000Y-159227155D01*
X125650000Y-159875000D01*
X126566988Y-159875000D01*
X126534075Y-159932007D01*
X126500000Y-160059174D01*
X126500000Y-160190826D01*
X126534075Y-160317993D01*
X126566988Y-160375000D01*
X125650000Y-160375000D01*
X125650000Y-161022844D01*
X125656401Y-161082372D01*
X125656403Y-161082379D01*
X125706645Y-161217086D01*
X125706649Y-161217093D01*
X125792809Y-161332187D01*
X125792812Y-161332190D01*
X125907906Y-161418350D01*
X125907913Y-161418354D01*
X126042620Y-161468596D01*
X126042627Y-161468598D01*
X126102155Y-161474999D01*
X126102172Y-161475000D01*
X126750000Y-161475000D01*
X126750000Y-160558012D01*
X126807007Y-160590925D01*
X126934174Y-160625000D01*
X127065826Y-160625000D01*
X127192993Y-160590925D01*
X127250000Y-160558012D01*
X127250000Y-161475000D01*
X127897828Y-161475000D01*
X127897844Y-161474999D01*
X127957372Y-161468598D01*
X127957379Y-161468596D01*
X128092086Y-161418354D01*
X128092093Y-161418350D01*
X128207187Y-161332190D01*
X128207190Y-161332187D01*
X128293350Y-161217093D01*
X128293354Y-161217086D01*
X128343596Y-161082379D01*
X128343598Y-161082372D01*
X128349999Y-161022844D01*
X128350000Y-161022827D01*
X128350000Y-160375000D01*
X127433012Y-160375000D01*
X127465925Y-160317993D01*
X127500000Y-160190826D01*
X127500000Y-160059174D01*
X127465925Y-159932007D01*
X127433012Y-159875000D01*
X128350000Y-159875000D01*
X128350000Y-159227172D01*
X128349999Y-159227155D01*
X128343598Y-159167627D01*
X128343596Y-159167620D01*
X128293354Y-159032913D01*
X128293350Y-159032906D01*
X128207190Y-158917812D01*
X128207187Y-158917809D01*
X128092093Y-158831649D01*
X128092088Y-158831646D01*
X127960528Y-158782577D01*
X127904595Y-158740705D01*
X127880178Y-158675241D01*
X127895030Y-158606968D01*
X127916175Y-158578720D01*
X128038495Y-158456401D01*
X128174035Y-158262830D01*
X128273903Y-158048663D01*
X128335063Y-157820408D01*
X128355659Y-157585000D01*
X128335063Y-157349592D01*
X128273903Y-157121337D01*
X128174035Y-156907171D01*
X128167963Y-156898498D01*
X128038494Y-156713597D01*
X127871402Y-156546506D01*
X127871396Y-156546501D01*
X127685842Y-156416575D01*
X127642217Y-156361998D01*
X127635023Y-156292500D01*
X127666546Y-156230145D01*
X127685842Y-156213425D01*
X127789762Y-156140659D01*
X127871401Y-156083495D01*
X128038495Y-155916401D01*
X128174035Y-155722830D01*
X128273903Y-155508663D01*
X128335063Y-155280408D01*
X128355659Y-155045000D01*
X128353472Y-155019999D01*
X129644341Y-155019999D01*
X129644341Y-155020000D01*
X129664936Y-155255403D01*
X129664938Y-155255413D01*
X129726094Y-155483655D01*
X129726096Y-155483659D01*
X129726097Y-155483663D01*
X129801715Y-155645826D01*
X129825965Y-155697830D01*
X129825967Y-155697834D01*
X129961501Y-155891395D01*
X129961506Y-155891402D01*
X130128597Y-156058493D01*
X130128603Y-156058498D01*
X130314158Y-156188425D01*
X130357783Y-156243002D01*
X130364977Y-156312500D01*
X130333454Y-156374855D01*
X130314158Y-156391575D01*
X130128597Y-156521505D01*
X129961505Y-156688597D01*
X129825965Y-156882169D01*
X129825964Y-156882171D01*
X129726098Y-157096335D01*
X129726094Y-157096344D01*
X129664938Y-157324586D01*
X129664936Y-157324596D01*
X129644341Y-157559999D01*
X129644341Y-157560000D01*
X129664936Y-157795403D01*
X129664938Y-157795413D01*
X129726094Y-158023655D01*
X129726096Y-158023659D01*
X129726097Y-158023663D01*
X129825965Y-158237830D01*
X129825967Y-158237834D01*
X129894004Y-158335000D01*
X129961501Y-158431396D01*
X129961506Y-158431402D01*
X130083818Y-158553714D01*
X130117303Y-158615037D01*
X130112319Y-158684729D01*
X130070447Y-158740662D01*
X130039471Y-158757577D01*
X129907912Y-158806646D01*
X129907906Y-158806649D01*
X129792812Y-158892809D01*
X129792809Y-158892812D01*
X129706649Y-159007906D01*
X129706645Y-159007913D01*
X129656403Y-159142620D01*
X129656401Y-159142627D01*
X129650000Y-159202155D01*
X129650000Y-159850000D01*
X130566988Y-159850000D01*
X130534075Y-159907007D01*
X130500000Y-160034174D01*
X130500000Y-160165826D01*
X130534075Y-160292993D01*
X130566988Y-160350000D01*
X129650000Y-160350000D01*
X129650000Y-160997844D01*
X129656401Y-161057372D01*
X129656403Y-161057379D01*
X129706645Y-161192086D01*
X129706649Y-161192093D01*
X129792809Y-161307187D01*
X129792812Y-161307190D01*
X129907906Y-161393350D01*
X129907913Y-161393354D01*
X130042620Y-161443596D01*
X130042627Y-161443598D01*
X130102155Y-161449999D01*
X130102172Y-161450000D01*
X130750000Y-161450000D01*
X130750000Y-160533012D01*
X130807007Y-160565925D01*
X130934174Y-160600000D01*
X131065826Y-160600000D01*
X131192993Y-160565925D01*
X131250000Y-160533012D01*
X131250000Y-161450000D01*
X131897828Y-161450000D01*
X131897844Y-161449999D01*
X131957372Y-161443598D01*
X131957379Y-161443596D01*
X132092086Y-161393354D01*
X132092093Y-161393350D01*
X132207187Y-161307190D01*
X132207190Y-161307187D01*
X132293350Y-161192093D01*
X132293354Y-161192086D01*
X132343596Y-161057379D01*
X132343598Y-161057372D01*
X132349999Y-160997844D01*
X132350000Y-160997827D01*
X132350000Y-160350000D01*
X131433012Y-160350000D01*
X131465925Y-160292993D01*
X131500000Y-160165826D01*
X131500000Y-160034174D01*
X131465925Y-159907007D01*
X131433012Y-159850000D01*
X132350000Y-159850000D01*
X132350000Y-159202172D01*
X132349999Y-159202155D01*
X132343598Y-159142627D01*
X132343596Y-159142620D01*
X132293354Y-159007913D01*
X132293350Y-159007906D01*
X132207190Y-158892812D01*
X132207187Y-158892809D01*
X132092093Y-158806649D01*
X132092088Y-158806646D01*
X131960528Y-158757577D01*
X131904595Y-158715705D01*
X131880178Y-158650241D01*
X131895030Y-158581968D01*
X131916175Y-158553720D01*
X132038495Y-158431401D01*
X132174035Y-158237830D01*
X132273903Y-158023663D01*
X132335063Y-157795408D01*
X132355659Y-157560000D01*
X132335063Y-157324592D01*
X132273903Y-157096337D01*
X132174035Y-156882171D01*
X132167862Y-156873354D01*
X132038494Y-156688597D01*
X131871402Y-156521506D01*
X131871396Y-156521501D01*
X131685842Y-156391575D01*
X131642217Y-156336998D01*
X131635023Y-156267500D01*
X131666546Y-156205145D01*
X131685842Y-156188425D01*
X131754059Y-156140659D01*
X131871401Y-156058495D01*
X132038495Y-155891401D01*
X132174035Y-155697830D01*
X132273903Y-155483663D01*
X132335063Y-155255408D01*
X132355659Y-155020000D01*
X132335063Y-154784592D01*
X132273903Y-154556337D01*
X132174035Y-154342171D01*
X132142191Y-154296692D01*
X132038494Y-154148597D01*
X131871402Y-153981506D01*
X131871395Y-153981501D01*
X131677834Y-153845967D01*
X131677830Y-153845965D01*
X131622146Y-153819999D01*
X131463663Y-153746097D01*
X131463659Y-153746096D01*
X131463655Y-153746094D01*
X131235413Y-153684938D01*
X131235403Y-153684936D01*
X131000001Y-153664341D01*
X130999999Y-153664341D01*
X130764596Y-153684936D01*
X130764586Y-153684938D01*
X130536344Y-153746094D01*
X130536335Y-153746098D01*
X130322171Y-153845964D01*
X130322169Y-153845965D01*
X130128597Y-153981505D01*
X129961505Y-154148597D01*
X129825965Y-154342169D01*
X129825964Y-154342171D01*
X129726098Y-154556335D01*
X129726094Y-154556344D01*
X129664938Y-154784586D01*
X129664936Y-154784596D01*
X129644341Y-155019999D01*
X128353472Y-155019999D01*
X128335063Y-154809592D01*
X128288626Y-154636285D01*
X128273905Y-154581344D01*
X128273904Y-154581343D01*
X128273903Y-154581337D01*
X128174035Y-154367171D01*
X128167963Y-154358498D01*
X128038494Y-154173597D01*
X127871402Y-154006506D01*
X127871395Y-154006501D01*
X127865068Y-154002071D01*
X127797829Y-153954989D01*
X127677834Y-153870967D01*
X127677830Y-153870965D01*
X127677828Y-153870964D01*
X127463663Y-153771097D01*
X127463659Y-153771096D01*
X127463655Y-153771094D01*
X127235413Y-153709938D01*
X127235403Y-153709936D01*
X127000001Y-153689341D01*
X126999999Y-153689341D01*
X126764596Y-153709936D01*
X126764586Y-153709938D01*
X126536344Y-153771094D01*
X126536335Y-153771098D01*
X126322171Y-153870964D01*
X126322169Y-153870965D01*
X126128597Y-154006505D01*
X125961505Y-154173597D01*
X125825965Y-154367169D01*
X125825964Y-154367171D01*
X125726098Y-154581335D01*
X125726094Y-154581344D01*
X125664938Y-154809586D01*
X125664936Y-154809596D01*
X125644341Y-155044999D01*
X124355659Y-155044999D01*
X124335063Y-154809592D01*
X124288626Y-154636285D01*
X124273905Y-154581344D01*
X124273904Y-154581343D01*
X124273903Y-154581337D01*
X124174035Y-154367171D01*
X124167963Y-154358498D01*
X124038494Y-154173597D01*
X123871402Y-154006506D01*
X123871395Y-154006501D01*
X123865068Y-154002071D01*
X123797829Y-153954989D01*
X123677834Y-153870967D01*
X123677830Y-153870965D01*
X123677828Y-153870964D01*
X123463663Y-153771097D01*
X123463659Y-153771096D01*
X123463655Y-153771094D01*
X123235413Y-153709938D01*
X123235403Y-153709936D01*
X123000001Y-153689341D01*
X122999999Y-153689341D01*
X122764596Y-153709936D01*
X122764586Y-153709938D01*
X122536344Y-153771094D01*
X122536335Y-153771098D01*
X122322171Y-153870964D01*
X122322169Y-153870965D01*
X122128597Y-154006505D01*
X121961505Y-154173597D01*
X121825965Y-154367169D01*
X121825964Y-154367171D01*
X121726098Y-154581335D01*
X121726094Y-154581344D01*
X121664938Y-154809586D01*
X121664936Y-154809596D01*
X121644341Y-155044999D01*
X120354346Y-155044999D01*
X120348440Y-154977486D01*
X120335063Y-154824592D01*
X120273903Y-154596337D01*
X120174035Y-154382171D01*
X120155040Y-154355042D01*
X120038494Y-154188597D01*
X119871402Y-154021506D01*
X119871395Y-154021501D01*
X119677834Y-153885967D01*
X119677830Y-153885965D01*
X119592050Y-153845965D01*
X119463663Y-153786097D01*
X119463659Y-153786096D01*
X119463655Y-153786094D01*
X119235413Y-153724938D01*
X119235403Y-153724936D01*
X119000001Y-153704341D01*
X118999999Y-153704341D01*
X118764596Y-153724936D01*
X118764586Y-153724938D01*
X118536344Y-153786094D01*
X118536335Y-153786098D01*
X118322171Y-153885964D01*
X118322169Y-153885965D01*
X118128597Y-154021505D01*
X117961505Y-154188597D01*
X117825965Y-154382169D01*
X117825964Y-154382171D01*
X117726098Y-154596335D01*
X117726094Y-154596344D01*
X117664938Y-154824586D01*
X117664936Y-154824596D01*
X117644341Y-155059999D01*
X86658478Y-155059999D01*
X86809657Y-154908820D01*
X86940134Y-154722482D01*
X87036265Y-154516326D01*
X87036269Y-154516317D01*
X87088872Y-154320000D01*
X86125686Y-154320000D01*
X86130080Y-154315606D01*
X86182741Y-154224394D01*
X86210000Y-154122661D01*
X86210000Y-154017339D01*
X86182741Y-153915606D01*
X86130080Y-153824394D01*
X86125686Y-153820000D01*
X87088872Y-153820000D01*
X87088872Y-153819999D01*
X87036269Y-153623682D01*
X87036265Y-153623673D01*
X86940134Y-153417517D01*
X86809657Y-153231179D01*
X86648820Y-153070342D01*
X86462482Y-152939865D01*
X86256328Y-152843734D01*
X86060000Y-152791127D01*
X86060000Y-153754314D01*
X86055606Y-153749920D01*
X85964394Y-153697259D01*
X85862661Y-153670000D01*
X85757339Y-153670000D01*
X85655606Y-153697259D01*
X85564394Y-153749920D01*
X85560000Y-153754314D01*
X85560000Y-152791127D01*
X85363671Y-152843734D01*
X85157517Y-152939865D01*
X84971179Y-153070342D01*
X84810342Y-153231179D01*
X84679867Y-153417515D01*
X84652657Y-153475867D01*
X84606484Y-153528306D01*
X84539290Y-153547457D01*
X84472409Y-153527241D01*
X84427893Y-153475865D01*
X84407066Y-153431202D01*
X84400568Y-153417266D01*
X84270047Y-153230861D01*
X84270045Y-153230858D01*
X84109141Y-153069954D01*
X83922734Y-152939432D01*
X83922732Y-152939431D01*
X83716497Y-152843261D01*
X83716488Y-152843258D01*
X83496697Y-152784366D01*
X83496693Y-152784365D01*
X83496692Y-152784365D01*
X83496691Y-152784364D01*
X83496686Y-152784364D01*
X83270002Y-152764532D01*
X83269998Y-152764532D01*
X83043313Y-152784364D01*
X83043302Y-152784366D01*
X82823511Y-152843258D01*
X82823502Y-152843261D01*
X82617267Y-152939431D01*
X82617265Y-152939432D01*
X82430858Y-153069954D01*
X82269954Y-153230858D01*
X82139432Y-153417265D01*
X82139431Y-153417267D01*
X82112382Y-153475275D01*
X82066209Y-153527714D01*
X81999016Y-153546866D01*
X81932135Y-153526650D01*
X81887618Y-153475275D01*
X81867067Y-153431204D01*
X81860568Y-153417266D01*
X81730047Y-153230861D01*
X81730045Y-153230858D01*
X81569141Y-153069954D01*
X81382734Y-152939432D01*
X81382732Y-152939431D01*
X81176497Y-152843261D01*
X81176488Y-152843258D01*
X80956697Y-152784366D01*
X80956693Y-152784365D01*
X80956692Y-152784365D01*
X80956691Y-152784364D01*
X80956686Y-152784364D01*
X80730002Y-152764532D01*
X80729998Y-152764532D01*
X80503313Y-152784364D01*
X80503302Y-152784366D01*
X80283511Y-152843258D01*
X80283502Y-152843261D01*
X80077267Y-152939431D01*
X80077265Y-152939432D01*
X79890858Y-153069954D01*
X79729954Y-153230858D01*
X79599432Y-153417265D01*
X79599431Y-153417267D01*
X79572382Y-153475275D01*
X79526209Y-153527714D01*
X79459016Y-153546866D01*
X79392135Y-153526650D01*
X79347618Y-153475275D01*
X79327067Y-153431204D01*
X79320568Y-153417266D01*
X79190047Y-153230861D01*
X79190045Y-153230858D01*
X79029141Y-153069954D01*
X78842734Y-152939432D01*
X78842732Y-152939431D01*
X78636497Y-152843261D01*
X78636488Y-152843258D01*
X78416697Y-152784366D01*
X78416693Y-152784365D01*
X78416692Y-152784365D01*
X78416691Y-152784364D01*
X78416686Y-152784364D01*
X78190002Y-152764532D01*
X78189998Y-152764532D01*
X77963313Y-152784364D01*
X77963302Y-152784366D01*
X77743511Y-152843258D01*
X77743502Y-152843261D01*
X77537267Y-152939431D01*
X77537265Y-152939432D01*
X77350858Y-153069954D01*
X77189954Y-153230858D01*
X77059432Y-153417265D01*
X77059431Y-153417267D01*
X77032382Y-153475275D01*
X76986209Y-153527714D01*
X76919016Y-153546866D01*
X76852135Y-153526650D01*
X76807618Y-153475275D01*
X76787067Y-153431204D01*
X76780568Y-153417266D01*
X76650047Y-153230861D01*
X76650045Y-153230858D01*
X76489141Y-153069954D01*
X76302734Y-152939432D01*
X76302732Y-152939431D01*
X76096497Y-152843261D01*
X76096488Y-152843258D01*
X75876697Y-152784366D01*
X75876693Y-152784365D01*
X75876692Y-152784365D01*
X75876691Y-152784364D01*
X75876686Y-152784364D01*
X75650002Y-152764532D01*
X75649998Y-152764532D01*
X75423313Y-152784364D01*
X75423302Y-152784366D01*
X75203511Y-152843258D01*
X75203502Y-152843261D01*
X74997267Y-152939431D01*
X74997265Y-152939432D01*
X74810858Y-153069954D01*
X74649954Y-153230858D01*
X74519433Y-153417264D01*
X74519432Y-153417266D01*
X74512934Y-153431202D01*
X74492106Y-153475867D01*
X74445933Y-153528306D01*
X74378739Y-153547457D01*
X74311858Y-153527241D01*
X74267342Y-153475865D01*
X74240135Y-153417520D01*
X74240134Y-153417518D01*
X74109657Y-153231179D01*
X73948820Y-153070342D01*
X73762482Y-152939865D01*
X73556328Y-152843734D01*
X73360000Y-152791127D01*
X73360000Y-153754314D01*
X73355606Y-153749920D01*
X73264394Y-153697259D01*
X73162661Y-153670000D01*
X73057339Y-153670000D01*
X72955606Y-153697259D01*
X72864394Y-153749920D01*
X72860000Y-153754314D01*
X72860000Y-152791127D01*
X72663671Y-152843734D01*
X72457517Y-152939865D01*
X72271179Y-153070342D01*
X72110339Y-153231182D01*
X72092806Y-153256222D01*
X72038229Y-153299845D01*
X71968730Y-153307037D01*
X71906376Y-153275513D01*
X71870963Y-153215283D01*
X71867943Y-153198349D01*
X71864091Y-153162516D01*
X71813797Y-153027671D01*
X71813793Y-153027664D01*
X71727547Y-152912455D01*
X71727544Y-152912452D01*
X71612335Y-152826206D01*
X71612328Y-152826202D01*
X71477482Y-152775908D01*
X71477483Y-152775908D01*
X71417883Y-152769501D01*
X71417881Y-152769500D01*
X71417873Y-152769500D01*
X71417864Y-152769500D01*
X69722129Y-152769500D01*
X69722123Y-152769501D01*
X69662516Y-152775908D01*
X69527671Y-152826202D01*
X69527664Y-152826206D01*
X69412455Y-152912452D01*
X69412452Y-152912455D01*
X69326206Y-153027664D01*
X69326202Y-153027671D01*
X69275908Y-153162517D01*
X69269501Y-153222116D01*
X69269500Y-153222135D01*
X69269500Y-154917870D01*
X69269501Y-154917875D01*
X69270569Y-154927814D01*
X69258158Y-154996573D01*
X69210543Y-155047707D01*
X69142843Y-155064981D01*
X69133395Y-155064280D01*
X68950739Y-155043700D01*
X68950731Y-155043700D01*
X68771485Y-155063895D01*
X68771480Y-155063896D01*
X68601211Y-155123476D01*
X68448472Y-155219449D01*
X68320919Y-155347002D01*
X68224946Y-155499741D01*
X68165366Y-155670010D01*
X68165365Y-155670015D01*
X68145170Y-155849261D01*
X66054719Y-155849261D01*
X66048047Y-155772993D01*
X66035063Y-155624592D01*
X65973903Y-155396337D01*
X65874035Y-155182171D01*
X65873925Y-155182013D01*
X65738494Y-154988597D01*
X65571402Y-154821506D01*
X65571396Y-154821501D01*
X65385842Y-154691575D01*
X65342217Y-154636998D01*
X65335023Y-154567500D01*
X65366546Y-154505145D01*
X65385842Y-154488425D01*
X65408026Y-154472891D01*
X65571401Y-154358495D01*
X65738495Y-154191401D01*
X65874035Y-153997830D01*
X65973903Y-153783663D01*
X66035063Y-153555408D01*
X66055659Y-153320000D01*
X66053909Y-153299996D01*
X67244435Y-153299996D01*
X67244435Y-153300003D01*
X67264630Y-153479249D01*
X67264631Y-153479254D01*
X67324211Y-153649523D01*
X67410025Y-153786094D01*
X67420184Y-153802262D01*
X67547738Y-153929816D01*
X67630002Y-153981506D01*
X67693661Y-154021506D01*
X67700478Y-154025789D01*
X67826826Y-154070000D01*
X67870745Y-154085368D01*
X67870750Y-154085369D01*
X68049996Y-154105565D01*
X68050000Y-154105565D01*
X68050004Y-154105565D01*
X68229249Y-154085369D01*
X68229252Y-154085368D01*
X68229255Y-154085368D01*
X68399522Y-154025789D01*
X68552262Y-153929816D01*
X68679816Y-153802262D01*
X68775789Y-153649522D01*
X68835368Y-153479255D01*
X68835750Y-153475865D01*
X68855565Y-153300003D01*
X68855565Y-153299996D01*
X68835369Y-153120750D01*
X68835368Y-153120745D01*
X68834683Y-153118787D01*
X68775789Y-152950478D01*
X68775188Y-152949522D01*
X68732700Y-152881902D01*
X68679816Y-152797738D01*
X68552262Y-152670184D01*
X68507680Y-152642171D01*
X68399523Y-152574211D01*
X68229254Y-152514631D01*
X68229249Y-152514630D01*
X68050004Y-152494435D01*
X68049996Y-152494435D01*
X67870750Y-152514630D01*
X67870745Y-152514631D01*
X67700476Y-152574211D01*
X67547737Y-152670184D01*
X67420184Y-152797737D01*
X67324211Y-152950476D01*
X67264631Y-153120745D01*
X67264630Y-153120750D01*
X67244435Y-153299996D01*
X66053909Y-153299996D01*
X66035063Y-153084592D01*
X65973903Y-152856337D01*
X65874035Y-152642171D01*
X65873925Y-152642013D01*
X65738494Y-152448597D01*
X65571402Y-152281506D01*
X65571396Y-152281501D01*
X65385842Y-152151575D01*
X65342217Y-152096998D01*
X65335023Y-152027500D01*
X65348927Y-151999996D01*
X95394435Y-151999996D01*
X95394435Y-152000003D01*
X95414630Y-152179249D01*
X95414631Y-152179254D01*
X95474211Y-152349523D01*
X95536464Y-152448597D01*
X95570184Y-152502262D01*
X95697738Y-152629816D01*
X95850478Y-152725789D01*
X95974734Y-152769268D01*
X96020745Y-152785368D01*
X96020750Y-152785369D01*
X96092712Y-152793476D01*
X96147391Y-152799637D01*
X96211805Y-152826703D01*
X96250549Y-152881902D01*
X96274209Y-152949518D01*
X96274210Y-152949522D01*
X96350213Y-153070478D01*
X96370184Y-153102262D01*
X96497738Y-153229816D01*
X96650478Y-153325789D01*
X96690264Y-153339710D01*
X96718095Y-153349449D01*
X96774871Y-153390171D01*
X96800361Y-153452607D01*
X96814630Y-153579250D01*
X96814631Y-153579254D01*
X96874211Y-153749523D01*
X96934810Y-153845965D01*
X96970184Y-153902262D01*
X97097738Y-154029816D01*
X97175210Y-154078495D01*
X97245499Y-154122661D01*
X97250478Y-154125789D01*
X97387111Y-154173599D01*
X97420745Y-154185368D01*
X97420750Y-154185369D01*
X97599996Y-154205565D01*
X97600000Y-154205565D01*
X97600004Y-154205565D01*
X97779249Y-154185369D01*
X97779252Y-154185368D01*
X97779255Y-154185368D01*
X97949522Y-154125789D01*
X98102262Y-154029816D01*
X98229816Y-153902262D01*
X98309321Y-153775731D01*
X99370170Y-153775731D01*
X99370170Y-153775738D01*
X99390365Y-153954984D01*
X99390366Y-153954989D01*
X99449946Y-154125258D01*
X99500407Y-154205565D01*
X99545919Y-154277997D01*
X99673473Y-154405551D01*
X99826213Y-154501524D01*
X99982854Y-154556335D01*
X99996480Y-154561103D01*
X99996485Y-154561104D01*
X100175731Y-154581300D01*
X100175735Y-154581300D01*
X100175739Y-154581300D01*
X100354984Y-154561104D01*
X100354987Y-154561103D01*
X100354990Y-154561103D01*
X100525257Y-154501524D01*
X100677997Y-154405551D01*
X100805551Y-154277997D01*
X100824114Y-154248452D01*
X100876444Y-154202163D01*
X100945498Y-154191513D01*
X100970052Y-154197381D01*
X100992877Y-154205368D01*
X100992884Y-154205368D01*
X100992885Y-154205369D01*
X101172128Y-154225565D01*
X101172132Y-154225565D01*
X101172136Y-154225565D01*
X101351381Y-154205369D01*
X101351384Y-154205368D01*
X101351387Y-154205368D01*
X101521654Y-154145789D01*
X101674394Y-154049816D01*
X101801948Y-153922262D01*
X101897921Y-153769522D01*
X101957500Y-153599255D01*
X101957813Y-153596480D01*
X101977697Y-153420003D01*
X101977697Y-153419996D01*
X101957501Y-153240750D01*
X101957500Y-153240745D01*
X101914825Y-153118787D01*
X101897921Y-153070478D01*
X101878770Y-153040000D01*
X101822520Y-152950478D01*
X101801948Y-152917738D01*
X101674394Y-152790184D01*
X101665132Y-152784364D01*
X101641096Y-152769261D01*
X102463700Y-152769261D01*
X102463700Y-152769268D01*
X102483895Y-152948514D01*
X102483896Y-152948519D01*
X102543476Y-153118788D01*
X102629832Y-153256222D01*
X102639449Y-153271527D01*
X102767003Y-153399081D01*
X102818130Y-153431206D01*
X102894589Y-153479249D01*
X102919743Y-153495054D01*
X103013080Y-153527714D01*
X103090010Y-153554633D01*
X103090015Y-153554634D01*
X103269261Y-153574830D01*
X103269265Y-153574830D01*
X103269269Y-153574830D01*
X103448514Y-153554634D01*
X103448517Y-153554633D01*
X103448520Y-153554633D01*
X103618787Y-153495054D01*
X103771527Y-153399081D01*
X103899081Y-153271527D01*
X103995054Y-153118787D01*
X104054633Y-152948520D01*
X104055657Y-152939431D01*
X104074830Y-152769268D01*
X104074830Y-152769261D01*
X104054634Y-152590015D01*
X104054633Y-152590010D01*
X104028256Y-152514630D01*
X103995054Y-152419743D01*
X103899081Y-152267003D01*
X103771527Y-152139449D01*
X103764216Y-152134855D01*
X103618788Y-152043476D01*
X103448519Y-151983896D01*
X103448514Y-151983895D01*
X103269269Y-151963700D01*
X103269261Y-151963700D01*
X103090015Y-151983895D01*
X103090010Y-151983896D01*
X102919741Y-152043476D01*
X102767002Y-152139449D01*
X102639449Y-152267002D01*
X102543476Y-152419741D01*
X102483896Y-152590010D01*
X102483895Y-152590015D01*
X102463700Y-152769261D01*
X101641096Y-152769261D01*
X101521655Y-152694211D01*
X101351386Y-152634631D01*
X101351382Y-152634630D01*
X101207325Y-152618399D01*
X101142911Y-152591332D01*
X101116215Y-152561151D01*
X101107568Y-152547390D01*
X101095235Y-152527761D01*
X100967681Y-152400207D01*
X100814942Y-152304234D01*
X100644673Y-152244654D01*
X100644668Y-152244653D01*
X100465423Y-152224458D01*
X100465415Y-152224458D01*
X100286169Y-152244653D01*
X100286164Y-152244654D01*
X100115895Y-152304234D01*
X99963156Y-152400207D01*
X99835603Y-152527760D01*
X99739630Y-152680499D01*
X99680050Y-152850768D01*
X99680049Y-152850773D01*
X99659854Y-153030019D01*
X99659854Y-153030028D01*
X99666282Y-153087083D01*
X99654227Y-153155904D01*
X99630744Y-153188645D01*
X99545921Y-153273468D01*
X99545921Y-153273469D01*
X99449946Y-153426211D01*
X99390366Y-153596480D01*
X99390365Y-153596485D01*
X99370170Y-153775731D01*
X98309321Y-153775731D01*
X98325789Y-153749522D01*
X98385368Y-153579255D01*
X98385867Y-153574830D01*
X98405565Y-153400003D01*
X98405565Y-153399996D01*
X98385369Y-153220750D01*
X98385368Y-153220745D01*
X98343909Y-153102262D01*
X98325789Y-153050478D01*
X98312939Y-153030028D01*
X98262955Y-152950478D01*
X98229816Y-152897738D01*
X98102262Y-152770184D01*
X98093267Y-152764532D01*
X97949522Y-152674210D01*
X97949518Y-152674209D01*
X97881902Y-152650549D01*
X97825126Y-152609828D01*
X97799637Y-152547390D01*
X97797425Y-152527761D01*
X97793476Y-152492712D01*
X97785369Y-152420750D01*
X97785368Y-152420745D01*
X97725788Y-152250476D01*
X97629815Y-152097737D01*
X97502262Y-151970184D01*
X97349523Y-151874211D01*
X97179254Y-151814631D01*
X97179250Y-151814630D01*
X97052607Y-151800361D01*
X96988193Y-151773294D01*
X96949449Y-151718095D01*
X96925788Y-151650476D01*
X96849528Y-151529110D01*
X96829816Y-151497738D01*
X96702262Y-151370184D01*
X96549523Y-151274211D01*
X96379254Y-151214631D01*
X96379249Y-151214630D01*
X96200004Y-151194435D01*
X96199996Y-151194435D01*
X96020750Y-151214630D01*
X96020745Y-151214631D01*
X95850476Y-151274211D01*
X95697737Y-151370184D01*
X95570184Y-151497737D01*
X95474211Y-151650476D01*
X95414631Y-151820745D01*
X95414630Y-151820750D01*
X95394435Y-151999996D01*
X65348927Y-151999996D01*
X65366546Y-151965145D01*
X65385842Y-151948425D01*
X65495595Y-151871575D01*
X65571401Y-151818495D01*
X65738495Y-151651401D01*
X65874035Y-151457830D01*
X65973903Y-151243663D01*
X66035063Y-151015408D01*
X66055659Y-150780000D01*
X66035063Y-150544592D01*
X65973903Y-150316337D01*
X65874035Y-150102171D01*
X65873925Y-150102013D01*
X65738494Y-149908597D01*
X65571402Y-149741506D01*
X65571396Y-149741501D01*
X65385842Y-149611575D01*
X65342217Y-149556998D01*
X65335023Y-149487500D01*
X65366546Y-149425145D01*
X65385842Y-149408425D01*
X65503604Y-149325967D01*
X65571401Y-149278495D01*
X65738495Y-149111401D01*
X65852027Y-148949261D01*
X90095170Y-148949261D01*
X90095170Y-148949268D01*
X90115365Y-149128514D01*
X90115366Y-149128519D01*
X90174946Y-149298788D01*
X90229208Y-149385145D01*
X90270919Y-149451527D01*
X90398473Y-149579081D01*
X90441259Y-149605965D01*
X90519763Y-149655293D01*
X90551213Y-149675054D01*
X90599888Y-149692086D01*
X90621485Y-149699643D01*
X90678261Y-149740365D01*
X90697572Y-149775730D01*
X90740631Y-149898784D01*
X90823639Y-150030890D01*
X90836606Y-150051527D01*
X90964160Y-150179081D01*
X91116900Y-150275054D01*
X91234874Y-150316335D01*
X91271515Y-150329156D01*
X91328291Y-150369878D01*
X91347602Y-150405243D01*
X91383235Y-150507075D01*
X91383236Y-150507077D01*
X91479209Y-150659817D01*
X91606763Y-150787371D01*
X91759503Y-150883344D01*
X91901392Y-150932993D01*
X91929770Y-150942923D01*
X91929775Y-150942924D01*
X92109021Y-150963120D01*
X92109025Y-150963120D01*
X92109029Y-150963120D01*
X92288274Y-150942924D01*
X92288277Y-150942923D01*
X92288280Y-150942923D01*
X92458547Y-150883344D01*
X92611287Y-150787371D01*
X92619246Y-150779412D01*
X98719435Y-150779412D01*
X98719435Y-150779419D01*
X98739630Y-150958665D01*
X98739631Y-150958670D01*
X98799211Y-151128939D01*
X98871298Y-151243664D01*
X98895184Y-151281678D01*
X99022738Y-151409232D01*
X99100081Y-151457830D01*
X99163592Y-151497737D01*
X99175478Y-151505205D01*
X99270624Y-151538498D01*
X99345745Y-151564784D01*
X99345750Y-151564785D01*
X99524996Y-151584981D01*
X99525000Y-151584981D01*
X99525004Y-151584981D01*
X99704249Y-151564785D01*
X99704252Y-151564784D01*
X99704255Y-151564784D01*
X99874522Y-151505205D01*
X100027262Y-151409232D01*
X100154816Y-151281678D01*
X100250789Y-151128938D01*
X100310368Y-150958671D01*
X100310369Y-150958665D01*
X100330565Y-150779419D01*
X100330565Y-150779412D01*
X100310369Y-150600166D01*
X100310368Y-150600161D01*
X100290925Y-150544596D01*
X100250789Y-150429894D01*
X100154816Y-150277154D01*
X100153158Y-150275496D01*
X101209434Y-150275496D01*
X101209434Y-150275503D01*
X101229629Y-150454749D01*
X101229630Y-150454754D01*
X101289210Y-150625023D01*
X101311073Y-150659817D01*
X101385183Y-150777762D01*
X101512737Y-150905316D01*
X101556785Y-150932993D01*
X101647510Y-150990000D01*
X101665477Y-151001289D01*
X101796132Y-151047007D01*
X101835744Y-151060868D01*
X101835749Y-151060869D01*
X102014995Y-151081065D01*
X102014999Y-151081065D01*
X102015003Y-151081065D01*
X102194248Y-151060869D01*
X102194251Y-151060868D01*
X102194254Y-151060868D01*
X102364521Y-151001289D01*
X102517261Y-150905316D01*
X102644815Y-150777762D01*
X102740788Y-150625022D01*
X102784535Y-150499999D01*
X150544341Y-150499999D01*
X150544341Y-150500000D01*
X150564936Y-150735403D01*
X150564938Y-150735413D01*
X150626094Y-150963655D01*
X150626096Y-150963659D01*
X150626097Y-150963663D01*
X150664961Y-151047007D01*
X150725965Y-151177830D01*
X150725967Y-151177834D01*
X150861501Y-151371395D01*
X150861506Y-151371402D01*
X151028597Y-151538493D01*
X151028603Y-151538498D01*
X151214158Y-151668425D01*
X151257783Y-151723002D01*
X151264977Y-151792500D01*
X151233454Y-151854855D01*
X151214158Y-151871575D01*
X151028597Y-152001505D01*
X150861505Y-152168597D01*
X150725965Y-152362169D01*
X150725964Y-152362171D01*
X150626098Y-152576335D01*
X150626094Y-152576344D01*
X150564938Y-152804586D01*
X150564936Y-152804596D01*
X150544341Y-153039999D01*
X150544341Y-153040000D01*
X150564936Y-153275403D01*
X150564938Y-153275413D01*
X150626094Y-153503655D01*
X150626096Y-153503659D01*
X150626097Y-153503663D01*
X150710626Y-153684936D01*
X150725965Y-153717830D01*
X150725967Y-153717834D01*
X150833191Y-153870964D01*
X150861501Y-153911396D01*
X150861506Y-153911402D01*
X150983818Y-154033714D01*
X151017303Y-154095037D01*
X151012319Y-154164729D01*
X150970447Y-154220662D01*
X150939471Y-154237577D01*
X150807912Y-154286646D01*
X150807906Y-154286649D01*
X150692812Y-154372809D01*
X150692809Y-154372812D01*
X150606649Y-154487906D01*
X150606645Y-154487913D01*
X150556403Y-154622620D01*
X150556401Y-154622627D01*
X150550000Y-154682155D01*
X150550000Y-155330000D01*
X151466988Y-155330000D01*
X151434075Y-155387007D01*
X151400000Y-155514174D01*
X151400000Y-155645826D01*
X151434075Y-155772993D01*
X151466988Y-155830000D01*
X150550000Y-155830000D01*
X150550000Y-156477844D01*
X150556401Y-156537372D01*
X150556403Y-156537379D01*
X150606645Y-156672086D01*
X150606649Y-156672093D01*
X150692809Y-156787187D01*
X150692812Y-156787190D01*
X150807906Y-156873350D01*
X150807913Y-156873354D01*
X150942620Y-156923596D01*
X150942627Y-156923598D01*
X151002155Y-156929999D01*
X151002172Y-156930000D01*
X151650000Y-156930000D01*
X151650000Y-156013012D01*
X151707007Y-156045925D01*
X151834174Y-156080000D01*
X151965826Y-156080000D01*
X152092993Y-156045925D01*
X152150000Y-156013012D01*
X152150000Y-156930000D01*
X152797828Y-156930000D01*
X152797844Y-156929999D01*
X152857372Y-156923598D01*
X152857379Y-156923596D01*
X152992086Y-156873354D01*
X152992093Y-156873350D01*
X153107187Y-156787190D01*
X153107190Y-156787187D01*
X153193350Y-156672093D01*
X153193354Y-156672086D01*
X153243596Y-156537379D01*
X153243598Y-156537372D01*
X153249999Y-156477844D01*
X153250000Y-156477827D01*
X153250000Y-155830000D01*
X152333012Y-155830000D01*
X152365925Y-155772993D01*
X152400000Y-155645826D01*
X152400000Y-155514174D01*
X152365925Y-155387007D01*
X152333012Y-155330000D01*
X153250000Y-155330000D01*
X153250000Y-154682172D01*
X153249999Y-154682155D01*
X153243598Y-154622627D01*
X153243596Y-154622620D01*
X153193354Y-154487913D01*
X153193350Y-154487906D01*
X153107190Y-154372812D01*
X153107187Y-154372809D01*
X152992093Y-154286649D01*
X152992088Y-154286646D01*
X152860528Y-154237577D01*
X152804595Y-154195705D01*
X152780178Y-154130241D01*
X152795030Y-154061968D01*
X152816175Y-154033720D01*
X152938495Y-153911401D01*
X153074035Y-153717830D01*
X153173903Y-153503663D01*
X153235063Y-153275408D01*
X153255659Y-153040000D01*
X153235063Y-152804592D01*
X153173903Y-152576337D01*
X153074035Y-152362171D01*
X153065179Y-152349522D01*
X152938494Y-152168597D01*
X152771402Y-152001506D01*
X152771396Y-152001501D01*
X152585842Y-151871575D01*
X152542217Y-151816998D01*
X152535023Y-151747500D01*
X152566546Y-151685145D01*
X152585842Y-151668425D01*
X152705012Y-151584981D01*
X152771401Y-151538495D01*
X152938495Y-151371401D01*
X153074035Y-151177830D01*
X153173903Y-150963663D01*
X153235063Y-150735408D01*
X153255659Y-150500000D01*
X153235063Y-150264592D01*
X153173903Y-150036337D01*
X153074035Y-149822171D01*
X153064135Y-149808031D01*
X152938494Y-149628597D01*
X152771402Y-149461506D01*
X152771395Y-149461501D01*
X152577834Y-149325967D01*
X152577830Y-149325965D01*
X152577828Y-149325964D01*
X152363663Y-149226097D01*
X152363659Y-149226096D01*
X152363655Y-149226094D01*
X152135413Y-149164938D01*
X152135403Y-149164936D01*
X151900001Y-149144341D01*
X151899999Y-149144341D01*
X151664596Y-149164936D01*
X151664586Y-149164938D01*
X151436344Y-149226094D01*
X151436335Y-149226098D01*
X151222171Y-149325964D01*
X151222169Y-149325965D01*
X151028597Y-149461505D01*
X150861505Y-149628597D01*
X150725965Y-149822169D01*
X150725964Y-149822171D01*
X150626098Y-150036335D01*
X150626094Y-150036344D01*
X150564938Y-150264586D01*
X150564936Y-150264596D01*
X150544341Y-150499999D01*
X102784535Y-150499999D01*
X102800367Y-150454755D01*
X102803168Y-150429894D01*
X102820564Y-150275503D01*
X102820564Y-150275496D01*
X102800368Y-150096250D01*
X102800365Y-150096237D01*
X102749181Y-149949964D01*
X102745618Y-149880186D01*
X102761227Y-149843040D01*
X102772164Y-149825635D01*
X102831743Y-149655368D01*
X102831744Y-149655362D01*
X102851940Y-149476116D01*
X102851940Y-149476109D01*
X102831744Y-149296863D01*
X102831741Y-149296850D01*
X102772839Y-149128520D01*
X102772164Y-149126591D01*
X102772162Y-149126589D01*
X102771428Y-149124489D01*
X102767865Y-149054711D01*
X102783473Y-149017568D01*
X102812554Y-148971287D01*
X102820261Y-148949261D01*
X102872131Y-148801027D01*
X102872134Y-148801014D01*
X102892330Y-148621768D01*
X102892330Y-148621761D01*
X102872134Y-148442515D01*
X102872133Y-148442510D01*
X102824247Y-148305659D01*
X102812554Y-148272243D01*
X102716581Y-148119503D01*
X102589027Y-147991949D01*
X102578553Y-147985368D01*
X102436288Y-147895976D01*
X102266019Y-147836396D01*
X102266014Y-147836395D01*
X102086769Y-147816200D01*
X102086761Y-147816200D01*
X101907515Y-147836395D01*
X101907510Y-147836396D01*
X101737241Y-147895976D01*
X101584502Y-147991949D01*
X101456949Y-148119502D01*
X101360976Y-148272241D01*
X101301396Y-148442510D01*
X101301395Y-148442515D01*
X101281200Y-148621761D01*
X101281200Y-148621768D01*
X101301395Y-148801014D01*
X101301398Y-148801027D01*
X101361710Y-148973386D01*
X101365272Y-149043165D01*
X101349664Y-149080310D01*
X101320586Y-149126589D01*
X101320585Y-149126591D01*
X101261008Y-149296850D01*
X101261005Y-149296863D01*
X101240810Y-149476109D01*
X101240810Y-149476116D01*
X101261005Y-149655362D01*
X101261007Y-149655370D01*
X101312192Y-149801649D01*
X101315753Y-149871428D01*
X101300147Y-149908571D01*
X101289207Y-149925982D01*
X101229632Y-150096237D01*
X101229629Y-150096250D01*
X101209434Y-150275496D01*
X100153158Y-150275496D01*
X100027262Y-150149600D01*
X99982237Y-150121309D01*
X99874523Y-150053627D01*
X99704254Y-149994047D01*
X99704249Y-149994046D01*
X99525004Y-149973851D01*
X99524996Y-149973851D01*
X99345750Y-149994046D01*
X99345745Y-149994047D01*
X99175476Y-150053627D01*
X99022737Y-150149600D01*
X98895184Y-150277153D01*
X98799211Y-150429892D01*
X98739631Y-150600161D01*
X98739630Y-150600166D01*
X98719435Y-150779412D01*
X92619246Y-150779412D01*
X92738841Y-150659817D01*
X92834814Y-150507077D01*
X92894393Y-150336810D01*
X92894394Y-150336804D01*
X92914590Y-150157558D01*
X92914590Y-150157551D01*
X92894394Y-149978305D01*
X92894393Y-149978300D01*
X92882250Y-149943598D01*
X92834814Y-149808033D01*
X92834284Y-149807190D01*
X92761964Y-149692093D01*
X92738841Y-149655293D01*
X92611287Y-149527739D01*
X92574454Y-149504595D01*
X92458546Y-149431765D01*
X92369465Y-149400594D01*
X92303929Y-149377663D01*
X92247155Y-149336942D01*
X92227845Y-149301579D01*
X92192211Y-149199743D01*
X92096238Y-149047003D01*
X91968684Y-148919449D01*
X91815946Y-148823477D01*
X91815945Y-148823476D01*
X91745669Y-148798885D01*
X91688893Y-148758163D01*
X91669583Y-148722798D01*
X91626524Y-148599743D01*
X91557550Y-148489972D01*
X91538550Y-148422736D01*
X91558918Y-148355900D01*
X91612185Y-148310686D01*
X91662544Y-148300000D01*
X91750000Y-148300000D01*
X91750000Y-147383012D01*
X91807007Y-147415925D01*
X91934174Y-147450000D01*
X92065826Y-147450000D01*
X92192993Y-147415925D01*
X92250000Y-147383012D01*
X92250000Y-148300000D01*
X92897828Y-148300000D01*
X92897844Y-148299999D01*
X92957372Y-148293598D01*
X92957379Y-148293596D01*
X93092086Y-148243354D01*
X93092093Y-148243350D01*
X93207187Y-148157190D01*
X93207190Y-148157187D01*
X93293350Y-148042093D01*
X93293354Y-148042086D01*
X93342422Y-147910529D01*
X93384293Y-147854595D01*
X93449757Y-147830178D01*
X93518030Y-147845030D01*
X93546285Y-147866181D01*
X93668599Y-147988495D01*
X93736229Y-148035850D01*
X93862165Y-148124032D01*
X93862167Y-148124033D01*
X93862170Y-148124035D01*
X94076337Y-148223903D01*
X94304592Y-148285063D01*
X94475319Y-148300000D01*
X94539999Y-148305659D01*
X94540000Y-148305659D01*
X94540001Y-148305659D01*
X94604681Y-148300000D01*
X94775408Y-148285063D01*
X95003663Y-148223903D01*
X95217830Y-148124035D01*
X95411401Y-147988495D01*
X95578495Y-147821401D01*
X95708425Y-147635842D01*
X95763002Y-147592217D01*
X95832500Y-147585023D01*
X95894855Y-147616546D01*
X95911575Y-147635842D01*
X96041500Y-147821395D01*
X96041505Y-147821401D01*
X96208599Y-147988495D01*
X96276229Y-148035850D01*
X96402165Y-148124032D01*
X96402167Y-148124033D01*
X96402170Y-148124035D01*
X96616337Y-148223903D01*
X96844592Y-148285063D01*
X97015319Y-148300000D01*
X97079999Y-148305659D01*
X97080000Y-148305659D01*
X97080001Y-148305659D01*
X97144681Y-148300000D01*
X97315408Y-148285063D01*
X97543663Y-148223903D01*
X97757830Y-148124035D01*
X97951401Y-147988495D01*
X98118495Y-147821401D01*
X98201992Y-147702155D01*
X111900000Y-147702155D01*
X111900000Y-148350000D01*
X112816988Y-148350000D01*
X112784075Y-148407007D01*
X112750000Y-148534174D01*
X112750000Y-148665826D01*
X112784075Y-148792993D01*
X112816988Y-148850000D01*
X111900000Y-148850000D01*
X111900000Y-149497844D01*
X111906401Y-149557372D01*
X111906403Y-149557379D01*
X111956645Y-149692086D01*
X111956649Y-149692093D01*
X112042809Y-149807187D01*
X112042812Y-149807190D01*
X112157906Y-149893350D01*
X112157913Y-149893354D01*
X112292620Y-149943596D01*
X112292627Y-149943598D01*
X112352155Y-149949999D01*
X112352172Y-149950000D01*
X113000000Y-149950000D01*
X113000000Y-149033012D01*
X113057007Y-149065925D01*
X113184174Y-149100000D01*
X113315826Y-149100000D01*
X113442993Y-149065925D01*
X113500000Y-149033012D01*
X113500000Y-149950000D01*
X114147828Y-149950000D01*
X114147844Y-149949999D01*
X114207372Y-149943598D01*
X114207379Y-149943596D01*
X114342086Y-149893354D01*
X114342093Y-149893350D01*
X114457187Y-149807190D01*
X114457190Y-149807187D01*
X114543350Y-149692093D01*
X114543354Y-149692086D01*
X114592422Y-149560529D01*
X114634293Y-149504595D01*
X114699757Y-149480178D01*
X114768030Y-149495030D01*
X114796285Y-149516181D01*
X114918599Y-149638495D01*
X114970811Y-149675054D01*
X115112165Y-149774032D01*
X115112167Y-149774033D01*
X115112170Y-149774035D01*
X115326337Y-149873903D01*
X115326343Y-149873904D01*
X115326344Y-149873905D01*
X115381285Y-149888626D01*
X115554592Y-149935063D01*
X115725319Y-149950000D01*
X115789999Y-149955659D01*
X115790000Y-149955659D01*
X115790001Y-149955659D01*
X115854681Y-149950000D01*
X116025408Y-149935063D01*
X116253663Y-149873903D01*
X116467830Y-149774035D01*
X116661401Y-149638495D01*
X116828495Y-149471401D01*
X116958425Y-149285842D01*
X117013002Y-149242217D01*
X117082500Y-149235023D01*
X117144855Y-149266546D01*
X117161575Y-149285842D01*
X117291500Y-149471395D01*
X117291505Y-149471401D01*
X117458599Y-149638495D01*
X117510811Y-149675054D01*
X117652165Y-149774032D01*
X117652167Y-149774033D01*
X117652170Y-149774035D01*
X117866337Y-149873903D01*
X117866343Y-149873904D01*
X117866344Y-149873905D01*
X117921285Y-149888626D01*
X118094592Y-149935063D01*
X118265319Y-149950000D01*
X118329999Y-149955659D01*
X118330000Y-149955659D01*
X118330001Y-149955659D01*
X118394681Y-149950000D01*
X118565408Y-149935063D01*
X118793663Y-149873903D01*
X119007830Y-149774035D01*
X119201401Y-149638495D01*
X119368495Y-149471401D01*
X119498425Y-149285842D01*
X119553002Y-149242217D01*
X119622500Y-149235023D01*
X119684855Y-149266546D01*
X119701575Y-149285842D01*
X119831500Y-149471395D01*
X119831505Y-149471401D01*
X119998599Y-149638495D01*
X120050811Y-149675054D01*
X120192165Y-149774032D01*
X120192167Y-149774033D01*
X120192170Y-149774035D01*
X120406337Y-149873903D01*
X120406343Y-149873904D01*
X120406344Y-149873905D01*
X120461285Y-149888626D01*
X120634592Y-149935063D01*
X120805319Y-149950000D01*
X120869999Y-149955659D01*
X120870000Y-149955659D01*
X120870001Y-149955659D01*
X120934681Y-149950000D01*
X121105408Y-149935063D01*
X121333663Y-149873903D01*
X121547830Y-149774035D01*
X121741401Y-149638495D01*
X121908495Y-149471401D01*
X122044035Y-149277830D01*
X122143903Y-149063663D01*
X122205063Y-148835408D01*
X122225659Y-148600000D01*
X122205063Y-148364592D01*
X122151288Y-148163897D01*
X122143905Y-148136344D01*
X122143904Y-148136343D01*
X122143903Y-148136337D01*
X122044035Y-147922171D01*
X122038425Y-147914158D01*
X121908494Y-147728597D01*
X121741402Y-147561506D01*
X121741395Y-147561501D01*
X121724287Y-147549522D01*
X121664854Y-147507906D01*
X121547834Y-147425967D01*
X121547830Y-147425965D01*
X121447658Y-147379254D01*
X121333663Y-147326097D01*
X121333659Y-147326096D01*
X121333655Y-147326094D01*
X121105413Y-147264938D01*
X121105403Y-147264936D01*
X120870001Y-147244341D01*
X120869999Y-147244341D01*
X120634596Y-147264936D01*
X120634586Y-147264938D01*
X120406344Y-147326094D01*
X120406335Y-147326098D01*
X120192171Y-147425964D01*
X120192169Y-147425965D01*
X119998597Y-147561505D01*
X119831505Y-147728597D01*
X119701575Y-147914158D01*
X119646998Y-147957783D01*
X119577500Y-147964977D01*
X119515145Y-147933454D01*
X119498425Y-147914158D01*
X119368494Y-147728597D01*
X119201402Y-147561506D01*
X119201395Y-147561501D01*
X119184287Y-147549522D01*
X119124854Y-147507906D01*
X119007834Y-147425967D01*
X119007830Y-147425965D01*
X118907658Y-147379254D01*
X118793663Y-147326097D01*
X118793659Y-147326096D01*
X118793655Y-147326094D01*
X118565413Y-147264938D01*
X118565403Y-147264936D01*
X118330001Y-147244341D01*
X118329999Y-147244341D01*
X118094596Y-147264936D01*
X118094586Y-147264938D01*
X117866344Y-147326094D01*
X117866335Y-147326098D01*
X117652171Y-147425964D01*
X117652169Y-147425965D01*
X117458597Y-147561505D01*
X117291505Y-147728597D01*
X117161575Y-147914158D01*
X117106998Y-147957783D01*
X117037500Y-147964977D01*
X116975145Y-147933454D01*
X116958425Y-147914158D01*
X116828494Y-147728597D01*
X116661402Y-147561506D01*
X116661395Y-147561501D01*
X116644287Y-147549522D01*
X116584854Y-147507906D01*
X116467834Y-147425967D01*
X116467830Y-147425965D01*
X116367658Y-147379254D01*
X116253663Y-147326097D01*
X116253659Y-147326096D01*
X116253655Y-147326094D01*
X116025413Y-147264938D01*
X116025403Y-147264936D01*
X115790001Y-147244341D01*
X115789999Y-147244341D01*
X115554596Y-147264936D01*
X115554586Y-147264938D01*
X115326344Y-147326094D01*
X115326335Y-147326098D01*
X115112171Y-147425964D01*
X115112169Y-147425965D01*
X114918600Y-147561503D01*
X114796284Y-147683819D01*
X114734961Y-147717303D01*
X114665269Y-147712319D01*
X114609336Y-147670447D01*
X114592421Y-147639470D01*
X114543354Y-147507913D01*
X114543350Y-147507906D01*
X114457190Y-147392812D01*
X114457187Y-147392809D01*
X114342093Y-147306649D01*
X114342086Y-147306645D01*
X114207379Y-147256403D01*
X114207372Y-147256401D01*
X114147844Y-147250000D01*
X113500000Y-147250000D01*
X113500000Y-148166988D01*
X113442993Y-148134075D01*
X113315826Y-148100000D01*
X113184174Y-148100000D01*
X113057007Y-148134075D01*
X113000000Y-148166988D01*
X113000000Y-147250000D01*
X112352155Y-147250000D01*
X112292627Y-147256401D01*
X112292620Y-147256403D01*
X112157913Y-147306645D01*
X112157906Y-147306649D01*
X112042812Y-147392809D01*
X112042809Y-147392812D01*
X111956649Y-147507906D01*
X111956645Y-147507913D01*
X111906403Y-147642620D01*
X111906401Y-147642627D01*
X111900000Y-147702155D01*
X98201992Y-147702155D01*
X98254035Y-147627830D01*
X98353903Y-147413663D01*
X98411154Y-147199996D01*
X139294435Y-147199996D01*
X139294435Y-147200000D01*
X139314630Y-147379249D01*
X139314631Y-147379254D01*
X139374211Y-147549523D01*
X139430729Y-147639470D01*
X139470184Y-147702262D01*
X139597738Y-147829816D01*
X139637174Y-147854595D01*
X139744716Y-147922169D01*
X139750478Y-147925789D01*
X139841912Y-147957783D01*
X139920745Y-147985368D01*
X139920750Y-147985369D01*
X140099996Y-148005565D01*
X140100000Y-148005565D01*
X140100004Y-148005565D01*
X140279249Y-147985369D01*
X140279252Y-147985368D01*
X140279255Y-147985368D01*
X140449522Y-147925789D01*
X140602262Y-147829816D01*
X140729816Y-147702262D01*
X140825789Y-147549522D01*
X140885368Y-147379255D01*
X140891040Y-147328920D01*
X140894299Y-147299996D01*
X152994435Y-147299996D01*
X152994435Y-147300003D01*
X153014630Y-147479249D01*
X153014631Y-147479254D01*
X153074211Y-147649523D01*
X153123897Y-147728597D01*
X153170184Y-147802262D01*
X153297738Y-147929816D01*
X153386148Y-147985368D01*
X153420586Y-148007007D01*
X153450478Y-148025789D01*
X153620745Y-148085368D01*
X153620750Y-148085369D01*
X153799996Y-148105565D01*
X153800000Y-148105565D01*
X153800004Y-148105565D01*
X153979249Y-148085369D01*
X153979252Y-148085368D01*
X153979255Y-148085368D01*
X154149522Y-148025789D01*
X154302262Y-147929816D01*
X154429816Y-147802262D01*
X154525789Y-147649522D01*
X154585368Y-147479255D01*
X154588659Y-147450045D01*
X154605565Y-147300003D01*
X154605565Y-147299996D01*
X154585369Y-147120750D01*
X154585368Y-147120745D01*
X154537998Y-146985369D01*
X154525789Y-146950478D01*
X154429816Y-146797738D01*
X154302262Y-146670184D01*
X154258988Y-146642993D01*
X154149523Y-146574211D01*
X153979254Y-146514631D01*
X153979249Y-146514630D01*
X153800004Y-146494435D01*
X153799996Y-146494435D01*
X153620750Y-146514630D01*
X153620745Y-146514631D01*
X153450476Y-146574211D01*
X153297737Y-146670184D01*
X153170184Y-146797737D01*
X153074211Y-146950476D01*
X153014631Y-147120745D01*
X153014630Y-147120750D01*
X152994435Y-147299996D01*
X140894299Y-147299996D01*
X140905565Y-147200000D01*
X140905565Y-147199996D01*
X140885369Y-147020750D01*
X140885368Y-147020745D01*
X140868501Y-146972542D01*
X140825789Y-146850478D01*
X140729816Y-146697738D01*
X140602262Y-146570184D01*
X140513852Y-146514632D01*
X140449523Y-146474211D01*
X140279254Y-146414631D01*
X140279249Y-146414630D01*
X140100004Y-146394435D01*
X140099996Y-146394435D01*
X139920750Y-146414630D01*
X139920745Y-146414631D01*
X139750476Y-146474211D01*
X139597737Y-146570184D01*
X139470184Y-146697737D01*
X139374211Y-146850476D01*
X139314631Y-147020745D01*
X139314630Y-147020750D01*
X139294435Y-147199996D01*
X98411154Y-147199996D01*
X98415063Y-147185408D01*
X98435659Y-146950000D01*
X98415063Y-146714592D01*
X98353903Y-146486337D01*
X98254035Y-146272171D01*
X98248425Y-146264158D01*
X98118494Y-146078597D01*
X97951402Y-145911506D01*
X97951395Y-145911501D01*
X97949251Y-145910000D01*
X97871939Y-145855865D01*
X97757834Y-145775967D01*
X97757830Y-145775965D01*
X97657658Y-145729254D01*
X97543663Y-145676097D01*
X97543659Y-145676096D01*
X97543655Y-145676094D01*
X97315413Y-145614938D01*
X97315403Y-145614936D01*
X97080001Y-145594341D01*
X97079999Y-145594341D01*
X96844596Y-145614936D01*
X96844586Y-145614938D01*
X96616344Y-145676094D01*
X96616335Y-145676098D01*
X96402171Y-145775964D01*
X96402169Y-145775965D01*
X96208597Y-145911505D01*
X96041505Y-146078597D01*
X95911575Y-146264158D01*
X95856998Y-146307783D01*
X95787500Y-146314977D01*
X95725145Y-146283454D01*
X95708425Y-146264158D01*
X95578494Y-146078597D01*
X95411402Y-145911506D01*
X95411395Y-145911501D01*
X95409251Y-145910000D01*
X95331939Y-145855865D01*
X95217834Y-145775967D01*
X95217830Y-145775965D01*
X95117658Y-145729254D01*
X95003663Y-145676097D01*
X95003659Y-145676096D01*
X95003655Y-145676094D01*
X94775413Y-145614938D01*
X94775403Y-145614936D01*
X94540001Y-145594341D01*
X94539999Y-145594341D01*
X94304596Y-145614936D01*
X94304586Y-145614938D01*
X94076344Y-145676094D01*
X94076335Y-145676098D01*
X93862171Y-145775964D01*
X93862169Y-145775965D01*
X93668600Y-145911503D01*
X93546284Y-146033819D01*
X93484961Y-146067303D01*
X93415269Y-146062319D01*
X93359336Y-146020447D01*
X93342421Y-145989470D01*
X93293354Y-145857913D01*
X93293350Y-145857906D01*
X93207190Y-145742812D01*
X93207187Y-145742809D01*
X93092093Y-145656649D01*
X93092086Y-145656645D01*
X92957379Y-145606403D01*
X92957372Y-145606401D01*
X92897844Y-145600000D01*
X92250000Y-145600000D01*
X92250000Y-146516988D01*
X92192993Y-146484075D01*
X92065826Y-146450000D01*
X91934174Y-146450000D01*
X91807007Y-146484075D01*
X91750000Y-146516988D01*
X91750000Y-145600000D01*
X91102155Y-145600000D01*
X91042627Y-145606401D01*
X91042620Y-145606403D01*
X90907913Y-145656645D01*
X90907906Y-145656649D01*
X90792812Y-145742809D01*
X90792809Y-145742812D01*
X90706649Y-145857906D01*
X90706645Y-145857913D01*
X90656403Y-145992620D01*
X90656401Y-145992627D01*
X90650000Y-146052155D01*
X90650000Y-146700000D01*
X91566988Y-146700000D01*
X91534075Y-146757007D01*
X91500000Y-146884174D01*
X91500000Y-147015826D01*
X91534075Y-147142993D01*
X91566988Y-147200000D01*
X90650000Y-147200000D01*
X90650000Y-147847844D01*
X90656401Y-147907372D01*
X90656403Y-147907380D01*
X90704319Y-148035850D01*
X90709303Y-148105542D01*
X90675818Y-148166865D01*
X90629092Y-148196225D01*
X90551211Y-148223476D01*
X90398472Y-148319449D01*
X90270919Y-148447002D01*
X90174946Y-148599741D01*
X90115366Y-148770010D01*
X90115365Y-148770015D01*
X90095170Y-148949261D01*
X65852027Y-148949261D01*
X65874035Y-148917830D01*
X65973903Y-148703663D01*
X66035063Y-148475408D01*
X66055659Y-148240000D01*
X66054250Y-148223901D01*
X66046400Y-148134174D01*
X66035063Y-148004592D01*
X65984584Y-147816200D01*
X65973905Y-147776344D01*
X65973904Y-147776343D01*
X65973903Y-147776337D01*
X65874035Y-147562171D01*
X65873925Y-147562013D01*
X65738494Y-147368597D01*
X65571402Y-147201506D01*
X65571396Y-147201501D01*
X65385842Y-147071575D01*
X65342217Y-147016998D01*
X65335023Y-146947500D01*
X65366546Y-146885145D01*
X65385842Y-146868425D01*
X65411476Y-146850476D01*
X65571401Y-146738495D01*
X65738495Y-146571401D01*
X65874035Y-146377830D01*
X65973903Y-146163663D01*
X66035063Y-145935408D01*
X66055659Y-145700000D01*
X66035063Y-145464592D01*
X65977692Y-145250478D01*
X65973905Y-145236344D01*
X65973904Y-145236343D01*
X65973903Y-145236337D01*
X65874035Y-145022171D01*
X65873925Y-145022013D01*
X65738494Y-144828597D01*
X65571402Y-144661506D01*
X65571396Y-144661501D01*
X65385842Y-144531575D01*
X65342217Y-144476998D01*
X65335023Y-144407500D01*
X65366546Y-144345145D01*
X65385842Y-144328425D01*
X65408026Y-144312891D01*
X65571401Y-144198495D01*
X65738495Y-144031401D01*
X65874035Y-143837830D01*
X65973903Y-143623663D01*
X66035063Y-143395408D01*
X66055659Y-143160000D01*
X66035063Y-142924592D01*
X65980354Y-142720412D01*
X65973905Y-142696344D01*
X65973904Y-142696343D01*
X65973903Y-142696337D01*
X65874035Y-142482171D01*
X65873925Y-142482013D01*
X65738494Y-142288597D01*
X65571402Y-142121506D01*
X65571396Y-142121501D01*
X65385842Y-141991575D01*
X65342217Y-141936998D01*
X65335023Y-141867500D01*
X65366546Y-141805145D01*
X65385842Y-141788425D01*
X65477956Y-141723926D01*
X65571401Y-141658495D01*
X65729897Y-141499999D01*
X67544922Y-141499999D01*
X67544922Y-141500000D01*
X67565219Y-141887287D01*
X67625886Y-142270323D01*
X67625887Y-142270330D01*
X67726262Y-142644936D01*
X67865244Y-143006994D01*
X68041310Y-143352543D01*
X68252523Y-143677783D01*
X68252525Y-143677785D01*
X68461096Y-143935348D01*
X69955747Y-142440697D01*
X70029588Y-142542330D01*
X70207670Y-142720412D01*
X70309301Y-142794251D01*
X68814650Y-144288902D01*
X69072214Y-144497475D01*
X69072216Y-144497476D01*
X69397456Y-144708689D01*
X69743005Y-144884755D01*
X70077141Y-145013019D01*
X70132673Y-145055421D01*
X70156466Y-145121115D01*
X70140964Y-145189244D01*
X70091091Y-145238176D01*
X70085108Y-145241165D01*
X69917267Y-145319431D01*
X69917265Y-145319432D01*
X69730858Y-145449954D01*
X69569954Y-145610858D01*
X69439432Y-145797265D01*
X69439431Y-145797267D01*
X69343261Y-146003502D01*
X69343258Y-146003511D01*
X69284366Y-146223302D01*
X69284364Y-146223313D01*
X69264532Y-146449998D01*
X69264532Y-146450001D01*
X69284364Y-146676686D01*
X69284366Y-146676697D01*
X69343258Y-146896488D01*
X69343261Y-146896497D01*
X69439431Y-147102732D01*
X69439432Y-147102734D01*
X69569954Y-147289141D01*
X69730858Y-147450045D01*
X69730861Y-147450047D01*
X69917266Y-147580568D01*
X70123504Y-147676739D01*
X70343308Y-147735635D01*
X70505230Y-147749801D01*
X70569998Y-147755468D01*
X70570000Y-147755468D01*
X70570002Y-147755468D01*
X70626673Y-147750509D01*
X70796692Y-147735635D01*
X71016496Y-147676739D01*
X71222734Y-147580568D01*
X71409139Y-147450047D01*
X71570047Y-147289139D01*
X71700568Y-147102734D01*
X71727618Y-147044724D01*
X71773790Y-146992285D01*
X71840983Y-146973133D01*
X71907865Y-146993348D01*
X71952382Y-147044725D01*
X71979429Y-147102728D01*
X71979432Y-147102734D01*
X72109954Y-147289141D01*
X72270858Y-147450045D01*
X72270861Y-147450047D01*
X72457266Y-147580568D01*
X72663504Y-147676739D01*
X72883308Y-147735635D01*
X73045230Y-147749801D01*
X73109998Y-147755468D01*
X73110000Y-147755468D01*
X73110002Y-147755468D01*
X73166673Y-147750509D01*
X73336692Y-147735635D01*
X73556496Y-147676739D01*
X73762734Y-147580568D01*
X73949139Y-147450047D01*
X74110047Y-147289139D01*
X74240568Y-147102734D01*
X74267895Y-147044129D01*
X74314064Y-146991695D01*
X74381257Y-146972542D01*
X74448139Y-146992757D01*
X74492657Y-147044133D01*
X74519865Y-147102482D01*
X74650342Y-147288820D01*
X74811179Y-147449657D01*
X74997517Y-147580134D01*
X75203673Y-147676265D01*
X75203682Y-147676269D01*
X75399999Y-147728872D01*
X75400000Y-147728871D01*
X75400000Y-146765686D01*
X75404394Y-146770080D01*
X75495606Y-146822741D01*
X75597339Y-146850000D01*
X75702661Y-146850000D01*
X75804394Y-146822741D01*
X75895606Y-146770080D01*
X75900000Y-146765686D01*
X75900000Y-147728872D01*
X76096317Y-147676269D01*
X76096326Y-147676265D01*
X76302482Y-147580134D01*
X76488820Y-147449657D01*
X76649657Y-147288820D01*
X76780132Y-147102484D01*
X76807341Y-147044134D01*
X76853513Y-146991695D01*
X76920707Y-146972542D01*
X76987588Y-146992757D01*
X77032106Y-147044133D01*
X77059431Y-147102732D01*
X77059432Y-147102734D01*
X77189954Y-147289141D01*
X77350858Y-147450045D01*
X77350861Y-147450047D01*
X77537266Y-147580568D01*
X77743504Y-147676739D01*
X77963308Y-147735635D01*
X78125230Y-147749801D01*
X78189998Y-147755468D01*
X78190000Y-147755468D01*
X78190002Y-147755468D01*
X78246673Y-147750509D01*
X78416692Y-147735635D01*
X78636496Y-147676739D01*
X78842734Y-147580568D01*
X79029139Y-147450047D01*
X79190047Y-147289139D01*
X79320568Y-147102734D01*
X79347618Y-147044724D01*
X79393790Y-146992285D01*
X79460983Y-146973133D01*
X79527865Y-146993348D01*
X79572382Y-147044725D01*
X79599429Y-147102728D01*
X79599432Y-147102734D01*
X79729954Y-147289141D01*
X79890858Y-147450045D01*
X79890861Y-147450047D01*
X80077266Y-147580568D01*
X80283504Y-147676739D01*
X80503308Y-147735635D01*
X80665230Y-147749801D01*
X80729998Y-147755468D01*
X80730000Y-147755468D01*
X80730002Y-147755468D01*
X80786673Y-147750509D01*
X80956692Y-147735635D01*
X81176496Y-147676739D01*
X81382734Y-147580568D01*
X81569139Y-147450047D01*
X81730047Y-147289139D01*
X81860568Y-147102734D01*
X81887618Y-147044724D01*
X81933790Y-146992285D01*
X82000983Y-146973133D01*
X82067865Y-146993348D01*
X82112382Y-147044725D01*
X82139429Y-147102728D01*
X82139432Y-147102734D01*
X82269954Y-147289141D01*
X82430858Y-147450045D01*
X82430861Y-147450047D01*
X82617266Y-147580568D01*
X82823504Y-147676739D01*
X83043308Y-147735635D01*
X83205230Y-147749801D01*
X83269998Y-147755468D01*
X83270000Y-147755468D01*
X83270002Y-147755468D01*
X83326673Y-147750509D01*
X83496692Y-147735635D01*
X83716496Y-147676739D01*
X83922734Y-147580568D01*
X84109139Y-147450047D01*
X84270047Y-147289139D01*
X84400568Y-147102734D01*
X84427618Y-147044724D01*
X84473790Y-146992285D01*
X84540983Y-146973133D01*
X84607865Y-146993348D01*
X84652382Y-147044725D01*
X84679429Y-147102728D01*
X84679432Y-147102734D01*
X84809954Y-147289141D01*
X84970858Y-147450045D01*
X84970861Y-147450047D01*
X85157266Y-147580568D01*
X85363504Y-147676739D01*
X85583308Y-147735635D01*
X85745230Y-147749801D01*
X85809998Y-147755468D01*
X85810000Y-147755468D01*
X85810002Y-147755468D01*
X85866673Y-147750509D01*
X86036692Y-147735635D01*
X86256496Y-147676739D01*
X86462734Y-147580568D01*
X86649139Y-147450047D01*
X86810047Y-147289139D01*
X86940568Y-147102734D01*
X87036739Y-146896496D01*
X87095635Y-146676692D01*
X87115468Y-146450000D01*
X87095635Y-146223308D01*
X87036739Y-146003504D01*
X86940568Y-145797266D01*
X86810047Y-145610861D01*
X86810045Y-145610858D01*
X86749183Y-145549996D01*
X88794435Y-145549996D01*
X88794435Y-145550003D01*
X88814630Y-145729249D01*
X88814631Y-145729254D01*
X88874211Y-145899523D01*
X88950384Y-146020750D01*
X88970184Y-146052262D01*
X89097738Y-146179816D01*
X89181484Y-146232437D01*
X89244716Y-146272169D01*
X89250478Y-146275789D01*
X89392924Y-146325633D01*
X89420745Y-146335368D01*
X89420750Y-146335369D01*
X89599996Y-146355565D01*
X89600000Y-146355565D01*
X89600004Y-146355565D01*
X89779249Y-146335369D01*
X89779252Y-146335368D01*
X89779255Y-146335368D01*
X89949522Y-146275789D01*
X90102262Y-146179816D01*
X90229816Y-146052262D01*
X90325789Y-145899522D01*
X90385368Y-145729255D01*
X90385369Y-145729249D01*
X90405565Y-145550003D01*
X90405565Y-145549996D01*
X90385369Y-145370750D01*
X90385368Y-145370745D01*
X90371754Y-145331838D01*
X107082140Y-145331838D01*
X107082140Y-145331845D01*
X107102335Y-145511091D01*
X107102336Y-145511096D01*
X107161916Y-145681365D01*
X107234900Y-145797518D01*
X107257889Y-145834104D01*
X107385443Y-145961658D01*
X107538183Y-146057631D01*
X107665731Y-146102262D01*
X107708450Y-146117210D01*
X107708455Y-146117211D01*
X107887701Y-146137407D01*
X107887705Y-146137407D01*
X107887709Y-146137407D01*
X108066954Y-146117211D01*
X108066957Y-146117210D01*
X108066960Y-146117210D01*
X108237227Y-146057631D01*
X108389967Y-145961658D01*
X108517521Y-145834104D01*
X108613494Y-145681364D01*
X108673073Y-145511097D01*
X108673074Y-145511091D01*
X108693270Y-145331845D01*
X108693270Y-145331838D01*
X108678415Y-145199996D01*
X137394435Y-145199996D01*
X137394435Y-145200003D01*
X137414630Y-145379249D01*
X137414631Y-145379254D01*
X137474211Y-145549523D01*
X137567341Y-145697737D01*
X137570184Y-145702262D01*
X137697738Y-145829816D01*
X137734624Y-145852993D01*
X137827746Y-145911506D01*
X137850478Y-145925789D01*
X138020745Y-145985368D01*
X138020750Y-145985369D01*
X138199996Y-146005565D01*
X138200000Y-146005565D01*
X138200004Y-146005565D01*
X138379249Y-145985369D01*
X138379252Y-145985368D01*
X138379255Y-145985368D01*
X138549522Y-145925789D01*
X138702262Y-145829816D01*
X138829816Y-145702262D01*
X138894074Y-145599996D01*
X142394435Y-145599996D01*
X142394435Y-145600000D01*
X142414630Y-145779249D01*
X142414631Y-145779254D01*
X142474211Y-145949523D01*
X142570184Y-146102262D01*
X142697738Y-146229816D01*
X142752393Y-146264158D01*
X142850229Y-146325633D01*
X142850478Y-146325789D01*
X142935093Y-146355397D01*
X143020745Y-146385368D01*
X143020750Y-146385369D01*
X143199996Y-146405565D01*
X143200000Y-146405565D01*
X143200004Y-146405565D01*
X143379249Y-146385369D01*
X143379252Y-146385368D01*
X143379255Y-146385368D01*
X143549522Y-146325789D01*
X143549534Y-146325781D01*
X143549780Y-146325664D01*
X143549967Y-146325633D01*
X143556095Y-146323489D01*
X143556470Y-146324561D01*
X143618719Y-146314303D01*
X143682858Y-146342016D01*
X143720639Y-146396422D01*
X143774211Y-146549523D01*
X143854117Y-146676692D01*
X143870184Y-146702262D01*
X143997738Y-146829816D01*
X144059184Y-146868425D01*
X144146042Y-146923002D01*
X144150478Y-146925789D01*
X144320745Y-146985368D01*
X144320750Y-146985369D01*
X144499996Y-147005565D01*
X144500000Y-147005565D01*
X144500004Y-147005565D01*
X144679249Y-146985369D01*
X144679252Y-146985368D01*
X144679255Y-146985368D01*
X144849522Y-146925789D01*
X145002262Y-146829816D01*
X145129816Y-146702262D01*
X145225789Y-146549522D01*
X145285368Y-146379255D01*
X145285529Y-146377830D01*
X145305565Y-146200003D01*
X145305565Y-146199996D01*
X145285369Y-146020750D01*
X145285368Y-146020745D01*
X145266564Y-145967007D01*
X145225789Y-145850478D01*
X145129816Y-145697738D01*
X145002262Y-145570184D01*
X144970144Y-145550003D01*
X144849523Y-145474211D01*
X144679254Y-145414631D01*
X144679249Y-145414630D01*
X144500004Y-145394435D01*
X144499996Y-145394435D01*
X144320750Y-145414630D01*
X144320737Y-145414633D01*
X144150477Y-145474210D01*
X144150192Y-145474348D01*
X144149989Y-145474381D01*
X144143906Y-145476510D01*
X144143532Y-145475443D01*
X144081250Y-145485693D01*
X144017118Y-145457964D01*
X143979360Y-145403576D01*
X143976161Y-145394435D01*
X143925789Y-145250478D01*
X143829816Y-145097738D01*
X143702262Y-144970184D01*
X143622688Y-144920184D01*
X143549523Y-144874211D01*
X143379254Y-144814631D01*
X143379249Y-144814630D01*
X143200004Y-144794435D01*
X143199996Y-144794435D01*
X143020750Y-144814630D01*
X143020745Y-144814631D01*
X142850476Y-144874211D01*
X142697737Y-144970184D01*
X142570184Y-145097737D01*
X142474211Y-145250476D01*
X142414631Y-145420745D01*
X142414630Y-145420750D01*
X142394435Y-145599996D01*
X138894074Y-145599996D01*
X138925789Y-145549522D01*
X138985368Y-145379255D01*
X138985369Y-145379249D01*
X139005565Y-145200003D01*
X139005565Y-145199996D01*
X138985369Y-145020750D01*
X138985368Y-145020745D01*
X138982665Y-145013019D01*
X138925789Y-144850478D01*
X138925188Y-144849522D01*
X138871847Y-144764630D01*
X138829816Y-144697738D01*
X138702262Y-144570184D01*
X138664525Y-144546472D01*
X138549523Y-144474211D01*
X138379254Y-144414631D01*
X138379249Y-144414630D01*
X138200004Y-144394435D01*
X138199996Y-144394435D01*
X138020750Y-144414630D01*
X138020745Y-144414631D01*
X137850476Y-144474211D01*
X137697737Y-144570184D01*
X137570184Y-144697737D01*
X137474211Y-144850476D01*
X137414631Y-145020745D01*
X137414630Y-145020750D01*
X137394435Y-145199996D01*
X108678415Y-145199996D01*
X108673074Y-145152592D01*
X108673073Y-145152587D01*
X108665105Y-145129815D01*
X108613494Y-144982320D01*
X108605868Y-144970184D01*
X108552190Y-144884755D01*
X108517521Y-144829580D01*
X108389967Y-144702026D01*
X108325480Y-144661506D01*
X108237228Y-144606053D01*
X108066959Y-144546473D01*
X108066954Y-144546472D01*
X107887709Y-144526277D01*
X107887701Y-144526277D01*
X107708455Y-144546472D01*
X107708450Y-144546473D01*
X107538181Y-144606053D01*
X107385442Y-144702026D01*
X107257889Y-144829579D01*
X107161916Y-144982318D01*
X107102336Y-145152587D01*
X107102335Y-145152592D01*
X107082140Y-145331838D01*
X90371754Y-145331838D01*
X90364329Y-145310620D01*
X90325789Y-145200478D01*
X90324912Y-145199083D01*
X90261232Y-145097737D01*
X90229816Y-145047738D01*
X90102262Y-144920184D01*
X90045877Y-144884755D01*
X89949523Y-144824211D01*
X89779254Y-144764631D01*
X89779249Y-144764630D01*
X89600004Y-144744435D01*
X89599996Y-144744435D01*
X89420750Y-144764630D01*
X89420745Y-144764631D01*
X89250476Y-144824211D01*
X89097737Y-144920184D01*
X88970184Y-145047737D01*
X88874211Y-145200476D01*
X88814631Y-145370745D01*
X88814630Y-145370750D01*
X88794435Y-145549996D01*
X86749183Y-145549996D01*
X86649141Y-145449954D01*
X86462734Y-145319432D01*
X86462732Y-145319431D01*
X86256497Y-145223261D01*
X86256488Y-145223258D01*
X86036697Y-145164366D01*
X86036693Y-145164365D01*
X86036692Y-145164365D01*
X86036691Y-145164364D01*
X86036686Y-145164364D01*
X85810002Y-145144532D01*
X85809998Y-145144532D01*
X85583313Y-145164364D01*
X85583302Y-145164366D01*
X85363511Y-145223258D01*
X85363502Y-145223261D01*
X85157267Y-145319431D01*
X85157265Y-145319432D01*
X84970858Y-145449954D01*
X84809954Y-145610858D01*
X84679432Y-145797265D01*
X84679431Y-145797267D01*
X84652382Y-145855275D01*
X84606209Y-145907714D01*
X84539016Y-145926866D01*
X84472135Y-145906650D01*
X84427618Y-145855275D01*
X84400686Y-145797520D01*
X84400568Y-145797266D01*
X84270047Y-145610861D01*
X84270045Y-145610858D01*
X84109141Y-145449954D01*
X83922734Y-145319432D01*
X83922732Y-145319431D01*
X83716497Y-145223261D01*
X83716488Y-145223258D01*
X83496697Y-145164366D01*
X83496693Y-145164365D01*
X83496692Y-145164365D01*
X83496691Y-145164364D01*
X83496686Y-145164364D01*
X83270002Y-145144532D01*
X83269998Y-145144532D01*
X83043313Y-145164364D01*
X83043302Y-145164366D01*
X82823511Y-145223258D01*
X82823502Y-145223261D01*
X82617267Y-145319431D01*
X82617265Y-145319432D01*
X82430858Y-145449954D01*
X82269954Y-145610858D01*
X82139432Y-145797265D01*
X82139431Y-145797267D01*
X82112382Y-145855275D01*
X82066209Y-145907714D01*
X81999016Y-145926866D01*
X81932135Y-145906650D01*
X81887618Y-145855275D01*
X81860686Y-145797520D01*
X81860568Y-145797266D01*
X81730047Y-145610861D01*
X81730045Y-145610858D01*
X81569141Y-145449954D01*
X81382734Y-145319432D01*
X81382732Y-145319431D01*
X81176497Y-145223261D01*
X81176488Y-145223258D01*
X80956697Y-145164366D01*
X80956693Y-145164365D01*
X80956692Y-145164365D01*
X80956691Y-145164364D01*
X80956686Y-145164364D01*
X80730002Y-145144532D01*
X80729998Y-145144532D01*
X80503313Y-145164364D01*
X80503302Y-145164366D01*
X80283511Y-145223258D01*
X80283502Y-145223261D01*
X80077267Y-145319431D01*
X80077265Y-145319432D01*
X79890858Y-145449954D01*
X79729954Y-145610858D01*
X79599432Y-145797265D01*
X79599431Y-145797267D01*
X79572382Y-145855275D01*
X79526209Y-145907714D01*
X79459016Y-145926866D01*
X79392135Y-145906650D01*
X79347618Y-145855275D01*
X79320686Y-145797520D01*
X79320568Y-145797266D01*
X79190047Y-145610861D01*
X79190045Y-145610858D01*
X79029141Y-145449954D01*
X78842734Y-145319432D01*
X78842732Y-145319431D01*
X78636497Y-145223261D01*
X78636488Y-145223258D01*
X78416697Y-145164366D01*
X78416693Y-145164365D01*
X78416692Y-145164365D01*
X78416691Y-145164364D01*
X78416686Y-145164364D01*
X78190002Y-145144532D01*
X78189998Y-145144532D01*
X77963313Y-145164364D01*
X77963302Y-145164366D01*
X77743511Y-145223258D01*
X77743502Y-145223261D01*
X77537267Y-145319431D01*
X77537265Y-145319432D01*
X77350858Y-145449954D01*
X77189954Y-145610858D01*
X77072044Y-145779254D01*
X77059432Y-145797266D01*
X77059315Y-145797518D01*
X77032106Y-145855867D01*
X76985933Y-145908306D01*
X76918739Y-145927457D01*
X76851858Y-145907241D01*
X76807342Y-145855865D01*
X76780135Y-145797520D01*
X76780134Y-145797518D01*
X76649657Y-145611179D01*
X76488820Y-145450342D01*
X76302482Y-145319865D01*
X76096328Y-145223734D01*
X75900000Y-145171127D01*
X75900000Y-146134314D01*
X75895606Y-146129920D01*
X75804394Y-146077259D01*
X75702661Y-146050000D01*
X75597339Y-146050000D01*
X75495606Y-146077259D01*
X75404394Y-146129920D01*
X75400000Y-146134314D01*
X75400000Y-145171127D01*
X75203671Y-145223734D01*
X74997517Y-145319865D01*
X74811179Y-145450342D01*
X74650342Y-145611179D01*
X74519867Y-145797515D01*
X74492657Y-145855867D01*
X74446484Y-145908306D01*
X74379290Y-145927457D01*
X74312409Y-145907241D01*
X74267893Y-145855865D01*
X74240685Y-145797518D01*
X74240568Y-145797266D01*
X74110047Y-145610861D01*
X74110045Y-145610858D01*
X73949141Y-145449954D01*
X73762734Y-145319432D01*
X73762732Y-145319431D01*
X73556497Y-145223261D01*
X73556488Y-145223258D01*
X73336697Y-145164366D01*
X73336693Y-145164365D01*
X73336692Y-145164365D01*
X73336691Y-145164364D01*
X73336686Y-145164364D01*
X73110002Y-145144532D01*
X73109998Y-145144532D01*
X72883313Y-145164364D01*
X72883302Y-145164366D01*
X72663511Y-145223258D01*
X72663502Y-145223261D01*
X72457267Y-145319431D01*
X72457265Y-145319432D01*
X72270858Y-145449954D01*
X72109954Y-145610858D01*
X71979432Y-145797265D01*
X71979431Y-145797267D01*
X71952382Y-145855275D01*
X71906209Y-145907714D01*
X71839016Y-145926866D01*
X71772135Y-145906650D01*
X71727618Y-145855275D01*
X71700686Y-145797520D01*
X71700568Y-145797266D01*
X71570047Y-145610861D01*
X71570045Y-145610858D01*
X71409140Y-145449953D01*
X71367686Y-145420927D01*
X71324061Y-145366350D01*
X71316867Y-145296852D01*
X71348390Y-145234497D01*
X71408620Y-145199083D01*
X71432320Y-145195522D01*
X71637287Y-145184780D01*
X72020323Y-145124113D01*
X72020330Y-145124112D01*
X72394936Y-145023737D01*
X72756994Y-144884755D01*
X73102543Y-144708689D01*
X73427771Y-144497484D01*
X73427784Y-144497474D01*
X73685348Y-144288902D01*
X72190698Y-142794252D01*
X72292330Y-142720412D01*
X72470412Y-142542330D01*
X72544252Y-142440698D01*
X74038902Y-143935348D01*
X74247474Y-143677784D01*
X74247484Y-143677771D01*
X74458689Y-143352543D01*
X74634755Y-143006994D01*
X74773737Y-142644936D01*
X74874112Y-142270330D01*
X74874113Y-142270323D01*
X74934780Y-141887287D01*
X74955078Y-141500000D01*
X74955078Y-141499999D01*
X74939201Y-141197070D01*
X80449500Y-141197070D01*
X80449500Y-141452930D01*
X80465966Y-141556890D01*
X80489526Y-141705640D01*
X80568588Y-141948972D01*
X80568589Y-141948975D01*
X80642994Y-142095000D01*
X80661508Y-142131337D01*
X80684750Y-142176950D01*
X80835132Y-142383935D01*
X80835136Y-142383940D01*
X81016059Y-142564863D01*
X81016064Y-142564867D01*
X81166565Y-142674211D01*
X81223053Y-142715252D01*
X81330863Y-142770184D01*
X81451024Y-142831410D01*
X81451027Y-142831411D01*
X81565002Y-142868443D01*
X81694361Y-142910474D01*
X81947070Y-142950500D01*
X81947071Y-142950500D01*
X82202929Y-142950500D01*
X82202930Y-142950500D01*
X82455639Y-142910474D01*
X82698975Y-142831410D01*
X82926947Y-142715252D01*
X83092462Y-142594999D01*
X85589341Y-142594999D01*
X85589341Y-142595000D01*
X85609936Y-142830403D01*
X85609938Y-142830413D01*
X85671094Y-143058655D01*
X85671096Y-143058659D01*
X85671097Y-143058663D01*
X85750801Y-143229588D01*
X85770965Y-143272830D01*
X85770967Y-143272834D01*
X85879281Y-143427521D01*
X85906505Y-143466401D01*
X86073599Y-143633495D01*
X86160630Y-143694435D01*
X86267165Y-143769032D01*
X86267167Y-143769033D01*
X86267170Y-143769035D01*
X86481337Y-143868903D01*
X86481343Y-143868904D01*
X86481344Y-143868905D01*
X86536285Y-143883626D01*
X86709592Y-143930063D01*
X86897918Y-143946539D01*
X86944999Y-143950659D01*
X86945000Y-143950659D01*
X86945001Y-143950659D01*
X86984234Y-143947226D01*
X87180408Y-143930063D01*
X87408663Y-143868903D01*
X87622830Y-143769035D01*
X87816401Y-143633495D01*
X87983495Y-143466401D01*
X88113425Y-143280842D01*
X88168002Y-143237217D01*
X88237500Y-143230023D01*
X88299855Y-143261546D01*
X88316575Y-143280842D01*
X88446500Y-143466395D01*
X88446505Y-143466401D01*
X88613599Y-143633495D01*
X88700630Y-143694435D01*
X88807165Y-143769032D01*
X88807167Y-143769033D01*
X88807170Y-143769035D01*
X89021337Y-143868903D01*
X89021343Y-143868904D01*
X89021344Y-143868905D01*
X89076285Y-143883626D01*
X89249592Y-143930063D01*
X89437918Y-143946539D01*
X89484999Y-143950659D01*
X89485000Y-143950659D01*
X89485001Y-143950659D01*
X89524234Y-143947226D01*
X89720408Y-143930063D01*
X89948663Y-143868903D01*
X90162830Y-143769035D01*
X90356401Y-143633495D01*
X90523495Y-143466401D01*
X90653730Y-143280405D01*
X90708307Y-143236781D01*
X90777805Y-143229587D01*
X90840160Y-143261110D01*
X90856879Y-143280405D01*
X90986890Y-143466078D01*
X91153917Y-143633105D01*
X91347421Y-143768600D01*
X91561507Y-143868429D01*
X91561516Y-143868433D01*
X91775000Y-143925634D01*
X91775000Y-143028012D01*
X91832007Y-143060925D01*
X91959174Y-143095000D01*
X92090826Y-143095000D01*
X92217993Y-143060925D01*
X92275000Y-143028012D01*
X92275000Y-143925633D01*
X92488483Y-143868433D01*
X92488492Y-143868429D01*
X92702578Y-143768600D01*
X92896082Y-143633105D01*
X93063105Y-143466082D01*
X93193119Y-143280405D01*
X93247696Y-143236781D01*
X93317195Y-143229588D01*
X93379549Y-143261110D01*
X93396269Y-143280405D01*
X93526505Y-143466401D01*
X93693599Y-143633495D01*
X93780630Y-143694435D01*
X93887165Y-143769032D01*
X93887167Y-143769033D01*
X93887170Y-143769035D01*
X94101337Y-143868903D01*
X94101343Y-143868904D01*
X94101344Y-143868905D01*
X94156285Y-143883626D01*
X94329592Y-143930063D01*
X94517918Y-143946539D01*
X94564999Y-143950659D01*
X94565000Y-143950659D01*
X94565001Y-143950659D01*
X94604234Y-143947226D01*
X94800408Y-143930063D01*
X95028663Y-143868903D01*
X95242830Y-143769035D01*
X95436401Y-143633495D01*
X95603495Y-143466401D01*
X95733425Y-143280842D01*
X95788002Y-143237217D01*
X95857500Y-143230023D01*
X95919855Y-143261546D01*
X95936575Y-143280842D01*
X96066500Y-143466395D01*
X96066505Y-143466401D01*
X96233599Y-143633495D01*
X96320630Y-143694435D01*
X96427165Y-143769032D01*
X96427167Y-143769033D01*
X96427170Y-143769035D01*
X96641337Y-143868903D01*
X96641343Y-143868904D01*
X96641344Y-143868905D01*
X96696285Y-143883626D01*
X96869592Y-143930063D01*
X97057918Y-143946539D01*
X97104999Y-143950659D01*
X97105000Y-143950659D01*
X97105001Y-143950659D01*
X97144234Y-143947226D01*
X97340408Y-143930063D01*
X97568663Y-143868903D01*
X97782830Y-143769035D01*
X97976401Y-143633495D01*
X98143495Y-143466401D01*
X98273425Y-143280842D01*
X98328002Y-143237217D01*
X98397500Y-143230023D01*
X98459855Y-143261546D01*
X98476575Y-143280842D01*
X98606500Y-143466395D01*
X98606505Y-143466401D01*
X98773599Y-143633495D01*
X98860630Y-143694435D01*
X98967165Y-143769032D01*
X98967167Y-143769033D01*
X98967170Y-143769035D01*
X99181337Y-143868903D01*
X99181343Y-143868904D01*
X99181344Y-143868905D01*
X99236285Y-143883626D01*
X99409592Y-143930063D01*
X99597918Y-143946539D01*
X99644999Y-143950659D01*
X99645000Y-143950659D01*
X99645001Y-143950659D01*
X99684234Y-143947226D01*
X99880408Y-143930063D01*
X100108663Y-143868903D01*
X100322830Y-143769035D01*
X100516401Y-143633495D01*
X100683495Y-143466401D01*
X100813730Y-143280405D01*
X100868307Y-143236781D01*
X100937805Y-143229587D01*
X101000160Y-143261110D01*
X101016879Y-143280405D01*
X101146890Y-143466078D01*
X101313917Y-143633105D01*
X101507421Y-143768600D01*
X101721507Y-143868429D01*
X101721516Y-143868433D01*
X101935000Y-143925634D01*
X101935000Y-143028012D01*
X101992007Y-143060925D01*
X102119174Y-143095000D01*
X102250826Y-143095000D01*
X102377993Y-143060925D01*
X102435000Y-143028012D01*
X102435000Y-143925634D01*
X102648483Y-143868433D01*
X102648492Y-143868429D01*
X102862578Y-143768600D01*
X103056082Y-143633105D01*
X103223105Y-143466082D01*
X103353119Y-143280405D01*
X103407696Y-143236781D01*
X103477195Y-143229588D01*
X103539549Y-143261110D01*
X103556269Y-143280405D01*
X103686505Y-143466401D01*
X103853599Y-143633495D01*
X103940630Y-143694435D01*
X104047165Y-143769032D01*
X104047167Y-143769033D01*
X104047170Y-143769035D01*
X104261337Y-143868903D01*
X104261343Y-143868904D01*
X104261344Y-143868905D01*
X104316285Y-143883626D01*
X104489592Y-143930063D01*
X104677918Y-143946539D01*
X104724999Y-143950659D01*
X104725000Y-143950659D01*
X104725001Y-143950659D01*
X104764234Y-143947226D01*
X104960408Y-143930063D01*
X105188663Y-143868903D01*
X105402830Y-143769035D01*
X105596401Y-143633495D01*
X105763495Y-143466401D01*
X105893425Y-143280842D01*
X105948002Y-143237217D01*
X106017500Y-143230023D01*
X106079855Y-143261546D01*
X106096575Y-143280842D01*
X106226500Y-143466395D01*
X106226505Y-143466401D01*
X106393599Y-143633495D01*
X106480630Y-143694435D01*
X106587165Y-143769032D01*
X106587167Y-143769033D01*
X106587170Y-143769035D01*
X106801337Y-143868903D01*
X106801343Y-143868904D01*
X106801344Y-143868905D01*
X106856285Y-143883626D01*
X107029592Y-143930063D01*
X107217918Y-143946539D01*
X107264999Y-143950659D01*
X107265000Y-143950659D01*
X107265001Y-143950659D01*
X107304234Y-143947226D01*
X107500408Y-143930063D01*
X107728663Y-143868903D01*
X107942830Y-143769035D01*
X108136401Y-143633495D01*
X108303495Y-143466401D01*
X108433730Y-143280405D01*
X108488307Y-143236781D01*
X108557805Y-143229587D01*
X108620160Y-143261110D01*
X108636879Y-143280405D01*
X108766890Y-143466078D01*
X108933917Y-143633105D01*
X109127421Y-143768600D01*
X109341507Y-143868429D01*
X109341516Y-143868433D01*
X109555000Y-143925634D01*
X109555000Y-143028012D01*
X109612007Y-143060925D01*
X109739174Y-143095000D01*
X109870826Y-143095000D01*
X109997993Y-143060925D01*
X110055000Y-143028012D01*
X110055000Y-143925633D01*
X110268483Y-143868433D01*
X110268492Y-143868429D01*
X110482578Y-143768600D01*
X110676082Y-143633105D01*
X110843105Y-143466082D01*
X110973119Y-143280405D01*
X111027696Y-143236781D01*
X111097195Y-143229588D01*
X111159549Y-143261110D01*
X111176269Y-143280405D01*
X111306505Y-143466401D01*
X111473599Y-143633495D01*
X111560630Y-143694435D01*
X111667165Y-143769032D01*
X111667167Y-143769033D01*
X111667170Y-143769035D01*
X111881337Y-143868903D01*
X111881343Y-143868904D01*
X111881344Y-143868905D01*
X111936285Y-143883626D01*
X112109592Y-143930063D01*
X112297918Y-143946539D01*
X112344999Y-143950659D01*
X112345000Y-143950659D01*
X112345001Y-143950659D01*
X112384234Y-143947226D01*
X112580408Y-143930063D01*
X112808663Y-143868903D01*
X113022830Y-143769035D01*
X113216401Y-143633495D01*
X113383495Y-143466401D01*
X113513425Y-143280842D01*
X113568002Y-143237217D01*
X113637500Y-143230023D01*
X113699855Y-143261546D01*
X113716575Y-143280842D01*
X113846500Y-143466395D01*
X113846505Y-143466401D01*
X114013599Y-143633495D01*
X114100630Y-143694435D01*
X114207165Y-143769032D01*
X114207167Y-143769033D01*
X114207170Y-143769035D01*
X114421337Y-143868903D01*
X114421343Y-143868904D01*
X114421344Y-143868905D01*
X114476285Y-143883626D01*
X114649592Y-143930063D01*
X114837918Y-143946539D01*
X114884999Y-143950659D01*
X114885000Y-143950659D01*
X114885001Y-143950659D01*
X114924234Y-143947226D01*
X115120408Y-143930063D01*
X115348663Y-143868903D01*
X115562830Y-143769035D01*
X115756401Y-143633495D01*
X115923495Y-143466401D01*
X116053425Y-143280842D01*
X116108002Y-143237217D01*
X116177500Y-143230023D01*
X116239855Y-143261546D01*
X116256575Y-143280842D01*
X116386500Y-143466395D01*
X116386505Y-143466401D01*
X116553599Y-143633495D01*
X116640630Y-143694435D01*
X116747165Y-143769032D01*
X116747167Y-143769033D01*
X116747170Y-143769035D01*
X116961337Y-143868903D01*
X116961343Y-143868904D01*
X116961344Y-143868905D01*
X117016285Y-143883626D01*
X117189592Y-143930063D01*
X117377918Y-143946539D01*
X117424999Y-143950659D01*
X117425000Y-143950659D01*
X117425001Y-143950659D01*
X117464234Y-143947226D01*
X117660408Y-143930063D01*
X117888663Y-143868903D01*
X118102830Y-143769035D01*
X118296401Y-143633495D01*
X118463495Y-143466401D01*
X118593425Y-143280842D01*
X118648002Y-143237217D01*
X118717500Y-143230023D01*
X118779855Y-143261546D01*
X118796575Y-143280842D01*
X118926500Y-143466395D01*
X118926505Y-143466401D01*
X119093599Y-143633495D01*
X119180630Y-143694435D01*
X119287165Y-143769032D01*
X119287167Y-143769033D01*
X119287170Y-143769035D01*
X119501337Y-143868903D01*
X119501343Y-143868904D01*
X119501344Y-143868905D01*
X119556285Y-143883626D01*
X119729592Y-143930063D01*
X119917918Y-143946539D01*
X119964999Y-143950659D01*
X119965000Y-143950659D01*
X119965001Y-143950659D01*
X120004234Y-143947226D01*
X120200408Y-143930063D01*
X120428663Y-143868903D01*
X120642830Y-143769035D01*
X120836401Y-143633495D01*
X121003495Y-143466401D01*
X121133730Y-143280405D01*
X121188307Y-143236781D01*
X121257805Y-143229587D01*
X121320160Y-143261110D01*
X121336879Y-143280405D01*
X121466890Y-143466078D01*
X121633917Y-143633105D01*
X121827421Y-143768600D01*
X122041507Y-143868429D01*
X122041516Y-143868433D01*
X122255000Y-143925634D01*
X122255000Y-143028012D01*
X122312007Y-143060925D01*
X122439174Y-143095000D01*
X122570826Y-143095000D01*
X122697993Y-143060925D01*
X122755000Y-143028012D01*
X122755000Y-143925634D01*
X122968483Y-143868433D01*
X122968492Y-143868429D01*
X123182578Y-143768600D01*
X123376082Y-143633105D01*
X123543105Y-143466082D01*
X123673119Y-143280405D01*
X123727696Y-143236781D01*
X123797195Y-143229588D01*
X123859549Y-143261110D01*
X123876269Y-143280405D01*
X124006505Y-143466401D01*
X124173599Y-143633495D01*
X124260630Y-143694435D01*
X124367165Y-143769032D01*
X124367167Y-143769033D01*
X124367170Y-143769035D01*
X124581337Y-143868903D01*
X124581343Y-143868904D01*
X124581344Y-143868905D01*
X124636285Y-143883626D01*
X124809592Y-143930063D01*
X124997918Y-143946539D01*
X125044999Y-143950659D01*
X125045000Y-143950659D01*
X125045001Y-143950659D01*
X125084234Y-143947226D01*
X125280408Y-143930063D01*
X125508663Y-143868903D01*
X125722830Y-143769035D01*
X125916401Y-143633495D01*
X126083495Y-143466401D01*
X126213730Y-143280405D01*
X126268307Y-143236781D01*
X126337805Y-143229587D01*
X126400160Y-143261110D01*
X126416879Y-143280405D01*
X126546890Y-143466078D01*
X126713917Y-143633105D01*
X126907421Y-143768600D01*
X127121507Y-143868429D01*
X127121516Y-143868433D01*
X127335000Y-143925634D01*
X127335000Y-143028012D01*
X127392007Y-143060925D01*
X127519174Y-143095000D01*
X127650826Y-143095000D01*
X127777993Y-143060925D01*
X127835000Y-143028012D01*
X127835000Y-143925634D01*
X128048483Y-143868433D01*
X128048492Y-143868429D01*
X128262578Y-143768600D01*
X128456082Y-143633105D01*
X128623105Y-143466082D01*
X128753119Y-143280405D01*
X128807696Y-143236781D01*
X128877195Y-143229588D01*
X128939549Y-143261110D01*
X128956269Y-143280405D01*
X129086505Y-143466401D01*
X129253599Y-143633495D01*
X129340630Y-143694435D01*
X129447165Y-143769032D01*
X129447167Y-143769033D01*
X129447170Y-143769035D01*
X129661337Y-143868903D01*
X129661343Y-143868904D01*
X129661344Y-143868905D01*
X129716285Y-143883626D01*
X129889592Y-143930063D01*
X130077918Y-143946539D01*
X130124999Y-143950659D01*
X130125000Y-143950659D01*
X130125001Y-143950659D01*
X130164234Y-143947226D01*
X130360408Y-143930063D01*
X130588663Y-143868903D01*
X130802830Y-143769035D01*
X130996401Y-143633495D01*
X131163495Y-143466401D01*
X131293425Y-143280842D01*
X131348002Y-143237217D01*
X131417500Y-143230023D01*
X131479855Y-143261546D01*
X131496575Y-143280842D01*
X131626500Y-143466395D01*
X131626505Y-143466401D01*
X131793599Y-143633495D01*
X131880630Y-143694435D01*
X131987165Y-143769032D01*
X131987167Y-143769033D01*
X131987170Y-143769035D01*
X132201337Y-143868903D01*
X132201343Y-143868904D01*
X132201344Y-143868905D01*
X132256285Y-143883626D01*
X132429592Y-143930063D01*
X132617918Y-143946539D01*
X132664999Y-143950659D01*
X132665000Y-143950659D01*
X132665001Y-143950659D01*
X132704234Y-143947226D01*
X132900408Y-143930063D01*
X133128663Y-143868903D01*
X133342830Y-143769035D01*
X133536401Y-143633495D01*
X133703495Y-143466401D01*
X133833425Y-143280842D01*
X133888002Y-143237217D01*
X133957500Y-143230023D01*
X134019855Y-143261546D01*
X134036575Y-143280842D01*
X134166500Y-143466395D01*
X134166505Y-143466401D01*
X134333599Y-143633495D01*
X134420630Y-143694435D01*
X134527165Y-143769032D01*
X134527167Y-143769033D01*
X134527170Y-143769035D01*
X134741337Y-143868903D01*
X134741343Y-143868904D01*
X134741344Y-143868905D01*
X134796285Y-143883626D01*
X134969592Y-143930063D01*
X135157918Y-143946539D01*
X135204999Y-143950659D01*
X135205000Y-143950659D01*
X135205001Y-143950659D01*
X135244234Y-143947226D01*
X135440408Y-143930063D01*
X135668663Y-143868903D01*
X135882830Y-143769035D01*
X136076401Y-143633495D01*
X136243495Y-143466401D01*
X136289992Y-143399996D01*
X144494435Y-143399996D01*
X144494435Y-143400003D01*
X144514630Y-143579249D01*
X144514631Y-143579254D01*
X144574211Y-143749523D01*
X144629701Y-143837834D01*
X144670184Y-143902262D01*
X144797738Y-144029816D01*
X144888080Y-144086582D01*
X144950345Y-144125706D01*
X144950478Y-144125789D01*
X145120745Y-144185368D01*
X145120750Y-144185369D01*
X145299996Y-144205565D01*
X145300000Y-144205565D01*
X145300004Y-144205565D01*
X145479249Y-144185369D01*
X145479252Y-144185368D01*
X145479255Y-144185368D01*
X145649522Y-144125789D01*
X145802262Y-144029816D01*
X145907335Y-143924742D01*
X145968654Y-143891260D01*
X146038346Y-143896244D01*
X146094280Y-143938115D01*
X146110574Y-143973297D01*
X146112332Y-143972682D01*
X146174211Y-144149523D01*
X146229498Y-144237511D01*
X146270184Y-144302262D01*
X146397738Y-144429816D01*
X146434331Y-144452809D01*
X146533076Y-144514855D01*
X146550478Y-144525789D01*
X146677352Y-144570184D01*
X146720745Y-144585368D01*
X146720750Y-144585369D01*
X146899996Y-144605565D01*
X146900000Y-144605565D01*
X146900004Y-144605565D01*
X147079249Y-144585369D01*
X147079252Y-144585368D01*
X147079255Y-144585368D01*
X147249522Y-144525789D01*
X147402262Y-144429816D01*
X147529816Y-144302262D01*
X147625789Y-144149522D01*
X147685368Y-143979255D01*
X147685369Y-143979249D01*
X147705565Y-143800003D01*
X147705565Y-143799996D01*
X147685369Y-143620750D01*
X147685368Y-143620745D01*
X147631361Y-143466402D01*
X147625789Y-143450478D01*
X147529816Y-143297738D01*
X147402262Y-143170184D01*
X147386053Y-143159999D01*
X147249523Y-143074211D01*
X147079254Y-143014631D01*
X147079249Y-143014630D01*
X146900004Y-142994435D01*
X146899996Y-142994435D01*
X146720750Y-143014630D01*
X146720745Y-143014631D01*
X146550476Y-143074211D01*
X146397739Y-143170183D01*
X146292667Y-143275255D01*
X146231344Y-143308739D01*
X146161652Y-143303755D01*
X146105719Y-143261883D01*
X146089436Y-143226699D01*
X146087668Y-143227318D01*
X146067676Y-143170184D01*
X146025789Y-143050478D01*
X146003265Y-143014632D01*
X145983251Y-142982779D01*
X145929816Y-142897738D01*
X145802262Y-142770184D01*
X145649523Y-142674211D01*
X145479254Y-142614631D01*
X145479249Y-142614630D01*
X145300004Y-142594435D01*
X145299996Y-142594435D01*
X145120750Y-142614630D01*
X145120745Y-142614631D01*
X144950476Y-142674211D01*
X144797737Y-142770184D01*
X144670184Y-142897737D01*
X144574211Y-143050476D01*
X144514631Y-143220745D01*
X144514630Y-143220750D01*
X144494435Y-143399996D01*
X136289992Y-143399996D01*
X136379035Y-143272830D01*
X136478903Y-143058663D01*
X136540063Y-142830408D01*
X136560659Y-142595000D01*
X136540063Y-142359592D01*
X136478903Y-142131337D01*
X136379035Y-141917171D01*
X136375765Y-141912500D01*
X136243494Y-141723597D01*
X136076402Y-141556506D01*
X136076401Y-141556505D01*
X135908844Y-141439180D01*
X135890405Y-141426269D01*
X135846781Y-141371692D01*
X135839588Y-141302193D01*
X135871110Y-141239839D01*
X135890405Y-141223119D01*
X135927606Y-141197070D01*
X138449500Y-141197070D01*
X138449500Y-141452930D01*
X138465966Y-141556890D01*
X138489526Y-141705640D01*
X138568588Y-141948972D01*
X138568589Y-141948975D01*
X138642994Y-142095000D01*
X138661508Y-142131337D01*
X138684750Y-142176950D01*
X138835132Y-142383935D01*
X138835136Y-142383940D01*
X139016059Y-142564863D01*
X139016064Y-142564867D01*
X139166565Y-142674211D01*
X139223053Y-142715252D01*
X139330863Y-142770184D01*
X139451024Y-142831410D01*
X139451027Y-142831411D01*
X139565002Y-142868443D01*
X139694361Y-142910474D01*
X139947070Y-142950500D01*
X139947071Y-142950500D01*
X140202929Y-142950500D01*
X140202930Y-142950500D01*
X140455639Y-142910474D01*
X140698975Y-142831410D01*
X140926947Y-142715252D01*
X141133942Y-142564862D01*
X141314862Y-142383942D01*
X141465252Y-142176947D01*
X141581410Y-141948975D01*
X141660474Y-141705639D01*
X141693045Y-141499999D01*
X148594922Y-141499999D01*
X148594922Y-141500000D01*
X148615219Y-141887287D01*
X148675886Y-142270323D01*
X148675887Y-142270330D01*
X148776262Y-142644936D01*
X148915244Y-143006994D01*
X149091310Y-143352543D01*
X149302523Y-143677783D01*
X149302525Y-143677785D01*
X149511096Y-143935348D01*
X151005747Y-142440697D01*
X151079588Y-142542330D01*
X151257670Y-142720412D01*
X151359301Y-142794251D01*
X149864650Y-144288902D01*
X150122214Y-144497475D01*
X150122216Y-144497476D01*
X150447456Y-144708689D01*
X150793005Y-144884755D01*
X151155063Y-145023737D01*
X151529669Y-145124112D01*
X151529676Y-145124113D01*
X151912712Y-145184780D01*
X152299999Y-145205078D01*
X152300001Y-145205078D01*
X152687287Y-145184780D01*
X153070323Y-145124113D01*
X153070330Y-145124112D01*
X153444936Y-145023737D01*
X153806994Y-144884755D01*
X154152543Y-144708689D01*
X154477771Y-144497484D01*
X154477784Y-144497474D01*
X154735348Y-144288902D01*
X153240698Y-142794252D01*
X153342330Y-142720412D01*
X153520412Y-142542330D01*
X153594252Y-142440698D01*
X155092938Y-143939384D01*
X155146270Y-143952054D01*
X155194725Y-144002392D01*
X155208274Y-144070935D01*
X155189775Y-144125706D01*
X155174212Y-144150474D01*
X155114631Y-144320745D01*
X155114630Y-144320750D01*
X155094435Y-144499996D01*
X155094435Y-144500003D01*
X155114630Y-144679249D01*
X155114631Y-144679254D01*
X155174211Y-144849523D01*
X155189724Y-144874211D01*
X155270184Y-145002262D01*
X155397738Y-145129816D01*
X155452724Y-145164366D01*
X155546454Y-145223261D01*
X155550478Y-145225789D01*
X155720745Y-145285368D01*
X155720750Y-145285369D01*
X155899996Y-145305565D01*
X155900000Y-145305565D01*
X155900002Y-145305565D01*
X155928102Y-145302398D01*
X155962116Y-145298566D01*
X156030937Y-145310620D01*
X156082317Y-145357969D01*
X156095482Y-145405482D01*
X156100000Y-145410000D01*
X157016988Y-145410000D01*
X156984075Y-145467007D01*
X156950000Y-145594174D01*
X156950000Y-145725826D01*
X156984075Y-145852993D01*
X157016988Y-145910000D01*
X156100000Y-145910000D01*
X156100000Y-146557844D01*
X156106401Y-146617372D01*
X156106403Y-146617379D01*
X156156645Y-146752086D01*
X156156649Y-146752093D01*
X156242809Y-146867187D01*
X156242812Y-146867190D01*
X156357906Y-146953350D01*
X156357913Y-146953354D01*
X156489986Y-147002614D01*
X156545920Y-147044485D01*
X156570337Y-147109949D01*
X156555486Y-147178222D01*
X156534335Y-147206477D01*
X156411886Y-147328926D01*
X156276400Y-147522420D01*
X156276399Y-147522422D01*
X156176570Y-147736507D01*
X156176567Y-147736513D01*
X156119364Y-147949999D01*
X156119364Y-147950000D01*
X157016988Y-147950000D01*
X156984075Y-148007007D01*
X156950000Y-148134174D01*
X156950000Y-148265826D01*
X156984075Y-148392993D01*
X157016988Y-148450000D01*
X156119364Y-148450000D01*
X156176567Y-148663486D01*
X156176570Y-148663492D01*
X156276399Y-148877578D01*
X156411894Y-149071082D01*
X156578917Y-149238105D01*
X156765031Y-149368425D01*
X156808656Y-149423003D01*
X156815848Y-149492501D01*
X156784326Y-149554856D01*
X156765031Y-149571575D01*
X156578922Y-149701890D01*
X156578920Y-149701891D01*
X156411891Y-149868920D01*
X156411886Y-149868926D01*
X156276400Y-150062420D01*
X156276399Y-150062422D01*
X156176570Y-150276507D01*
X156176567Y-150276513D01*
X156119364Y-150489999D01*
X156119364Y-150490000D01*
X157016988Y-150490000D01*
X156984075Y-150547007D01*
X156950000Y-150674174D01*
X156950000Y-150805826D01*
X156984075Y-150932993D01*
X157016988Y-150990000D01*
X156119364Y-150990000D01*
X156176567Y-151203486D01*
X156176570Y-151203492D01*
X156276399Y-151417578D01*
X156411894Y-151611082D01*
X156578917Y-151778105D01*
X156772421Y-151913600D01*
X156986507Y-152013429D01*
X156986516Y-152013433D01*
X157200000Y-152070634D01*
X157200000Y-151173012D01*
X157257007Y-151205925D01*
X157384174Y-151240000D01*
X157515826Y-151240000D01*
X157642993Y-151205925D01*
X157700000Y-151173012D01*
X157700000Y-152070633D01*
X157913483Y-152013433D01*
X157913492Y-152013429D01*
X158127578Y-151913600D01*
X158321082Y-151778105D01*
X158488105Y-151611082D01*
X158623600Y-151417578D01*
X158723429Y-151203492D01*
X158723432Y-151203486D01*
X158780636Y-150990000D01*
X157883012Y-150990000D01*
X157915925Y-150932993D01*
X157950000Y-150805826D01*
X157950000Y-150674174D01*
X157915925Y-150547007D01*
X157883012Y-150490000D01*
X158780636Y-150490000D01*
X158780635Y-150489999D01*
X158723432Y-150276513D01*
X158723429Y-150276507D01*
X158623600Y-150062422D01*
X158623599Y-150062420D01*
X158488113Y-149868926D01*
X158488108Y-149868920D01*
X158321082Y-149701894D01*
X158134968Y-149571575D01*
X158091344Y-149516998D01*
X158084151Y-149447499D01*
X158115673Y-149385145D01*
X158134968Y-149368425D01*
X158321082Y-149238105D01*
X158488105Y-149071082D01*
X158623600Y-148877578D01*
X158723429Y-148663492D01*
X158723432Y-148663486D01*
X158780636Y-148450000D01*
X157883012Y-148450000D01*
X157915925Y-148392993D01*
X157950000Y-148265826D01*
X157950000Y-148134174D01*
X157915925Y-148007007D01*
X157883012Y-147950000D01*
X158780636Y-147950000D01*
X158780635Y-147949999D01*
X158723432Y-147736513D01*
X158723429Y-147736507D01*
X158623600Y-147522422D01*
X158623599Y-147522420D01*
X158488113Y-147328926D01*
X158488108Y-147328920D01*
X158365665Y-147206477D01*
X158332180Y-147145154D01*
X158337164Y-147075462D01*
X158379036Y-147019529D01*
X158410013Y-147002614D01*
X158542086Y-146953354D01*
X158542093Y-146953350D01*
X158657187Y-146867190D01*
X158657190Y-146867187D01*
X158743350Y-146752093D01*
X158743354Y-146752086D01*
X158793596Y-146617379D01*
X158793598Y-146617372D01*
X158799999Y-146557844D01*
X158800000Y-146557827D01*
X158800000Y-145910000D01*
X157883012Y-145910000D01*
X157915925Y-145852993D01*
X157950000Y-145725826D01*
X157950000Y-145594174D01*
X157915925Y-145467007D01*
X157883012Y-145410000D01*
X158800000Y-145410000D01*
X158800000Y-144762172D01*
X158799999Y-144762155D01*
X158793598Y-144702627D01*
X158793596Y-144702620D01*
X158743354Y-144567913D01*
X158743350Y-144567906D01*
X158657190Y-144452812D01*
X158657187Y-144452809D01*
X158542093Y-144366649D01*
X158542086Y-144366645D01*
X158407379Y-144316403D01*
X158407372Y-144316401D01*
X158347844Y-144310000D01*
X157700000Y-144310000D01*
X157700000Y-145226988D01*
X157642993Y-145194075D01*
X157515826Y-145160000D01*
X157384174Y-145160000D01*
X157257007Y-145194075D01*
X157200000Y-145226988D01*
X157200000Y-144310000D01*
X156769591Y-144310000D01*
X156702552Y-144290315D01*
X156656797Y-144237511D01*
X156652549Y-144226954D01*
X156637998Y-144185369D01*
X156625789Y-144150478D01*
X156625786Y-144150474D01*
X156575809Y-144070935D01*
X156529816Y-143997738D01*
X156402262Y-143870184D01*
X156399469Y-143868429D01*
X156249523Y-143774211D01*
X156079254Y-143714631D01*
X156079249Y-143714630D01*
X155900004Y-143694435D01*
X155899996Y-143694435D01*
X155720750Y-143714630D01*
X155720745Y-143714631D01*
X155550476Y-143774211D01*
X155493693Y-143809891D01*
X155426456Y-143828891D01*
X155359621Y-143808523D01*
X155314407Y-143755255D01*
X155305170Y-143685999D01*
X155323726Y-143637362D01*
X155508689Y-143352543D01*
X155684755Y-143006994D01*
X155823737Y-142644936D01*
X155924112Y-142270330D01*
X155924113Y-142270323D01*
X155984780Y-141887287D01*
X156005078Y-141500000D01*
X156005078Y-141499999D01*
X155984780Y-141112712D01*
X155924113Y-140729676D01*
X155924112Y-140729669D01*
X155823737Y-140355063D01*
X155749548Y-140161795D01*
X155743900Y-140092154D01*
X155776800Y-140030515D01*
X155837801Y-139996447D01*
X155851429Y-139994137D01*
X155929249Y-139985369D01*
X155929252Y-139985368D01*
X155929255Y-139985368D01*
X156099522Y-139925789D01*
X156252262Y-139829816D01*
X156379816Y-139702262D01*
X156475789Y-139549522D01*
X156535368Y-139379255D01*
X156535603Y-139377171D01*
X156555565Y-139200003D01*
X156555565Y-139199996D01*
X156535369Y-139020750D01*
X156535368Y-139020745D01*
X156515046Y-138962669D01*
X156475789Y-138850478D01*
X156379816Y-138697738D01*
X156252262Y-138570184D01*
X156099523Y-138474211D01*
X155929254Y-138414631D01*
X155929249Y-138414630D01*
X155750004Y-138394435D01*
X155749996Y-138394435D01*
X155570750Y-138414630D01*
X155570745Y-138414631D01*
X155400476Y-138474211D01*
X155247737Y-138570184D01*
X155120184Y-138697737D01*
X155024211Y-138850476D01*
X154964631Y-139020745D01*
X154964630Y-139020749D01*
X154948134Y-139167160D01*
X154921067Y-139231574D01*
X154912595Y-139240957D01*
X153594251Y-140559301D01*
X153520412Y-140457670D01*
X153342330Y-140279588D01*
X153240698Y-140205748D01*
X154735349Y-138711096D01*
X154477785Y-138502525D01*
X154477783Y-138502523D01*
X154152543Y-138291310D01*
X153806994Y-138115244D01*
X153444936Y-137976262D01*
X153070330Y-137875887D01*
X153070323Y-137875886D01*
X152687287Y-137815219D01*
X152300001Y-137794922D01*
X152299999Y-137794922D01*
X151912712Y-137815219D01*
X151529676Y-137875886D01*
X151529669Y-137875887D01*
X151155063Y-137976262D01*
X150793005Y-138115244D01*
X150447456Y-138291310D01*
X150122206Y-138502531D01*
X149864649Y-138711095D01*
X149864649Y-138711096D01*
X151359301Y-140205748D01*
X151257670Y-140279588D01*
X151079588Y-140457670D01*
X151005748Y-140559301D01*
X149511096Y-139064649D01*
X149511095Y-139064649D01*
X149302531Y-139322206D01*
X149091310Y-139647456D01*
X148915244Y-139993005D01*
X148776262Y-140355063D01*
X148675887Y-140729669D01*
X148675886Y-140729676D01*
X148615219Y-141112712D01*
X148594922Y-141499999D01*
X141693045Y-141499999D01*
X141700500Y-141452930D01*
X141700500Y-141197070D01*
X141660474Y-140944361D01*
X141581410Y-140701025D01*
X141581410Y-140701024D01*
X141507006Y-140555000D01*
X141465252Y-140473053D01*
X141343155Y-140305000D01*
X141314867Y-140266064D01*
X141314863Y-140266059D01*
X141133940Y-140085136D01*
X141133935Y-140085132D01*
X140926950Y-139934750D01*
X140926949Y-139934749D01*
X140926947Y-139934748D01*
X140853910Y-139897533D01*
X140698975Y-139818589D01*
X140698972Y-139818588D01*
X140455640Y-139739526D01*
X140329284Y-139719513D01*
X140202930Y-139699500D01*
X139947070Y-139699500D01*
X139862833Y-139712842D01*
X139694359Y-139739526D01*
X139451027Y-139818588D01*
X139451024Y-139818589D01*
X139223049Y-139934750D01*
X139016064Y-140085132D01*
X139016059Y-140085136D01*
X138835136Y-140266059D01*
X138835132Y-140266064D01*
X138684750Y-140473049D01*
X138568589Y-140701024D01*
X138568588Y-140701027D01*
X138489526Y-140944359D01*
X138457378Y-141147331D01*
X138449500Y-141197070D01*
X135927606Y-141197070D01*
X136076082Y-141093105D01*
X136243105Y-140926082D01*
X136378600Y-140732578D01*
X136478429Y-140518492D01*
X136478432Y-140518486D01*
X136535636Y-140305000D01*
X135638012Y-140305000D01*
X135670925Y-140247993D01*
X135705000Y-140120826D01*
X135705000Y-139989174D01*
X135670925Y-139862007D01*
X135638012Y-139805000D01*
X136535636Y-139805000D01*
X136535635Y-139804999D01*
X136478432Y-139591513D01*
X136478429Y-139591507D01*
X136378600Y-139377422D01*
X136378599Y-139377420D01*
X136243113Y-139183926D01*
X136243108Y-139183920D01*
X136076082Y-139016894D01*
X135882578Y-138881399D01*
X135668492Y-138781570D01*
X135668486Y-138781567D01*
X135455000Y-138724364D01*
X135455000Y-139621988D01*
X135397993Y-139589075D01*
X135270826Y-139555000D01*
X135139174Y-139555000D01*
X135012007Y-139589075D01*
X134955000Y-139621988D01*
X134955000Y-138724364D01*
X134954999Y-138724364D01*
X134741513Y-138781567D01*
X134741507Y-138781570D01*
X134527422Y-138881399D01*
X134527420Y-138881400D01*
X134333926Y-139016886D01*
X134333920Y-139016891D01*
X134166891Y-139183920D01*
X134166890Y-139183922D01*
X134036880Y-139369595D01*
X133982303Y-139413219D01*
X133912804Y-139420412D01*
X133850450Y-139388890D01*
X133833730Y-139369594D01*
X133703494Y-139183597D01*
X133536402Y-139016506D01*
X133536395Y-139016501D01*
X133342834Y-138880967D01*
X133342830Y-138880965D01*
X133342828Y-138880964D01*
X133128663Y-138781097D01*
X133128659Y-138781096D01*
X133128655Y-138781094D01*
X132900413Y-138719938D01*
X132900403Y-138719936D01*
X132665001Y-138699341D01*
X132664999Y-138699341D01*
X132429596Y-138719936D01*
X132429586Y-138719938D01*
X132201344Y-138781094D01*
X132201335Y-138781098D01*
X131987171Y-138880964D01*
X131987169Y-138880965D01*
X131793597Y-139016505D01*
X131626505Y-139183597D01*
X131496575Y-139369158D01*
X131441998Y-139412783D01*
X131372500Y-139419977D01*
X131310145Y-139388454D01*
X131293425Y-139369158D01*
X131163494Y-139183597D01*
X130996402Y-139016506D01*
X130996395Y-139016501D01*
X130802834Y-138880967D01*
X130802830Y-138880965D01*
X130802828Y-138880964D01*
X130588663Y-138781097D01*
X130588659Y-138781096D01*
X130588655Y-138781094D01*
X130360413Y-138719938D01*
X130360403Y-138719936D01*
X130125001Y-138699341D01*
X130124999Y-138699341D01*
X129889596Y-138719936D01*
X129889586Y-138719938D01*
X129661344Y-138781094D01*
X129661335Y-138781098D01*
X129447171Y-138880964D01*
X129447169Y-138880965D01*
X129253597Y-139016505D01*
X129086505Y-139183597D01*
X128956575Y-139369158D01*
X128901998Y-139412783D01*
X128832500Y-139419977D01*
X128770145Y-139388454D01*
X128753425Y-139369158D01*
X128623494Y-139183597D01*
X128456402Y-139016506D01*
X128456395Y-139016501D01*
X128262834Y-138880967D01*
X128262830Y-138880965D01*
X128262828Y-138880964D01*
X128048663Y-138781097D01*
X128048659Y-138781096D01*
X128048655Y-138781094D01*
X127820413Y-138719938D01*
X127820403Y-138719936D01*
X127585001Y-138699341D01*
X127584999Y-138699341D01*
X127349596Y-138719936D01*
X127349586Y-138719938D01*
X127121344Y-138781094D01*
X127121335Y-138781098D01*
X126907171Y-138880964D01*
X126907169Y-138880965D01*
X126713597Y-139016505D01*
X126546505Y-139183597D01*
X126416575Y-139369158D01*
X126361998Y-139412783D01*
X126292500Y-139419977D01*
X126230145Y-139388454D01*
X126213425Y-139369158D01*
X126083494Y-139183597D01*
X125916402Y-139016506D01*
X125916395Y-139016501D01*
X125722834Y-138880967D01*
X125722830Y-138880965D01*
X125722828Y-138880964D01*
X125508663Y-138781097D01*
X125508659Y-138781096D01*
X125508655Y-138781094D01*
X125280413Y-138719938D01*
X125280403Y-138719936D01*
X125045001Y-138699341D01*
X125044999Y-138699341D01*
X124809596Y-138719936D01*
X124809586Y-138719938D01*
X124581344Y-138781094D01*
X124581335Y-138781098D01*
X124367171Y-138880964D01*
X124367169Y-138880965D01*
X124173597Y-139016505D01*
X124006505Y-139183597D01*
X123876575Y-139369158D01*
X123821998Y-139412783D01*
X123752500Y-139419977D01*
X123690145Y-139388454D01*
X123673425Y-139369158D01*
X123543494Y-139183597D01*
X123376402Y-139016506D01*
X123376395Y-139016501D01*
X123182834Y-138880967D01*
X123182830Y-138880965D01*
X123182828Y-138880964D01*
X122968663Y-138781097D01*
X122968659Y-138781096D01*
X122968655Y-138781094D01*
X122740413Y-138719938D01*
X122740403Y-138719936D01*
X122505001Y-138699341D01*
X122504999Y-138699341D01*
X122269596Y-138719936D01*
X122269586Y-138719938D01*
X122041344Y-138781094D01*
X122041335Y-138781098D01*
X121827171Y-138880964D01*
X121827169Y-138880965D01*
X121633597Y-139016505D01*
X121466505Y-139183597D01*
X121336575Y-139369158D01*
X121281998Y-139412783D01*
X121212500Y-139419977D01*
X121150145Y-139388454D01*
X121133425Y-139369158D01*
X121003494Y-139183597D01*
X120836402Y-139016506D01*
X120836395Y-139016501D01*
X120642834Y-138880967D01*
X120642830Y-138880965D01*
X120642828Y-138880964D01*
X120428663Y-138781097D01*
X120428659Y-138781096D01*
X120428655Y-138781094D01*
X120200413Y-138719938D01*
X120200403Y-138719936D01*
X119965001Y-138699341D01*
X119964999Y-138699341D01*
X119729596Y-138719936D01*
X119729586Y-138719938D01*
X119501344Y-138781094D01*
X119501335Y-138781098D01*
X119287171Y-138880964D01*
X119287169Y-138880965D01*
X119093597Y-139016505D01*
X118926508Y-139183594D01*
X118796269Y-139369595D01*
X118741692Y-139413219D01*
X118672193Y-139420412D01*
X118609839Y-139388890D01*
X118593119Y-139369594D01*
X118463113Y-139183926D01*
X118463108Y-139183920D01*
X118296082Y-139016894D01*
X118102578Y-138881399D01*
X117888492Y-138781570D01*
X117888486Y-138781567D01*
X117675000Y-138724364D01*
X117675000Y-139621988D01*
X117617993Y-139589075D01*
X117490826Y-139555000D01*
X117359174Y-139555000D01*
X117232007Y-139589075D01*
X117175000Y-139621988D01*
X117175000Y-138724364D01*
X117174999Y-138724364D01*
X116961513Y-138781567D01*
X116961507Y-138781570D01*
X116747422Y-138881399D01*
X116747420Y-138881400D01*
X116553926Y-139016886D01*
X116553920Y-139016891D01*
X116386891Y-139183920D01*
X116386890Y-139183922D01*
X116256880Y-139369595D01*
X116202303Y-139413219D01*
X116132804Y-139420412D01*
X116070450Y-139388890D01*
X116053730Y-139369594D01*
X115923494Y-139183597D01*
X115756402Y-139016506D01*
X115756395Y-139016501D01*
X115562834Y-138880967D01*
X115562830Y-138880965D01*
X115562828Y-138880964D01*
X115348663Y-138781097D01*
X115348659Y-138781096D01*
X115348655Y-138781094D01*
X115120413Y-138719938D01*
X115120403Y-138719936D01*
X114885001Y-138699341D01*
X114884999Y-138699341D01*
X114649596Y-138719936D01*
X114649586Y-138719938D01*
X114421344Y-138781094D01*
X114421335Y-138781098D01*
X114207171Y-138880964D01*
X114207169Y-138880965D01*
X114013597Y-139016505D01*
X113846505Y-139183597D01*
X113716575Y-139369158D01*
X113661998Y-139412783D01*
X113592500Y-139419977D01*
X113530145Y-139388454D01*
X113513425Y-139369158D01*
X113383494Y-139183597D01*
X113216402Y-139016506D01*
X113216395Y-139016501D01*
X113022834Y-138880967D01*
X113022830Y-138880965D01*
X113022828Y-138880964D01*
X112808663Y-138781097D01*
X112808659Y-138781096D01*
X112808655Y-138781094D01*
X112580413Y-138719938D01*
X112580403Y-138719936D01*
X112345001Y-138699341D01*
X112344999Y-138699341D01*
X112109596Y-138719936D01*
X112109586Y-138719938D01*
X111881344Y-138781094D01*
X111881335Y-138781098D01*
X111667171Y-138880964D01*
X111667169Y-138880965D01*
X111473597Y-139016505D01*
X111306505Y-139183597D01*
X111176575Y-139369158D01*
X111121998Y-139412783D01*
X111052500Y-139419977D01*
X110990145Y-139388454D01*
X110973425Y-139369158D01*
X110843494Y-139183597D01*
X110676402Y-139016506D01*
X110676395Y-139016501D01*
X110482834Y-138880967D01*
X110482830Y-138880965D01*
X110482828Y-138880964D01*
X110268663Y-138781097D01*
X110268659Y-138781096D01*
X110268655Y-138781094D01*
X110040413Y-138719938D01*
X110040403Y-138719936D01*
X109805001Y-138699341D01*
X109804999Y-138699341D01*
X109569596Y-138719936D01*
X109569586Y-138719938D01*
X109341344Y-138781094D01*
X109341335Y-138781098D01*
X109127171Y-138880964D01*
X109127169Y-138880965D01*
X108933597Y-139016505D01*
X108766505Y-139183597D01*
X108636575Y-139369158D01*
X108581998Y-139412783D01*
X108512500Y-139419977D01*
X108450145Y-139388454D01*
X108433425Y-139369158D01*
X108303494Y-139183597D01*
X108136402Y-139016506D01*
X108136395Y-139016501D01*
X107942834Y-138880967D01*
X107942830Y-138880965D01*
X107942828Y-138880964D01*
X107728663Y-138781097D01*
X107728659Y-138781096D01*
X107728655Y-138781094D01*
X107500413Y-138719938D01*
X107500403Y-138719936D01*
X107265001Y-138699341D01*
X107264999Y-138699341D01*
X107029596Y-138719936D01*
X107029586Y-138719938D01*
X106801344Y-138781094D01*
X106801335Y-138781098D01*
X106587171Y-138880964D01*
X106587169Y-138880965D01*
X106393597Y-139016505D01*
X106226505Y-139183597D01*
X106096575Y-139369158D01*
X106041998Y-139412783D01*
X105972500Y-139419977D01*
X105910145Y-139388454D01*
X105893425Y-139369158D01*
X105763494Y-139183597D01*
X105596402Y-139016506D01*
X105596395Y-139016501D01*
X105402834Y-138880967D01*
X105402830Y-138880965D01*
X105402828Y-138880964D01*
X105188663Y-138781097D01*
X105188659Y-138781096D01*
X105188655Y-138781094D01*
X104960413Y-138719938D01*
X104960403Y-138719936D01*
X104725001Y-138699341D01*
X104724999Y-138699341D01*
X104489596Y-138719936D01*
X104489586Y-138719938D01*
X104261344Y-138781094D01*
X104261335Y-138781098D01*
X104047171Y-138880964D01*
X104047169Y-138880965D01*
X103853597Y-139016505D01*
X103686505Y-139183597D01*
X103556575Y-139369158D01*
X103501998Y-139412783D01*
X103432500Y-139419977D01*
X103370145Y-139388454D01*
X103353425Y-139369158D01*
X103223494Y-139183597D01*
X103056402Y-139016506D01*
X103056395Y-139016501D01*
X102862834Y-138880967D01*
X102862830Y-138880965D01*
X102862828Y-138880964D01*
X102648663Y-138781097D01*
X102648659Y-138781096D01*
X102648655Y-138781094D01*
X102420413Y-138719938D01*
X102420403Y-138719936D01*
X102185001Y-138699341D01*
X102184999Y-138699341D01*
X101949596Y-138719936D01*
X101949586Y-138719938D01*
X101721344Y-138781094D01*
X101721335Y-138781098D01*
X101507171Y-138880964D01*
X101507169Y-138880965D01*
X101313597Y-139016505D01*
X101146505Y-139183597D01*
X101016575Y-139369158D01*
X100961998Y-139412783D01*
X100892500Y-139419977D01*
X100830145Y-139388454D01*
X100813425Y-139369158D01*
X100683494Y-139183597D01*
X100516402Y-139016506D01*
X100516395Y-139016501D01*
X100322834Y-138880967D01*
X100322830Y-138880965D01*
X100322828Y-138880964D01*
X100108663Y-138781097D01*
X100108659Y-138781096D01*
X100108655Y-138781094D01*
X99880413Y-138719938D01*
X99880403Y-138719936D01*
X99645001Y-138699341D01*
X99644999Y-138699341D01*
X99409596Y-138719936D01*
X99409586Y-138719938D01*
X99181344Y-138781094D01*
X99181335Y-138781098D01*
X98967171Y-138880964D01*
X98967169Y-138880965D01*
X98773597Y-139016505D01*
X98606508Y-139183594D01*
X98476269Y-139369595D01*
X98421692Y-139413219D01*
X98352193Y-139420412D01*
X98289839Y-139388890D01*
X98273119Y-139369594D01*
X98143113Y-139183926D01*
X98143108Y-139183920D01*
X97976082Y-139016894D01*
X97782578Y-138881399D01*
X97568492Y-138781570D01*
X97568486Y-138781567D01*
X97355000Y-138724364D01*
X97355000Y-139621988D01*
X97297993Y-139589075D01*
X97170826Y-139555000D01*
X97039174Y-139555000D01*
X96912007Y-139589075D01*
X96855000Y-139621988D01*
X96855000Y-138724364D01*
X96854999Y-138724364D01*
X96641513Y-138781567D01*
X96641507Y-138781570D01*
X96427422Y-138881399D01*
X96427420Y-138881400D01*
X96233926Y-139016886D01*
X96233920Y-139016891D01*
X96066891Y-139183920D01*
X96066890Y-139183922D01*
X95936880Y-139369595D01*
X95882303Y-139413219D01*
X95812804Y-139420412D01*
X95750450Y-139388890D01*
X95733730Y-139369594D01*
X95603494Y-139183597D01*
X95436402Y-139016506D01*
X95436395Y-139016501D01*
X95242834Y-138880967D01*
X95242830Y-138880965D01*
X95242828Y-138880964D01*
X95028663Y-138781097D01*
X95028659Y-138781096D01*
X95028655Y-138781094D01*
X94800413Y-138719938D01*
X94800403Y-138719936D01*
X94565001Y-138699341D01*
X94564999Y-138699341D01*
X94329596Y-138719936D01*
X94329586Y-138719938D01*
X94101344Y-138781094D01*
X94101335Y-138781098D01*
X93887171Y-138880964D01*
X93887169Y-138880965D01*
X93693597Y-139016505D01*
X93526505Y-139183597D01*
X93396575Y-139369158D01*
X93341998Y-139412783D01*
X93272500Y-139419977D01*
X93210145Y-139388454D01*
X93193425Y-139369158D01*
X93063494Y-139183597D01*
X92896402Y-139016506D01*
X92896395Y-139016501D01*
X92702834Y-138880967D01*
X92702830Y-138880965D01*
X92702828Y-138880964D01*
X92488663Y-138781097D01*
X92488659Y-138781096D01*
X92488655Y-138781094D01*
X92260413Y-138719938D01*
X92260403Y-138719936D01*
X92025001Y-138699341D01*
X92024999Y-138699341D01*
X91789596Y-138719936D01*
X91789586Y-138719938D01*
X91561344Y-138781094D01*
X91561335Y-138781098D01*
X91347171Y-138880964D01*
X91347169Y-138880965D01*
X91153597Y-139016505D01*
X90986505Y-139183597D01*
X90856575Y-139369158D01*
X90801998Y-139412783D01*
X90732500Y-139419977D01*
X90670145Y-139388454D01*
X90653425Y-139369158D01*
X90523494Y-139183597D01*
X90356402Y-139016506D01*
X90356395Y-139016501D01*
X90162834Y-138880967D01*
X90162830Y-138880965D01*
X90162828Y-138880964D01*
X89948663Y-138781097D01*
X89948659Y-138781096D01*
X89948655Y-138781094D01*
X89720413Y-138719938D01*
X89720403Y-138719936D01*
X89485001Y-138699341D01*
X89484999Y-138699341D01*
X89249596Y-138719936D01*
X89249586Y-138719938D01*
X89021344Y-138781094D01*
X89021335Y-138781098D01*
X88807171Y-138880964D01*
X88807169Y-138880965D01*
X88613600Y-139016503D01*
X88491673Y-139138430D01*
X88430350Y-139171914D01*
X88360658Y-139166930D01*
X88304725Y-139125058D01*
X88287810Y-139094081D01*
X88238797Y-138962671D01*
X88238793Y-138962664D01*
X88152547Y-138847455D01*
X88152544Y-138847452D01*
X88037335Y-138761206D01*
X88037328Y-138761202D01*
X87902482Y-138710908D01*
X87902483Y-138710908D01*
X87842883Y-138704501D01*
X87842881Y-138704500D01*
X87842873Y-138704500D01*
X87842864Y-138704500D01*
X86047129Y-138704500D01*
X86047123Y-138704501D01*
X85987516Y-138710908D01*
X85852671Y-138761202D01*
X85852664Y-138761206D01*
X85737455Y-138847452D01*
X85737452Y-138847455D01*
X85651206Y-138962664D01*
X85651202Y-138962671D01*
X85600908Y-139097517D01*
X85594501Y-139157116D01*
X85594500Y-139157135D01*
X85594500Y-140952870D01*
X85594501Y-140952876D01*
X85600908Y-141012483D01*
X85651202Y-141147328D01*
X85651206Y-141147335D01*
X85737452Y-141262544D01*
X85737455Y-141262547D01*
X85852664Y-141348793D01*
X85852671Y-141348797D01*
X85984081Y-141397810D01*
X86040015Y-141439681D01*
X86064432Y-141505145D01*
X86049580Y-141573418D01*
X86028430Y-141601673D01*
X85906503Y-141723600D01*
X85770965Y-141917169D01*
X85770964Y-141917171D01*
X85671098Y-142131335D01*
X85671094Y-142131344D01*
X85609938Y-142359586D01*
X85609936Y-142359596D01*
X85589341Y-142594999D01*
X83092462Y-142594999D01*
X83133942Y-142564862D01*
X83314862Y-142383942D01*
X83465252Y-142176947D01*
X83581410Y-141948975D01*
X83660474Y-141705639D01*
X83700500Y-141452930D01*
X83700500Y-141197070D01*
X83660474Y-140944361D01*
X83581410Y-140701025D01*
X83581410Y-140701024D01*
X83507006Y-140555000D01*
X83465252Y-140473053D01*
X83343155Y-140305000D01*
X83314867Y-140266064D01*
X83314863Y-140266059D01*
X83133940Y-140085136D01*
X83133935Y-140085132D01*
X82926950Y-139934750D01*
X82926949Y-139934749D01*
X82926947Y-139934748D01*
X82853910Y-139897533D01*
X82698975Y-139818589D01*
X82698972Y-139818588D01*
X82455640Y-139739526D01*
X82329284Y-139719513D01*
X82202930Y-139699500D01*
X81947070Y-139699500D01*
X81862833Y-139712842D01*
X81694359Y-139739526D01*
X81451027Y-139818588D01*
X81451024Y-139818589D01*
X81223049Y-139934750D01*
X81016064Y-140085132D01*
X81016059Y-140085136D01*
X80835136Y-140266059D01*
X80835132Y-140266064D01*
X80684750Y-140473049D01*
X80568589Y-140701024D01*
X80568588Y-140701027D01*
X80489526Y-140944359D01*
X80457378Y-141147331D01*
X80449500Y-141197070D01*
X74939201Y-141197070D01*
X74934780Y-141112712D01*
X74874113Y-140729676D01*
X74874112Y-140729669D01*
X74773737Y-140355063D01*
X74634755Y-139993005D01*
X74458689Y-139647456D01*
X74247476Y-139322216D01*
X74247475Y-139322214D01*
X74038902Y-139064650D01*
X72544251Y-140559301D01*
X72470412Y-140457670D01*
X72292330Y-140279588D01*
X72190698Y-140205748D01*
X73685349Y-138711096D01*
X73427785Y-138502525D01*
X73427783Y-138502523D01*
X73102543Y-138291310D01*
X72756994Y-138115244D01*
X72394936Y-137976262D01*
X72020330Y-137875887D01*
X72020323Y-137875886D01*
X71637287Y-137815219D01*
X71250001Y-137794922D01*
X71249999Y-137794922D01*
X70862712Y-137815219D01*
X70479676Y-137875886D01*
X70479669Y-137875887D01*
X70105063Y-137976262D01*
X69743005Y-138115244D01*
X69397456Y-138291310D01*
X69072206Y-138502531D01*
X68814649Y-138711095D01*
X68814649Y-138711096D01*
X70309301Y-140205748D01*
X70207670Y-140279588D01*
X70029588Y-140457670D01*
X69955748Y-140559301D01*
X68461096Y-139064649D01*
X68461095Y-139064649D01*
X68252531Y-139322206D01*
X68041310Y-139647456D01*
X67865244Y-139993005D01*
X67726262Y-140355063D01*
X67625887Y-140729669D01*
X67625886Y-140729676D01*
X67565219Y-141112712D01*
X67544922Y-141499999D01*
X65729897Y-141499999D01*
X65738495Y-141491401D01*
X65874035Y-141297830D01*
X65973903Y-141083663D01*
X66035063Y-140855408D01*
X66055659Y-140620000D01*
X66035063Y-140384592D01*
X65980511Y-140181000D01*
X65973905Y-140156344D01*
X65973904Y-140156343D01*
X65973903Y-140156337D01*
X65874035Y-139942171D01*
X65873925Y-139942013D01*
X65738494Y-139748597D01*
X65571402Y-139581506D01*
X65571395Y-139581501D01*
X65377834Y-139445967D01*
X65377830Y-139445965D01*
X65377828Y-139445964D01*
X65163663Y-139346097D01*
X65163659Y-139346096D01*
X65163655Y-139346094D01*
X64935413Y-139284938D01*
X64935403Y-139284936D01*
X64700001Y-139264341D01*
X64699999Y-139264341D01*
X64464596Y-139284936D01*
X64464586Y-139284938D01*
X64236344Y-139346094D01*
X64236335Y-139346098D01*
X64022171Y-139445964D01*
X64022169Y-139445965D01*
X63828597Y-139581505D01*
X63661505Y-139748597D01*
X63526075Y-139942013D01*
X63471498Y-139985638D01*
X63402000Y-139992832D01*
X63339645Y-139961309D01*
X63304231Y-139901079D01*
X63300500Y-139870890D01*
X63300500Y-137424500D01*
X63320185Y-137357461D01*
X63372989Y-137311706D01*
X63424500Y-137300500D01*
X158975500Y-137300500D01*
X159042539Y-137320185D01*
G37*
%TD.AperFunction*%
%TD*%
M02*
