M48
; DRILL file {KiCad 8.0.7-8.0.7-0~ubuntu24.04.1} date 2025-02-04T17:05:01+0100
; FORMAT={-:-/ absolute / inch / decimal}
; #@! TF.CreationDate,2025-02-04T17:05:01+01:00
; #@! TF.GenerationSoftware,Kicad,Pcbnew,8.0.7-8.0.7-0~ubuntu24.04.1
; #@! TF.FileFunction,Plated,1,4,PTH
FMAT,2
INCH
; #@! TA.AperFunction,Plated,PTH,ViaDrill
T1C0.0118
; #@! TA.AperFunction,Plated,PTH,ComponentDrill
T2C0.0197
; #@! TA.AperFunction,Plated,PTH,ComponentDrill
T3C0.0315
; #@! TA.AperFunction,Plated,PTH,ComponentDrill
T4C0.0374
; #@! TA.AperFunction,Plated,PTH,ComponentDrill
T5C0.0394
; #@! TA.AperFunction,Plated,PTH,ComponentDrill
T6C0.1260
; #@! TA.AperFunction,Plated,PTH,ComponentDrill
T7C0.1772
%
G90
G05
T1
X2.5157Y-6.4882
X2.5197Y-6.3937
X2.5394Y-6.4409
X2.6063Y-7.189
X2.6791Y-6.0354
X2.7146Y-6.1358
X2.7264Y-6.4409
X2.7795Y-6.2402
X3.0118Y-6.4409
X3.4606Y-6.4409
X3.5276Y-5.7303
X3.5788Y-5.8641
X3.5822Y-6.1816
X3.5894Y-6.1014
X3.601Y-5.8878
X3.6263Y-5.9117
X3.7402Y-6.4409
X3.7874Y-5.9843
X3.8189Y-6.0079
X3.8425Y-6.0394
X3.8768Y-6.1171
X3.9183Y-5.9362
X3.9439Y-6.0542
X3.9553Y-6.0248
X3.9832Y-6.0402
X4.0163Y-5.9164
X4.0176Y-5.8849
X4.0192Y-5.8513
X4.0657Y-6.0145
X4.1339Y-6.1417
X4.187Y-6.4409
X4.2475Y-5.7217
X4.2783Y-6.0817
X4.4665Y-6.4409
X4.9154Y-6.4409
X5.189Y-6.4409
X5.2367Y-6.2409
X5.4409Y-5.7165
X5.5157Y-5.7953
X5.6378Y-5.7323
X5.6437Y-6.4409
X5.689Y-5.7559
X5.7205Y-5.6457
X5.7835Y-5.6614
X5.9232Y-6.4409
X5.9803Y-6.2638
X6.0551Y-5.7992
X6.1319Y-5.4803
X6.1378Y-5.689
X6.1496Y-5.4252
X6.1496Y-5.5512
X6.1496Y-7.189
X6.2047Y-6.3799
X6.2461Y-6.4921
X6.252Y-6.4409
T2
X2.7106Y-5.5709
X2.7106Y-7.0787
X2.7383Y-5.5041
X2.7383Y-5.6377
X2.7383Y-7.0119
X2.7383Y-7.1456
X2.8051Y-5.4764
X2.8051Y-5.6654
X2.8051Y-6.9843
X2.8051Y-7.1732
X2.8719Y-5.5041
X2.8719Y-5.6377
X2.8719Y-7.0119
X2.8719Y-7.1456
X2.8996Y-5.5709
X2.8996Y-7.0787
X5.9016Y-5.5709
X5.9016Y-7.0787
X5.9292Y-5.5041
X5.9292Y-5.6377
X5.9292Y-7.0119
X5.9292Y-7.1456
X5.9961Y-5.4764
X5.9961Y-5.6654
X5.9961Y-6.9843
X5.9961Y-7.1732
X6.0629Y-5.5041
X6.0629Y-5.6377
X6.0629Y-7.0119
X6.0629Y-7.1456
X6.0906Y-5.5709
X6.0906Y-7.0787
T3
X2.7783Y-5.7657
X2.7783Y-6.0657
X2.8783Y-5.7657
X2.8783Y-6.0657
X2.9783Y-5.7657
X2.9783Y-6.0657
X3.0783Y-5.7657
X3.0783Y-6.0657
X3.1783Y-5.7657
X3.1783Y-6.0657
X3.2783Y-5.7657
X3.2783Y-6.0657
X3.3783Y-5.7657
X3.3783Y-6.0657
T4
X2.998Y-6.2913
X3.0965Y-6.2913
X3.1949Y-6.2913
X3.2933Y-6.2913
T5
X2.5472Y-5.5362
X2.5472Y-5.6362
X2.5472Y-5.7362
X2.5472Y-5.8362
X2.5472Y-5.9362
X2.5472Y-6.0362
X2.5472Y-6.1362
X2.5472Y-6.2362
X2.5472Y-6.3362
X3.423Y-5.514
X3.423Y-5.614
X3.523Y-5.514
X3.523Y-5.614
X3.622Y-5.7854
X3.623Y-5.514
X3.623Y-5.614
X3.722Y-5.7854
X3.723Y-5.514
X3.723Y-5.614
X3.822Y-5.7854
X3.823Y-5.514
X3.823Y-5.614
X3.923Y-5.514
X3.923Y-5.614
X4.023Y-5.514
X4.023Y-5.614
X4.123Y-5.514
X4.123Y-5.614
X4.223Y-5.514
X4.223Y-5.614
X4.323Y-5.514
X4.323Y-5.614
X4.423Y-5.514
X4.423Y-5.614
X4.4587Y-5.8504
X4.523Y-5.514
X4.523Y-5.614
X4.5587Y-5.8504
X4.623Y-5.514
X4.623Y-5.614
X4.6587Y-5.8504
X4.685Y-6.1047
X4.685Y-6.2047
X4.685Y-6.3047
X4.723Y-5.514
X4.723Y-5.614
X4.7587Y-5.8504
X4.823Y-5.514
X4.823Y-5.614
X4.8425Y-6.1041
X4.8425Y-6.2041
X4.8425Y-6.3041
X4.923Y-5.514
X4.923Y-5.614
X5.0Y-6.1041
X5.0Y-6.2041
X5.0Y-6.3041
X5.023Y-5.514
X5.023Y-5.614
X5.123Y-5.514
X5.123Y-5.614
X5.1575Y-6.1031
X5.1575Y-6.2031
X5.1575Y-6.3031
X5.223Y-5.514
X5.223Y-5.614
X5.323Y-5.514
X5.323Y-5.614
X5.9803Y-5.9252
X5.9803Y-6.0252
X5.9803Y-6.1252
X6.1969Y-6.0915
X6.1969Y-6.1915
X6.1969Y-6.2915
X6.1988Y-5.7346
X6.1988Y-5.8346
X6.1988Y-5.9346
T6
X2.8051Y-5.5709
X2.8051Y-7.0787
X5.9961Y-5.5709
X5.9961Y-7.0787
T7
X2.7323Y-6.6929
X3.0157Y-6.6929
X3.4646Y-6.6929
X3.748Y-6.6929
X4.189Y-6.6929
X4.4724Y-6.6929
X4.9134Y-6.6929
X5.1969Y-6.6929
X5.6457Y-6.6929
X5.9291Y-6.6929
M30
