M48
; DRILL file {KiCad 8.0.7-8.0.7-0~ubuntu24.04.1} date 2025-01-04T16:30:41+0100
; FORMAT={-:-/ absolute / inch / decimal}
; #@! TF.CreationDate,2025-01-04T16:30:41+01:00
; #@! TF.GenerationSoftware,Kicad,Pcbnew,8.0.7-8.0.7-0~ubuntu24.04.1
; #@! TF.FileFunction,Plated,1,2,PTH
FMAT,2
INCH
; #@! TA.AperFunction,Plated,PTH,ViaDrill
T1C0.0118
; #@! TA.AperFunction,Plated,PTH,ComponentDrill
T2C0.0197
; #@! TA.AperFunction,Plated,PTH,ComponentDrill
T3C0.0374
; #@! TA.AperFunction,Plated,PTH,ComponentDrill
T4C0.0394
; #@! TA.AperFunction,Plated,PTH,ComponentDrill
T5C0.1260
; #@! TA.AperFunction,Plated,PTH,ComponentDrill
T6C0.1772
%
G90
G05
T1
X2.5591Y-3.2677
X3.2283Y-1.6142
X3.2283Y-1.6142
X3.2283Y-1.6142
X3.2283Y-1.6142
X3.2283Y-1.6142
X3.2283Y-1.6142
X3.2283Y-3.9764
X3.4646Y-3.8583
X3.6417Y-1.6929
X4.1339Y-3.3465
X4.1732Y-3.1693
X4.252Y-2.6378
X4.3504Y-2.6378
X4.4055Y-3.0906
X4.4429Y-3.1161
X4.4567Y-3.0669
X4.4606Y-3.185
X4.5276Y-3.0906
X4.563Y-3.122
X4.6654Y-3.3071
X4.8622Y-3.1496
X5.0787Y-2.9528
X5.3346Y-3.8583
X5.9646Y-3.3661
X6.378Y-1.7323
X6.378Y-3.8583
X6.6142Y-1.6142
X6.6142Y-3.9764
T2
X2.5433Y-1.3386
X2.5433Y-4.2126
X2.571Y-1.2718
X2.571Y-1.4054
X2.571Y-4.1458
X2.571Y-4.2794
X2.6378Y-1.2441
X2.6378Y-1.4331
X2.6378Y-4.1181
X2.6378Y-4.3071
X2.7046Y-1.2718
X2.7046Y-1.4054
X2.7046Y-4.1458
X2.7046Y-4.2794
X2.7323Y-1.3386
X2.7323Y-4.2126
X6.7559Y-1.3386
X6.7559Y-4.2126
X6.7836Y-1.2718
X6.7836Y-1.4054
X6.7836Y-4.1458
X6.7836Y-4.2794
X6.8504Y-1.2441
X6.8504Y-1.4331
X6.8504Y-4.1181
X6.8504Y-4.3071
X6.9172Y-1.2718
X6.9172Y-1.4054
X6.9172Y-4.1458
X6.9172Y-4.2794
X6.9449Y-1.3386
X6.9449Y-4.2126
T3
X4.7441Y-3.5827
X4.8425Y-3.5827
X4.9409Y-3.5827
X5.0394Y-3.5827
X5.1378Y-3.5827
X5.2362Y-3.5827
X5.3346Y-3.5827
X5.4331Y-3.5827
X5.5315Y-3.5827
X5.6299Y-3.5827
X5.7283Y-3.5827
X5.8268Y-3.5827
T4
X2.9071Y-1.4567
X3.0071Y-1.4567
X3.1071Y-1.4567
X3.2071Y-1.4567
X3.3071Y-1.4567
X3.4071Y-1.4567
X3.5071Y-1.4567
X3.5236Y-2.4803
X3.5236Y-2.5803
X3.5236Y-2.6803
X3.6071Y-1.4567
X4.0018Y-2.7463
X4.0018Y-2.8463
X4.1018Y-2.7463
X4.1018Y-2.8463
X4.2018Y-2.7463
X4.2018Y-2.8463
X4.3018Y-2.7463
X4.3018Y-2.8463
X4.3701Y-3.6417
X4.3701Y-3.7417
X4.3701Y-3.8417
X4.4018Y-2.7463
X4.4018Y-2.8463
X4.5018Y-2.7463
X4.5018Y-2.8463
X4.5276Y-3.6407
X4.5276Y-3.7407
X4.5276Y-3.8407
X4.6018Y-2.7463
X4.6018Y-2.8463
X4.7018Y-2.7463
X4.7018Y-2.8463
X4.8018Y-2.7463
X4.8018Y-2.8463
X4.9018Y-2.7463
X4.9018Y-2.8463
X5.0018Y-2.7463
X5.0018Y-2.8463
X5.1018Y-2.7463
X5.1018Y-2.8463
X5.1929Y-3.1526
X5.1929Y-3.2526
X5.1929Y-3.3526
X5.2018Y-2.7463
X5.2018Y-2.8463
X5.3018Y-2.7463
X5.3018Y-2.8463
X5.374Y-3.1496
X5.374Y-3.2496
X5.374Y-3.3496
X5.4018Y-2.7463
X5.4018Y-2.8463
X5.5018Y-2.7463
X5.5018Y-2.8463
X5.5512Y-3.1496
X5.5512Y-3.2496
X5.5512Y-3.3496
X5.6018Y-2.7463
X5.6018Y-2.8463
X5.7018Y-2.7463
X5.7018Y-2.8463
X5.7283Y-3.1496
X5.7283Y-3.2496
X5.7283Y-3.3496
X5.8018Y-2.7463
X5.8018Y-2.8463
X5.9018Y-2.7463
X5.9018Y-2.8463
X6.3287Y-2.7937
X6.3287Y-2.8937
X6.3287Y-2.9937
X6.4961Y-2.3809
X6.4961Y-2.4809
X6.4961Y-2.5809
X6.4961Y-2.7943
X6.4961Y-2.8943
X6.4961Y-2.9943
T5
X2.6378Y-1.3386
X2.6378Y-4.2126
X6.8504Y-1.3386
X6.8504Y-4.2126
T6
X2.6535Y-1.8504
X2.6535Y-2.3622
X2.6535Y-2.874
X2.937Y-1.8504
X2.937Y-2.3622
X2.937Y-2.874
X3.4232Y-1.9213
X3.4232Y-2.2047
X4.6417Y-1.378
X4.6417Y-4.252
X4.9252Y-1.378
X4.9252Y-4.252
X6.8661Y-2.7953
X6.8661Y-3.0787
M30
