%TF.GenerationSoftware,KiCad,Pcbnew,8.0.7-8.0.7-0~ubuntu24.04.1*%
%TF.CreationDate,2024-12-07T01:42:30+01:00*%
%TF.ProjectId,drn2,64726e32-2e6b-4696-9361-645f70636258,rev?*%
%TF.SameCoordinates,Original*%
%TF.FileFunction,Legend,Bot*%
%TF.FilePolarity,Positive*%
%FSLAX46Y46*%
G04 Gerber Fmt 4.6, Leading zero omitted, Abs format (unit mm)*
G04 Created by KiCad (PCBNEW 8.0.7-8.0.7-0~ubuntu24.04.1) date 2024-12-07 01:42:30*
%MOMM*%
%LPD*%
G01*
G04 APERTURE LIST*
%ADD10C,0.100000*%
G04 APERTURE END LIST*
D10*
X125696115Y-57872419D02*
X125696115Y-56872419D01*
X125696115Y-56872419D02*
X125458020Y-56872419D01*
X125458020Y-56872419D02*
X125315163Y-56920038D01*
X125315163Y-56920038D02*
X125219925Y-57015276D01*
X125219925Y-57015276D02*
X125172306Y-57110514D01*
X125172306Y-57110514D02*
X125124687Y-57300990D01*
X125124687Y-57300990D02*
X125124687Y-57443847D01*
X125124687Y-57443847D02*
X125172306Y-57634323D01*
X125172306Y-57634323D02*
X125219925Y-57729561D01*
X125219925Y-57729561D02*
X125315163Y-57824800D01*
X125315163Y-57824800D02*
X125458020Y-57872419D01*
X125458020Y-57872419D02*
X125696115Y-57872419D01*
X124124687Y-57872419D02*
X124458020Y-57396228D01*
X124696115Y-57872419D02*
X124696115Y-56872419D01*
X124696115Y-56872419D02*
X124315163Y-56872419D01*
X124315163Y-56872419D02*
X124219925Y-56920038D01*
X124219925Y-56920038D02*
X124172306Y-56967657D01*
X124172306Y-56967657D02*
X124124687Y-57062895D01*
X124124687Y-57062895D02*
X124124687Y-57205752D01*
X124124687Y-57205752D02*
X124172306Y-57300990D01*
X124172306Y-57300990D02*
X124219925Y-57348609D01*
X124219925Y-57348609D02*
X124315163Y-57396228D01*
X124315163Y-57396228D02*
X124696115Y-57396228D01*
X123696115Y-57872419D02*
X123696115Y-56872419D01*
X123696115Y-56872419D02*
X123124687Y-57872419D01*
X123124687Y-57872419D02*
X123124687Y-56872419D01*
M02*
