%TF.GenerationSoftware,KiCad,Pcbnew,8.0.7-8.0.7-0~ubuntu24.04.1*%
%TF.CreationDate,2025-02-04T17:05:19+01:00*%
%TF.ProjectId,drn2,64726e32-2e6b-4696-9361-645f70636258,rev?*%
%TF.SameCoordinates,Original*%
%TF.FileFunction,Legend,Top*%
%TF.FilePolarity,Positive*%
%FSLAX46Y46*%
G04 Gerber Fmt 4.6, Leading zero omitted, Abs format (unit mm)*
G04 Created by KiCad (PCBNEW 8.0.7-8.0.7-0~ubuntu24.04.1) date 2025-02-04 17:05:19*
%MOMM*%
%LPD*%
G01*
G04 APERTURE LIST*
%ADD10C,0.150000*%
%ADD11C,0.120000*%
%ADD12C,0.100000*%
G04 APERTURE END LIST*
D10*
X126666666Y-161909819D02*
X126666666Y-162624104D01*
X126666666Y-162624104D02*
X126619047Y-162766961D01*
X126619047Y-162766961D02*
X126523809Y-162862200D01*
X126523809Y-162862200D02*
X126380952Y-162909819D01*
X126380952Y-162909819D02*
X126285714Y-162909819D01*
X127047619Y-161909819D02*
X127666666Y-161909819D01*
X127666666Y-161909819D02*
X127333333Y-162290771D01*
X127333333Y-162290771D02*
X127476190Y-162290771D01*
X127476190Y-162290771D02*
X127571428Y-162338390D01*
X127571428Y-162338390D02*
X127619047Y-162386009D01*
X127619047Y-162386009D02*
X127666666Y-162481247D01*
X127666666Y-162481247D02*
X127666666Y-162719342D01*
X127666666Y-162719342D02*
X127619047Y-162814580D01*
X127619047Y-162814580D02*
X127571428Y-162862200D01*
X127571428Y-162862200D02*
X127476190Y-162909819D01*
X127476190Y-162909819D02*
X127190476Y-162909819D01*
X127190476Y-162909819D02*
X127095238Y-162862200D01*
X127095238Y-162862200D02*
X127047619Y-162814580D01*
X98083333Y-160609580D02*
X98035714Y-160657200D01*
X98035714Y-160657200D02*
X97892857Y-160704819D01*
X97892857Y-160704819D02*
X97797619Y-160704819D01*
X97797619Y-160704819D02*
X97654762Y-160657200D01*
X97654762Y-160657200D02*
X97559524Y-160561961D01*
X97559524Y-160561961D02*
X97511905Y-160466723D01*
X97511905Y-160466723D02*
X97464286Y-160276247D01*
X97464286Y-160276247D02*
X97464286Y-160133390D01*
X97464286Y-160133390D02*
X97511905Y-159942914D01*
X97511905Y-159942914D02*
X97559524Y-159847676D01*
X97559524Y-159847676D02*
X97654762Y-159752438D01*
X97654762Y-159752438D02*
X97797619Y-159704819D01*
X97797619Y-159704819D02*
X97892857Y-159704819D01*
X97892857Y-159704819D02*
X98035714Y-159752438D01*
X98035714Y-159752438D02*
X98083333Y-159800057D01*
X98988095Y-159704819D02*
X98511905Y-159704819D01*
X98511905Y-159704819D02*
X98464286Y-160181009D01*
X98464286Y-160181009D02*
X98511905Y-160133390D01*
X98511905Y-160133390D02*
X98607143Y-160085771D01*
X98607143Y-160085771D02*
X98845238Y-160085771D01*
X98845238Y-160085771D02*
X98940476Y-160133390D01*
X98940476Y-160133390D02*
X98988095Y-160181009D01*
X98988095Y-160181009D02*
X99035714Y-160276247D01*
X99035714Y-160276247D02*
X99035714Y-160514342D01*
X99035714Y-160514342D02*
X98988095Y-160609580D01*
X98988095Y-160609580D02*
X98940476Y-160657200D01*
X98940476Y-160657200D02*
X98845238Y-160704819D01*
X98845238Y-160704819D02*
X98607143Y-160704819D01*
X98607143Y-160704819D02*
X98511905Y-160657200D01*
X98511905Y-160657200D02*
X98464286Y-160609580D01*
X106503333Y-156359819D02*
X106170000Y-155883628D01*
X105931905Y-156359819D02*
X105931905Y-155359819D01*
X105931905Y-155359819D02*
X106312857Y-155359819D01*
X106312857Y-155359819D02*
X106408095Y-155407438D01*
X106408095Y-155407438D02*
X106455714Y-155455057D01*
X106455714Y-155455057D02*
X106503333Y-155550295D01*
X106503333Y-155550295D02*
X106503333Y-155693152D01*
X106503333Y-155693152D02*
X106455714Y-155788390D01*
X106455714Y-155788390D02*
X106408095Y-155836009D01*
X106408095Y-155836009D02*
X106312857Y-155883628D01*
X106312857Y-155883628D02*
X105931905Y-155883628D01*
X106979524Y-156359819D02*
X107170000Y-156359819D01*
X107170000Y-156359819D02*
X107265238Y-156312200D01*
X107265238Y-156312200D02*
X107312857Y-156264580D01*
X107312857Y-156264580D02*
X107408095Y-156121723D01*
X107408095Y-156121723D02*
X107455714Y-155931247D01*
X107455714Y-155931247D02*
X107455714Y-155550295D01*
X107455714Y-155550295D02*
X107408095Y-155455057D01*
X107408095Y-155455057D02*
X107360476Y-155407438D01*
X107360476Y-155407438D02*
X107265238Y-155359819D01*
X107265238Y-155359819D02*
X107074762Y-155359819D01*
X107074762Y-155359819D02*
X106979524Y-155407438D01*
X106979524Y-155407438D02*
X106931905Y-155455057D01*
X106931905Y-155455057D02*
X106884286Y-155550295D01*
X106884286Y-155550295D02*
X106884286Y-155788390D01*
X106884286Y-155788390D02*
X106931905Y-155883628D01*
X106931905Y-155883628D02*
X106979524Y-155931247D01*
X106979524Y-155931247D02*
X107074762Y-155978866D01*
X107074762Y-155978866D02*
X107265238Y-155978866D01*
X107265238Y-155978866D02*
X107360476Y-155931247D01*
X107360476Y-155931247D02*
X107408095Y-155883628D01*
X107408095Y-155883628D02*
X107455714Y-155788390D01*
X126006819Y-153333332D02*
X125006819Y-153333332D01*
X125006819Y-153333332D02*
X125721104Y-152999999D01*
X125721104Y-152999999D02*
X125006819Y-152666666D01*
X125006819Y-152666666D02*
X126006819Y-152666666D01*
X125006819Y-151999999D02*
X125006819Y-151809523D01*
X125006819Y-151809523D02*
X125054438Y-151714285D01*
X125054438Y-151714285D02*
X125149676Y-151619047D01*
X125149676Y-151619047D02*
X125340152Y-151571428D01*
X125340152Y-151571428D02*
X125673485Y-151571428D01*
X125673485Y-151571428D02*
X125863961Y-151619047D01*
X125863961Y-151619047D02*
X125959200Y-151714285D01*
X125959200Y-151714285D02*
X126006819Y-151809523D01*
X126006819Y-151809523D02*
X126006819Y-151999999D01*
X126006819Y-151999999D02*
X125959200Y-152095237D01*
X125959200Y-152095237D02*
X125863961Y-152190475D01*
X125863961Y-152190475D02*
X125673485Y-152238094D01*
X125673485Y-152238094D02*
X125340152Y-152238094D01*
X125340152Y-152238094D02*
X125149676Y-152190475D01*
X125149676Y-152190475D02*
X125054438Y-152095237D01*
X125054438Y-152095237D02*
X125006819Y-151999999D01*
X126006819Y-150619047D02*
X126006819Y-151190475D01*
X126006819Y-150904761D02*
X125006819Y-150904761D01*
X125006819Y-150904761D02*
X125149676Y-150999999D01*
X125149676Y-150999999D02*
X125244914Y-151095237D01*
X125244914Y-151095237D02*
X125292533Y-151190475D01*
X154661905Y-141554819D02*
X154661905Y-140554819D01*
X154661905Y-140554819D02*
X154900000Y-140554819D01*
X154900000Y-140554819D02*
X155042857Y-140602438D01*
X155042857Y-140602438D02*
X155138095Y-140697676D01*
X155138095Y-140697676D02*
X155185714Y-140792914D01*
X155185714Y-140792914D02*
X155233333Y-140983390D01*
X155233333Y-140983390D02*
X155233333Y-141126247D01*
X155233333Y-141126247D02*
X155185714Y-141316723D01*
X155185714Y-141316723D02*
X155138095Y-141411961D01*
X155138095Y-141411961D02*
X155042857Y-141507200D01*
X155042857Y-141507200D02*
X154900000Y-141554819D01*
X154900000Y-141554819D02*
X154661905Y-141554819D01*
X155566667Y-140554819D02*
X156185714Y-140554819D01*
X156185714Y-140554819D02*
X155852381Y-140935771D01*
X155852381Y-140935771D02*
X155995238Y-140935771D01*
X155995238Y-140935771D02*
X156090476Y-140983390D01*
X156090476Y-140983390D02*
X156138095Y-141031009D01*
X156138095Y-141031009D02*
X156185714Y-141126247D01*
X156185714Y-141126247D02*
X156185714Y-141364342D01*
X156185714Y-141364342D02*
X156138095Y-141459580D01*
X156138095Y-141459580D02*
X156090476Y-141507200D01*
X156090476Y-141507200D02*
X155995238Y-141554819D01*
X155995238Y-141554819D02*
X155709524Y-141554819D01*
X155709524Y-141554819D02*
X155614286Y-141507200D01*
X155614286Y-141507200D02*
X155566667Y-141459580D01*
X90183333Y-155459580D02*
X90135714Y-155507200D01*
X90135714Y-155507200D02*
X89992857Y-155554819D01*
X89992857Y-155554819D02*
X89897619Y-155554819D01*
X89897619Y-155554819D02*
X89754762Y-155507200D01*
X89754762Y-155507200D02*
X89659524Y-155411961D01*
X89659524Y-155411961D02*
X89611905Y-155316723D01*
X89611905Y-155316723D02*
X89564286Y-155126247D01*
X89564286Y-155126247D02*
X89564286Y-154983390D01*
X89564286Y-154983390D02*
X89611905Y-154792914D01*
X89611905Y-154792914D02*
X89659524Y-154697676D01*
X89659524Y-154697676D02*
X89754762Y-154602438D01*
X89754762Y-154602438D02*
X89897619Y-154554819D01*
X89897619Y-154554819D02*
X89992857Y-154554819D01*
X89992857Y-154554819D02*
X90135714Y-154602438D01*
X90135714Y-154602438D02*
X90183333Y-154650057D01*
X91040476Y-154888152D02*
X91040476Y-155554819D01*
X90802381Y-154507200D02*
X90564286Y-155221485D01*
X90564286Y-155221485D02*
X91183333Y-155221485D01*
X69114285Y-174754819D02*
X69114285Y-175469104D01*
X69114285Y-175469104D02*
X69066666Y-175611961D01*
X69066666Y-175611961D02*
X68971428Y-175707200D01*
X68971428Y-175707200D02*
X68828571Y-175754819D01*
X68828571Y-175754819D02*
X68733333Y-175754819D01*
X69495238Y-174754819D02*
X70114285Y-174754819D01*
X70114285Y-174754819D02*
X69780952Y-175135771D01*
X69780952Y-175135771D02*
X69923809Y-175135771D01*
X69923809Y-175135771D02*
X70019047Y-175183390D01*
X70019047Y-175183390D02*
X70066666Y-175231009D01*
X70066666Y-175231009D02*
X70114285Y-175326247D01*
X70114285Y-175326247D02*
X70114285Y-175564342D01*
X70114285Y-175564342D02*
X70066666Y-175659580D01*
X70066666Y-175659580D02*
X70019047Y-175707200D01*
X70019047Y-175707200D02*
X69923809Y-175754819D01*
X69923809Y-175754819D02*
X69638095Y-175754819D01*
X69638095Y-175754819D02*
X69542857Y-175707200D01*
X69542857Y-175707200D02*
X69495238Y-175659580D01*
X70304762Y-175850057D02*
X71066666Y-175850057D01*
X71638095Y-175231009D02*
X71304762Y-175231009D01*
X71304762Y-175754819D02*
X71304762Y-174754819D01*
X71304762Y-174754819D02*
X71780952Y-174754819D01*
X72114286Y-174850057D02*
X72161905Y-174802438D01*
X72161905Y-174802438D02*
X72257143Y-174754819D01*
X72257143Y-174754819D02*
X72495238Y-174754819D01*
X72495238Y-174754819D02*
X72590476Y-174802438D01*
X72590476Y-174802438D02*
X72638095Y-174850057D01*
X72638095Y-174850057D02*
X72685714Y-174945295D01*
X72685714Y-174945295D02*
X72685714Y-175040533D01*
X72685714Y-175040533D02*
X72638095Y-175183390D01*
X72638095Y-175183390D02*
X72066667Y-175754819D01*
X72066667Y-175754819D02*
X72685714Y-175754819D01*
X72876191Y-175850057D02*
X73638095Y-175850057D01*
X74209524Y-175231009D02*
X74352381Y-175278628D01*
X74352381Y-175278628D02*
X74400000Y-175326247D01*
X74400000Y-175326247D02*
X74447619Y-175421485D01*
X74447619Y-175421485D02*
X74447619Y-175564342D01*
X74447619Y-175564342D02*
X74400000Y-175659580D01*
X74400000Y-175659580D02*
X74352381Y-175707200D01*
X74352381Y-175707200D02*
X74257143Y-175754819D01*
X74257143Y-175754819D02*
X73876191Y-175754819D01*
X73876191Y-175754819D02*
X73876191Y-174754819D01*
X73876191Y-174754819D02*
X74209524Y-174754819D01*
X74209524Y-174754819D02*
X74304762Y-174802438D01*
X74304762Y-174802438D02*
X74352381Y-174850057D01*
X74352381Y-174850057D02*
X74400000Y-174945295D01*
X74400000Y-174945295D02*
X74400000Y-175040533D01*
X74400000Y-175040533D02*
X74352381Y-175135771D01*
X74352381Y-175135771D02*
X74304762Y-175183390D01*
X74304762Y-175183390D02*
X74209524Y-175231009D01*
X74209524Y-175231009D02*
X73876191Y-175231009D01*
X74828572Y-175469104D02*
X75304762Y-175469104D01*
X74733334Y-175754819D02*
X75066667Y-174754819D01*
X75066667Y-174754819D02*
X75400000Y-175754819D01*
X75590477Y-174754819D02*
X76161905Y-174754819D01*
X75876191Y-175754819D02*
X75876191Y-174754819D01*
X77019048Y-175754819D02*
X76447620Y-175754819D01*
X76733334Y-175754819D02*
X76733334Y-174754819D01*
X76733334Y-174754819D02*
X76638096Y-174897676D01*
X76638096Y-174897676D02*
X76542858Y-174992914D01*
X76542858Y-174992914D02*
X76447620Y-175040533D01*
X103833333Y-158859580D02*
X103785714Y-158907200D01*
X103785714Y-158907200D02*
X103642857Y-158954819D01*
X103642857Y-158954819D02*
X103547619Y-158954819D01*
X103547619Y-158954819D02*
X103404762Y-158907200D01*
X103404762Y-158907200D02*
X103309524Y-158811961D01*
X103309524Y-158811961D02*
X103261905Y-158716723D01*
X103261905Y-158716723D02*
X103214286Y-158526247D01*
X103214286Y-158526247D02*
X103214286Y-158383390D01*
X103214286Y-158383390D02*
X103261905Y-158192914D01*
X103261905Y-158192914D02*
X103309524Y-158097676D01*
X103309524Y-158097676D02*
X103404762Y-158002438D01*
X103404762Y-158002438D02*
X103547619Y-157954819D01*
X103547619Y-157954819D02*
X103642857Y-157954819D01*
X103642857Y-157954819D02*
X103785714Y-158002438D01*
X103785714Y-158002438D02*
X103833333Y-158050057D01*
X104214286Y-158050057D02*
X104261905Y-158002438D01*
X104261905Y-158002438D02*
X104357143Y-157954819D01*
X104357143Y-157954819D02*
X104595238Y-157954819D01*
X104595238Y-157954819D02*
X104690476Y-158002438D01*
X104690476Y-158002438D02*
X104738095Y-158050057D01*
X104738095Y-158050057D02*
X104785714Y-158145295D01*
X104785714Y-158145295D02*
X104785714Y-158240533D01*
X104785714Y-158240533D02*
X104738095Y-158383390D01*
X104738095Y-158383390D02*
X104166667Y-158954819D01*
X104166667Y-158954819D02*
X104785714Y-158954819D01*
X87604761Y-174804819D02*
X87604761Y-175519104D01*
X87604761Y-175519104D02*
X87557142Y-175661961D01*
X87557142Y-175661961D02*
X87461904Y-175757200D01*
X87461904Y-175757200D02*
X87319047Y-175804819D01*
X87319047Y-175804819D02*
X87223809Y-175804819D01*
X88509523Y-175138152D02*
X88509523Y-175804819D01*
X88271428Y-174757200D02*
X88033333Y-175471485D01*
X88033333Y-175471485D02*
X88652380Y-175471485D01*
X88795238Y-175900057D02*
X89557142Y-175900057D01*
X89795238Y-175804819D02*
X89795238Y-174804819D01*
X89795238Y-174804819D02*
X90128571Y-175519104D01*
X90128571Y-175519104D02*
X90461904Y-174804819D01*
X90461904Y-174804819D02*
X90461904Y-175804819D01*
X91128571Y-174804819D02*
X91223809Y-174804819D01*
X91223809Y-174804819D02*
X91319047Y-174852438D01*
X91319047Y-174852438D02*
X91366666Y-174900057D01*
X91366666Y-174900057D02*
X91414285Y-174995295D01*
X91414285Y-174995295D02*
X91461904Y-175185771D01*
X91461904Y-175185771D02*
X91461904Y-175423866D01*
X91461904Y-175423866D02*
X91414285Y-175614342D01*
X91414285Y-175614342D02*
X91366666Y-175709580D01*
X91366666Y-175709580D02*
X91319047Y-175757200D01*
X91319047Y-175757200D02*
X91223809Y-175804819D01*
X91223809Y-175804819D02*
X91128571Y-175804819D01*
X91128571Y-175804819D02*
X91033333Y-175757200D01*
X91033333Y-175757200D02*
X90985714Y-175709580D01*
X90985714Y-175709580D02*
X90938095Y-175614342D01*
X90938095Y-175614342D02*
X90890476Y-175423866D01*
X90890476Y-175423866D02*
X90890476Y-175185771D01*
X90890476Y-175185771D02*
X90938095Y-174995295D01*
X90938095Y-174995295D02*
X90985714Y-174900057D01*
X90985714Y-174900057D02*
X91033333Y-174852438D01*
X91033333Y-174852438D02*
X91128571Y-174804819D01*
X91652381Y-175900057D02*
X92414285Y-175900057D01*
X92652381Y-175804819D02*
X92652381Y-174804819D01*
X92652381Y-174804819D02*
X92985714Y-175519104D01*
X92985714Y-175519104D02*
X93319047Y-174804819D01*
X93319047Y-174804819D02*
X93319047Y-175804819D01*
X93985714Y-174804819D02*
X94176190Y-174804819D01*
X94176190Y-174804819D02*
X94271428Y-174852438D01*
X94271428Y-174852438D02*
X94366666Y-174947676D01*
X94366666Y-174947676D02*
X94414285Y-175138152D01*
X94414285Y-175138152D02*
X94414285Y-175471485D01*
X94414285Y-175471485D02*
X94366666Y-175661961D01*
X94366666Y-175661961D02*
X94271428Y-175757200D01*
X94271428Y-175757200D02*
X94176190Y-175804819D01*
X94176190Y-175804819D02*
X93985714Y-175804819D01*
X93985714Y-175804819D02*
X93890476Y-175757200D01*
X93890476Y-175757200D02*
X93795238Y-175661961D01*
X93795238Y-175661961D02*
X93747619Y-175471485D01*
X93747619Y-175471485D02*
X93747619Y-175138152D01*
X93747619Y-175138152D02*
X93795238Y-174947676D01*
X93795238Y-174947676D02*
X93890476Y-174852438D01*
X93890476Y-174852438D02*
X93985714Y-174804819D01*
X94700000Y-174804819D02*
X95271428Y-174804819D01*
X94985714Y-175804819D02*
X94985714Y-174804819D01*
X95795238Y-174804819D02*
X95890476Y-174804819D01*
X95890476Y-174804819D02*
X95985714Y-174852438D01*
X95985714Y-174852438D02*
X96033333Y-174900057D01*
X96033333Y-174900057D02*
X96080952Y-174995295D01*
X96080952Y-174995295D02*
X96128571Y-175185771D01*
X96128571Y-175185771D02*
X96128571Y-175423866D01*
X96128571Y-175423866D02*
X96080952Y-175614342D01*
X96080952Y-175614342D02*
X96033333Y-175709580D01*
X96033333Y-175709580D02*
X95985714Y-175757200D01*
X95985714Y-175757200D02*
X95890476Y-175804819D01*
X95890476Y-175804819D02*
X95795238Y-175804819D01*
X95795238Y-175804819D02*
X95700000Y-175757200D01*
X95700000Y-175757200D02*
X95652381Y-175709580D01*
X95652381Y-175709580D02*
X95604762Y-175614342D01*
X95604762Y-175614342D02*
X95557143Y-175423866D01*
X95557143Y-175423866D02*
X95557143Y-175185771D01*
X95557143Y-175185771D02*
X95604762Y-174995295D01*
X95604762Y-174995295D02*
X95652381Y-174900057D01*
X95652381Y-174900057D02*
X95700000Y-174852438D01*
X95700000Y-174852438D02*
X95795238Y-174804819D01*
X93985714Y-148704819D02*
X94557142Y-148704819D01*
X94271428Y-149704819D02*
X94271428Y-148704819D01*
X94795238Y-148704819D02*
X95461904Y-149704819D01*
X95461904Y-148704819D02*
X94795238Y-149704819D01*
X96414285Y-149704819D02*
X96080952Y-149228628D01*
X95842857Y-149704819D02*
X95842857Y-148704819D01*
X95842857Y-148704819D02*
X96223809Y-148704819D01*
X96223809Y-148704819D02*
X96319047Y-148752438D01*
X96319047Y-148752438D02*
X96366666Y-148800057D01*
X96366666Y-148800057D02*
X96414285Y-148895295D01*
X96414285Y-148895295D02*
X96414285Y-149038152D01*
X96414285Y-149038152D02*
X96366666Y-149133390D01*
X96366666Y-149133390D02*
X96319047Y-149181009D01*
X96319047Y-149181009D02*
X96223809Y-149228628D01*
X96223809Y-149228628D02*
X95842857Y-149228628D01*
X96747619Y-148704819D02*
X97414285Y-149704819D01*
X97414285Y-148704819D02*
X96747619Y-149704819D01*
X98319047Y-149704819D02*
X97747619Y-149704819D01*
X98033333Y-149704819D02*
X98033333Y-148704819D01*
X98033333Y-148704819D02*
X97938095Y-148847676D01*
X97938095Y-148847676D02*
X97842857Y-148942914D01*
X97842857Y-148942914D02*
X97747619Y-148990533D01*
X130666666Y-161884819D02*
X130666666Y-162599104D01*
X130666666Y-162599104D02*
X130619047Y-162741961D01*
X130619047Y-162741961D02*
X130523809Y-162837200D01*
X130523809Y-162837200D02*
X130380952Y-162884819D01*
X130380952Y-162884819D02*
X130285714Y-162884819D01*
X131666666Y-162884819D02*
X131095238Y-162884819D01*
X131380952Y-162884819D02*
X131380952Y-161884819D01*
X131380952Y-161884819D02*
X131285714Y-162027676D01*
X131285714Y-162027676D02*
X131190476Y-162122914D01*
X131190476Y-162122914D02*
X131095238Y-162170533D01*
X110374819Y-149409523D02*
X111089104Y-149409523D01*
X111089104Y-149409523D02*
X111231961Y-149457142D01*
X111231961Y-149457142D02*
X111327200Y-149552380D01*
X111327200Y-149552380D02*
X111374819Y-149695237D01*
X111374819Y-149695237D02*
X111374819Y-149790475D01*
X111374819Y-148409523D02*
X111374819Y-148980951D01*
X111374819Y-148695237D02*
X110374819Y-148695237D01*
X110374819Y-148695237D02*
X110517676Y-148790475D01*
X110517676Y-148790475D02*
X110612914Y-148885713D01*
X110612914Y-148885713D02*
X110660533Y-148980951D01*
X110374819Y-148076189D02*
X110374819Y-147457142D01*
X110374819Y-147457142D02*
X110755771Y-147790475D01*
X110755771Y-147790475D02*
X110755771Y-147647618D01*
X110755771Y-147647618D02*
X110803390Y-147552380D01*
X110803390Y-147552380D02*
X110851009Y-147504761D01*
X110851009Y-147504761D02*
X110946247Y-147457142D01*
X110946247Y-147457142D02*
X111184342Y-147457142D01*
X111184342Y-147457142D02*
X111279580Y-147504761D01*
X111279580Y-147504761D02*
X111327200Y-147552380D01*
X111327200Y-147552380D02*
X111374819Y-147647618D01*
X111374819Y-147647618D02*
X111374819Y-147933332D01*
X111374819Y-147933332D02*
X111327200Y-148028570D01*
X111327200Y-148028570D02*
X111279580Y-148076189D01*
X134683333Y-162054819D02*
X134350000Y-161578628D01*
X134111905Y-162054819D02*
X134111905Y-161054819D01*
X134111905Y-161054819D02*
X134492857Y-161054819D01*
X134492857Y-161054819D02*
X134588095Y-161102438D01*
X134588095Y-161102438D02*
X134635714Y-161150057D01*
X134635714Y-161150057D02*
X134683333Y-161245295D01*
X134683333Y-161245295D02*
X134683333Y-161388152D01*
X134683333Y-161388152D02*
X134635714Y-161483390D01*
X134635714Y-161483390D02*
X134588095Y-161531009D01*
X134588095Y-161531009D02*
X134492857Y-161578628D01*
X134492857Y-161578628D02*
X134111905Y-161578628D01*
X135016667Y-161054819D02*
X135683333Y-161054819D01*
X135683333Y-161054819D02*
X135254762Y-162054819D01*
X100083333Y-160609580D02*
X100035714Y-160657200D01*
X100035714Y-160657200D02*
X99892857Y-160704819D01*
X99892857Y-160704819D02*
X99797619Y-160704819D01*
X99797619Y-160704819D02*
X99654762Y-160657200D01*
X99654762Y-160657200D02*
X99559524Y-160561961D01*
X99559524Y-160561961D02*
X99511905Y-160466723D01*
X99511905Y-160466723D02*
X99464286Y-160276247D01*
X99464286Y-160276247D02*
X99464286Y-160133390D01*
X99464286Y-160133390D02*
X99511905Y-159942914D01*
X99511905Y-159942914D02*
X99559524Y-159847676D01*
X99559524Y-159847676D02*
X99654762Y-159752438D01*
X99654762Y-159752438D02*
X99797619Y-159704819D01*
X99797619Y-159704819D02*
X99892857Y-159704819D01*
X99892857Y-159704819D02*
X100035714Y-159752438D01*
X100035714Y-159752438D02*
X100083333Y-159800057D01*
X100416667Y-159704819D02*
X101035714Y-159704819D01*
X101035714Y-159704819D02*
X100702381Y-160085771D01*
X100702381Y-160085771D02*
X100845238Y-160085771D01*
X100845238Y-160085771D02*
X100940476Y-160133390D01*
X100940476Y-160133390D02*
X100988095Y-160181009D01*
X100988095Y-160181009D02*
X101035714Y-160276247D01*
X101035714Y-160276247D02*
X101035714Y-160514342D01*
X101035714Y-160514342D02*
X100988095Y-160609580D01*
X100988095Y-160609580D02*
X100940476Y-160657200D01*
X100940476Y-160657200D02*
X100845238Y-160704819D01*
X100845238Y-160704819D02*
X100559524Y-160704819D01*
X100559524Y-160704819D02*
X100464286Y-160657200D01*
X100464286Y-160657200D02*
X100416667Y-160609580D01*
X142954761Y-174704819D02*
X142954761Y-175419104D01*
X142954761Y-175419104D02*
X142907142Y-175561961D01*
X142907142Y-175561961D02*
X142811904Y-175657200D01*
X142811904Y-175657200D02*
X142669047Y-175704819D01*
X142669047Y-175704819D02*
X142573809Y-175704819D01*
X143859523Y-175038152D02*
X143859523Y-175704819D01*
X143621428Y-174657200D02*
X143383333Y-175371485D01*
X143383333Y-175371485D02*
X144002380Y-175371485D01*
X144145238Y-175800057D02*
X144907142Y-175800057D01*
X145145238Y-175704819D02*
X145145238Y-174704819D01*
X145145238Y-174704819D02*
X145478571Y-175419104D01*
X145478571Y-175419104D02*
X145811904Y-174704819D01*
X145811904Y-174704819D02*
X145811904Y-175704819D01*
X146192857Y-174704819D02*
X146811904Y-174704819D01*
X146811904Y-174704819D02*
X146478571Y-175085771D01*
X146478571Y-175085771D02*
X146621428Y-175085771D01*
X146621428Y-175085771D02*
X146716666Y-175133390D01*
X146716666Y-175133390D02*
X146764285Y-175181009D01*
X146764285Y-175181009D02*
X146811904Y-175276247D01*
X146811904Y-175276247D02*
X146811904Y-175514342D01*
X146811904Y-175514342D02*
X146764285Y-175609580D01*
X146764285Y-175609580D02*
X146716666Y-175657200D01*
X146716666Y-175657200D02*
X146621428Y-175704819D01*
X146621428Y-175704819D02*
X146335714Y-175704819D01*
X146335714Y-175704819D02*
X146240476Y-175657200D01*
X146240476Y-175657200D02*
X146192857Y-175609580D01*
X147002381Y-175800057D02*
X147764285Y-175800057D01*
X148002381Y-175704819D02*
X148002381Y-174704819D01*
X148002381Y-174704819D02*
X148335714Y-175419104D01*
X148335714Y-175419104D02*
X148669047Y-174704819D01*
X148669047Y-174704819D02*
X148669047Y-175704819D01*
X149335714Y-174704819D02*
X149526190Y-174704819D01*
X149526190Y-174704819D02*
X149621428Y-174752438D01*
X149621428Y-174752438D02*
X149716666Y-174847676D01*
X149716666Y-174847676D02*
X149764285Y-175038152D01*
X149764285Y-175038152D02*
X149764285Y-175371485D01*
X149764285Y-175371485D02*
X149716666Y-175561961D01*
X149716666Y-175561961D02*
X149621428Y-175657200D01*
X149621428Y-175657200D02*
X149526190Y-175704819D01*
X149526190Y-175704819D02*
X149335714Y-175704819D01*
X149335714Y-175704819D02*
X149240476Y-175657200D01*
X149240476Y-175657200D02*
X149145238Y-175561961D01*
X149145238Y-175561961D02*
X149097619Y-175371485D01*
X149097619Y-175371485D02*
X149097619Y-175038152D01*
X149097619Y-175038152D02*
X149145238Y-174847676D01*
X149145238Y-174847676D02*
X149240476Y-174752438D01*
X149240476Y-174752438D02*
X149335714Y-174704819D01*
X150050000Y-174704819D02*
X150621428Y-174704819D01*
X150335714Y-175704819D02*
X150335714Y-174704819D01*
X150859524Y-174704819D02*
X151478571Y-174704819D01*
X151478571Y-174704819D02*
X151145238Y-175085771D01*
X151145238Y-175085771D02*
X151288095Y-175085771D01*
X151288095Y-175085771D02*
X151383333Y-175133390D01*
X151383333Y-175133390D02*
X151430952Y-175181009D01*
X151430952Y-175181009D02*
X151478571Y-175276247D01*
X151478571Y-175276247D02*
X151478571Y-175514342D01*
X151478571Y-175514342D02*
X151430952Y-175609580D01*
X151430952Y-175609580D02*
X151383333Y-175657200D01*
X151383333Y-175657200D02*
X151288095Y-175704819D01*
X151288095Y-175704819D02*
X151002381Y-175704819D01*
X151002381Y-175704819D02*
X150907143Y-175657200D01*
X150907143Y-175657200D02*
X150859524Y-175609580D01*
X133974405Y-157543569D02*
X133974405Y-156543569D01*
X133974405Y-156543569D02*
X134212500Y-156543569D01*
X134212500Y-156543569D02*
X134355357Y-156591188D01*
X134355357Y-156591188D02*
X134450595Y-156686426D01*
X134450595Y-156686426D02*
X134498214Y-156781664D01*
X134498214Y-156781664D02*
X134545833Y-156972140D01*
X134545833Y-156972140D02*
X134545833Y-157114997D01*
X134545833Y-157114997D02*
X134498214Y-157305473D01*
X134498214Y-157305473D02*
X134450595Y-157400711D01*
X134450595Y-157400711D02*
X134355357Y-157495950D01*
X134355357Y-157495950D02*
X134212500Y-157543569D01*
X134212500Y-157543569D02*
X133974405Y-157543569D01*
X134879167Y-156543569D02*
X135545833Y-156543569D01*
X135545833Y-156543569D02*
X135117262Y-157543569D01*
X154254819Y-162195238D02*
X154969104Y-162195238D01*
X154969104Y-162195238D02*
X155111961Y-162242857D01*
X155111961Y-162242857D02*
X155207200Y-162338095D01*
X155207200Y-162338095D02*
X155254819Y-162480952D01*
X155254819Y-162480952D02*
X155254819Y-162576190D01*
X155254819Y-161195238D02*
X155254819Y-161766666D01*
X155254819Y-161480952D02*
X154254819Y-161480952D01*
X154254819Y-161480952D02*
X154397676Y-161576190D01*
X154397676Y-161576190D02*
X154492914Y-161671428D01*
X154492914Y-161671428D02*
X154540533Y-161766666D01*
X154254819Y-160290476D02*
X154254819Y-160766666D01*
X154254819Y-160766666D02*
X154731009Y-160814285D01*
X154731009Y-160814285D02*
X154683390Y-160766666D01*
X154683390Y-160766666D02*
X154635771Y-160671428D01*
X154635771Y-160671428D02*
X154635771Y-160433333D01*
X154635771Y-160433333D02*
X154683390Y-160338095D01*
X154683390Y-160338095D02*
X154731009Y-160290476D01*
X154731009Y-160290476D02*
X154826247Y-160242857D01*
X154826247Y-160242857D02*
X155064342Y-160242857D01*
X155064342Y-160242857D02*
X155159580Y-160290476D01*
X155159580Y-160290476D02*
X155207200Y-160338095D01*
X155207200Y-160338095D02*
X155254819Y-160433333D01*
X155254819Y-160433333D02*
X155254819Y-160671428D01*
X155254819Y-160671428D02*
X155207200Y-160766666D01*
X155207200Y-160766666D02*
X155159580Y-160814285D01*
X154254819Y-159957142D02*
X155254819Y-159623809D01*
X155254819Y-159623809D02*
X154254819Y-159290476D01*
X154731009Y-158623809D02*
X154778628Y-158480952D01*
X154778628Y-158480952D02*
X154826247Y-158433333D01*
X154826247Y-158433333D02*
X154921485Y-158385714D01*
X154921485Y-158385714D02*
X155064342Y-158385714D01*
X155064342Y-158385714D02*
X155159580Y-158433333D01*
X155159580Y-158433333D02*
X155207200Y-158480952D01*
X155207200Y-158480952D02*
X155254819Y-158576190D01*
X155254819Y-158576190D02*
X155254819Y-158957142D01*
X155254819Y-158957142D02*
X154254819Y-158957142D01*
X154254819Y-158957142D02*
X154254819Y-158623809D01*
X154254819Y-158623809D02*
X154302438Y-158528571D01*
X154302438Y-158528571D02*
X154350057Y-158480952D01*
X154350057Y-158480952D02*
X154445295Y-158433333D01*
X154445295Y-158433333D02*
X154540533Y-158433333D01*
X154540533Y-158433333D02*
X154635771Y-158480952D01*
X154635771Y-158480952D02*
X154683390Y-158528571D01*
X154683390Y-158528571D02*
X154731009Y-158623809D01*
X154731009Y-158623809D02*
X154731009Y-158957142D01*
X154731009Y-157957142D02*
X154731009Y-157623809D01*
X155254819Y-157480952D02*
X155254819Y-157957142D01*
X155254819Y-157957142D02*
X154254819Y-157957142D01*
X154254819Y-157957142D02*
X154254819Y-157480952D01*
X155159580Y-156480952D02*
X155207200Y-156528571D01*
X155207200Y-156528571D02*
X155254819Y-156671428D01*
X155254819Y-156671428D02*
X155254819Y-156766666D01*
X155254819Y-156766666D02*
X155207200Y-156909523D01*
X155207200Y-156909523D02*
X155111961Y-157004761D01*
X155111961Y-157004761D02*
X155016723Y-157052380D01*
X155016723Y-157052380D02*
X154826247Y-157099999D01*
X154826247Y-157099999D02*
X154683390Y-157099999D01*
X154683390Y-157099999D02*
X154492914Y-157052380D01*
X154492914Y-157052380D02*
X154397676Y-157004761D01*
X154397676Y-157004761D02*
X154302438Y-156909523D01*
X154302438Y-156909523D02*
X154254819Y-156766666D01*
X154254819Y-156766666D02*
X154254819Y-156671428D01*
X154254819Y-156671428D02*
X154302438Y-156528571D01*
X154302438Y-156528571D02*
X154350057Y-156480952D01*
X154254819Y-155861904D02*
X154254819Y-155671428D01*
X154254819Y-155671428D02*
X154302438Y-155576190D01*
X154302438Y-155576190D02*
X154397676Y-155480952D01*
X154397676Y-155480952D02*
X154588152Y-155433333D01*
X154588152Y-155433333D02*
X154921485Y-155433333D01*
X154921485Y-155433333D02*
X155111961Y-155480952D01*
X155111961Y-155480952D02*
X155207200Y-155576190D01*
X155207200Y-155576190D02*
X155254819Y-155671428D01*
X155254819Y-155671428D02*
X155254819Y-155861904D01*
X155254819Y-155861904D02*
X155207200Y-155957142D01*
X155207200Y-155957142D02*
X155111961Y-156052380D01*
X155111961Y-156052380D02*
X154921485Y-156099999D01*
X154921485Y-156099999D02*
X154588152Y-156099999D01*
X154588152Y-156099999D02*
X154397676Y-156052380D01*
X154397676Y-156052380D02*
X154302438Y-155957142D01*
X154302438Y-155957142D02*
X154254819Y-155861904D01*
X154254819Y-155004761D02*
X155064342Y-155004761D01*
X155064342Y-155004761D02*
X155159580Y-154957142D01*
X155159580Y-154957142D02*
X155207200Y-154909523D01*
X155207200Y-154909523D02*
X155254819Y-154814285D01*
X155254819Y-154814285D02*
X155254819Y-154623809D01*
X155254819Y-154623809D02*
X155207200Y-154528571D01*
X155207200Y-154528571D02*
X155159580Y-154480952D01*
X155159580Y-154480952D02*
X155064342Y-154433333D01*
X155064342Y-154433333D02*
X154254819Y-154433333D01*
X154254819Y-154099999D02*
X154254819Y-153528571D01*
X155254819Y-153814285D02*
X154254819Y-153814285D01*
X155254819Y-152671428D02*
X155254819Y-153242856D01*
X155254819Y-152957142D02*
X154254819Y-152957142D01*
X154254819Y-152957142D02*
X154397676Y-153052380D01*
X154397676Y-153052380D02*
X154492914Y-153147618D01*
X154492914Y-153147618D02*
X154540533Y-153242856D01*
X92083333Y-160204819D02*
X91750000Y-159728628D01*
X91511905Y-160204819D02*
X91511905Y-159204819D01*
X91511905Y-159204819D02*
X91892857Y-159204819D01*
X91892857Y-159204819D02*
X91988095Y-159252438D01*
X91988095Y-159252438D02*
X92035714Y-159300057D01*
X92035714Y-159300057D02*
X92083333Y-159395295D01*
X92083333Y-159395295D02*
X92083333Y-159538152D01*
X92083333Y-159538152D02*
X92035714Y-159633390D01*
X92035714Y-159633390D02*
X91988095Y-159681009D01*
X91988095Y-159681009D02*
X91892857Y-159728628D01*
X91892857Y-159728628D02*
X91511905Y-159728628D01*
X92654762Y-159633390D02*
X92559524Y-159585771D01*
X92559524Y-159585771D02*
X92511905Y-159538152D01*
X92511905Y-159538152D02*
X92464286Y-159442914D01*
X92464286Y-159442914D02*
X92464286Y-159395295D01*
X92464286Y-159395295D02*
X92511905Y-159300057D01*
X92511905Y-159300057D02*
X92559524Y-159252438D01*
X92559524Y-159252438D02*
X92654762Y-159204819D01*
X92654762Y-159204819D02*
X92845238Y-159204819D01*
X92845238Y-159204819D02*
X92940476Y-159252438D01*
X92940476Y-159252438D02*
X92988095Y-159300057D01*
X92988095Y-159300057D02*
X93035714Y-159395295D01*
X93035714Y-159395295D02*
X93035714Y-159442914D01*
X93035714Y-159442914D02*
X92988095Y-159538152D01*
X92988095Y-159538152D02*
X92940476Y-159585771D01*
X92940476Y-159585771D02*
X92845238Y-159633390D01*
X92845238Y-159633390D02*
X92654762Y-159633390D01*
X92654762Y-159633390D02*
X92559524Y-159681009D01*
X92559524Y-159681009D02*
X92511905Y-159728628D01*
X92511905Y-159728628D02*
X92464286Y-159823866D01*
X92464286Y-159823866D02*
X92464286Y-160014342D01*
X92464286Y-160014342D02*
X92511905Y-160109580D01*
X92511905Y-160109580D02*
X92559524Y-160157200D01*
X92559524Y-160157200D02*
X92654762Y-160204819D01*
X92654762Y-160204819D02*
X92845238Y-160204819D01*
X92845238Y-160204819D02*
X92940476Y-160157200D01*
X92940476Y-160157200D02*
X92988095Y-160109580D01*
X92988095Y-160109580D02*
X93035714Y-160014342D01*
X93035714Y-160014342D02*
X93035714Y-159823866D01*
X93035714Y-159823866D02*
X92988095Y-159728628D01*
X92988095Y-159728628D02*
X92940476Y-159681009D01*
X92940476Y-159681009D02*
X92845238Y-159633390D01*
X108519047Y-138454819D02*
X108185714Y-137978628D01*
X107947619Y-138454819D02*
X107947619Y-137454819D01*
X107947619Y-137454819D02*
X108328571Y-137454819D01*
X108328571Y-137454819D02*
X108423809Y-137502438D01*
X108423809Y-137502438D02*
X108471428Y-137550057D01*
X108471428Y-137550057D02*
X108519047Y-137645295D01*
X108519047Y-137645295D02*
X108519047Y-137788152D01*
X108519047Y-137788152D02*
X108471428Y-137883390D01*
X108471428Y-137883390D02*
X108423809Y-137931009D01*
X108423809Y-137931009D02*
X108328571Y-137978628D01*
X108328571Y-137978628D02*
X107947619Y-137978628D01*
X108947619Y-138454819D02*
X108947619Y-137454819D01*
X108947619Y-137454819D02*
X109328571Y-137454819D01*
X109328571Y-137454819D02*
X109423809Y-137502438D01*
X109423809Y-137502438D02*
X109471428Y-137550057D01*
X109471428Y-137550057D02*
X109519047Y-137645295D01*
X109519047Y-137645295D02*
X109519047Y-137788152D01*
X109519047Y-137788152D02*
X109471428Y-137883390D01*
X109471428Y-137883390D02*
X109423809Y-137931009D01*
X109423809Y-137931009D02*
X109328571Y-137978628D01*
X109328571Y-137978628D02*
X108947619Y-137978628D01*
X109947619Y-138454819D02*
X109947619Y-137454819D01*
X110614285Y-137454819D02*
X110709523Y-137454819D01*
X110709523Y-137454819D02*
X110804761Y-137502438D01*
X110804761Y-137502438D02*
X110852380Y-137550057D01*
X110852380Y-137550057D02*
X110899999Y-137645295D01*
X110899999Y-137645295D02*
X110947618Y-137835771D01*
X110947618Y-137835771D02*
X110947618Y-138073866D01*
X110947618Y-138073866D02*
X110899999Y-138264342D01*
X110899999Y-138264342D02*
X110852380Y-138359580D01*
X110852380Y-138359580D02*
X110804761Y-138407200D01*
X110804761Y-138407200D02*
X110709523Y-138454819D01*
X110709523Y-138454819D02*
X110614285Y-138454819D01*
X110614285Y-138454819D02*
X110519047Y-138407200D01*
X110519047Y-138407200D02*
X110471428Y-138359580D01*
X110471428Y-138359580D02*
X110423809Y-138264342D01*
X110423809Y-138264342D02*
X110376190Y-138073866D01*
X110376190Y-138073866D02*
X110376190Y-137835771D01*
X110376190Y-137835771D02*
X110423809Y-137645295D01*
X110423809Y-137645295D02*
X110471428Y-137550057D01*
X110471428Y-137550057D02*
X110519047Y-137502438D01*
X110519047Y-137502438D02*
X110614285Y-137454819D01*
X111328571Y-137550057D02*
X111376190Y-137502438D01*
X111376190Y-137502438D02*
X111471428Y-137454819D01*
X111471428Y-137454819D02*
X111709523Y-137454819D01*
X111709523Y-137454819D02*
X111804761Y-137502438D01*
X111804761Y-137502438D02*
X111852380Y-137550057D01*
X111852380Y-137550057D02*
X111899999Y-137645295D01*
X111899999Y-137645295D02*
X111899999Y-137740533D01*
X111899999Y-137740533D02*
X111852380Y-137883390D01*
X111852380Y-137883390D02*
X111280952Y-138454819D01*
X111280952Y-138454819D02*
X111899999Y-138454819D01*
X130006819Y-153333332D02*
X129006819Y-153333332D01*
X129006819Y-153333332D02*
X129721104Y-152999999D01*
X129721104Y-152999999D02*
X129006819Y-152666666D01*
X129006819Y-152666666D02*
X130006819Y-152666666D01*
X129006819Y-151999999D02*
X129006819Y-151809523D01*
X129006819Y-151809523D02*
X129054438Y-151714285D01*
X129054438Y-151714285D02*
X129149676Y-151619047D01*
X129149676Y-151619047D02*
X129340152Y-151571428D01*
X129340152Y-151571428D02*
X129673485Y-151571428D01*
X129673485Y-151571428D02*
X129863961Y-151619047D01*
X129863961Y-151619047D02*
X129959200Y-151714285D01*
X129959200Y-151714285D02*
X130006819Y-151809523D01*
X130006819Y-151809523D02*
X130006819Y-151999999D01*
X130006819Y-151999999D02*
X129959200Y-152095237D01*
X129959200Y-152095237D02*
X129863961Y-152190475D01*
X129863961Y-152190475D02*
X129673485Y-152238094D01*
X129673485Y-152238094D02*
X129340152Y-152238094D01*
X129340152Y-152238094D02*
X129149676Y-152190475D01*
X129149676Y-152190475D02*
X129054438Y-152095237D01*
X129054438Y-152095237D02*
X129006819Y-151999999D01*
X129006819Y-150952380D02*
X129006819Y-150857142D01*
X129006819Y-150857142D02*
X129054438Y-150761904D01*
X129054438Y-150761904D02*
X129102057Y-150714285D01*
X129102057Y-150714285D02*
X129197295Y-150666666D01*
X129197295Y-150666666D02*
X129387771Y-150619047D01*
X129387771Y-150619047D02*
X129625866Y-150619047D01*
X129625866Y-150619047D02*
X129816342Y-150666666D01*
X129816342Y-150666666D02*
X129911580Y-150714285D01*
X129911580Y-150714285D02*
X129959200Y-150761904D01*
X129959200Y-150761904D02*
X130006819Y-150857142D01*
X130006819Y-150857142D02*
X130006819Y-150952380D01*
X130006819Y-150952380D02*
X129959200Y-151047618D01*
X129959200Y-151047618D02*
X129911580Y-151095237D01*
X129911580Y-151095237D02*
X129816342Y-151142856D01*
X129816342Y-151142856D02*
X129625866Y-151190475D01*
X129625866Y-151190475D02*
X129387771Y-151190475D01*
X129387771Y-151190475D02*
X129197295Y-151142856D01*
X129197295Y-151142856D02*
X129102057Y-151095237D01*
X129102057Y-151095237D02*
X129054438Y-151047618D01*
X129054438Y-151047618D02*
X129006819Y-150952380D01*
X90559524Y-151407200D02*
X90702381Y-151454819D01*
X90702381Y-151454819D02*
X90940476Y-151454819D01*
X90940476Y-151454819D02*
X91035714Y-151407200D01*
X91035714Y-151407200D02*
X91083333Y-151359580D01*
X91083333Y-151359580D02*
X91130952Y-151264342D01*
X91130952Y-151264342D02*
X91130952Y-151169104D01*
X91130952Y-151169104D02*
X91083333Y-151073866D01*
X91083333Y-151073866D02*
X91035714Y-151026247D01*
X91035714Y-151026247D02*
X90940476Y-150978628D01*
X90940476Y-150978628D02*
X90750000Y-150931009D01*
X90750000Y-150931009D02*
X90654762Y-150883390D01*
X90654762Y-150883390D02*
X90607143Y-150835771D01*
X90607143Y-150835771D02*
X90559524Y-150740533D01*
X90559524Y-150740533D02*
X90559524Y-150645295D01*
X90559524Y-150645295D02*
X90607143Y-150550057D01*
X90607143Y-150550057D02*
X90654762Y-150502438D01*
X90654762Y-150502438D02*
X90750000Y-150454819D01*
X90750000Y-150454819D02*
X90988095Y-150454819D01*
X90988095Y-150454819D02*
X91130952Y-150502438D01*
X91559524Y-151454819D02*
X91559524Y-150454819D01*
X91559524Y-150454819D02*
X91797619Y-150454819D01*
X91797619Y-150454819D02*
X91940476Y-150502438D01*
X91940476Y-150502438D02*
X92035714Y-150597676D01*
X92035714Y-150597676D02*
X92083333Y-150692914D01*
X92083333Y-150692914D02*
X92130952Y-150883390D01*
X92130952Y-150883390D02*
X92130952Y-151026247D01*
X92130952Y-151026247D02*
X92083333Y-151216723D01*
X92083333Y-151216723D02*
X92035714Y-151311961D01*
X92035714Y-151311961D02*
X91940476Y-151407200D01*
X91940476Y-151407200D02*
X91797619Y-151454819D01*
X91797619Y-151454819D02*
X91559524Y-151454819D01*
X92511905Y-151169104D02*
X92988095Y-151169104D01*
X92416667Y-151454819D02*
X92750000Y-150454819D01*
X92750000Y-150454819D02*
X93083333Y-151454819D01*
X93321429Y-150454819D02*
X93940476Y-150454819D01*
X93940476Y-150454819D02*
X93607143Y-150835771D01*
X93607143Y-150835771D02*
X93750000Y-150835771D01*
X93750000Y-150835771D02*
X93845238Y-150883390D01*
X93845238Y-150883390D02*
X93892857Y-150931009D01*
X93892857Y-150931009D02*
X93940476Y-151026247D01*
X93940476Y-151026247D02*
X93940476Y-151264342D01*
X93940476Y-151264342D02*
X93892857Y-151359580D01*
X93892857Y-151359580D02*
X93845238Y-151407200D01*
X93845238Y-151407200D02*
X93750000Y-151454819D01*
X93750000Y-151454819D02*
X93464286Y-151454819D01*
X93464286Y-151454819D02*
X93369048Y-151407200D01*
X93369048Y-151407200D02*
X93321429Y-151359580D01*
X145454819Y-139338094D02*
X144454819Y-139338094D01*
X144454819Y-139338094D02*
X144454819Y-139099999D01*
X144454819Y-139099999D02*
X144502438Y-138957142D01*
X144502438Y-138957142D02*
X144597676Y-138861904D01*
X144597676Y-138861904D02*
X144692914Y-138814285D01*
X144692914Y-138814285D02*
X144883390Y-138766666D01*
X144883390Y-138766666D02*
X145026247Y-138766666D01*
X145026247Y-138766666D02*
X145216723Y-138814285D01*
X145216723Y-138814285D02*
X145311961Y-138861904D01*
X145311961Y-138861904D02*
X145407200Y-138957142D01*
X145407200Y-138957142D02*
X145454819Y-139099999D01*
X145454819Y-139099999D02*
X145454819Y-139338094D01*
X145454819Y-137814285D02*
X145454819Y-138385713D01*
X145454819Y-138099999D02*
X144454819Y-138099999D01*
X144454819Y-138099999D02*
X144597676Y-138195237D01*
X144597676Y-138195237D02*
X144692914Y-138290475D01*
X144692914Y-138290475D02*
X144740533Y-138385713D01*
X154461905Y-183054819D02*
X154461905Y-182054819D01*
X154461905Y-182054819D02*
X154700000Y-182054819D01*
X154700000Y-182054819D02*
X154842857Y-182102438D01*
X154842857Y-182102438D02*
X154938095Y-182197676D01*
X154938095Y-182197676D02*
X154985714Y-182292914D01*
X154985714Y-182292914D02*
X155033333Y-182483390D01*
X155033333Y-182483390D02*
X155033333Y-182626247D01*
X155033333Y-182626247D02*
X154985714Y-182816723D01*
X154985714Y-182816723D02*
X154938095Y-182911961D01*
X154938095Y-182911961D02*
X154842857Y-183007200D01*
X154842857Y-183007200D02*
X154700000Y-183054819D01*
X154700000Y-183054819D02*
X154461905Y-183054819D01*
X155938095Y-182054819D02*
X155461905Y-182054819D01*
X155461905Y-182054819D02*
X155414286Y-182531009D01*
X155414286Y-182531009D02*
X155461905Y-182483390D01*
X155461905Y-182483390D02*
X155557143Y-182435771D01*
X155557143Y-182435771D02*
X155795238Y-182435771D01*
X155795238Y-182435771D02*
X155890476Y-182483390D01*
X155890476Y-182483390D02*
X155938095Y-182531009D01*
X155938095Y-182531009D02*
X155985714Y-182626247D01*
X155985714Y-182626247D02*
X155985714Y-182864342D01*
X155985714Y-182864342D02*
X155938095Y-182959580D01*
X155938095Y-182959580D02*
X155890476Y-183007200D01*
X155890476Y-183007200D02*
X155795238Y-183054819D01*
X155795238Y-183054819D02*
X155557143Y-183054819D01*
X155557143Y-183054819D02*
X155461905Y-183007200D01*
X155461905Y-183007200D02*
X155414286Y-182959580D01*
X154254819Y-151409523D02*
X154969104Y-151409523D01*
X154969104Y-151409523D02*
X155111961Y-151457142D01*
X155111961Y-151457142D02*
X155207200Y-151552380D01*
X155207200Y-151552380D02*
X155254819Y-151695237D01*
X155254819Y-151695237D02*
X155254819Y-151790475D01*
X155254819Y-150409523D02*
X155254819Y-150980951D01*
X155254819Y-150695237D02*
X154254819Y-150695237D01*
X154254819Y-150695237D02*
X154397676Y-150790475D01*
X154397676Y-150790475D02*
X154492914Y-150885713D01*
X154492914Y-150885713D02*
X154540533Y-150980951D01*
X154588152Y-149552380D02*
X155254819Y-149552380D01*
X154207200Y-149790475D02*
X154921485Y-150028570D01*
X154921485Y-150028570D02*
X154921485Y-149409523D01*
X154302438Y-148504761D02*
X154254819Y-148599999D01*
X154254819Y-148599999D02*
X154254819Y-148742856D01*
X154254819Y-148742856D02*
X154302438Y-148885713D01*
X154302438Y-148885713D02*
X154397676Y-148980951D01*
X154397676Y-148980951D02*
X154492914Y-149028570D01*
X154492914Y-149028570D02*
X154683390Y-149076189D01*
X154683390Y-149076189D02*
X154826247Y-149076189D01*
X154826247Y-149076189D02*
X155016723Y-149028570D01*
X155016723Y-149028570D02*
X155111961Y-148980951D01*
X155111961Y-148980951D02*
X155207200Y-148885713D01*
X155207200Y-148885713D02*
X155254819Y-148742856D01*
X155254819Y-148742856D02*
X155254819Y-148647618D01*
X155254819Y-148647618D02*
X155207200Y-148504761D01*
X155207200Y-148504761D02*
X155159580Y-148457142D01*
X155159580Y-148457142D02*
X154826247Y-148457142D01*
X154826247Y-148457142D02*
X154826247Y-148647618D01*
X155254819Y-148028570D02*
X154254819Y-148028570D01*
X154254819Y-148028570D02*
X155254819Y-147457142D01*
X155254819Y-147457142D02*
X154254819Y-147457142D01*
X155254819Y-146980951D02*
X154254819Y-146980951D01*
X154254819Y-146980951D02*
X154254819Y-146742856D01*
X154254819Y-146742856D02*
X154302438Y-146599999D01*
X154302438Y-146599999D02*
X154397676Y-146504761D01*
X154397676Y-146504761D02*
X154492914Y-146457142D01*
X154492914Y-146457142D02*
X154683390Y-146409523D01*
X154683390Y-146409523D02*
X154826247Y-146409523D01*
X154826247Y-146409523D02*
X155016723Y-146457142D01*
X155016723Y-146457142D02*
X155111961Y-146504761D01*
X155111961Y-146504761D02*
X155207200Y-146599999D01*
X155207200Y-146599999D02*
X155254819Y-146742856D01*
X155254819Y-146742856D02*
X155254819Y-146980951D01*
X155254819Y-145457142D02*
X155254819Y-146028570D01*
X155254819Y-145742856D02*
X154254819Y-145742856D01*
X154254819Y-145742856D02*
X154397676Y-145838094D01*
X154397676Y-145838094D02*
X154492914Y-145933332D01*
X154492914Y-145933332D02*
X154540533Y-146028570D01*
X87478572Y-151804819D02*
X87811905Y-152804819D01*
X87811905Y-152804819D02*
X88145238Y-151804819D01*
X88478572Y-152804819D02*
X88478572Y-151804819D01*
X88478572Y-151804819D02*
X88716667Y-151804819D01*
X88716667Y-151804819D02*
X88859524Y-151852438D01*
X88859524Y-151852438D02*
X88954762Y-151947676D01*
X88954762Y-151947676D02*
X89002381Y-152042914D01*
X89002381Y-152042914D02*
X89050000Y-152233390D01*
X89050000Y-152233390D02*
X89050000Y-152376247D01*
X89050000Y-152376247D02*
X89002381Y-152566723D01*
X89002381Y-152566723D02*
X88954762Y-152661961D01*
X88954762Y-152661961D02*
X88859524Y-152757200D01*
X88859524Y-152757200D02*
X88716667Y-152804819D01*
X88716667Y-152804819D02*
X88478572Y-152804819D01*
X89478572Y-152804819D02*
X89478572Y-151804819D01*
X89478572Y-151804819D02*
X89716667Y-151804819D01*
X89716667Y-151804819D02*
X89859524Y-151852438D01*
X89859524Y-151852438D02*
X89954762Y-151947676D01*
X89954762Y-151947676D02*
X90002381Y-152042914D01*
X90002381Y-152042914D02*
X90050000Y-152233390D01*
X90050000Y-152233390D02*
X90050000Y-152376247D01*
X90050000Y-152376247D02*
X90002381Y-152566723D01*
X90002381Y-152566723D02*
X89954762Y-152661961D01*
X89954762Y-152661961D02*
X89859524Y-152757200D01*
X89859524Y-152757200D02*
X89716667Y-152804819D01*
X89716667Y-152804819D02*
X89478572Y-152804819D01*
X90478572Y-152804819D02*
X90478572Y-151804819D01*
X91145238Y-151804819D02*
X91335714Y-151804819D01*
X91335714Y-151804819D02*
X91430952Y-151852438D01*
X91430952Y-151852438D02*
X91526190Y-151947676D01*
X91526190Y-151947676D02*
X91573809Y-152138152D01*
X91573809Y-152138152D02*
X91573809Y-152471485D01*
X91573809Y-152471485D02*
X91526190Y-152661961D01*
X91526190Y-152661961D02*
X91430952Y-152757200D01*
X91430952Y-152757200D02*
X91335714Y-152804819D01*
X91335714Y-152804819D02*
X91145238Y-152804819D01*
X91145238Y-152804819D02*
X91050000Y-152757200D01*
X91050000Y-152757200D02*
X90954762Y-152661961D01*
X90954762Y-152661961D02*
X90907143Y-152471485D01*
X90907143Y-152471485D02*
X90907143Y-152138152D01*
X90907143Y-152138152D02*
X90954762Y-151947676D01*
X90954762Y-151947676D02*
X91050000Y-151852438D01*
X91050000Y-151852438D02*
X91145238Y-151804819D01*
X92526190Y-152804819D02*
X91954762Y-152804819D01*
X92240476Y-152804819D02*
X92240476Y-151804819D01*
X92240476Y-151804819D02*
X92145238Y-151947676D01*
X92145238Y-151947676D02*
X92050000Y-152042914D01*
X92050000Y-152042914D02*
X91954762Y-152090533D01*
X122666666Y-161909819D02*
X122666666Y-162624104D01*
X122666666Y-162624104D02*
X122619047Y-162766961D01*
X122619047Y-162766961D02*
X122523809Y-162862200D01*
X122523809Y-162862200D02*
X122380952Y-162909819D01*
X122380952Y-162909819D02*
X122285714Y-162909819D01*
X123571428Y-162243152D02*
X123571428Y-162909819D01*
X123333333Y-161862200D02*
X123095238Y-162576485D01*
X123095238Y-162576485D02*
X123714285Y-162576485D01*
X122006819Y-153333332D02*
X121006819Y-153333332D01*
X121006819Y-153333332D02*
X121721104Y-152999999D01*
X121721104Y-152999999D02*
X121006819Y-152666666D01*
X121006819Y-152666666D02*
X122006819Y-152666666D01*
X121006819Y-151999999D02*
X121006819Y-151809523D01*
X121006819Y-151809523D02*
X121054438Y-151714285D01*
X121054438Y-151714285D02*
X121149676Y-151619047D01*
X121149676Y-151619047D02*
X121340152Y-151571428D01*
X121340152Y-151571428D02*
X121673485Y-151571428D01*
X121673485Y-151571428D02*
X121863961Y-151619047D01*
X121863961Y-151619047D02*
X121959200Y-151714285D01*
X121959200Y-151714285D02*
X122006819Y-151809523D01*
X122006819Y-151809523D02*
X122006819Y-151999999D01*
X122006819Y-151999999D02*
X121959200Y-152095237D01*
X121959200Y-152095237D02*
X121863961Y-152190475D01*
X121863961Y-152190475D02*
X121673485Y-152238094D01*
X121673485Y-152238094D02*
X121340152Y-152238094D01*
X121340152Y-152238094D02*
X121149676Y-152190475D01*
X121149676Y-152190475D02*
X121054438Y-152095237D01*
X121054438Y-152095237D02*
X121006819Y-151999999D01*
X121102057Y-151190475D02*
X121054438Y-151142856D01*
X121054438Y-151142856D02*
X121006819Y-151047618D01*
X121006819Y-151047618D02*
X121006819Y-150809523D01*
X121006819Y-150809523D02*
X121054438Y-150714285D01*
X121054438Y-150714285D02*
X121102057Y-150666666D01*
X121102057Y-150666666D02*
X121197295Y-150619047D01*
X121197295Y-150619047D02*
X121292533Y-150619047D01*
X121292533Y-150619047D02*
X121435390Y-150666666D01*
X121435390Y-150666666D02*
X122006819Y-151238094D01*
X122006819Y-151238094D02*
X122006819Y-150619047D01*
X118006819Y-153333332D02*
X117006819Y-153333332D01*
X117006819Y-153333332D02*
X117721104Y-152999999D01*
X117721104Y-152999999D02*
X117006819Y-152666666D01*
X117006819Y-152666666D02*
X118006819Y-152666666D01*
X117006819Y-151999999D02*
X117006819Y-151809523D01*
X117006819Y-151809523D02*
X117054438Y-151714285D01*
X117054438Y-151714285D02*
X117149676Y-151619047D01*
X117149676Y-151619047D02*
X117340152Y-151571428D01*
X117340152Y-151571428D02*
X117673485Y-151571428D01*
X117673485Y-151571428D02*
X117863961Y-151619047D01*
X117863961Y-151619047D02*
X117959200Y-151714285D01*
X117959200Y-151714285D02*
X118006819Y-151809523D01*
X118006819Y-151809523D02*
X118006819Y-151999999D01*
X118006819Y-151999999D02*
X117959200Y-152095237D01*
X117959200Y-152095237D02*
X117863961Y-152190475D01*
X117863961Y-152190475D02*
X117673485Y-152238094D01*
X117673485Y-152238094D02*
X117340152Y-152238094D01*
X117340152Y-152238094D02*
X117149676Y-152190475D01*
X117149676Y-152190475D02*
X117054438Y-152095237D01*
X117054438Y-152095237D02*
X117006819Y-151999999D01*
X117006819Y-151238094D02*
X117006819Y-150619047D01*
X117006819Y-150619047D02*
X117387771Y-150952380D01*
X117387771Y-150952380D02*
X117387771Y-150809523D01*
X117387771Y-150809523D02*
X117435390Y-150714285D01*
X117435390Y-150714285D02*
X117483009Y-150666666D01*
X117483009Y-150666666D02*
X117578247Y-150619047D01*
X117578247Y-150619047D02*
X117816342Y-150619047D01*
X117816342Y-150619047D02*
X117911580Y-150666666D01*
X117911580Y-150666666D02*
X117959200Y-150714285D01*
X117959200Y-150714285D02*
X118006819Y-150809523D01*
X118006819Y-150809523D02*
X118006819Y-151095237D01*
X118006819Y-151095237D02*
X117959200Y-151190475D01*
X117959200Y-151190475D02*
X117911580Y-151238094D01*
X79566666Y-162804819D02*
X79566666Y-163519104D01*
X79566666Y-163519104D02*
X79519047Y-163661961D01*
X79519047Y-163661961D02*
X79423809Y-163757200D01*
X79423809Y-163757200D02*
X79280952Y-163804819D01*
X79280952Y-163804819D02*
X79185714Y-163804819D01*
X80090476Y-163804819D02*
X80280952Y-163804819D01*
X80280952Y-163804819D02*
X80376190Y-163757200D01*
X80376190Y-163757200D02*
X80423809Y-163709580D01*
X80423809Y-163709580D02*
X80519047Y-163566723D01*
X80519047Y-163566723D02*
X80566666Y-163376247D01*
X80566666Y-163376247D02*
X80566666Y-162995295D01*
X80566666Y-162995295D02*
X80519047Y-162900057D01*
X80519047Y-162900057D02*
X80471428Y-162852438D01*
X80471428Y-162852438D02*
X80376190Y-162804819D01*
X80376190Y-162804819D02*
X80185714Y-162804819D01*
X80185714Y-162804819D02*
X80090476Y-162852438D01*
X80090476Y-162852438D02*
X80042857Y-162900057D01*
X80042857Y-162900057D02*
X79995238Y-162995295D01*
X79995238Y-162995295D02*
X79995238Y-163233390D01*
X79995238Y-163233390D02*
X80042857Y-163328628D01*
X80042857Y-163328628D02*
X80090476Y-163376247D01*
X80090476Y-163376247D02*
X80185714Y-163423866D01*
X80185714Y-163423866D02*
X80376190Y-163423866D01*
X80376190Y-163423866D02*
X80471428Y-163376247D01*
X80471428Y-163376247D02*
X80519047Y-163328628D01*
X80519047Y-163328628D02*
X80566666Y-163233390D01*
X66820833Y-181454819D02*
X66487500Y-180978628D01*
X66249405Y-181454819D02*
X66249405Y-180454819D01*
X66249405Y-180454819D02*
X66630357Y-180454819D01*
X66630357Y-180454819D02*
X66725595Y-180502438D01*
X66725595Y-180502438D02*
X66773214Y-180550057D01*
X66773214Y-180550057D02*
X66820833Y-180645295D01*
X66820833Y-180645295D02*
X66820833Y-180788152D01*
X66820833Y-180788152D02*
X66773214Y-180883390D01*
X66773214Y-180883390D02*
X66725595Y-180931009D01*
X66725595Y-180931009D02*
X66630357Y-180978628D01*
X66630357Y-180978628D02*
X66249405Y-180978628D01*
X67154167Y-180454819D02*
X67773214Y-180454819D01*
X67773214Y-180454819D02*
X67439881Y-180835771D01*
X67439881Y-180835771D02*
X67582738Y-180835771D01*
X67582738Y-180835771D02*
X67677976Y-180883390D01*
X67677976Y-180883390D02*
X67725595Y-180931009D01*
X67725595Y-180931009D02*
X67773214Y-181026247D01*
X67773214Y-181026247D02*
X67773214Y-181264342D01*
X67773214Y-181264342D02*
X67725595Y-181359580D01*
X67725595Y-181359580D02*
X67677976Y-181407200D01*
X67677976Y-181407200D02*
X67582738Y-181454819D01*
X67582738Y-181454819D02*
X67297024Y-181454819D01*
X67297024Y-181454819D02*
X67201786Y-181407200D01*
X67201786Y-181407200D02*
X67154167Y-181359580D01*
X106007142Y-159354819D02*
X105673809Y-158878628D01*
X105435714Y-159354819D02*
X105435714Y-158354819D01*
X105435714Y-158354819D02*
X105816666Y-158354819D01*
X105816666Y-158354819D02*
X105911904Y-158402438D01*
X105911904Y-158402438D02*
X105959523Y-158450057D01*
X105959523Y-158450057D02*
X106007142Y-158545295D01*
X106007142Y-158545295D02*
X106007142Y-158688152D01*
X106007142Y-158688152D02*
X105959523Y-158783390D01*
X105959523Y-158783390D02*
X105911904Y-158831009D01*
X105911904Y-158831009D02*
X105816666Y-158878628D01*
X105816666Y-158878628D02*
X105435714Y-158878628D01*
X106959523Y-159354819D02*
X106388095Y-159354819D01*
X106673809Y-159354819D02*
X106673809Y-158354819D01*
X106673809Y-158354819D02*
X106578571Y-158497676D01*
X106578571Y-158497676D02*
X106483333Y-158592914D01*
X106483333Y-158592914D02*
X106388095Y-158640533D01*
X107911904Y-159354819D02*
X107340476Y-159354819D01*
X107626190Y-159354819D02*
X107626190Y-158354819D01*
X107626190Y-158354819D02*
X107530952Y-158497676D01*
X107530952Y-158497676D02*
X107435714Y-158592914D01*
X107435714Y-158592914D02*
X107340476Y-158640533D01*
X151352438Y-164288095D02*
X151304819Y-164383333D01*
X151304819Y-164383333D02*
X151304819Y-164526190D01*
X151304819Y-164526190D02*
X151352438Y-164669047D01*
X151352438Y-164669047D02*
X151447676Y-164764285D01*
X151447676Y-164764285D02*
X151542914Y-164811904D01*
X151542914Y-164811904D02*
X151733390Y-164859523D01*
X151733390Y-164859523D02*
X151876247Y-164859523D01*
X151876247Y-164859523D02*
X152066723Y-164811904D01*
X152066723Y-164811904D02*
X152161961Y-164764285D01*
X152161961Y-164764285D02*
X152257200Y-164669047D01*
X152257200Y-164669047D02*
X152304819Y-164526190D01*
X152304819Y-164526190D02*
X152304819Y-164430952D01*
X152304819Y-164430952D02*
X152257200Y-164288095D01*
X152257200Y-164288095D02*
X152209580Y-164240476D01*
X152209580Y-164240476D02*
X151876247Y-164240476D01*
X151876247Y-164240476D02*
X151876247Y-164430952D01*
X152304819Y-163811904D02*
X151304819Y-163811904D01*
X151304819Y-163811904D02*
X152304819Y-163240476D01*
X152304819Y-163240476D02*
X151304819Y-163240476D01*
X152304819Y-162764285D02*
X151304819Y-162764285D01*
X151304819Y-162764285D02*
X151304819Y-162526190D01*
X151304819Y-162526190D02*
X151352438Y-162383333D01*
X151352438Y-162383333D02*
X151447676Y-162288095D01*
X151447676Y-162288095D02*
X151542914Y-162240476D01*
X151542914Y-162240476D02*
X151733390Y-162192857D01*
X151733390Y-162192857D02*
X151876247Y-162192857D01*
X151876247Y-162192857D02*
X152066723Y-162240476D01*
X152066723Y-162240476D02*
X152161961Y-162288095D01*
X152161961Y-162288095D02*
X152257200Y-162383333D01*
X152257200Y-162383333D02*
X152304819Y-162526190D01*
X152304819Y-162526190D02*
X152304819Y-162764285D01*
X151304819Y-161859523D02*
X151304819Y-161192857D01*
X151304819Y-161192857D02*
X152304819Y-161621428D01*
X155233333Y-139854819D02*
X154900000Y-139378628D01*
X154661905Y-139854819D02*
X154661905Y-138854819D01*
X154661905Y-138854819D02*
X155042857Y-138854819D01*
X155042857Y-138854819D02*
X155138095Y-138902438D01*
X155138095Y-138902438D02*
X155185714Y-138950057D01*
X155185714Y-138950057D02*
X155233333Y-139045295D01*
X155233333Y-139045295D02*
X155233333Y-139188152D01*
X155233333Y-139188152D02*
X155185714Y-139283390D01*
X155185714Y-139283390D02*
X155138095Y-139331009D01*
X155138095Y-139331009D02*
X155042857Y-139378628D01*
X155042857Y-139378628D02*
X154661905Y-139378628D01*
X156185714Y-139854819D02*
X155614286Y-139854819D01*
X155900000Y-139854819D02*
X155900000Y-138854819D01*
X155900000Y-138854819D02*
X155804762Y-138997676D01*
X155804762Y-138997676D02*
X155709524Y-139092914D01*
X155709524Y-139092914D02*
X155614286Y-139140533D01*
X70011904Y-136802438D02*
X69916666Y-136754819D01*
X69916666Y-136754819D02*
X69773809Y-136754819D01*
X69773809Y-136754819D02*
X69630952Y-136802438D01*
X69630952Y-136802438D02*
X69535714Y-136897676D01*
X69535714Y-136897676D02*
X69488095Y-136992914D01*
X69488095Y-136992914D02*
X69440476Y-137183390D01*
X69440476Y-137183390D02*
X69440476Y-137326247D01*
X69440476Y-137326247D02*
X69488095Y-137516723D01*
X69488095Y-137516723D02*
X69535714Y-137611961D01*
X69535714Y-137611961D02*
X69630952Y-137707200D01*
X69630952Y-137707200D02*
X69773809Y-137754819D01*
X69773809Y-137754819D02*
X69869047Y-137754819D01*
X69869047Y-137754819D02*
X70011904Y-137707200D01*
X70011904Y-137707200D02*
X70059523Y-137659580D01*
X70059523Y-137659580D02*
X70059523Y-137326247D01*
X70059523Y-137326247D02*
X69869047Y-137326247D01*
X70488095Y-137754819D02*
X70488095Y-136754819D01*
X70488095Y-136754819D02*
X71059523Y-137754819D01*
X71059523Y-137754819D02*
X71059523Y-136754819D01*
X71535714Y-137754819D02*
X71535714Y-136754819D01*
X71535714Y-136754819D02*
X71773809Y-136754819D01*
X71773809Y-136754819D02*
X71916666Y-136802438D01*
X71916666Y-136802438D02*
X72011904Y-136897676D01*
X72011904Y-136897676D02*
X72059523Y-136992914D01*
X72059523Y-136992914D02*
X72107142Y-137183390D01*
X72107142Y-137183390D02*
X72107142Y-137326247D01*
X72107142Y-137326247D02*
X72059523Y-137516723D01*
X72059523Y-137516723D02*
X72011904Y-137611961D01*
X72011904Y-137611961D02*
X71916666Y-137707200D01*
X71916666Y-137707200D02*
X71773809Y-137754819D01*
X71773809Y-137754819D02*
X71535714Y-137754819D01*
X72488095Y-136850057D02*
X72535714Y-136802438D01*
X72535714Y-136802438D02*
X72630952Y-136754819D01*
X72630952Y-136754819D02*
X72869047Y-136754819D01*
X72869047Y-136754819D02*
X72964285Y-136802438D01*
X72964285Y-136802438D02*
X73011904Y-136850057D01*
X73011904Y-136850057D02*
X73059523Y-136945295D01*
X73059523Y-136945295D02*
X73059523Y-137040533D01*
X73059523Y-137040533D02*
X73011904Y-137183390D01*
X73011904Y-137183390D02*
X72440476Y-137754819D01*
X72440476Y-137754819D02*
X73059523Y-137754819D01*
X63890476Y-162724819D02*
X63890476Y-163439104D01*
X63890476Y-163439104D02*
X63842857Y-163581961D01*
X63842857Y-163581961D02*
X63747619Y-163677200D01*
X63747619Y-163677200D02*
X63604762Y-163724819D01*
X63604762Y-163724819D02*
X63509524Y-163724819D01*
X64890476Y-163724819D02*
X64319048Y-163724819D01*
X64604762Y-163724819D02*
X64604762Y-162724819D01*
X64604762Y-162724819D02*
X64509524Y-162867676D01*
X64509524Y-162867676D02*
X64414286Y-162962914D01*
X64414286Y-162962914D02*
X64319048Y-163010533D01*
X65509524Y-162724819D02*
X65604762Y-162724819D01*
X65604762Y-162724819D02*
X65700000Y-162772438D01*
X65700000Y-162772438D02*
X65747619Y-162820057D01*
X65747619Y-162820057D02*
X65795238Y-162915295D01*
X65795238Y-162915295D02*
X65842857Y-163105771D01*
X65842857Y-163105771D02*
X65842857Y-163343866D01*
X65842857Y-163343866D02*
X65795238Y-163534342D01*
X65795238Y-163534342D02*
X65747619Y-163629580D01*
X65747619Y-163629580D02*
X65700000Y-163677200D01*
X65700000Y-163677200D02*
X65604762Y-163724819D01*
X65604762Y-163724819D02*
X65509524Y-163724819D01*
X65509524Y-163724819D02*
X65414286Y-163677200D01*
X65414286Y-163677200D02*
X65366667Y-163629580D01*
X65366667Y-163629580D02*
X65319048Y-163534342D01*
X65319048Y-163534342D02*
X65271429Y-163343866D01*
X65271429Y-163343866D02*
X65271429Y-163105771D01*
X65271429Y-163105771D02*
X65319048Y-162915295D01*
X65319048Y-162915295D02*
X65366667Y-162820057D01*
X65366667Y-162820057D02*
X65414286Y-162772438D01*
X65414286Y-162772438D02*
X65509524Y-162724819D01*
X86790476Y-158454819D02*
X87123809Y-159454819D01*
X87123809Y-159454819D02*
X87457142Y-158454819D01*
X87790476Y-159454819D02*
X87790476Y-158454819D01*
X87790476Y-158454819D02*
X88028571Y-158454819D01*
X88028571Y-158454819D02*
X88171428Y-158502438D01*
X88171428Y-158502438D02*
X88266666Y-158597676D01*
X88266666Y-158597676D02*
X88314285Y-158692914D01*
X88314285Y-158692914D02*
X88361904Y-158883390D01*
X88361904Y-158883390D02*
X88361904Y-159026247D01*
X88361904Y-159026247D02*
X88314285Y-159216723D01*
X88314285Y-159216723D02*
X88266666Y-159311961D01*
X88266666Y-159311961D02*
X88171428Y-159407200D01*
X88171428Y-159407200D02*
X88028571Y-159454819D01*
X88028571Y-159454819D02*
X87790476Y-159454819D01*
X88790476Y-159454819D02*
X88790476Y-158454819D01*
X88790476Y-158454819D02*
X89028571Y-158454819D01*
X89028571Y-158454819D02*
X89171428Y-158502438D01*
X89171428Y-158502438D02*
X89266666Y-158597676D01*
X89266666Y-158597676D02*
X89314285Y-158692914D01*
X89314285Y-158692914D02*
X89361904Y-158883390D01*
X89361904Y-158883390D02*
X89361904Y-159026247D01*
X89361904Y-159026247D02*
X89314285Y-159216723D01*
X89314285Y-159216723D02*
X89266666Y-159311961D01*
X89266666Y-159311961D02*
X89171428Y-159407200D01*
X89171428Y-159407200D02*
X89028571Y-159454819D01*
X89028571Y-159454819D02*
X88790476Y-159454819D01*
X90314285Y-159454819D02*
X89742857Y-159454819D01*
X90028571Y-159454819D02*
X90028571Y-158454819D01*
X90028571Y-158454819D02*
X89933333Y-158597676D01*
X89933333Y-158597676D02*
X89838095Y-158692914D01*
X89838095Y-158692914D02*
X89742857Y-158740533D01*
X154461905Y-138254819D02*
X154461905Y-137254819D01*
X154461905Y-137254819D02*
X154700000Y-137254819D01*
X154700000Y-137254819D02*
X154842857Y-137302438D01*
X154842857Y-137302438D02*
X154938095Y-137397676D01*
X154938095Y-137397676D02*
X154985714Y-137492914D01*
X154985714Y-137492914D02*
X155033333Y-137683390D01*
X155033333Y-137683390D02*
X155033333Y-137826247D01*
X155033333Y-137826247D02*
X154985714Y-138016723D01*
X154985714Y-138016723D02*
X154938095Y-138111961D01*
X154938095Y-138111961D02*
X154842857Y-138207200D01*
X154842857Y-138207200D02*
X154700000Y-138254819D01*
X154700000Y-138254819D02*
X154461905Y-138254819D01*
X155890476Y-137588152D02*
X155890476Y-138254819D01*
X155652381Y-137207200D02*
X155414286Y-137921485D01*
X155414286Y-137921485D02*
X156033333Y-137921485D01*
X151061904Y-145302438D02*
X150966666Y-145254819D01*
X150966666Y-145254819D02*
X150823809Y-145254819D01*
X150823809Y-145254819D02*
X150680952Y-145302438D01*
X150680952Y-145302438D02*
X150585714Y-145397676D01*
X150585714Y-145397676D02*
X150538095Y-145492914D01*
X150538095Y-145492914D02*
X150490476Y-145683390D01*
X150490476Y-145683390D02*
X150490476Y-145826247D01*
X150490476Y-145826247D02*
X150538095Y-146016723D01*
X150538095Y-146016723D02*
X150585714Y-146111961D01*
X150585714Y-146111961D02*
X150680952Y-146207200D01*
X150680952Y-146207200D02*
X150823809Y-146254819D01*
X150823809Y-146254819D02*
X150919047Y-146254819D01*
X150919047Y-146254819D02*
X151061904Y-146207200D01*
X151061904Y-146207200D02*
X151109523Y-146159580D01*
X151109523Y-146159580D02*
X151109523Y-145826247D01*
X151109523Y-145826247D02*
X150919047Y-145826247D01*
X151538095Y-146254819D02*
X151538095Y-145254819D01*
X151538095Y-145254819D02*
X152109523Y-146254819D01*
X152109523Y-146254819D02*
X152109523Y-145254819D01*
X152585714Y-146254819D02*
X152585714Y-145254819D01*
X152585714Y-145254819D02*
X152823809Y-145254819D01*
X152823809Y-145254819D02*
X152966666Y-145302438D01*
X152966666Y-145302438D02*
X153061904Y-145397676D01*
X153061904Y-145397676D02*
X153109523Y-145492914D01*
X153109523Y-145492914D02*
X153157142Y-145683390D01*
X153157142Y-145683390D02*
X153157142Y-145826247D01*
X153157142Y-145826247D02*
X153109523Y-146016723D01*
X153109523Y-146016723D02*
X153061904Y-146111961D01*
X153061904Y-146111961D02*
X152966666Y-146207200D01*
X152966666Y-146207200D02*
X152823809Y-146254819D01*
X152823809Y-146254819D02*
X152585714Y-146254819D01*
X154109523Y-146254819D02*
X153538095Y-146254819D01*
X153823809Y-146254819D02*
X153823809Y-145254819D01*
X153823809Y-145254819D02*
X153728571Y-145397676D01*
X153728571Y-145397676D02*
X153633333Y-145492914D01*
X153633333Y-145492914D02*
X153538095Y-145540533D01*
X67907142Y-147104819D02*
X67573809Y-146628628D01*
X67335714Y-147104819D02*
X67335714Y-146104819D01*
X67335714Y-146104819D02*
X67716666Y-146104819D01*
X67716666Y-146104819D02*
X67811904Y-146152438D01*
X67811904Y-146152438D02*
X67859523Y-146200057D01*
X67859523Y-146200057D02*
X67907142Y-146295295D01*
X67907142Y-146295295D02*
X67907142Y-146438152D01*
X67907142Y-146438152D02*
X67859523Y-146533390D01*
X67859523Y-146533390D02*
X67811904Y-146581009D01*
X67811904Y-146581009D02*
X67716666Y-146628628D01*
X67716666Y-146628628D02*
X67335714Y-146628628D01*
X68859523Y-147104819D02*
X68288095Y-147104819D01*
X68573809Y-147104819D02*
X68573809Y-146104819D01*
X68573809Y-146104819D02*
X68478571Y-146247676D01*
X68478571Y-146247676D02*
X68383333Y-146342914D01*
X68383333Y-146342914D02*
X68288095Y-146390533D01*
X69764285Y-146104819D02*
X69288095Y-146104819D01*
X69288095Y-146104819D02*
X69240476Y-146581009D01*
X69240476Y-146581009D02*
X69288095Y-146533390D01*
X69288095Y-146533390D02*
X69383333Y-146485771D01*
X69383333Y-146485771D02*
X69621428Y-146485771D01*
X69621428Y-146485771D02*
X69716666Y-146533390D01*
X69716666Y-146533390D02*
X69764285Y-146581009D01*
X69764285Y-146581009D02*
X69811904Y-146676247D01*
X69811904Y-146676247D02*
X69811904Y-146914342D01*
X69811904Y-146914342D02*
X69764285Y-147009580D01*
X69764285Y-147009580D02*
X69716666Y-147057200D01*
X69716666Y-147057200D02*
X69621428Y-147104819D01*
X69621428Y-147104819D02*
X69383333Y-147104819D01*
X69383333Y-147104819D02*
X69288095Y-147057200D01*
X69288095Y-147057200D02*
X69240476Y-147009580D01*
X68504819Y-155342857D02*
X68028628Y-155676190D01*
X68504819Y-155914285D02*
X67504819Y-155914285D01*
X67504819Y-155914285D02*
X67504819Y-155533333D01*
X67504819Y-155533333D02*
X67552438Y-155438095D01*
X67552438Y-155438095D02*
X67600057Y-155390476D01*
X67600057Y-155390476D02*
X67695295Y-155342857D01*
X67695295Y-155342857D02*
X67838152Y-155342857D01*
X67838152Y-155342857D02*
X67933390Y-155390476D01*
X67933390Y-155390476D02*
X67981009Y-155438095D01*
X67981009Y-155438095D02*
X68028628Y-155533333D01*
X68028628Y-155533333D02*
X68028628Y-155914285D01*
X68504819Y-154390476D02*
X68504819Y-154961904D01*
X68504819Y-154676190D02*
X67504819Y-154676190D01*
X67504819Y-154676190D02*
X67647676Y-154771428D01*
X67647676Y-154771428D02*
X67742914Y-154866666D01*
X67742914Y-154866666D02*
X67790533Y-154961904D01*
X67838152Y-153533333D02*
X68504819Y-153533333D01*
X67457200Y-153771428D02*
X68171485Y-154009523D01*
X68171485Y-154009523D02*
X68171485Y-153390476D01*
X147654819Y-163366666D02*
X147654819Y-163842856D01*
X147654819Y-163842856D02*
X148131009Y-163890475D01*
X148131009Y-163890475D02*
X148083390Y-163842856D01*
X148083390Y-163842856D02*
X148035771Y-163747618D01*
X148035771Y-163747618D02*
X148035771Y-163509523D01*
X148035771Y-163509523D02*
X148083390Y-163414285D01*
X148083390Y-163414285D02*
X148131009Y-163366666D01*
X148131009Y-163366666D02*
X148226247Y-163319047D01*
X148226247Y-163319047D02*
X148464342Y-163319047D01*
X148464342Y-163319047D02*
X148559580Y-163366666D01*
X148559580Y-163366666D02*
X148607200Y-163414285D01*
X148607200Y-163414285D02*
X148654819Y-163509523D01*
X148654819Y-163509523D02*
X148654819Y-163747618D01*
X148654819Y-163747618D02*
X148607200Y-163842856D01*
X148607200Y-163842856D02*
X148559580Y-163890475D01*
X147654819Y-163033332D02*
X148654819Y-162699999D01*
X148654819Y-162699999D02*
X147654819Y-162366666D01*
X148654819Y-161509523D02*
X148654819Y-162080951D01*
X148654819Y-161795237D02*
X147654819Y-161795237D01*
X147654819Y-161795237D02*
X147797676Y-161890475D01*
X147797676Y-161890475D02*
X147892914Y-161985713D01*
X147892914Y-161985713D02*
X147940533Y-162080951D01*
X155033333Y-181454819D02*
X154700000Y-180978628D01*
X154461905Y-181454819D02*
X154461905Y-180454819D01*
X154461905Y-180454819D02*
X154842857Y-180454819D01*
X154842857Y-180454819D02*
X154938095Y-180502438D01*
X154938095Y-180502438D02*
X154985714Y-180550057D01*
X154985714Y-180550057D02*
X155033333Y-180645295D01*
X155033333Y-180645295D02*
X155033333Y-180788152D01*
X155033333Y-180788152D02*
X154985714Y-180883390D01*
X154985714Y-180883390D02*
X154938095Y-180931009D01*
X154938095Y-180931009D02*
X154842857Y-180978628D01*
X154842857Y-180978628D02*
X154461905Y-180978628D01*
X155414286Y-180550057D02*
X155461905Y-180502438D01*
X155461905Y-180502438D02*
X155557143Y-180454819D01*
X155557143Y-180454819D02*
X155795238Y-180454819D01*
X155795238Y-180454819D02*
X155890476Y-180502438D01*
X155890476Y-180502438D02*
X155938095Y-180550057D01*
X155938095Y-180550057D02*
X155985714Y-180645295D01*
X155985714Y-180645295D02*
X155985714Y-180740533D01*
X155985714Y-180740533D02*
X155938095Y-180883390D01*
X155938095Y-180883390D02*
X155366667Y-181454819D01*
X155366667Y-181454819D02*
X155985714Y-181454819D01*
X151090476Y-157364819D02*
X151090476Y-158079104D01*
X151090476Y-158079104D02*
X151042857Y-158221961D01*
X151042857Y-158221961D02*
X150947619Y-158317200D01*
X150947619Y-158317200D02*
X150804762Y-158364819D01*
X150804762Y-158364819D02*
X150709524Y-158364819D01*
X152090476Y-158364819D02*
X151519048Y-158364819D01*
X151804762Y-158364819D02*
X151804762Y-157364819D01*
X151804762Y-157364819D02*
X151709524Y-157507676D01*
X151709524Y-157507676D02*
X151614286Y-157602914D01*
X151614286Y-157602914D02*
X151519048Y-157650533D01*
X152947619Y-157364819D02*
X152757143Y-157364819D01*
X152757143Y-157364819D02*
X152661905Y-157412438D01*
X152661905Y-157412438D02*
X152614286Y-157460057D01*
X152614286Y-157460057D02*
X152519048Y-157602914D01*
X152519048Y-157602914D02*
X152471429Y-157793390D01*
X152471429Y-157793390D02*
X152471429Y-158174342D01*
X152471429Y-158174342D02*
X152519048Y-158269580D01*
X152519048Y-158269580D02*
X152566667Y-158317200D01*
X152566667Y-158317200D02*
X152661905Y-158364819D01*
X152661905Y-158364819D02*
X152852381Y-158364819D01*
X152852381Y-158364819D02*
X152947619Y-158317200D01*
X152947619Y-158317200D02*
X152995238Y-158269580D01*
X152995238Y-158269580D02*
X153042857Y-158174342D01*
X153042857Y-158174342D02*
X153042857Y-157936247D01*
X153042857Y-157936247D02*
X152995238Y-157841009D01*
X152995238Y-157841009D02*
X152947619Y-157793390D01*
X152947619Y-157793390D02*
X152852381Y-157745771D01*
X152852381Y-157745771D02*
X152661905Y-157745771D01*
X152661905Y-157745771D02*
X152566667Y-157793390D01*
X152566667Y-157793390D02*
X152519048Y-157841009D01*
X152519048Y-157841009D02*
X152471429Y-157936247D01*
X124604761Y-174804819D02*
X124604761Y-175519104D01*
X124604761Y-175519104D02*
X124557142Y-175661961D01*
X124557142Y-175661961D02*
X124461904Y-175757200D01*
X124461904Y-175757200D02*
X124319047Y-175804819D01*
X124319047Y-175804819D02*
X124223809Y-175804819D01*
X125509523Y-175138152D02*
X125509523Y-175804819D01*
X125271428Y-174757200D02*
X125033333Y-175471485D01*
X125033333Y-175471485D02*
X125652380Y-175471485D01*
X125795238Y-175900057D02*
X126557142Y-175900057D01*
X126795238Y-175804819D02*
X126795238Y-174804819D01*
X126795238Y-174804819D02*
X127128571Y-175519104D01*
X127128571Y-175519104D02*
X127461904Y-174804819D01*
X127461904Y-174804819D02*
X127461904Y-175804819D01*
X127890476Y-174900057D02*
X127938095Y-174852438D01*
X127938095Y-174852438D02*
X128033333Y-174804819D01*
X128033333Y-174804819D02*
X128271428Y-174804819D01*
X128271428Y-174804819D02*
X128366666Y-174852438D01*
X128366666Y-174852438D02*
X128414285Y-174900057D01*
X128414285Y-174900057D02*
X128461904Y-174995295D01*
X128461904Y-174995295D02*
X128461904Y-175090533D01*
X128461904Y-175090533D02*
X128414285Y-175233390D01*
X128414285Y-175233390D02*
X127842857Y-175804819D01*
X127842857Y-175804819D02*
X128461904Y-175804819D01*
X128652381Y-175900057D02*
X129414285Y-175900057D01*
X129652381Y-175804819D02*
X129652381Y-174804819D01*
X129652381Y-174804819D02*
X129985714Y-175519104D01*
X129985714Y-175519104D02*
X130319047Y-174804819D01*
X130319047Y-174804819D02*
X130319047Y-175804819D01*
X130985714Y-174804819D02*
X131176190Y-174804819D01*
X131176190Y-174804819D02*
X131271428Y-174852438D01*
X131271428Y-174852438D02*
X131366666Y-174947676D01*
X131366666Y-174947676D02*
X131414285Y-175138152D01*
X131414285Y-175138152D02*
X131414285Y-175471485D01*
X131414285Y-175471485D02*
X131366666Y-175661961D01*
X131366666Y-175661961D02*
X131271428Y-175757200D01*
X131271428Y-175757200D02*
X131176190Y-175804819D01*
X131176190Y-175804819D02*
X130985714Y-175804819D01*
X130985714Y-175804819D02*
X130890476Y-175757200D01*
X130890476Y-175757200D02*
X130795238Y-175661961D01*
X130795238Y-175661961D02*
X130747619Y-175471485D01*
X130747619Y-175471485D02*
X130747619Y-175138152D01*
X130747619Y-175138152D02*
X130795238Y-174947676D01*
X130795238Y-174947676D02*
X130890476Y-174852438D01*
X130890476Y-174852438D02*
X130985714Y-174804819D01*
X131700000Y-174804819D02*
X132271428Y-174804819D01*
X131985714Y-175804819D02*
X131985714Y-174804819D01*
X132557143Y-174900057D02*
X132604762Y-174852438D01*
X132604762Y-174852438D02*
X132700000Y-174804819D01*
X132700000Y-174804819D02*
X132938095Y-174804819D01*
X132938095Y-174804819D02*
X133033333Y-174852438D01*
X133033333Y-174852438D02*
X133080952Y-174900057D01*
X133080952Y-174900057D02*
X133128571Y-174995295D01*
X133128571Y-174995295D02*
X133128571Y-175090533D01*
X133128571Y-175090533D02*
X133080952Y-175233390D01*
X133080952Y-175233390D02*
X132509524Y-175804819D01*
X132509524Y-175804819D02*
X133128571Y-175804819D01*
X95107142Y-160204819D02*
X94773809Y-159728628D01*
X94535714Y-160204819D02*
X94535714Y-159204819D01*
X94535714Y-159204819D02*
X94916666Y-159204819D01*
X94916666Y-159204819D02*
X95011904Y-159252438D01*
X95011904Y-159252438D02*
X95059523Y-159300057D01*
X95059523Y-159300057D02*
X95107142Y-159395295D01*
X95107142Y-159395295D02*
X95107142Y-159538152D01*
X95107142Y-159538152D02*
X95059523Y-159633390D01*
X95059523Y-159633390D02*
X95011904Y-159681009D01*
X95011904Y-159681009D02*
X94916666Y-159728628D01*
X94916666Y-159728628D02*
X94535714Y-159728628D01*
X96059523Y-160204819D02*
X95488095Y-160204819D01*
X95773809Y-160204819D02*
X95773809Y-159204819D01*
X95773809Y-159204819D02*
X95678571Y-159347676D01*
X95678571Y-159347676D02*
X95583333Y-159442914D01*
X95583333Y-159442914D02*
X95488095Y-159490533D01*
X96678571Y-159204819D02*
X96773809Y-159204819D01*
X96773809Y-159204819D02*
X96869047Y-159252438D01*
X96869047Y-159252438D02*
X96916666Y-159300057D01*
X96916666Y-159300057D02*
X96964285Y-159395295D01*
X96964285Y-159395295D02*
X97011904Y-159585771D01*
X97011904Y-159585771D02*
X97011904Y-159823866D01*
X97011904Y-159823866D02*
X96964285Y-160014342D01*
X96964285Y-160014342D02*
X96916666Y-160109580D01*
X96916666Y-160109580D02*
X96869047Y-160157200D01*
X96869047Y-160157200D02*
X96773809Y-160204819D01*
X96773809Y-160204819D02*
X96678571Y-160204819D01*
X96678571Y-160204819D02*
X96583333Y-160157200D01*
X96583333Y-160157200D02*
X96535714Y-160109580D01*
X96535714Y-160109580D02*
X96488095Y-160014342D01*
X96488095Y-160014342D02*
X96440476Y-159823866D01*
X96440476Y-159823866D02*
X96440476Y-159585771D01*
X96440476Y-159585771D02*
X96488095Y-159395295D01*
X96488095Y-159395295D02*
X96535714Y-159300057D01*
X96535714Y-159300057D02*
X96583333Y-159252438D01*
X96583333Y-159252438D02*
X96678571Y-159204819D01*
X74952438Y-181038095D02*
X74904819Y-181133333D01*
X74904819Y-181133333D02*
X74904819Y-181276190D01*
X74904819Y-181276190D02*
X74952438Y-181419047D01*
X74952438Y-181419047D02*
X75047676Y-181514285D01*
X75047676Y-181514285D02*
X75142914Y-181561904D01*
X75142914Y-181561904D02*
X75333390Y-181609523D01*
X75333390Y-181609523D02*
X75476247Y-181609523D01*
X75476247Y-181609523D02*
X75666723Y-181561904D01*
X75666723Y-181561904D02*
X75761961Y-181514285D01*
X75761961Y-181514285D02*
X75857200Y-181419047D01*
X75857200Y-181419047D02*
X75904819Y-181276190D01*
X75904819Y-181276190D02*
X75904819Y-181180952D01*
X75904819Y-181180952D02*
X75857200Y-181038095D01*
X75857200Y-181038095D02*
X75809580Y-180990476D01*
X75809580Y-180990476D02*
X75476247Y-180990476D01*
X75476247Y-180990476D02*
X75476247Y-181180952D01*
X75904819Y-180561904D02*
X74904819Y-180561904D01*
X74904819Y-180561904D02*
X75904819Y-179990476D01*
X75904819Y-179990476D02*
X74904819Y-179990476D01*
X75904819Y-179514285D02*
X74904819Y-179514285D01*
X74904819Y-179514285D02*
X74904819Y-179276190D01*
X74904819Y-179276190D02*
X74952438Y-179133333D01*
X74952438Y-179133333D02*
X75047676Y-179038095D01*
X75047676Y-179038095D02*
X75142914Y-178990476D01*
X75142914Y-178990476D02*
X75333390Y-178942857D01*
X75333390Y-178942857D02*
X75476247Y-178942857D01*
X75476247Y-178942857D02*
X75666723Y-178990476D01*
X75666723Y-178990476D02*
X75761961Y-179038095D01*
X75761961Y-179038095D02*
X75857200Y-179133333D01*
X75857200Y-179133333D02*
X75904819Y-179276190D01*
X75904819Y-179276190D02*
X75904819Y-179514285D01*
X74904819Y-178609523D02*
X74904819Y-177990476D01*
X74904819Y-177990476D02*
X75285771Y-178323809D01*
X75285771Y-178323809D02*
X75285771Y-178180952D01*
X75285771Y-178180952D02*
X75333390Y-178085714D01*
X75333390Y-178085714D02*
X75381009Y-178038095D01*
X75381009Y-178038095D02*
X75476247Y-177990476D01*
X75476247Y-177990476D02*
X75714342Y-177990476D01*
X75714342Y-177990476D02*
X75809580Y-178038095D01*
X75809580Y-178038095D02*
X75857200Y-178085714D01*
X75857200Y-178085714D02*
X75904819Y-178180952D01*
X75904819Y-178180952D02*
X75904819Y-178466666D01*
X75904819Y-178466666D02*
X75857200Y-178561904D01*
X75857200Y-178561904D02*
X75809580Y-178609523D01*
X66261905Y-183054819D02*
X66261905Y-182054819D01*
X66261905Y-182054819D02*
X66500000Y-182054819D01*
X66500000Y-182054819D02*
X66642857Y-182102438D01*
X66642857Y-182102438D02*
X66738095Y-182197676D01*
X66738095Y-182197676D02*
X66785714Y-182292914D01*
X66785714Y-182292914D02*
X66833333Y-182483390D01*
X66833333Y-182483390D02*
X66833333Y-182626247D01*
X66833333Y-182626247D02*
X66785714Y-182816723D01*
X66785714Y-182816723D02*
X66738095Y-182911961D01*
X66738095Y-182911961D02*
X66642857Y-183007200D01*
X66642857Y-183007200D02*
X66500000Y-183054819D01*
X66500000Y-183054819D02*
X66261905Y-183054819D01*
X67690476Y-182054819D02*
X67500000Y-182054819D01*
X67500000Y-182054819D02*
X67404762Y-182102438D01*
X67404762Y-182102438D02*
X67357143Y-182150057D01*
X67357143Y-182150057D02*
X67261905Y-182292914D01*
X67261905Y-182292914D02*
X67214286Y-182483390D01*
X67214286Y-182483390D02*
X67214286Y-182864342D01*
X67214286Y-182864342D02*
X67261905Y-182959580D01*
X67261905Y-182959580D02*
X67309524Y-183007200D01*
X67309524Y-183007200D02*
X67404762Y-183054819D01*
X67404762Y-183054819D02*
X67595238Y-183054819D01*
X67595238Y-183054819D02*
X67690476Y-183007200D01*
X67690476Y-183007200D02*
X67738095Y-182959580D01*
X67738095Y-182959580D02*
X67785714Y-182864342D01*
X67785714Y-182864342D02*
X67785714Y-182626247D01*
X67785714Y-182626247D02*
X67738095Y-182531009D01*
X67738095Y-182531009D02*
X67690476Y-182483390D01*
X67690476Y-182483390D02*
X67595238Y-182435771D01*
X67595238Y-182435771D02*
X67404762Y-182435771D01*
X67404762Y-182435771D02*
X67309524Y-182483390D01*
X67309524Y-182483390D02*
X67261905Y-182531009D01*
X67261905Y-182531009D02*
X67214286Y-182626247D01*
X103038095Y-152754819D02*
X103038095Y-153564342D01*
X103038095Y-153564342D02*
X103085714Y-153659580D01*
X103085714Y-153659580D02*
X103133333Y-153707200D01*
X103133333Y-153707200D02*
X103228571Y-153754819D01*
X103228571Y-153754819D02*
X103419047Y-153754819D01*
X103419047Y-153754819D02*
X103514285Y-153707200D01*
X103514285Y-153707200D02*
X103561904Y-153659580D01*
X103561904Y-153659580D02*
X103609523Y-153564342D01*
X103609523Y-153564342D02*
X103609523Y-152754819D01*
X104609523Y-153754819D02*
X104038095Y-153754819D01*
X104323809Y-153754819D02*
X104323809Y-152754819D01*
X104323809Y-152754819D02*
X104228571Y-152897676D01*
X104228571Y-152897676D02*
X104133333Y-152992914D01*
X104133333Y-152992914D02*
X104038095Y-153040533D01*
X102083333Y-160609580D02*
X102035714Y-160657200D01*
X102035714Y-160657200D02*
X101892857Y-160704819D01*
X101892857Y-160704819D02*
X101797619Y-160704819D01*
X101797619Y-160704819D02*
X101654762Y-160657200D01*
X101654762Y-160657200D02*
X101559524Y-160561961D01*
X101559524Y-160561961D02*
X101511905Y-160466723D01*
X101511905Y-160466723D02*
X101464286Y-160276247D01*
X101464286Y-160276247D02*
X101464286Y-160133390D01*
X101464286Y-160133390D02*
X101511905Y-159942914D01*
X101511905Y-159942914D02*
X101559524Y-159847676D01*
X101559524Y-159847676D02*
X101654762Y-159752438D01*
X101654762Y-159752438D02*
X101797619Y-159704819D01*
X101797619Y-159704819D02*
X101892857Y-159704819D01*
X101892857Y-159704819D02*
X102035714Y-159752438D01*
X102035714Y-159752438D02*
X102083333Y-159800057D01*
X103035714Y-160704819D02*
X102464286Y-160704819D01*
X102750000Y-160704819D02*
X102750000Y-159704819D01*
X102750000Y-159704819D02*
X102654762Y-159847676D01*
X102654762Y-159847676D02*
X102559524Y-159942914D01*
X102559524Y-159942914D02*
X102464286Y-159990533D01*
X118666666Y-161924819D02*
X118666666Y-162639104D01*
X118666666Y-162639104D02*
X118619047Y-162781961D01*
X118619047Y-162781961D02*
X118523809Y-162877200D01*
X118523809Y-162877200D02*
X118380952Y-162924819D01*
X118380952Y-162924819D02*
X118285714Y-162924819D01*
X119047619Y-161924819D02*
X119714285Y-161924819D01*
X119714285Y-161924819D02*
X119285714Y-162924819D01*
X98733333Y-151207200D02*
X98876190Y-151254819D01*
X98876190Y-151254819D02*
X99114285Y-151254819D01*
X99114285Y-151254819D02*
X99209523Y-151207200D01*
X99209523Y-151207200D02*
X99257142Y-151159580D01*
X99257142Y-151159580D02*
X99304761Y-151064342D01*
X99304761Y-151064342D02*
X99304761Y-150969104D01*
X99304761Y-150969104D02*
X99257142Y-150873866D01*
X99257142Y-150873866D02*
X99209523Y-150826247D01*
X99209523Y-150826247D02*
X99114285Y-150778628D01*
X99114285Y-150778628D02*
X98923809Y-150731009D01*
X98923809Y-150731009D02*
X98828571Y-150683390D01*
X98828571Y-150683390D02*
X98780952Y-150635771D01*
X98780952Y-150635771D02*
X98733333Y-150540533D01*
X98733333Y-150540533D02*
X98733333Y-150445295D01*
X98733333Y-150445295D02*
X98780952Y-150350057D01*
X98780952Y-150350057D02*
X98828571Y-150302438D01*
X98828571Y-150302438D02*
X98923809Y-150254819D01*
X98923809Y-150254819D02*
X99161904Y-150254819D01*
X99161904Y-150254819D02*
X99304761Y-150302438D01*
X100304761Y-151159580D02*
X100257142Y-151207200D01*
X100257142Y-151207200D02*
X100114285Y-151254819D01*
X100114285Y-151254819D02*
X100019047Y-151254819D01*
X100019047Y-151254819D02*
X99876190Y-151207200D01*
X99876190Y-151207200D02*
X99780952Y-151111961D01*
X99780952Y-151111961D02*
X99733333Y-151016723D01*
X99733333Y-151016723D02*
X99685714Y-150826247D01*
X99685714Y-150826247D02*
X99685714Y-150683390D01*
X99685714Y-150683390D02*
X99733333Y-150492914D01*
X99733333Y-150492914D02*
X99780952Y-150397676D01*
X99780952Y-150397676D02*
X99876190Y-150302438D01*
X99876190Y-150302438D02*
X100019047Y-150254819D01*
X100019047Y-150254819D02*
X100114285Y-150254819D01*
X100114285Y-150254819D02*
X100257142Y-150302438D01*
X100257142Y-150302438D02*
X100304761Y-150350057D01*
X101209523Y-151254819D02*
X100733333Y-151254819D01*
X100733333Y-151254819D02*
X100733333Y-150254819D01*
X102066666Y-151254819D02*
X101495238Y-151254819D01*
X101780952Y-151254819D02*
X101780952Y-150254819D01*
X101780952Y-150254819D02*
X101685714Y-150397676D01*
X101685714Y-150397676D02*
X101590476Y-150492914D01*
X101590476Y-150492914D02*
X101495238Y-150540533D01*
X64731009Y-176814285D02*
X64778628Y-176671428D01*
X64778628Y-176671428D02*
X64826247Y-176623809D01*
X64826247Y-176623809D02*
X64921485Y-176576190D01*
X64921485Y-176576190D02*
X65064342Y-176576190D01*
X65064342Y-176576190D02*
X65159580Y-176623809D01*
X65159580Y-176623809D02*
X65207200Y-176671428D01*
X65207200Y-176671428D02*
X65254819Y-176766666D01*
X65254819Y-176766666D02*
X65254819Y-177147618D01*
X65254819Y-177147618D02*
X64254819Y-177147618D01*
X64254819Y-177147618D02*
X64254819Y-176814285D01*
X64254819Y-176814285D02*
X64302438Y-176719047D01*
X64302438Y-176719047D02*
X64350057Y-176671428D01*
X64350057Y-176671428D02*
X64445295Y-176623809D01*
X64445295Y-176623809D02*
X64540533Y-176623809D01*
X64540533Y-176623809D02*
X64635771Y-176671428D01*
X64635771Y-176671428D02*
X64683390Y-176719047D01*
X64683390Y-176719047D02*
X64731009Y-176814285D01*
X64731009Y-176814285D02*
X64731009Y-177147618D01*
X64969104Y-176195237D02*
X64969104Y-175719047D01*
X65254819Y-176290475D02*
X64254819Y-175957142D01*
X64254819Y-175957142D02*
X65254819Y-175623809D01*
X64254819Y-175433332D02*
X64254819Y-174861904D01*
X65254819Y-175147618D02*
X64254819Y-175147618D01*
X65254819Y-174004761D02*
X65254819Y-174576189D01*
X65254819Y-174290475D02*
X64254819Y-174290475D01*
X64254819Y-174290475D02*
X64397676Y-174385713D01*
X64397676Y-174385713D02*
X64492914Y-174480951D01*
X64492914Y-174480951D02*
X64540533Y-174576189D01*
X149854819Y-139338094D02*
X148854819Y-139338094D01*
X148854819Y-139338094D02*
X148854819Y-139099999D01*
X148854819Y-139099999D02*
X148902438Y-138957142D01*
X148902438Y-138957142D02*
X148997676Y-138861904D01*
X148997676Y-138861904D02*
X149092914Y-138814285D01*
X149092914Y-138814285D02*
X149283390Y-138766666D01*
X149283390Y-138766666D02*
X149426247Y-138766666D01*
X149426247Y-138766666D02*
X149616723Y-138814285D01*
X149616723Y-138814285D02*
X149711961Y-138861904D01*
X149711961Y-138861904D02*
X149807200Y-138957142D01*
X149807200Y-138957142D02*
X149854819Y-139099999D01*
X149854819Y-139099999D02*
X149854819Y-139338094D01*
X148950057Y-138385713D02*
X148902438Y-138338094D01*
X148902438Y-138338094D02*
X148854819Y-138242856D01*
X148854819Y-138242856D02*
X148854819Y-138004761D01*
X148854819Y-138004761D02*
X148902438Y-137909523D01*
X148902438Y-137909523D02*
X148950057Y-137861904D01*
X148950057Y-137861904D02*
X149045295Y-137814285D01*
X149045295Y-137814285D02*
X149140533Y-137814285D01*
X149140533Y-137814285D02*
X149283390Y-137861904D01*
X149283390Y-137861904D02*
X149854819Y-138433332D01*
X149854819Y-138433332D02*
X149854819Y-137814285D01*
X145754819Y-144266666D02*
X145278628Y-144599999D01*
X145754819Y-144838094D02*
X144754819Y-144838094D01*
X144754819Y-144838094D02*
X144754819Y-144457142D01*
X144754819Y-144457142D02*
X144802438Y-144361904D01*
X144802438Y-144361904D02*
X144850057Y-144314285D01*
X144850057Y-144314285D02*
X144945295Y-144266666D01*
X144945295Y-144266666D02*
X145088152Y-144266666D01*
X145088152Y-144266666D02*
X145183390Y-144314285D01*
X145183390Y-144314285D02*
X145231009Y-144361904D01*
X145231009Y-144361904D02*
X145278628Y-144457142D01*
X145278628Y-144457142D02*
X145278628Y-144838094D01*
X145088152Y-143409523D02*
X145754819Y-143409523D01*
X144707200Y-143647618D02*
X145421485Y-143885713D01*
X145421485Y-143885713D02*
X145421485Y-143266666D01*
X147454819Y-144266666D02*
X146978628Y-144599999D01*
X147454819Y-144838094D02*
X146454819Y-144838094D01*
X146454819Y-144838094D02*
X146454819Y-144457142D01*
X146454819Y-144457142D02*
X146502438Y-144361904D01*
X146502438Y-144361904D02*
X146550057Y-144314285D01*
X146550057Y-144314285D02*
X146645295Y-144266666D01*
X146645295Y-144266666D02*
X146788152Y-144266666D01*
X146788152Y-144266666D02*
X146883390Y-144314285D01*
X146883390Y-144314285D02*
X146931009Y-144361904D01*
X146931009Y-144361904D02*
X146978628Y-144457142D01*
X146978628Y-144457142D02*
X146978628Y-144838094D01*
X146454819Y-143361904D02*
X146454819Y-143838094D01*
X146454819Y-143838094D02*
X146931009Y-143885713D01*
X146931009Y-143885713D02*
X146883390Y-143838094D01*
X146883390Y-143838094D02*
X146835771Y-143742856D01*
X146835771Y-143742856D02*
X146835771Y-143504761D01*
X146835771Y-143504761D02*
X146883390Y-143409523D01*
X146883390Y-143409523D02*
X146931009Y-143361904D01*
X146931009Y-143361904D02*
X147026247Y-143314285D01*
X147026247Y-143314285D02*
X147264342Y-143314285D01*
X147264342Y-143314285D02*
X147359580Y-143361904D01*
X147359580Y-143361904D02*
X147407200Y-143409523D01*
X147407200Y-143409523D02*
X147454819Y-143504761D01*
X147454819Y-143504761D02*
X147454819Y-143742856D01*
X147454819Y-143742856D02*
X147407200Y-143838094D01*
X147407200Y-143838094D02*
X147359580Y-143885713D01*
X106154761Y-174804819D02*
X106154761Y-175519104D01*
X106154761Y-175519104D02*
X106107142Y-175661961D01*
X106107142Y-175661961D02*
X106011904Y-175757200D01*
X106011904Y-175757200D02*
X105869047Y-175804819D01*
X105869047Y-175804819D02*
X105773809Y-175804819D01*
X107059523Y-175138152D02*
X107059523Y-175804819D01*
X106821428Y-174757200D02*
X106583333Y-175471485D01*
X106583333Y-175471485D02*
X107202380Y-175471485D01*
X107345238Y-175900057D02*
X108107142Y-175900057D01*
X108345238Y-175804819D02*
X108345238Y-174804819D01*
X108345238Y-174804819D02*
X108678571Y-175519104D01*
X108678571Y-175519104D02*
X109011904Y-174804819D01*
X109011904Y-174804819D02*
X109011904Y-175804819D01*
X110011904Y-175804819D02*
X109440476Y-175804819D01*
X109726190Y-175804819D02*
X109726190Y-174804819D01*
X109726190Y-174804819D02*
X109630952Y-174947676D01*
X109630952Y-174947676D02*
X109535714Y-175042914D01*
X109535714Y-175042914D02*
X109440476Y-175090533D01*
X110202381Y-175900057D02*
X110964285Y-175900057D01*
X111202381Y-175804819D02*
X111202381Y-174804819D01*
X111202381Y-174804819D02*
X111535714Y-175519104D01*
X111535714Y-175519104D02*
X111869047Y-174804819D01*
X111869047Y-174804819D02*
X111869047Y-175804819D01*
X112535714Y-174804819D02*
X112726190Y-174804819D01*
X112726190Y-174804819D02*
X112821428Y-174852438D01*
X112821428Y-174852438D02*
X112916666Y-174947676D01*
X112916666Y-174947676D02*
X112964285Y-175138152D01*
X112964285Y-175138152D02*
X112964285Y-175471485D01*
X112964285Y-175471485D02*
X112916666Y-175661961D01*
X112916666Y-175661961D02*
X112821428Y-175757200D01*
X112821428Y-175757200D02*
X112726190Y-175804819D01*
X112726190Y-175804819D02*
X112535714Y-175804819D01*
X112535714Y-175804819D02*
X112440476Y-175757200D01*
X112440476Y-175757200D02*
X112345238Y-175661961D01*
X112345238Y-175661961D02*
X112297619Y-175471485D01*
X112297619Y-175471485D02*
X112297619Y-175138152D01*
X112297619Y-175138152D02*
X112345238Y-174947676D01*
X112345238Y-174947676D02*
X112440476Y-174852438D01*
X112440476Y-174852438D02*
X112535714Y-174804819D01*
X113250000Y-174804819D02*
X113821428Y-174804819D01*
X113535714Y-175804819D02*
X113535714Y-174804819D01*
X114678571Y-175804819D02*
X114107143Y-175804819D01*
X114392857Y-175804819D02*
X114392857Y-174804819D01*
X114392857Y-174804819D02*
X114297619Y-174947676D01*
X114297619Y-174947676D02*
X114202381Y-175042914D01*
X114202381Y-175042914D02*
X114107143Y-175090533D01*
X147802438Y-181038095D02*
X147754819Y-181133333D01*
X147754819Y-181133333D02*
X147754819Y-181276190D01*
X147754819Y-181276190D02*
X147802438Y-181419047D01*
X147802438Y-181419047D02*
X147897676Y-181514285D01*
X147897676Y-181514285D02*
X147992914Y-181561904D01*
X147992914Y-181561904D02*
X148183390Y-181609523D01*
X148183390Y-181609523D02*
X148326247Y-181609523D01*
X148326247Y-181609523D02*
X148516723Y-181561904D01*
X148516723Y-181561904D02*
X148611961Y-181514285D01*
X148611961Y-181514285D02*
X148707200Y-181419047D01*
X148707200Y-181419047D02*
X148754819Y-181276190D01*
X148754819Y-181276190D02*
X148754819Y-181180952D01*
X148754819Y-181180952D02*
X148707200Y-181038095D01*
X148707200Y-181038095D02*
X148659580Y-180990476D01*
X148659580Y-180990476D02*
X148326247Y-180990476D01*
X148326247Y-180990476D02*
X148326247Y-181180952D01*
X148754819Y-180561904D02*
X147754819Y-180561904D01*
X147754819Y-180561904D02*
X148754819Y-179990476D01*
X148754819Y-179990476D02*
X147754819Y-179990476D01*
X148754819Y-179514285D02*
X147754819Y-179514285D01*
X147754819Y-179514285D02*
X147754819Y-179276190D01*
X147754819Y-179276190D02*
X147802438Y-179133333D01*
X147802438Y-179133333D02*
X147897676Y-179038095D01*
X147897676Y-179038095D02*
X147992914Y-178990476D01*
X147992914Y-178990476D02*
X148183390Y-178942857D01*
X148183390Y-178942857D02*
X148326247Y-178942857D01*
X148326247Y-178942857D02*
X148516723Y-178990476D01*
X148516723Y-178990476D02*
X148611961Y-179038095D01*
X148611961Y-179038095D02*
X148707200Y-179133333D01*
X148707200Y-179133333D02*
X148754819Y-179276190D01*
X148754819Y-179276190D02*
X148754819Y-179514285D01*
X148088152Y-178085714D02*
X148754819Y-178085714D01*
X147707200Y-178323809D02*
X148421485Y-178561904D01*
X148421485Y-178561904D02*
X148421485Y-177942857D01*
X155233333Y-143154819D02*
X154900000Y-142678628D01*
X154661905Y-143154819D02*
X154661905Y-142154819D01*
X154661905Y-142154819D02*
X155042857Y-142154819D01*
X155042857Y-142154819D02*
X155138095Y-142202438D01*
X155138095Y-142202438D02*
X155185714Y-142250057D01*
X155185714Y-142250057D02*
X155233333Y-142345295D01*
X155233333Y-142345295D02*
X155233333Y-142488152D01*
X155233333Y-142488152D02*
X155185714Y-142583390D01*
X155185714Y-142583390D02*
X155138095Y-142631009D01*
X155138095Y-142631009D02*
X155042857Y-142678628D01*
X155042857Y-142678628D02*
X154661905Y-142678628D01*
X156090476Y-142154819D02*
X155900000Y-142154819D01*
X155900000Y-142154819D02*
X155804762Y-142202438D01*
X155804762Y-142202438D02*
X155757143Y-142250057D01*
X155757143Y-142250057D02*
X155661905Y-142392914D01*
X155661905Y-142392914D02*
X155614286Y-142583390D01*
X155614286Y-142583390D02*
X155614286Y-142964342D01*
X155614286Y-142964342D02*
X155661905Y-143059580D01*
X155661905Y-143059580D02*
X155709524Y-143107200D01*
X155709524Y-143107200D02*
X155804762Y-143154819D01*
X155804762Y-143154819D02*
X155995238Y-143154819D01*
X155995238Y-143154819D02*
X156090476Y-143107200D01*
X156090476Y-143107200D02*
X156138095Y-143059580D01*
X156138095Y-143059580D02*
X156185714Y-142964342D01*
X156185714Y-142964342D02*
X156185714Y-142726247D01*
X156185714Y-142726247D02*
X156138095Y-142631009D01*
X156138095Y-142631009D02*
X156090476Y-142583390D01*
X156090476Y-142583390D02*
X155995238Y-142535771D01*
X155995238Y-142535771D02*
X155804762Y-142535771D01*
X155804762Y-142535771D02*
X155709524Y-142583390D01*
X155709524Y-142583390D02*
X155661905Y-142631009D01*
X155661905Y-142631009D02*
X155614286Y-142726247D01*
X67694819Y-151021904D02*
X68504342Y-151021904D01*
X68504342Y-151021904D02*
X68599580Y-150974285D01*
X68599580Y-150974285D02*
X68647200Y-150926666D01*
X68647200Y-150926666D02*
X68694819Y-150831428D01*
X68694819Y-150831428D02*
X68694819Y-150640952D01*
X68694819Y-150640952D02*
X68647200Y-150545714D01*
X68647200Y-150545714D02*
X68599580Y-150498095D01*
X68599580Y-150498095D02*
X68504342Y-150450476D01*
X68504342Y-150450476D02*
X67694819Y-150450476D01*
X67694819Y-150069523D02*
X67694819Y-149450476D01*
X67694819Y-149450476D02*
X68075771Y-149783809D01*
X68075771Y-149783809D02*
X68075771Y-149640952D01*
X68075771Y-149640952D02*
X68123390Y-149545714D01*
X68123390Y-149545714D02*
X68171009Y-149498095D01*
X68171009Y-149498095D02*
X68266247Y-149450476D01*
X68266247Y-149450476D02*
X68504342Y-149450476D01*
X68504342Y-149450476D02*
X68599580Y-149498095D01*
X68599580Y-149498095D02*
X68647200Y-149545714D01*
X68647200Y-149545714D02*
X68694819Y-149640952D01*
X68694819Y-149640952D02*
X68694819Y-149926666D01*
X68694819Y-149926666D02*
X68647200Y-150021904D01*
X68647200Y-150021904D02*
X68599580Y-150069523D01*
D11*
%TO.C,J3*%
X125670000Y-158855000D02*
X125670000Y-153715000D01*
X128330000Y-153715000D02*
X125670000Y-153715000D01*
X128330000Y-158855000D02*
X125670000Y-158855000D01*
X128330000Y-158855000D02*
X128330000Y-153715000D01*
X128330000Y-160125000D02*
X128330000Y-161455000D01*
X128330000Y-161455000D02*
X127000000Y-161455000D01*
%TO.C,C5*%
X97660000Y-157828733D02*
X97660000Y-158121267D01*
X98680000Y-157828733D02*
X98680000Y-158121267D01*
%TO.C,R9*%
X106907258Y-153952500D02*
X106432742Y-153952500D01*
X106907258Y-154997500D02*
X106432742Y-154997500D01*
%TO.C,MO1*%
X127700000Y-152000000D02*
G75*
G02*
X126300000Y-152000000I-700000J0D01*
G01*
X126300000Y-152000000D02*
G75*
G02*
X127700000Y-152000000I700000J0D01*
G01*
%TO.C,D3*%
X156315000Y-140265000D02*
X156315000Y-141735000D01*
X156315000Y-141735000D02*
X158600000Y-141735000D01*
X158600000Y-140265000D02*
X156315000Y-140265000D01*
%TO.C,C4*%
X92410000Y-152715000D02*
X92410000Y-153915000D01*
X92410000Y-157235000D02*
X92410000Y-156035000D01*
X95865563Y-152715000D02*
X92410000Y-152715000D01*
X95865563Y-157235000D02*
X92410000Y-157235000D01*
X96930000Y-153779437D02*
X95865563Y-152715000D01*
X96930000Y-153779437D02*
X96930000Y-153915000D01*
X96930000Y-156170563D02*
X95865563Y-157235000D01*
X96930000Y-156170563D02*
X96930000Y-156035000D01*
X97420000Y-156785000D02*
X97420000Y-156285000D01*
X97670000Y-156535000D02*
X97170000Y-156535000D01*
%TO.C,J3_F2_BAT1*%
X65150000Y-168400000D02*
X65150000Y-171550000D01*
X65150000Y-171550000D02*
X68000000Y-174150000D01*
X68000000Y-165850000D02*
X65150000Y-168400000D01*
X68000000Y-174150000D02*
X80850000Y-174150000D01*
X80850000Y-165850000D02*
X68000000Y-165850000D01*
X80850000Y-174150000D02*
X80850000Y-165850000D01*
%TO.C,C2*%
X103360000Y-156321267D02*
X103360000Y-156028733D01*
X104380000Y-156321267D02*
X104380000Y-156028733D01*
%TO.C,J4_M0_MOT0*%
X83750000Y-168400000D02*
X83750000Y-171550000D01*
X83750000Y-171550000D02*
X86600000Y-174150000D01*
X86600000Y-165850000D02*
X83750000Y-168400000D01*
X86600000Y-174150000D02*
X99450000Y-174150000D01*
X99450000Y-165850000D02*
X86600000Y-165850000D01*
X99450000Y-174150000D02*
X99450000Y-165850000D01*
%TO.C,TXRX1*%
X90670000Y-148280000D02*
X90670000Y-146950000D01*
X92000000Y-148280000D02*
X90670000Y-148280000D01*
X93270000Y-145620000D02*
X98410000Y-145620000D01*
X93270000Y-148280000D02*
X93270000Y-145620000D01*
X93270000Y-148280000D02*
X98410000Y-148280000D01*
X98410000Y-148280000D02*
X98410000Y-145620000D01*
%TO.C,J1*%
X129670000Y-158830000D02*
X129670000Y-153690000D01*
X132330000Y-153690000D02*
X129670000Y-153690000D01*
X132330000Y-158830000D02*
X129670000Y-158830000D01*
X132330000Y-158830000D02*
X132330000Y-153690000D01*
X132330000Y-160100000D02*
X132330000Y-161430000D01*
X132330000Y-161430000D02*
X131000000Y-161430000D01*
%TO.C,J13*%
X111920000Y-149930000D02*
X111920000Y-148600000D01*
X113250000Y-149930000D02*
X111920000Y-149930000D01*
X114520000Y-147270000D02*
X122200000Y-147270000D01*
X114520000Y-149930000D02*
X114520000Y-147270000D01*
X114520000Y-149930000D02*
X122200000Y-149930000D01*
X122200000Y-149930000D02*
X122200000Y-147270000D01*
%TO.C,R7*%
X134475242Y-159596250D02*
X134949758Y-159596250D01*
X134475242Y-160641250D02*
X134949758Y-160641250D01*
%TO.C,C3*%
X99660000Y-158121267D02*
X99660000Y-157828733D01*
X100680000Y-158121267D02*
X100680000Y-157828733D01*
%TO.C,J4_M3_MOT3*%
X139150000Y-168400000D02*
X139150000Y-171550000D01*
X139150000Y-171550000D02*
X142000000Y-174150000D01*
X142000000Y-165850000D02*
X139150000Y-168400000D01*
X142000000Y-174150000D02*
X154850000Y-174150000D01*
X154850000Y-165850000D02*
X142000000Y-165850000D01*
X154850000Y-174150000D02*
X154850000Y-165850000D01*
%TO.C,D7*%
X133227500Y-157783750D02*
X133227500Y-159253750D01*
X133227500Y-159253750D02*
X135512500Y-159253750D01*
X135512500Y-157783750D02*
X133227500Y-157783750D01*
%TO.C,J15VBECOUT1*%
X156070000Y-153395000D02*
X157400000Y-153395000D01*
X156070000Y-154725000D02*
X156070000Y-153395000D01*
X156070000Y-155995000D02*
X156070000Y-161135000D01*
X156070000Y-155995000D02*
X158730000Y-155995000D01*
X156070000Y-161135000D02*
X158730000Y-161135000D01*
X158730000Y-155995000D02*
X158730000Y-161135000D01*
%TO.C,R8*%
X92012742Y-157727500D02*
X92487258Y-157727500D01*
X92012742Y-158772500D02*
X92487258Y-158772500D01*
%TO.C,RPI02*%
X78515000Y-141825000D02*
X78515000Y-117825000D01*
X85265000Y-114065000D02*
X85265000Y-114765000D01*
X85265000Y-114765000D02*
X81575000Y-114765000D01*
X85615000Y-138725000D02*
X86945000Y-138725000D01*
X85615000Y-140055000D02*
X85615000Y-138725000D01*
X85615000Y-141325000D02*
X88215000Y-141325000D01*
X85615000Y-143925000D02*
X85615000Y-141325000D01*
X85615000Y-143925000D02*
X136535000Y-143925000D01*
X88215000Y-138725000D02*
X136535000Y-138725000D01*
X88215000Y-141325000D02*
X88215000Y-138725000D01*
X96685000Y-114065000D02*
X85265000Y-114065000D01*
X96685000Y-114765000D02*
X96685000Y-114065000D01*
X115915000Y-112965000D02*
X115915000Y-114765000D01*
X115915000Y-114765000D02*
X96685000Y-114765000D01*
X124035000Y-112965000D02*
X115915000Y-112965000D01*
X124035000Y-114765000D02*
X124035000Y-112965000D01*
X128515000Y-112965000D02*
X128515000Y-114765000D01*
X128515000Y-114765000D02*
X124035000Y-114765000D01*
X136535000Y-143925000D02*
X136535000Y-138725000D01*
X136635000Y-112965000D02*
X128515000Y-112965000D01*
X136635000Y-114765000D02*
X136635000Y-112965000D01*
X140575000Y-114765000D02*
X136635000Y-114765000D01*
X140575000Y-144885000D02*
X81575000Y-144885000D01*
X143635000Y-121265000D02*
X143635000Y-117825000D01*
X143635000Y-138385000D02*
X143635000Y-141825000D01*
X143635000Y-138385000D02*
X144835000Y-138385000D01*
X144835000Y-121265000D02*
X143635000Y-121265000D01*
X144835000Y-138385000D02*
X144835000Y-121265000D01*
X78515000Y-117825000D02*
G75*
G02*
X81575000Y-114765000I3060000J0D01*
G01*
X81575000Y-144885000D02*
G75*
G02*
X78515000Y-141825000I-1J3059999D01*
G01*
X140575000Y-114765000D02*
G75*
G02*
X143635000Y-117825000I0J-3060000D01*
G01*
X143635000Y-141825000D02*
G75*
G02*
X140575000Y-144885000I-3059999J-1D01*
G01*
%TO.C,MO0*%
X131700000Y-152000000D02*
G75*
G02*
X130300000Y-152000000I-700000J0D01*
G01*
X130300000Y-152000000D02*
G75*
G02*
X131700000Y-152000000I700000J0D01*
G01*
%TO.C,SDA3*%
X95700000Y-151400000D02*
G75*
G02*
X94300000Y-151400000I-700000J0D01*
G01*
X94300000Y-151400000D02*
G75*
G02*
X95700000Y-151400000I700000J0D01*
G01*
%TO.C,D1*%
X145565000Y-137115000D02*
X145565000Y-139400000D01*
X147035000Y-137115000D02*
X145565000Y-137115000D01*
X147035000Y-139400000D02*
X147035000Y-137115000D01*
%TO.C,D5*%
X156315000Y-181865000D02*
X156315000Y-183335000D01*
X156315000Y-183335000D02*
X158600000Y-183335000D01*
X158600000Y-181865000D02*
X156315000Y-181865000D01*
%TO.C,J14GND1*%
X156120000Y-144330000D02*
X157450000Y-144330000D01*
X156120000Y-145660000D02*
X156120000Y-144330000D01*
X156120000Y-146930000D02*
X156120000Y-152070000D01*
X156120000Y-146930000D02*
X158780000Y-146930000D01*
X156120000Y-152070000D02*
X158780000Y-152070000D01*
X158780000Y-146930000D02*
X158780000Y-152070000D01*
%TO.C,VDDIO1*%
X89200000Y-154000000D02*
G75*
G02*
X87800000Y-154000000I-700000J0D01*
G01*
X87800000Y-154000000D02*
G75*
G02*
X89200000Y-154000000I700000J0D01*
G01*
%TO.C,J4*%
X121670000Y-158855000D02*
X121670000Y-153715000D01*
X124330000Y-153715000D02*
X121670000Y-153715000D01*
X124330000Y-158855000D02*
X121670000Y-158855000D01*
X124330000Y-158855000D02*
X124330000Y-153715000D01*
X124330000Y-160125000D02*
X124330000Y-161455000D01*
X124330000Y-161455000D02*
X123000000Y-161455000D01*
%TO.C,MO2*%
X123700000Y-152000000D02*
G75*
G02*
X122300000Y-152000000I-700000J0D01*
G01*
X122300000Y-152000000D02*
G75*
G02*
X123700000Y-152000000I700000J0D01*
G01*
%TO.C,MO3*%
X119700000Y-152000000D02*
G75*
G02*
X118300000Y-152000000I-700000J0D01*
G01*
X118300000Y-152000000D02*
G75*
G02*
X119700000Y-152000000I700000J0D01*
G01*
%TO.C,J9*%
X73590000Y-156290000D02*
X73590000Y-162260000D01*
X73590000Y-162260000D02*
X86210000Y-162260000D01*
X73600000Y-160000000D02*
X74350000Y-160000000D01*
X73600000Y-161500000D02*
X73600000Y-162250000D01*
X73600000Y-162250000D02*
X75400000Y-162250000D01*
X74350000Y-157050000D02*
X79900000Y-157050000D01*
X74350000Y-160000000D02*
X74350000Y-157050000D01*
X75400000Y-161500000D02*
X73600000Y-161500000D01*
X75400000Y-162250000D02*
X75400000Y-161500000D01*
X76900000Y-161500000D02*
X76900000Y-162250000D01*
X76900000Y-162250000D02*
X82900000Y-162250000D01*
X82900000Y-161500000D02*
X76900000Y-161500000D01*
X82900000Y-162250000D02*
X82900000Y-161500000D01*
X84400000Y-161500000D02*
X84400000Y-162250000D01*
X84400000Y-162250000D02*
X86200000Y-162250000D01*
X85250000Y-162550000D02*
X86500000Y-162550000D01*
X85450000Y-157050000D02*
X79900000Y-157050000D01*
X85450000Y-160000000D02*
X85450000Y-157050000D01*
X86200000Y-160000000D02*
X85450000Y-160000000D01*
X86200000Y-161500000D02*
X84400000Y-161500000D01*
X86200000Y-162250000D02*
X86200000Y-161500000D01*
X86210000Y-156290000D02*
X73590000Y-156290000D01*
X86210000Y-162260000D02*
X86210000Y-156290000D01*
X86500000Y-162550000D02*
X86500000Y-161300000D01*
%TO.C,R3*%
X64837258Y-180477500D02*
X64362742Y-180477500D01*
X64837258Y-181522500D02*
X64362742Y-181522500D01*
%TO.C,R11*%
X106432742Y-156952500D02*
X106907258Y-156952500D01*
X106432742Y-157997500D02*
X106907258Y-157997500D01*
%TO.C,GND7*%
X152550000Y-160250000D02*
G75*
G02*
X151150000Y-160250000I-700000J0D01*
G01*
X151150000Y-160250000D02*
G75*
G02*
X152550000Y-160250000I700000J0D01*
G01*
%TO.C,R1*%
X157562742Y-138877500D02*
X158037258Y-138877500D01*
X157562742Y-139922500D02*
X158037258Y-139922500D01*
%TO.C,J10*%
X63370000Y-159670000D02*
X63370000Y-139290000D01*
X66030000Y-139290000D02*
X63370000Y-139290000D01*
X66030000Y-159670000D02*
X63370000Y-159670000D01*
X66030000Y-159670000D02*
X66030000Y-139290000D01*
X66030000Y-160940000D02*
X66030000Y-162270000D01*
X66030000Y-162270000D02*
X64700000Y-162270000D01*
%TO.C,VDD1*%
X89000000Y-157350000D02*
G75*
G02*
X87600000Y-157350000I-700000J0D01*
G01*
X87600000Y-157350000D02*
G75*
G02*
X89000000Y-157350000I700000J0D01*
G01*
%TO.C,D4*%
X156315000Y-137065000D02*
X156315000Y-138535000D01*
X156315000Y-138535000D02*
X158600000Y-138535000D01*
X158600000Y-137065000D02*
X156315000Y-137065000D01*
%TO.C,R15*%
X67527500Y-148412742D02*
X67527500Y-148887258D01*
X68572500Y-148412742D02*
X68572500Y-148887258D01*
%TO.C,R14*%
X67527500Y-151462742D02*
X67527500Y-151937258D01*
X68572500Y-151462742D02*
X68572500Y-151937258D01*
%TO.C,5V1*%
X148900000Y-160500000D02*
G75*
G02*
X147500000Y-160500000I-700000J0D01*
G01*
X147500000Y-160500000D02*
G75*
G02*
X148900000Y-160500000I700000J0D01*
G01*
%TO.C,R2*%
X157562742Y-180477500D02*
X158037258Y-180477500D01*
X157562742Y-181522500D02*
X158037258Y-181522500D01*
%TO.C,J16*%
X150570000Y-154310000D02*
X150570000Y-149170000D01*
X153230000Y-149170000D02*
X150570000Y-149170000D01*
X153230000Y-154310000D02*
X150570000Y-154310000D01*
X153230000Y-154310000D02*
X153230000Y-149170000D01*
X153230000Y-155580000D02*
X153230000Y-156910000D01*
X153230000Y-156910000D02*
X151900000Y-156910000D01*
%TO.C,J4_M2_MOT2*%
X120550000Y-168400000D02*
X120550000Y-171550000D01*
X120550000Y-171550000D02*
X123400000Y-174150000D01*
X123400000Y-165850000D02*
X120550000Y-168400000D01*
X123400000Y-174150000D02*
X136250000Y-174150000D01*
X136250000Y-165850000D02*
X123400000Y-165850000D01*
X136250000Y-174150000D02*
X136250000Y-165850000D01*
%TO.C,R10*%
X95512742Y-157727500D02*
X95987258Y-157727500D01*
X95512742Y-158772500D02*
X95987258Y-158772500D01*
%TO.C,D6*%
X63800000Y-183335000D02*
X66085000Y-183335000D01*
X66085000Y-181865000D02*
X63800000Y-181865000D01*
X66085000Y-183335000D02*
X66085000Y-181865000D01*
%TO.C,U1*%
X98820000Y-151675000D02*
X99570000Y-151675000D01*
X98820000Y-152375000D02*
X98820000Y-151675000D01*
X98820000Y-155075000D02*
X98820000Y-154375000D01*
X99570000Y-155075000D02*
X98820000Y-155075000D01*
X101970000Y-151675000D02*
X102720000Y-151675000D01*
X101970000Y-155075000D02*
X102520000Y-155075000D01*
X102720000Y-151675000D02*
X102720000Y-152375000D01*
X102720000Y-154875000D02*
X102720000Y-154375000D01*
D12*
X102720000Y-155435000D02*
X102720000Y-155075000D01*
X103080000Y-155075000D01*
X102720000Y-155435000D01*
G36*
X102720000Y-155435000D02*
G01*
X102720000Y-155075000D01*
X103080000Y-155075000D01*
X102720000Y-155435000D01*
G37*
D11*
%TO.C,C1*%
X101660000Y-157828733D02*
X101660000Y-158121267D01*
X102680000Y-157828733D02*
X102680000Y-158121267D01*
%TO.C,J7*%
X117670000Y-158870000D02*
X117670000Y-153730000D01*
X120330000Y-153730000D02*
X117670000Y-153730000D01*
X120330000Y-158870000D02*
X117670000Y-158870000D01*
X120330000Y-158870000D02*
X120330000Y-153730000D01*
X120330000Y-160140000D02*
X120330000Y-161470000D01*
X120330000Y-161470000D02*
X119000000Y-161470000D01*
%TO.C,SCL1*%
X98300000Y-151400000D02*
G75*
G02*
X96900000Y-151400000I-700000J0D01*
G01*
X96900000Y-151400000D02*
G75*
G02*
X98300000Y-151400000I700000J0D01*
G01*
%TO.C,BAT1*%
X65500000Y-178400000D02*
G75*
G02*
X64100000Y-178400000I-700000J0D01*
G01*
X64100000Y-178400000D02*
G75*
G02*
X65500000Y-178400000I700000J0D01*
G01*
%TO.C,D2*%
X147165000Y-137115000D02*
X147165000Y-139400000D01*
X148635000Y-137115000D02*
X147165000Y-137115000D01*
X148635000Y-139400000D02*
X148635000Y-137115000D01*
%TO.C,R4*%
X144777500Y-141937258D02*
X144777500Y-141462742D01*
X145822500Y-141937258D02*
X145822500Y-141462742D01*
%TO.C,R5*%
X146377500Y-141937258D02*
X146377500Y-141462742D01*
X147422500Y-141937258D02*
X147422500Y-141462742D01*
%TO.C,J4_M1_MOT1*%
X102150000Y-168400000D02*
X102150000Y-171550000D01*
X102150000Y-171550000D02*
X105000000Y-174150000D01*
X105000000Y-165850000D02*
X102150000Y-168400000D01*
X105000000Y-174150000D02*
X117850000Y-174150000D01*
X117850000Y-165850000D02*
X105000000Y-165850000D01*
X117850000Y-174150000D02*
X117850000Y-165850000D01*
%TO.C,R6*%
X157562742Y-142077500D02*
X158037258Y-142077500D01*
X157562742Y-143122500D02*
X158037258Y-143122500D01*
%TO.C,U3*%
X69240000Y-147610000D02*
X69240000Y-149260000D01*
X69240000Y-151260000D02*
X69240000Y-152910000D01*
X69240000Y-152910000D02*
X87140000Y-152910000D01*
X87140000Y-147610000D02*
X69240000Y-147610000D01*
X87140000Y-152910000D02*
X87140000Y-147610000D01*
X69240000Y-149260000D02*
G75*
G02*
X69240000Y-151260000I0J-1000000D01*
G01*
%TD*%
M02*
